<?xml version="1.0" encoding="utf-8"?>
<!-- Generator: Adobe Illustrator 28.2.0, SVG Export Plug-In . SVG Version: 6.00 Build 0)  -->
<svg version="1.1" id="uuid-9df65100-8bd4-49f1-8f98-8fac51963770"
	 xmlns="http://www.w3.org/2000/svg" xmlns:xlink="http://www.w3.org/1999/xlink" x="0px" y="0px" viewBox="0 0 283.5 283.5"
	 style="enable-background:new 0 0 283.5 283.5;" xml:space="preserve">
<style type="text/css">
	.st0{fill:#FCBE11;}
</style>
<path class="st0" d="M251.4,79.7V0L92.6,35.8v191.3c-6.3-3.9-14.1-6.2-22.6-6.2c-20.9,0-37.9,14-37.9,31.2s17,31.2,37.9,31.2
	s36.7-13,37.8-29.5l0,0v0c0-0.6,0-1.2,0-1.8s0-1.2,0-1.8V112.1l128.3-28.9v107.2c-6.3-3.9-14.1-6.2-22.6-6.2
	c-20.9,0-37.9,14-37.9,31.2s17,31.2,37.9,31.2s36.7-13,37.8-29.5l0,0v0c0-0.6,0-1.2,0-1.8s0-1.2,0-1.8L251.4,79.7L251.4,79.7z"/>
</svg>
