<?xml version="1.0" encoding="utf-8"?>
<!-- Generator: Adobe Illustrator 28.2.0, SVG Export Plug-In . SVG Version: 6.00 Build 0)  -->
<svg version="1.1" id="uuid-89e9aaf8-bc1f-4473-bc0e-07d242056e55"
	 xmlns="http://www.w3.org/2000/svg" xmlns:xlink="http://www.w3.org/1999/xlink" x="0px" y="0px" viewBox="0 0 283.5 283.5"
	 style="enable-background:new 0 0 283.5 283.5;" xml:space="preserve">
<style type="text/css">
	.st0{fill:#FCBE11;}
</style>
<path class="st0" d="M141.8,0.1C63.5,0.1,0.1,63.5,0.1,141.7s63.4,141.7,141.7,141.7S283.5,220,283.5,141.7S220,0.1,141.8,0.1z
	 M173.1,58.4h38.2v78.9h-38.2V58.4z M72.2,58.4h38.2v78.9H72.2C72.2,137.2,72.2,58.4,72.2,58.4z M141.7,249.9
	c-57.9,0-104.9-47.1-104.9-104.9h31.8c0,40.3,32.8,73.1,73.1,73.1s73.1-32.8,73.1-73.1h31.8C246.7,202.7,199.6,249.9,141.7,249.9
	L141.7,249.9z"/>
</svg>
