<?xml version="1.0" encoding="utf-8"?>
<!-- Generator: Adobe Illustrator 28.2.0, SVG Export Plug-In . SVG Version: 6.00 Build 0)  -->
<svg version="1.1" id="Calque_1" xmlns="http://www.w3.org/2000/svg" xmlns:xlink="http://www.w3.org/1999/xlink" x="0px" y="0px"
	 viewBox="0 0 283.5 283.5" style="enable-background:new 0 0 283.5 283.5;" xml:space="preserve">
<style type="text/css">
	.st0{fill:#FCBE1A;}
</style>
<path class="st0" d="M283.5,131.4h-43.1c-4.3-47.2-41.4-84.7-88.4-89.6V0h-20.5v41.8c-47.1,4.9-84.1,42.3-88.5,89.6H0v20.5h43.2
	c5.4,46.1,42,82.3,88.2,87.1v44.5h20.5V239c46.2-4.8,82.8-41,88.2-87.1h43.4V131.4z M219.8,131.4h-67.9V62.3
	C187.6,67,215.7,95.4,219.8,131.4z M131.4,62.3v69.1h-68C67.6,95.4,95.6,67,131.4,62.3z M63.7,151.9h67.7v66.6
	C96.4,213.9,68.8,186.7,63.7,151.9z M151.9,218.5v-66.6h67.7C214.5,186.7,186.8,213.9,151.9,218.5z"/>
</svg>
