<?xml version="1.0" encoding="utf-8"?>
<!-- Generator: Adobe Illustrator 28.2.0, SVG Export Plug-In . SVG Version: 6.00 Build 0)  -->
<svg version="1.1" id="uuid-89e9aaf8-bc1f-4473-bc0e-07d242056e55"
	 xmlns="http://www.w3.org/2000/svg" xmlns:xlink="http://www.w3.org/1999/xlink" x="0px" y="0px" viewBox="0 0 283.5 283.5"
	 style="enable-background:new 0 0 283.5 283.5;" xml:space="preserve">
<style type="text/css">
	.st0{fill:#FCBE11;}
</style>
<path class="st0" d="M141.8,283.4c78.3,0,141.7-63.4,141.7-141.6S220.1,0.1,141.8,0.1S0.1,63.5,0.1,141.8S63.6,283.4,141.8,283.4z
	 M110.4,225.1H72.3v-78.9h38.2V225.1z M211.4,225.1h-38.2v-78.9h38.2C211.4,146.2,211.4,225.1,211.4,225.1z M141.8,33.6
	c57.9,0,104.9,47.1,104.9,104.9H215c0-40.3-32.8-73.1-73.1-73.1s-73.1,32.8-73.1,73.1H36.9C36.9,80.7,84,33.6,141.8,33.6L141.8,33.6
	z"/>
</svg>
