<?xml version="1.0" encoding="utf-8"?>
<!-- Generator: Adobe Illustrator 28.2.0, SVG Export Plug-In . SVG Version: 6.00 Build 0)  -->
<svg version="1.1" id="uuid-df0c6f5a-40eb-46de-a5f2-202dd79cac67"
	 xmlns="http://www.w3.org/2000/svg" xmlns:xlink="http://www.w3.org/1999/xlink" x="0px" y="0px" viewBox="0 0 283.5 283.5"
	 style="enable-background:new 0 0 283.5 283.5;" xml:space="preserve">
<style type="text/css">
	.st0{fill:#FCBE11;}
</style>
<path class="st0" d="M254.6,108.7c0-1.7-0.1-3.4-0.4-5.1C249.5,45.6,201,0,141.7,0S33.9,45.6,29.3,103.7c-0.2,1.6-0.4,3.3-0.4,5.1
	c0,0.8,0,1.5,0,2.3c0,0.6,0,1.2,0,1.8c0,6,0.5,11.8,1.4,17.5c8,63.9,51.3,125.8,111.5,153.1c60.2-27.3,103.4-89.1,111.5-153.1
	c0.9-5.7,1.4-11.6,1.4-17.5c0-0.6,0-1.2,0-1.8C254.5,110.3,254.5,109.5,254.6,108.7L254.6,108.7z M128.7,192.4
	c-19.5,3.1-40.1-2.9-55.1-17.9s-20.9-35.6-17.9-55.1c19.5-3.1,40.1,2.9,55.1,17.9S131.7,172.9,128.7,192.4z M209.9,174.5
	c-15,15-35.6,20.9-55.1,17.9c-3.1-19.5,2.9-40.1,17.9-55.1c15-15,35.6-20.9,55.1-17.9C230.8,138.9,224.8,159.5,209.9,174.5
	L209.9,174.5z"/>
</svg>
