<?xml version="1.0" encoding="utf-8"?>
<!-- Generator: Adobe Illustrator 26.5.0, SVG Export Plug-In . SVG Version: 6.00 Build 0)  -->
<svg version="1.1" id="uuid-1654dace-25d1-4169-bc48-a829b331cdca"
	 xmlns="http://www.w3.org/2000/svg" xmlns:xlink="http://www.w3.org/1999/xlink" x="0px" y="0px" viewBox="0 0 372.5 95.3"
	 style="enable-background:new 0 0 372.5 95.3;" xml:space="preserve">
<style type="text/css">
	.st0{fill:#FCBE1B;}
	.st1{fill:#E8629F;}
	.st2{fill:none;stroke:#FCBE1B;stroke-miterlimit:10;}
	.st3{fill:#261923;}
	.st4{fill:none;stroke:#261923;stroke-width:0.53;stroke-miterlimit:10;}
	.st5{fill:none;stroke:#FCBE1B;stroke-width:2;stroke-miterlimit:10;}
</style>
<g>
	<path class="st0" d="M15.6,95.3h324.8c0,0,11-33,32.1-33H0V67h7.4v15.4l7,5.3L15.6,95.3L15.6,95.3z"/>
	<rect x="58.3" y="53.2" class="st0" width="54.5" height="9.1"/>
	<rect x="74" y="35.9" class="st1" width="23.2" height="17.3"/>
	<rect x="71.8" y="18.6" class="st0" width="27.5" height="17.3"/>
	<rect x="77.2" y="14.1" class="st1" width="16.8" height="4.5"/>
	<rect x="71.8" y="38.5" class="st0" width="27.5" height="3.4"/>
	<line class="st2" x1="85.6" y1="14.1" x2="85.6" y2="0"/>
	<line class="st2" x1="79.9" y1="14.1" x2="79.9" y2="5.4"/>
	<line class="st2" x1="91.2" y1="14.1" x2="91.2" y2="5.4"/>
	<g>
		<g>
			<rect x="53.2" y="68.5" class="st3" width="4" height="4"/>
			<path class="st1" d="M57,68.7v3.5h-3.5v-3.5H57 M57.5,68.2H53v4.5h4.5V68.2L57.5,68.2z"/>
		</g>
		<g>
			<rect x="59.8" y="68.5" class="st3" width="4" height="4"/>
			<path class="st1" d="M63.5,68.7v3.5H60v-3.5H63.5 M64,68.2h-4.5v4.5H64V68.2L64,68.2z"/>
		</g>
		<g>
			<rect x="66.3" y="68.5" class="st3" width="4" height="4"/>
			<path class="st1" d="M70,68.7v3.5h-3.5v-3.5H70 M70.5,68.2H66v4.5h4.5V68.2L70.5,68.2z"/>
		</g>
		<g>
			<rect x="72.8" y="68.5" class="st3" width="4" height="4"/>
			<path class="st1" d="M76.5,68.7v3.5H73v-3.5H76.5 M77,68.2h-4.5v4.5H77V68.2L77,68.2z"/>
		</g>
		<g>
			<rect x="79.3" y="68.5" class="st3" width="4" height="4"/>
			<path class="st1" d="M83,68.7v3.5h-3.5v-3.5H83 M83.5,68.2H79v4.5h4.5V68.2L83.5,68.2z"/>
		</g>
		<g>
			<rect x="85.8" y="68.5" class="st3" width="4" height="4"/>
			<path class="st1" d="M89.6,68.7v3.5H86v-3.5H89.6 M90.1,68.2h-4.5v4.5h4.5V68.2L90.1,68.2z"/>
		</g>
		<g>
			<rect x="92.3" y="68.5" class="st3" width="4" height="4"/>
			<path class="st1" d="M96.1,68.7v3.5h-3.5v-3.5H96.1 M96.6,68.2H92v4.5h4.5V68.2L96.6,68.2z"/>
		</g>
		<g>
			<rect x="98.8" y="68.5" class="st3" width="4" height="4"/>
			<path class="st1" d="M102.6,68.7v3.5h-3.5v-3.5H102.6 M103.1,68.2h-4.5v4.5h4.5V68.2L103.1,68.2z"/>
		</g>
		<g>
			<rect x="105.3" y="68.5" class="st3" width="4" height="4"/>
			<path class="st1" d="M109.1,68.7v3.5h-3.5v-3.5H109.1 M109.6,68.2h-4.5v4.5h4.5V68.2L109.6,68.2z"/>
		</g>
		<g>
			<rect x="111.8" y="68.5" class="st3" width="4" height="4"/>
			<path class="st1" d="M115.6,68.7v3.5h-3.5v-3.5H115.6 M116.1,68.2h-4.5v4.5h4.5V68.2L116.1,68.2z"/>
		</g>
		<g>
			<rect x="118.3" y="68.5" class="st3" width="4" height="4"/>
			<path class="st1" d="M122.1,68.7v3.5h-3.5v-3.5H122.1 M122.6,68.2h-4.5v4.5h4.5V68.2L122.6,68.2z"/>
		</g>
		<g>
			<rect x="124.8" y="68.5" class="st3" width="4" height="4"/>
			<path class="st1" d="M128.6,68.7v3.5h-3.5v-3.5H128.6 M129.1,68.2h-4.5v4.5h4.5V68.2L129.1,68.2z"/>
		</g>
		<g>
			<rect x="131.3" y="68.5" class="st3" width="4" height="4"/>
			<path class="st1" d="M135.1,68.7v3.5h-3.5v-3.5H135.1 M135.6,68.2h-4.5v4.5h4.5V68.2L135.6,68.2z"/>
		</g>
		<g>
			<rect x="137.8" y="68.5" class="st3" width="4" height="4"/>
			<path class="st1" d="M141.6,68.7v3.5h-3.5v-3.5H141.6 M142.1,68.2h-4.5v4.5h4.5V68.2L142.1,68.2z"/>
		</g>
		<g>
			<rect x="144.4" y="68.5" class="st3" width="4" height="4"/>
			<path class="st1" d="M148.1,68.7v3.5h-3.5v-3.5H148.1 M148.6,68.2h-4.5v4.5h4.5V68.2L148.6,68.2z"/>
		</g>
		<g>
			<rect x="150.9" y="68.5" class="st3" width="4" height="4"/>
			<path class="st1" d="M154.6,68.7v3.5h-3.5v-3.5H154.6 M155.1,68.2h-4.5v4.5h4.5V68.2L155.1,68.2z"/>
		</g>
		<g>
			<rect x="157.4" y="68.5" class="st3" width="4" height="4"/>
			<path class="st1" d="M161.1,68.7v3.5h-3.5v-3.5H161.1 M161.6,68.2h-4.5v4.5h4.5V68.2L161.6,68.2z"/>
		</g>
	</g>
	<polygon class="st1" points="366.1,67 0,67 0,62.3 372.5,62.3 	"/>
	<polygon class="st1" points="7.4,82.4 30.7,82.4 46.1,67 7.4,67 	"/>
	<g>
		<g>
			<rect x="169.7" y="64.9" class="st1" width="33.9" height="13.7"/>
			<path class="st3" d="M203.4,65.1v13.2h-33.4V65.1H203.4 M203.9,64.6h-34.4v14.2h34.4V64.6L203.9,64.6z"/>
		</g>
		<g>
			<line class="st4" x1="170.9" y1="66.4" x2="202.3" y2="66.4"/>
			<line class="st4" x1="170.9" y1="68.4" x2="202.3" y2="68.4"/>
			<line class="st4" x1="170.9" y1="70.4" x2="202.3" y2="70.4"/>
			<line class="st4" x1="170.9" y1="72.3" x2="202.3" y2="72.3"/>
			<line class="st4" x1="170.9" y1="74.3" x2="202.3" y2="74.3"/>
			<line class="st4" x1="170.9" y1="76.2" x2="202.3" y2="76.2"/>
		</g>
	</g>
	<g>
		<g>
			<rect x="219.4" y="64.9" class="st1" width="33.9" height="13.7"/>
			<path class="st3" d="M253.1,65.1v13.2h-33.4V65.1H253.1 M253.6,64.6h-34.4v14.2h34.4V64.6L253.6,64.6z"/>
		</g>
		<g>
			<line class="st4" x1="220.6" y1="66.4" x2="252" y2="66.4"/>
			<line class="st4" x1="220.6" y1="68.4" x2="252" y2="68.4"/>
			<line class="st4" x1="220.6" y1="70.4" x2="252" y2="70.4"/>
			<line class="st4" x1="220.6" y1="72.3" x2="252" y2="72.3"/>
			<line class="st4" x1="220.6" y1="74.3" x2="252" y2="74.3"/>
			<line class="st4" x1="220.6" y1="76.2" x2="252" y2="76.2"/>
		</g>
	</g>
	<g>
		<g>
			<rect x="269.1" y="64.9" class="st1" width="33.9" height="13.7"/>
			<path class="st3" d="M302.8,65.1v13.2h-33.4V65.1H302.8 M303.3,64.6h-34.4v14.2h34.4V64.6L303.3,64.6z"/>
		</g>
		<g>
			<line class="st4" x1="270.3" y1="66.4" x2="301.7" y2="66.4"/>
			<line class="st4" x1="270.3" y1="68.4" x2="301.7" y2="68.4"/>
			<line class="st4" x1="270.3" y1="70.4" x2="301.7" y2="70.4"/>
			<line class="st4" x1="270.3" y1="72.3" x2="301.7" y2="72.3"/>
			<line class="st4" x1="270.3" y1="74.3" x2="301.7" y2="74.3"/>
			<line class="st4" x1="270.3" y1="76.2" x2="301.7" y2="76.2"/>
		</g>
	</g>
	<polygon class="st1" points="343.6,87.7 14.5,87.7 15.6,95.3 340.4,95.3 	"/>
	<g>
		<rect x="200" y="84.5" class="st3" width="3.6" height="2.1"/>
		<path class="st1" d="M203.4,84.7v1.6h-3.1v-1.6H203.4 M203.9,84.2h-4.1v2.6h4.1V84.2L203.9,84.2z"/>
	</g>
	<g>
		<rect x="130.2" y="84.5" class="st3" width="3.6" height="2.1"/>
		<path class="st1" d="M133.5,84.7v1.6h-3.1v-1.6H133.5 M134,84.2H130v2.6h4.1V84.2L134,84.2z"/>
	</g>
	<g>
		<rect x="124" y="84.5" class="st3" width="3.6" height="2.1"/>
		<path class="st1" d="M127.3,84.7v1.6h-3.1v-1.6H127.3 M127.8,84.2h-4.1v2.6h4.1V84.2L127.8,84.2z"/>
	</g>
	<g>
		<rect x="93.1" y="20.8" class="st3" width="3.9" height="12.1"/>
		<path class="st1" d="M96.7,21v11.6h-3.4V21H96.7 M97.2,20.5h-4.4v12.6h4.4V20.5L97.2,20.5z"/>
	</g>
	<g>
		<rect x="83.6" y="20.8" class="st3" width="3.9" height="12.1"/>
		<path class="st1" d="M87.3,21v11.6h-3.4V21H87.3 M87.8,20.5h-4.4v12.6h4.4V20.5L87.8,20.5z"/>
	</g>
	<g>
		<rect x="74.2" y="20.8" class="st3" width="3.9" height="12.1"/>
		<path class="st1" d="M77.8,21v11.6h-3.4V21H77.8 M78.3,20.5H74v12.6h4.4V20.5L78.3,20.5z"/>
	</g>
	<g>
		<rect x="117.6" y="84.5" class="st3" width="3.6" height="2.1"/>
		<path class="st1" d="M120.9,84.7v1.6h-3.1v-1.6H120.9 M121.4,84.2h-4.1v2.6h4.1V84.2L121.4,84.2z"/>
	</g>
	<g>
		<rect x="65.3" y="84.5" class="st3" width="3.6" height="2.1"/>
		<path class="st1" d="M68.6,84.7v1.6h-3.1v-1.6H68.6 M69.1,84.2h-4.1v2.6h4.1V84.2L69.1,84.2z"/>
	</g>
	<g>
		<rect x="40.4" y="84.5" class="st3" width="3.6" height="2.1"/>
		<path class="st1" d="M43.7,84.7v1.6h-3.1v-1.6H43.7 M44.2,84.2h-4.1v2.6h4.1V84.2L44.2,84.2z"/>
	</g>
	<g>
		<rect x="249.8" y="84.5" class="st3" width="3.6" height="2.1"/>
		<path class="st1" d="M253.1,84.7v1.6H250v-1.6H253.1 M253.6,84.2h-4.1v2.6h4.1V84.2L253.6,84.2z"/>
	</g>
	<g>
		<rect x="299.5" y="84.5" class="st3" width="3.6" height="2.1"/>
		<path class="st1" d="M302.8,84.7v1.6h-3.1v-1.6H302.8 M303.3,84.2h-4.1v2.6h4.1V84.2L303.3,84.2z"/>
	</g>
	<line class="st5" x1="22.3" y1="62.3" x2="22.3" y2="44.5"/>
	<line class="st5" x1="137.4" y1="62.3" x2="137.4" y2="44.5"/>
	<line class="st5" x1="194.5" y1="62.3" x2="194.5" y2="44.5"/>
	<line class="st5" x1="249.5" y1="62.3" x2="249.5" y2="44.5"/>
	<line class="st5" x1="317.1" y1="62.3" x2="317.1" y2="44.5"/>
</g>
</svg>
