<?xml version="1.0" encoding="utf-8"?>
<!-- Generator: Adobe Illustrator 26.5.0, SVG Export Plug-In . SVG Version: 6.00 Build 0)  -->
<svg version="1.1" id="uuid-d35db1ee-877c-4238-9f5e-4c11d6f52d22"
	 xmlns="http://www.w3.org/2000/svg" xmlns:xlink="http://www.w3.org/1999/xlink" x="0px" y="0px" viewBox="0 0 415.6 220.7"
	 style="enable-background:new 0 0 415.6 220.7;" xml:space="preserve">
<style type="text/css">
	.st0{fill:#FCBE1B;}
	.st1{fill:none;stroke:#E8629F;stroke-width:4;stroke-miterlimit:10;}
	.st2{fill:#E8629F;}
	.st3{fill:none;}
	.st4{fill:#261923;}
</style>
<g>
	<rect x="105.5" y="185.9" class="st0" width="204.6" height="34.8"/>
	<g>
		<line class="st1" x1="127" y1="185.9" x2="127" y2="164.1"/>
		<line class="st1" x1="289.4" y1="185.9" x2="289.4" y2="164.1"/>
	</g>
	<rect x="306.3" y="27.6" class="st2" width="94.5" height="119.3"/>
	<ellipse class="st0" cx="207.8" cy="87.3" rx="207.8" ry="87.3"/>
	<ellipse class="st2" cx="207.8" cy="87.3" rx="207.8" ry="59.6"/>
	<ellipse class="st0" cx="207.8" cy="87.3" rx="207.8" ry="21.2"/>
	<line class="st3" x1="127" y1="164.9" x2="127" y2="164.9"/>
	<g>
		<rect x="129.4" y="194.3" class="st4" width="72.1" height="18.4"/>
		<path class="st2" d="M200.1,195.8v15.4h-69.1v-15.4H200.1 M203.1,192.8h-75.1v21.4h75.1V192.8L203.1,192.8z"/>
	</g>
	<g>
		<rect x="214" y="194.3" class="st4" width="72.1" height="18.4"/>
		<path class="st2" d="M284.6,195.8v15.4h-69.1v-15.4H284.6 M287.6,192.8h-75.1v21.4h75.1V192.8L287.6,192.8z"/>
	</g>
</g>
</svg>
