<?xml version="1.0" encoding="utf-8"?>
<!-- Generator: Adobe Illustrator 26.5.0, SVG Export Plug-In . SVG Version: 6.00 Build 0)  -->
<svg version="1.1" id="uuid-23d0fa1b-81de-4fca-a01a-0a2698f42f09"
	 xmlns="http://www.w3.org/2000/svg" xmlns:xlink="http://www.w3.org/1999/xlink" x="0px" y="0px" viewBox="0 0 362.1 129.9"
	 style="enable-background:new 0 0 362.1 129.9;" xml:space="preserve">
<style type="text/css">
	.st0{fill:#FCBE1B;}
	.st1{fill:#E7629E;}
	.st2{fill:#261923;}
	.st3{fill:#E8629F;}
</style>
<g>
	<path class="st0" d="M355.8,55.8c-3.1-9.4-6.3-6.8-6.3-6.8c-3.1-14.1-10.5-7.5-12-11c-6.8-15.8-20.4-7.8-20.4-7.8
		c-11.2-19.3-32.4-6.8-32.4-6.8c-18.3-17.2-36-2.1-36-2.1c-20.4-25.6-44.4-4.7-44.4-4.7C195.7,1.6,181.1,0,181.1,0
		s-14.6,1.6-23.5,16.7c0,0-24-20.9-44.4,4.7c0,0-17.7-15.1-36,2.1c0,0-21.1-12.5-32.4,6.8c0,0-13.6-8-20.4,7.8
		c-1.5,3.5-8.9-3.1-12,11c0,0-3.1-2.6-6.3,6.8c0,0-3.6-2.3-6.3,2.2v71.8h362.1V58.1C359.5,53.6,355.8,55.8,355.8,55.8L355.8,55.8z"
		/>
	<g>
		<rect x="150.3" y="8.1" class="st1" width="6.8" height="121.8"/>
		<rect x="108.3" y="12.8" class="st1" width="6.8" height="117.1"/>
		<rect x="73.1" y="18.5" class="st1" width="6.8" height="111.4"/>
		<rect x="40.7" y="25.8" class="st1" width="6.8" height="104.1"/>
		<rect x="19.8" y="32.5" class="st1" width="4.7" height="97.4"/>
	</g>
	<g>
		<g>
			<path class="st2" d="M120.2,126.8V93c0-7.1,5.8-13,13-13s13,5.8,13,13v33.8H120.2L120.2,126.8z"/>
			<path class="st3" d="M133.2,81.1c6.6,0,12,5.4,12,12v32.8h-23.9V93C121.2,86.4,126.6,81.1,133.2,81.1 M133.2,79.1L133.2,79.1
				c-7.7,0-14,6.2-14,14v34.8h27.9V93C147.1,85.3,140.9,79.1,133.2,79.1L133.2,79.1L133.2,79.1z"/>
		</g>
		<g>
			<path class="st2" d="M84.8,126.8V92.8c0-5.1,4.2-9.3,9.3-9.3s9.3,4.2,9.3,9.3v34.1H84.8L84.8,126.8z"/>
			<path class="st3" d="M94,84.5c4.6,0,8.3,3.7,8.3,8.3v33.1H85.8V92.8C85.8,88.2,89.5,84.5,94,84.5 M94,82.5L94,82.5
				c-5.7,0-10.3,4.6-10.3,10.3v35.1h20.6V92.8C104.3,87.1,99.7,82.5,94,82.5L94,82.5z"/>
		</g>
		<g>
			<path class="st2" d="M51.1,126.8v-31c0-5.1,4.2-9.3,9.3-9.3s9.3,4.2,9.3,9.3v31H51.1L51.1,126.8z"/>
			<path class="st3" d="M60.4,87.5c4.6,0,8.3,3.7,8.3,8.3v30H52.1v-30C52.1,91.2,55.8,87.5,60.4,87.5 M60.4,85.5L60.4,85.5
				c-5.7,0-10.3,4.6-10.3,10.3v32h20.6v-32C70.7,90.1,66.1,85.5,60.4,85.5L60.4,85.5L60.4,85.5z"/>
		</g>
		<g>
			<path class="st2" d="M26.9,126.8V96.3c0-3.1,2.5-5.7,5.7-5.7s5.7,2.5,5.7,5.7v30.5H26.9z"/>
			<path class="st3" d="M32.6,91.6c2.6,0,4.7,2.1,4.7,4.7v29.5h-9.3V96.3C27.9,93.7,30,91.6,32.6,91.6 M32.6,89.6L32.6,89.6
				c-3.7,0-6.7,3-6.7,6.7v31.5h13.3V96.3C39.3,92.6,36.3,89.6,32.6,89.6L32.6,89.6z"/>
		</g>
		<g>
			<path class="st2" d="M11.8,126.8V96.9c0-1.7,1.4-3,3-3s3,1.4,3,3v29.9H11.8L11.8,126.8z"/>
			<path class="st3" d="M14.9,94.9c1.1,0,2,0.9,2,2v28.9h-4.1V96.9C12.8,95.8,13.8,94.9,14.9,94.9 M14.9,92.9L14.9,92.9
				c-2.2,0-4,1.8-4,4v30.9h8.1V96.9C18.9,94.7,17.1,92.9,14.9,92.9L14.9,92.9L14.9,92.9z"/>
		</g>
		<g>
			<path class="st2" d="M120.2,29c0-7.1,5.8-13,13-13s13,5.8,13,13v30.1l-25.9,1.5L120.2,29L120.2,29z"/>
			<path class="st3" d="M133.2,17c6.6,0,12,5.4,12,12v29.2l-23.9,1.3V29C121.2,22.4,126.6,17,133.2,17 M133.2,15L133.2,15
				c-7.7,0-14,6.2-14,14v32.6l27.9-1.6V29C147.1,21.3,140.9,15,133.2,15L133.2,15L133.2,15z"/>
		</g>
		<g>
			<path class="st2" d="M82.8,35.1c0-6.7,4.9-12.1,10.9-12.1s10.9,5.4,10.9,12.1v28.2l-21.9,1.3L82.8,35.1L82.8,35.1z"/>
			<path class="st3" d="M93.7,24.1c5.5,0,9.9,5,9.9,11.1v27.2l-19.9,1.2V35.1C83.8,29,88.2,24.1,93.7,24.1 M93.7,22.1L93.7,22.1
				c-6.6,0-11.9,5.9-11.9,13.1v30.6l23.9-1.5V35.1C105.7,27.9,100.3,22.1,93.7,22.1L93.7,22.1L93.7,22.1z"/>
		</g>
		<g>
			<path class="st2" d="M51.1,38.6c0-6.5,4.2-11.7,9.3-11.7s9.3,5.3,9.3,11.7v27.7l-18.6,2.2L51.1,38.6L51.1,38.6z"/>
			<path class="st3" d="M60.4,27.8c4.6,0,8.3,4.8,8.3,10.7v26.8l-16.6,1.9V38.6C52.1,32.7,55.8,27.8,60.4,27.8 M60.4,25.8L60.4,25.8
				c-5.7,0-10.3,5.7-10.3,12.7v31l20.6-2.4V38.6C70.7,31.5,66.1,25.8,60.4,25.8L60.4,25.8L60.4,25.8z"/>
		</g>
		<g>
			<path class="st2" d="M28.1,45.7c0-6.2,2.6-10.4,5.1-10.4s5.1,4.2,5.1,10.4v24.6L28.1,73V45.7L28.1,45.7z"/>
			<path class="st3" d="M33.2,36.3c1.7,0,4.1,3.7,4.1,9.4v23.8l-8.1,2.1V45.7C29.2,40,31.6,36.3,33.2,36.3 M33.2,34.3L33.2,34.3
				c-3.4,0-6.1,5.1-6.1,11.4v28.5l12.1-3.1V45.7C39.3,39.4,36.6,34.3,33.2,34.3L33.2,34.3L33.2,34.3z"/>
		</g>
		<g>
			<path class="st2" d="M14.8,54c0-4.8,0.9-7.9,1.5-8.5c0.6,0.7,1.5,3.8,1.5,8.5v21.5l-3.1,1.1L14.8,54L14.8,54z"/>
			<path class="st3" d="M16.3,48.4c0.3,1.4,0.5,3.3,0.5,5.7v20.8l-1.1,0.4V54C15.8,51.6,16,49.7,16.3,48.4 M16.3,44.4
				c-1.4,0-2.5,4.3-2.5,9.6v24l5.1-1.8V54C18.8,48.7,17.7,44.4,16.3,44.4L16.3,44.4L16.3,44.4z"/>
		</g>
	</g>
	<g>
		<rect x="205.1" y="8.1" class="st1" width="6.8" height="121.8"/>
		<rect x="247.1" y="12.8" class="st1" width="6.8" height="117.1"/>
		<rect x="282.3" y="18.5" class="st1" width="6.8" height="111.4"/>
		<rect x="314.6" y="25.8" class="st1" width="6.8" height="104.1"/>
		<rect x="337.6" y="32.5" class="st1" width="4.7" height="97.4"/>
	</g>
	<g>
		<g>
			<path class="st2" d="M216,126.8V93c0-7.1,5.8-13,13-13s13,5.8,13,13v33.8H216L216,126.8z"/>
			<path class="st3" d="M228.9,81.1c6.6,0,12,5.4,12,12v32.8H217V93C217,86.4,222.3,81.1,228.9,81.1 M228.9,79.1L228.9,79.1
				c-7.7,0-14,6.2-14,14v34.8h27.9V93C242.9,85.3,236.6,79.1,228.9,79.1L228.9,79.1L228.9,79.1z"/>
		</g>
		<g>
			<path class="st2" d="M258.8,126.8V92.8c0-5.1,4.2-9.3,9.3-9.3s9.3,4.2,9.3,9.3v34.1H258.8L258.8,126.8z"/>
			<path class="st3" d="M268.1,84.5c4.6,0,8.3,3.7,8.3,8.3v33.1h-16.6V92.8C259.8,88.2,263.5,84.5,268.1,84.5 M268.1,82.5
				L268.1,82.5c-5.7,0-10.3,4.6-10.3,10.3v35.1h20.6V92.8C278.4,87.1,273.8,82.5,268.1,82.5L268.1,82.5L268.1,82.5z"/>
		</g>
		<g>
			<path class="st2" d="M292.4,126.8v-31c0-5.1,4.2-9.3,9.3-9.3s9.3,4.2,9.3,9.3v31H292.4L292.4,126.8z"/>
			<path class="st3" d="M301.7,87.5c4.6,0,8.3,3.7,8.3,8.3v30h-16.6v-30C293.4,91.2,297.2,87.5,301.7,87.5 M301.7,85.5L301.7,85.5
				c-5.7,0-10.3,4.6-10.3,10.3v32H312v-32C312,90.1,307.4,85.5,301.7,85.5L301.7,85.5L301.7,85.5z"/>
		</g>
		<g>
			<path class="st2" d="M323.8,126.8V96.3c0-3.1,2.5-5.7,5.7-5.7s5.7,2.5,5.7,5.7v30.5H323.8L323.8,126.8z"/>
			<path class="st3" d="M329.5,91.6c2.6,0,4.7,2.1,4.7,4.7v29.5h-9.3V96.3C324.8,93.7,326.9,91.6,329.5,91.6 M329.5,89.6
				c-3.7,0-6.7,3-6.7,6.7v31.5h13.3V96.3C336.2,92.6,333.2,89.6,329.5,89.6L329.5,89.6L329.5,89.6z"/>
		</g>
		<g>
			<path class="st2" d="M344.2,126.8V96.9c0-1.7,1.4-3,3-3s3,1.4,3,3v29.9H344.2L344.2,126.8z"/>
			<path class="st3" d="M347.2,94.9c1.1,0,2,0.9,2,2v28.9h-4.1V96.9C345.2,95.8,346.1,94.9,347.2,94.9 M347.2,92.9c-2.2,0-4,1.8-4,4
				v30.9h8.1V96.9C351.3,94.7,349.5,92.9,347.2,92.9L347.2,92.9L347.2,92.9z"/>
		</g>
		<g>
			<path class="st2" d="M216,59.1V29c0-7.1,5.8-13,13-13s13,5.8,13,13v31.5L216,59.1L216,59.1z"/>
			<path class="st3" d="M228.9,17c6.6,0,12,5.4,12,12v30.5L217,58.1V29C217,22.4,222.3,17,228.9,17 M228.9,15L228.9,15
				c-7.7,0-14,6.2-14,14v31l27.9,1.6V29C242.9,21.3,236.6,15,228.9,15L228.9,15L228.9,15z"/>
		</g>
		<g>
			<path class="st2" d="M257.5,63.3V35.1c0-6.7,4.9-12.1,10.9-12.1s10.9,5.4,10.9,12.1v29.5L257.5,63.3L257.5,63.3z"/>
			<path class="st3" d="M268.4,24.1c5.5,0,9.9,5,9.9,11.1v28.4l-19.9-1.2V35.1C258.4,29,262.9,24.1,268.4,24.1 M268.4,22.1
				L268.4,22.1c-6.6,0-11.9,5.9-11.9,13.1v29.1l23.9,1.5V35.1C280.3,27.9,275,22.1,268.4,22.1L268.4,22.1L268.4,22.1z"/>
		</g>
		<g>
			<path class="st2" d="M292.4,66.3V38.6c0-6.5,4.2-11.7,9.3-11.7s9.3,5.3,9.3,11.7v29.9L292.4,66.3L292.4,66.3z"/>
			<path class="st3" d="M301.7,27.8c4.6,0,8.3,4.8,8.3,10.7v28.8l-16.6-1.9V38.6C293.4,32.7,297.2,27.9,301.7,27.8 M301.7,25.9
				L301.7,25.9c-5.7,0-10.3,5.7-10.3,12.7v28.6l20.6,2.4v-31C312,31.5,307.4,25.8,301.7,25.9L301.7,25.9L301.7,25.9z"/>
		</g>
		<g>
			<path class="st2" d="M323.8,70.3V45.7c0-6.2,2.6-10.4,5.1-10.4s5.1,4.2,5.1,10.4v27.2L323.8,70.3L323.8,70.3z"/>
			<path class="st3" d="M328.9,36.3c1.7,0,4.1,3.7,4.1,9.4v25.9l-8.1-2.1V45.7C324.8,40,327.3,36.3,328.9,36.3 M328.9,34.3
				L328.9,34.3c-3.4,0-6.1,5.1-6.1,11.4v25.4l12.1,3.1V45.7C335,39.4,332.3,34.3,328.9,34.3L328.9,34.3L328.9,34.3z"/>
		</g>
		<g>
			<path class="st2" d="M344.3,75.5V54c0-4.8,0.9-7.9,1.5-8.5c0.6,0.7,1.5,3.8,1.5,8.5v22.6L344.3,75.5L344.3,75.5z"/>
			<path class="st3" d="M345.8,48.4c0.3,1.4,0.5,3.3,0.5,5.7v21.2l-1-0.4V54C345.3,51.7,345.5,49.7,345.8,48.4 M345.8,44.4
				c-1.4,0-2.5,4.3-2.5,9.6v22.2l5,1.8V54C348.3,48.7,347.2,44.4,345.8,44.4L345.8,44.4L345.8,44.4z"/>
		</g>
	</g>
	<g>
		<path class="st2" d="M166.8,126.8V92.2c0-7.9,6.4-14.3,14.3-14.3s14.3,6.4,14.3,14.3v34.6H166.8L166.8,126.8z"/>
		<path class="st3" d="M181.1,79c7.3,0,13.3,6,13.3,13.3v33.6h-26.5V92.2C167.8,84.9,173.7,79,181.1,79 M181.1,77L181.1,77
			c-8.4,0-15.3,6.8-15.3,15.3v35.6h30.5V92.2C196.3,83.8,189.5,77,181.1,77L181.1,77L181.1,77z"/>
	</g>
	<g>
		<path class="st2" d="M166.8,57.1V26.9c0-7.9,6.4-14.3,14.3-14.3s14.3,6.4,14.3,14.3v30.2H166.8L166.8,57.1z"/>
		<path class="st3" d="M181.1,13.6c7.3,0,13.3,6,13.3,13.3v29.2h-26.5V26.9C167.8,19.6,173.7,13.6,181.1,13.6 M181.1,11.6
			L181.1,11.6c-8.4,0-15.3,6.8-15.3,15.3v31.2h30.5V26.9C196.3,18.5,189.5,11.6,181.1,11.6L181.1,11.6L181.1,11.6z"/>
	</g>
</g>
</svg>
