<?xml version="1.0" encoding="utf-8"?>
<!-- Generator: Adobe Illustrator 26.5.0, SVG Export Plug-In . SVG Version: 6.00 Build 0)  -->
<svg version="1.1" id="uuid-00278188-4e0d-4aa6-bef4-06c69e1b0d37"
	 xmlns="http://www.w3.org/2000/svg" xmlns:xlink="http://www.w3.org/1999/xlink" x="0px" y="0px" viewBox="0 0 217.2 254.9"
	 style="enable-background:new 0 0 217.2 254.9;" xml:space="preserve">
<style type="text/css">
	.st0{fill:none;stroke:#E8629F;stroke-width:7.19;stroke-miterlimit:10;}
	.st1{fill:none;stroke:#E8629F;stroke-width:14;stroke-miterlimit:10;}
	.st2{fill:none;stroke:#FCBE1B;stroke-width:9.59;stroke-miterlimit:10;}
	.st3{fill:#E8629F;}
	.st4{fill:none;stroke:#FCBE1B;stroke-width:4.8;stroke-miterlimit:10;}
	.st5{fill:#FCBE1B;}
	.st6{fill:#261923;}
</style>
<g>
	<path class="st0" d="M108.6,119.5L7.7,247.6c-1.2,1.5-0.1,3.7,1.8,3.7h198.2c1.9,0,3-2.2,1.8-3.7L108.6,119.5L108.6,119.5z"/>
	<circle class="st1" cx="108.6" cy="119.5" r="99.5"/>
	<circle class="st2" cx="108.6" cy="119.5" r="103.8"/>
	<circle class="st3" cx="108.1" cy="119" r="17.1"/>
	<g>
		<line class="st4" x1="108.6" y1="119.5" x2="56.7" y2="209.5"/>
		<line class="st4" x1="108.6" y1="119.5" x2="18.7" y2="171.5"/>
		<line class="st4" x1="108.6" y1="119.5" x2="4.8" y2="119.5"/>
		<line class="st4" x1="108.6" y1="119.5" x2="18.7" y2="67.6"/>
		<line class="st4" x1="108.6" y1="119.5" x2="56.7" y2="29.6"/>
		<line class="st4" x1="108.6" y1="119.5" x2="108.6" y2="15.7"/>
		<line class="st4" x1="108.6" y1="119.5" x2="160.5" y2="29.6"/>
		<line class="st4" x1="108.6" y1="119.5" x2="198.5" y2="67.6"/>
		<line class="st4" x1="108.6" y1="119.5" x2="212.4" y2="119.5"/>
		<line class="st4" x1="108.6" y1="119.5" x2="198.5" y2="171.5"/>
		<line class="st4" x1="108.6" y1="119.5" x2="160.5" y2="209.5"/>
		<line class="st4" x1="108.6" y1="119.5" x2="108.6" y2="223.4"/>
	</g>
	<g>
		<circle class="st5" cx="108.6" cy="15.7" r="15.7"/>
		<circle class="st5" cx="108.6" cy="222.4" r="15.7"/>
		<circle class="st5" cx="198.5" cy="171.5" r="15.7"/>
		<circle class="st5" cx="18.7" cy="171.5" r="15.7"/>
		<circle class="st5" cx="18.7" cy="67.6" r="15.7"/>
		<circle class="st5" cx="196.7" cy="67.6" r="15.7"/>
	</g>
	<g>
		<rect x="97.2" y="9.1" class="st6" width="22.8" height="13.1"/>
		<rect x="97.2" y="215.8" class="st6" width="22.8" height="13.1"/>
		<rect x="187.2" y="164.9" class="st6" width="22.8" height="13.1"/>
		<rect x="7.3" y="164.9" class="st6" width="22.8" height="13.1"/>
		<rect x="7.3" y="61.1" class="st6" width="22.8" height="13.1"/>
		<rect x="185.3" y="61.1" class="st6" width="22.8" height="13.1"/>
	</g>
</g>
</svg>
