<?xml version="1.0" encoding="utf-8"?>
<!-- Generator: Adobe Illustrator 26.5.0, SVG Export Plug-In . SVG Version: 6.00 Build 0)  -->
<svg version="1.1" id="uuid-ad79258c-8db0-45b6-88c4-1c86b00fad19"
	 xmlns="http://www.w3.org/2000/svg" xmlns:xlink="http://www.w3.org/1999/xlink" x="0px" y="0px" viewBox="0 0 559.9 335.8"
	 style="enable-background:new 0 0 559.9 335.8;" xml:space="preserve">
<style type="text/css">
	.st0{fill:none;stroke:#EA629F;stroke-width:10;stroke-miterlimit:10;}
	.st1{fill:#EA629F;}
</style>
<g>
	<path class="st0" d="M554.9,279.9C554.9,128.1,431.8,5,279.9,5S5,128.1,5,279.9C5,347.7,554.9,347.7,554.9,279.9z"/>
	<path class="st0" d="M554.9,279.9c0,67.8-549.9,67.8-549.9,0C5,128.1,128.1,5,279.9,5S554.9,128.1,554.9,279.9z"/>
	<path class="st1" d="M554.6,271.1l-4.6,4.6L530,255.6l20.1-20.1l1.4,1.4c-0.5-3.4-1-6.8-1.6-10.1L530,207l12.2-12.2
		c-0.6-2.2-1.3-4.3-2-6.5l-14.4,14.4l-20.1-20.1l20.1-20.1l7.9,7.9c-2.3-5.8-4.8-11.4-7.5-16.8l-0.4,0.4l-20.1-20.1l6-6
		c-1.1-1.7-2.2-3.4-3.4-5.1l-6.8,6.8l-20.1-20.1l9.4-9.4c-1.3-1.5-2.6-3-4-4.5l-9.7,9.7l-20.1-20.1l9.5-9.5c-1.5-1.3-3-2.6-4.6-3.9
		l-9.1,9.1l-20.1-20.1l6.1-6.1c-1.7-1.1-3.4-2.2-5.2-3.3l-5.2,5.2l-18.3-18.3c-5.1-2.5-10.3-4.9-15.6-7.1l5.4,5.4L379.9,57
		l-20.1-20.1l13.3-13.3c-2.1-0.7-4.3-1.4-6.5-2l-11.1,11.1l-18.3-18.3c-3.4-0.7-6.9-1.3-10.3-1.8l0.1,0.1L307,32.7L287,12.6l3.5-3.5
		c-5.2-0.2-10.5-0.2-15.7-0.1l3.7,3.7l-20.1,20.1l-20.1-20.1l1-1c-3.3,0.4-6.7,0.9-10,1.5l-19.6,19.6l-12.4-12.4
		c-2.2,0.6-4.4,1.3-6.5,1.9l14.7,14.7L185.5,57l-20-20.1l9-9c-6.3,2.4-12.6,5-18.7,7.8l1.2,1.2L136.9,57l-7.3-7.3
		c-1.8,1.1-3.5,2.1-5.2,3.2l8.3,8.3l-20.1,20.1L101,69.6c-1.6,1.3-3.1,2.5-4.6,3.8l12,12l-20.1,20.1L75.8,93
		c-1.4,1.5-2.7,2.9-4.1,4.4l12.4,12.4L64,129.9l-10.1-10.1c-1.2,1.7-2.3,3.3-3.4,5l9.3,9.3l-20.1,20.1l-4.1-4.1
		c-1,1.9-1.9,3.8-2.8,5.7l2.7,2.7l-7.2,7.2c-2,4.6-3.8,9.3-5.6,14.1l17-17l20.1,20.1l-20.1,20.1l-18.6-18.6
		c-0.7,2.1-1.4,4.2-2.1,6.4L35.5,207l-20.1,20.1l-4.6-4.5c-0.5,2.4-0.9,4.8-1.3,7.2l1.6,1.6l-2.2,2.2c-0.5,3.2-1,6.5-1.4,9.9
		l7.9-7.9l20.1,20.1l-20.1,20.1l-9.9-9.9c-0.2,2.7-0.3,5.4-0.4,8.1l6,6L6.1,285c0.8,1.8,1.9,3.4,3.4,5.1l6-6l20.1,20.1l-0.5,0.5
		c4.2,1.5,8.8,3,13.8,4.4l-4.8-4.8L64,284.2l20.1,20.1l-10.7,10.7c2.3,0.5,4.7,0.9,7.1,1.4l7.8-7.8l10.9,10.9c3.2,0.5,6.5,1,9.9,1.4
		l-16.6-16.6l20.1-20.1l20.1,20.1l-17.4,17.4c2.5,0.3,5,0.6,7.6,0.9l14.1-14.1l17.2,17.2c4.3,0.4,8.7,0.7,13.1,1l18.3-18.3
		l20.1,20.1l-0.5,0.5c3.3,0.2,6.6,0.3,10,0.4l-1-1l20.1-20.1l20.1,20.1l-2,2c4.2,0.1,8.4,0.1,12.7,0.2l-2.2-2.2l20.1-20.1l20.1,20.1
		l-2.1,2.1c4.2,0,8.4-0.1,12.5-0.2l-1.9-1.9l20.1-20.1l20,20.1l-0.7,0.7c3.2-0.1,6.3-0.3,9.5-0.5l-0.3-0.3l20.1-20.1l17.9,17.9
		c4.7-0.4,9.4-0.8,14-1.2l16.7-16.7l13.5,13.5c2.5-0.3,5-0.6,7.5-1l-16.7-16.7l20.1-20.1l20.1,20.1l-15.6,15.6c3.4-0.5,6.8-1,10-1.5
		l9.9-9.9l6.9,6.9c2.4-0.5,4.8-0.9,7-1.4l-9.7-9.7l20.1-20.1l20.1,20.1l-2.4,2.4c5-1.6,9.5-3.3,13.5-5.1l22.2-22.2
		C554.8,276.6,554.7,273.8,554.6,271.1L554.6,271.1z M545.8,231.3l-20.1,20.1l-20.1-20.1l20.1-20.1L545.8,231.3z M521.5,207
		l-20.1,20.1L481.4,207l20.1-20.1L521.5,207z M452.9,178.5l-20.1-20.1l20.1-20.1l20.1,20.1L452.9,178.5z M477.2,162.7l20,20.1
		l-20,20.1l-20.1-20.1L477.2,162.7z M157,182.7l-20.1,20.1l-20.1-20.1l20.1-20.1L157,182.7z M141.2,158.4l20.1-20.1l20.1,20.1
		l-20.1,20.1L141.2,158.4z M161.2,187l20.1,20.1l-20.1,20.1L141.2,207L161.2,187z M165.5,182.7l20.1-20.1l20,20.1l-20,20.1
		L165.5,182.7L165.5,182.7z M331.4,154.2l-20.1-20.1l20.1-20.1l20,20.1L331.4,154.2z M355.6,138.4l20.1,20.1l-20.1,20.1l-20.1-20.1
		L355.6,138.4L355.6,138.4z M327.1,158.4L307,178.5L287,158.4l20.1-20.1L327.1,158.4L327.1,158.4z M282.7,154.2l-20.1-20.1
		l20.1-20.1l20.1,20.1L282.7,154.2z M278.5,158.4l-20.1,20.1l-20.1-20.1l20.1-20.1L278.5,158.4L278.5,158.4z M234.1,154.2
		l-20.1-20.1l20.1-20.1l20.1,20.1L234.1,154.2z M229.9,158.4l-20.1,20.1l-20.1-20.1l20.1-20.1L229.9,158.4L229.9,158.4z M209.8,187
		l20.1,20.1l-20.1,20.1L189.8,207L209.8,187z M214.1,182.7l20.1-20.1l20.1,20.1l-20.1,20.1L214.1,182.7z M258.4,187l20.1,20.1
		l-20.1,20.1L238.4,207L258.4,187z M262.7,182.7l20.1-20.1l20.1,20.1l-20.1,20.1L262.7,182.7z M307,187l20.1,20.1L307,227.1L287,207
		L307,187z M311.3,182.7l20.1-20.1l20,20.1l-20,20.1L311.3,182.7z M355.6,187l20.1,20.1l-20.1,20.1L335.6,207L355.6,187z
		 M359.9,182.7l20.1-20.1l20.1,20.1l-20.1,20.1L359.9,182.7z M384.2,158.4l20.1-20.1l20.1,20.1l-20.1,20.1L384.2,158.4z M404.2,187
		l20.1,20.1l-20.1,20.1L384.2,207L404.2,187z M408.5,182.7l20.1-20.1l20.1,20.1l-20.1,20.1L408.5,182.7z M428.5,154.2l-20.1-20.1
		l20.1-20.1l20.1,20.1L428.5,154.2z M404.2,129.9l-20.1-20.1l20.1-20.1l20.1,20.1L404.2,129.9z M400,134.1l-20.1,20.1l-20.1-20.1
		l20.1-20.1L400,134.1z M355.6,129.9l-20.1-20.1l20.1-20.1l20.1,20.1L355.6,129.9z M331.3,105.6l-20.1-20l20.1-20.1l20,20.1
		L331.3,105.6z M327.1,109.8L307,129.9L287,109.8L307,89.8L327.1,109.8z M282.7,105.6l-20.1-20l20.1-20.1l20.1,20.1L282.7,105.6z
		 M278.5,109.8l-20.1,20.1l-20.1-20.1l20.1-20.1L278.5,109.8z M234.1,105.6l-20.1-20.1l20.1-20.1l20.1,20.1L234.1,105.6z
		 M229.9,109.8l-20.1,20.1l-20.1-20.1l20.1-20.1L229.9,109.8z M205.6,134.1l-20,20.1l-20.1-20.1l20.1-20.1L205.6,134.1z
		 M161.2,129.9l-20.1-20.1l20.1-20.1l20.1,20.1L161.2,129.9z M157,134.1l-20.1,20.1l-20.1-20.1l20.1-20.1L157,134.1z M132.7,158.4
		l-20.1,20.1l-20.1-20.1l20.1-20.1L132.7,158.4L132.7,158.4z M108.4,182.7l-20.1,20.1l-20.1-20.1l20.1-20.1L108.4,182.7z
		 M108.4,231.3l-20.1,20.1l-20.1-20.1l20.1-20.1L108.4,231.3z M92.6,207l20.1-20.1l20.1,20.1l-20.1,20.1L92.6,207z M136.9,211.3
		l20.1,20.1l-20.1,20.1l-20.1-20.1L136.9,211.3z M161.2,235.6l20.1,20.1l-20.1,20.1l-20.1-20.1L161.2,235.6z M165.5,231.3l20.1-20.1
		l20,20.1l-20.1,20.1L165.5,231.3L165.5,231.3z M209.8,235.6l20.1,20.1l-20.1,20.1l-20.1-20.1L209.8,235.6z M214.1,231.3l20.1-20.1
		l20.1,20.1l-20.1,20.1L214.1,231.3z M258.4,235.6l20.1,20.1l-20.1,20.1l-20.1-20.1L258.4,235.6z M262.7,231.3l20.1-20.1l20.1,20.1
		l-20.1,20.1L262.7,231.3z M307,235.6l20.1,20.1L307,275.7L287,255.6L307,235.6z M311.3,231.3l20.1-20.1l20,20.1l-20,20.1
		L311.3,231.3z M355.6,235.6l20.1,20.1l-20.1,20.1l-20.1-20.1L355.6,235.6z M359.9,231.3l20.1-20.1l20.1,20.1l-20.1,20.1
		L359.9,231.3z M404.2,235.6l20.1,20.1l-20.1,20.1l-20.1-20.1L404.2,235.6z M408.5,231.3l20.1-20.1l20.1,20.1l-20.1,20.1
		L408.5,231.3z M432.8,207l20.1-20.1l20.1,20.1l-20.1,20.1L432.8,207z M477.2,211.3l20,20.1l-20,20.1l-20.1-20.1L477.2,211.3z
		 M521.5,158.4l-20.1,20.1l-20.1-20.1l20.1-20.1L521.5,158.4L521.5,158.4z M497.2,134.1l-20,20.1l-20.1-20.1l20.1-20.1L497.2,134.1z
		 M472.9,109.8l-20.1,20.1l-20.1-20.1l20.1-20.1L472.9,109.8z M448.6,85.5l-20.1,20.1l-20.1-20.1l20.1-20.1L448.6,85.5z M404.2,41.2
		l20.1,20.1l-20.1,20.1l-20.1-20.1L404.2,41.2z M400,85.5l-20.1,20.1l-20.1-20.1l20.1-20.1L400,85.5z M375.7,61.2l-20.1,20.1
		l-20.1-20.1l20.1-20.1L375.7,61.2z M331.3,16.9l20,20.1l-20,20.1l-20.1-20.1L331.3,16.9z M327.1,61.2L307,81.3L287,61.2L307,41.2
		L327.1,61.2z M282.7,16.9l20.1,20.1L282.7,57l-20.1-20.1L282.7,16.9z M278.5,61.2l-20.1,20.1l-20.1-20.1l20.1-20.1L278.5,61.2z
		 M234.1,16.9l20.1,20.1L234.1,57l-20.1-20.1L234.1,16.9z M209.8,41.2l20.1,20.1l-20.1,20.1l-20.1-20.1L209.8,41.2z M205.6,85.5
		l-20,20l-20.1-20l20-20.1L205.6,85.5z M161.2,41.2l20.1,20.1l-20.1,20.1l-20.1-20.1L161.2,41.2z M136.9,65.5L157,85.5l-20.1,20
		l-20.1-20L136.9,65.5z M112.6,89.8l20.1,20.1l-20.1,20.1l-20.1-20.1L112.6,89.8z M88.3,114.1l20.1,20.1l-20.1,20.1l-20.1-20.1
		L88.3,114.1z M44,158.4L64,138.4l20.1,20.1L64,178.5L44,158.4z M64,187L84.1,207L64,227.1L44,207L64,187z M19.7,231.3l20.1-20.1
		l20.1,20.1l-20.1,20.1L19.7,231.3z M39.7,300l-20.1-20.1l20.1-20.1l20.1,20.1L39.7,300z M44,255.6L64,235.6l20.1,20.1L64,275.7
		L44,255.6z M88.3,300l-20.1-20.1l20.1-20.1l20.1,20.1L88.3,300z M92.6,255.6l20.1-20.1l20.1,20.1l-20.1,20.1L92.6,255.6z
		 M116.9,279.9l20.1-20.1l20.1,20.1L136.9,300L116.9,279.9z M161.2,324.3l-20.1-20.1l20.1-20.1l20.1,20.1L161.2,324.3z M165.5,279.9
		l20-20.1l20.1,20.1L185.5,300L165.5,279.9z M209.8,324.3l-20.1-20.1l20.1-20.1l20.1,20.1L209.8,324.3z M214.1,279.9l20.1-20.1
		l20.1,20.1L234.1,300L214.1,279.9z M258.4,324.3l-20.1-20.1l20.1-20.1l20.1,20.1L258.4,324.3z M262.7,279.9l20.1-20.1l20.1,20.1
		L282.7,300L262.7,279.9z M307,324.3L287,304.2l20.1-20.1l20.1,20.1L307,324.3z M311.3,279.9l20.1-20.1l20,20.1l-20,20.1
		L311.3,279.9z M355.6,324.3l-20.1-20.1l20.1-20.1l20.1,20.1L355.6,324.3z M359.9,279.9l20.1-20.1l20.1,20.1L379.9,300L359.9,279.9z
		 M404.2,324.3l-20.1-20.1l20.1-20.1l20.1,20.1L404.2,324.3z M428.5,300l-20.1-20.1l20.1-20.1l20.1,20.1L428.5,300z M432.8,255.6
		l20.1-20.1l20.1,20.1l-20.1,20.1L432.8,255.6z M477.2,300l-20.1-20.1l20.1-20.1l20,20.1L477.2,300z M481.4,255.6l20.1-20.1
		l20.1,20.1l-20.1,20.1L481.4,255.6z M525.8,300l-20.1-20.1l20.1-20.1l20.1,20.1L525.8,300z"/>
</g>
</svg>
