<?xml version="1.0" encoding="utf-8"?>
<!-- Generator: Adobe Illustrator 26.5.0, SVG Export Plug-In . SVG Version: 6.00 Build 0)  -->
<svg version="1.1" id="uuid-21d3a7d3-9cf2-464f-9fa4-b3da3c4e26d6"
	 xmlns="http://www.w3.org/2000/svg" xmlns:xlink="http://www.w3.org/1999/xlink" x="0px" y="0px" viewBox="0 0 330.6 498.1"
	 style="enable-background:new 0 0 330.6 498.1;" xml:space="preserve">
<style type="text/css">
	.st0{fill:#FCBE1B;}
	.st1{fill:#E8629F;}
	.st2{fill-rule:evenodd;clip-rule:evenodd;fill:#E8629F;}
	.st3{fill:#261923;stroke:#E8629F;stroke-width:2;stroke-miterlimit:10;}
	.st4{fill:#261923;stroke:#E8629F;stroke-width:1.6;stroke-miterlimit:10;}
	.st5{fill:#261923;stroke:#E8629F;stroke-width:1.54;stroke-miterlimit:10;}
</style>
<g>
	<rect x="4.1" y="25.1" class="st0" width="322.4" height="471.9"/>
	<rect y="368.1" class="st1" width="330.5" height="28.5"/>
	<rect y="259.4" class="st1" width="330.5" height="28.5"/>
	<rect y="150.7" class="st1" width="330.5" height="28.5"/>
	<polygon class="st2" points="0,21.2 0,42.1 0,44.4 0,70.5 330.6,70.5 330.6,44.4 330.6,42.1 330.6,21.2 	"/>
	<g>
		<rect x="27.7" y="90.6" class="st3" width="33.7" height="40.1"/>
		<rect x="75.9" y="90.6" class="st3" width="33.7" height="40.1"/>
		<rect x="124.2" y="90.6" class="st3" width="33.7" height="40.1"/>
		<rect x="172.4" y="90.6" class="st3" width="33.7" height="40.1"/>
		<rect x="220.7" y="90.6" class="st3" width="33.7" height="40.1"/>
		<rect x="268.9" y="90.6" class="st3" width="33.7" height="40.1"/>
	</g>
	<g>
		<rect x="27.7" y="199.3" class="st3" width="33.7" height="40.1"/>
		<rect x="75.9" y="199.3" class="st3" width="33.7" height="40.1"/>
		<rect x="124.2" y="199.3" class="st3" width="33.7" height="40.1"/>
		<rect x="172.4" y="199.3" class="st3" width="33.7" height="40.1"/>
		<rect x="220.7" y="199.3" class="st3" width="33.7" height="40.1"/>
		<rect x="268.9" y="199.3" class="st3" width="33.7" height="40.1"/>
	</g>
	<g>
		<rect x="27.7" y="308" class="st3" width="33.7" height="40.1"/>
		<rect x="75.9" y="308" class="st3" width="33.7" height="40.1"/>
		<rect x="124.2" y="308" class="st3" width="33.7" height="40.1"/>
		<rect x="172.4" y="308" class="st3" width="33.7" height="40.1"/>
		<rect x="220.7" y="308" class="st3" width="33.7" height="40.1"/>
		<rect x="268.9" y="308" class="st3" width="33.7" height="40.1"/>
	</g>
	<rect x="39.2" y="414.1" class="st3" width="74.8" height="83"/>
	<path class="st4" d="M243.4,414.1h44.5c0.9,0,1.6,0.7,1.6,1.6v81.4h-47.8v-81.4C241.7,414.8,242.5,414.1,243.4,414.1z"/>
	<rect x="130.5" y="414.1" class="st5" width="44.5" height="83"/>
	<rect x="41.2" class="st0" width="48.5" height="21.2"/>
	<rect x="189.9" class="st0" width="76.7" height="21.2"/>
</g>
</svg>
