<?xml version="1.0" encoding="utf-8"?>
<!-- Generator: Adobe Illustrator 26.5.0, SVG Export Plug-In . SVG Version: 6.00 Build 0)  -->
<svg version="1.1" id="uuid-7171788f-6ad9-49b6-a587-f06a6c7ce632"
	 xmlns="http://www.w3.org/2000/svg" xmlns:xlink="http://www.w3.org/1999/xlink" x="0px" y="0px" viewBox="0 0 177.2 493.9"
	 style="enable-background:new 0 0 177.2 493.9;" xml:space="preserve">
<style type="text/css">
	.st0{fill:#FCBE1B;}
	.st1{fill:#261923;stroke:#E8629F;stroke-width:2;stroke-miterlimit:10;}
	.st2{fill:#261923;stroke:#E8629F;stroke-width:1.54;stroke-miterlimit:10;}
	.st3{fill:#E8629F;}
	.st4{fill-rule:evenodd;clip-rule:evenodd;fill:#E8629F;}
</style>
<g>
	<rect x="5.5" y="21.2" class="st0" width="166.2" height="471.9"/>
	<rect x="20.7" y="410.1" class="st1" width="74.8" height="41.5"/>
	<rect x="112" y="410.1" class="st2" width="44.5" height="83"/>
	<rect x="23.5" class="st0" width="48.5" height="21.2"/>
	<g>
		<rect y="364.2" class="st3" width="177.2" height="28.5"/>
		<rect y="255.5" class="st3" width="177.2" height="28.5"/>
		<rect y="146.8" class="st3" width="177.2" height="28.5"/>
		<polygon class="st4" points="0,17.2 0,38.1 0,40.5 0,66.6 177.2,66.6 177.2,40.5 177.2,38.1 177.2,17.2 		"/>
	</g>
	<g>
		<rect x="23.5" y="88.2" class="st1" width="33.7" height="37"/>
		<rect x="71.7" y="88.2" class="st1" width="33.7" height="37"/>
		<rect x="120" y="88.2" class="st1" width="33.7" height="37"/>
		<rect x="23.5" y="196.9" class="st1" width="33.7" height="37"/>
		<rect x="71.7" y="196.9" class="st1" width="33.7" height="37"/>
		<rect x="120" y="196.9" class="st1" width="33.7" height="37"/>
		<rect x="23.5" y="305.6" class="st1" width="33.7" height="37"/>
		<rect x="71.7" y="305.6" class="st1" width="33.7" height="37"/>
		<rect x="120" y="305.6" class="st1" width="33.7" height="37"/>
	</g>
</g>
</svg>
