<?xml version="1.0" encoding="utf-8"?>
<!-- Generator: Adobe Illustrator 26.5.0, SVG Export Plug-In . SVG Version: 6.00 Build 0)  -->
<svg version="1.1" id="uuid-fe4514cc-4621-4086-ac63-bfa4c52c7829"
	 xmlns="http://www.w3.org/2000/svg" xmlns:xlink="http://www.w3.org/1999/xlink" x="0px" y="0px" viewBox="0 0 376.8 444.7"
	 style="enable-background:new 0 0 376.8 444.7;" xml:space="preserve">
<style type="text/css">
	.st0{fill:#FCBE1B;}
	.st1{fill:#E8629F;}
</style>
<g>
	<polygon class="st0" points="188.4,425.9 188.4,425.9 0,425.9 0,444.7 188.4,444.7 188.4,444.7 376.8,444.7 376.8,425.9 	"/>
	<polygon class="st0" points="188.4,401.4 188.4,401.4 28.2,401.4 28.2,420.1 188.4,420.1 188.4,420.1 348.6,420.1 348.6,401.4 	"/>
	<polygon class="st0" points="188.4,376.9 188.4,376.9 47.2,376.9 47.2,395.6 188.4,395.6 188.4,395.6 329.6,395.6 329.6,376.9 	"/>
	<polygon class="st0" points="188.4,217.5 188.4,217.5 183.9,217.5 183.9,373.5 188.4,373.5 188.4,373.5 192.9,373.5 192.9,217.5 	
		"/>
	<polygon class="st0" points="299.7,217.5 302.7,217.5 302.7,373.5 299.7,373.5 296.7,373.5 296.7,217.5 	"/>
	<polygon class="st0" points="188.4,198.2 188.4,198.2 49.3,198.2 49.3,212.6 188.4,212.6 188.4,212.6 327.5,212.6 327.5,198.2 	"/>
	<path class="st0" d="M188.4,162.5H11.7v16c0,7.8,6.3,14.1,14.1,14.1H351c7.8,0,14.1-6.3,14.1-14.1v-16H188.4L188.4,162.5z"/>
	<path class="st0" d="M188.4,12.4L188.4,12.4C188.4,12.3,188.4,12.4,188.4,12.4C188.4,12.4,188.4,12.3,188.4,12.4L188.4,12.4
		C138.5,100.1,30.5,157.1,30.5,157.1h315.8C346.3,157.1,238.3,100.1,188.4,12.4L188.4,12.4z"/>
	<polygon class="st0" points="77.1,217.5 74.1,217.5 74.1,373.5 77.1,373.5 80.1,373.5 80.1,217.5 	"/>
	<path class="st0" d="M200.7,12.3c0,6.8-5.5,12.3-12.3,12.3c-2.4,0-4.6-0.7-6.5-1.8c-3.5-2.2-5.9-6.1-5.9-10.5
		c0-6.8,5.5-12.3,12.3-12.3S200.7,5.5,200.7,12.3L200.7,12.3z"/>
	<g>
		<path class="st0" d="M342,310.5c-13.3-7.4-16.4-19.2-16.4-19.2c-3.2,0.5-6.3,2.4-9.2,5.1l0,0c0,0-14.9-6.7-23.5,20.9l6.7,3.4l0,0
			c-0.9,1.8-1.4,3-1.4,3c-13.7-6.7-25,0.1-25,0.1c-2.7-7.4-3.5-9-7.1-10.2c-3.7-1.3-7.9-0.7-11.3,1.3c-18.1,10.5-34.9,0-34.9,0
			c0.2,0.5,0.4,0.9,0.6,1.3c5.9,12,20.3,17,32.7,12c9.4-3.8,16.2-4.3,18.7-4.3c-5.6,1-9,16-9,16c-6.7-5.9-18,20.3-18,20.3h-6.6v11.3
			c8.6,0.4,20.4-23.9,20.4-23.9s4.3,6.7,14.9,6.7s14.1-6.3,14.1-6.3c13.3,6.7,27,2,27,2c35.6-12.5,12.5,14.5,12.5,14.5l1.2,9
			c0,0,18-19.2,13.7-27s-16-8.2-16-8.2c4.7-9.4-2.4-25.4-2.4-25.4C332.2,316,355.3,317.9,342,310.5L342,310.5z"/>
		<path class="st0" d="M122.1,310.5c-13.3-7.4-16.4-19.2-16.4-19.2c-3.1,0.5-6.3,2.4-9.2,5.1l0,0c0,0-14.9-6.7-23.5,20.9l6.7,3.4
			l0,0c-0.9,1.8-1.4,3-1.4,3c-13.7-6.7-25,0.1-25,0.1c-2.6-7.4-3.6-9-7.1-10.2c-3.7-1.3-7.9-0.7-11.3,1.3c-18.1,10.5-34.9,0-34.9,0
			c0.2,0.5,0.4,0.9,0.6,1.3c5.9,12,20.3,17,32.7,12c9.4-3.8,16.2-4.3,18.7-4.3c-5.6,1-9,16-9,16c-6.6-5.9-18,20.3-18,20.3h-6.6v11.3
			c8.6,0.4,20.4-23.9,20.4-23.9s4.3,6.7,14.9,6.7s14.1-6.3,14.1-6.3c13.3,6.7,27,2,27,2c35.6-12.5,12.5,14.5,12.5,14.5l1.2,9
			c0,0,18-19.2,13.7-27s-16-8.2-16-8.2c4.7-9.4-2.4-25.4-2.4-25.4C112.3,316,135.4,317.9,122.1,310.5L122.1,310.5z"/>
		<path class="st0" d="M239.1,245c-13.3-7.4-16.4-19.2-16.4-19.2c-3.1,0.5-6.3,2.4-9.2,5.1l0,0c0,0-14.9-6.7-23.5,20.9l6.7,3.4l0,0
			c-0.9,1.8-1.4,3-1.4,3c-13.7-6.7-25,0.1-25,0.1c-2.6-7.4-3.5-9-7.1-10.2c-3.7-1.3-7.9-0.7-11.3,1.3c-18.1,10.5-34.9,0-34.9,0
			c0.2,0.5,0.4,0.9,0.6,1.3c5.9,12,20.3,17,32.7,12c9.4-3.8,16.2-4.3,18.7-4.3c-5.6,1-9,16-9,16c-6.6-5.9-18,20.3-18,20.3h-6.6v11.3
			c8.6,0.4,20.4-23.9,20.4-23.9s4.3,6.7,14.9,6.7s14.1-6.3,14.1-6.3c13.3,6.7,27,2,27,2c35.6-12.5,12.5,14.5,12.5,14.5l1.2,9
			c0,0,18-19.2,13.7-27s-16-8.2-16-8.2c4.7-9.4-2.4-25.4-2.4-25.4C229.3,250.5,252.4,252.5,239.1,245L239.1,245z"/>
	</g>
	<g>
		<path class="st1" d="M183.9,23.8c0,0-18.5,75.5-61.6,128.2H70.4C72.4,145.2,138.5,107.9,183.9,23.8L183.9,23.8z"/>
		<g>
			<circle class="st1" cx="45.2" cy="410.8" r="5.2"/>
			<circle class="st1" cx="65.7" cy="410.8" r="5.2"/>
			<circle class="st1" cx="86.1" cy="410.8" r="5.2"/>
			<circle class="st1" cx="106.6" cy="410.8" r="5.2"/>
			<circle class="st1" cx="127.1" cy="410.8" r="5.2"/>
			<circle class="st1" cx="147.5" cy="410.8" r="5.2"/>
			<circle class="st1" cx="168" cy="410.8" r="5.2"/>
			<path class="st1" d="M188.4,416c-2.9,0-5.2-2.3-5.2-5.2s2.3-5.2,5.2-5.2"/>
		</g>
		<path class="st1" d="M192.9,23.8c0,0,18.5,75.5,61.6,128.2h51.9C304.4,145.2,238.3,107.9,192.9,23.8L192.9,23.8z"/>
		<path class="st1" d="M189.9,24.6l-1.5,0.1l-1.5-0.1c0,0-11.9,109.2-22.3,127.4h47.6C201.7,133.7,189.9,24.6,189.9,24.6L189.9,24.6
			z"/>
		<g>
			<circle class="st1" cx="331.5" cy="410.8" r="5.2"/>
			<circle class="st1" cx="311.1" cy="410.8" r="5.2"/>
			<circle class="st1" cx="290.6" cy="410.8" r="5.2"/>
			<circle class="st1" cx="270.2" cy="410.8" r="5.2"/>
			<circle class="st1" cx="249.7" cy="410.8" r="5.2"/>
			<circle class="st1" cx="229.3" cy="410.8" r="5.2"/>
			<circle class="st1" cx="208.8" cy="410.8" r="5.2"/>
			<path class="st1" d="M188.4,416c2.9,0,5.2-2.3,5.2-5.2s-2.3-5.2-5.2-5.2"/>
		</g>
	</g>
</g>
</svg>
