<?xml version="1.0" encoding="utf-8"?>
<!-- Generator: Adobe Illustrator 26.5.0, SVG Export Plug-In . SVG Version: 6.00 Build 0)  -->
<svg version="1.1" id="uuid-e7655e18-f793-481c-a743-e6652c45ca56"
	 xmlns="http://www.w3.org/2000/svg" xmlns:xlink="http://www.w3.org/1999/xlink" x="0px" y="0px" viewBox="0 0 301.5 411.4"
	 style="enable-background:new 0 0 301.5 411.4;" xml:space="preserve">
<style type="text/css">
	.st0{fill:#E8629F;}
	.st1{fill:#FCBE1B;}
	.st2{fill:#261923;}
	.st3{fill:none;stroke:#E8629F;stroke-width:2;stroke-miterlimit:10;}
	.st4{fill:none;stroke:#E8629F;stroke-miterlimit:10;}
</style>
<g>
	<g>
		<polygon class="st0" points="175.7,64.7 165.7,59.8 185.7,59.8 		"/>
		<g>
			<rect x="166.2" y="33.9" class="st1" width="19" height="25.4"/>
			<path class="st0" d="M184.7,34.4v24.4h-18V34.4H184.7 M185.7,33.4h-20v26.4h20V33.4L185.7,33.4z"/>
		</g>
		<path class="st0" d="M175.7,16.1c-3.1,10.7-10,17.4-10,17.4h20C185.7,33.4,178.8,26.8,175.7,16.1L175.7,16.1z"/>
	</g>
	<g>
		<polygon class="st0" points="67.2,371.3 38.6,357.4 95.8,357.4 		"/>
		<g>
			<rect x="39.1" y="153.3" class="st1" width="56.2" height="203.6"/>
			<path class="st0" d="M94.8,153.8v202.6H39.6V153.8H94.8 M95.8,152.8H38.6v204.6h57.2V152.8L95.8,152.8z"/>
		</g>
		<path class="st0" d="M67.2,103.3c-8.9,30.6-28.6,49.5-28.6,49.5h57.2C95.8,152.8,76.1,133.9,67.2,103.3L67.2,103.3z"/>
		<g>
			<rect x="61.9" y="172.5" class="st2" width="11.7" height="20.9"/>
			<path class="st0" d="M72.9,173.2v19.5H62.6v-19.5H72.9 M74.3,171.8H61.2v22.3h13.1V171.8L74.3,171.8z"/>
		</g>
	</g>
	<g>
		<polygon class="st0" points="145.7,268 122,254.1 169.3,254.1 		"/>
		<g>
			<rect x="122.5" y="50" class="st1" width="46.3" height="203.6"/>
			<path class="st0" d="M168.3,50.5v202.6H123V50.5H168.3 M169.3,49.5H122v204.6h47.3V49.5L169.3,49.5z"/>
		</g>
		<path class="st0" d="M145.7,0C138.3,30.6,122,49.5,122,49.5h47.3C169.3,49.5,153,30.6,145.7,0L145.7,0z"/>
		<g>
			<rect x="141.4" y="69.1" class="st2" width="9.6" height="21"/>
			<path class="st0" d="M150.3,69.8v19.8H142V69.8H150.3 M151.6,68.5h-10.9v22.3h10.9V68.5L151.6,68.5z"/>
		</g>
	</g>
	<g>
		<polygon class="st0" points="194.5,234.4 178,223 210.9,223 		"/>
		<g>
			<rect x="178.5" y="110.6" class="st1" width="31.9" height="112"/>
			<path class="st0" d="M209.9,111.1v111H179v-111H209.9 M210.9,110.1H178v113h32.9V110.1L210.9,110.1z"/>
		</g>
		<path class="st0" d="M194.5,43.2c0,44.1-16.5,66.9-16.5,66.9h32.9C210.9,110.1,194.5,87.4,194.5,43.2L194.5,43.2z"/>
		<g>
			<rect x="191.5" y="126.1" class="st2" width="6.6" height="17.4"/>
			<path class="st0" d="M197.6,126.6V143H192v-16.4H197.6 M198.6,125.6H191V144h7.5V125.6L198.6,125.6z"/>
		</g>
	</g>
	<g>
		<polygon class="st0" points="162.1,292.8 138.4,279 185.7,279 		"/>
		<g>
			<rect x="138.9" y="169.7" class="st1" width="46.3" height="108.8"/>
			<path class="st0" d="M184.7,170.2V278h-45.3V170.2H184.7 M185.7,169.2h-47.3V279h47.3V169.2L185.7,169.2z"/>
		</g>
		<path class="st0" d="M162.1,68.5c-7.4,62.2-23.7,100.7-23.7,100.7h47.3C185.7,169.2,169.5,130.7,162.1,68.5L162.1,68.5z"/>
		<g>
			<rect x="157.8" y="181.6" class="st2" width="9.6" height="21"/>
			<path class="st0" d="M166.7,182.3v19.8h-8.3v-19.8H166.7 M168,181h-10.9v22.3H168V181L168,181z"/>
		</g>
	</g>
	<g>
		<polygon class="st0" points="109.6,311.2 89.6,297.4 129.6,297.4 		"/>
		<g>
			<rect x="90.1" y="93.2" class="st1" width="39" height="203.6"/>
			<path class="st0" d="M128.6,93.7v202.6h-38V93.7L128.6,93.7 M129.6,92.7h-40v204.6h40V92.7L129.6,92.7z"/>
		</g>
		<path class="st0" d="M109.6,43.2c-6.2,30.6-20,49.5-20,49.5h40C129.6,92.7,115.8,73.8,109.6,43.2L109.6,43.2z"/>
		<g>
			<rect x="106" y="112.3" class="st2" width="8" height="21.1"/>
			<path class="st0" d="M113.4,112.9v20h-6.9v-20H113.4 M114.6,111.7h-9.2V134h9.2V111.7L114.6,111.7z"/>
		</g>
	</g>
	<g>
		<polygon class="st0" points="28.6,312.3 0,298.4 57.2,298.4 		"/>
		<g>
			<rect x="0.5" y="223.6" class="st1" width="56.2" height="74.4"/>
			<path class="st0" d="M56.2,224.1v73.4H1v-73.4H56.2 M57.2,223.1H0v75.4h57.2V223.1L57.2,223.1z"/>
		</g>
		<path class="st0" d="M28.6,173.5C19.7,204.1,0,223.1,0,223.1h57.2C57.2,223.1,37.5,204.1,28.6,173.5L28.6,173.5z"/>
		<g>
			<rect x="23.3" y="237.1" class="st2" width="11.7" height="20.9"/>
			<path class="st0" d="M34.4,237.8v19.5H24v-19.5H34.4 M35.8,236.4H22.6v22.3h13.1V236.4L35.8,236.4z"/>
		</g>
	</g>
	<g>
		<polygon class="st0" points="250.7,238.5 222.1,224.7 279.3,224.7 		"/>
		<g>
			<rect x="222.6" y="149.8" class="st1" width="56.2" height="74.4"/>
			<path class="st0" d="M278.3,150.3v73.4h-55.2v-73.4H278.3 M279.3,149.3h-57.2v75.4h57.2V149.3L279.3,149.3z"/>
		</g>
		<path class="st0" d="M250.7,99.8c-8.9,30.6-28.6,49.5-28.6,49.5h57.2C279.3,149.3,259.6,130.4,250.7,99.8L250.7,99.8z"/>
		<g>
			<rect x="245.4" y="163.4" class="st2" width="11.7" height="20.9"/>
			<path class="st0" d="M256.5,164.1v19.5h-10.3v-19.5H256.5 M257.9,162.7h-13.1V185h13.1V162.7L257.9,162.7z"/>
		</g>
	</g>
	<g>
		<polygon class="st0" points="117.3,335.2 80.5,320.1 154,320.1 		"/>
		<g>
			<rect x="81" y="238.4" class="st1" width="72.6" height="81.2"/>
			<path class="st0" d="M153,238.9v80.2H81.5v-80.2H153 M154,237.9H80.5v82.2H154V237.9L154,237.9z"/>
		</g>
		<path class="st0" d="M117.3,183.8c-11.5,33.4-36.8,54.1-36.8,54.1H154C154,237.9,128.7,217.2,117.3,183.8L117.3,183.8z"/>
		<g>
			<rect x="110.4" y="259.4" class="st2" width="15.2" height="22.7"/>
			<path class="st0" d="M124.8,260.2v21h-13.6v-21H124.8 M126.5,258.5h-16.9v24.3h16.9V258.5L126.5,258.5z"/>
		</g>
	</g>
	<g>
		<polygon class="st0" points="203.9,268.8 175.7,257.2 232,257.2 		"/>
		<g>
			<rect x="176.2" y="194.8" class="st1" width="55.3" height="62"/>
			<path class="st0" d="M231,195.3v61h-54.3v-61L231,195.3 M232,194.3h-56.3v63H232V194.3L232,194.3z"/>
		</g>
		<path class="st0" d="M203.9,152.9c-8.8,25.6-28.2,41.4-28.2,41.4H232C232,194.3,212.7,178.4,203.9,152.9z"/>
		<g>
			<rect x="198.7" y="210.7" class="st2" width="11.6" height="17.4"/>
			<path class="st0" d="M209.7,211.4v16.1h-10.4v-16.1H209.7 M210.9,210.1H198v18.6h12.9V210.1L210.9,210.1z"/>
		</g>
	</g>
	<g>
		<polygon class="st0" points="143.2,353.2 129.6,346.6 156.7,346.6 		"/>
		<g>
			<rect x="130.1" y="311.4" class="st1" width="26.1" height="34.7"/>
			<path class="st0" d="M155.7,311.9v33.7h-25.1v-33.7L155.7,311.9 M156.7,310.9h-27.1v35.7h27.1V310.9L156.7,310.9z"/>
		</g>
		<path class="st0" d="M143.2,287.4c-4.2,14.5-13.5,23.5-13.5,23.5h27.1C156.7,310.9,147.4,301.9,143.2,287.4L143.2,287.4z"/>
		<g>
			<rect x="140.7" y="317.6" class="st2" width="5.5" height="9.9"/>
			<path class="st0" d="M145.9,317.9v9.2H141v-9.2H145.9 M146.6,317.3h-6.2v10.6h6.2V317.3L146.6,317.3z"/>
		</g>
	</g>
	<g>
		<polygon class="st0" points="287.9,171.9 274.4,165.3 301.5,165.3 		"/>
		<g>
			<rect x="274.8" y="130.1" class="st1" width="26.1" height="34.7"/>
			<path class="st0" d="M300.5,130.6v33.7h-25.1v-33.7H300.5 M301.5,129.6h-27.1v35.7h27.1V129.6L301.5,129.6z"/>
		</g>
		<path class="st0" d="M287.9,106.1c-4.2,14.5-13.5,23.5-13.5,23.5h27.1C301.5,129.6,292.1,120.6,287.9,106.1L287.9,106.1z"/>
		<g>
			<rect x="285.4" y="136.3" class="st2" width="5.5" height="9.9"/>
			<path class="st0" d="M290.6,136.6v9.2h-4.9v-9.2H290.6 M291.3,135.9h-6.2v10.6h6.2V135.9L291.3,135.9z"/>
		</g>
	</g>
	<g>
		<polygon class="st0" points="228.6,295.8 211.3,289.4 245.9,289.4 		"/>
		<g>
			<rect x="211.8" y="255" class="st1" width="33.6" height="33.9"/>
			<path class="st0" d="M244.9,255.5v32.9h-32.6v-32.9H244.9 M245.9,254.5h-34.6v34.9h34.6V254.5L245.9,254.5z"/>
		</g>
		<path class="st0" d="M228.6,223c-5.4,14.2-17.3,31.5-17.3,31.5h34.6C245.9,254.5,234,237.2,228.6,223L228.6,223z"/>
		<g>
			<rect x="225.3" y="263.7" class="st2" width="7.2" height="9.6"/>
			<path class="st0" d="M232.2,264v8.8h-6.5V264H232.2 M232.9,263.3H225v10.3h7.9V263.3L232.9,263.3z"/>
		</g>
	</g>
	<line class="st3" x1="67.2" y1="357.4" x2="67.2" y2="411.4"/>
	<line class="st3" x1="28.6" y1="295.5" x2="28.6" y2="349.5"/>
	<line class="st3" x1="117.3" y1="322.5" x2="117.3" y2="376.5"/>
	<line class="st3" x1="162.6" y1="277.3" x2="162.6" y2="331.3"/>
	<line class="st3" x1="251.3" y1="227.1" x2="251.3" y2="281.1"/>
	<line class="st3" x1="203.9" y1="258.9" x2="203.9" y2="312.9"/>
	<line class="st4" x1="228.9" y1="289.4" x2="228.9" y2="317.3"/>
	<line class="st4" x1="288.2" y1="165.3" x2="288.2" y2="193.1"/>
	<line class="st4" x1="175.7" y1="59.8" x2="175.7" y2="87.7"/>
	<line class="st4" x1="143.2" y1="346.6" x2="143.2" y2="374.5"/>
</g>
</svg>
