<?xml version="1.0" encoding="utf-8"?>
<!-- Generator: Adobe Illustrator 26.5.0, SVG Export Plug-In . SVG Version: 6.00 Build 0)  -->
<svg version="1.1" id="uuid-9d67b5e2-4494-42a9-8ab9-23faeddcd7e4"
	 xmlns="http://www.w3.org/2000/svg" xmlns:xlink="http://www.w3.org/1999/xlink" x="0px" y="0px" viewBox="0 0 233.9 395.5"
	 style="enable-background:new 0 0 233.9 395.5;" xml:space="preserve">
<style type="text/css">
	.st0{fill:#FCBE1B;}
	.st1{fill:#E8629F;}
	.st2{fill:#261923;}
</style>
<g>
	<g>
		<rect x="122.1" y="233.9" class="st0" width="41.6" height="95.7"/>
		<path class="st1" d="M163.3,234.4V329h-40.6v-94.7H163.3 M164.3,233.4h-42.6V330h42.6V233.4L164.3,233.4z"/>
	</g>
	<g>
		<polygon class="st0" points="70.8,213.2 70.8,233.4 70.8,330 121.6,330 121.6,233.4 142,233.4 142,213.2 		"/>
		<rect x="79.5" y="231.4" class="st1" width="42.1" height="5"/>
		<g>
			<circle class="st2" cx="84.4" cy="233.9" r="1.5"/>
			<circle class="st2" cx="90.6" cy="233.9" r="1.5"/>
			<circle class="st2" cx="96.9" cy="233.9" r="1.5"/>
			<circle class="st2" cx="103.1" cy="233.9" r="1.5"/>
			<circle class="st2" cx="109.4" cy="233.9" r="1.5"/>
			<circle class="st2" cx="115.5" cy="233.9" r="1.5"/>
		</g>
		<g>
			<path class="st2" d="M85,254.1v-10.2c0-1.8,1.4-3.2,3.2-3.2s3.2,1.4,3.2,3.2v10.2H85L85,254.1z"/>
			<path class="st1" d="M88.2,241.1c1.5,0,2.7,1.2,2.7,2.7v9.7h-5.4v-9.7C85.5,242.3,86.8,241.1,88.2,241.1 M88.2,240.1
				c-2,0-3.7,1.7-3.7,3.7v10.7H92v-10.7C92,241.8,90.3,240.1,88.2,240.1L88.2,240.1L88.2,240.1z"/>
		</g>
		<g>
			<path class="st2" d="M102.2,254.1v-10.2c0-1.8,1.4-3.2,3.2-3.2s3.2,1.4,3.2,3.2v10.2H102.2L102.2,254.1z"/>
			<path class="st1" d="M105.5,241.1c1.5,0,2.7,1.2,2.7,2.7v9.7h-5.4v-9.7C102.7,242.3,104,241.1,105.5,241.1 M105.5,240.1
				c-2,0-3.7,1.7-3.7,3.7v10.7h7.4v-10.7C109.2,241.8,107.5,240.1,105.5,240.1L105.5,240.1L105.5,240.1z"/>
		</g>
	</g>
	<g>
		<rect x="121.6" y="110.9" class="st0" width="18.9" height="122.5"/>
		<rect x="118.1" y="131.3" class="st0" width="26" height="6.3"/>
		<polygon class="st1" points="144.1,131.3 140.5,127.4 121.6,127.4 118.1,131.3 		"/>
		<polygon class="st1" points="144.1,137.6 140.5,141.5 121.6,141.5 118.1,137.6 		"/>
		<g>
			<rect x="115.2" y="213.8" class="st0" width="31.7" height="5.3"/>
			<path class="st1" d="M146.5,214.3v4.3h-30.7v-4.3H146.5 M147.5,213.3h-32.7v6.3h32.7V213.3L147.5,213.3z"/>
		</g>
		<polygon class="st1" points="147.5,213.3 143,209.4 119.2,209.4 114.7,213.3 		"/>
		<polygon class="st1" points="147.5,219.6 143,223.5 119.2,223.5 114.7,219.6 		"/>
		<path class="st1" d="M118.4,110.9C125.7,95.5,129,51.4,131.2,0c2.2,54.2,5.5,99.3,12.5,110.9H118.4z"/>
		<g>
			<path class="st2" d="M129,201.2v-7c0-1.2,0.9-2.1,2.1-2.1s2.1,0.9,2.1,2.1v7H129L129,201.2z"/>
			<path class="st1" d="M131.1,192.6c0.9,0,1.6,0.7,1.6,1.6v6.5h-3.2v-6.5C129.5,193.3,130.2,192.6,131.1,192.6 M131.1,191.6
				c-1.4,0-2.6,1.2-2.6,2.6v7.5h5.2v-7.5C133.7,192.7,132.5,191.6,131.1,191.6L131.1,191.6L131.1,191.6z"/>
		</g>
		<g>
			<path class="st2" d="M129,163.4v-7c0-1.2,0.9-2.1,2.1-2.1s2.1,0.9,2.1,2.1v7H129L129,163.4z"/>
			<path class="st1" d="M131.1,154.8c0.9,0,1.6,0.7,1.6,1.6v6.5h-3.2v-6.5C129.5,155.5,130.2,154.8,131.1,154.8 M131.1,153.8
				c-1.4,0-2.6,1.2-2.6,2.6v7.5h5.2v-7.5C133.7,154.9,132.5,153.8,131.1,153.8L131.1,153.8L131.1,153.8z"/>
		</g>
	</g>
	<g>
		<rect x="148.5" y="183.3" class="st0" width="13" height="50.9"/>
		<path class="st1" d="M149.3,203.5h11.5c1.3,0,2.4,1.1,2.4,2.4v5.6c0,1.3-1.1,2.4-2.4,2.4h-11.5c-1.3,0-2.4-1.1-2.4-2.4v-5.6
			C146.9,204.6,148,203.5,149.3,203.5z"/>
		<path class="st1" d="M144.2,183.3c6.2-9.5,9-36.8,11-68.6c1.9,33.5,4.7,61.4,10.7,68.6H144.2L144.2,183.3z"/>
		<g>
			<path class="st2" d="M152.9,198v-7c0-1.2,0.9-2.1,2.1-2.1s2.1,0.9,2.1,2.1v7H152.9L152.9,198z"/>
			<path class="st1" d="M155,189.5c0.9,0,1.6,0.7,1.6,1.6v6.5h-3.2v-6.5C153.4,190.2,154.1,189.5,155,189.5 M155,188.5
				c-1.4,0-2.6,1.2-2.6,2.6v7.5h5.2v-7.5C157.6,189.6,156.5,188.5,155,188.5L155,188.5L155,188.5z"/>
		</g>
	</g>
	<g>
		<g>
			<rect x="157.7" y="234.6" class="st0" width="10.9" height="21"/>
			<path class="st1" d="M168.1,235.1v20h-9.9v-20H168.1 M169.1,234.1h-11.9v22h11.9V234.1L169.1,234.1z"/>
		</g>
		<path class="st1" d="M157.2,234.1c3.4-3,5-11.4,6-21.3c1,10.4,2.6,19,5.9,21.3H157.2z"/>
		<path class="st1" d="M157.2,256.1c0,0,1.2,3.5,5.9,3.5s5.9-3.5,5.9-3.5H157.2L157.2,256.1z"/>
	</g>
	<polygon class="st1" points="110.1,213.9 80.8,213.9 88.6,163.9 102.4,163.9 	"/>
	<g>
		<rect x="105.2" y="163.9" class="st0" width="10.8" height="50"/>
		<path class="st1" d="M102.8,163.9c4.5-8.6,6.5-33.3,7.9-62.1c1.4,30.4,3.4,55.6,7.7,62.1H102.8L102.8,163.9z"/>
	</g>
	<g>
		<g>
			<rect x="67.9" y="213.8" class="st0" width="10.4" height="22.8"/>
			<path class="st1" d="M77.7,214.3v21.8h-9.4v-21.8H77.7 M78.7,213.3H67.4v23.8h11.4V213.3L78.7,213.3z"/>
		</g>
		<g>
			<path class="st0" d="M69,248.5c-1.5,0-2.7-1.2-2.7-2.7v-7c0-0.7,0.5-1.2,1.2-1.2h13v8.2c0,1.5-1.2,2.7-2.7,2.7L69,248.5L69,248.5
				z"/>
			<path class="st1" d="M80,238.1v7.7c0,1.2-1,2.2-2.2,2.2H69c-1.2,0-2.2-1-2.2-2.2v-7c0-0.4,0.3-0.7,0.7-0.7L80,238.1 M81,237.1
				H67.5c-0.9,0-1.7,0.8-1.7,1.7v7c0,1.8,1.5,3.2,3.2,3.2h8.7c1.8,0,3.2-1.5,3.2-3.2V237.1L81,237.1L81,237.1z"/>
		</g>
		<path class="st1" d="M65.6,213.3c5.2-5.8,7.5-22.6,9.1-42.1c1.6,20.6,3.9,37.7,8.9,42.1H65.6L65.6,213.3z"/>
	</g>
	<g>
		<polygon class="st0" points="102.3,173.6 101.2,190.8 96.1,173.6 90.9,190.8 89.8,173.6 88.8,190.8 88.8,219.6 103.4,219.6 
			103.4,190.8 		"/>
		<g>
			<rect x="92.7" y="194" class="st2" width="6.8" height="8.5"/>
			<path class="st1" d="M99,194.5v7.5h-5.8v-7.5H99 M100,193.5h-7.8v9.5h7.8V193.5L100,193.5z"/>
		</g>
		<g>
			<rect x="92.7" y="209.1" class="st2" width="6.8" height="8.5"/>
			<path class="st1" d="M99,209.6v7.5h-5.8v-7.5H99 M100,208.6h-7.8v9.5h7.8V208.6L100,208.6z"/>
		</g>
	</g>
	<g>
		<rect x="13.5" y="320.6" class="st1" width="124.1" height="9.4"/>
		<g>
			<rect x="194.9" y="334.2" class="st0" width="10.9" height="60.8"/>
			<path class="st1" d="M205.4,334.7v59.8h-9.9v-59.8H205.4 M206.4,333.7h-11.9v61.8h11.9V333.7L206.4,333.7z"/>
		</g>
		<path class="st1" d="M168.4,291c5.3-4.8,7.7-18.7,9.4-34.9c1.6,17,4,31.2,9.1,34.9H168.4z"/>
		<g>
			<polygon class="st0" points="162.4,377 162.4,316.2 163.6,316.2 163.6,296.1 167.2,296.1 167.2,288.1 171.9,288.1 171.9,291 
				174.8,291 174.8,288.1 179.5,288.1 179.5,291 182.9,291 182.9,288.1 187.6,288.1 187.6,296.1 191.2,296.1 191.2,316.2 
				192.7,316.2 192.7,377 			"/>
			<path class="st1" d="M187.1,288.6v8h3.6v20.1h1.6v59.8H163v-59.8h1.2v-20.1h3.6v-8h3.7v2.9h3.9v-2.9h3.7v2.9h4.3v-2.9H187.1
				 M188.1,287.6h-5.7v2.9H180v-2.9h-5.7v2.9h-1.9v-2.9h-5.7v8h-3.6v20.1H162v61.8h31.3v-61.8h-1.6v-20.1h-3.6L188.1,287.6
				L188.1,287.6L188.1,287.6z"/>
		</g>
		<g>
			<rect x="2.8" y="330.5" class="st0" width="178.8" height="64.5"/>
			<path class="st1" d="M181.1,331v63.5H3.3V331H181.1 M182.1,330H2.3v65.5h179.8V330L182.1,330z"/>
		</g>
		<g>
			<g>
				<rect x="2.8" y="330.5" class="st0" width="21.5" height="64.5"/>
				<path class="st1" d="M23.8,331v63.5H3.3V331H23.8 M24.8,330H2.3v65.5h22.5V330L24.8,330z"/>
			</g>
			<rect x="2.3" y="294.6" class="st0" width="22.5" height="13.3"/>
			<rect y="314.2" class="st0" width="27.1" height="9.5"/>
			<g>
				<path class="st2" d="M13.4,305.5c-2.3,0-4.2-1.9-4.2-4.2s1.9-4.2,4.2-4.2s4.2,1.9,4.2,4.2S15.7,305.5,13.4,305.5z"/>
				<path class="st1" d="M13.4,297.5c2.1,0,3.7,1.7,3.7,3.7s-1.7,3.7-3.7,3.7s-3.7-1.7-3.7-3.7S11.3,297.5,13.4,297.5 M13.4,296.5
					c-2.6,0-4.7,2.1-4.7,4.7s2.1,4.7,4.7,4.7s4.7-2.1,4.7-4.7S16,296.5,13.4,296.5L13.4,296.5z"/>
			</g>
			<polygon class="st1" points="2.3,330 0,323.7 27.1,323.7 24.8,330 			"/>
			<polygon class="st1" points="0,314.2 2.3,307.9 24.8,307.9 27.1,314.2 			"/>
			<path class="st1" d="M0.7,294.6c7.3-8.2,10.6-31.6,12.9-58.9c2.2,28.8,5.5,52.7,12.6,58.9H0.7L0.7,294.6z"/>
		</g>
		<g>
			<g>
				<rect x="43.1" y="330.5" class="st0" width="21.5" height="64.5"/>
				<path class="st1" d="M64.1,331v63.5H43.6V331H64.1 M65.1,330H42.6v65.5h22.5V330L65.1,330z"/>
			</g>
			<rect x="42.6" y="294.6" class="st0" width="22.5" height="13.3"/>
			<rect x="40.3" y="314.2" class="st0" width="27.1" height="9.5"/>
			<g>
				<path class="st2" d="M53.7,305.5c-2.3,0-4.2-1.9-4.2-4.2s1.9-4.2,4.2-4.2s4.2,1.9,4.2,4.2S56,305.5,53.7,305.5z"/>
				<path class="st1" d="M53.7,297.5c2.1,0,3.7,1.7,3.7,3.7s-1.7,3.7-3.7,3.7s-3.7-1.7-3.7-3.7S51.6,297.5,53.7,297.5 M53.7,296.5
					c-2.6,0-4.7,2.1-4.7,4.7s2.1,4.7,4.7,4.7s4.7-2.1,4.7-4.7S56.3,296.5,53.7,296.5L53.7,296.5z"/>
			</g>
			<polygon class="st1" points="42.6,330 40.3,323.7 67.4,323.7 65.1,330 			"/>
			<polygon class="st1" points="40.3,314.2 42.6,307.9 65.1,307.9 67.4,314.2 			"/>
			<path class="st1" d="M41,294.6c7.3-8.2,10.6-31.6,12.9-58.9c2.2,28.8,5.5,52.7,12.5,58.9H41z"/>
		</g>
		<g>
			<g>
				<rect x="131.3" y="330.5" class="st0" width="21.5" height="64.5"/>
				<path class="st1" d="M152.3,331v63.5h-20.5V331H152.3 M153.3,330h-22.5v65.5h22.5V330L153.3,330z"/>
			</g>
			<rect x="130.8" y="294.6" class="st0" width="22.5" height="13.3"/>
			<rect x="128.5" y="314.2" class="st0" width="27.1" height="9.5"/>
			<g>
				<path class="st2" d="M141.9,305.5c-2.3,0-4.2-1.9-4.2-4.2s1.9-4.2,4.2-4.2s4.2,1.9,4.2,4.2S144.2,305.5,141.9,305.5z"/>
				<path class="st1" d="M141.9,297.5c2.1,0,3.7,1.7,3.7,3.7s-1.7,3.7-3.7,3.7s-3.7-1.7-3.7-3.7S139.8,297.5,141.9,297.5
					 M141.9,296.5c-2.6,0-4.7,2.1-4.7,4.7s2.1,4.7,4.7,4.7s4.7-2.1,4.7-4.7S144.5,296.5,141.9,296.5L141.9,296.5z"/>
			</g>
			<polygon class="st1" points="130.8,330 128.5,323.7 155.5,323.7 153.3,330 			"/>
			<polygon class="st1" points="128.5,314.2 130.8,307.9 153.3,307.9 155.5,314.2 			"/>
			<path class="st1" d="M129.1,294.6c7.3-8.2,10.6-31.6,12.9-58.9c2.2,28.8,5.5,52.7,12.5,58.9H129.1z"/>
		</g>
		<g>
			<g>
				<rect x="182.6" y="321.1" class="st0" width="14.1" height="73.9"/>
				<path class="st1" d="M196.1,321.6v72.9h-13.1v-72.9H196.1 M197.1,320.6h-15.1v74.9h15.1V320.6L197.1,320.6z"/>
			</g>
			<path class="st1" d="M180.4,320.6c5.3-4.8,7.7-18.7,9.4-34.9c1.6,17,4,31.2,9.1,34.9H180.4z"/>
			<g>
				<path class="st2" d="M187.5,335.7v-7c0-1.2,0.9-2.1,2.1-2.1s2.1,0.9,2.1,2.1v7H187.5L187.5,335.7z"/>
				<path class="st1" d="M189.6,327.1c0.9,0,1.6,0.7,1.6,1.6v6.5H188v-6.5C188,327.8,188.7,327.1,189.6,327.1 M189.6,326.1
					c-1.4,0-2.6,1.2-2.6,2.6v7.5h5.2v-7.5C192.2,327.3,191,326.1,189.6,326.1L189.6,326.1L189.6,326.1z"/>
			</g>
		</g>
		<path class="st1" d="M209.1,309c5.3-4.8,7.7-18.7,9.4-34.9c1.6,17,4,31.2,9.1,34.9H209.1z"/>
		<g>
			<polygon class="st0" points="203.1,395 203.1,334.2 204.3,334.2 204.3,314.1 207.9,314.1 207.9,306.1 212.6,306.1 212.6,309 
				215.5,309 215.5,306.1 220.2,306.1 220.2,309 223.5,309 223.5,306.1 228.3,306.1 228.3,314.1 231.9,314.1 231.9,334.2 
				233.4,334.2 233.4,395 			"/>
			<path class="st1" d="M227.8,306.6v8h3.6v20.1h1.6v59.8h-29.3v-59.8h1.2v-20.1h3.6v-8h3.7v2.9h3.9v-2.9h3.7v2.9h4.3v-2.9H227.8
				 M228.8,305.6h-5.7v2.9h-2.3v-2.9H215v2.9h-1.9v-2.9h-5.7v8h-3.6v20.1h-1.2v61.8h31.3v-61.8h-1.6v-20.1h-3.6L228.8,305.6
				L228.8,305.6L228.8,305.6z"/>
		</g>
		<g>
			<rect x="77.9" y="308.4" class="st0" width="39.3" height="86.6"/>
			<path class="st1" d="M116.7,308.9v85.6H78.4v-85.6L116.7,308.9 M117.7,307.9H77.4v87.6h40.3V307.9L117.7,307.9z"/>
		</g>
		<g>
			<polygon class="st1" points="84.1,353.4 90.7,353.4 93.3,346.3 81.7,346.3 			"/>
			<polygon class="st1" points="103.9,353.4 110.6,353.4 113.1,346.3 101.5,346.3 			"/>
		</g>
		<g>
			<path class="st2" d="M83.3,394.5V369c0-7.8,6.3-14.1,14.1-14.1s14.1,6.3,14.1,14.1v25.5H83.3L83.3,394.5z"/>
			<path class="st1" d="M97.4,355.4c7.5,0,13.6,6.1,13.6,13.6v25H83.8v-25C83.8,361.5,89.9,355.4,97.4,355.4 M97.4,354.4L97.4,354.4
				c-8,0-14.6,6.5-14.6,14.6v26H112v-26C112,360.9,105.4,354.4,97.4,354.4L97.4,354.4L97.4,354.4z"/>
		</g>
		<polygon class="st1" points="114.5,307.9 81,307.9 89.8,257.9 105.6,257.9 		"/>
	</g>
</g>
</svg>
