<?xml version="1.0" encoding="utf-8"?>
<!-- Generator: Adobe Illustrator 26.5.0, SVG Export Plug-In . SVG Version: 6.00 Build 0)  -->
<svg version="1.1" id="uuid-4d4fb180-038e-4adf-976e-71fe78cc7c15"
	 xmlns="http://www.w3.org/2000/svg" xmlns:xlink="http://www.w3.org/1999/xlink" x="0px" y="0px" viewBox="0 0 383.9 445.9"
	 style="enable-background:new 0 0 383.9 445.9;" xml:space="preserve">
<style type="text/css">
	.st0{fill-rule:evenodd;clip-rule:evenodd;fill:#E8629F;}
	.st1{fill:#FCBE1B;}
	.st2{fill-rule:evenodd;clip-rule:evenodd;fill:#FCBE1B;}
	.st3{fill:#E8629F;}
	.st4{fill-rule:evenodd;clip-rule:evenodd;fill:#261923;}
	.st5{fill:none;stroke:#FCBE1B;stroke-width:2;stroke-miterlimit:10;}
</style>
<g>
	<path class="st0" d="M281.8,249.1h-106c0,0,0.9,30.8,1.8,30.8h132.6L281.8,249.1z"/>
	<path class="st0" d="M244.9,236.6c-0.4-0.1-61.3,0-61.3,0s-11.2-11.9-10.6-12.9s14.3-21.2,15.5-21.5s43.2,0,43.2,0L244.9,236.6
		L244.9,236.6z"/>
	<path class="st0" d="M362.3,375.5c0,0,6-13.7,8.7-12.9s7,2.7,8.6,10.2s4.3,72.4,4.3,72.4h-21.6V375.5z"/>
	<path class="st0" d="M199.6,445.2H4.6v-45l7.6-9c0,0-0.5-15.2,1-18.4s8.1-18.4,18.4-18.2s28.2,1.7,28.2,1.7s30.3,0.1,31.5,0
		l9.8-1.1l6.6-4l12.8-7.8l57.1-1.6h115.2v9.3l-93.1-0.2L199.6,445.2L199.6,445.2z"/>
	<rect x="199.6" y="351" class="st1" width="162.7" height="94.2"/>
	<rect x="87.6" y="220.8" class="st1" width="14.1" height="21.6"/>
	<g>
		<polygon class="st2" points="92.2,333.6 76.5,333.6 76.5,273.8 95.2,229.8 119.5,286.5 119.5,342.9 100.7,354.2 92.2,355.2 		"/>
		<path class="st3" d="M95.2,232.3l23.3,54.4v55.6l-18.1,11l-7.1,0.8v-21.5H77.5V274L95.2,232.3 M95.2,227.2l-19.7,46.4v61h15.8
			v21.7l9.8-1.1l19.4-11.8v-57.1L95.2,227.2L95.2,227.2L95.2,227.2z"/>
	</g>
	<g>
		<path class="st2" d="M152.5,348.4c-14.2,0-28-4.6-31-5.7v-74.4l-3.4-3.9v-40.3l-5.1-6.6v-28.4h-10.2l0.1-5.2h90.5v5.2h-4.8v26.1
			l-5.9,9v39l-6,5.1l0.5,73.2C171.1,346.1,162.8,348.4,152.5,348.4L152.5,348.4L152.5,348.4z"/>
		<path class="st3" d="M192.3,184.9v3.2h-4.8v26.8l-5.5,8.5l-0.3,0.5v38.8l-5.3,4.5l-0.7,0.6v0.9l0.5,72.2
			c-5.8,4.3-13.7,6.5-23.6,6.5c-13.2,0-26-4-30.1-5.4V268l-0.5-0.6l-2.9-3.3v-40.2l-0.4-0.5l-4.7-6v-29.1h-10.2l0.1-3.2L192.3,184.9
			 M194.3,183h-92.5l-0.1,7.2h10.2v27.8l5.1,6.6v40.3l3.4,3.9v74.7c0,0,15.6,6,32.1,6c9.1,0,18.5-1.8,25.6-7.6l-0.5-73.2l6-5.1
			v-39.1l5.9-9v-25.4h4.8L194.3,183L194.3,183L194.3,183z"/>
	</g>
	<rect x="183.6" y="236.6" class="st1" width="55.2" height="12.5"/>
	<g>
		<rect x="319.5" y="310" class="st1" width="38.4" height="40"/>
		<path class="st3" d="M356.9,311v38h-36.4v-38H356.9 M358.9,309h-40.4v42h40.4V309L358.9,309z"/>
	</g>
	<path class="st2" d="M59.7,341.9l-6.4-7.7l38,0.5V374c0,0-9.5,14.5-31.6,0L59.7,341.9L59.7,341.9z"/>
	<g>
		<rect x="13.2" y="274.6" class="st1" width="61.3" height="54.4"/>
		<path class="st3" d="M73.5,275.6V328H14.2v-52.4H73.5 M75.5,273.6H12.2V330h63.3V273.6L75.5,273.6z"/>
	</g>
	<path class="st2" d="M59.7,204.5h18.5v28.7c0,0-9.1,8.9-19.6,0L59.7,204.5L59.7,204.5z"/>
	<path class="st2" d="M194.8,192.8h18.5v19.4c0,0-9.1,6-19.6,0L194.8,192.8L194.8,192.8z"/>
	<rect x="31.4" y="215.5" class="st1" width="8" height="10.7"/>
	<rect x="177.6" y="279.9" class="st1" width="115.2" height="62"/>
	<rect x="332.4" y="287.9" class="st1" width="19.8" height="21.1"/>
	<g>
		<polygon class="st2" points="293.8,298 289.3,290.9 289.3,273.3 284.9,266.1 329.9,266.1 324.6,273.3 324.6,292.5 320.3,297.7 
			320.5,308 317.5,308 317.5,350 293.8,350.2 		"/>
		<path class="st3" d="M328,267.1l-3.9,5.3l-0.4,0.5v19.2l-3.9,4.7l-0.5,0.6v0.7l0.2,8.9h-3v42l-21.7,0.2v-51.5l-0.3-0.5l-4.2-6.5
			V273l-0.3-0.5l-3.3-5.5L328,267.1 M331.9,265.1h-48.8l5.1,8.5v17.6l4.5,7v53l25.7-0.2v-42h3.1l-0.2-11l4.3-5.2v-19.2L331.9,265.1
			L331.9,265.1L331.9,265.1z"/>
	</g>
	<path class="st1" d="M255.2,206.1h30.9v11.8c0,3.2-2.6,5.8-5.8,5.8H261c-3.2,0-5.8-2.6-5.8-5.8L255.2,206.1L255.2,206.1
		L255.2,206.1z"/>
	<rect x="259.4" y="223.7" class="st1" width="20.5" height="25.4"/>
	<polygon class="st2" points="220.7,213.7 236,213.7 238.8,220.7 238.8,184.8 220.7,184.8 	"/>
	<g>
		<path class="st2" d="M13.2,346.7l-6.8-10.8h47.1l6.4,5.5l-1.1,14.9c-3.7-0.5-16.1-2-25.8-2c-0.6,0-1.1,0-1.7,0
			c-8.6,0.2-14.6,9.1-17.3,14.4L13.2,346.7z"/>
		<path class="st3" d="M53.1,336.8l5.8,4.9l-1,13.3c-4.6-0.6-15.8-1.9-24.8-1.9c-0.6,0-1.1,0-1.7,0c-7.6,0.2-13.1,6.5-16.4,11.8
			l-0.7-18.2l0-0.5l-0.3-0.5l-5.7-9.1L53.1,336.8 M53.8,334.8H4.6l7.6,12.1l1,25.8c0,0,6.6-17.3,18.2-17.6c0.5,0,1.1,0,1.6,0
			c11.4,0,26.7,2.1,26.7,2.1l1.2-16.4L53.8,334.8L53.8,334.8L53.8,334.8z"/>
	</g>
	<path class="st2" d="M111.9,92.2v31.9c0,0,2.2,8.4,11.6,11.1v-43L111.9,92.2L111.9,92.2z"/>
	<g>
		<rect x="124.5" y="96.5" class="st1" width="13.5" height="51.8"/>
		<path class="st3" d="M137,97.5v49.8h-11.5V97.5H137 M139,95.5h-15.5v53.8H139V95.5L139,95.5z"/>
	</g>
	<path class="st2" d="M12.2,318.3c0,0-12.5,16.4-12.2,16.5s53.5,0.2,53.8,0s4.4-5,4.4-5l-3.1,0.1h-43L12.2,318.3L12.2,318.3z"/>
	<path class="st0" d="M68.4,138.9c0.1,23.2-4.6,46.7-13.8,67.2h27.6C74.2,185.7,69.1,162.3,68.4,138.9L68.4,138.9z"/>
	<path class="st0" d="M76.7,279c0.1,24.5-8.8,33.9-25,55.6h48.1C85.9,313.1,77.8,303.8,76.7,279L76.7,279z"/>
	<path class="st0" d="M203.5,127.1c0.1,23.1-4.5,46.7-13.8,67.2h27.6C209.4,174,204.2,150.5,203.5,127.1L203.5,127.1z"/>
	<path class="st0" d="M229.7,117.6c0.1,23.1-4.5,46.7-13.8,67.2h27.6C235.5,164.4,230.4,141,229.7,117.6L229.7,117.6z"/>
	<path class="st0" d="M341.1,220.8c0.1,23.2-4.5,46.7-13.8,67.2h27.6C346.9,267.7,341.7,244.2,341.1,220.8L341.1,220.8z"/>
	<path class="st0" d="M269.7,117.6c0.1,30.5-6,61.5-18.2,88.5h36.4C277.4,179.3,270.5,148.4,269.7,117.6L269.7,117.6z"/>
	<path class="st0" d="M307.5,146.6c0.1,40.8-8,82.3-24.4,118.5h48.8C317.8,229.2,308.7,187.9,307.5,146.6L307.5,146.6z"/>
	<path class="st0" d="M150.2,0c-6.7,99.4-27.9,159.6-48.4,182.9h95C178.6,156.6,159.5,108.9,150.2,0z"/>
	<path class="st0" d="M94.7,166.5c0.1,19.1-3.8,38.6-11.4,55.5h22.9C99.5,205.2,95.2,185.8,94.7,166.5L94.7,166.5z"/>
	<path class="st0" d="M34.8,178c0,12.9-2.5,26-7.7,37.4h15.4C38,204.1,35.1,191.1,34.8,178L34.8,178z"/>
	<path class="st0" d="M116.1,54c0,13.2-2.5,26.5-7.7,38.2h15.4C119.4,80.6,116.5,67.3,116.1,54L116.1,54z"/>
	<path class="st0" d="M130.3,58.1c0,12.9-2.7,26.1-8.3,37.5h16.6C133.8,84.3,130.7,71.2,130.3,58.1L130.3,58.1z"/>
	<g>
		<g>
			<path class="st4" d="M248,340.9v-37.7c0-7.9,6.4-14.3,14.3-14.3c7.9,0,14.3,6.4,14.3,14.3v37.7H248L248,340.9z"/>
			<path class="st3" d="M262.2,289.9c7.3,0,13.3,6,13.3,13.3v36.7H249v-36.7C249,295.8,254.9,289.9,262.2,289.9 M262.2,287.9
				L262.2,287.9c-8.4,0-15.3,6.8-15.3,15.3v38.7h30.5v-38.7C277.5,294.7,270.7,287.9,262.2,287.9L262.2,287.9L262.2,287.9z"/>
		</g>
		<g>
			<path class="st4" d="M302.4,260.3v-9.6c0-2.7,2.2-4.9,4.9-4.9s4.9,2.2,4.9,4.9v9.6H302.4z"/>
			<path class="st3" d="M307.2,246.8c2.1,0,3.9,1.7,3.9,3.9v8.6h-7.7v-8.6C303.4,248.6,305.1,246.8,307.2,246.8 M307.2,244.8
				L307.2,244.8c-3.2,0-5.9,2.6-5.9,5.9v10.6h11.7v-10.6C313.1,247.5,310.5,244.8,307.2,244.8L307.2,244.8z"/>
		</g>
		<g>
			<path class="st4" d="M144.3,215.3v-9.6c0-2.7,2.2-4.9,4.9-4.9s4.9,2.2,4.9,4.9v9.6H144.3z"/>
			<path class="st3" d="M149.2,201.8c2.1,0,3.9,1.7,3.9,3.9v8.6h-7.7v-8.6C145.3,203.6,147,201.8,149.2,201.8 M149.2,199.8
				L149.2,199.8c-3.2,0-5.9,2.6-5.9,5.9v10.6H155v-10.6C155,202.5,152.4,199.8,149.2,199.8L149.2,199.8z"/>
		</g>
		<g>
			<path class="st4" d="M54.8,297.7v-9.6c0-2.7,2.2-4.9,4.9-4.9s4.9,2.2,4.9,4.9v9.6H54.8L54.8,297.7z"/>
			<path class="st3" d="M59.7,284.3c2.1,0,3.9,1.7,3.9,3.9v8.6h-7.7v-8.6C55.8,286,57.5,284.3,59.7,284.3 M59.7,282.3L59.7,282.3
				c-3.2,0-5.9,2.6-5.9,5.9v10.6h11.7v-10.6C65.5,284.9,62.9,282.3,59.7,282.3L59.7,282.3L59.7,282.3z"/>
		</g>
		<g>
			<path class="st4" d="M90.3,263.8v-9.6c0-2.7,2.2-4.9,4.9-4.9s4.9,2.2,4.9,4.9v9.6H90.3L90.3,263.8z"/>
			<path class="st3" d="M95.2,250.3c2.1,0,3.9,1.7,3.9,3.9v8.6h-7.7v-8.6C91.3,252.1,93,250.3,95.2,250.3 M95.2,248.3L95.2,248.3
				c-3.2,0-5.9,2.6-5.9,5.9v10.6H101v-10.6C101,251,98.4,248.3,95.2,248.3L95.2,248.3L95.2,248.3z"/>
		</g>
		<g>
			<path class="st4" d="M184.6,300v-9.6c0-2.7,2.2-4.9,4.9-4.9s4.9,2.2,4.9,4.9v9.6H184.6z"/>
			<path class="st3" d="M189.5,286.6c2.1,0,3.9,1.7,3.9,3.9v8.6h-7.7v-8.6C185.6,288.3,187.3,286.6,189.5,286.6 M189.5,284.6
				c-3.2,0-5.9,2.6-5.9,5.9V301h11.7v-10.6C195.3,287.2,192.7,284.6,189.5,284.6L189.5,284.6z"/>
		</g>
		<g>
			<path class="st4" d="M210,300v-9.6c0-2.7,2.2-4.9,4.9-4.9s4.9,2.2,4.9,4.9v9.6H210z"/>
			<path class="st3" d="M214.8,286.6c2.1,0,3.9,1.7,3.9,3.9v8.6H211v-8.6C211,288.3,212.7,286.6,214.8,286.6 M214.8,284.6
				c-3.2,0-5.9,2.6-5.9,5.9V301h11.7v-10.6C220.7,287.2,218.1,284.6,214.8,284.6L214.8,284.6z"/>
		</g>
		<g>
			<path class="st4" d="M226.1,300v-9.6c0-2.7,2.2-4.9,4.9-4.9s4.9,2.2,4.9,4.9v9.6H226.1z"/>
			<path class="st3" d="M231,286.6c2.1,0,3.9,1.7,3.9,3.9v8.6h-7.7v-8.6C227.1,288.3,228.9,286.6,231,286.6 M231,284.6L231,284.6
				c-3.2,0-5.9,2.6-5.9,5.9V301h11.7v-10.6C236.9,287.2,234.2,284.6,231,284.6L231,284.6z"/>
		</g>
		<g>
			<path class="st4" d="M36,297.7v-9.6c0-2.7,2.2-4.9,4.9-4.9s4.9,2.2,4.9,4.9v9.6H36L36,297.7z"/>
			<path class="st3" d="M40.9,284.3c2.1,0,3.9,1.7,3.9,3.9v8.6H37v-8.6C37,286,38.8,284.3,40.9,284.3 M40.9,282.3L40.9,282.3
				c-3.2,0-5.9,2.6-5.9,5.9v10.6h11.7v-10.6C46.8,284.9,44.1,282.3,40.9,282.3L40.9,282.3L40.9,282.3z"/>
		</g>
		<g>
			<path class="st4" d="M20.6,297.7v-9.6c0-2.7,2.2-4.9,4.9-4.9s4.9,2.2,4.9,4.9v9.6H20.6L20.6,297.7z"/>
			<path class="st3" d="M25.5,284.3c2.1,0,3.9,1.7,3.9,3.9v8.6h-7.7v-8.6C21.6,286,23.4,284.3,25.5,284.3 M25.5,282.3L25.5,282.3
				c-3.2,0-5.9,2.6-5.9,5.9v10.6h11.7v-10.6C31.4,284.9,28.7,282.3,25.5,282.3L25.5,282.3L25.5,282.3z"/>
		</g>
		<g>
			<path class="st4" d="M299.2,440v-47.7c0-2.3,1.9-4.2,4.1-4.2s4.1,1.9,4.1,4.2V440H299.2z"/>
			<path class="st3" d="M303.4,389.1c1.7,0,3.1,1.4,3.1,3.2V439h-6.3v-46.7C300.2,390.5,301.7,389.1,303.4,389.1 M303.4,387.1
				c-2.9,0-5.1,2.3-5.1,5.2V441h10.3v-48.7C308.5,389.4,306.2,387.1,303.4,387.1L303.4,387.1z"/>
		</g>
		<g>
			<path class="st4" d="M319.5,440v-47.7c0-2.3,1.9-4.2,4.1-4.2s4.1,1.9,4.1,4.2V440H319.5z"/>
			<path class="st3" d="M323.6,389.1c1.7,0,3.1,1.4,3.1,3.2V439h-6.3v-46.7C320.5,390.5,321.9,389.1,323.6,389.1 M323.6,387.1
				c-2.9,0-5.1,2.3-5.1,5.2V441h10.3v-48.7C328.8,389.4,326.5,387.1,323.6,387.1L323.6,387.1z"/>
		</g>
		<g>
			<path class="st4" d="M168.8,214.5v-8.7c0-2.3,1.9-4.2,4.1-4.2s4.1,1.9,4.1,4.2v8.7H168.8z"/>
			<path class="st3" d="M173,202.6c1.7,0,3.1,1.4,3.1,3.2v7.7h-6.3v-7.7C169.8,204,171.2,202.6,173,202.6 M173,200.6
				c-2.9,0-5.1,2.3-5.1,5.2v9.7h10.3v-9.7C178.1,202.9,175.8,200.6,173,200.6L173,200.6z"/>
		</g>
		<g>
			<path class="st4" d="M107.8,321.6c0-2.3,1.9-4.2,4.1-4.2s4.1,1.9,4.1,4.2v23.9l-8.3,5.2V321.6L107.8,321.6z"/>
			<path class="st3" d="M111.9,318.4c1.7,0,3.1,1.4,3.1,3.2v23.3l-6.3,3.9v-27.2C108.8,319.9,110.2,318.4,111.9,318.4 M111.9,316.4
				L111.9,316.4c-2.9,0-5.1,2.3-5.1,5.2v30.8l10.3-6.4v-24.5C117.1,318.7,114.8,316.4,111.9,316.4L111.9,316.4L111.9,316.4z"/>
		</g>
		<g>
			<path class="st4" d="M121.5,214.5v-8.7c0-2.3,1.9-4.2,4.1-4.2s4.1,1.9,4.1,4.2v8.7H121.5z"/>
			<path class="st3" d="M125.6,202.6c1.7,0,3.1,1.4,3.1,3.2v7.7h-6.3v-7.7C122.5,204,123.9,202.6,125.6,202.6 M125.6,200.6
				L125.6,200.6c-2.9,0-5.1,2.3-5.1,5.2v9.7h10.3v-9.7C130.8,202.9,128.5,200.6,125.6,200.6L125.6,200.6z"/>
		</g>
		<g>
			<path class="st4" d="M338.5,440v-47.7c0-2.3,1.9-4.2,4.1-4.2s4.1,1.9,4.1,4.2V440H338.5z"/>
			<path class="st3" d="M342.7,389.1c1.7,0,3.1,1.4,3.1,3.2V439h-6.3v-46.7C339.5,390.5,340.9,389.1,342.7,389.1 M342.7,387.1
				c-2.9,0-5.1,2.3-5.1,5.2V441h10.3v-48.7C347.8,389.4,345.5,387.1,342.7,387.1L342.7,387.1z"/>
		</g>
		<g>
			<path class="st4" d="M280.5,440v-47.7c0-2.3,1.9-4.2,4.1-4.2s4.1,1.9,4.1,4.2V440H280.5z"/>
			<path class="st3" d="M284.6,389.1c1.7,0,3.1,1.4,3.1,3.2V439h-6.3v-46.7C281.5,390.5,282.9,389.1,284.6,389.1 M284.6,387.1
				c-2.9,0-5.1,2.3-5.1,5.2V441h10.3v-48.7C289.8,389.4,287.5,387.1,284.6,387.1L284.6,387.1z"/>
		</g>
		<g>
			<path class="st4" d="M261.2,440v-47.7c0-2.3,1.9-4.2,4.1-4.2s4.1,1.9,4.1,4.2V440H261.2z"/>
			<path class="st3" d="M265.3,389.1c1.7,0,3.1,1.4,3.1,3.2V439h-6.3v-46.7C262.2,390.5,263.6,389.1,265.3,389.1 M265.3,387.1
				L265.3,387.1c-2.9,0-5.1,2.3-5.1,5.2V441h10.3v-48.7C270.5,389.4,268.1,387.1,265.3,387.1L265.3,387.1z"/>
		</g>
		<g>
			<path class="st4" d="M242.8,440v-47.7c0-2.3,1.9-4.2,4.1-4.2s4.1,1.9,4.1,4.2V440H242.8z"/>
			<path class="st3" d="M247,389.1c1.7,0,3.1,1.4,3.1,3.2V439h-6.3v-46.7C243.8,390.5,245.2,389.1,247,389.1 M247,387.1
				c-2.9,0-5.1,2.3-5.1,5.2V441h10.3v-48.7C252.1,389.4,249.8,387.1,247,387.1L247,387.1z"/>
		</g>
		<g>
			<path class="st4" d="M221.7,440v-47.7c0-2.3,1.9-4.2,4.1-4.2s4.1,1.9,4.1,4.2V440H221.7z"/>
			<path class="st3" d="M225.9,389.1c1.7,0,3.1,1.4,3.1,3.2V439h-6.3v-46.7C222.7,390.5,224.1,389.1,225.9,389.1 M225.9,387.1
				c-2.9,0-5.1,2.3-5.1,5.2V441H231v-48.7C231,389.4,228.7,387.1,225.9,387.1L225.9,387.1z"/>
		</g>
		<g>
			<path class="st4" d="M333.4,350v-23.2c0-2.3,1.9-4.2,4.1-4.2h7c2.3,0,4.1,1.9,4.1,4.2V350H333.4L333.4,350z"/>
			<path class="st3" d="M344.6,323.7c1.7,0,3.1,1.4,3.1,3.2V349h-13.4v-22.2c0-1.7,1.4-3.2,3.1-3.2H344.6 M344.6,321.7h-7
				c-2.9,0-5.1,2.3-5.1,5.2V351h17.4v-24.2C349.8,324,347.5,321.7,344.6,321.7L344.6,321.7L344.6,321.7z"/>
		</g>
		<g>
			<path class="st4" d="M128.4,246.4c-1.8,0-3.2-1.4-3.2-3.2s1.4-3.2,3.2-3.2c1.8,0,3.2,1.4,3.2,3.2S130.1,246.4,128.4,246.4z"/>
			<path class="st3" d="M128.4,241c1.2,0,2.2,1,2.2,2.2s-1,2.2-2.2,2.2c-1.2,0-2.2-1-2.2-2.2S127.1,241,128.4,241 M128.4,239
				c-2.3,0-4.2,1.9-4.2,4.2s1.9,4.2,4.2,4.2c2.3,0,4.2-1.9,4.2-4.2S130.7,239,128.4,239L128.4,239z"/>
		</g>
		<g>
			<path class="st4" d="M142.6,246.4c-1.8,0-3.2-1.4-3.2-3.2s1.4-3.2,3.2-3.2s3.2,1.4,3.2,3.2S144.4,246.4,142.6,246.4z"/>
			<path class="st3" d="M142.6,241c1.2,0,2.2,1,2.2,2.2s-1,2.2-2.2,2.2s-2.2-1-2.2-2.2S141.4,241,142.6,241 M142.6,239
				c-2.3,0-4.2,1.9-4.2,4.2s1.9,4.2,4.2,4.2s4.2-1.9,4.2-4.2S145,239,142.6,239L142.6,239z"/>
		</g>
		<g>
			<path class="st4" d="M160.4,246.4c-1.8,0-3.2-1.4-3.2-3.2s1.4-3.2,3.2-3.2s3.2,1.4,3.2,3.2S162.2,246.4,160.4,246.4z"/>
			<path class="st3" d="M160.4,241c1.2,0,2.2,1,2.2,2.2s-1,2.2-2.2,2.2s-2.2-1-2.2-2.2S159.2,241,160.4,241 M160.4,239
				c-2.3,0-4.2,1.9-4.2,4.2s1.9,4.2,4.2,4.2s4.2-1.9,4.2-4.2S162.8,239,160.4,239L160.4,239z"/>
		</g>
		<g>
			<path class="st4" d="M173.4,246.4c-1.8,0-3.2-1.4-3.2-3.2s1.4-3.2,3.2-3.2s3.2,1.4,3.2,3.2S175.1,246.4,173.4,246.4z"/>
			<path class="st3" d="M173.4,241c1.2,0,2.2,1,2.2,2.2s-1,2.2-2.2,2.2s-2.2-1-2.2-2.2S172.1,241,173.4,241 M173.4,239
				c-2.3,0-4.2,1.9-4.2,4.2s1.9,4.2,4.2,4.2s4.2-1.9,4.2-4.2S175.7,239,173.4,239L173.4,239z"/>
		</g>
		<g>
			<path class="st4" d="M263.6,216.9c-1.8,0-3.2-1.4-3.2-3.2s1.4-3.2,3.2-3.2s3.2,1.4,3.2,3.2S265.4,216.9,263.6,216.9z"/>
			<path class="st3" d="M263.6,211.5c1.2,0,2.2,1,2.2,2.2s-1,2.2-2.2,2.2s-2.2-1-2.2-2.2S262.4,211.5,263.6,211.5 M263.6,209.5
				c-2.3,0-4.2,1.9-4.2,4.2s1.9,4.2,4.2,4.2s4.2-1.9,4.2-4.2S265.9,209.5,263.6,209.5L263.6,209.5z"/>
		</g>
		<g>
			<path class="st4" d="M229.3,197.5c-1.8,0-3.2-1.4-3.2-3.2s1.4-3.2,3.2-3.2s3.2,1.4,3.2,3.2S231.1,197.5,229.3,197.5z"/>
			<path class="st3" d="M229.3,192.1c1.2,0,2.2,1,2.2,2.2s-1,2.2-2.2,2.2s-2.2-1-2.2-2.2S228.1,192.1,229.3,192.1 M229.3,190.1
				c-2.3,0-4.2,1.9-4.2,4.2s1.9,4.2,4.2,4.2s4.2-1.9,4.2-4.2S231.7,190.1,229.3,190.1L229.3,190.1z"/>
		</g>
		<g>
			<path class="st4" d="M80.2,358.4c-1.8,0-3.2-1.4-3.2-3.2s1.4-3.2,3.2-3.2s3.2,1.4,3.2,3.2S82,358.4,80.2,358.4z"/>
			<path class="st3" d="M80.2,353c1.2,0,2.2,1,2.2,2.2s-1,2.2-2.2,2.2s-2.2-1-2.2-2.2S79,353,80.2,353 M80.2,351
				c-2.3,0-4.2,1.9-4.2,4.2s1.9,4.2,4.2,4.2s4.2-1.9,4.2-4.2S82.6,351,80.2,351L80.2,351z"/>
		</g>
		<g>
			<path class="st4" d="M111.9,304.2c-1.8,0-3.2-1.4-3.2-3.2s1.4-3.2,3.2-3.2s3.2,1.4,3.2,3.2S113.7,304.2,111.9,304.2z"/>
			<path class="st3" d="M111.9,298.8c1.2,0,2.2,1,2.2,2.2s-1,2.2-2.2,2.2s-2.2-1-2.2-2.2S110.7,298.8,111.9,298.8 M111.9,296.8
				c-2.3,0-4.2,1.9-4.2,4.2s1.9,4.2,4.2,4.2s4.2-1.9,4.2-4.2S114.2,296.8,111.9,296.8L111.9,296.8z"/>
		</g>
		<g>
			<path class="st4" d="M225.1,363.9c-1.8,0-3.2-1.4-3.2-3.2s1.4-3.2,3.2-3.2s3.2,1.4,3.2,3.2S226.9,363.9,225.1,363.9z"/>
			<path class="st3" d="M225.1,358.5c1.2,0,2.2,1,2.2,2.2s-1,2.2-2.2,2.2s-2.2-1-2.2-2.2S223.9,358.5,225.1,358.5 M225.1,356.5
				c-2.3,0-4.2,1.9-4.2,4.2s1.9,4.2,4.2,4.2s4.2-1.9,4.2-4.2S227.5,356.5,225.1,356.5L225.1,356.5z"/>
		</g>
		<g>
			<path class="st4" d="M258,363.9c-1.8,0-3.2-1.4-3.2-3.2s1.4-3.2,3.2-3.2s3.2,1.4,3.2,3.2S259.8,363.9,258,363.9z"/>
			<path class="st3" d="M258,358.5c1.2,0,2.2,1,2.2,2.2s-1,2.2-2.2,2.2s-2.2-1-2.2-2.2S256.8,358.5,258,358.5 M258,356.5
				c-2.3,0-4.2,1.9-4.2,4.2s1.9,4.2,4.2,4.2c2.3,0,4.2-1.9,4.2-4.2S260.4,356.5,258,356.5L258,356.5z"/>
		</g>
		<g>
			<path class="st4" d="M290.1,363.9c-1.8,0-3.2-1.4-3.2-3.2s1.4-3.2,3.2-3.2s3.2,1.4,3.2,3.2S291.9,363.9,290.1,363.9z"/>
			<path class="st3" d="M290.1,358.5c1.2,0,2.2,1,2.2,2.2s-1,2.2-2.2,2.2s-2.2-1-2.2-2.2S288.9,358.5,290.1,358.5 M290.1,356.5
				c-2.3,0-4.2,1.9-4.2,4.2s1.9,4.2,4.2,4.2s4.2-1.9,4.2-4.2S292.5,356.5,290.1,356.5L290.1,356.5z"/>
		</g>
		<g>
			<path class="st4" d="M308.9,363.9c-1.8,0-3.2-1.4-3.2-3.2s1.4-3.2,3.2-3.2s3.2,1.4,3.2,3.2S310.7,363.9,308.9,363.9z"/>
			<path class="st3" d="M308.9,358.5c1.2,0,2.2,1,2.2,2.2s-1,2.2-2.2,2.2s-2.2-1-2.2-2.2S307.7,358.5,308.9,358.5 M308.9,356.5
				c-2.3,0-4.2,1.9-4.2,4.2s1.9,4.2,4.2,4.2s4.2-1.9,4.2-4.2S311.2,356.5,308.9,356.5L308.9,356.5z"/>
		</g>
		<g>
			<path class="st4" d="M329.8,363.9c-1.8,0-3.2-1.4-3.2-3.2s1.4-3.2,3.2-3.2s3.2,1.4,3.2,3.2S331.6,363.9,329.8,363.9z"/>
			<path class="st3" d="M329.8,358.5c1.2,0,2.2,1,2.2,2.2s-1,2.2-2.2,2.2s-2.2-1-2.2-2.2S328.6,358.5,329.8,358.5 M329.8,356.5
				c-2.3,0-4.2,1.9-4.2,4.2s1.9,4.2,4.2,4.2s4.2-1.9,4.2-4.2S332.2,356.5,329.8,356.5L329.8,356.5z"/>
		</g>
		<g>
			<path class="st4" d="M341.1,363.9c-1.8,0-3.2-1.4-3.2-3.2s1.4-3.2,3.2-3.2s3.2,1.4,3.2,3.2S342.9,363.9,341.1,363.9z"/>
			<path class="st3" d="M341.1,358.5c1.2,0,2.2,1,2.2,2.2s-1,2.2-2.2,2.2s-2.2-1-2.2-2.2S339.9,358.5,341.1,358.5 M341.1,356.5
				c-2.3,0-4.2,1.9-4.2,4.2s1.9,4.2,4.2,4.2s4.2-1.9,4.2-4.2S343.4,356.5,341.1,356.5L341.1,356.5z"/>
		</g>
	</g>
	<polygon class="st0" points="30.2,226.2 95.2,227.2 75.5,273.6 9.1,273.6 	"/>
	<path class="st0" d="M97.6,269.8c0.4-0.4,12.8,0,12.8,0l-5.4,37.5H89.3L97.6,269.8z"/>
	<g>
		<path class="st5" d="M25.5,445.2c0.3-1.7,3-12.9,7.2-14.5s8.1-38.6,8.1-38.6L55.8,377c0,0,33.9,13.8,35.5,14.1s18.4-3.4,20.7-3.9
			s16.9-8.9,16.9-8.9l7.3-6.5l13.8,3.1l11.2-6.5l19,1l19.4-18.4"/>
		<polyline class="st5" points="170.5,445.2 164.3,439.6 148,429.7 149.9,407.2 149.9,374.9 		"/>
		<line class="st5" x1="128.8" y1="378.3" x2="149.7" y2="410"/>
		<polyline class="st5" points="180.2,369.4 194.3,374.9 199.6,378.3 		"/>
		<polyline class="st5" points="55.8,377 27.4,374.9 14.9,366.1 		"/>
	</g>
</g>
</svg>
