<?xml version="1.0" encoding="utf-8"?>
<!-- Generator: Adobe Illustrator 26.5.0, SVG Export Plug-In . SVG Version: 6.00 Build 0)  -->
<svg version="1.1" id="Eglise" xmlns="http://www.w3.org/2000/svg" xmlns:xlink="http://www.w3.org/1999/xlink" x="0px" y="0px"
	 viewBox="0 0 283.3 433.7" style="enable-background:new 0 0 283.3 433.7;" xml:space="preserve">
<style type="text/css">
	.st0{fill:#FCBE1B;}
	.st1{fill:#E6629F;}
	.st2{fill:none;}
	.st3{fill-rule:evenodd;clip-rule:evenodd;fill:#261923;}
	.st4{fill:#E8629F;}
	.st5{fill:#261923;}
	.st6{fill:none;stroke:#E8629F;stroke-width:2.14;stroke-miterlimit:10;}
</style>
<g>
	<polygon class="st0" points="283.3,285 283.3,433.7 141.7,433.7 141.7,171.8 	"/>
	<polygon class="st0" points="0,285 0,433.7 141.7,433.7 141.7,171.8 	"/>
	<g>
		<rect x="85.6" y="132.1" class="st0" width="112.2" height="300.1"/>
		<path class="st1" d="M196.3,133.6v297.1H87.1V133.6H196.3 M199.3,130.6H84.1v303.1h115.2V130.6L199.3,130.6z"/>
	</g>
	<line class="st2" x1="84.1" y1="217.8" x2="0" y2="285"/>
	<g>
		<path class="st3" d="M101.2,414.7V346c0-22.3,18.1-40.4,40.4-40.4s40.4,18.1,40.4,40.4v68.7H101.2z"/>
		<path class="st4" d="M141.7,307.1c21.5,0,38.9,17.5,38.9,38.9v67.2h-77.9V346C102.7,324.6,120.2,307.1,141.7,307.1 M141.7,304.1
			L141.7,304.1c-23.2,0-41.9,18.8-41.9,41.9v70.2h83.9V346C183.6,322.9,164.8,304.1,141.7,304.1L141.7,304.1z"/>
	</g>
	<g>
		<path class="st3" d="M19.8,394.4v-51.3c0-12.8,10.8-38,23.8-38s23.8,25.2,23.8,38v51.3L19.8,394.4L19.8,394.4z"/>
		<path class="st4" d="M43.6,306.2c5.3,0,11,4.8,15.7,13.3c4.2,7.5,7,17,7,23.6v50.2H20.9v-50.2c0-6.6,2.8-16.1,7-23.6
			C32.6,311.1,38.3,306.2,43.6,306.2 M43.6,304.1L43.6,304.1c-13.7,0-24.9,25.3-24.9,39.1v52.3h49.7v-52.3
			C68.5,329.4,57.3,304.1,43.6,304.1L43.6,304.1z"/>
	</g>
	<g>
		<path class="st3" d="M214.8,394.4v-51.3c0-12.8,10.8-38,23.8-38s23.8,25.2,23.8,38v51.3L214.8,394.4L214.8,394.4z"/>
		<path class="st4" d="M238.5,306.2c5.3,0,11,4.8,15.7,13.3c4.2,7.5,7,17,7,23.6v50.2h-45.4v-50.2c0-6.6,2.8-16.1,7-23.6
			C227.6,311.1,233.3,306.2,238.5,306.2 M238.6,304.1L238.6,304.1c-13.7,0-24.9,25.3-24.9,39.1v52.3h49.7v-52.3
			C263.4,329.4,252.3,304.1,238.6,304.1L238.6,304.1L238.6,304.1z"/>
	</g>
	<g>
		<rect x="99.6" y="146.2" class="st5" width="82.9" height="125.4"/>
		<path class="st4" d="M181.5,147.3v123.3h-80.8V147.3L181.5,147.3 M183.6,145.2H98.5v127.6h85.1V145.2L183.6,145.2L183.6,145.2z"/>
	</g>
	<polygon class="st4" points="141.1,63.8 75.1,130.6 207.1,130.6 	"/>
	<rect x="118.3" y="17.7" class="st0" width="45.5" height="10.1"/>
	<rect x="136" class="st0" width="10.1" height="69.2"/>
	<path class="st4" d="M141.1,416.2c0,0-0.4,17.4,0,17.4H218l-20.7-17.4H141.1z"/>
	<path class="st4" d="M140.8,416.2c0,0,0.4,17.4,0,17.4s-76.9,0-76.9,0l20.7-17.4H140.8z"/>
	<polygon class="st4" points="283.3,285 283.3,243.8 199.3,217.8 	"/>
	<polygon class="st4" points="0,285 0,243.8 84.1,217.8 	"/>
	<line class="st6" x1="141.1" y1="146.7" x2="141.1" y2="272.7"/>
	<line class="st6" x1="162.2" y1="146.7" x2="162.2" y2="272.7"/>
	<line class="st6" x1="119.9" y1="146.7" x2="119.9" y2="272.7"/>
	<line class="st6" x1="98.5" y1="167.6" x2="183.6" y2="167.6"/>
	<line class="st6" x1="98.5" y1="188.5" x2="183.6" y2="188.5"/>
	<line class="st6" x1="98.5" y1="209.3" x2="183.6" y2="209.3"/>
	<line class="st6" x1="98.5" y1="230.2" x2="183.6" y2="230.2"/>
	<line class="st6" x1="98.5" y1="251.1" x2="183.6" y2="251.1"/>
	<g>
		<line class="st6" x1="263.4" y1="343.2" x2="213.7" y2="343.2"/>
		<line class="st6" x1="263.4" y1="369.3" x2="213.7" y2="369.3"/>
		<line class="st6" x1="238.5" y1="304.1" x2="238.5" y2="395.5"/>
	</g>
	<g>
		<line class="st6" x1="68.4" y1="343.2" x2="18.7" y2="343.2"/>
		<line class="st6" x1="68.4" y1="369.3" x2="18.7" y2="369.3"/>
		<line class="st6" x1="43.6" y1="304.1" x2="43.6" y2="395.5"/>
	</g>
	<line class="st6" x1="141.7" y1="304.1" x2="141.7" y2="416.2"/>
</g>
</svg>
