<?xml version="1.0" encoding="utf-8"?>
<!-- Generator: Adobe Illustrator 26.5.0, SVG Export Plug-In . SVG Version: 6.00 Build 0)  -->
<svg version="1.1" id="Cirque" xmlns="http://www.w3.org/2000/svg" xmlns:xlink="http://www.w3.org/1999/xlink" x="0px" y="0px"
	 viewBox="0 0 629 274.7" style="enable-background:new 0 0 629 274.7;" xml:space="preserve">
<style type="text/css">
	.st0{fill:none;stroke:#E8629F;stroke-width:2;stroke-miterlimit:10;}
	.st1{fill:none;stroke:#E8629F;stroke-width:5;stroke-linejoin:round;}
	.st2{fill:none;stroke:#E8629F;stroke-width:5;stroke-linejoin:round;stroke-dasharray:0,0,5.13,10.27;}
	.st3{fill:none;stroke:#E8629F;stroke-width:5;stroke-linejoin:round;stroke-dasharray:0,0,4.96,9.93;}
	.st4{fill:none;stroke:#FCBE1C;stroke-width:5;stroke-linejoin:round;}
	.st5{fill:none;stroke:#FCBE1C;stroke-width:5;stroke-linejoin:round;stroke-dasharray:0,0,5.09,10.19;}
	.st6{fill:none;stroke:#FCBE1C;stroke-width:5;stroke-linejoin:round;stroke-dasharray:0,0,5,10;}
	.st7{fill:#E8629F;}
	.st8{fill:#FCBE1B;}
	.st9{fill:#261923;}
	.st10{fill:#FCBE1C;}
	.st11{fill:#E6629F;}
</style>
<g>
	<g>
		<polyline class="st0" points="0.7,267.6 192.5,58.9 263.7,86 		"/>
		<g>
			<line class="st1" x1="6.6" y1="267.6" x2="8.3" y2="265.7"/>
			<line class="st2" x1="15.3" y1="258.2" x2="188.9" y2="69.2"/>
			<polyline class="st1" points="192.4,65.4 194.1,63.6 196.4,64.5 			"/>
			<line class="st3" x1="205.7" y1="68" x2="256.7" y2="87.5"/>
			<line class="st1" x1="261.3" y1="89.2" x2="263.7" y2="90.1"/>
		</g>
		<g>
			<line class="st4" x1="2.9" y1="273" x2="4.6" y2="271.2"/>
			<line class="st5" x1="11.5" y1="263.7" x2="183.4" y2="75.8"/>
			<line class="st4" x1="186.9" y1="72" x2="188.6" y2="70.2"/>
		</g>
		<line class="st6" x1="199.9" y1="65.8" x2="259.9" y2="88.7"/>
	</g>
	<g>
		<polyline class="st0" points="628.3,267.6 436.5,58.9 365.3,86 		"/>
		<g>
			<line class="st1" x1="622.3" y1="267.6" x2="620.6" y2="265.7"/>
			<line class="st2" x1="613.7" y1="258.2" x2="440.1" y2="69.2"/>
			<polyline class="st1" points="436.6,65.4 434.9,63.6 432.6,64.5 			"/>
			<line class="st3" x1="423.3" y1="68" x2="372.3" y2="87.5"/>
			<line class="st1" x1="367.7" y1="89.2" x2="365.3" y2="90.1"/>
		</g>
		<g>
			<line class="st4" x1="626.1" y1="273" x2="624.4" y2="271.2"/>
			<line class="st5" x1="617.5" y1="263.7" x2="445.6" y2="75.8"/>
			<line class="st4" x1="442.1" y1="72" x2="440.4" y2="70.2"/>
		</g>
		<line class="st6" x1="429.1" y1="65.8" x2="369.1" y2="88.7"/>
	</g>
	<path class="st7" d="M490.6,134c-20.4-20-40.5-40.6-54.3-75.1c-10.1,20.7-20.3,41.4-31.8,51.7c0,0-45.9-25.6-52.2-36V61l-37.9-34.4
		L276.5,61v13.6c-6.3,10.4-52.2,36-52.2,36c-11.5-10.3-21.7-31-31.8-51.6c-13.8,34.5-33.9,55.1-54.3,75.1
		c1.1,49-50.8,132.7-51.6,133.6h227.9h227.9C541.4,266.7,489.6,183,490.6,134L490.6,134z"/>
	<path class="st7" d="M314.4,26.5V2.4c0,0,4.9-8.6,23.1,6.9s23.3,7.6,23.3,7.6s-1.8,8.6-17.5,6.9C327.7,22,324.2,17.6,314.4,26.5z"
		/>
	<path class="st7" d="M192.5,58.9V34.7c0,0,4.9-8.6,23.1,6.9s23.3,7.6,23.3,7.6s-1.8,8.6-17.5,6.9S202.3,49.9,192.5,58.9z"/>
	<path class="st7" d="M436.3,58.9V34.7c0,0,4.9-8.6,23.1,6.9c18.2,15.5,23.3,7.6,23.3,7.6s-1.8,8.6-17.5,6.9
		C449.6,54.3,446.1,49.9,436.3,58.9z"/>
	<g>
		<polygon class="st8" points="314.4,31 294.8,60 308.9,60 		"/>
		<path class="st8" d="M290.5,79.6h-7c0,0-29.6,35-70.3,53.2h29.4C242.6,132.8,280.5,100.1,290.5,79.6L290.5,79.6z"/>
		<path class="st8" d="M299.3,79.6h10.6c0,0,0,18-10.6,54c-0.3,1.1-30.1,0-30.1,0S292.4,105.2,299.3,79.6z"/>
		<path class="st8" d="M193.1,70.2c0,0,4.9,16,18.4,47l-11,6.3C200.5,123.4,191.9,84.1,193.1,70.2L193.1,70.2z"/>
		<path class="st8" d="M189.6,71.5c0,0-0.5,57.6-15,62.5c0,0-12.3,92.4-34.4,128.4h-20.1c0,0,33.8-65.3,39.3-129.7
			c0,0,23.2-26.2,30.2-62.6"/>
		<path class="st8" d="M182.1,262.5c0,0,24.2-70.9,24.9-112.7c0,0,14.3,14.3,29,1.8c0,0-3.9,77.7-17.2,110.9L182.1,262.5
			L182.1,262.5z"/>
		<path class="st8" d="M267,149.8c0,0-3.1,49.1-7,89.2c0,0,15.6-5.9,14.9-6.3s16.4-31.3,23.5-42.8v-40.1
			C298.3,149.8,284.8,165.8,267,149.8L267,149.8z"/>
		<path class="st8" d="M308.1,182.9c0,0-8,54.8-40.7,80.8l-9-17.4c0,0,18.6-5.9,22.1-11.2L269.9,220
			C269.9,220,301.8,200.9,308.1,182.9L308.1,182.9z"/>
		<path class="st8" d="M208.7,137.3c0,8.1-6.8,14.7-15.1,14.7s-15.1-6.6-15.1-14.7"/>
		<path class="st8" d="M238.9,137.3c0,8.1-6.8,14.7-15.1,14.7s-15.1-6.6-15.1-14.7"/>
		<path class="st8" d="M269.1,137.3c0,8.1-6.8,14.7-15.1,14.7c-8.3,0-15.1-6.6-15.1-14.7"/>
		<path class="st8" d="M299.2,137.3c0,8.1-6.8,14.7-15.1,14.7s-15.1-6.6-15.1-14.7"/>
		<path class="st9" d="M314.4,175.2c-3.1,18.5-17.3,63.6-44.5,92.3h44.5h44.5C331.7,238.8,317.5,193.7,314.4,175.2z"/>
		<polygon class="st8" points="314.4,31 334,60 319.9,60 		"/>
		<path class="st8" d="M338.3,79.6h7c0,0,29.6,35,70.3,53.2h-29.4C386.3,132.8,348.3,100.1,338.3,79.6L338.3,79.6z"/>
		<path class="st8" d="M329.5,79.6H319c0,0,0,18,10.6,54c0.3,1.1,30.1,0,30.1,0S336.4,105.2,329.5,79.6z"/>
		<path class="st8" d="M435.8,70.2c0,0-4.9,16-18.4,47l11,6.3C428.3,123.4,436.9,84.1,435.8,70.2L435.8,70.2z"/>
		<path class="st8" d="M439.2,71.5c0,0,0.5,57.6,15,62.5c0,0,12.3,92.4,34.4,128.4h20.2c0,0-33.9-65.3-39.3-129.7
			c0,0-23.2-26.2-30.2-62.6"/>
		<path class="st8" d="M446.7,262.5c0,0-24.2-70.9-24.9-112.7c0,0-14.3,14.3-29,1.8c0,0,3.9,77.7,17.2,110.9L446.7,262.5
			L446.7,262.5z"/>
		<path class="st8" d="M361.8,149.8c0,0,3.1,49.1,7,89.2c0,0-15.6-5.9-14.9-6.3s-16.4-31.3-23.5-42.8v-40.1
			C330.5,149.8,344,165.8,361.8,149.8L361.8,149.8z"/>
		<path class="st8" d="M320.7,182.9c0,0,8,54.8,40.7,80.8l9-17.4c0,0-18.6-5.9-22.1-11.2l10.6-15.1C358.9,220,327,200.9,320.7,182.9
			L320.7,182.9z"/>
		<path class="st8" d="M420.1,137.3c0,8.1,6.8,14.7,15.1,14.7s15.1-6.6,15.1-14.7"/>
		<path class="st8" d="M389.9,137.3c0,8.1,6.8,14.7,15.1,14.7s15.1-6.6,15.1-14.7"/>
		<path class="st8" d="M359.8,137.3c0,8.1,6.8,14.7,15.1,14.7s15.1-6.6,15.1-14.7"/>
		<path class="st8" d="M329.6,137.3c0,8.1,6.8,14.7,15.1,14.7s15.1-6.6,15.1-14.7"/>
		<path class="st8" d="M314.4,137.3h-15.1c0,8.1,6.8,14.7,15.1,14.7s15.1-6.6,15.1-14.7H314.4z"/>
		<polygon class="st8" points="314.4,63.6 280.5,63.6 280.5,75.1 314.4,75.1 348.3,75.1 348.3,63.6 		"/>
	</g>
	<g>
		<path class="st10" d="M270.9,266.6v-98.7c0-24,19.5-43.5,43.5-43.5s43.5,19.5,43.5,43.5v98.7H270.9L270.9,266.6z"/>
		<path class="st11" d="M314.4,125.4c23.4,0,42.5,19,42.5,42.5v97.7h-84.9v-97.7C271.9,144.4,291,125.4,314.4,125.4 M314.4,123.4
			L314.4,123.4c-24.6,0-44.5,19.9-44.5,44.5v99.7h88.9v-99.7C358.9,143.3,339,123.4,314.4,123.4L314.4,123.4L314.4,123.4z"/>
	</g>
	<path class="st9" d="M314.4,184.8c-2.7,16.6-15,57-38.5,82.8h38.5h38.5C329.4,241.8,317.1,201.4,314.4,184.8z"/>
	<path class="st0" d="M314.5,130.1L314.5,130.1c21.2,0,38.4,17.2,38.4,38.4v1.2h-76.7v-1.2C276.2,147.3,293.4,130.1,314.5,130.1z"/>
	<path class="st0" d="M275.9,266.5c-0.5-0.8,0-89,0-89h77v90"/>
</g>
</svg>
