<?xml version="1.0" encoding="utf-8"?>
<!-- Generator: Adobe Illustrator 26.5.0, SVG Export Plug-In . SVG Version: 6.00 Build 0)  -->
<svg version="1.1" id="uuid-cefdd1a8-ea4f-4e21-b537-4c6c90c1d11a"
	 xmlns="http://www.w3.org/2000/svg" xmlns:xlink="http://www.w3.org/1999/xlink" x="0px" y="0px" viewBox="0 0 177.2 493.9"
	 style="enable-background:new 0 0 177.2 493.9;" xml:space="preserve">
<style type="text/css">
	.st0{fill:#FCBE1B;}
	.st1{fill:#261923;stroke:#E8629F;stroke-width:2;stroke-miterlimit:10;}
	.st2{fill:#261923;stroke:#E8629F;stroke-width:1.54;stroke-miterlimit:10;}
	.st3{fill:#E8629F;}
	.st4{fill-rule:evenodd;clip-rule:evenodd;fill:#E8629F;}
	.st5{fill-rule:evenodd;clip-rule:evenodd;fill:#261923;stroke:#E8629F;stroke-width:2;stroke-miterlimit:10;}
</style>
<g>
	<rect x="5.5" y="21.2" class="st0" width="166.2" height="471.9"/>
	<path class="st1" d="M40.5,410.1h35.2c10.9,0,19.8,8.9,19.8,19.8v21.7H20.7v-21.7C20.7,419,29.5,410.1,40.5,410.1L40.5,410.1z"/>
	<path class="st2" d="M134.2,410.1L134.2,410.1c12.3,0,22.3,10,22.3,22.3v60.7H112v-60.7C112,420.1,121.9,410.1,134.2,410.1
		L134.2,410.1z"/>
	<rect x="23.5" class="st0" width="48.5" height="21.2"/>
	<g>
		<rect y="364.2" class="st3" width="177.2" height="28.5"/>
		<rect y="255.5" class="st3" width="177.2" height="28.5"/>
		<rect y="146.8" class="st3" width="177.2" height="28.5"/>
		<polygon class="st4" points="0,17.2 0,38.1 0,40.5 0,66.6 177.2,66.6 177.2,40.5 177.2,38.1 177.2,17.2 		"/>
	</g>
	<g>
		<path class="st5" d="M40.3,290.1L40.3,290.1c-9.3,0-16.9,7.5-16.9,16.9v51.1h33.7V307C57.2,297.6,49.7,290.1,40.3,290.1z"/>
		<path class="st5" d="M88.6,290.1L88.6,290.1c-9.3,0-16.9,7.5-16.9,16.9v51.1h33.7V307C105.5,297.6,97.9,290.1,88.6,290.1z"/>
		<path class="st5" d="M136.8,290.1L136.8,290.1c-9.3,0-16.9,7.5-16.9,16.9v51.1h33.7V307C153.7,297.6,146.2,290.1,136.8,290.1z"/>
		<path class="st5" d="M40.3,181.4L40.3,181.4c-9.3,0-16.9,7.5-16.9,16.9v51.1h33.7v-51.1C57.2,188.9,49.7,181.4,40.3,181.4z"/>
		<path class="st5" d="M88.6,181.4L88.6,181.4c-9.3,0-16.9,7.5-16.9,16.9v51.1h33.7v-51.1C105.5,188.9,97.9,181.4,88.6,181.4z"/>
		<path class="st5" d="M136.8,181.4L136.8,181.4c-9.3,0-16.9,7.5-16.9,16.9v51.1h33.7v-51.1C153.7,188.9,146.2,181.4,136.8,181.4z"
			/>
		<path class="st5" d="M40.3,72.7L40.3,72.7c-9.3,0-16.9,7.5-16.9,16.9v51.1h33.7V89.6C57.2,80.2,49.7,72.7,40.3,72.7L40.3,72.7z"/>
		<path class="st5" d="M88.6,72.7L88.6,72.7c-9.3,0-16.9,7.5-16.9,16.9v51.1h33.7V89.6C105.5,80.2,97.9,72.7,88.6,72.7L88.6,72.7z"
			/>
		<path class="st5" d="M136.8,72.7L136.8,72.7c-9.3,0-16.9,7.5-16.9,16.9v51.1h33.7V89.6C153.7,80.2,146.2,72.7,136.8,72.7
			L136.8,72.7z"/>
	</g>
</g>
</svg>
