<?xml version="1.0" encoding="utf-8"?>
<!-- Generator: Adobe Illustrator 26.5.0, SVG Export Plug-In . SVG Version: 6.00 Build 0)  -->
<svg version="1.1" id="uuid-a0f120f8-a5f1-4f0e-bed3-9bbd17a69e4a"
	 xmlns="http://www.w3.org/2000/svg" xmlns:xlink="http://www.w3.org/1999/xlink" x="0px" y="0px" viewBox="0 0 330.6 389.4"
	 style="enable-background:new 0 0 330.6 389.4;" xml:space="preserve">
<style type="text/css">
	.st0{fill:#FCBE1B;}
	.st1{fill:#E8629F;}
	.st2{fill-rule:evenodd;clip-rule:evenodd;fill:#261923;stroke:#E8629F;stroke-width:2;stroke-miterlimit:10;}
	.st3{fill-rule:evenodd;clip-rule:evenodd;fill:#E8629F;}
	.st4{fill:#261923;stroke:#E8629F;stroke-width:2;stroke-miterlimit:10;}
	.st5{fill:#261923;stroke:#E8629F;stroke-width:1.6;stroke-miterlimit:10;}
	.st6{fill:#261923;stroke:#E8629F;stroke-width:1.54;stroke-miterlimit:10;}
</style>
<g>
	<rect x="4.1" y="70.5" class="st0" width="322.4" height="317.8"/>
	<rect y="259.4" class="st1" width="330.5" height="28.5"/>
	<rect y="150.7" class="st1" width="330.5" height="28.5"/>
	<g>
		<path class="st2" d="M44.6,185.4L44.6,185.4c-9.3,0-16.9,7.5-16.9,16.9v51.1h33.7v-51.1C61.4,192.9,53.9,185.4,44.6,185.4
			L44.6,185.4z"/>
		<path class="st2" d="M92.8,185.4L92.8,185.4c-9.3,0-16.9,7.5-16.9,16.9v51.1h33.7v-51.1C109.7,192.9,102.1,185.4,92.8,185.4z"/>
		<path class="st2" d="M141.1,185.4L141.1,185.4c-9.3,0-16.9,7.5-16.9,16.9v51.1h33.7v-51.1C157.9,192.9,150.4,185.4,141.1,185.4z"
			/>
		<path class="st2" d="M189.3,185.4L189.3,185.4c-9.3,0-16.9,7.5-16.9,16.9v51.1h33.7v-51.1C206.2,192.9,198.6,185.4,189.3,185.4z"
			/>
		<path class="st2" d="M237.6,185.4L237.6,185.4c-9.3,0-16.9,7.5-16.9,16.9v51.1h33.7v-51.1C254.4,192.9,246.9,185.4,237.6,185.4z"
			/>
		<path class="st2" d="M285.8,185.4L285.8,185.4c-9.3,0-16.9,7.5-16.9,16.9v51.1h33.7v-51.1C302.7,192.9,295.1,185.4,285.8,185.4z"
			/>
	</g>
	<rect y="42" class="st1" width="330.5" height="28.5"/>
	<g>
		<path class="st2" d="M44.6,76.7L44.6,76.7c-9.3,0-16.9,7.5-16.9,16.9v51.1h33.7V93.5C61.4,84.2,53.9,76.7,44.6,76.7L44.6,76.7z"/>
		<path class="st2" d="M92.8,76.7L92.8,76.7c-9.3,0-16.9,7.5-16.9,16.9v51.1h33.7V93.5C109.7,84.2,102.1,76.7,92.8,76.7z"/>
		<path class="st2" d="M141.1,76.7L141.1,76.7c-9.3,0-16.9,7.5-16.9,16.9v51.1h33.7V93.5C157.9,84.2,150.4,76.7,141.1,76.7z"/>
		<path class="st2" d="M189.3,76.7L189.3,76.7c-9.3,0-16.9,7.5-16.9,16.9v51.1h33.7V93.5C206.2,84.2,198.6,76.7,189.3,76.7z"/>
		<path class="st2" d="M237.6,76.7L237.6,76.7c-9.3,0-16.9,7.5-16.9,16.9v51.1h33.7V93.5C254.4,84.2,246.9,76.7,237.6,76.7z"/>
		<path class="st2" d="M285.8,76.7L285.8,76.7c-9.3,0-16.9,7.5-16.9,16.9v51.1h33.7V93.5C302.7,84.2,295.1,76.7,285.8,76.7z"/>
	</g>
	<polygon class="st3" points="0,21.2 0,42 0,44.4 0,70.5 330.6,70.5 330.6,44.4 330.6,42 330.6,21.2 	"/>
	<path class="st4" d="M76.6,305.4L76.6,305.4c20.6,0,37.4,16.8,37.4,37.4v45.6H39.2v-45.6C39.2,322.1,55.9,305.4,76.6,305.4
		L76.6,305.4z"/>
	<path class="st5" d="M265.6,305.4L265.6,305.4c13.2,0,23.9,10.7,23.9,23.9v59.1h-47.8v-59.1C241.8,316.1,252.5,305.4,265.6,305.4z"
		/>
	<path class="st6" d="M152.7,305.4L152.7,305.4c12.3,0,22.3,10,22.3,22.3v60.7h-44.5v-60.7C130.5,315.3,140.4,305.4,152.7,305.4
		L152.7,305.4z"/>
	<rect x="41.2" class="st0" width="48.5" height="21.2"/>
	<rect x="189.9" class="st0" width="76.7" height="21.2"/>
</g>
</svg>
