<?xml version="1.0" encoding="utf-8"?>
<!-- Generator: Adobe Illustrator 26.5.0, SVG Export Plug-In . SVG Version: 6.00 Build 0)  -->
<svg version="1.1" id="uuid-9915080e-c0ef-4971-b3a2-b62d215ef315"
	 xmlns="http://www.w3.org/2000/svg" xmlns:xlink="http://www.w3.org/1999/xlink" x="0px" y="0px" viewBox="0 0 350.4 534.1"
	 style="enable-background:new 0 0 350.4 534.1;" xml:space="preserve">
<style type="text/css">
	.st0{fill:#FCBE1B;}
	.st1{fill:#E8629F;}
	.st2{fill-rule:evenodd;clip-rule:evenodd;fill:#E8629F;}
	.st3{fill:#261923;stroke:#E8629F;stroke-width:1.54;stroke-miterlimit:10;}
	.st4{fill-rule:evenodd;clip-rule:evenodd;fill:#261923;stroke:#E8629F;stroke-width:2;stroke-miterlimit:10;}
	.st5{fill-rule:evenodd;clip-rule:evenodd;fill:#261923;stroke:#FCBE1B;stroke-width:2;stroke-miterlimit:10;}
</style>
<g>
	<rect x="14" y="30.7" class="st0" width="322.4" height="502.6"/>
	<rect x="14" y="61.4" class="st1" width="322.4" height="15.4"/>
	<polygon class="st2" points="0,0 0,15.3 14,15.3 14,30.7 336.4,30.7 336.4,15.3 350.4,15.3 350.4,0 	"/>
	<path class="st3" d="M173.4,450.3h3.6c11.3,0,20.5,9.2,20.5,20.5v62.5h-44.5v-62.5C152.9,459.5,162.1,450.3,173.4,450.3z"/>
	<rect x="14" y="413.6" class="st1" width="322.4" height="15.3"/>
	<rect x="29.8" y="76.7" class="st1" width="89.2" height="336.8"/>
	<rect x="230.9" y="76.7" class="st1" width="89.2" height="336.8"/>
	<path class="st4" d="M275.5,450.3L275.5,450.3c-11.3,0-20.5,9.2-20.5,20.5v35.9H296v-35.9C296,459.5,286.9,450.3,275.5,450.3
		L275.5,450.3z"/>
	<g>
		<path class="st5" d="M275.5,339.8L275.5,339.8c-11.3,0-20.5,9.2-20.5,20.5v35.9H296v-35.9C296,348.9,286.9,339.8,275.5,339.8
			L275.5,339.8z"/>
		<path class="st5" d="M275.5,263.6L275.5,263.6c-11.3,0-20.5,9.2-20.5,20.5V320H296v-35.9C296,272.8,286.9,263.6,275.5,263.6
			L275.5,263.6z"/>
		<path class="st5" d="M275.5,187.4L275.5,187.4c-11.3,0-20.5,9.2-20.5,20.5v35.9H296v-35.9C296,196.6,286.9,187.4,275.5,187.4
			L275.5,187.4z"/>
		<path class="st5" d="M275.5,111.3L275.5,111.3c-11.3,0-20.5,9.2-20.5,20.5v35.9H296v-35.9C296,120.4,286.9,111.3,275.5,111.3
			L275.5,111.3z"/>
	</g>
	<g>
		<path class="st5" d="M74.4,339.8L74.4,339.8c-11.3,0-20.5,9.2-20.5,20.5v35.9h40.9v-35.9C94.8,348.9,85.7,339.8,74.4,339.8
			L74.4,339.8z"/>
		<path class="st5" d="M74.4,263.6L74.4,263.6c-11.3,0-20.5,9.2-20.5,20.5V320h40.9v-35.9C94.8,272.8,85.7,263.6,74.4,263.6
			L74.4,263.6z"/>
		<path class="st5" d="M74.4,187.4L74.4,187.4c-11.3,0-20.5,9.2-20.5,20.5v35.9h40.9v-35.9C94.8,196.6,85.7,187.4,74.4,187.4
			L74.4,187.4z"/>
		<path class="st5" d="M74.4,111.3L74.4,111.3c-11.3,0-20.5,9.2-20.5,20.5v35.9h40.9v-35.9C94.8,120.4,85.7,111.3,74.4,111.3
			L74.4,111.3z"/>
	</g>
	<g>
		<path class="st4" d="M175.2,339.8L175.2,339.8c-11.3,0-20.5,9.2-20.5,20.5v35.9h40.9v-35.9C195.7,348.9,186.5,339.8,175.2,339.8
			L175.2,339.8z"/>
		<path class="st4" d="M175.2,263.6L175.2,263.6c-11.3,0-20.5,9.2-20.5,20.5V320h40.9v-35.9C195.7,272.8,186.5,263.6,175.2,263.6
			L175.2,263.6z"/>
		<path class="st4" d="M175.2,187.4L175.2,187.4c-11.3,0-20.5,9.2-20.5,20.5v35.9h40.9v-35.9C195.7,196.6,186.5,187.4,175.2,187.4
			L175.2,187.4z"/>
		<path class="st4" d="M175.2,111.3L175.2,111.3c-11.3,0-20.5,9.2-20.5,20.5v35.9h40.9v-35.9C195.7,120.4,186.5,111.3,175.2,111.3
			L175.2,111.3z"/>
	</g>
	<path class="st4" d="M74.4,450.3L74.4,450.3c-11.3,0-20.5,9.2-20.5,20.5v35.9h40.9v-35.9C94.8,459.5,85.7,450.3,74.4,450.3
		L74.4,450.3z"/>
</g>
</svg>
