<?xml version="1.0" encoding="utf-8"?>
<!-- Generator: Adobe Illustrator 26.5.0, SVG Export Plug-In . SVG Version: 6.00 Build 0)  -->
<svg version="1.1" id="uuid-46afa813-ee79-4316-9c48-ff68a942351b"
	 xmlns="http://www.w3.org/2000/svg" xmlns:xlink="http://www.w3.org/1999/xlink" x="0px" y="0px" viewBox="0 0 330.6 498.1"
	 style="enable-background:new 0 0 330.6 498.1;" xml:space="preserve">
<style type="text/css">
	.st0{fill:#FCBE1B;}
	.st1{fill:#E8629F;}
	.st2{fill-rule:evenodd;clip-rule:evenodd;fill:#261923;stroke:#E8629F;stroke-width:2;stroke-miterlimit:10;}
	.st3{fill-rule:evenodd;clip-rule:evenodd;fill:#E8629F;}
	.st4{fill:#261923;stroke:#E8629F;stroke-width:2;stroke-miterlimit:10;}
	.st5{fill:#261923;stroke:#E8629F;stroke-width:1.6;stroke-miterlimit:10;}
	.st6{fill:#261923;stroke:#E8629F;stroke-width:1.54;stroke-miterlimit:10;}
</style>
<g>
	<rect x="4.1" y="25.1" class="st0" width="322.4" height="471.9"/>
	<rect y="368.1" class="st1" width="330.5" height="28.5"/>
	<rect y="259.4" class="st1" width="330.5" height="28.5"/>
	<g>
		<path class="st2" d="M44.6,294.1L44.6,294.1c-9.3,0-16.9,7.5-16.9,16.9V362h33.7v-51.1C61.4,301.6,53.9,294.1,44.6,294.1
			L44.6,294.1z"/>
		<path class="st2" d="M92.8,294.1L92.8,294.1c-9.3,0-16.9,7.5-16.9,16.9V362h33.7v-51.1C109.7,301.6,102.1,294.1,92.8,294.1z"/>
		<path class="st2" d="M141.1,294.1L141.1,294.1c-9.3,0-16.9,7.5-16.9,16.9V362h33.7v-51.1C157.9,301.6,150.4,294.1,141.1,294.1z"/>
		<path class="st2" d="M189.3,294.1L189.3,294.1c-9.3,0-16.9,7.5-16.9,16.9V362h33.7v-51.1C206.2,301.6,198.6,294.1,189.3,294.1z"/>
		<path class="st2" d="M237.6,294.1L237.6,294.1c-9.3,0-16.9,7.5-16.9,16.9V362h33.7v-51.1C254.4,301.6,246.9,294.1,237.6,294.1z"/>
		<path class="st2" d="M285.8,294.1L285.8,294.1c-9.3,0-16.9,7.5-16.9,16.9V362h33.7v-51.1C302.7,301.6,295.1,294.1,285.8,294.1z"/>
	</g>
	<rect y="150.7" class="st1" width="330.5" height="28.5"/>
	<g>
		<path class="st2" d="M44.6,185.4L44.6,185.4c-9.3,0-16.9,7.5-16.9,16.9v51.1h33.7v-51.1C61.4,192.9,53.9,185.4,44.6,185.4
			L44.6,185.4z"/>
		<path class="st2" d="M92.8,185.4L92.8,185.4c-9.3,0-16.9,7.5-16.9,16.9v51.1h33.7v-51.1C109.7,192.9,102.1,185.4,92.8,185.4z"/>
		<path class="st2" d="M141.1,185.4L141.1,185.4c-9.3,0-16.9,7.5-16.9,16.9v51.1h33.7v-51.1C157.9,192.9,150.4,185.4,141.1,185.4z"
			/>
		<path class="st2" d="M189.3,185.4L189.3,185.4c-9.3,0-16.9,7.5-16.9,16.9v51.1h33.7v-51.1C206.2,192.9,198.6,185.4,189.3,185.4z"
			/>
		<path class="st2" d="M237.6,185.4L237.6,185.4c-9.3,0-16.9,7.5-16.9,16.9v51.1h33.7v-51.1C254.4,192.9,246.9,185.4,237.6,185.4z"
			/>
		<path class="st2" d="M285.8,185.4L285.8,185.4c-9.3,0-16.9,7.5-16.9,16.9v51.1h33.7v-51.1C302.7,192.9,295.1,185.4,285.8,185.4z"
			/>
	</g>
	<polygon class="st3" points="0,21.2 0,42.1 0,44.4 0,70.5 330.6,70.5 330.6,44.4 330.6,42.1 330.6,21.2 	"/>
	<g>
		<path class="st2" d="M44.6,76.6L44.6,76.6c-9.3,0-16.9,7.5-16.9,16.9v51.1h33.7V93.5C61.4,84.2,53.9,76.7,44.6,76.6L44.6,76.6z"/>
		<path class="st2" d="M92.8,76.6L92.8,76.6c-9.3,0-16.9,7.5-16.9,16.9v51.1h33.7V93.5C109.7,84.2,102.1,76.7,92.8,76.6L92.8,76.6z"
			/>
		<path class="st2" d="M141.1,76.6L141.1,76.6c-9.3,0-16.9,7.5-16.9,16.9v51.1h33.7V93.5C157.9,84.2,150.4,76.7,141.1,76.6
			L141.1,76.6z"/>
		<path class="st2" d="M189.3,76.6L189.3,76.6c-9.3,0-16.9,7.5-16.9,16.9v51.1h33.7V93.5C206.2,84.2,198.6,76.7,189.3,76.6
			L189.3,76.6z"/>
		<path class="st2" d="M237.6,76.6L237.6,76.6c-9.3,0-16.9,7.5-16.9,16.9v51.1h33.7V93.5C254.4,84.2,246.9,76.7,237.6,76.6
			L237.6,76.6z"/>
		<path class="st2" d="M285.8,76.6L285.8,76.6c-9.3,0-16.9,7.5-16.9,16.9v51.1h33.7V93.5C302.7,84.2,295.1,76.7,285.8,76.6
			L285.8,76.6z"/>
	</g>
	<path class="st4" d="M76.6,414.1L76.6,414.1c20.6,0,37.4,16.8,37.4,37.4v45.6H39.2v-45.6C39.2,430.8,55.9,414.1,76.6,414.1
		L76.6,414.1z"/>
	<path class="st5" d="M265.6,414.1L265.6,414.1c13.2,0,23.9,10.7,23.9,23.9v59.1h-47.8v-59.1C241.8,424.8,252.5,414.1,265.6,414.1z"
		/>
	<path class="st6" d="M152.7,414.1L152.7,414.1c12.3,0,22.3,10,22.3,22.3v60.7h-44.5v-60.7C130.5,424,140.4,414.1,152.7,414.1
		L152.7,414.1z"/>
	<rect x="41.2" class="st0" width="48.5" height="21.2"/>
	<rect x="189.9" class="st0" width="76.7" height="21.2"/>
</g>
</svg>
