<?xml version="1.0" encoding="utf-8"?>
<!-- Generator: Adobe Illustrator 26.5.0, SVG Export Plug-In . SVG Version: 6.00 Build 0)  -->
<svg version="1.1" id="Tour_controle_avion" xmlns="http://www.w3.org/2000/svg" xmlns:xlink="http://www.w3.org/1999/xlink"
	 x="0px" y="0px" viewBox="0 0 119 180.3" style="enable-background:new 0 0 119 180.3;" xml:space="preserve">
<style type="text/css">
	.st0{fill:#FCBE1B;}
	.st1{fill:#E8629F;}
	.st2{fill:#261923;}
	.st3{fill:none;stroke:#E8629F;stroke-miterlimit:10;}
</style>
<g>
	<rect y="18.3" class="st0" width="119" height="9.8"/>
	<polygon class="st1" points="2.4,28.1 10,60.2 109,60.2 116.7,28.1 	"/>
	<polygon class="st2" points="6,30.5 13.2,57.9 105.8,57.9 113,30.5 	"/>
	<path class="st0" d="M92.2,62H25.3h0.5v6.7h2.5V69L39,80l0,0v4.7h5v95.6H75V84.7h5V80l0,0l10.7-11v-0.3h2.5V62h0.5L92.2,62L92.2,62
		z M44,78.7h-4.2l-9.7-10H44V78.7z M79.2,78.7H75v-10h13.9L79.2,78.7z"/>
	<line class="st3" x1="59.5" y1="28.1" x2="59.5" y2="60.2"/>
	<line class="st3" x1="76.6" y1="28.1" x2="76.6" y2="60.2"/>
	<line class="st3" x1="93.6" y1="28.1" x2="93.6" y2="60.2"/>
	<line class="st3" x1="25.4" y1="28.1" x2="25.4" y2="60.2"/>
	<line class="st3" x1="42.5" y1="28.1" x2="42.5" y2="60.2"/>
	<line class="st3" x1="7.8" y1="44.2" x2="111.2" y2="44.2"/>
	<rect x="36.8" y="9.2" class="st0" width="45.4" height="9.2"/>
	<rect x="47" class="st0" width="24.9" height="9.2"/>
	<rect x="10" y="60.2" class="st0" width="98.9" height="9.8"/>
</g>
</svg>
