<?xml version="1.0" encoding="utf-8"?>
<!-- Generator: Adobe Illustrator 26.5.0, SVG Export Plug-In . SVG Version: 6.00 Build 0)  -->
<svg version="1.1" id="uuid-5f74eb12-29ca-4a40-bf29-c42b2d0d11cb"
	 xmlns="http://www.w3.org/2000/svg" xmlns:xlink="http://www.w3.org/1999/xlink" x="0px" y="0px" viewBox="0 0 504.8 366.1"
	 style="enable-background:new 0 0 504.8 366.1;" xml:space="preserve">
<style type="text/css">
	.st0{fill:#FCBE1B;}
	.st1{fill-rule:evenodd;clip-rule:evenodd;fill:#E8629F;}
	.st2{fill:#261923;}
	.st3{fill:none;stroke:#E8629F;stroke-width:8.33;stroke-miterlimit:10;}
	.st4{fill:#E8629F;}
	.st5{fill:none;stroke:#E8629F;stroke-width:7;stroke-miterlimit:10;}
	.st6{fill-rule:evenodd;clip-rule:evenodd;fill:#FCBE1B;}
	.st7{fill:#261923;stroke:#E8629F;stroke-width:7;stroke-miterlimit:10;}
	.st8{fill-rule:evenodd;clip-rule:evenodd;fill:#261923;stroke:#E8629F;stroke-width:7;stroke-miterlimit:10;}
</style>
<g>
	<rect x="24" y="154.6" class="st0" width="480.8" height="211.4"/>
	<polygon class="st1" points="391.2,40.9 61.3,40.9 0,154.6 391.2,154.6 	"/>
	<path class="st2" d="M264.4,234.9L264.4,234.9c20.7,0,37.6,16.8,37.6,37.6v93.6h-75.1v-93.6C226.8,251.8,243.6,234.9,264.4,234.9
		L264.4,234.9z"/>
	<polyline class="st3" points="207.6,366.1 207.6,225.9 264.4,154.6 321.2,225.9 321.2,366.1 	"/>
	<rect x="70.2" y="26.6" class="st0" width="30.1" height="14.3"/>
	<rect x="65.8" y="13.3" class="st4" width="38.8" height="13.3"/>
	<path class="st5" d="M226.8,366.1v-93.6c0-20.8,16.8-37.6,37.6-37.6l0,0c20.8,0,37.6,16.8,37.6,37.6v93.6"/>
	<circle class="st0" cx="264.4" cy="295.4" r="3.5"/>
	<g>
		<polygon class="st6" points="272.9,152.1 386.3,4.1 499.7,152.1 		"/>
		<path class="st4" d="M386.3,8.2l108.3,141.4H278L386.3,8.2 M386.3,0L267.9,154.6h236.9L386.3,0L386.3,0L386.3,0z"/>
	</g>
	<path class="st7" d="M386.3,60.6L386.3,60.6c8.3,0,15,6.7,15,15V106h-30V75.6C371.3,67.4,378,60.6,386.3,60.6L386.3,60.6z"/>
	<polygon class="st8" points="431.4,234.9 401.3,234.9 371.3,234.9 371.3,321.6 401.3,321.6 431.4,321.6 461.4,321.6 461.4,234.9 	
		"/>
	<polygon class="st8" points="125.8,234.9 95.8,234.9 65.8,234.9 65.8,321.6 95.8,321.6 125.8,321.6 155.9,321.6 155.9,234.9 	"/>
	<line class="st5" x1="110.8" y1="234.9" x2="110.8" y2="321.6"/>
	<line class="st5" x1="416.3" y1="234.9" x2="416.3" y2="321.6"/>
</g>
</svg>
