<?xml version="1.0" encoding="utf-8"?>
<!-- Generator: Adobe Illustrator 26.5.0, SVG Export Plug-In . SVG Version: 6.00 Build 0)  -->
<svg version="1.1" id="uuid-77311334-0315-417e-ad2c-df91b428d414"
	 xmlns="http://www.w3.org/2000/svg" xmlns:xlink="http://www.w3.org/1999/xlink" x="0px" y="0px" viewBox="0 0 518.6 260.5"
	 style="enable-background:new 0 0 518.6 260.5;" xml:space="preserve">
<style type="text/css">
	.st0{fill-rule:evenodd;clip-rule:evenodd;fill:#FCBE1B;}
	.st1{fill-rule:evenodd;clip-rule:evenodd;fill:#261923;stroke:#E8629F;stroke-width:3;stroke-miterlimit:10;}
	.st2{fill:none;stroke:#E8629F;stroke-width:8;stroke-miterlimit:10;}
	.st3{fill:#261923;stroke:#E8629F;stroke-width:3;stroke-miterlimit:10;}
	.st4{fill:#261923;}
	.st5{fill:none;stroke:#E8629F;stroke-width:7;stroke-miterlimit:10;}
	.st6{fill:#FCBE1B;}
	.st7{fill:none;stroke:#E8629F;stroke-width:3;stroke-miterlimit:10;}
</style>
<g>
	<polygon class="st0" points="28.3,156.6 267.8,4.7 507.3,156.6 507.3,260.5 28.3,260.5 	"/>
	<polygon class="st0" points="12.1,106.6 115.3,28.8 218.5,106.6 218.5,260.5 12.1,260.5 	"/>
	<path class="st1" d="M85.7,93.3c0-16.3,13.3-29.6,29.6-29.6s29.6,13.3,29.6,29.6"/>
	<polygon class="st1" points="130.3,156.6 100.3,156.6 70.3,156.6 70.3,218.1 100.3,218.1 130.3,218.1 160.3,218.1 160.3,156.6 	"/>
	<polygon class="st1" points="130.3,93.3 100.3,93.3 70.3,93.3 70.3,119.9 100.3,119.9 130.3,119.9 160.3,119.9 160.3,93.3 	"/>
	<path class="st1" d="M367.1,177.4v51.8H421v-51.8c0-14.9-12.1-26.9-26.9-26.9l0,0C379.2,150.4,367.1,162.5,367.1,177.4L367.1,177.4
		z"/>
	<path class="st1" d="M319.7,90.3v26.2H342V90.3c0-7.5-5-13.6-11.2-13.6l0,0C324.7,76.7,319.7,82.8,319.7,90.3z"/>
	<polyline class="st2" points="283.7,155.9 115.3,28.8 2.4,114 	"/>
	<polyline class="st2" points="516.4,162.4 267.8,4.7 167.6,68.3 	"/>
	<circle class="st3" cx="267.8" cy="44.9" r="14.6"/>
	<rect x="189.4" y="154.8" class="st4" width="75.1" height="105.7"/>
	<polyline class="st5" points="170.1,260.5 170.1,156.6 226.9,113 283.7,155.9 283.7,260.5 	"/>
	<circle class="st6" cx="226.9" cy="189.8" r="3.5"/>
	<line class="st7" x1="144.9" y1="156.6" x2="144.9" y2="218.1"/>
	<line class="st7" x1="85.7" y1="155.9" x2="85.7" y2="218.1"/>
	<line class="st7" x1="115.3" y1="156.6" x2="115.3" y2="218.1"/>
	<line class="st7" x1="144.9" y1="93.3" x2="144.9" y2="119.9"/>
	<line class="st7" x1="85.7" y1="93.3" x2="85.7" y2="119.9"/>
	<line class="st7" x1="115.3" y1="63.7" x2="115.3" y2="119.9"/>
	<line class="st7" x1="330.8" y1="76.7" x2="330.8" y2="116.5"/>
	<line class="st7" x1="394" y1="150.4" x2="394" y2="229.1"/>
	<line class="st7" x1="421" y1="184.6" x2="367.1" y2="184.6"/>
	<line class="st7" x1="282.4" y1="44.9" x2="253.2" y2="44.9"/>
	<line class="st7" x1="267.8" y1="30.3" x2="267.8" y2="59.5"/>
</g>
</svg>
