<?xml version="1.0" encoding="utf-8"?>
<!-- Generator: Adobe Illustrator 26.5.0, SVG Export Plug-In . SVG Version: 6.00 Build 0)  -->
<svg version="1.1" id="uuid-2405ef3b-de63-405e-ab93-5cc0ab2c3b3e"
	 xmlns="http://www.w3.org/2000/svg" xmlns:xlink="http://www.w3.org/1999/xlink" x="0px" y="0px" viewBox="0 0 272.6 557.7"
	 style="enable-background:new 0 0 272.6 557.7;" xml:space="preserve">
<style type="text/css">
	.st0{fill:none;stroke:#EA629F;stroke-width:10;stroke-miterlimit:10;}
	.st1{fill:none;stroke:#EA629F;stroke-width:4;stroke-miterlimit:10;}
	.st2{fill:none;stroke:#EA629F;stroke-width:5.38;stroke-miterlimit:10;}
	.st3{fill:#EA629F;}
	.st4{fill:none;stroke:#EA629F;stroke-width:2;stroke-miterlimit:10;}
</style>
<g>
	<path class="st0" d="M119.8,107.2C105.2,394.2,8.9,552.7,8.9,552.7h55.4c0,0,72-153.8,72-445.5L119.8,107.2L119.8,107.2z"/>
	<path class="st0" d="M136.3,478.9c0,0-34.7-3.1-58.2,38.1"/>
	<line class="st1" x1="87.1" y1="488.5" x2="39.4" y2="488.5"/>
	<line class="st1" x1="76.8" y1="520.5" x2="25.3" y2="520.5"/>
	<line class="st1" x1="8.9" y1="552.7" x2="76.8" y2="520.5"/>
	<line class="st1" x1="25.3" y1="520.5" x2="64.3" y2="552.7"/>
	<line class="st1" x1="39.4" y1="488.5" x2="76.8" y2="520.5"/>
	<line class="st1" x1="25.3" y1="520.5" x2="87.1" y2="488.5"/>
	<line class="st1" x1="136.3" y1="460.7" x2="51.1" y2="460.7"/>
	<line class="st1" x1="87.1" y1="488.5" x2="51.1" y2="460.7"/>
	<line class="st1" x1="41" y1="488.5" x2="94.9" y2="460.7"/>
	<polyline class="st0" points="136.3,405.2 56.2,405.2 61.1,431 136.3,431 	"/>
	<line class="st1" x1="86.2" y1="343.5" x2="136.3" y2="343.5"/>
	<line class="st1" x1="78.1" y1="375.2" x2="113.9" y2="375.2"/>
	<line class="st1" x1="119.1" y1="343.5" x2="78.1" y2="375.2"/>
	<line class="st1" x1="113.9" y1="375.2" x2="69.4" y2="405.2"/>
	<line class="st1" x1="78.1" y1="375.2" x2="107.2" y2="405.2"/>
	<line class="st1" x1="86.2" y1="343.5" x2="113.9" y2="375.2"/>
	<line class="st1" x1="136.3" y1="138.3" x2="119.1" y2="138.3"/>
	<line class="st1" x1="135.2" y1="170" x2="115.2" y2="170"/>
	<line class="st1" x1="133.7" y1="201.4" x2="111.8" y2="201.4"/>
	<line class="st1" x1="131.6" y1="233.4" x2="107.5" y2="233.4"/>
	<line class="st1" x1="128.9" y1="265.1" x2="102.6" y2="265.1"/>
	<line class="st1" x1="125.5" y1="296.4" x2="96.8" y2="296.4"/>
	<line class="st1" x1="136.3" y1="325.4" x2="81.7" y2="325.4"/>
	<line class="st1" x1="119.8" y1="107.2" x2="136.3" y2="138.3"/>
	<line class="st1" x1="136.3" y1="107.2" x2="119.1" y2="138.3"/>
	<line class="st1" x1="136.3" y1="138.3" x2="115.2" y2="170"/>
	<line class="st1" x1="135.2" y1="170" x2="119.1" y2="138.3"/>
	<line class="st1" x1="111.8" y1="201.4" x2="135.2" y2="170"/>
	<line class="st1" x1="133.7" y1="201.4" x2="115.2" y2="170"/>
	<line class="st1" x1="107.5" y1="233.4" x2="133.7" y2="201.4"/>
	<line class="st1" x1="131.6" y1="233.4" x2="111.8" y2="201.4"/>
	<line class="st1" x1="102.6" y1="265.1" x2="131.6" y2="233.4"/>
	<line class="st1" x1="128.9" y1="265.1" x2="107.5" y2="233.4"/>
	<line class="st1" x1="96.8" y1="296.4" x2="128.9" y2="265.1"/>
	<line class="st1" x1="125.5" y1="296.4" x2="102.6" y2="265.1"/>
	<line class="st1" x1="91.6" y1="322.2" x2="125.5" y2="296.4"/>
	<line class="st1" x1="122.2" y1="322.2" x2="96.3" y2="298.2"/>
	<line class="st2" x1="136.3" y1="405.2" x2="136.3" y2="431"/>
	<line class="st1" x1="119.7" y1="405.2" x2="119.7" y2="431"/>
	<line class="st1" x1="86.2" y1="405.2" x2="86.2" y2="431"/>
	<line class="st1" x1="91.6" y1="474.6" x2="102.6" y2="489.5"/>
	<line class="st1" x1="114.9" y1="460.7" x2="119.1" y2="482"/>
	<rect x="119.1" y="99.6" class="st3" width="34.4" height="7.6"/>
	<rect x="119.2" y="99.7" class="st3" width="34.4" height="7.6"/>
	<rect x="116.3" y="96.3" class="st3" width="39.9" height="8.3"/>
	<rect x="113.3" y="82.2" class="st3" width="46" height="8.3"/>
	<rect x="121.2" y="67.7" class="st3" width="30.1" height="14.5"/>
	<rect x="116.5" y="61.4" class="st3" width="39.4" height="6.3"/>
	<rect x="128.2" y="39.3" class="st3" width="16.2" height="4.3"/>
	<rect x="128.2" y="24" class="st3" width="16.2" height="4.3"/>
	<rect x="133.4" class="st3" width="5.7" height="24"/>
	<rect x="132.3" y="28.2" class="st3" width="7.9" height="11.1"/>
	<path class="st3" d="M132.8,43.6h7c6.4,0,11.6,5.2,11.6,11.6v6.2h-30.2v-6.2C121.2,48.8,126.4,43.6,132.8,43.6L132.8,43.6z"/>
	<g>
		<line class="st4" x1="54.7" y1="459.8" x2="84.2" y2="432"/>
		<line class="st4" x1="73.4" y1="460.7" x2="101.7" y2="433.5"/>
		<line class="st4" x1="98.6" y1="453.5" x2="119.7" y2="432.6"/>
		<line class="st4" x1="56.2" y1="443.1" x2="76.8" y2="459.6"/>
		<line class="st4" x1="64.3" y1="431" x2="94.9" y2="460.7"/>
		<line class="st4" x1="83.3" y1="432.9" x2="111.3" y2="459"/>
		<line class="st4" x1="101.7" y1="433.5" x2="128.4" y2="459.4"/>
		<line class="st4" x1="109.1" y1="460.1" x2="139.2" y2="431"/>
		<line class="st4" x1="124.2" y1="460.7" x2="156.7" y2="431.7"/>
		<line class="st4" x1="144" y1="459.3" x2="173.9" y2="432.3"/>
		<line class="st4" x1="163.1" y1="458.9" x2="191.6" y2="432.3"/>
		<line class="st4" x1="179.9" y1="459.6" x2="207.5" y2="433.2"/>
		<line class="st4" x1="198.9" y1="459.3" x2="216.1" y2="443.1"/>
		<line class="st4" x1="216.1" y1="459.1" x2="187.7" y2="432.6"/>
		<line class="st4" x1="198.9" y1="459.3" x2="169.7" y2="432.5"/>
		<line class="st4" x1="182.1" y1="459.1" x2="152" y2="432.5"/>
		<line class="st4" x1="164.8" y1="459.6" x2="135.1" y2="432.1"/>
		<line class="st4" x1="146.2" y1="459.1" x2="117.9" y2="433.2"/>
	</g>
	<line class="st1" x1="88.1" y1="341.4" x2="104.3" y2="327.3"/>
	<line class="st1" x1="103.7" y1="342.4" x2="120.1" y2="328"/>
	<line class="st1" x1="117" y1="341.2" x2="103.8" y2="326.2"/>
	<line class="st1" x1="98.6" y1="342" x2="88.4" y2="327.3"/>
	<path class="st0" d="M152.8,107.2c14.6,287,110.9,445.5,110.9,445.5h-55.4c0,0-72-153.8-72-445.5L152.8,107.2L152.8,107.2z"/>
	<path class="st0" d="M136.3,478.9c0,0,34.7-3.1,58.2,38.1"/>
	<line class="st1" x1="185.5" y1="488.5" x2="233.2" y2="488.5"/>
	<line class="st1" x1="195.8" y1="520.5" x2="247.3" y2="520.5"/>
	<line class="st1" x1="263.7" y1="552.7" x2="195.8" y2="520.5"/>
	<line class="st1" x1="247.3" y1="520.5" x2="208.3" y2="552.7"/>
	<line class="st1" x1="233.2" y1="488.5" x2="195.8" y2="520.5"/>
	<line class="st1" x1="247.3" y1="520.5" x2="185.5" y2="488.5"/>
	<line class="st1" x1="136.3" y1="460.7" x2="221.5" y2="460.7"/>
	<line class="st1" x1="185.5" y1="488.5" x2="221.5" y2="460.7"/>
	<line class="st1" x1="231.6" y1="488.5" x2="177.7" y2="460.7"/>
	<polyline class="st0" points="136.3,405.2 216.4,405.2 211.5,431 136.3,431 	"/>
	<line class="st1" x1="186.4" y1="343.5" x2="136.3" y2="343.5"/>
	<line class="st1" x1="194.6" y1="375.2" x2="158.7" y2="375.2"/>
	<line class="st1" x1="153.5" y1="343.5" x2="194.6" y2="375.2"/>
	<line class="st1" x1="158.7" y1="375.2" x2="203.2" y2="405.2"/>
	<line class="st1" x1="194.6" y1="375.2" x2="165.4" y2="405.2"/>
	<line class="st1" x1="186.4" y1="343.5" x2="158.7" y2="375.2"/>
	<line class="st1" x1="136.3" y1="138.3" x2="153.5" y2="138.3"/>
	<line class="st1" x1="137.4" y1="170" x2="157.4" y2="170"/>
	<line class="st1" x1="138.9" y1="201.4" x2="160.8" y2="201.4"/>
	<line class="st1" x1="141" y1="233.4" x2="165.1" y2="233.4"/>
	<line class="st1" x1="143.7" y1="265.1" x2="170" y2="265.1"/>
	<line class="st1" x1="147.1" y1="296.4" x2="175.8" y2="296.4"/>
	<line class="st1" x1="136.3" y1="325.4" x2="190.9" y2="325.4"/>
	<line class="st1" x1="152.8" y1="107.2" x2="136.3" y2="138.3"/>
	<line class="st1" x1="136.3" y1="107.2" x2="153.5" y2="138.3"/>
	<line class="st1" x1="136.3" y1="138.3" x2="157.4" y2="170"/>
	<line class="st1" x1="137.4" y1="170" x2="153.5" y2="138.3"/>
	<line class="st1" x1="160.8" y1="201.4" x2="137.4" y2="170"/>
	<line class="st1" x1="138.9" y1="201.4" x2="157.4" y2="170"/>
	<line class="st1" x1="165.1" y1="233.4" x2="138.9" y2="201.4"/>
	<line class="st1" x1="141" y1="233.4" x2="160.8" y2="201.4"/>
	<line class="st1" x1="170" y1="265.1" x2="141" y2="233.4"/>
	<line class="st1" x1="143.7" y1="265.1" x2="165.1" y2="233.4"/>
	<line class="st1" x1="175.8" y1="296.4" x2="143.7" y2="265.1"/>
	<line class="st1" x1="147.1" y1="296.4" x2="170" y2="265.1"/>
	<line class="st1" x1="181" y1="322.2" x2="147.1" y2="296.4"/>
	<line class="st1" x1="150.5" y1="322.2" x2="176.3" y2="298.2"/>
	<line class="st1" x1="152.9" y1="405.2" x2="152.9" y2="431"/>
	<line class="st1" x1="186.4" y1="405.2" x2="186.4" y2="431"/>
	<line class="st1" x1="181" y1="474.6" x2="170" y2="489.5"/>
	<line class="st1" x1="157.7" y1="460.7" x2="153.5" y2="482"/>
	<line class="st1" x1="184.5" y1="341.4" x2="168.3" y2="327.3"/>
	<line class="st1" x1="168.9" y1="342.4" x2="152.5" y2="328"/>
	<line class="st1" x1="155.6" y1="341.2" x2="168.8" y2="326.2"/>
	<line class="st1" x1="174" y1="342" x2="184.2" y2="327.3"/>
	<polygon class="st3" points="116.3,96.3 113.3,90.5 159.3,90.5 156.3,96.3 	"/>
	<line class="st1" x1="147.1" y1="296.4" x2="125.5" y2="296.4"/>
	<line class="st1" x1="121.7" y1="325.4" x2="147.1" y2="296.4"/>
	<line class="st1" x1="150.9" y1="325.4" x2="125.5" y2="296.4"/>
</g>
</svg>
