<?xml version="1.0" encoding="utf-8"?>
<!-- Generator: Adobe Illustrator 26.5.0, SVG Export Plug-In . SVG Version: 6.00 Build 0)  -->
<svg version="1.1" id="Usine" xmlns="http://www.w3.org/2000/svg" xmlns:xlink="http://www.w3.org/1999/xlink" x="0px" y="0px"
	 viewBox="0 0 427.8 313.4" style="enable-background:new 0 0 427.8 313.4;" xml:space="preserve">
<style type="text/css">
	.st0{fill:#FCBE1B;}
	.st1{fill:#E8629F;}
	.st2{fill-rule:evenodd;clip-rule:evenodd;fill:#FCBE1B;}
	.st3{fill:#261923;stroke:#E6629F;stroke-width:2;stroke-miterlimit:10;}
	.st4{fill:#261923;}
	.st5{fill:#FCBE1C;}
	.st6{fill:none;stroke:#E8629F;stroke-width:3;stroke-miterlimit:10;}
	.st7{fill-rule:evenodd;clip-rule:evenodd;fill:#E8629F;}
	.st8{fill:none;stroke:#E8629F;stroke-width:2;stroke-miterlimit:10;}
</style>
<g>
	<rect y="243.6" class="st0" width="337.1" height="69.8"/>
	<rect x="329.7" y="61.6" class="st0" width="91.2" height="251.8"/>
	<g>
		<polygon class="st0" points="122.9,0 79.8,0 74.9,243.6 128.1,243.6 		"/>
		<rect x="79" y="22" class="st1" width="44.6" height="16.7"/>
		<rect x="78.4" y="54.4" class="st1" width="46" height="16.7"/>
		<rect x="77.8" y="86.7" class="st1" width="47.1" height="16.7"/>
		<rect x="77.2" y="119.1" class="st1" width="48.4" height="16.7"/>
		<rect x="76.5" y="151.4" class="st1" width="49.8" height="16.7"/>
	</g>
	<g>
		<polygon class="st0" points="48,0 5,0 0,243.6 53.2,243.6 		"/>
		<rect x="3.6" y="54.4" class="st1" width="46" height="16.7"/>
		<rect x="3.2" y="86.7" class="st1" width="46.8" height="16.7"/>
		<rect x="2.5" y="119.1" class="st1" width="48.3" height="16.7"/>
		<rect x="1.8" y="151.4" class="st1" width="49.6" height="16.7"/>
		<rect x="1.1" y="183.8" class="st1" width="51.1" height="16.7"/>
		<rect x="0.4" y="216.1" class="st1" width="52.4" height="16.7"/>
		<rect x="4.3" y="22" class="st1" width="44.5" height="16.7"/>
	</g>
	<polygon class="st2" points="177.4,177.9 253.3,124.7 253.3,313.4 177.4,313.4 	"/>
	<polygon class="st2" points="101.5,177.9 177.4,124.7 177.4,313.4 101.5,313.4 	"/>
	<polygon class="st2" points="25.6,177.9 101.5,124.7 101.5,313.4 25.6,313.4 	"/>
	<rect x="0" y="275.5" class="st1" width="421" height="37.9"/>
	<rect x="322.9" y="61.6" class="st1" width="105" height="13"/>
	<g>
		<rect x="341.5" y="86.4" class="st3" width="66.8" height="15.9"/>
		<rect x="341.5" y="118.4" class="st3" width="66.8" height="15.9"/>
		<rect x="341.5" y="150.5" class="st3" width="66.8" height="15.9"/>
		<rect x="341.5" y="182.6" class="st3" width="66.8" height="15.9"/>
		<rect x="341.5" y="214.7" class="st3" width="66.8" height="15.9"/>
		<rect x="341.5" y="246.8" class="st3" width="66.8" height="15.9"/>
	</g>
	<g>
		<g>
			<rect x="34.2" y="206.6" class="st3" width="15.9" height="15.9"/>
			<rect x="55.7" y="206.6" class="st3" width="15.9" height="15.9"/>
			<rect x="76.9" y="206.6" class="st3" width="15.9" height="15.9"/>
		</g>
		<g>
			<rect x="34.2" y="227.7" class="st3" width="15.9" height="15.9"/>
			<rect x="55.7" y="227.7" class="st3" width="15.9" height="15.9"/>
			<rect x="76.9" y="227.7" class="st3" width="15.9" height="15.9"/>
		</g>
		<g>
			<rect x="34.2" y="248.9" class="st3" width="15.9" height="15.9"/>
			<rect x="55.7" y="248.9" class="st3" width="15.9" height="15.9"/>
			<rect x="76.9" y="248.9" class="st3" width="15.9" height="15.9"/>
		</g>
	</g>
	<g>
		<g>
			<rect x="110.1" y="206.6" class="st3" width="15.9" height="15.9"/>
			<rect x="131.6" y="206.6" class="st3" width="15.9" height="15.9"/>
			<rect x="152.8" y="206.6" class="st3" width="15.9" height="15.9"/>
		</g>
		<g>
			<rect x="110.1" y="227.7" class="st3" width="15.9" height="15.9"/>
			<rect x="131.6" y="227.7" class="st3" width="15.9" height="15.9"/>
			<rect x="152.8" y="227.7" class="st3" width="15.9" height="15.9"/>
		</g>
		<g>
			<rect x="110.1" y="248.9" class="st3" width="15.9" height="15.9"/>
			<rect x="131.6" y="248.9" class="st3" width="15.9" height="15.9"/>
			<rect x="152.8" y="248.9" class="st3" width="15.9" height="15.9"/>
		</g>
	</g>
	<g>
		<g>
			<rect x="186" y="206.6" class="st3" width="15.9" height="15.9"/>
			<rect x="207.5" y="206.6" class="st3" width="15.9" height="15.9"/>
			<rect x="228.8" y="206.6" class="st3" width="15.9" height="15.9"/>
		</g>
		<g>
			<rect x="186" y="227.7" class="st3" width="15.9" height="15.9"/>
			<rect x="207.5" y="227.7" class="st3" width="15.9" height="15.9"/>
			<rect x="228.8" y="227.7" class="st3" width="15.9" height="15.9"/>
		</g>
		<g>
			<rect x="186" y="248.9" class="st3" width="15.9" height="15.9"/>
			<rect x="207.5" y="248.9" class="st3" width="15.9" height="15.9"/>
			<rect x="228.8" y="248.9" class="st3" width="15.9" height="15.9"/>
		</g>
	</g>
	<g>
		<rect x="360.5" y="283.6" class="st4" width="28.8" height="28.8"/>
		<path class="st5" d="M388.3,284.6v26.8h-26.8v-26.8H388.3 M390.3,282.6h-30.8v30.8h30.8V282.6L390.3,282.6z"/>
	</g>
	<line class="st6" x1="177.4" y1="177.9" x2="177.4" y2="275.5"/>
	<line class="st6" x1="101.5" y1="177.9" x2="101.5" y2="275.5"/>
	<polygon class="st7" points="101.5,124.7 25.6,177.9 25.6,185.1 101.5,132.6 	"/>
	<polygon class="st7" points="177.4,124.7 101.5,177.9 101.5,185.1 177.4,132.6 	"/>
	<polygon class="st7" points="253.3,124.7 177.4,177.9 177.4,185.1 253.3,132.6 	"/>
	<line class="st6" x1="253.3" y1="243.6" x2="253.3" y2="275.5"/>
	<line class="st6" x1="329.8" y1="243.6" x2="329.8" y2="275.5"/>
	<g>
		<line class="st8" x1="374.9" y1="86.4" x2="374.9" y2="102.3"/>
		<line class="st8" x1="358.3" y1="86.4" x2="358.3" y2="102.3"/>
		<line class="st8" x1="391.5" y1="86.4" x2="391.5" y2="102.3"/>
	</g>
	<g>
		<g>
			<line class="st8" x1="374.9" y1="118.4" x2="374.9" y2="134.4"/>
			<line class="st8" x1="358.3" y1="118.4" x2="358.3" y2="134.4"/>
			<line class="st8" x1="391.5" y1="118.4" x2="391.5" y2="134.4"/>
		</g>
		<g>
			<line class="st8" x1="374.9" y1="150.5" x2="374.9" y2="166.4"/>
			<line class="st8" x1="358.3" y1="150.5" x2="358.3" y2="166.4"/>
			<line class="st8" x1="391.5" y1="150.5" x2="391.5" y2="166.4"/>
		</g>
		<g>
			<line class="st8" x1="374.9" y1="182.6" x2="374.9" y2="198.5"/>
			<line class="st8" x1="358.3" y1="182.6" x2="358.3" y2="198.5"/>
			<line class="st8" x1="391.5" y1="182.6" x2="391.5" y2="198.5"/>
		</g>
		<g>
			<line class="st8" x1="374.9" y1="214.6" x2="374.9" y2="230.5"/>
			<line class="st8" x1="358.3" y1="214.6" x2="358.3" y2="230.5"/>
			<line class="st8" x1="391.5" y1="214.6" x2="391.5" y2="230.5"/>
		</g>
		<g>
			<line class="st8" x1="374.9" y1="246.8" x2="374.9" y2="262.7"/>
			<line class="st8" x1="358.3" y1="246.8" x2="358.3" y2="262.7"/>
			<line class="st8" x1="391.5" y1="246.8" x2="391.5" y2="262.7"/>
		</g>
	</g>
</g>
</svg>
