<?xml version="1.0" encoding="utf-8"?>
<!-- Generator: Adobe Illustrator 26.5.0, SVG Export Plug-In . SVG Version: 6.00 Build 0)  -->
<svg version="1.1" id="uuid-8c550b5f-cbcb-4bc4-b020-e1fb9896f357"
	 xmlns="http://www.w3.org/2000/svg" xmlns:xlink="http://www.w3.org/1999/xlink" x="0px" y="0px" viewBox="0 0 272.8 288.9"
	 style="enable-background:new 0 0 272.8 288.9;" xml:space="preserve">
<style type="text/css">
	.st0{fill-rule:evenodd;clip-rule:evenodd;fill:#FCBE1B;}
	.st1{fill:#271A24;}
	.st2{fill:#E8629F;}
	.st3{fill:none;stroke:#E8629F;stroke-width:5;stroke-miterlimit:10;}
	.st4{fill-rule:evenodd;clip-rule:evenodd;fill:#E8629F;}
</style>
<g>
	<polygon class="st0" points="217.7,69.1 136.4,15.3 55.2,69.1 10.6,163.5 10.6,288.9 136.4,288.9 262.3,288.9 262.3,163.5 	"/>
	<g>
		<rect x="105.7" y="218.5" class="st1" width="28.2" height="67.9"/>
		<path class="st2" d="M131.4,221v62.9h-23.2V221H131.4 M136.4,216h-33.2v72.9h33.2V216L136.4,216z"/>
	</g>
	<g>
		<rect x="41.3" y="228.2" class="st1" width="36.5" height="36.5"/>
		<path class="st2" d="M75.4,230.7v31.5H43.8v-31.5H75.4 M80.4,225.7H38.8v41.5h41.6V225.7L80.4,225.7z"/>
	</g>
	<g>
		<rect x="51.2" y="175.9" class="st1" width="16.7" height="16.7"/>
		<path class="st2" d="M66.8,177.1v14.4H52.4v-14.4H66.8 M69.1,174.8h-19v19h19V174.8L69.1,174.8z"/>
	</g>
	<g>
		<rect x="103.5" y="175.9" class="st1" width="16.7" height="16.7"/>
		<path class="st2" d="M119.1,177.1v14.4h-14.4v-14.4H119.1 M121.3,174.8h-19v19h19V174.8L121.3,174.8z"/>
	</g>
	<line class="st3" x1="105.8" y1="283.2" x2="133.8" y2="221.7"/>
	<line class="st3" x1="59.6" y1="225.7" x2="59.6" y2="267.2"/>
	<line class="st3" x1="80.4" y1="246.5" x2="38.8" y2="246.5"/>
	<g>
		<rect x="138.9" y="218.5" class="st1" width="28.2" height="67.9"/>
		<path class="st2" d="M164.7,221v62.9h-23.2V221H164.7 M169.7,216h-33.2v72.9h33.2V216L169.7,216z"/>
	</g>
	<g>
		<rect x="195" y="228.2" class="st1" width="36.5" height="36.5"/>
		<path class="st2" d="M229,230.7v31.5h-31.5v-31.5H229 M234,225.7h-41.5v41.5H234V225.7L234,225.7z"/>
	</g>
	<g>
		<rect x="204.9" y="175.9" class="st1" width="16.7" height="16.7"/>
		<path class="st2" d="M220.4,177.1v14.4H206v-14.4H220.4 M222.7,174.8h-19v19h19V174.8L222.7,174.8z"/>
	</g>
	<g>
		<rect x="152.6" y="175.9" class="st1" width="16.7" height="16.7"/>
		<path class="st2" d="M168.2,177.1v14.4h-14.4v-14.4H168.2 M170.5,174.8h-19v19h19V174.8L170.5,174.8z"/>
	</g>
	<line class="st3" x1="167.1" y1="283.2" x2="139" y2="221.7"/>
	<line class="st3" x1="213.2" y1="225.7" x2="213.2" y2="267.2"/>
	<line class="st3" x1="192.5" y1="246.5" x2="234" y2="246.5"/>
	<polygon class="st4" points="230.2,63.4 136.4,0 42.7,63.4 0,156.9 10.6,163.5 55.2,69.1 136.4,15.3 217.7,69.1 262.3,163.5 
		272.8,156.9 	"/>
	<g>
		<rect x="118.1" y="78.6" class="st1" width="36.5" height="36.5"/>
		<path class="st2" d="M152.2,81.1v31.5h-31.5V81.1H152.2 M157.2,76.1h-41.5v41.5h41.5V76.1L157.2,76.1z"/>
	</g>
	<line class="st3" x1="136.4" y1="76.1" x2="136.4" y2="117.7"/>
	<line class="st3" x1="115.6" y1="96.9" x2="157.2" y2="96.9"/>
</g>
</svg>
