<?xml version="1.0" encoding="utf-8"?>
<!-- Generator: Adobe Illustrator 26.5.0, SVG Export Plug-In . SVG Version: 6.00 Build 0)  -->
<svg version="1.1" id="Immeuble_dystopique_1" xmlns="http://www.w3.org/2000/svg" xmlns:xlink="http://www.w3.org/1999/xlink"
	 x="0px" y="0px" viewBox="0 0 194.2 773.5" style="enable-background:new 0 0 194.2 773.5;" xml:space="preserve">
<style type="text/css">
	.st0{fill-rule:evenodd;clip-rule:evenodd;fill:#FCBE1B;}
	.st1{fill:#261923;}
	.st2{fill:#E8629F;}
	.st3{fill:none;stroke:#E6629F;stroke-width:5;stroke-miterlimit:10;}
</style>
<g>
	<polygon class="st0" points="175.5,749.6 142.5,719 142.5,90 83.1,90 83.1,235.3 46.8,311.2 46.8,719 18.7,749.6 	"/>
	<g>
		<rect x="105" y="110.3" class="st1" width="24.7" height="613.3"/>
		<path class="st2" d="M129.2,110.7v612.4h-23.8V110.7H129.2 M130.1,109.8h-25.6V724h25.6V109.8L130.1,109.8L130.1,109.8z"/>
	</g>
	<g>
		<rect x="67" y="641.5" class="st1" width="31.7" height="7.8"/>
		<path class="st2" d="M98.3,642v6.8H67.5V642H98.3 M99.2,641H66.6v8.7h32.6V641L99.2,641z"/>
	</g>
	<g>
		<rect x="67" y="656.3" class="st1" width="31.7" height="7.8"/>
		<path class="st2" d="M98.3,656.8v6.8H67.5v-6.8H98.3 M99.2,655.9H66.6v8.7h32.6V655.9L99.2,655.9z"/>
	</g>
	<g>
		<rect x="67" y="671.2" class="st1" width="31.7" height="7.8"/>
		<path class="st2" d="M98.3,671.7v6.8H67.5v-6.8H98.3 M99.2,670.8H66.6v8.7h32.6V670.8L99.2,670.8z"/>
	</g>
	<g>
		<rect x="67" y="686.1" class="st1" width="31.7" height="7.8"/>
		<path class="st2" d="M98.3,686.5v6.8H67.5v-6.8H98.3 M99.2,685.6H66.6v8.7h32.6V685.6L99.2,685.6z"/>
	</g>
	<g>
		<rect x="67" y="700.9" class="st1" width="31.7" height="7.8"/>
		<path class="st2" d="M98.3,701.4v6.8H67.5v-6.8H98.3 M99.2,700.5H66.6v8.7h32.6V700.5L99.2,700.5z"/>
	</g>
	<g>
		<rect x="67" y="715.8" class="st1" width="31.7" height="7.8"/>
		<path class="st2" d="M98.3,716.2v6.8H67.5v-6.8H98.3 M99.2,715.3H66.6v8.7h32.6V715.3L99.2,715.3z"/>
	</g>
	<g>
		<polygon class="st1" points="67,600.4 68.1,351.2 96.6,290 96.6,628.8 		"/>
		<path class="st2" d="M96.2,292v335.7l-28.7-27.5l1-248.9L96.2,292 M97.1,287.9l-29.5,63.2l-1,249.5l30.5,29.3L97.1,287.9
			L97.1,287.9L97.1,287.9z"/>
	</g>
	<rect x="18.7" y="749.6" class="st2" width="156.9" height="12"/>
	<rect y="761.6" class="st2" width="194.2" height="12"/>
	<line class="st3" x1="99.6" y1="90" x2="99.6" y2="0"/>
	<line class="st3" x1="110.9" y1="90" x2="110.9" y2="28.5"/>
	<polygon class="st2" points="83.1,235.3 83.1,261.6 46.8,335 46.8,311.2 	"/>
</g>
</svg>
