<?xml version="1.0" encoding="utf-8"?>
<!-- Generator: Adobe Illustrator 26.5.0, SVG Export Plug-In . SVG Version: 6.00 Build 0)  -->
<svg version="1.1" id="Immeuble_dystopique_2" xmlns="http://www.w3.org/2000/svg" xmlns:xlink="http://www.w3.org/1999/xlink"
	 x="0px" y="0px" viewBox="0 0 193.1 797" style="enable-background:new 0 0 193.1 797;" xml:space="preserve">
<style type="text/css">
	.st0{fill-rule:evenodd;clip-rule:evenodd;fill:#FCBE1B;}
	.st1{fill:#261923;}
	.st2{fill:#E8629F;}
	.st3{fill-rule:evenodd;clip-rule:evenodd;fill:#261923;}
</style>
<g>
	<polygon class="st0" points="161.2,768.4 161.2,539 146.3,522.2 146.3,249.9 112.7,212.6 112.7,0 73.6,24.2 73.6,117.5 80,127 
		80,374 60.9,392.3 60.9,537.3 44.3,554.8 44.3,683.2 31.9,683.2 31.9,768.4 	"/>
	<g>
		<rect x="88.7" y="29.7" class="st1" width="16.5" height="73.7"/>
		<path class="st2" d="M104.8,30.1v72.8H89.2V30.1H104.8 M105.7,29.2H88.3v74.6h17.4V29.2L105.7,29.2z"/>
	</g>
	<g>
		<polygon class="st3" points="78,565.7 88.7,555.8 88.7,412.4 106.1,395 106.1,230.9 133,257.8 133,598.5 78,645.8 		"/>
		<path class="st2" d="M106.6,232l25.9,25.9v340.3l-54.1,46.5V566l10.5-9.7l0.3-0.3V412.6l17.1-17.1l0.3-0.3V232 M105.7,229.8v165
			l-17.4,17.4v143.4l-10.8,10v81.2l56-48.1V257.6L105.7,229.8L105.7,229.8L105.7,229.8z"/>
	</g>
	<g>
		<polygon class="st3" points="78,747.4 78,719.1 133,671.8 133,747.4 		"/>
		<path class="st2" d="M132.5,672.8V747H78.4v-27.7L132.5,672.8 M133.5,670.8l-56,48.1v29h56V670.8L133.5,670.8z"/>
	</g>
	<polygon class="st2" points="104,5.4 85,24.2 85,114.6 89.9,120.8 89.9,374.3 72.3,392.9 72.3,540.2 57.4,553.3 57.4,681.4 
		46.8,688.2 46.8,768.4 31.9,768.4 31.9,683.2 44.3,683.2 44.3,554.8 60.9,537.3 60.9,392.3 80,374 80,127 73.6,117.5 73.6,24.2 	
		"/>
	<rect x="18.9" y="768.4" class="st2" width="155.4" height="14.3"/>
	<rect y="782.7" class="st2" width="193.1" height="14.3"/>
</g>
</svg>
