<?xml version="1.0" encoding="utf-8"?>
<!-- Generator: Adobe Illustrator 26.5.0, SVG Export Plug-In . SVG Version: 6.00 Build 0)  -->
<svg version="1.1" id="uuid-a9b12301-2c18-4c7d-8ed0-0d2b216687b9"
	 xmlns="http://www.w3.org/2000/svg" xmlns:xlink="http://www.w3.org/1999/xlink" x="0px" y="0px" viewBox="0 0 502.9 330.7"
	 style="enable-background:new 0 0 502.9 330.7;" xml:space="preserve">
<style type="text/css">
	.st0{fill:#E8629F;}
	.st1{fill:#FCBE1B;}
	.st2{fill:#261923;}
	.st3{fill:none;stroke:#E8629F;stroke-width:2;stroke-miterlimit:10;}
	.st4{fill:none;stroke:#FCBE1B;stroke-miterlimit:10;}
	.st5{fill:#261923;stroke:#E8629F;stroke-width:0.75;stroke-miterlimit:10;}
	.st6{fill:#261923;stroke:#E8629F;stroke-width:0.5;stroke-miterlimit:10;}
	.st7{fill:#261923;stroke:#E8629F;stroke-miterlimit:10;}
</style>
<g>
	<g>
		<rect x="39.9" y="235.5" class="st0" width="42.3" height="77.9"/>
		<rect x="82.2" y="235.5" class="st0" width="32.5" height="77.9"/>
		<rect x="114.7" y="235.5" class="st0" width="60.7" height="80.8"/>
		<rect x="175.3" y="225.3" class="st0" width="55.6" height="92.7"/>
		<rect y="235.5" class="st0" width="39.9" height="77.9"/>
		<g>
			<rect x="40.4" y="58.6" class="st1" width="41.3" height="176.4"/>
			<path class="st0" d="M81.2,59.1v175.4H40.9V59.1L81.2,59.1 M82.2,58.1H39.9v177.4h42.3V58.1L82.2,58.1z"/>
		</g>
		<rect x="82.2" y="116.1" class="st1" width="32.5" height="119.3"/>
		<rect y="109.1" class="st1" width="39.9" height="126.4"/>
		<rect x="420.8" y="235.5" class="st0" width="42.3" height="77.9"/>
		<rect x="388.3" y="235.5" class="st0" width="32.5" height="77.9"/>
		<rect x="327.6" y="235.5" class="st0" width="60.6" height="80.8"/>
		<rect x="272.1" y="225.3" class="st0" width="55.6" height="92.7"/>
		<rect x="463" y="235.5" class="st0" width="39.9" height="77.9"/>
		<g>
			<rect x="421.3" y="58.6" class="st1" width="41.3" height="176.4"/>
			<path class="st0" d="M462,59.1v175.4h-40.3V59.1L462,59.1 M463,58.1h-42.3v177.4H463V58.1L463,58.1z"/>
		</g>
		<rect x="388.3" y="116.1" class="st1" width="32.5" height="119.3"/>
		<polygon class="st1" points="327.6,75.8 251.5,75.8 175.3,75.8 114.7,75.8 114.7,235.5 175.3,235.5 175.3,225.3 251.5,225.3 
			327.6,225.3 327.6,235.5 388.3,235.5 388.3,75.8 		"/>
		<rect x="463" y="109.1" class="st1" width="39.9" height="126.4"/>
	</g>
	<rect y="313.4" class="st1" width="114.7" height="11"/>
	<polygon class="st0" points="2.3,102.2 55.4,77.5 114.7,77.5 114.7,102.2 	"/>
	<rect x="114.7" y="316.3" class="st1" width="62" height="11"/>
	<rect x="176.7" y="318.1" class="st1" width="54.2" height="11"/>
	<g>
		<rect x="82.5" y="102.6" class="st1" width="31.7" height="13.2"/>
		<path class="st0" d="M113.9,102.9v12.5h-31v-12.5H113.9 M114.7,102.2H82.2v14h32.5V102.2L114.7,102.2z"/>
	</g>
	<g>
		<rect x="0.4" y="102.6" class="st1" width="39.2" height="13.2"/>
		<path class="st0" d="M39.2,102.9v12.5H0.8v-12.5H39.2 M39.9,102.2H0v14h39.9V102.2L39.9,102.2z"/>
	</g>
	<g>
		<rect x="40.3" y="102.6" class="st1" width="41.5" height="10.6"/>
		<path class="st0" d="M81.4,102.9v9.8H40.7v-9.8H81.4 M82.2,102.2H39.9v11.3h42.3V102.2L82.2,102.2z"/>
	</g>
	<polygon class="st0" points="117.4,61.4 167.1,38.3 251.5,38.3 251.5,61.4 	"/>
	<polygon class="st0" points="385.5,61.4 335.8,38.3 251.5,38.3 251.5,61.4 	"/>
	<path class="st1" d="M283.5,52.1c-3.5,2.7-2.6-2-1.7-3.1c0.9-1.2,1.7-7.3,1.7-7.3h-4l0.9-4.4h-7.3c0,0,1.7-3.5-1.6-4.3
		s-2.5-4.4-2.5-4.4c-1.8,0.4-2.4-2.2-2.4-2.2l3.9-3.9h-5.5c0,0-0.1-3.1-3.4-4s-1.3-6.4-1.3-6.4l-9-8.6l-9,8.6c0,0,2,5.5-1.3,6.4
		s-3.4,4-3.4,4h-5.5l3.9,3.9c0,0-0.5,2.6-2.4,2.2c0,0,0.8,3.6-2.5,4.4s-1.6,4.3-1.6,4.3h-7.3l0.9,4.4h-4c0,0,0.8,6.1,1.7,7.3
		c0.9,1.2,1.8,5.9-1.7,3.1c-3.5-2.7-7,8-5.4,9.3h74.8C290.6,60.1,287,49.4,283.5,52.1L283.5,52.1z"/>
	<g>
		<path class="st1" d="M202.3,56.9c-1.2-0.9,1.4-3.4,1-4s-1.2-0.1-0.7-4.3h-12.2c0.5,4.2-0.3,3.7-0.7,4.3c-0.4,0.6,2.2,3.1,1,4
			s-3.4,4.5-3.4,4.5h18.4C205.7,61.4,203.5,57.8,202.3,56.9L202.3,56.9z"/>
		<g>
			<polygon class="st0" points="188.5,48.5 195.7,40.7 195.8,34.9 197.3,34.9 197.3,40.6 204.5,48.5 			"/>
			<path class="st1" d="M197.2,35v5.7l0.1,0.1l7,7.5h-15.4l7-7.5l0.1-0.1V35H197.2 M197.5,34.8h-1.8v5.9l-7.4,8h16.6l-7.4-8
				L197.5,34.8L197.5,34.8L197.5,34.8z"/>
		</g>
		<g>
			<rect x="193.4" y="49.6" class="st2" width="6.3" height="10.2"/>
			<path class="st0" d="M199.4,49.8v9.7h-5.8v-9.7H199.4 M199.9,49.3h-6.8V60h6.8V49.3L199.9,49.3z"/>
		</g>
	</g>
	<g>
		<path class="st1" d="M175.3,56.9c-1.2-0.9,1.4-3.4,1-4s-1.2-0.1-0.7-4.3h-12.2c0.5,4.2-0.3,3.7-0.7,4.3c-0.4,0.6,2.2,3.1,1,4
			s-3.4,4.5-3.4,4.5h18.4C178.7,61.4,176.5,57.8,175.3,56.9L175.3,56.9z"/>
		<g>
			<polygon class="st0" points="161.5,48.5 168.7,40.7 168.8,34.9 170.3,34.9 170.3,40.6 177.5,48.5 			"/>
			<path class="st1" d="M170.2,35v5.7l0.1,0.1l7,7.5h-15.4l7-7.5l0.1-0.1V35H170.2 M170.5,34.8h-1.8v5.9l-7.4,8h16.6l-7.4-8
				L170.5,34.8L170.5,34.8L170.5,34.8z"/>
		</g>
		<g>
			<rect x="166.4" y="49.6" class="st2" width="6.3" height="10.2"/>
			<path class="st0" d="M172.4,49.8v9.7h-5.8v-9.7H172.4 M172.9,49.3h-6.8V60h6.8V49.3L172.9,49.3z"/>
		</g>
	</g>
	<g>
		<path class="st1" d="M148.7,56.9c-1.2-0.9,1.4-3.4,1-4c-0.4-0.6-1.2-0.1-0.7-4.3h-12.2c0.5,4.2-0.3,3.7-0.7,4.3
			c-0.4,0.6,2.2,3.1,1,4c-1.2,0.9-3.4,4.5-3.4,4.5h18.4C152.1,61.4,149.9,57.8,148.7,56.9L148.7,56.9z"/>
		<g>
			<polygon class="st0" points="134.9,48.5 142.1,40.7 142.1,34.9 143.7,34.9 143.7,40.6 150.9,48.5 			"/>
			<path class="st1" d="M143.6,35v5.7l0.1,0.1l7,7.5h-15.4l7-7.5l0.1-0.1V35H143.6 M143.8,34.8H142v5.9l-7.4,8h16.6l-7.4-8V34.8
				L143.8,34.8z"/>
		</g>
		<g>
			<rect x="139.8" y="49.6" class="st2" width="6.3" height="10.2"/>
			<path class="st0" d="M145.8,49.8v9.7H140v-9.7H145.8 M146.3,49.3h-6.8V60h6.8V49.3L146.3,49.3z"/>
		</g>
	</g>
	<g>
		<path class="st1" d="M107.8,97.7c-1.2-0.9,1.4-3.4,1-4s-1.2-0.1-0.7-4.3H96c0.5,4.2-0.3,3.7-0.7,4.3s2.2,3.1,1,4s-3.4,4.5-3.4,4.5
			h18.4C111.3,102.2,109,98.6,107.8,97.7L107.8,97.7z"/>
		<g>
			<polygon class="st0" points="94.1,89.3 101.2,81.5 101.3,75.7 102.8,75.7 102.8,81.5 110.1,89.3 			"/>
			<path class="st1" d="M102.7,75.8v5.7l0.1,0.1l7,7.5H94.3l7-7.5l0.1-0.1v-5.7H102.7 M103,75.6h-1.8v5.9l-7.4,8h16.6l-7.4-8V75.6
				L103,75.6z"/>
		</g>
		<g>
			<rect x="98.9" y="90.4" class="st2" width="6.3" height="10.2"/>
			<path class="st0" d="M105,90.7v9.7h-5.8v-9.7L105,90.7 M105.5,90.2h-6.8v10.7h6.8V90.2L105.5,90.2z"/>
		</g>
	</g>
	<g>
		<path class="st1" d="M32,97.7c-1.2-0.9,1.4-3.4,1-4s-1.2-0.1-0.7-4.3H20.2c0.5,4.2-0.3,3.7-0.7,4.3s2.2,3.1,1,4s-3.4,4.5-3.4,4.5
			h18.4C35.5,102.2,33.2,98.6,32,97.7L32,97.7z"/>
		<g>
			<polygon class="st0" points="18.3,89.3 25.5,81.5 25.5,75.7 27.1,75.7 27.1,81.5 34.3,89.3 			"/>
			<path class="st1" d="M26.9,75.8v5.7l0.1,0.1l7,7.5H18.6l7-7.5l0.1-0.1v-5.7H26.9 M27.2,75.6h-1.8v5.9l-7.4,8h16.6l-7.4-8V75.6
				L27.2,75.6z"/>
		</g>
		<g>
			<rect x="23.1" y="90.4" class="st2" width="6.3" height="10.2"/>
			<path class="st0" d="M29.2,90.7v9.7h-5.8v-9.7L29.2,90.7 M29.7,90.2h-6.8v10.7h6.8V90.2L29.7,90.2z"/>
		</g>
	</g>
	<g>
		<g>
			<rect x="20.2" y="238.8" class="st2" width="9.4" height="15.2"/>
			<path class="st1" d="M29.2,239.3v14.2h-8.4v-14.2H29.2 M30.2,238.3H19.8v16.2h10.4V238.3L30.2,238.3z"/>
		</g>
		<g>
			<rect x="54" y="238.8" class="st2" width="9.4" height="15.2"/>
			<path class="st1" d="M62.9,239.3v14.2h-8.4v-14.2H62.9 M63.9,238.3H53.5v16.2h10.4V238.3L63.9,238.3z"/>
		</g>
		<g>
			<rect x="97.3" y="238.8" class="st2" width="9.4" height="15.2"/>
			<path class="st1" d="M106.3,239.3v14.2h-8.4v-14.2H106.3 M107.3,238.3H96.9v16.2h10.4V238.3L107.3,238.3z"/>
		</g>
		<g>
			<rect x="142.5" y="238.7" class="st2" width="15.3" height="22.4"/>
			<path class="st1" d="M157.5,239.1v21.7h-14.5v-21.7H157.5 M158.2,238.3h-16v23.2h16V238.3L158.2,238.3L158.2,238.3z"/>
		</g>
		<g>
			<rect x="195.4" y="238.7" class="st2" width="15.3" height="22.4"/>
			<path class="st1" d="M210.4,239.1v21.7h-14.5v-21.7H210.4 M211.1,238.3h-16v23.2h16V238.3L211.1,238.3z"/>
		</g>
	</g>
	<g>
		<g>
			<rect x="20.2" y="281.3" class="st2" width="9.4" height="15.2"/>
			<path class="st1" d="M29.2,281.8V296h-8.4v-14.2H29.2 M30.2,280.8H19.8V297h10.4V280.8L30.2,280.8z"/>
		</g>
		<g>
			<rect x="54" y="281.3" class="st2" width="9.4" height="15.2"/>
			<path class="st1" d="M62.9,281.8V296h-8.4v-14.2H62.9 M63.9,280.8H53.5V297h10.4V280.8L63.9,280.8z"/>
		</g>
		<g>
			<rect x="97.3" y="281.3" class="st2" width="9.4" height="15.2"/>
			<path class="st1" d="M106.3,281.8V296h-8.4v-14.2H106.3 M107.3,280.8H96.9V297h10.4V280.8L107.3,280.8z"/>
		</g>
		<g>
			<rect x="142.5" y="281.1" class="st2" width="15.3" height="22.4"/>
			<path class="st1" d="M157.5,281.5v21.7h-14.5v-21.7H157.5 M158.2,280.8h-16v23.2h16V280.8L158.2,280.8L158.2,280.8z"/>
		</g>
		<g>
			<rect x="195.4" y="281.1" class="st2" width="15.3" height="22.4"/>
			<path class="st1" d="M210.4,281.5v21.7h-14.5v-21.7H210.4 M211.1,280.8h-16v23.2h16V280.8L211.1,280.8z"/>
		</g>
	</g>
	<g>
		<g>
			<path class="st2" d="M138.1,224.3v-17c0-2.7,2.2-4.8,4.8-4.8c2.7,0,4.8,2.2,4.8,4.8v17H138.1z"/>
			<path class="st0" d="M143,202.9c2.5,0,4.5,2,4.5,4.5v16.6h-8.9v-16.6C138.5,204.9,140.5,202.9,143,202.9 M143,202.1L143,202.1
				c-2.9,0-5.2,2.3-5.2,5.2v17.3h10.4v-17.3C148.2,204.4,145.8,202.1,143,202.1L143,202.1L143,202.1z"/>
		</g>
		<g>
			<path class="st2" d="M97.2,224.3v-17c0-2.7,2.2-4.8,4.8-4.8s4.8,2.2,4.8,4.8v17H97.2L97.2,224.3z"/>
			<path class="st0" d="M102.1,202.9c2.5,0,4.5,2,4.5,4.5v16.6h-8.9v-16.6C97.6,204.9,99.6,202.9,102.1,202.9 M102.1,202.1
				L102.1,202.1c-2.9,0-5.2,2.3-5.2,5.2v17.3h10.4v-17.3C107.3,204.4,104.9,202.1,102.1,202.1L102.1,202.1L102.1,202.1z"/>
		</g>
		<g>
			<path class="st2" d="M23.2,224.3v-17c0-2.7,2.2-4.8,4.8-4.8s4.8,2.2,4.8,4.8v17H23.2L23.2,224.3z"/>
			<path class="st0" d="M28.1,202.9c2.5,0,4.5,2,4.5,4.5v16.6h-8.9v-16.6C23.6,204.9,25.6,202.9,28.1,202.9 M28.1,202.1L28.1,202.1
				c-2.9,0-5.2,2.3-5.2,5.2v17.3h10.4v-17.3C33.3,204.4,31,202.1,28.1,202.1L28.1,202.1L28.1,202.1z"/>
		</g>
		<g>
			<path class="st2" d="M164.7,224.3v-17c0-2.7,2.2-4.8,4.8-4.8s4.8,2.2,4.8,4.8v17H164.7z"/>
			<path class="st0" d="M169.5,202.9c2.5,0,4.5,2,4.5,4.5v16.6h-8.9v-16.6C165.1,204.9,167.1,202.9,169.5,202.9 M169.5,202.1
				c-2.9,0-5.2,2.3-5.2,5.2v17.3h10.4v-17.3C174.8,204.4,172.4,202.1,169.5,202.1L169.5,202.1L169.5,202.1z"/>
		</g>
		<g>
			<path class="st2" d="M57.3,221.4v-18.8c0-1.7,1.4-3.2,3.1-3.2s3.1,1.4,3.1,3.2v18.8H57.3L57.3,221.4z"/>
			<path class="st0" d="M60.5,199.7c1.6,0,2.9,1.3,2.9,2.8v18.5h-5.7v-18.5C57.6,201,58.9,199.7,60.5,199.7 M60.5,199.1L60.5,199.1
				c-1.9,0-3.5,1.5-3.5,3.5v19.1h6.9v-19.1C63.9,200.7,62.4,199.1,60.5,199.1L60.5,199.1L60.5,199.1z"/>
		</g>
	</g>
	<g>
		<polyline class="st3" points="0,144.4 39.9,144.4 42.7,143 82.2,143 84.4,144.4 115.6,144.4 117.3,143.7 251.5,143.7 		"/>
		<polyline class="st3" points="251.5,184.8 117.3,184.8 115.6,185.5 84.4,185.5 82.2,184 42.7,184 39.9,185.5 0,185.5 		"/>
		<polyline class="st3" points="0,225.4 39.9,225.4 42.7,223.9 82.2,223.9 84.4,225.4 115.6,225.4 117.7,226.4 176.7,226.4 		"/>
		<line class="st3" x1="251.5" y1="105.6" x2="117.4" y2="105.6"/>
		<line class="st3" x1="37.1" y1="67.7" x2="83.8" y2="67.7"/>
	</g>
	<rect x="114.7" y="75.8" class="st0" width="9.6" height="159.6"/>
	<rect y="116.1" class="st0" width="7.6" height="119.3"/>
	<rect y="235.5" class="st1" width="7.6" height="77.9"/>
	<rect x="114.7" y="235.5" class="st1" width="9.6" height="80.8"/>
	<rect x="176.7" y="225.2" class="st1" width="7.8" height="92.9"/>
	<g>
		<rect x="55.3" y="20.1" class="st1" width="11.5" height="18.2"/>
		<rect x="60" class="st1" width="2.1" height="13"/>
		<path class="st0" d="M82.2,58.1c0-14.2-9.5-25.7-21.1-25.7S39.9,43.9,39.9,58.1"/>
		<path class="st0" d="M66.8,20.1c0-5.4-2.6-9.7-5.7-9.7s-5.7,4.4-5.7,9.7"/>
	</g>
	<g>
		<line class="st4" x1="39.9" y1="313.4" x2="39.9" y2="235.5"/>
		<line class="st4" x1="82.2" y1="235.5" x2="82.2" y2="313.4"/>
	</g>
	<rect x="388.3" y="313.4" class="st1" width="114.7" height="11"/>
	<g>
		<rect x="114.9" y="61.6" class="st1" width="273.1" height="14"/>
		<path class="st0" d="M387.8,61.9v13.5H115.2V61.9H387.8 M388.3,61.4H114.7v14.5h273.6V61.4L388.3,61.4z"/>
	</g>
	<polygon class="st0" points="500.6,102.2 447.5,77.5 388.3,77.5 388.3,102.2 	"/>
	<rect x="326.3" y="316.3" class="st1" width="62" height="11"/>
	<rect x="272.1" y="318.1" class="st1" width="54.2" height="11"/>
	<g>
		<rect x="388.6" y="102.6" class="st1" width="31.7" height="13.2"/>
		<path class="st0" d="M420,102.9v12.5h-31v-12.5H420 M420.8,102.2h-32.5v14h32.5V102.2L420.8,102.2z"/>
	</g>
	<g>
		<rect x="463.4" y="102.6" class="st1" width="39.2" height="13.2"/>
		<path class="st0" d="M502.2,102.9v12.5h-38.4v-12.5H502.2 M502.9,102.2H463v14h39.9V102.2L502.9,102.2z"/>
	</g>
	<g>
		<rect x="421.1" y="102.6" class="st1" width="41.5" height="10.6"/>
		<path class="st0" d="M462.3,102.9v9.8h-40.8v-9.8H462.3 M463,102.2h-42.3v11.3H463V102.2L463,102.2z"/>
	</g>
	<g>
		<path class="st1" d="M300.6,56.9c1.2-0.9-1.4-3.4-1-4s1.2-0.1,0.7-4.3h6.1h6.1c-0.5,4.2,0.3,3.7,0.7,4.3c0.4,0.6-2.2,3.1-1,4
			s3.4,4.5,3.4,4.5h-9.2h-9.2C297.2,61.4,299.4,57.8,300.6,56.9L300.6,56.9z"/>
		<g>
			<polygon class="st0" points="298.4,48.5 305.6,40.7 305.6,34.9 307.2,34.9 307.2,40.6 314.4,48.5 			"/>
			<path class="st1" d="M307.1,35v5.7l0.1,0.1l7,7.5h-15.4l7-7.5l0.1-0.1V35H307.1 M307.3,34.8h-1.8v5.9l-7.4,8h16.6l-7.4-8
				L307.3,34.8L307.3,34.8L307.3,34.8z"/>
		</g>
		<g>
			<rect x="303.2" y="49.6" class="st2" width="6.3" height="10.2"/>
			<path class="st0" d="M309.3,49.8v9.7h-5.8v-9.7H309.3 M309.8,49.3H303V60h6.8V49.3L309.8,49.3z"/>
		</g>
	</g>
	<g>
		<path class="st1" d="M327.6,56.9c1.2-0.9-1.4-3.4-1-4s1.2-0.1,0.7-4.3h6.1h6.1c-0.5,4.2,0.3,3.7,0.7,4.3c0.4,0.6-2.2,3.1-1,4
			s3.4,4.5,3.4,4.5h-9.2h-9.2C324.2,61.4,326.4,57.8,327.6,56.9L327.6,56.9z"/>
		<g>
			<polygon class="st0" points="325.4,48.5 332.6,40.7 332.6,34.9 334.2,34.9 334.2,40.6 341.4,48.5 			"/>
			<path class="st1" d="M334.1,35v5.7l0.1,0.1l7,7.5h-15.4l7-7.5l0.1-0.1V35H334.1 M334.3,34.8h-1.8v5.9l-7.4,8h16.6l-7.4-8
				L334.3,34.8L334.3,34.8L334.3,34.8z"/>
		</g>
		<g>
			<rect x="330.2" y="49.6" class="st2" width="6.3" height="10.2"/>
			<path class="st0" d="M336.3,49.8v9.7h-5.8v-9.7H336.3 M336.8,49.3H330V60h6.8V49.3L336.8,49.3z"/>
		</g>
	</g>
	<g>
		<path class="st1" d="M354.2,56.9c1.2-0.9-1.4-3.4-1-4s1.2-0.1,0.7-4.3h6.1h6.1c-0.5,4.2,0.3,3.7,0.7,4.3c0.4,0.6-2.2,3.1-1,4
			s3.4,4.5,3.4,4.5H360h-9.2C350.8,61.4,353,57.8,354.2,56.9L354.2,56.9z"/>
		<g>
			<polygon class="st0" points="352,48.5 359.2,40.7 359.2,34.9 360.8,34.9 360.8,40.6 368,48.5 			"/>
			<path class="st1" d="M360.7,35v5.7l0.1,0.1l7,7.5h-15.4l7-7.5l0.1-0.1V35H360.7 M360.9,34.8h-1.8v5.9l-7.4,8h16.6l-7.4-8
				L360.9,34.8L360.9,34.8L360.9,34.8z"/>
		</g>
		<g>
			<rect x="356.9" y="49.6" class="st2" width="6.3" height="10.2"/>
			<path class="st0" d="M362.9,49.8v9.7h-5.8v-9.7H362.9 M363.4,49.3h-6.8V60h6.8V49.3L363.4,49.3z"/>
		</g>
	</g>
	<g>
		<path class="st1" d="M395.1,97.7c1.2-0.9-1.4-3.4-1-4s1.2-0.1,0.7-4.3h6.1h6.1c-0.5,4.2,0.3,3.7,0.7,4.3c0.4,0.6-2.2,3.1-1,4
			s3.4,4.5,3.4,4.5h-9.2h-9.2C391.6,102.2,393.9,98.6,395.1,97.7L395.1,97.7z"/>
		<g>
			<polygon class="st0" points="392.9,89.3 400,81.5 400.1,75.7 401.7,75.7 401.7,81.5 408.9,89.3 			"/>
			<path class="st1" d="M401.5,75.8v5.7l0.1,0.1l7,7.5h-15.4l7-7.5l0.1-0.1v-5.7H401.5 M401.8,75.6H400v5.9l-7.4,8h16.6l-7.4-8
				L401.8,75.6L401.8,75.6L401.8,75.6z"/>
		</g>
		<g>
			<rect x="397.7" y="90.4" class="st2" width="6.3" height="10.2"/>
			<path class="st0" d="M403.8,90.7v9.7H398v-9.7L403.8,90.7 M404.3,90.2h-6.8v10.7h6.8V90.2L404.3,90.2z"/>
		</g>
	</g>
	<g>
		<path class="st1" d="M470.9,97.7c1.2-0.9-1.4-3.4-1-4c0.4-0.6,1.2-0.1,0.7-4.3h6.1h6.1c-0.5,4.2,0.3,3.7,0.7,4.3s-2.2,3.1-1,4
			s3.4,4.5,3.4,4.5h-9.2h-9.2C467.4,102.2,469.7,98.6,470.9,97.7L470.9,97.7z"/>
		<g>
			<polygon class="st0" points="468.7,89.3 475.8,81.5 475.9,75.7 477.4,75.7 477.4,81.5 484.7,89.3 			"/>
			<path class="st1" d="M477.3,75.8v5.7l0.1,0.1l7,7.5h-15.4l7-7.5l0.1-0.1v-5.7H477.3 M477.6,75.6h-1.8v5.9l-7.4,8h16.6l-7.4-8
				V75.6L477.6,75.6z"/>
		</g>
		<g>
			<rect x="473.5" y="90.4" class="st2" width="6.3" height="10.2"/>
			<path class="st0" d="M479.6,90.7v9.7h-5.8v-9.7L479.6,90.7 M480.1,90.2h-6.8v10.7h6.8V90.2L480.1,90.2z"/>
		</g>
	</g>
	<g>
		<g>
			<path class="st2" d="M138.1,101.8v-17c0-2.7,2.2-4.8,4.8-4.8c2.7,0,4.8,2.2,4.8,4.8v17H138.1z"/>
			<path class="st0" d="M143,80.4c2.5,0,4.5,2,4.5,4.5v16.6h-8.9V84.8C138.5,82.4,140.5,80.4,143,80.4 M143,79.6L143,79.6
				c-2.9,0-5.2,2.3-5.2,5.2v17.4h10.4V84.8C148.2,82,145.8,79.6,143,79.6L143,79.6L143,79.6z"/>
		</g>
		<g>
			<path class="st2" d="M164.7,101.8v-17c0-2.7,2.2-4.8,4.8-4.8s4.8,2.2,4.8,4.8v17H164.7z"/>
			<path class="st0" d="M169.5,80.4c2.5,0,4.5,2,4.5,4.5v16.6h-8.9V84.8C165.1,82.4,167.1,80.4,169.5,80.4 M169.5,79.6
				c-2.9,0-5.2,2.3-5.2,5.2v17.4h10.4V84.8C174.8,82,172.4,79.6,169.5,79.6L169.5,79.6L169.5,79.6z"/>
		</g>
		<g>
			<path class="st2" d="M191.7,101.8v-17c0-2.7,2.2-4.8,4.8-4.8s4.8,2.2,4.8,4.8v17H191.7z"/>
			<path class="st0" d="M196.5,80.4c2.5,0,4.5,2,4.5,4.5v16.6h-8.9V84.8C192.1,82.4,194.1,80.4,196.5,80.4 M196.5,79.6
				c-2.9,0-5.2,2.3-5.2,5.2v17.4h10.4V84.8C201.8,82,199.4,79.6,196.5,79.6L196.5,79.6L196.5,79.6z"/>
		</g>
		<g>
			<path class="st2" d="M217.6,101.8v-17c0-2.7,2.2-4.8,4.8-4.8s4.8,2.2,4.8,4.8v17H217.6z"/>
			<path class="st0" d="M222.5,80.4c2.5,0,4.5,2,4.5,4.5v16.6H218V84.8C218,82.4,220,80.4,222.5,80.4 M222.5,79.6
				c-2.9,0-5.2,2.3-5.2,5.2v17.4h10.4V84.8C227.7,82,225.4,79.6,222.5,79.6L222.5,79.6L222.5,79.6z"/>
		</g>
		<g>
			<path class="st2" d="M355.1,101.8v-17c0-2.7,2.2-4.8,4.8-4.8s4.8,2.2,4.8,4.8v17H355.1L355.1,101.8z"/>
			<path class="st0" d="M360,80.4c2.5,0,4.5,2,4.5,4.5v16.6h-8.9V84.8C355.5,82.4,357.5,80.4,360,80.4 M360,79.6
				c-2.9,0-5.2,2.3-5.2,5.2v17.4h10.4V84.8C365.2,82,362.9,79.6,360,79.6L360,79.6L360,79.6z"/>
		</g>
		<g>
			<path class="st2" d="M328.6,101.8v-17c0-2.7,2.2-4.8,4.8-4.8s4.8,2.2,4.8,4.8v17H328.6z"/>
			<path class="st0" d="M333.4,80.4c2.5,0,4.5,2,4.5,4.5v16.6h-8.9V84.8C328.9,82.4,330.9,80.4,333.4,80.4 M333.4,79.6
				c-2.9,0-5.2,2.3-5.2,5.2v17.4h10.4V84.8C338.6,82,336.3,79.6,333.4,79.6L333.4,79.6L333.4,79.6z"/>
		</g>
		<g>
			<path class="st2" d="M301.6,101.8v-17c0-2.7,2.2-4.8,4.8-4.8s4.8,2.2,4.8,4.8v17H301.6z"/>
			<path class="st0" d="M306.4,80.4c2.5,0,4.5,2,4.5,4.5v16.6h-8.9V84.8C301.9,82.4,303.9,80.4,306.4,80.4 M306.4,79.6
				c-2.9,0-5.2,2.3-5.2,5.2v17.4h10.4V84.8C311.6,82,309.3,79.6,306.4,79.6L306.4,79.6L306.4,79.6z"/>
		</g>
		<g>
			<path class="st2" d="M275.6,101.8v-17c0-2.7,2.2-4.8,4.8-4.8s4.8,2.2,4.8,4.8v17H275.6z"/>
			<path class="st0" d="M280.4,80.4c2.5,0,4.5,2,4.5,4.5v16.6H276V84.8C276,82.4,278,80.4,280.4,80.4 M280.5,79.6
				c-2.9,0-5.2,2.3-5.2,5.2v17.4h10.4V84.8C285.7,82,283.3,79.6,280.5,79.6L280.5,79.6L280.5,79.6z"/>
		</g>
		<path class="st5" d="M251.5,79.6c-2.9,0-5.2,2.3-5.2,5.2v17.4h10.4V84.8C256.7,82,254.3,79.6,251.5,79.6L251.5,79.6z"/>
	</g>
	<g>
		<g>
			<rect x="473.2" y="238.8" class="st2" width="9.4" height="15.2"/>
			<path class="st1" d="M482.2,239.3v14.2h-8.4v-14.2H482.2 M483.2,238.3h-10.4v16.2h10.4V238.3L483.2,238.3z"/>
		</g>
		<g>
			<rect x="439.5" y="238.8" class="st2" width="9.4" height="15.2"/>
			<path class="st1" d="M448.4,239.3v14.2H440v-14.2H448.4 M449.4,238.3H439v16.2h10.4V238.3L449.4,238.3z"/>
		</g>
		<g>
			<rect x="396.2" y="238.8" class="st2" width="9.4" height="15.2"/>
			<path class="st1" d="M405.1,239.3v14.2h-8.4v-14.2H405.1 M406.1,238.3h-10.4v16.2h10.4V238.3L406.1,238.3z"/>
		</g>
		<g>
			<rect x="345.1" y="238.7" class="st2" width="15.3" height="22.4"/>
			<path class="st1" d="M360,239.1v21.7h-14.5v-21.7H360 M360.8,238.3h-16v23.2h16V238.3L360.8,238.3z"/>
		</g>
		<g>
			<rect x="292.2" y="238.7" class="st2" width="15.3" height="22.4"/>
			<path class="st1" d="M307.1,239.1v21.7h-14.5v-21.7H307.1 M307.9,238.3h-16v23.2h16V238.3L307.9,238.3z"/>
		</g>
	</g>
	<g>
		<g>
			<rect x="473.2" y="281.3" class="st2" width="9.4" height="15.2"/>
			<path class="st1" d="M482.2,281.8V296h-8.4v-14.2H482.2 M483.2,280.8h-10.4V297h10.4V280.8L483.2,280.8z"/>
		</g>
		<g>
			<rect x="439.5" y="281.3" class="st2" width="9.4" height="15.2"/>
			<path class="st1" d="M448.4,281.8V296H440v-14.2H448.4 M449.4,280.8H439V297h10.4V280.8L449.4,280.8z"/>
		</g>
		<g>
			<rect x="396.2" y="281.3" class="st2" width="9.4" height="15.2"/>
			<path class="st1" d="M405.1,281.8V296h-8.4v-14.2H405.1 M406.1,280.8h-10.4V297h10.4V280.8L406.1,280.8z"/>
		</g>
		<g>
			<rect x="345.1" y="281.1" class="st2" width="15.3" height="22.4"/>
			<path class="st1" d="M360,281.5v21.7h-14.5v-21.7H360 M360.8,280.8h-16v23.2h16V280.8L360.8,280.8z"/>
		</g>
		<g>
			<rect x="292.2" y="281.1" class="st2" width="15.3" height="22.4"/>
			<path class="st1" d="M307.1,281.5v21.7h-14.5v-21.7H307.1 M307.9,280.8h-16v23.2h16V280.8L307.9,280.8z"/>
		</g>
	</g>
	<g>
		<g>
			<path class="st2" d="M138.1,142.6v-17c0-2.7,2.2-4.8,4.8-4.8c2.7,0,4.8,2.2,4.8,4.8v17H138.1z"/>
			<path class="st0" d="M143,121.2c2.5,0,4.5,2,4.5,4.5v16.6h-8.9v-16.6C138.5,123.2,140.5,121.2,143,121.2 M143,120.4L143,120.4
				c-2.9,0-5.2,2.3-5.2,5.2V143h10.4v-17.3C148.2,122.8,145.8,120.4,143,120.4L143,120.4L143,120.4z"/>
		</g>
		<g>
			<path class="st2" d="M164.7,142.6v-17c0-2.7,2.2-4.8,4.8-4.8s4.8,2.2,4.8,4.8v17H164.7z"/>
			<path class="st0" d="M169.5,121.2c2.5,0,4.5,2,4.5,4.5v16.6h-8.9v-16.6C165.1,123.2,167.1,121.2,169.5,121.2 M169.5,120.4
				c-2.9,0-5.2,2.3-5.2,5.2V143h10.4v-17.3C174.8,122.8,172.4,120.4,169.5,120.4L169.5,120.4L169.5,120.4z"/>
		</g>
		<g>
			<path class="st2" d="M191.7,142.6v-17c0-2.7,2.2-4.8,4.8-4.8s4.8,2.2,4.8,4.8v17H191.7z"/>
			<path class="st0" d="M196.5,121.2c2.5,0,4.5,2,4.5,4.5v16.6h-8.9v-16.6C192.1,123.2,194.1,121.2,196.5,121.2 M196.5,120.4
				c-2.9,0-5.2,2.3-5.2,5.2V143h10.4v-17.3C201.8,122.8,199.4,120.4,196.5,120.4L196.5,120.4L196.5,120.4z"/>
		</g>
		<g>
			<path class="st2" d="M217.6,142.6v-17c0-2.7,2.2-4.8,4.8-4.8s4.8,2.2,4.8,4.8v17H217.6z"/>
			<path class="st0" d="M222.5,121.2c2.5,0,4.5,2,4.5,4.5v16.6H218v-16.6C218,123.2,220,121.2,222.5,121.2 M222.5,120.4
				c-2.9,0-5.2,2.3-5.2,5.2V143h10.4v-17.3C227.7,122.8,225.4,120.4,222.5,120.4L222.5,120.4L222.5,120.4z"/>
		</g>
		<g>
			<path class="st2" d="M97.2,142.6v-17c0-2.7,2.2-4.8,4.8-4.8s4.8,2.2,4.8,4.8v17H97.2L97.2,142.6z"/>
			<path class="st0" d="M102.1,121.2c2.5,0,4.5,2,4.5,4.5v16.6h-8.9v-16.6C97.6,123.2,99.6,121.2,102.1,121.2 M102.1,120.4
				L102.1,120.4c-2.9,0-5.2,2.3-5.2,5.2V143h10.4v-17.3C107.3,122.8,104.9,120.4,102.1,120.4L102.1,120.4L102.1,120.4z"/>
		</g>
		<g>
			<path class="st2" d="M23.2,142.6v-17c0-2.7,2.2-4.8,4.8-4.8s4.8,2.2,4.8,4.8v17H23.2L23.2,142.6z"/>
			<path class="st0" d="M28.1,121.2c2.5,0,4.5,2,4.5,4.5v16.6h-8.9v-16.6C23.6,123.2,25.6,121.2,28.1,121.2 M28.1,120.4L28.1,120.4
				c-2.9,0-5.2,2.3-5.2,5.2V143h10.4v-17.3C33.3,122.8,31,120.4,28.1,120.4L28.1,120.4L28.1,120.4z"/>
		</g>
		<g>
			<path class="st2" d="M71.7,141.3v-18.8c0-1.7,1.4-3.2,3.1-3.2s3.1,1.4,3.1,3.2v18.8H71.7L71.7,141.3z"/>
			<path class="st0" d="M74.8,119.6c1.6,0,2.9,1.3,2.9,2.8V141H72v-18.5C72,120.9,73.3,119.6,74.8,119.6 M74.8,119L74.8,119
				c-1.9,0-3.5,1.5-3.5,3.5v19.1h6.9v-19.1C78.3,120.6,76.7,119,74.8,119L74.8,119L74.8,119z"/>
		</g>
		<g>
			<path class="st2" d="M43,141.3v-18.8c0-1.7,1.4-3.2,3.1-3.2s3.1,1.4,3.1,3.2v18.8H43L43,141.3z"/>
			<path class="st0" d="M46.1,119.6c1.6,0,2.9,1.3,2.9,2.8V141h-5.7v-18.5C43.3,120.9,44.5,119.6,46.1,119.6 M46.1,119L46.1,119
				c-1.9,0-3.5,1.5-3.5,3.5v19.1h6.9v-19.1C49.6,120.6,48,119,46.1,119L46.1,119L46.1,119z"/>
		</g>
		<g>
			<path class="st2" d="M57.3,141.3v-18.8c0-1.7,1.4-3.2,3.1-3.2s3.1,1.4,3.1,3.2v18.8H57.3L57.3,141.3z"/>
			<path class="st0" d="M60.5,119.6c1.6,0,2.9,1.3,2.9,2.8V141h-5.7v-18.5C57.6,120.9,58.9,119.6,60.5,119.6 M60.5,119L60.5,119
				c-1.9,0-3.5,1.5-3.5,3.5v19.1h6.9v-19.1C63.9,120.6,62.4,119,60.5,119L60.5,119L60.5,119z"/>
		</g>
		<g>
			<path class="st2" d="M355.1,142.6v-17c0-2.7,2.2-4.8,4.8-4.8s4.8,2.2,4.8,4.8v17H355.1L355.1,142.6z"/>
			<path class="st0" d="M360,121.2c2.5,0,4.5,2,4.5,4.5v16.6h-8.9v-16.6C355.5,123.2,357.5,121.2,360,121.2 M360,120.4
				c-2.9,0-5.2,2.3-5.2,5.2V143h10.4v-17.3C365.2,122.8,362.9,120.4,360,120.4L360,120.4L360,120.4z"/>
		</g>
		<g>
			<path class="st2" d="M328.6,142.6v-17c0-2.7,2.2-4.8,4.8-4.8s4.8,2.2,4.8,4.8v17H328.6z"/>
			<path class="st0" d="M333.4,121.2c2.5,0,4.5,2,4.5,4.5v16.6h-8.9v-16.6C328.9,123.2,330.9,121.2,333.4,121.2 M333.4,120.4
				c-2.9,0-5.2,2.3-5.2,5.2V143h10.4v-17.3C338.6,122.8,336.3,120.4,333.4,120.4L333.4,120.4L333.4,120.4z"/>
		</g>
		<g>
			<path class="st2" d="M301.6,142.6v-17c0-2.7,2.2-4.8,4.8-4.8s4.8,2.2,4.8,4.8v17H301.6z"/>
			<path class="st0" d="M306.4,121.2c2.5,0,4.5,2,4.5,4.5v16.6h-8.9v-16.6C301.9,123.2,303.9,121.2,306.4,121.2 M306.4,120.4
				c-2.9,0-5.2,2.3-5.2,5.2V143h10.4v-17.3C311.6,122.8,309.3,120.4,306.4,120.4L306.4,120.4L306.4,120.4z"/>
		</g>
		<g>
			<path class="st2" d="M275.6,142.6v-17c0-2.7,2.2-4.8,4.8-4.8s4.8,2.2,4.8,4.8v17H275.6z"/>
			<path class="st0" d="M280.4,121.2c2.5,0,4.5,2,4.5,4.5v16.6H276v-16.6C276,123.2,278,121.2,280.4,121.2 M280.5,120.4
				c-2.9,0-5.2,2.3-5.2,5.2V143h10.4v-17.3C285.7,122.8,283.3,120.4,280.5,120.4L280.5,120.4L280.5,120.4z"/>
		</g>
		<path class="st5" d="M251.5,120.4c-2.9,0-5.2,2.3-5.2,5.2V143h10.4v-17.3C256.7,122.8,254.3,120.4,251.5,120.4L251.5,120.4z"/>
		<g>
			<path class="st2" d="M396,142.6v-17c0-2.7,2.2-4.8,4.8-4.8s4.8,2.2,4.8,4.8v17H396z"/>
			<path class="st0" d="M400.9,121.2c2.5,0,4.5,2,4.5,4.5v16.6h-8.9v-16.6C396.4,123.2,398.4,121.2,400.9,121.2 M400.9,120.4
				L400.9,120.4c-2.9,0-5.2,2.3-5.2,5.2V143h10.4v-17.3C406.1,122.8,403.8,120.4,400.9,120.4L400.9,120.4L400.9,120.4z"/>
		</g>
		<g>
			<path class="st2" d="M470,142.6v-17c0-2.7,2.2-4.8,4.8-4.8s4.8,2.2,4.8,4.8v17H470L470,142.6z"/>
			<path class="st0" d="M474.8,121.2c2.5,0,4.5,2,4.5,4.5v16.6h-8.9v-16.6C470.4,123.2,472.4,121.2,474.8,121.2 M474.8,120.4
				c-2.9,0-5.2,2.3-5.2,5.2V143h10.4v-17.3C480.1,122.8,477.7,120.4,474.8,120.4L474.8,120.4L474.8,120.4z"/>
		</g>
		<g>
			<path class="st2" d="M425,141.3v-18.8c0-1.7,1.4-3.2,3.2-3.2s3.2,1.4,3.2,3.2v18.8H425L425,141.3z"/>
			<path class="st0" d="M428.1,119.6c1.6,0,2.8,1.3,2.8,2.8V141h-5.7v-18.5C425.3,120.9,426.6,119.6,428.1,119.6 M428.1,119
				c-1.9,0-3.5,1.5-3.5,3.5v19.1h6.9v-19.1C431.6,120.6,430,119,428.1,119L428.1,119L428.1,119z"/>
		</g>
		<g>
			<path class="st2" d="M453.7,141.3v-18.8c0-1.7,1.4-3.2,3.2-3.2s3.2,1.4,3.2,3.2v18.8H453.7L453.7,141.3z"/>
			<path class="st0" d="M456.8,119.6c1.6,0,2.8,1.3,2.8,2.8V141H454v-18.5C454,120.9,455.3,119.6,456.8,119.6 M456.8,119
				c-1.9,0-3.5,1.5-3.5,3.5v19.1h6.9v-19.1C460.3,120.6,458.7,119,456.8,119L456.8,119L456.8,119z"/>
		</g>
		<g>
			<path class="st2" d="M439.3,141.3v-18.8c0-1.7,1.4-3.2,3.2-3.2s3.2,1.4,3.2,3.2v18.8H439.3L439.3,141.3z"/>
			<path class="st0" d="M442.5,119.6c1.6,0,2.8,1.3,2.8,2.8V141h-5.7v-18.5C439.6,120.9,440.9,119.6,442.5,119.6 M442.5,119
				c-1.9,0-3.5,1.5-3.5,3.5v19.1h6.9v-19.1C445.9,120.6,444.4,119,442.5,119L442.5,119L442.5,119z"/>
		</g>
	</g>
	<g>
		<g>
			<path class="st2" d="M138.1,183.5v-17c0-2.7,2.2-4.8,4.8-4.8c2.7,0,4.8,2.2,4.8,4.8v17H138.1z"/>
			<path class="st0" d="M143,162c2.5,0,4.5,2,4.5,4.5v16.6h-8.9v-16.6C138.5,164,140.5,162,143,162 M143,161.3L143,161.3
				c-2.9,0-5.2,2.3-5.2,5.2v17.3h10.4v-17.3C148.2,163.6,145.8,161.3,143,161.3L143,161.3L143,161.3z"/>
		</g>
		<g>
			<path class="st2" d="M164.7,183.5v-17c0-2.7,2.2-4.8,4.8-4.8s4.8,2.2,4.8,4.8v17H164.7z"/>
			<path class="st0" d="M169.5,162c2.5,0,4.5,2,4.5,4.5v16.6h-8.9v-16.6C165.1,164,167.1,162,169.5,162 M169.5,161.3
				c-2.9,0-5.2,2.3-5.2,5.2v17.3h10.4v-17.3C174.8,163.6,172.4,161.3,169.5,161.3L169.5,161.3L169.5,161.3z"/>
		</g>
		<g>
			<path class="st2" d="M97.2,183.5v-17c0-2.7,2.2-4.8,4.8-4.8s4.8,2.2,4.8,4.8v17H97.2L97.2,183.5z"/>
			<path class="st0" d="M102.1,162c2.5,0,4.5,2,4.5,4.5v16.6h-8.9v-16.6C97.6,164,99.6,162,102.1,162 M102.1,161.3L102.1,161.3
				c-2.9,0-5.2,2.3-5.2,5.2v17.3h10.4v-17.3C107.3,163.6,104.9,161.3,102.1,161.3L102.1,161.3L102.1,161.3z"/>
		</g>
		<g>
			<path class="st2" d="M23.2,183.5v-17c0-2.7,2.2-4.8,4.8-4.8s4.8,2.2,4.8,4.8v17H23.2L23.2,183.5z"/>
			<path class="st0" d="M28.1,162c2.5,0,4.5,2,4.5,4.5v16.6h-8.9v-16.6C23.6,164,25.6,162,28.1,162 M28.1,161.3L28.1,161.3
				c-2.9,0-5.2,2.3-5.2,5.2v17.3h10.4v-17.3C33.3,163.6,31,161.3,28.1,161.3L28.1,161.3L28.1,161.3z"/>
		</g>
		<g>
			<path class="st2" d="M191.7,183.5v-17c0-2.7,2.2-4.8,4.8-4.8s4.8,2.2,4.8,4.8v17H191.7z"/>
			<path class="st0" d="M196.5,162c2.5,0,4.5,2,4.5,4.5v16.6h-8.9v-16.6C192.1,164,194.1,162,196.5,162 M196.5,161.3
				c-2.9,0-5.2,2.3-5.2,5.2v17.3h10.4v-17.3C201.8,163.6,199.4,161.3,196.5,161.3L196.5,161.3L196.5,161.3z"/>
		</g>
		<g>
			<path class="st2" d="M217.6,183.5v-17c0-2.7,2.2-4.8,4.8-4.8s4.8,2.2,4.8,4.8v17H217.6z"/>
			<path class="st0" d="M222.5,162c2.5,0,4.5,2,4.5,4.5v16.6H218v-16.6C218,164,220,162,222.5,162 M222.5,161.3
				c-2.9,0-5.2,2.3-5.2,5.2v17.3h10.4v-17.3C227.7,163.6,225.4,161.3,222.5,161.3L222.5,161.3L222.5,161.3z"/>
		</g>
		<g>
			<path class="st2" d="M57.3,181.3v-18.8c0-1.7,1.4-3.2,3.1-3.2s3.1,1.4,3.1,3.2v18.8H57.3L57.3,181.3z"/>
			<path class="st0" d="M60.5,159.7c1.6,0,2.9,1.3,2.9,2.8V181h-5.7v-18.5C57.6,160.9,58.9,159.7,60.5,159.7 M60.5,159.1L60.5,159.1
				c-1.9,0-3.5,1.5-3.5,3.5v19.1h6.9v-19.1C63.9,160.6,62.4,159.1,60.5,159.1L60.5,159.1L60.5,159.1z"/>
		</g>
		<g>
			<path class="st2" d="M355.1,183.5v-17c0-2.7,2.2-4.8,4.8-4.8s4.8,2.2,4.8,4.8v17H355.1L355.1,183.5z"/>
			<path class="st0" d="M360,162c2.5,0,4.5,2,4.5,4.5v16.6h-8.9v-16.6C355.5,164,357.5,162,360,162 M360,161.3
				c-2.9,0-5.2,2.3-5.2,5.2v17.3h10.4v-17.3C365.2,163.6,362.9,161.3,360,161.3L360,161.3L360,161.3z"/>
		</g>
		<g>
			<path class="st2" d="M328.6,183.5v-17c0-2.7,2.2-4.8,4.8-4.8s4.8,2.2,4.8,4.8v17H328.6z"/>
			<path class="st0" d="M333.4,162c2.5,0,4.5,2,4.5,4.5v16.6h-8.9v-16.6C328.9,164,330.9,162,333.4,162 M333.4,161.3
				c-2.9,0-5.2,2.3-5.2,5.2v17.3h10.4v-17.3C338.6,163.6,336.3,161.3,333.4,161.3L333.4,161.3L333.4,161.3z"/>
		</g>
		<g>
			<path class="st2" d="M396,183.5v-17c0-2.7,2.2-4.8,4.8-4.8s4.8,2.2,4.8,4.8v17H396z"/>
			<path class="st0" d="M400.9,162c2.5,0,4.5,2,4.5,4.5v16.6h-8.9v-16.6C396.4,164,398.4,162,400.9,162 M400.9,161.3L400.9,161.3
				c-2.9,0-5.2,2.3-5.2,5.2v17.3h10.4v-17.3C406.1,163.6,403.8,161.3,400.9,161.3L400.9,161.3L400.9,161.3z"/>
		</g>
		<g>
			<path class="st2" d="M470,183.5v-17c0-2.7,2.2-4.8,4.8-4.8s4.8,2.2,4.8,4.8v17H470L470,183.5z"/>
			<path class="st0" d="M474.8,162c2.5,0,4.5,2,4.5,4.5v16.6h-8.9v-16.6C470.4,164,472.4,162,474.8,162 M474.8,161.3
				c-2.9,0-5.2,2.3-5.2,5.2v17.3h10.4v-17.3C480.1,163.6,477.7,161.3,474.8,161.3L474.8,161.3L474.8,161.3z"/>
		</g>
		<g>
			<path class="st2" d="M301.6,183.5v-17c0-2.7,2.2-4.8,4.8-4.8s4.8,2.2,4.8,4.8v17H301.6z"/>
			<path class="st0" d="M306.4,162c2.5,0,4.5,2,4.5,4.5v16.6h-8.9v-16.6C301.9,164,303.9,162,306.4,162 M306.4,161.3
				c-2.9,0-5.2,2.3-5.2,5.2v17.3h10.4v-17.3C311.6,163.6,309.3,161.3,306.4,161.3L306.4,161.3L306.4,161.3z"/>
		</g>
		<g>
			<path class="st2" d="M275.6,183.5v-17c0-2.7,2.2-4.8,4.8-4.8s4.8,2.2,4.8,4.8v17H275.6z"/>
			<path class="st0" d="M280.4,162c2.5,0,4.5,2,4.5,4.5v16.6H276v-16.6C276,164,278,162,280.4,162 M280.5,161.3
				c-2.9,0-5.2,2.3-5.2,5.2v17.3h10.4v-17.3C285.7,163.6,283.3,161.3,280.5,161.3L280.5,161.3L280.5,161.3z"/>
		</g>
		<path class="st5" d="M251.5,161.3c-2.9,0-5.2,2.3-5.2,5.2v17.3h10.4v-17.3C256.7,163.6,254.3,161.3,251.5,161.3L251.5,161.3z"/>
		<g>
			<path class="st2" d="M439.3,181.3v-18.8c0-1.7,1.4-3.2,3.2-3.2s3.2,1.4,3.2,3.2v18.8H439.3L439.3,181.3z"/>
			<path class="st0" d="M442.5,159.7c1.6,0,2.8,1.3,2.8,2.8V181h-5.7v-18.5C439.6,160.9,440.9,159.7,442.5,159.7 M442.5,159.1
				c-1.9,0-3.5,1.5-3.5,3.5v19.1h6.9v-19.1C445.9,160.6,444.4,159.1,442.5,159.1L442.5,159.1L442.5,159.1z"/>
		</g>
	</g>
	<g>
		<g>
			<path class="st2" d="M355.1,224.3v-17c0-2.7,2.2-4.8,4.8-4.8s4.8,2.2,4.8,4.8v17H355.1L355.1,224.3z"/>
			<path class="st0" d="M360,202.9c2.5,0,4.5,2,4.5,4.5v16.6h-8.9v-16.6C355.5,204.9,357.5,202.9,360,202.9 M360,202.1
				c-2.9,0-5.2,2.3-5.2,5.2v17.3h10.4v-17.3C365.2,204.4,362.9,202.1,360,202.1L360,202.1L360,202.1z"/>
		</g>
		<g>
			<path class="st2" d="M396,224.3v-17c0-2.7,2.2-4.8,4.8-4.8s4.8,2.2,4.8,4.8v17H396z"/>
			<path class="st0" d="M400.9,202.9c2.5,0,4.5,2,4.5,4.5v16.6h-8.9v-16.6C396.4,204.9,398.4,202.9,400.9,202.9 M400.9,202.1
				L400.9,202.1c-2.9,0-5.2,2.3-5.2,5.2v17.3h10.4v-17.3C406.1,204.4,403.8,202.1,400.9,202.1L400.9,202.1L400.9,202.1z"/>
		</g>
		<g>
			<path class="st2" d="M470,224.3v-17c0-2.7,2.2-4.8,4.8-4.8s4.8,2.2,4.8,4.8v17H470L470,224.3z"/>
			<path class="st0" d="M474.8,202.9c2.5,0,4.5,2,4.5,4.5v16.6h-8.9v-16.6C470.4,204.9,472.4,202.9,474.8,202.9 M474.8,202.1
				c-2.9,0-5.2,2.3-5.2,5.2v17.3h10.4v-17.3C480.1,204.4,477.7,202.1,474.8,202.1L474.8,202.1L474.8,202.1z"/>
		</g>
		<g>
			<path class="st2" d="M328.6,224.3v-17c0-2.7,2.2-4.8,4.8-4.8s4.8,2.2,4.8,4.8v17H328.6z"/>
			<path class="st0" d="M333.4,202.9c2.5,0,4.5,2,4.5,4.5v16.6h-8.9v-16.6C328.9,204.9,330.9,202.9,333.4,202.9 M333.4,202.1
				c-2.9,0-5.2,2.3-5.2,5.2v17.3h10.4v-17.3C338.6,204.4,336.3,202.1,333.4,202.1L333.4,202.1L333.4,202.1z"/>
		</g>
		<g>
			<path class="st2" d="M439.3,221.4v-18.8c0-1.7,1.4-3.2,3.2-3.2s3.2,1.4,3.2,3.2v18.8H439.3L439.3,221.4z"/>
			<path class="st0" d="M442.5,199.7c1.6,0,2.8,1.3,2.8,2.8v18.5h-5.7v-18.5C439.6,201,440.9,199.7,442.5,199.7 M442.5,199.1
				c-1.9,0-3.5,1.5-3.5,3.5v19.1h6.9v-19.1C445.9,200.7,444.4,199.1,442.5,199.1L442.5,199.1L442.5,199.1z"/>
		</g>
	</g>
	<g>
		<g>
			<path class="st2" d="M229,60.7v-9.3c0-1.7,1.4-3.1,3.1-3.1s3.1,1.4,3.1,3.1v9.3H229z"/>
			<path class="st0" d="M232.2,48.5c1.6,0,2.9,1.3,2.9,2.9v9h-5.8v-9C229.3,49.8,230.6,48.5,232.2,48.5 M232.2,48L232.2,48
				c-1.9,0-3.4,1.5-3.4,3.4v9.5h6.8v-9.5C235.6,49.5,234.1,48,232.2,48L232.2,48z"/>
		</g>
		<path class="st6" d="M251.5,29.4c-1.9,0-3.4,1.5-3.4,3.4v7.3h6.8v-7.3C254.9,30.9,253.4,29.4,251.5,29.4z"/>
		<path class="st6" d="M251.5,48c-1.9,0-3.4,1.5-3.4,3.4v9.5h6.8v-9.5C254.9,49.5,253.4,48,251.5,48z"/>
		<g>
			<path class="st2" d="M267.6,60.7v-9.3c0-1.7,1.4-3.1,3.1-3.1s3.1,1.4,3.1,3.1v9.3H267.6z"/>
			<path class="st0" d="M270.8,48.5c1.6,0,2.9,1.3,2.9,2.9v9h-5.8v-9C267.9,49.8,269.2,48.5,270.8,48.5 M270.8,48
				c-1.9,0-3.4,1.5-3.4,3.4v9.5h6.8v-9.5C274.2,49.5,272.6,48,270.8,48L270.8,48z"/>
		</g>
	</g>
	<g>
		<polyline class="st3" points="502.9,144.4 463,144.4 460.3,143 420.8,143 418.5,144.4 387.4,144.4 385.7,143.7 251.5,143.7 		"/>
		<polyline class="st3" points="251.5,184.8 385.7,184.8 387.4,185.5 418.5,185.5 420.8,184 460.3,184 463,185.5 502.9,185.5 		"/>
		<polyline class="st3" points="502.9,225.4 463,225.4 460.3,223.9 420.8,223.9 418.5,225.4 387.4,225.4 385.5,226.4 326.3,226.4 		
			"/>
		<line class="st3" x1="251.5" y1="105.6" x2="385.5" y2="105.6"/>
		<line class="st3" x1="465.9" y1="67.7" x2="419.1" y2="67.7"/>
	</g>
	<path class="st0" d="M251.5,187.5c19,0,25.8,11.5,26.1,12l0.7,1.3l1.4-0.3c2.8-0.6,5.5-0.8,8-0.8c17.5,0,22.8,14.3,24.6,19
		c0.9,2.3,1.9,4,3,5.4H187.6c1.1-1.3,2.2-3,3-5.4c1.8-4.7,7.1-19,24.6-19c2.5,0,5.2,0.3,8,0.8l1.4,0.3l0.7-1.2
		C225.6,199,232.5,187.5,251.5,187.5 M251.4,185.5c-20.5,0-27.8,13-27.8,13c-3-0.6-5.8-0.9-8.4-0.9c-17.7,0-23.9,13.4-26.4,20.3
		c-2.9,7.8-8.2,8.1-8.2,8.1h141.8c0,0-5.3-0.2-8.2-8.1c-2.6-6.8-8.7-20.3-26.4-20.3c-2.5,0-5.3,0.3-8.4,0.9
		C279.3,198.5,271.9,185.5,251.4,185.5L251.4,185.5L251.4,185.5z"/>
	<rect x="378.6" y="75.8" class="st0" width="9.6" height="159.6"/>
	<rect x="495.4" y="116.1" class="st0" width="7.6" height="119.3"/>
	<rect x="495.4" y="235.5" class="st1" width="7.6" height="77.9"/>
	<rect x="378.6" y="235.5" class="st1" width="9.6" height="80.8"/>
	<rect x="318.4" y="225.2" class="st1" width="7.8" height="92.9"/>
	<g>
		<rect x="436.1" y="20.1" class="st1" width="11.5" height="18.2"/>
		<rect x="440.8" class="st1" width="2.2" height="13"/>
		<path class="st0" d="M420.8,58.1c0-14.2,9.5-25.7,21.1-25.7S463,43.9,463,58.1"/>
		<path class="st0" d="M436.1,20.1c0-5.4,2.6-9.7,5.7-9.7s5.7,4.4,5.7,9.7"/>
	</g>
	<polygon class="st1" points="251.5,225.9 230.9,225.9 230.9,318.1 251.5,318.1 272.1,318.1 272.1,225.9 	"/>
	<path class="st0" d="M278.7,318.1h-54.5l-10,8l16.6,4.3c0,0,20.7,0.8,20.7,0c0,0.8,20.5,0,20.5,0l16.6-4.3L278.7,318.1z"/>
	<g>
		<rect x="233.9" y="275.5" class="st2" width="35.2" height="42.1"/>
		<path class="st0" d="M268.6,275.9v41.2h-34.2v-41.2H268.6 M269.5,275h-36.1v43h36.1V275L269.5,275z"/>
	</g>
	<path class="st7" d="M251.5,228.1c-24.6,0-13.9,14.7-13.9,14.7v14.5h27.9v-14.5C265.4,242.7,276.1,228.1,251.5,228.1z"/>
	<g>
		<line class="st4" x1="463" y1="313.4" x2="463" y2="235.5"/>
		<line class="st4" x1="420.8" y1="235.5" x2="420.8" y2="313.4"/>
	</g>
</g>
</svg>
