<?xml version="1.0" encoding="utf-8"?>
<!-- Generator: Adobe Illustrator 26.5.0, SVG Export Plug-In . SVG Version: 6.00 Build 0)  -->
<svg version="1.1" id="Hopital" xmlns="http://www.w3.org/2000/svg" xmlns:xlink="http://www.w3.org/1999/xlink" x="0px" y="0px"
	 viewBox="0 0 330 211.5" style="enable-background:new 0 0 330 211.5;" xml:space="preserve">
<style type="text/css">
	.st0{fill:#E8629F;}
	.st1{fill:#FCBE1B;}
	.st2{fill:#261923;}
	.st3{fill:#FCBE1C;}
	.st4{fill:#E6629F;}
</style>
<g>
	<rect x="100.7" y="2.8" class="st0" width="128.6" height="208.7"/>
	<rect x="100.7" class="st1" width="128.6" height="4.9"/>
	<circle class="st1" cx="165" cy="38.6" r="22.7"/>
	<rect x="146.2" y="34.4" class="st0" width="37.5" height="8.3"/>
	<rect x="160.8" y="19.8" class="st0" width="8.3" height="37.5"/>
	<g>
		<rect x="152.3" y="177.8" class="st2" width="25.4" height="32.8"/>
		<path class="st3" d="M176.7,178.8v30.8h-23.4v-30.8H176.7 M178.7,176.8h-27.4v34.8h27.4V176.8L178.7,176.8z"/>
	</g>
	<g>
		<rect y="60.5" class="st1" width="100.7" height="151"/>
		<rect x="20.4" y="16.7" class="st1" width="80.3" height="43.8"/>
		<rect x="0" y="58" class="st0" width="100.7" height="4.9"/>
		<g>
			<g>
				<rect x="74.7" y="30.8" class="st2" width="17.7" height="15.5"/>
				<path class="st4" d="M91.4,31.8v13.5H75.7V31.8H91.4 M93.4,29.8H73.7v17.5h19.7V29.8L93.4,29.8z"/>
			</g>
			<g>
				<rect x="51.6" y="30.8" class="st2" width="17.7" height="15.5"/>
				<path class="st4" d="M68.4,31.8v13.5H52.6V31.8H68.4 M70.4,29.8H50.6v17.5h19.7V29.8L70.4,29.8z"/>
			</g>
			<g>
				<rect x="28.6" y="30.8" class="st2" width="17.7" height="15.5"/>
				<path class="st4" d="M45.4,31.8v13.5H29.6V31.8H45.4 M47.4,29.8H27.6v17.5h19.7V29.8L47.4,29.8z"/>
			</g>
		</g>
		<g>
			<g>
				<rect x="9.3" y="76.3" class="st2" width="35.1" height="17.8"/>
				<path class="st4" d="M43.4,77.3v15.8H10.3V77.3H43.4 M45.4,75.3H8.3v19.8h37.1V75.3L45.4,75.3z"/>
			</g>
			<g>
				<rect x="9.3" y="110.1" class="st2" width="35.1" height="17.8"/>
				<path class="st4" d="M43.4,111.1v15.8H10.3v-15.8H43.4 M45.4,109.1H8.3v19.8h37.1V109.1L45.4,109.1z"/>
			</g>
			<g>
				<rect x="9.3" y="143.9" class="st2" width="35.1" height="17.8"/>
				<path class="st4" d="M43.4,144.9v15.8H10.3v-15.8H43.4 M45.4,142.9H8.3v19.8h37.1V142.9L45.4,142.9z"/>
			</g>
			<g>
				<rect x="9.3" y="177.7" class="st2" width="35.1" height="17.8"/>
				<path class="st4" d="M43.4,178.7v15.8H10.3v-15.8H43.4 M45.4,176.7H8.3v19.8h37.1V176.7L45.4,176.7z"/>
			</g>
		</g>
		<g>
			<g>
				<rect x="56.1" y="76.3" class="st2" width="35.1" height="17.8"/>
				<path class="st4" d="M90.2,77.3v15.8H57.1V77.3H90.2 M92.2,75.3H55.1v19.8h37.1V75.3L92.2,75.3z"/>
			</g>
			<g>
				<rect x="56.1" y="110.1" class="st2" width="35.1" height="17.8"/>
				<path class="st4" d="M90.2,111.1v15.8H57.1v-15.8H90.2 M92.2,109.1H55.1v19.8h37.1V109.1L92.2,109.1z"/>
			</g>
			<g>
				<rect x="56.1" y="143.9" class="st2" width="35.1" height="17.8"/>
				<path class="st4" d="M90.2,144.9v15.8H57.1v-15.8H90.2 M92.2,142.9H55.1v19.8h37.1V142.9L92.2,142.9z"/>
			</g>
			<g>
				<rect x="56.1" y="177.7" class="st2" width="35.1" height="17.8"/>
				<path class="st4" d="M90.2,178.7v15.8H57.1v-15.8H90.2 M92.2,176.7H55.1v19.8h37.1V176.7L92.2,176.7z"/>
			</g>
		</g>
	</g>
	<g>
		<rect x="229.3" y="60.5" class="st1" width="100.7" height="151"/>
		<rect x="229.3" y="16.7" class="st1" width="80.3" height="43.8"/>
		<rect x="229.3" y="58" class="st0" width="100.7" height="4.9"/>
		<g>
			<g>
				<g>
					<rect x="238.7" y="76.3" class="st2" width="35.1" height="17.8"/>
					<path class="st4" d="M272.8,77.3v15.8h-33.1V77.3H272.8 M274.8,75.3h-37.1v19.8h37.1V75.3L274.8,75.3z"/>
				</g>
				<g>
					<rect x="238.7" y="110.1" class="st2" width="35.1" height="17.8"/>
					<path class="st4" d="M272.8,111.1v15.8h-33.1v-15.8H272.8 M274.8,109.1h-37.1v19.8h37.1V109.1L274.8,109.1z"/>
				</g>
				<g>
					<rect x="238.7" y="143.9" class="st2" width="35.1" height="17.8"/>
					<path class="st4" d="M272.8,144.9v15.8h-33.1v-15.8H272.8 M274.8,142.9h-37.1v19.8h37.1V142.9L274.8,142.9z"/>
				</g>
				<g>
					<rect x="238.7" y="177.7" class="st2" width="35.1" height="17.8"/>
					<path class="st4" d="M272.8,178.7v15.8h-33.1v-15.8H272.8 M274.8,176.7h-37.1v19.8h37.1V176.7L274.8,176.7z"/>
				</g>
			</g>
			<g>
				<g>
					<rect x="285.5" y="76.3" class="st2" width="35.1" height="17.8"/>
					<path class="st4" d="M319.6,77.3v15.8h-33.1V77.3H319.6 M321.6,75.3h-37.1v19.8h37.1V75.3L321.6,75.3z"/>
				</g>
				<g>
					<rect x="285.5" y="110.1" class="st2" width="35.1" height="17.8"/>
					<path class="st4" d="M319.6,111.1v15.8h-33.1v-15.8H319.6 M321.6,109.1h-37.1v19.8h37.1V109.1L321.6,109.1z"/>
				</g>
				<g>
					<rect x="285.5" y="143.9" class="st2" width="35.1" height="17.8"/>
					<path class="st4" d="M319.6,144.9v15.8h-33.1v-15.8H319.6 M321.6,142.9h-37.1v19.8h37.1V142.9L321.6,142.9z"/>
				</g>
				<g>
					<rect x="285.5" y="177.7" class="st2" width="35.1" height="17.8"/>
					<path class="st4" d="M319.6,178.7v15.8h-33.1v-15.8H319.6 M321.6,176.7h-37.1v19.8h37.1V176.7L321.6,176.7z"/>
				</g>
			</g>
		</g>
		<g>
			<g>
				<rect x="283.6" y="30.8" class="st2" width="17.7" height="15.5"/>
				<path class="st4" d="M300.4,31.8v13.5h-15.7V31.8H300.4 M302.4,29.8h-19.7v17.5h19.7V29.8L302.4,29.8z"/>
			</g>
			<g>
				<rect x="260.6" y="30.8" class="st2" width="17.7" height="15.5"/>
				<path class="st4" d="M277.4,31.8v13.5h-15.7V31.8H277.4 M279.4,29.8h-19.7v17.5h19.7V29.8L279.4,29.8z"/>
			</g>
			<g>
				<rect x="237.6" y="30.8" class="st2" width="17.7" height="15.5"/>
				<path class="st4" d="M254.3,31.8v13.5h-15.7V31.8H254.3 M256.3,29.8h-19.7v17.5h19.7V29.8L256.3,29.8z"/>
			</g>
		</g>
	</g>
	<g>
		<g>
			<rect x="142.1" y="110.1" class="st2" width="20.1" height="17.6"/>
			<path class="st3" d="M161.2,111.1v15.6h-18.1v-15.6H161.2 M163.2,109.1h-22.1v19.6h22.1V109.1L163.2,109.1z"/>
		</g>
		<g>
			<rect x="116.3" y="110.1" class="st2" width="20.1" height="17.6"/>
			<path class="st3" d="M135.4,111.1v15.6h-18.1v-15.6H135.4 M137.4,109.1h-22.1v19.6h22.1V109.1L137.4,109.1z"/>
		</g>
		<g>
			<rect x="167.8" y="110.1" class="st2" width="20.1" height="17.6"/>
			<path class="st3" d="M186.9,111.1v15.6h-18.1v-15.6H186.9 M188.9,109.1h-22.1v19.6h22.1V109.1L188.9,109.1z"/>
		</g>
		<g>
			<rect x="193.6" y="110.1" class="st2" width="20.1" height="17.6"/>
			<path class="st3" d="M212.7,111.1v15.6h-18.1v-15.6H212.7 M214.7,109.1h-22.1v19.6h22.1V109.1L214.7,109.1z"/>
		</g>
	</g>
	<g>
		<g>
			<rect x="142.1" y="144" class="st2" width="20.1" height="17.6"/>
			<path class="st3" d="M161.2,145v15.6h-18.1V145H161.2 M163.2,143h-22.1v19.6h22.1V143L163.2,143z"/>
		</g>
		<g>
			<rect x="116.3" y="144" class="st2" width="20.1" height="17.6"/>
			<path class="st3" d="M135.4,145v15.6h-18.1V145H135.4 M137.4,143h-22.1v19.6h22.1V143L137.4,143z"/>
		</g>
		<g>
			<rect x="167.8" y="144" class="st2" width="20.1" height="17.6"/>
			<path class="st3" d="M186.9,145v15.6h-18.1V145H186.9 M188.9,143h-22.1v19.6h22.1V143L188.9,143z"/>
		</g>
		<g>
			<rect x="193.6" y="144" class="st2" width="20.1" height="17.6"/>
			<path class="st3" d="M212.7,145v15.6h-18.1V145H212.7 M214.7,143h-22.1v19.6h22.1V143L214.7,143z"/>
		</g>
	</g>
	<g>
		<g>
			<rect x="142.1" y="76.4" class="st2" width="20.1" height="17.6"/>
			<path class="st3" d="M161.2,77.4V93h-18.1V77.4H161.2 M163.2,75.4h-22.1V95h22.1V75.4L163.2,75.4z"/>
		</g>
		<g>
			<rect x="116.3" y="76.4" class="st2" width="20.1" height="17.6"/>
			<path class="st3" d="M135.4,77.4V93h-18.1V77.4H135.4 M137.4,75.4h-22.1V95h22.1V75.4L137.4,75.4z"/>
		</g>
		<g>
			<rect x="167.8" y="76.4" class="st2" width="20.1" height="17.6"/>
			<path class="st3" d="M186.9,77.4V93h-18.1V77.4H186.9 M188.9,75.4h-22.1V95h22.1V75.4L188.9,75.4z"/>
		</g>
		<g>
			<rect x="193.6" y="76.4" class="st2" width="20.1" height="17.6"/>
			<path class="st3" d="M212.7,77.4V93h-18.1V77.4H212.7 M214.7,75.4h-22.1V95h22.1V75.4L214.7,75.4z"/>
		</g>
	</g>
	<g>
		<rect x="116.3" y="177.8" class="st2" width="20.1" height="17.6"/>
		<path class="st3" d="M135.4,178.8v15.6h-18.1v-15.6H135.4 M137.4,176.8h-22.1v19.6h22.1V176.8L137.4,176.8z"/>
	</g>
	<g>
		<rect x="193.6" y="177.8" class="st2" width="20.1" height="17.6"/>
		<path class="st3" d="M212.7,178.8v15.6h-18.1v-15.6H212.7 M214.7,176.8h-22.1v19.6h22.1V176.8L214.7,176.8z"/>
	</g>
</g>
</svg>
