<?xml version="1.0" encoding="utf-8"?>
<!-- Generator: Adobe Illustrator 26.5.0, SVG Export Plug-In . SVG Version: 6.00 Build 0)  -->
<svg version="1.1" id="Igloo" xmlns="http://www.w3.org/2000/svg" xmlns:xlink="http://www.w3.org/1999/xlink" x="0px" y="0px"
	 viewBox="0 0 258.3 132" style="enable-background:new 0 0 258.3 132;" xml:space="preserve">
<style type="text/css">
	.st0{fill:#E8629F;}
	.st1{fill:#FCBE1B;}
	.st2{fill:#261923;}
</style>
<g>
	<path class="st0" d="M129.7,0h27.5c55.8,0,101,45.3,101,101v28.8c0,1.2-1,2.2-2.2,2.2H30.9c-1.2,0-2.1-1-2.1-2.2V101
		C28.7,45.3,74,0,129.7,0L129.7,0z"/>
	<path class="st1" d="M131.1,3.1h24.8c54.6,0,98.9,44.3,98.9,98.9v30H32.2v-30C32.2,47.4,76.6,3.1,131.1,3.1z"/>
	<path class="st0" d="M31.7,71.6h33.8c14.7,0,26.6,11.9,26.6,26.6V132H31.7L31.7,71.6L31.7,71.6L31.7,71.6z"/>
	<path class="st1" d="M31.7,73.5h31.9c14.7,0,26.6,11.9,26.6,26.6V132H31.7L31.7,73.5L31.7,73.5L31.7,73.5z"/>
	<path class="st0" d="M28.9,71.6h5.7c15.9,0,28.9,12.9,28.9,28.9V132H0v-31.5C0,84.5,12.9,71.6,28.9,71.6z"/>
	<path class="st1" d="M29.1,73.5h5.3c14.7,0,26.6,11.9,26.6,26.6V132H2.5v-31.9C2.5,85.4,14.4,73.5,29.1,73.5L29.1,73.5z"/>
	<g>
		<path class="st2" d="M11.7,131v-29.6c0-10,8.2-18.2,18.2-18.2h3.8c10,0,18.2,8.2,18.2,18.2V131H11.7z"/>
		<path class="st0" d="M33.7,84.2c9.5,0,17.2,7.7,17.2,17.2V130H12.7v-28.6c0-9.5,7.7-17.2,17.2-17.2H33.7 M33.7,82.2h-3.8
			c-10.6,0-19.2,8.6-19.2,19.2V132h42.2v-30.6C52.9,90.8,44.3,82.2,33.7,82.2L33.7,82.2L33.7,82.2z"/>
	</g>
</g>
</svg>
