<?xml version="1.0" encoding="utf-8"?>
<!-- Generator: Adobe Illustrator 26.5.0, SVG Export Plug-In . SVG Version: 6.00 Build 0)  -->
<svg version="1.1" id="Maison_jungle" xmlns="http://www.w3.org/2000/svg" xmlns:xlink="http://www.w3.org/1999/xlink" x="0px"
	 y="0px" viewBox="0 0 309 206.9" style="enable-background:new 0 0 309 206.9;" xml:space="preserve">
<style type="text/css">
	.st0{fill:#E8629F;}
	.st1{fill:#FCBE1B;}
	.st2{fill:#261923;}
	.st3{fill:none;stroke:#E8629F;stroke-width:3;stroke-miterlimit:10;}
</style>
<g>
	<rect x="18" y="154.2" class="st0" width="269.5" height="13.6"/>
	<rect x="281.8" y="167.7" class="st0" width="5.7" height="39.1"/>
	<rect x="195.4" y="167.7" class="st0" width="5.7" height="39.1"/>
	<rect x="104.4" y="167.7" class="st0" width="5.7" height="39.1"/>
	<rect x="18" y="167.7" class="st0" width="5.7" height="39.1"/>
	<rect x="49.2" y="80.9" class="st1" width="207" height="73.3"/>
	<g>
		<rect x="136.1" y="96.8" class="st2" width="33.2" height="56"/>
		<path class="st0" d="M167.9,98.3v53h-30.2v-53H167.9 M170.9,95.3h-36.2v59h36.2V95.3L170.9,95.3z"/>
	</g>
	<g>
		<g>
			<rect x="58.4" y="96.8" class="st2" width="26.1" height="26.1"/>
			<path class="st0" d="M83,98.3v23.1H59.9V98.3H83 M86,95.3H56.9v29.1H86V95.3L86,95.3z"/>
		</g>
		<g>
			<rect x="94.2" y="96.8" class="st2" width="26.1" height="26.1"/>
			<path class="st0" d="M118.8,98.3v23.1H95.7V98.3H118.8 M121.8,95.3H92.7v29.1h29.1V95.3L121.8,95.3z"/>
		</g>
		<g>
			<rect x="185.2" y="96.8" class="st2" width="26.1" height="26.1"/>
			<path class="st0" d="M209.8,98.3v23.1h-23.1V98.3H209.8 M212.8,95.3h-29.1v29.1h29.1V95.3L212.8,95.3z"/>
		</g>
		<g>
			<rect x="221" y="96.8" class="st2" width="26.1" height="26.1"/>
			<path class="st0" d="M245.6,98.3v23.1h-23.1V98.3H245.6 M248.6,95.3h-29.1v29.1h29.1V95.3L248.6,95.3z"/>
		</g>
	</g>
	<g>
		<path class="st0" d="M284.5,135.5v19.8H21v-19.8H284.5 M287.5,132.5H18v25.8h269.5V132.5L287.5,132.5z"/>
		<g>
			<line class="st3" x1="40.9" y1="132.5" x2="40.9" y2="158.4"/>
			<line class="st3" x1="65.8" y1="132.5" x2="65.8" y2="158.4"/>
			<line class="st3" x1="90.6" y1="132.5" x2="90.6" y2="158.4"/>
			<line class="st3" x1="115.5" y1="132.5" x2="115.5" y2="158.4"/>
			<line class="st3" x1="140.3" y1="132.5" x2="140.3" y2="158.4"/>
			<line class="st3" x1="165.2" y1="132.5" x2="165.2" y2="158.4"/>
			<line class="st3" x1="190" y1="132.5" x2="190" y2="158.4"/>
			<line class="st3" x1="214.9" y1="132.5" x2="214.9" y2="158.4"/>
			<line class="st3" x1="239.7" y1="132.5" x2="239.7" y2="158.4"/>
			<line class="st3" x1="264.6" y1="132.5" x2="264.6" y2="158.4"/>
		</g>
	</g>
	<polygon class="st0" points="213,40.4 154.5,40.4 154.5,40.4 96,40.4 0,80.9 154.5,80.9 154.5,80.9 309,80.9 	"/>
	<polygon class="st0" points="187.2,0 154.5,0 154.5,0 121.8,0 94.4,40.4 154.5,40.4 154.5,40.4 214.6,40.4 	"/>
</g>
</svg>
