<?xml version="1.0" encoding="utf-8"?>
<!-- Generator: Adobe Illustrator 26.5.0, SVG Export Plug-In . SVG Version: 6.00 Build 0)  -->
<svg version="1.1" id="uuid-5129de13-7f3d-4072-9aeb-b0273b124b3a"
	 xmlns="http://www.w3.org/2000/svg" xmlns:xlink="http://www.w3.org/1999/xlink" x="0px" y="0px" viewBox="0 0 236.3 483.6"
	 style="enable-background:new 0 0 236.3 483.6;" xml:space="preserve">
<style type="text/css">
	.st0{fill:none;stroke:#EA629F;stroke-width:18.41;stroke-miterlimit:10;}
	.st1{fill:#FCBE1B;}
	.st2{fill:#E8629F;}
</style>
<g>
	<polyline class="st0" points="47.9,483.6 47.9,79 141,79 141,483.6 	"/>
	<g>
		<g>
			<g>
				<polygon class="st1" points="95.4,87.2 188.8,93.4 188.8,95.4 95.4,101.6 				"/>
				<path class="st1" d="M188.7,94.4l-92.3,6.1V88.3L188.7,94.4 M188.9,96.4v-4l-92.3-6.1l-2.1-0.1v16.5l2.1-0.1L188.9,96.4
					L188.9,96.4L188.9,96.4z"/>
			</g>
			<g>
				<polygon class="st1" points="101.6,95.4 95.4,188.8 93.4,188.8 87.2,95.4 				"/>
				<path class="st1" d="M94.4,188.7l-6.1-92.3h12.3L94.4,188.7 M92.4,188.9h4l6.1-92.3l0.1-2.1H86.2l0.1,2.1L92.4,188.9L92.4,188.9
					L92.4,188.9z"/>
			</g>
			<g>
				<polygon class="st1" points="93.4,101.6 0.1,95.4 0.1,93.4 93.4,87.2 				"/>
				<path class="st1" d="M0.1,94.4l92.3-6.1v12.3L0.1,94.4 M0,92.4v4l92.3,6.1l2.1,0.1V86.2l-2.1,0.1L0,92.4L0,92.4L0,92.4z"/>
			</g>
			<g>
				<polygon class="st1" points="87.2,93.4 93.4,0.1 95.4,0.1 101.6,93.4 				"/>
				<path class="st1" d="M94.4,0.1l6.1,92.3H88.3L94.4,0.1 M96.4,0h-4l-6.1,92.3l-0.1,2.1h16.5l-0.1-2.1L96.4,0L96.4,0L96.4,0z"/>
			</g>
		</g>
		<g>
			<g>
				<polygon class="st1" points="89.9,89.3 140.1,45.3 141.6,46.7 97.6,97 				"/>
				<path class="st1" d="M140.8,46.1L97.5,95.5l-6.2-6.2L140.8,46.1 M139.5,44.6L90,87.8l-1.6,1.4l1.5,1.5l6.2,6.2l1.5,1.5l1.4-1.6
					l43.3-49.4L139.5,44.6L139.5,44.6L139.5,44.6z"/>
			</g>
			<g>
				<polygon class="st1" points="89.9,95.6 97.6,87.9 141.6,138.1 140.1,139.5 				"/>
				<path class="st1" d="M97.5,89.4l43.3,49.4L91.4,95.5L97.5,89.4 M97.6,86.4l-1.5,1.5l-6.2,6.2l-1.5,1.5L90,97l49.4,43.3l2.8-2.8
					L99,88L97.6,86.4L97.6,86.4L97.6,86.4z"/>
			</g>
			<g>
				<polygon class="st1" points="47.3,138.1 91.3,87.9 99,95.6 48.7,139.5 				"/>
				<path class="st1" d="M91.4,89.4l6.2,6.2l-49.4,43.3L91.4,89.4 M91.3,86.4L89.8,88l-43.3,49.4l2.8,2.8L98.8,97l1.6-1.4l-1.5-1.5
					l-6.2-6.2L91.3,86.4L91.3,86.4L91.3,86.4z"/>
			</g>
			<g>
				<polygon class="st1" points="47.3,46.7 48.7,45.3 99,89.3 91.3,97 				"/>
				<path class="st1" d="M48.1,46.1l49.4,43.3l-6.2,6.2L48.1,46.1 M49.4,44.6l-2.8,2.8l43.3,49.4l1.4,1.6l1.5-1.5l6.2-6.2l1.5-1.5
					l-1.6-1.4L49.4,44.6L49.4,44.6L49.4,44.6z"/>
			</g>
		</g>
	</g>
	<g>
		<path class="st2" d="M134.8,279.7c-0.5,0-1.1-0.1-1.6-0.4l-90.6-47.9c-1.6-0.8-1.8-2.2-1.8-3s0.2-2.2,1.8-3l90.6-47.9
			c0.5-0.3,1-0.4,1.6-0.4s1.1,0.1,1.6,0.4l90.6,47.9c1.6,0.8,1.8,2.2,1.8,3s-0.2,2.2-1.8,3l-90.6,47.9
			C135.9,279.6,135.3,279.7,134.8,279.7z"/>
		<path class="st1" d="M136.7,184.1L136.7,184.1 M134.8,185.1l81.8,43.3l-81.8,43.3L53,228.4L134.8,185.1 M134.8,169.6
			c-1.8,0-3.5,0.4-5.1,1.3l-90.6,47.9c-7.7,4.1-7.7,15.2,0,19.3l90.6,47.9c1.6,0.8,3.3,1.3,5.1,1.3s3.5-0.4,5.1-1.3l90.6-47.9
			c7.7-4.1,7.7-15.2,0-19.3l-90.6-47.9C138.3,170,136.5,169.6,134.8,169.6L134.8,169.6z"/>
	</g>
	<g>
		<g>
			<path class="st2" d="M60.6,204.8c-5.7,0-10.4-4.7-10.4-10.4S54.9,184,60.6,184S71,188.6,71,194.4S66.3,204.8,60.6,204.8z"/>
			<path class="st1" d="M60.6,186c4.6,0,8.4,3.8,8.4,8.4s-3.8,8.4-8.4,8.4s-8.4-3.8-8.4-8.4S56,186,60.6,186 M60.6,182
				c-6.9,0-12.4,5.5-12.4,12.4s5.5,12.4,12.4,12.4S73,201.2,73,194.4S67.4,182,60.6,182L60.6,182z"/>
		</g>
		<g>
			<circle class="st2" cx="85.4" cy="194.4" r="10.4"/>
			<path class="st1" d="M85.4,186c4.6,0,8.4,3.8,8.4,8.4s-3.8,8.4-8.4,8.4S77,199,77,194.4S80.8,186,85.4,186 M85.4,182
				c-6.9,0-12.4,5.5-12.4,12.4s5.5,12.4,12.4,12.4s12.4-5.5,12.4-12.4S92.2,182,85.4,182L85.4,182z"/>
		</g>
		<g>
			<path class="st2" d="M110.2,204.8c-5.7,0-10.4-4.7-10.4-10.4s4.7-10.4,10.4-10.4s10.4,4.7,10.4,10.4S115.9,204.8,110.2,204.8z"/>
			<path class="st1" d="M110.2,186c4.6,0,8.4,3.8,8.4,8.4s-3.8,8.4-8.4,8.4s-8.4-3.8-8.4-8.4S105.6,186,110.2,186 M110.2,182
				c-6.9,0-12.4,5.5-12.4,12.4s5.5,12.4,12.4,12.4s12.4-5.5,12.4-12.4S117.1,182,110.2,182L110.2,182z"/>
		</g>
		<g>
			<circle class="st2" cx="135" cy="194.4" r="10.4"/>
			<path class="st1" d="M135,186c4.6,0,8.4,3.8,8.4,8.4s-3.8,8.4-8.4,8.4s-8.4-3.8-8.4-8.4S130.4,186,135,186 M135,182
				c-6.9,0-12.4,5.5-12.4,12.4s5.5,12.4,12.4,12.4s12.4-5.5,12.4-12.4S141.9,182,135,182L135,182z"/>
		</g>
		<g>
			<circle class="st2" cx="159.8" cy="194.4" r="10.4"/>
			<path class="st1" d="M159.8,186c4.6,0,8.4,3.8,8.4,8.4s-3.8,8.4-8.4,8.4s-8.4-3.8-8.4-8.4S155.2,186,159.8,186 M159.8,182
				c-6.9,0-12.4,5.5-12.4,12.4s5.5,12.4,12.4,12.4s12.4-5.5,12.4-12.4S166.7,182,159.8,182L159.8,182z"/>
		</g>
		<g>
			<circle class="st2" cx="184.6" cy="194.4" r="10.4"/>
			<path class="st1" d="M184.6,186c4.6,0,8.4,3.8,8.4,8.4s-3.8,8.4-8.4,8.4s-8.4-3.8-8.4-8.4S180,186,184.6,186 M184.6,182
				c-6.9,0-12.4,5.5-12.4,12.4s5.5,12.4,12.4,12.4s12.4-5.5,12.4-12.4S191.5,182,184.6,182L184.6,182z"/>
		</g>
		<g>
			<path class="st2" d="M209.4,204.8c-5.7,0-10.4-4.7-10.4-10.4s4.7-10.4,10.4-10.4s10.4,4.7,10.4,10.4S215.1,204.8,209.4,204.8z"/>
			<path class="st1" d="M209.4,186c4.6,0,8.4,3.8,8.4,8.4s-3.8,8.4-8.4,8.4s-8.4-3.8-8.4-8.4S204.8,186,209.4,186 M209.4,182
				c-6.9,0-12.4,5.5-12.4,12.4s5.5,12.4,12.4,12.4s12.4-5.5,12.4-12.4S216.3,182,209.4,182L209.4,182z"/>
		</g>
	</g>
</g>
</svg>
