<?xml version="1.0" encoding="utf-8"?>
<!-- Generator: Adobe Illustrator 26.5.0, SVG Export Plug-In . SVG Version: 6.00 Build 0)  -->
<svg version="1.1" id="uuid-0617c264-7bee-4f86-8b64-6f89be3a6d29"
	 xmlns="http://www.w3.org/2000/svg" xmlns:xlink="http://www.w3.org/1999/xlink" x="0px" y="0px" viewBox="0 0 94.4 248.7"
	 style="enable-background:new 0 0 94.4 248.7;" xml:space="preserve">
<style type="text/css">
	.st0{fill:#FCBE1B;}
	.st1{fill:#E8629F;}
	.st2{fill:#261923;}
	.st3{fill:none;stroke:#E8629F;stroke-width:2;stroke-miterlimit:10;}
</style>
<g>
	<polygon class="st0" points="81.6,63.5 67.6,63.5 26.9,63.5 12.8,63.5 12.8,71.7 19,71.7 12.8,248.6 47.2,248.6 81.6,248.6 
		75.4,71.7 81.6,71.7 	"/>
	<rect x="1.8" y="206.5" class="st1" width="90.7" height="42.3"/>
	<polygon class="st1" points="77.8,140.7 16.6,140.7 15.5,172.8 79,172.8 	"/>
	<polygon class="st1" points="75.5,74.1 19,74.1 17.8,106.2 76.6,106.2 	"/>
	<g>
		<path class="st2" d="M67.1,191.6v-11.7c0-2.1,1.7-3.9,3.9-3.9s3.9,1.7,3.9,3.9v11.7H67.1L67.1,191.6z"/>
		<path class="st1" d="M71,176.5c1.9,0,3.4,1.5,3.4,3.4v11.2h-6.8v-11.2C67.6,178,69.1,176.5,71,176.5 M71,175.5
			c-2.4,0-4.4,2-4.4,4.4V192h8.7v-12.1C75.4,177.5,73.4,175.5,71,175.5L71,175.5L71,175.5z"/>
	</g>
	<g>
		<path class="st2" d="M22.5,126.2v-11.7c0-2.1,1.7-3.9,3.9-3.9s3.9,1.7,3.9,3.9v11.7H22.5L22.5,126.2z"/>
		<path class="st1" d="M26.4,111.1c1.9,0,3.4,1.5,3.4,3.4v11.2H23v-11.2C23,112.7,24.5,111.1,26.4,111.1 M26.4,110.2
			c-2.4,0-4.4,2-4.4,4.4v12.1h8.7v-12.1C30.8,112.1,28.8,110.2,26.4,110.2L26.4,110.2L26.4,110.2z"/>
	</g>
	<path d="M26.4,210.9L26.4,210.9c4,0,7.2,3.2,7.2,7.2v30.7H19.2V218C19.2,214.1,22.4,210.9,26.4,210.9L26.4,210.9z"/>
	<rect y="63.5" class="st0" width="94.4" height="8.2"/>
	<polygon class="st0" points="74.9,19.9 47.2,0 19.5,19.9 19.5,63.5 74.9,63.5 	"/>
	<polyline class="st3" points="1.2,63.5 1.2,48 93.2,48 93.2,63.5 	"/>
	<g>
		<g>
			<rect x="22.5" y="21.9" class="st2" width="10" height="19.6"/>
			<path class="st1" d="M31.9,22.4v18.6h-9V22.4H31.9 M32.9,21.4H22v20.6h11V21.4L32.9,21.4z"/>
		</g>
		<g>
			<rect x="62.7" y="21.9" class="st2" width="10" height="19.6"/>
			<path class="st1" d="M72.1,22.4v18.6h-9V22.4H72.1 M73.1,21.4h-11v20.6h11V21.4L73.1,21.4z"/>
		</g>
		<g>
			<rect x="35" y="21.9" class="st2" width="25.1" height="19.6"/>
			<path class="st1" d="M59.6,22.4v18.6H35.5V22.4H59.6 M60.6,21.4H34.5v20.6h26.1V21.4L60.6,21.4z"/>
		</g>
	</g>
</g>
</svg>
