<?xml version="1.0" encoding="utf-8"?>
<!-- Generator: Adobe Illustrator 26.5.0, SVG Export Plug-In . SVG Version: 6.00 Build 0)  -->
<svg version="1.1" id="uuid-058b7a1d-8bce-40a4-94b1-c32adf9cf2e2"
	 xmlns="http://www.w3.org/2000/svg" xmlns:xlink="http://www.w3.org/1999/xlink" x="0px" y="0px" viewBox="0 0 244.2 672.5"
	 style="enable-background:new 0 0 244.2 672.5;" xml:space="preserve">
<style type="text/css">
	.st0{fill:#E8629F;}
	.st1{fill:#261923;}
	.st2{fill:#FCBE1B;}
</style>
<g>
	<g>
		<g>
			<rect y="607.2" class="st0" width="244.2" height="65.3"/>
			<g>
				<rect x="12.2" y="612.7" class="st1" width="30.6" height="26.1"/>
				<path class="st2" d="M41.8,613.7v24.1H13.2v-24.1H41.8 M43.8,611.7H11.2v28.1h32.6V611.7L43.8,611.7z"/>
			</g>
			<g>
				<rect x="106.8" y="612.7" class="st1" width="30.6" height="26.1"/>
				<path class="st2" d="M136.4,613.7v24.1h-28.6v-24.1H136.4 M138.4,611.7h-32.6v28.1h32.6V611.7L138.4,611.7z"/>
			</g>
			<g>
				<rect x="201.3" y="612.7" class="st1" width="30.6" height="26.1"/>
				<path class="st2" d="M230.9,613.7v24.1h-28.6v-24.1H230.9 M232.9,611.7h-32.6v28.1h32.6V611.7L232.9,611.7z"/>
			</g>
			<g>
				<rect x="173.8" y="612.7" class="st1" width="14.3" height="26.1"/>
				<path class="st2" d="M187.1,613.7v24.1h-12.3v-24.1H187.1 M189.1,611.7h-16.3v28.1h16.3V611.7L189.1,611.7z"/>
			</g>
			<g>
				<rect x="56.1" y="612.7" class="st1" width="14.3" height="26.1"/>
				<path class="st2" d="M69.4,613.7v24.1H57.1v-24.1H69.4 M71.4,611.7H55.1v28.1h16.3V611.7L71.4,611.7z"/>
			</g>
		</g>
		<g>
			<rect y="541.8" class="st0" width="244.2" height="65.3"/>
			<g>
				<rect x="12.2" y="547.4" class="st1" width="30.6" height="26.1"/>
				<path class="st2" d="M41.8,548.4v24.1H13.2v-24.1H41.8 M43.8,546.4H11.2v28.1h32.6V546.4L43.8,546.4z"/>
			</g>
			<g>
				<rect x="106.8" y="547.4" class="st1" width="30.6" height="26.1"/>
				<path class="st2" d="M136.4,548.4v24.1h-28.6v-24.1H136.4 M138.4,546.4h-32.6v28.1h32.6V546.4L138.4,546.4z"/>
			</g>
			<g>
				<rect x="201.3" y="547.4" class="st1" width="30.6" height="26.1"/>
				<path class="st2" d="M230.9,548.4v24.1h-28.6v-24.1H230.9 M232.9,546.4h-32.6v28.1h32.6V546.4L232.9,546.4z"/>
			</g>
			<g>
				<rect x="173.8" y="547.4" class="st1" width="14.3" height="26.1"/>
				<path class="st2" d="M187.1,548.4v24.1h-12.3v-24.1H187.1 M189.1,546.4h-16.3v28.1h16.3V546.4L189.1,546.4z"/>
			</g>
			<g>
				<rect x="56.1" y="547.4" class="st1" width="14.3" height="26.1"/>
				<path class="st2" d="M69.4,548.4v24.1H57.1v-24.1H69.4 M71.4,546.4H55.1v28.1h16.3V546.4L71.4,546.4z"/>
			</g>
		</g>
		<g>
			<rect y="476.5" class="st0" width="244.2" height="65.3"/>
			<g>
				<rect x="12.2" y="482" class="st1" width="30.6" height="26.1"/>
				<path class="st2" d="M41.8,483v24.1H13.2V483H41.8 M43.8,481H11.2v28.1h32.6V481L43.8,481z"/>
			</g>
			<g>
				<rect x="106.8" y="482" class="st1" width="30.6" height="26.1"/>
				<path class="st2" d="M136.4,483v24.1h-28.6V483H136.4 M138.4,481h-32.6v28.1h32.6V481L138.4,481z"/>
			</g>
			<g>
				<rect x="201.3" y="482" class="st1" width="30.6" height="26.1"/>
				<path class="st2" d="M230.9,483v24.1h-28.6V483H230.9 M232.9,481h-32.6v28.1h32.6V481L232.9,481z"/>
			</g>
			<g>
				<rect x="173.8" y="482" class="st1" width="14.3" height="26.1"/>
				<path class="st2" d="M187.1,483v24.1h-12.3V483H187.1 M189.1,481h-16.3v28.1h16.3V481L189.1,481z"/>
			</g>
			<g>
				<rect x="56.1" y="482" class="st1" width="14.3" height="26.1"/>
				<path class="st2" d="M69.4,483v24.1H57.1V483H69.4 M71.4,481H55.1v28.1h16.3V481L71.4,481z"/>
			</g>
		</g>
		<g>
			<rect y="411.1" class="st0" width="244.2" height="65.3"/>
			<g>
				<rect x="12.2" y="416.7" class="st1" width="30.6" height="26.1"/>
				<path class="st2" d="M41.8,417.7v24.1H13.2v-24.1H41.8 M43.8,415.7H11.2v28.1h32.6V415.7L43.8,415.7z"/>
			</g>
			<g>
				<rect x="106.8" y="416.7" class="st1" width="30.6" height="26.1"/>
				<path class="st2" d="M136.4,417.7v24.1h-28.6v-24.1H136.4 M138.4,415.7h-32.6v28.1h32.6V415.7L138.4,415.7z"/>
			</g>
			<g>
				<rect x="201.3" y="416.7" class="st1" width="30.6" height="26.1"/>
				<path class="st2" d="M230.9,417.7v24.1h-28.6v-24.1H230.9 M232.9,415.7h-32.6v28.1h32.6V415.7L232.9,415.7z"/>
			</g>
			<g>
				<rect x="173.8" y="416.7" class="st1" width="14.3" height="26.1"/>
				<path class="st2" d="M187.1,417.7v24.1h-12.3v-24.1H187.1 M189.1,415.7h-16.3v28.1h16.3V415.7L189.1,415.7z"/>
			</g>
			<g>
				<rect x="56.1" y="416.7" class="st1" width="14.3" height="26.1"/>
				<path class="st2" d="M69.4,417.7v24.1H57.1v-24.1H69.4 M71.4,415.7H55.1v28.1h16.3V415.7L71.4,415.7z"/>
			</g>
		</g>
		<g>
			<rect y="345.8" class="st0" width="244.2" height="65.3"/>
			<g>
				<rect x="12.2" y="351.3" class="st1" width="30.6" height="26.1"/>
				<path class="st2" d="M41.8,352.3v24.1H13.2v-24.1H41.8 M43.8,350.3H11.2v28.1h32.6V350.3L43.8,350.3z"/>
			</g>
			<g>
				<rect x="106.8" y="351.3" class="st1" width="30.6" height="26.1"/>
				<path class="st2" d="M136.4,352.3v24.1h-28.6v-24.1H136.4 M138.4,350.3h-32.6v28.1h32.6V350.3L138.4,350.3z"/>
			</g>
			<g>
				<rect x="201.3" y="351.3" class="st1" width="30.6" height="26.1"/>
				<path class="st2" d="M230.9,352.3v24.1h-28.6v-24.1H230.9 M232.9,350.3h-32.6v28.1h32.6V350.3L232.9,350.3z"/>
			</g>
			<g>
				<rect x="173.8" y="351.3" class="st1" width="14.3" height="26.1"/>
				<path class="st2" d="M187.1,352.3v24.1h-12.3v-24.1H187.1 M189.1,350.3h-16.3v28.1h16.3V350.3L189.1,350.3z"/>
			</g>
			<g>
				<rect x="56.1" y="351.3" class="st1" width="14.3" height="26.1"/>
				<path class="st2" d="M69.4,352.3v24.1H57.1v-24.1H69.4 M71.4,350.3H55.1v28.1h16.3V350.3L71.4,350.3z"/>
			</g>
		</g>
		<g>
			<rect y="280.4" class="st0" width="244.2" height="65.3"/>
			<g>
				<rect x="12.2" y="286" class="st1" width="30.6" height="26.1"/>
				<path class="st2" d="M41.8,287v24.1H13.2V287H41.8 M43.8,285H11.2v28.1h32.6V285L43.8,285z"/>
			</g>
			<g>
				<rect x="106.8" y="286" class="st1" width="30.6" height="26.1"/>
				<path class="st2" d="M136.4,287v24.1h-28.6V287H136.4 M138.4,285h-32.6v28.1h32.6V285L138.4,285z"/>
			</g>
			<g>
				<rect x="201.3" y="286" class="st1" width="30.6" height="26.1"/>
				<path class="st2" d="M230.9,287v24.1h-28.6V287H230.9 M232.9,285h-32.6v28.1h32.6V285L232.9,285z"/>
			</g>
			<g>
				<rect x="173.8" y="286" class="st1" width="14.3" height="26.1"/>
				<path class="st2" d="M187.1,287v24.1h-12.3V287H187.1 M189.1,285h-16.3v28.1h16.3V285L189.1,285z"/>
			</g>
			<g>
				<rect x="56.1" y="286" class="st1" width="14.3" height="26.1"/>
				<path class="st2" d="M69.4,287v24.1H57.1V287H69.4 M71.4,285H55.1v28.1h16.3V285L71.4,285z"/>
			</g>
		</g>
		<g>
			<rect y="215.1" class="st0" width="244.2" height="65.4"/>
			<g>
				<rect x="12.2" y="220.7" class="st1" width="30.6" height="26.1"/>
				<path class="st2" d="M41.8,221.7v24.1H13.2v-24.1L41.8,221.7 M43.8,219.7H11.2v28.1h32.6V219.7L43.8,219.7z"/>
			</g>
			<g>
				<rect x="106.8" y="220.7" class="st1" width="30.6" height="26.1"/>
				<path class="st2" d="M136.4,221.7v24.1h-28.6v-24.1L136.4,221.7 M138.4,219.7h-32.6v28.1h32.6V219.7L138.4,219.7z"/>
			</g>
			<g>
				<rect x="201.3" y="220.7" class="st1" width="30.6" height="26.1"/>
				<path class="st2" d="M230.9,221.7v24.1h-28.6v-24.1L230.9,221.7 M232.9,219.7h-32.6v28.1h32.6V219.7L232.9,219.7z"/>
			</g>
			<g>
				<rect x="173.8" y="220.7" class="st1" width="14.3" height="26.1"/>
				<path class="st2" d="M187.1,221.7v24.1h-12.3v-24.1L187.1,221.7 M189.1,219.7h-16.3v28.1h16.3V219.7L189.1,219.7z"/>
			</g>
			<g>
				<rect x="56.1" y="220.7" class="st1" width="14.3" height="26.1"/>
				<path class="st2" d="M69.4,221.7v24.1H57.1v-24.1L69.4,221.7 M71.4,219.7H55.1v28.1h16.3V219.7L71.4,219.7z"/>
			</g>
		</g>
		<g>
			<rect y="149.7" class="st0" width="244.2" height="65.4"/>
			<g>
				<rect x="12.2" y="155.3" class="st1" width="30.6" height="26.1"/>
				<path class="st2" d="M41.8,156.3v24.1H13.2v-24.1H41.8 M43.8,154.3H11.2v28.1h32.6V154.3L43.8,154.3z"/>
			</g>
			<g>
				<rect x="106.8" y="155.3" class="st1" width="30.6" height="26.1"/>
				<path class="st2" d="M136.4,156.3v24.1h-28.6v-24.1H136.4 M138.4,154.3h-32.6v28.1h32.6V154.3L138.4,154.3z"/>
			</g>
			<g>
				<rect x="201.3" y="155.3" class="st1" width="30.6" height="26.1"/>
				<path class="st2" d="M230.9,156.3v24.1h-28.6v-24.1H230.9 M232.9,154.3h-32.6v28.1h32.6V154.3L232.9,154.3z"/>
			</g>
			<g>
				<rect x="173.8" y="155.3" class="st1" width="14.3" height="26.1"/>
				<path class="st2" d="M187.1,156.3v24.1h-12.3v-24.1H187.1 M189.1,154.3h-16.3v28.1h16.3V154.3L189.1,154.3z"/>
			</g>
			<g>
				<rect x="56.1" y="155.3" class="st1" width="14.3" height="26.1"/>
				<path class="st2" d="M69.4,156.3v24.1H57.1v-24.1H69.4 M71.4,154.3H55.1v28.1h16.3V154.3L71.4,154.3z"/>
			</g>
		</g>
		<g>
			<rect y="84.4" class="st0" width="244.2" height="65.4"/>
			<g>
				<rect x="12.2" y="90" class="st1" width="30.6" height="26.1"/>
				<path class="st2" d="M41.8,91v24.1H13.2V91L41.8,91 M43.8,89H11.2v28.1h32.6V89L43.8,89z"/>
			</g>
			<g>
				<rect x="106.8" y="90" class="st1" width="30.6" height="26.1"/>
				<path class="st2" d="M136.4,91v24.1h-28.6V91L136.4,91 M138.4,89h-32.6v28.1h32.6V89L138.4,89z"/>
			</g>
			<g>
				<rect x="201.3" y="90" class="st1" width="30.6" height="26.1"/>
				<path class="st2" d="M230.9,91v24.1h-28.6V91L230.9,91 M232.9,89h-32.6v28.1h32.6V89L232.9,89z"/>
			</g>
			<g>
				<rect x="173.8" y="90" class="st1" width="14.3" height="26.1"/>
				<path class="st2" d="M187.1,91v24.1h-12.3V91L187.1,91 M189.1,89h-16.3v28.1h16.3V89L189.1,89z"/>
			</g>
			<g>
				<rect x="56.1" y="90" class="st1" width="14.3" height="26.1"/>
				<path class="st2" d="M69.4,91v24.1H57.1V91L69.4,91 M71.4,89H55.1v28.1h16.3V89L71.4,89z"/>
			</g>
		</g>
		<g>
			<rect y="19" class="st0" width="244.2" height="65.4"/>
			<g>
				<rect x="12.2" y="24.6" class="st1" width="30.6" height="26.1"/>
				<path class="st2" d="M41.8,25.6v24.1H13.2V25.6H41.8 M43.8,23.6H11.2v28.1h32.6V23.6L43.8,23.6z"/>
			</g>
			<g>
				<rect x="106.8" y="24.6" class="st1" width="30.6" height="26.1"/>
				<path class="st2" d="M136.4,25.6v24.1h-28.6V25.6H136.4 M138.4,23.6h-32.6v28.1h32.6V23.6L138.4,23.6z"/>
			</g>
			<g>
				<rect x="201.3" y="24.6" class="st1" width="30.6" height="26.1"/>
				<path class="st2" d="M230.9,25.6v24.1h-28.6V25.6H230.9 M232.9,23.6h-32.6v28.1h32.6V23.6L232.9,23.6z"/>
			</g>
			<g>
				<rect x="173.8" y="24.6" class="st1" width="14.3" height="26.1"/>
				<path class="st2" d="M187.1,25.6v24.1h-12.3V25.6H187.1 M189.1,23.6h-16.3v28.1h16.3V23.6L189.1,23.6z"/>
			</g>
			<g>
				<rect x="56.1" y="24.6" class="st1" width="14.3" height="26.1"/>
				<path class="st2" d="M69.4,25.6v24.1H57.1V25.6H69.4 M71.4,23.6H55.1v28.1h16.3V23.6L71.4,23.6z"/>
			</g>
		</g>
	</g>
	<g>
		<rect y="185.7" class="st2" width="244.2" height="29.4"/>
		<rect y="120.4" class="st2" width="244.2" height="29.4"/>
		<rect y="251.1" class="st2" width="244.2" height="29.4"/>
		<rect y="55" class="st2" width="244.2" height="29.4"/>
		<rect class="st2" width="244.2" height="19"/>
		<rect y="447.1" class="st2" width="244.2" height="29.3"/>
		<rect y="643.2" class="st2" width="244.2" height="29.3"/>
		<rect y="316.4" class="st2" width="244.2" height="29.3"/>
		<rect y="577.8" class="st2" width="244.2" height="29.3"/>
		<rect y="512.5" class="st2" width="244.2" height="29.3"/>
		<rect y="381.8" class="st2" width="244.2" height="29.3"/>
	</g>
</g>
</svg>
