<?xml version="1.0" encoding="utf-8"?>
<!-- Generator: Adobe Illustrator 26.5.0, SVG Export Plug-In . SVG Version: 6.00 Build 0)  -->
<svg version="1.1" id="Manoir" xmlns="http://www.w3.org/2000/svg" xmlns:xlink="http://www.w3.org/1999/xlink" x="0px" y="0px"
	 viewBox="0 0 310.2 311.8" style="enable-background:new 0 0 310.2 311.8;" xml:space="preserve">
<style type="text/css">
	.st0{fill:#FCBE1B;}
	.st1{fill:#261923;}
	.st2{fill:#E8629F;}
	.st3{fill-rule:evenodd;clip-rule:evenodd;fill:#261923;}
	.st4{fill-rule:evenodd;clip-rule:evenodd;fill:#E8629F;}
	.st5{fill-rule:evenodd;clip-rule:evenodd;fill:#FCBE1B;}
</style>
<g>
	<rect x="86.1" y="88" class="st0" width="138" height="223.7"/>
	<g>
		<rect x="135.7" y="250.5" class="st1" width="38.7" height="59.8"/>
		<path class="st2" d="M172.9,252v56.7h-35.7V252H172.9 M175.9,249h-41.7v62.7h41.7V249L175.9,249z"/>
	</g>
	<g>
		<path class="st3" d="M138.5,212.5v-33.3c0-9.1,7.4-16.6,16.6-16.6s16.6,7.4,16.6,16.6v33.3H138.5L138.5,212.5z"/>
		<path class="st2" d="M155.1,164.2c8.3,0,15.1,6.8,15.1,15.1V211H140v-31.8C140,170.9,146.8,164.2,155.1,164.2 M155.1,161.2
			L155.1,161.2c-10,0-18.1,8.1-18.1,18.1V214h36.1v-34.8C173.1,169.3,165,161.2,155.1,161.2L155.1,161.2z"/>
	</g>
	<rect x="224.1" y="81.7" class="st0" width="76.5" height="230.1"/>
	<g>
		<path class="st3" d="M238.2,139.6v-21.9c0-5.1,4.2-9.3,9.3-9.3h0.2c5.1,0,9.3,4.2,9.3,9.3v21.9H238.2z"/>
		<path class="st2" d="M247.7,110c4.3,0,7.8,3.5,7.8,7.8v20.4h-15.8v-20.4c0-4.3,3.5-7.8,7.8-7.8H247.7 M247.7,107h-0.2
			c-6,0-10.8,4.8-10.8,10.8v23.4h21.8v-23.4C258.5,111.8,253.6,107,247.7,107L247.7,107L247.7,107z"/>
	</g>
	<g>
		<path class="st3" d="M267.7,139.6v-21.9c0-5.1,4.2-9.3,9.3-9.3h0.2c5.1,0,9.3,4.2,9.3,9.3v21.9H267.7z"/>
		<path class="st2" d="M277.2,110c4.3,0,7.8,3.5,7.8,7.8v20.4h-15.8v-20.4c0-4.3,3.5-7.8,7.8-7.8H277.2 M277.2,107H277
			c-6,0-10.8,4.8-10.8,10.8v23.4h21.8v-23.4C287.9,111.8,283.1,107,277.2,107L277.2,107L277.2,107z"/>
	</g>
	<g>
		<path class="st3" d="M238.2,216.7v-21.9c0-5.1,4.2-9.3,9.3-9.3h0.2c5.1,0,9.3,4.2,9.3,9.3v21.9H238.2z"/>
		<path class="st2" d="M247.7,187c4.3,0,7.8,3.5,7.8,7.8v20.4h-15.8v-20.4c0-4.3,3.5-7.8,7.8-7.8H247.7 M247.7,184h-0.2
			c-6,0-10.8,4.8-10.8,10.8v23.4h21.8v-23.4C258.5,188.8,253.6,184,247.7,184L247.7,184L247.7,184z"/>
	</g>
	<g>
		<path class="st3" d="M267.7,216.7v-21.9c0-5.1,4.2-9.3,9.3-9.3h0.2c5.1,0,9.3,4.2,9.3,9.3v21.9H267.7z"/>
		<path class="st2" d="M277.2,187c4.3,0,7.8,3.5,7.8,7.8v20.4h-15.8v-20.4c0-4.3,3.5-7.8,7.8-7.8H277.2 M277.2,184H277
			c-6,0-10.8,4.8-10.8,10.8v23.4h21.8v-23.4C287.9,188.8,283.1,184,277.2,184L277.2,184L277.2,184z"/>
	</g>
	<g>
		<path class="st3" d="M267.7,285v-21.9c0-5.1,4.2-9.3,9.3-9.3h0.2c5.1,0,9.3,4.2,9.3,9.3V285H267.7z"/>
		<path class="st2" d="M277.2,255.4c4.3,0,7.8,3.5,7.8,7.8v20.4h-15.8v-20.4c0-4.3,3.5-7.8,7.8-7.8H277.2 M277.2,252.4H277
			c-6,0-10.8,4.8-10.8,10.8v23.4h21.8v-23.4C287.9,257.2,283.1,252.4,277.2,252.4L277.2,252.4L277.2,252.4z"/>
	</g>
	<g>
		<path class="st3" d="M190.1,285v-21.9c0-5.1,4.2-9.3,9.3-9.3h0.2c5.1,0,9.3,4.2,9.3,9.3V285H190.1z"/>
		<path class="st2" d="M199.6,255.4c4.3,0,7.8,3.5,7.8,7.8v20.4h-15.8v-20.4c0-4.3,3.5-7.8,7.8-7.8H199.6 M199.5,252.4h-0.2
			c-6,0-10.8,4.8-10.8,10.8v23.4h21.8v-23.4C210.3,257.2,205.5,252.4,199.5,252.4L199.5,252.4L199.5,252.4z"/>
	</g>
	<g>
		<path class="st3" d="M101.3,285v-21.9c0-5.1,4.2-9.3,9.3-9.3h0.2c5.1,0,9.3,4.2,9.3,9.3V285H101.3L101.3,285z"/>
		<path class="st2" d="M110.8,255.4c4.3,0,7.8,3.5,7.8,7.8v20.4h-15.8v-20.4c0-4.3,3.5-7.8,7.8-7.8H110.8 M110.7,252.4h-0.2
			c-6,0-10.8,4.8-10.8,10.8v23.4h21.8v-23.4C121.5,257.2,116.7,252.4,110.7,252.4L110.7,252.4L110.7,252.4z"/>
	</g>
	<g>
		<polygon class="st4" points="217.2,83.3 262.3,3.3 307.4,83.3 		"/>
		<path class="st0" d="M262.3,6.5l42.3,75.1H220L262.3,6.5 M262.3,0l-2.8,5l-42.3,75.1l-2.7,4.8h95.7l-2.7-4.8L265.1,5L262.3,0
			L262.3,0L262.3,0z"/>
	</g>
	<rect x="224.1" y="165.9" class="st2" width="76.5" height="7.9"/>
	<rect x="86" y="149.2" class="st2" width="138" height="7.9"/>
	<rect x="224.1" y="229.7" class="st2" width="76.5" height="7.9"/>
	<rect x="9.6" y="81.7" class="st0" width="76.5" height="230.1"/>
	<g>
		<path class="st3" d="M53.2,139.6v-21.9c0-5.1,4.2-9.3,9.3-9.3h0.2c5.1,0,9.3,4.2,9.3,9.3v21.9H53.2L53.2,139.6z"/>
		<path class="st2" d="M62.7,110c4.3,0,7.8,3.5,7.8,7.8v20.4H54.7v-20.4c0-4.3,3.5-7.8,7.8-7.8H62.7 M62.7,107h-0.2
			c-6,0-10.8,4.8-10.8,10.8v23.4h21.8v-23.4C73.4,111.8,68.6,107,62.7,107L62.7,107L62.7,107z"/>
	</g>
	<g>
		<path class="st3" d="M23.7,139.6v-21.9c0-5.1,4.2-9.3,9.3-9.3h0.2c5.1,0,9.3,4.2,9.3,9.3v21.9H23.7L23.7,139.6z"/>
		<path class="st2" d="M33.2,110c4.3,0,7.8,3.5,7.8,7.8v20.4H25.2v-20.4c0-4.3,3.5-7.8,7.8-7.8H33.2 M33.2,107H33
			c-5.9,0-10.8,4.8-10.8,10.8v23.4H44v-23.4C44,111.8,39.1,107,33.2,107L33.2,107L33.2,107z"/>
	</g>
	<g>
		<path class="st3" d="M53.2,216.7v-21.9c0-5.1,4.2-9.3,9.3-9.3h0.2c5.1,0,9.3,4.2,9.3,9.3v21.9H53.2L53.2,216.7z"/>
		<path class="st2" d="M62.7,187c4.3,0,7.8,3.5,7.8,7.8v20.4H54.7v-20.4c0-4.3,3.5-7.8,7.8-7.8H62.7 M62.7,184h-0.2
			c-6,0-10.8,4.8-10.8,10.8v23.4h21.8v-23.4C73.4,188.8,68.6,184,62.7,184L62.7,184L62.7,184z"/>
	</g>
	<g>
		<path class="st3" d="M23.7,216.7v-21.9c0-5.1,4.2-9.3,9.3-9.3h0.2c5.1,0,9.3,4.2,9.3,9.3v21.9H23.7L23.7,216.7z"/>
		<path class="st2" d="M33.2,187c4.3,0,7.8,3.5,7.8,7.8v20.4H25.2v-20.4c0-4.3,3.5-7.8,7.8-7.8H33.2 M33.2,184H33
			c-5.9,0-10.8,4.8-10.8,10.8v23.4H44v-23.4C44,188.8,39.1,184,33.2,184L33.2,184L33.2,184z"/>
	</g>
	<g>
		<path class="st3" d="M23.7,285v-21.9c0-5.1,4.2-9.3,9.3-9.3h0.2c5.1,0,9.3,4.2,9.3,9.3V285H23.7L23.7,285z"/>
		<path class="st2" d="M33.2,255.4c4.3,0,7.8,3.5,7.8,7.8v20.4H25.2v-20.4c0-4.3,3.5-7.8,7.8-7.8H33.2 M33.2,252.4H33
			c-5.9,0-10.8,4.8-10.8,10.8v23.4H44v-23.4C44,257.2,39.1,252.4,33.2,252.4L33.2,252.4L33.2,252.4z"/>
	</g>
	<g>
		<polygon class="st4" points="2.7,83.3 47.8,3.3 92.9,83.3 		"/>
		<path class="st0" d="M47.8,6.5l42.3,75.1H5.5L47.8,6.5 M47.8,0L45,5L2.7,80.1L0,84.9h95.7L93,80.1L50.6,5L47.8,0L47.8,0L47.8,0z"
			/>
	</g>
	<rect x="9.6" y="165.9" class="st2" width="76.5" height="7.9"/>
	<rect x="9.6" y="229.7" class="st2" width="76.5" height="7.9"/>
	<path class="st4" d="M223.9,214H86.2c0,0-21.7,31.3-21.6,31.4h180.9C245.6,245.3,223.9,214,223.9,214L223.9,214z"/>
	<path class="st4" d="M229.1,28.3H91.5c0,0-21.7,59.6-21.6,59.8h180.9C250.8,87.9,229.1,28.3,229.1,28.3L229.1,28.3z"/>
	<g>
		<polygon class="st5" points="110.4,86.4 155.1,13.3 199.7,86.4 		"/>
		<path class="st2" d="M155.1,16.4l41.8,68.4h-83.5L155.1,16.4 M155.1,10.3L107.6,88h95L155.1,10.3L155.1,10.3L155.1,10.3z"/>
	</g>
	<g>
		<path class="st3" d="M145.7,76.8V54.9c0-5.1,4.2-9.3,9.3-9.3h0.2c5.1,0,9.3,4.2,9.3,9.3v21.9H145.7L145.7,76.8z"/>
		<path class="st2" d="M155.2,47.1c4.3,0,7.8,3.5,7.8,7.8v20.4h-15.8V54.9c0-4.3,3.5-7.8,7.8-7.8H155.2 M155.1,44.1h-0.2
			c-6,0-10.8,4.8-10.8,10.8v23.4h21.8V54.9C165.9,48.9,161.1,44.1,155.1,44.1L155.1,44.1L155.1,44.1z"/>
	</g>
	<rect x="86" y="187.6" class="st2" width="138" height="3.1"/>
	<g>
		<rect x="86" y="190.7" class="st2" width="3.1" height="23.3"/>
		<rect x="98.3" y="190.7" class="st2" width="3.1" height="23.3"/>
		<rect x="110.6" y="190.7" class="st2" width="3.1" height="23.3"/>
		<rect x="122.8" y="190.7" class="st2" width="3.1" height="23.3"/>
		<rect x="135.1" y="190.7" class="st2" width="3.1" height="23.3"/>
		<rect x="147.4" y="190.7" class="st2" width="3.1" height="23.3"/>
		<rect x="159.6" y="190.7" class="st2" width="3.1" height="23.3"/>
		<rect x="171.9" y="190.7" class="st2" width="3.1" height="23.3"/>
		<rect x="184.1" y="190.7" class="st2" width="3.1" height="23.3"/>
		<rect x="196.4" y="190.7" class="st2" width="3.1" height="23.3"/>
		<rect x="208.7" y="190.7" class="st2" width="3.1" height="23.3"/>
		<rect x="220.9" y="190.7" class="st2" width="3.1" height="23.3"/>
	</g>
	<g>
		<path class="st3" d="M138.5,147.7v-33.3c0-9.1,7.4-16.6,16.6-16.6s16.6,7.4,16.6,16.6v33.3H138.5L138.5,147.7z"/>
		<path class="st2" d="M155.1,99.4c8.3,0,15.1,6.8,15.1,15.1v31.8H140v-31.8C140,106.1,146.8,99.4,155.1,99.4 M155.1,96.4
			L155.1,96.4c-10,0-18.1,8.1-18.1,18.1v34.8h36.1v-34.8C173.1,104.5,165,96.4,155.1,96.4L155.1,96.4z"/>
	</g>
	<rect x="86" y="122.8" class="st2" width="138" height="3.1"/>
	<g>
		<rect x="69.4" y="245.4" class="st2" width="3.1" height="66.4"/>
		<rect x="126.6" y="245.4" class="st2" width="3.1" height="66.4"/>
		<rect x="180.4" y="245.4" class="st2" width="3.1" height="66.4"/>
		<rect x="237.6" y="245.4" class="st2" width="3.1" height="66.4"/>
	</g>
	<g>
		<rect x="86" y="125.9" class="st2" width="3.1" height="23.3"/>
		<rect x="98.3" y="125.9" class="st2" width="3.1" height="23.3"/>
		<rect x="110.6" y="125.9" class="st2" width="3.1" height="23.3"/>
		<rect x="122.8" y="125.9" class="st2" width="3.1" height="23.3"/>
		<rect x="135.1" y="125.9" class="st2" width="3.1" height="23.3"/>
		<rect x="147.4" y="125.9" class="st2" width="3.1" height="23.3"/>
		<rect x="159.6" y="125.9" class="st2" width="3.1" height="23.3"/>
		<rect x="171.9" y="125.9" class="st2" width="3.1" height="23.3"/>
		<rect x="184.1" y="125.9" class="st2" width="3.1" height="23.3"/>
		<rect x="196.4" y="125.9" class="st2" width="3.1" height="23.3"/>
		<rect x="208.7" y="125.9" class="st2" width="3.1" height="23.3"/>
		<rect x="220.9" y="125.9" class="st2" width="3.1" height="23.3"/>
	</g>
</g>
</svg>
