<?xml version="1.0" encoding="utf-8"?>
<!-- Generator: Adobe Illustrator 26.5.0, SVG Export Plug-In . SVG Version: 6.00 Build 0)  -->
<svg version="1.1" id="uuid-fd2fb1c9-e8cc-492e-a59f-6ce15aeebb83"
	 xmlns="http://www.w3.org/2000/svg" xmlns:xlink="http://www.w3.org/1999/xlink" x="0px" y="0px" viewBox="0 0 308.1 435.1"
	 style="enable-background:new 0 0 308.1 435.1;" xml:space="preserve">
<style type="text/css">
	.st0{fill:#FCBE1B;}
	.st1{fill:#E8629F;}
	.st2{fill:#261923;}
	.st3{fill-rule:evenodd;clip-rule:evenodd;fill:#261923;}
	.st4{fill:none;stroke:#E8629F;stroke-width:2.85;stroke-miterlimit:10;}
</style>
<g>
	<polygon class="st0" points="216.4,201 96.7,201 86.3,435.1 226.2,435.1 	"/>
	<polygon class="st1" points="156.2,107.9 86.3,201 226.2,201 	"/>
	<g>
		<rect x="146.1" y="233.6" class="st2" width="20.8" height="20.8"/>
		<path class="st1" d="M165.5,235v18h-18v-18H165.5 M168.4,232.2h-23.7v23.7h23.7V232.2L168.4,232.2L168.4,232.2z"/>
	</g>
	<g>
		<rect x="146.1" y="280.8" class="st2" width="20.8" height="20.8"/>
		<path class="st1" d="M165.5,282.2v18h-18v-18H165.5 M168.4,279.4h-23.7v23.7h23.7V279.4L168.4,279.4z"/>
	</g>
	<path class="st3" d="M172.3,435.1h-31.6v-39c0-8.7,7.1-15.8,15.8-15.8l0,0c8.7,0,15.8,7.1,15.8,15.8L172.3,435.1L172.3,435.1z"/>
	<polygon class="st1" points="283.4,287 285.2,285.2 157.6,157.6 198,117.2 217.3,136.5 308.1,45.8 287,24.7 287,24.7 285.2,22.9 
		157.6,150.5 117.2,110.1 136.6,90.8 45.8,0 26.4,19.4 26.4,19.4 22.9,22.9 150.5,150.5 110.1,190.9 90.7,171.5 0,262.3 21.1,283.4 
		21.1,283.4 22.9,285.2 150.5,157.6 190.9,198 171.6,217.4 262.3,308.1 283.4,287 	"/>
	<polygon class="st0" points="157.6,157.6 285.2,285.2 281.7,288.7 150.5,157.6 22.9,285.2 19.4,281.7 150.5,150.5 22.9,22.9 
		26.4,19.4 157.6,150.5 285.2,22.9 288.7,26.4 	"/>
	<path class="st4" d="M140.7,435.1v-39c0-8.7,7.1-15.8,15.8-15.8l0,0c8.7,0,15.8,7.1,15.8,15.8v39"/>
</g>
</svg>
