<?xml version="1.0" encoding="utf-8"?>
<!-- Generator: Adobe Illustrator 26.5.0, SVG Export Plug-In . SVG Version: 6.00 Build 0)  -->
<svg version="1.1" id="Maison_modeste" xmlns="http://www.w3.org/2000/svg" xmlns:xlink="http://www.w3.org/1999/xlink" x="0px"
	 y="0px" viewBox="0 0 501.3 238.7" style="enable-background:new 0 0 501.3 238.7;" xml:space="preserve">
<style type="text/css">
	.st0{fill:#FCBE1B;}
	.st1{fill-rule:evenodd;clip-rule:evenodd;fill:#E8629F;}
	.st2{fill-rule:evenodd;clip-rule:evenodd;fill:#261923;}
	.st3{fill:none;stroke:#E8629F;stroke-width:7;stroke-miterlimit:10;}
	.st4{fill-rule:evenodd;clip-rule:evenodd;fill:#261923;stroke:#E8629F;stroke-width:7;stroke-miterlimit:10;}
	.st5{fill:#E8629F;}
	.st6{fill-rule:evenodd;clip-rule:evenodd;fill:#FCBE1B;}
	.st7{fill:none;stroke:#E8629F;stroke-width:5;stroke-miterlimit:10;}
	.st8{fill-rule:evenodd;clip-rule:evenodd;fill:#261923;stroke:#E8629F;stroke-width:5;stroke-miterlimit:10;}
</style>
<g>
	<rect x="18" y="78" class="st0" width="480.8" height="140.4"/>
	<polygon class="st1" points="391.2,17.5 61.3,17.5 0,78 391.2,78 	"/>
	<g>
		<g>
			<path class="st2" d="M237.8,87.2L237.8,87.2c-20.8,0-37.6,1.8-37.6,22.6v108.6h75.1V109.8C275.3,89.1,258.5,87.2,237.8,87.2
				L237.8,87.2z"/>
			<path class="st3" d="M200.2,218.4V112.7c0-20.8,16.8-25.4,37.6-25.4l0,0c20.8,0,37.6,4.7,37.6,25.4v105.7"/>
		</g>
		<circle class="st0" cx="237.8" cy="147.7" r="3.5"/>
	</g>
	<polygon class="st4" points="425.4,87.2 395.4,87.2 365.4,87.2 365.4,173.9 395.4,173.9 425.4,173.9 455.5,173.9 455.5,87.2 	"/>
	<line class="st3" x1="410.4" y1="87.2" x2="410.4" y2="173.9"/>
	<rect x="18" y="218.4" class="st5" width="483.2" height="20.3"/>
	<g>
		<rect x="18" y="187.4" class="st5" width="12" height="31"/>
		<rect x="21.4" y="78" class="st5" width="5.3" height="109.4"/>
	</g>
	<g>
		<rect x="179.1" y="187.4" class="st5" width="12" height="31"/>
		<rect x="182.5" y="78" class="st5" width="5.3" height="109.4"/>
	</g>
	<g>
		<polygon class="st6" points="306.1,75.5 402.4,3.1 498.8,75.5 498.8,218.4 306.1,218.4 		"/>
		<polyline class="st7" points="306.1,218.4 306.1,75.5 402.4,3.1 498.8,75.5 498.8,218.4 		"/>
	</g>
	<g>
		<polygon class="st8" points="418.5,95.3 386.4,95.3 354.2,95.3 354.2,162.5 386.4,162.5 418.5,162.5 450.7,162.5 450.7,95.3 		"/>
		<line class="st7" x1="402.4" y1="95.3" x2="402.4" y2="162.5"/>
		<line class="st7" x1="450.7" y1="128.9" x2="354.2" y2="128.9"/>
	</g>
	<g>
		<polygon class="st8" points="122.7,95.3 90.5,95.3 58.3,95.3 58.3,162.5 90.5,162.5 122.7,162.5 154.9,162.5 154.9,95.3 		"/>
		<line class="st7" x1="106.6" y1="95.3" x2="106.6" y2="162.5"/>
		<line class="st7" x1="154.9" y1="128.9" x2="58.3" y2="128.9"/>
	</g>
</g>
</svg>
