<?xml version="1.0" encoding="utf-8"?>
<!-- Generator: Adobe Illustrator 26.5.0, SVG Export Plug-In . SVG Version: 6.00 Build 0)  -->
<svg version="1.1" id="Monastère" xmlns="http://www.w3.org/2000/svg" xmlns:xlink="http://www.w3.org/1999/xlink" x="0px" y="0px"
	 viewBox="0 0 394.8 275.7" style="enable-background:new 0 0 394.8 275.7;" xml:space="preserve">
<style type="text/css">
	.st0{fill:#E8629F;}
	.st1{fill:#FCBE1B;}
	.st2{fill:#261923;}
	.st3{fill:none;stroke:#E8629F;stroke-width:2;stroke-miterlimit:10;}
</style>
<g>
	<g>
		<polygon class="st0" points="213.8,20.4 167.8,68.9 259.9,68.9 		"/>
		<rect x="173.8" y="68.9" class="st1" width="80" height="80"/>
		<g>
			<path class="st2" d="M208.2,98.6V83.6c0-3.1,2.5-5.7,5.7-5.7s5.7,2.5,5.7,5.7v15.1H208.2L208.2,98.6z"/>
			<path class="st0" d="M213.8,78.9c2.6,0,4.7,2.1,4.7,4.7v14.1h-9.4V83.6C209.1,81,211.3,78.9,213.8,78.9 M213.8,76.9
				c-3.7,0-6.7,3-6.7,6.7v16.1h13.4V83.6C220.5,79.9,217.5,76.9,213.8,76.9L213.8,76.9L213.8,76.9z"/>
		</g>
		<line class="st3" x1="213.8" y1="28.2" x2="213.8" y2="0"/>
	</g>
	<rect x="192.8" y="137.3" class="st0" width="140.1" height="48.3"/>
	<rect x="9.7" y="148.9" class="st1" width="183.1" height="126.8"/>
	<g>
		<polygon class="st0" points="348.7,63.5 302.7,112 394.8,112 		"/>
		<rect x="308.7" y="112" class="st1" width="80" height="80"/>
		<g>
			<path class="st2" d="M343,141.8v-15.1c0-3.1,2.5-5.7,5.7-5.7s5.7,2.5,5.7,5.7v15.1H343L343,141.8z"/>
			<path class="st0" d="M348.7,122c2.6,0,4.7,2.1,4.7,4.7v14.1H344v-14.1C344,124.1,346.1,122,348.7,122 M348.7,120
				c-3.7,0-6.7,3-6.7,6.7v16.1h13.4v-16.1C355.4,123,352.4,120,348.7,120L348.7,120L348.7,120z"/>
		</g>
		<line class="st3" x1="348.7" y1="71.3" x2="348.7" y2="43.1"/>
	</g>
	<polygon class="st0" points="389.2,181.6 332.9,137.3 276.5,181.6 276.5,264.1 389.2,264.1 	"/>
	<polygon class="st1" points="389.2,185.9 332.9,141.6 276.5,185.9 276.5,275.6 389.2,275.6 	"/>
	<rect x="192.8" y="185.6" class="st1" width="83.7" height="90"/>
	<g>
		<polygon class="st0" points="1.7,147.9 37.1,87.3 174.2,87.3 174.2,147.9 		"/>
		<path class="st1" d="M173.2,88.3v58.6H3.5l34.2-58.6L173.2,88.3 M175.2,86.3H36.5L0,148.9h175.2L175.2,86.3L175.2,86.3L175.2,86.3
			z"/>
	</g>
	<g>
		<line class="st3" x1="276.5" y1="275.6" x2="276.5" y2="185.6"/>
		<line class="st3" x1="192.8" y1="148.9" x2="192.8" y2="275.6"/>
	</g>
	<g>
		<path class="st2" d="M205.9,247.3v-20.6c0-4.4,3.6-8,8-8s8,3.6,8,8v20.6H205.9L205.9,247.3z"/>
		<path class="st0" d="M213.8,219.7c3.9,0,7,3.1,7,7v19.6h-14v-19.6C206.9,222.9,210,219.7,213.8,219.7 M213.9,217.7L213.9,217.7
			c-5,0-9,4-9,9v21.6h18v-21.6C222.8,221.8,218.8,217.7,213.9,217.7L213.9,217.7L213.9,217.7z"/>
	</g>
	<g>
		<path class="st2" d="M147.1,247.3v-20.6c0-4.4,3.6-8,8-8s8,3.6,8,8v20.6H147.1L147.1,247.3z"/>
		<path class="st0" d="M155.1,219.7c3.9,0,7,3.1,7,7v19.6h-14v-19.6C148.1,222.9,151.2,219.7,155.1,219.7 M155.1,217.7c-5,0-9,4-9,9
			v21.6h18v-21.6C164.1,221.8,160.1,217.7,155.1,217.7L155.1,217.7L155.1,217.7z"/>
	</g>
	<g>
		<path class="st2" d="M88.4,247.3v-20.6c0-4.4,3.6-8,8-8s8,3.6,8,8v20.6H88.4z"/>
		<path class="st0" d="M96.3,219.7c3.9,0,7,3.1,7,7v19.6h-14v-19.6C89.3,222.9,92.5,219.7,96.3,219.7 M96.3,217.7L96.3,217.7
			c-5,0-9,4-9,9v21.6h18v-21.6C105.3,221.8,101.3,217.7,96.3,217.7L96.3,217.7L96.3,217.7z"/>
	</g>
	<g>
		<path class="st2" d="M29.6,247.3v-20.6c0-4.4,3.6-8,8-8s8,3.6,8,8v20.6H29.6L29.6,247.3z"/>
		<path class="st0" d="M37.6,219.7c3.9,0,7,3.1,7,7v19.6h-14v-19.6C30.6,222.9,33.7,219.7,37.6,219.7 M37.6,217.7L37.6,217.7
			c-5,0-9,4-9,9v21.6h18v-21.6C46.6,221.8,42.5,217.7,37.6,217.7L37.6,217.7L37.6,217.7z"/>
	</g>
	<g>
		<path class="st2" d="M241.7,247.3v-20.6c0-4.4,3.6-8,8-8s8,3.6,8,8v20.6H241.7L241.7,247.3z"/>
		<path class="st0" d="M249.7,219.7c3.9,0,7,3.1,7,7v19.6h-14v-19.6C242.7,222.9,245.8,219.7,249.7,219.7 M249.7,217.7c-5,0-9,4-9,9
			v21.6h18v-21.6C258.7,221.8,254.7,217.7,249.7,217.7L249.7,217.7L249.7,217.7z"/>
	</g>
	<g>
		<path class="st2" d="M318,274.6v-53c0-8.2,6.7-14.8,14.8-14.8s14.9,6.7,14.9,14.8v53H318z"/>
		<path class="st0" d="M332.9,207.8c7.6,0,13.9,6.2,13.9,13.8v52H319v-52C319,214,325.2,207.8,332.9,207.8 M332.9,205.8L332.9,205.8
			c-8.8,0-15.8,7.1-15.8,15.8v54h31.7v-54C348.7,212.9,341.6,205.8,332.9,205.8L332.9,205.8z"/>
	</g>
	<g>
		<path class="st2" d="M356.8,274.6v-46c0-5.4,4.4-9.9,9.9-9.9s9.9,4.4,9.9,9.9v46H356.8z"/>
		<path class="st0" d="M366.6,219.7c4.9,0,8.9,4,8.9,8.9v45h-17.7v-45C357.8,223.7,361.7,219.7,366.6,219.7 M366.6,217.7
			L366.6,217.7c-6,0-10.9,4.9-10.9,10.9v47h21.7v-47C377.5,222.6,372.6,217.7,366.6,217.7L366.6,217.7z"/>
	</g>
	<g>
		<path class="st2" d="M289.2,274.6v-46c0-5.4,4.4-9.9,9.9-9.9c5.4,0,9.9,4.4,9.9,9.9v46H289.2L289.2,274.6z"/>
		<path class="st0" d="M299.1,219.7c4.9,0,8.9,4,8.9,8.9v45h-17.7v-45C290.2,223.7,294.2,219.7,299.1,219.7 M299.1,217.7
			L299.1,217.7c-6,0-10.9,4.9-10.9,10.9v47H310v-47C310,222.6,305.1,217.7,299.1,217.7L299.1,217.7L299.1,217.7z"/>
	</g>
	<rect x="9.7" y="148.9" class="st0" width="183.1" height="6.8"/>
	<rect x="9.7" y="202.4" class="st0" width="183.1" height="6.8"/>
	<rect x="173.8" y="137.3" class="st0" width="18.9" height="11.6"/>
</g>
</svg>
