<?xml version="1.0" encoding="utf-8"?>
<!-- Generator: Adobe Illustrator 26.5.0, SVG Export Plug-In . SVG Version: 6.00 Build 0)  -->
<svg version="1.1" id="uuid-bafde8b5-f765-482d-bd51-608a668cf148"
	 xmlns="http://www.w3.org/2000/svg" xmlns:xlink="http://www.w3.org/1999/xlink" x="0px" y="0px" viewBox="0 0 382.7 247.9"
	 style="enable-background:new 0 0 382.7 247.9;" xml:space="preserve">
<style type="text/css">
	.st0{fill:#FCBE1B;}
	.st1{fill:#E8629F;}
	.st2{fill:#261923;}
</style>
<g>
	<rect x="0" y="194.9" class="st0" width="382.7" height="53"/>
	<rect x="0" y="186.3" class="st1" width="382.7" height="8.6"/>
	<rect x="0" y="133.3" class="st0" width="382.7" height="53"/>
	<rect x="0" y="124.7" class="st1" width="382.7" height="8.6"/>
	<rect x="0" y="71.7" class="st0" width="382.7" height="53"/>
	<polygon class="st1" points="358.2,0 24.5,0 0,63.1 382.7,63.1 	"/>
	<rect x="374.1" y="63.1" class="st1" width="8.6" height="184.8"/>
	<rect x="0" y="63.1" class="st1" width="8.6" height="184.8"/>
	<g>
		<g>
			<g>
				<rect x="319.1" y="208.6" class="st2" width="15.8" height="38.2"/>
				<path class="st1" d="M333.8,209.6v36.2h-13.8v-36.2H333.8 M335.8,207.6h-17.8v40.2h17.8V207.6L335.8,207.6z"/>
			</g>
			<g>
				<rect x="346" y="208.6" class="st2" width="22.9" height="16.8"/>
				<path class="st1" d="M367.9,209.6v14.8H347v-14.8H367.9 M369.9,207.6H345v18.8h24.9V207.6L369.9,207.6z"/>
			</g>
			<g>
				<rect x="292.2" y="208.6" class="st2" width="15.8" height="38.2"/>
				<path class="st1" d="M306.9,209.6v36.2h-13.8v-36.2H306.9 M308.9,207.6h-17.8v40.2h17.8V207.6L308.9,207.6z"/>
			</g>
			<g>
				<rect x="258.1" y="208.6" class="st2" width="22.9" height="16.8"/>
				<path class="st1" d="M280,209.6v14.8h-20.9v-14.8H280 M282,207.6h-24.9v18.8H282V207.6L282,207.6z"/>
			</g>
		</g>
		<g>
			<g>
				<rect x="196.5" y="208.6" class="st2" width="15.8" height="38.2"/>
				<path class="st1" d="M211.3,209.6v36.2h-13.8v-36.2H211.3 M213.3,207.6h-17.8v40.2h17.8V207.6L213.3,207.6z"/>
			</g>
			<g>
				<rect x="223.4" y="208.6" class="st2" width="22.9" height="16.8"/>
				<path class="st1" d="M245.4,209.6v14.8h-20.9v-14.8H245.4 M247.4,207.6h-24.9v18.8h24.9V207.6L247.4,207.6z"/>
			</g>
			<g>
				<rect x="169.6" y="208.6" class="st2" width="15.8" height="38.2"/>
				<path class="st1" d="M184.4,209.6v36.2h-13.8v-36.2H184.4 M186.4,207.6h-17.8v40.2h17.8V207.6L186.4,207.6z"/>
			</g>
			<g>
				<rect x="135.6" y="208.6" class="st2" width="22.9" height="16.8"/>
				<path class="st1" d="M157.5,209.6v14.8h-20.9v-14.8H157.5 M159.5,207.6h-24.9v18.8h24.9V207.6L159.5,207.6z"/>
			</g>
		</g>
		<g>
			<g>
				<rect x="74.8" y="208.6" class="st2" width="15.8" height="38.2"/>
				<path class="st1" d="M89.5,209.6v36.2H75.8v-36.2H89.5 M91.5,207.6H73.8v40.2h17.8V207.6L91.5,207.6z"/>
			</g>
			<g>
				<rect x="101.7" y="208.6" class="st2" width="22.9" height="16.8"/>
				<path class="st1" d="M123.6,209.6v14.8h-20.9v-14.8H123.6 M125.6,207.6h-24.9v18.8h24.9V207.6L125.6,207.6z"/>
			</g>
			<g>
				<rect x="47.9" y="208.6" class="st2" width="15.8" height="38.2"/>
				<path class="st1" d="M62.6,209.6v36.2H48.9v-36.2H62.6 M64.6,207.6H46.9v40.2h17.8V207.6L64.6,207.6z"/>
			</g>
			<g>
				<rect x="13.8" y="208.6" class="st2" width="22.9" height="16.8"/>
				<path class="st1" d="M35.7,209.6v14.8H14.8v-14.8H35.7 M37.7,207.6H12.8v18.8h24.9V207.6L37.7,207.6z"/>
			</g>
		</g>
		<g>
			<g>
				<rect x="319.1" y="147.1" class="st2" width="15.8" height="38.2"/>
				<path class="st1" d="M333.8,148.1v36.2h-13.8v-36.2H333.8 M335.8,146.1h-17.8v40.2h17.8V146.1L335.8,146.1z"/>
			</g>
			<g>
				<rect x="346" y="147.1" class="st2" width="22.9" height="16.8"/>
				<path class="st1" d="M367.9,148.1v14.8H347v-14.8H367.9 M369.9,146.1H345v18.8h24.9V146.1L369.9,146.1z"/>
			</g>
			<g>
				<rect x="292.2" y="147.1" class="st2" width="15.8" height="38.2"/>
				<path class="st1" d="M306.9,148.1v36.2h-13.8v-36.2H306.9 M308.9,146.1h-17.8v40.2h17.8V146.1L308.9,146.1z"/>
			</g>
			<g>
				<rect x="258.1" y="147.1" class="st2" width="22.9" height="16.8"/>
				<path class="st1" d="M280,148.1v14.8h-20.9v-14.8H280 M282,146.1h-24.9v18.8H282V146.1L282,146.1z"/>
			</g>
		</g>
		<g>
			<g>
				<rect x="196.5" y="147.1" class="st2" width="15.8" height="38.2"/>
				<path class="st1" d="M211.3,148.1v36.2h-13.8v-36.2H211.3 M213.3,146.1h-17.8v40.2h17.8V146.1L213.3,146.1z"/>
			</g>
			<g>
				<rect x="223.4" y="147.1" class="st2" width="22.9" height="16.8"/>
				<path class="st1" d="M245.4,148.1v14.8h-20.9v-14.8H245.4 M247.4,146.1h-24.9v18.8h24.9V146.1L247.4,146.1z"/>
			</g>
			<g>
				<rect x="169.6" y="147.1" class="st2" width="15.8" height="38.2"/>
				<path class="st1" d="M184.4,148.1v36.2h-13.8v-36.2H184.4 M186.4,146.1h-17.8v40.2h17.8V146.1L186.4,146.1z"/>
			</g>
			<g>
				<rect x="135.6" y="147.1" class="st2" width="22.9" height="16.8"/>
				<path class="st1" d="M157.5,148.1v14.8h-20.9v-14.8H157.5 M159.5,146.1h-24.9v18.8h24.9V146.1L159.5,146.1z"/>
			</g>
		</g>
		<g>
			<g>
				<rect x="74.8" y="147.1" class="st2" width="15.8" height="38.2"/>
				<path class="st1" d="M89.5,148.1v36.2H75.8v-36.2H89.5 M91.5,146.1H73.8v40.2h17.8V146.1L91.5,146.1z"/>
			</g>
			<g>
				<rect x="101.7" y="147.1" class="st2" width="22.9" height="16.8"/>
				<path class="st1" d="M123.6,148.1v14.8h-20.9v-14.8H123.6 M125.6,146.1h-24.9v18.8h24.9V146.1L125.6,146.1z"/>
			</g>
			<g>
				<rect x="47.9" y="147.1" class="st2" width="15.8" height="38.2"/>
				<path class="st1" d="M62.6,148.1v36.2H48.9v-36.2H62.6 M64.6,146.1H46.9v40.2h17.8V146.1L64.6,146.1z"/>
			</g>
			<g>
				<rect x="13.8" y="147.1" class="st2" width="22.9" height="16.8"/>
				<path class="st1" d="M35.7,148.1v14.8H14.8v-14.8H35.7 M37.7,146.1H12.8v18.8h24.9V146.1L37.7,146.1z"/>
			</g>
		</g>
		<g>
			<g>
				<rect x="319.1" y="85.5" class="st2" width="15.8" height="38.2"/>
				<path class="st1" d="M333.8,86.5v36.2h-13.8V86.5H333.8 M335.8,84.5h-17.8v40.2h17.8V84.5L335.8,84.5z"/>
			</g>
			<g>
				<rect x="346" y="85.5" class="st2" width="22.9" height="16.8"/>
				<path class="st1" d="M367.9,86.5v14.8H347V86.5H367.9 M369.9,84.5H345v18.8h24.9V84.5L369.9,84.5z"/>
			</g>
			<g>
				<rect x="292.2" y="85.5" class="st2" width="15.8" height="38.2"/>
				<path class="st1" d="M306.9,86.5v36.2h-13.8V86.5H306.9 M308.9,84.5h-17.8v40.2h17.8V84.5L308.9,84.5z"/>
			</g>
			<g>
				<rect x="258.1" y="85.5" class="st2" width="22.9" height="16.8"/>
				<path class="st1" d="M280,86.5v14.8h-20.9V86.5H280 M282,84.5h-24.9v18.8H282V84.5L282,84.5z"/>
			</g>
		</g>
		<g>
			<g>
				<rect x="196.5" y="85.5" class="st2" width="15.8" height="38.2"/>
				<path class="st1" d="M211.3,86.5v36.2h-13.8V86.5H211.3 M213.3,84.5h-17.8v40.2h17.8V84.5L213.3,84.5z"/>
			</g>
			<g>
				<rect x="223.4" y="85.5" class="st2" width="22.9" height="16.8"/>
				<path class="st1" d="M245.4,86.5v14.8h-20.9V86.5H245.4 M247.4,84.5h-24.9v18.8h24.9V84.5L247.4,84.5z"/>
			</g>
			<g>
				<rect x="169.6" y="85.5" class="st2" width="15.8" height="38.2"/>
				<path class="st1" d="M184.4,86.5v36.2h-13.8V86.5H184.4 M186.4,84.5h-17.8v40.2h17.8V84.5L186.4,84.5z"/>
			</g>
			<g>
				<rect x="135.6" y="85.5" class="st2" width="22.9" height="16.8"/>
				<path class="st1" d="M157.5,86.5v14.8h-20.9V86.5H157.5 M159.5,84.5h-24.9v18.8h24.9V84.5L159.5,84.5z"/>
			</g>
		</g>
		<g>
			<g>
				<rect x="74.8" y="85.5" class="st2" width="15.8" height="38.2"/>
				<path class="st1" d="M89.5,86.5v36.2H75.8V86.5H89.5 M91.5,84.5H73.8v40.2h17.8V84.5L91.5,84.5z"/>
			</g>
			<g>
				<rect x="101.7" y="85.5" class="st2" width="22.9" height="16.8"/>
				<path class="st1" d="M123.6,86.5v14.8h-20.9V86.5H123.6 M125.6,84.5h-24.9v18.8h24.9V84.5L125.6,84.5z"/>
			</g>
			<g>
				<rect x="47.9" y="85.5" class="st2" width="15.8" height="38.2"/>
				<path class="st1" d="M62.6,86.5v36.2H48.9V86.5H62.6 M64.6,84.5H46.9v40.2h17.8V84.5L64.6,84.5z"/>
			</g>
			<g>
				<rect x="13.8" y="85.5" class="st2" width="22.9" height="16.8"/>
				<path class="st1" d="M35.7,86.5v14.8H14.8V86.5H35.7 M37.7,84.5H12.8v18.8h24.9V84.5L37.7,84.5z"/>
			</g>
		</g>
	</g>
	
		<rect x="-6.5" y="212.8" transform="matrix(0.7071 -0.7071 0.7071 0.7071 -143.8764 86.7643)" class="st1" width="78.5" height="8.6"/>
	
		<rect x="30.2" y="114.7" transform="matrix(0.7071 -0.7071 0.7071 0.7071 -102.4364 71.0081)" class="st1" width="8.6" height="89"/>
	<rect x="0" y="63.1" class="st1" width="382.7" height="8.6"/>
	<path class="st1" d="M380.7,170.8v22.1H2v-22.1H380.7 M382.7,168.8H0v26.1h382.7V168.8L382.7,168.8z"/>
	<path class="st1" d="M30.4,127L73,169.6v23.3h-8L6.4,134.2L30.4,127 M31,124.7l-28.4,8.5l61.6,61.6H75v-26.1L31,124.7L31,124.7
		L31,124.7z"/>
	<path class="st1" d="M49.9,171.3l15.6,15.6L6.6,245.9H2v-26.7L49.9,171.3 M49.9,168.5L0,218.4v29.5h7.4l60.9-60.9L49.9,168.5
		L49.9,168.5L49.9,168.5z"/>
	<path class="st1" d="M380.7,109.2v22.1H2v-22.1H380.7 M382.7,107.2H0v26.1h382.7V107.2L382.7,107.2L382.7,107.2z"/>
</g>
</svg>
