<?xml version="1.0" encoding="utf-8"?>
<!-- Generator: Adobe Illustrator 26.5.0, SVG Export Plug-In . SVG Version: 6.00 Build 0)  -->
<svg version="1.1" id="uuid-66fc3581-8a88-4f35-9948-e6874c21babc"
	 xmlns="http://www.w3.org/2000/svg" xmlns:xlink="http://www.w3.org/1999/xlink" x="0px" y="0px" viewBox="0 0 595.3 407.1"
	 style="enable-background:new 0 0 595.3 407.1;" xml:space="preserve">
<style type="text/css">
	.st0{fill:#FCBE1B;}
	.st1{fill:#E8629F;}
	.st2{fill:#261923;}
	.st3{fill:none;stroke:#E8629F;stroke-width:3;stroke-miterlimit:10;}
</style>
<g>
	<rect y="221" class="st0" width="595.3" height="186.2"/>
	<path class="st1" d="M442.4,137.1H152.9c-19.6,0-35.4,15.9-35.4,35.4v234.6h360.3V172.5C477.8,153,461.9,137.1,442.4,137.1
		L442.4,137.1z"/>
	<path class="st0" d="M203.2,85.8h188.8c11.9,0,21.6,9.7,21.6,21.6v299.8H181.7V107.4C181.7,95.5,191.3,85.8,203.2,85.8L203.2,85.8z
		"/>
	<path class="st1" d="M343.8,59.8h-92.4c-5.7,0-10.3,4.6-10.3,10.3v337h113v-337C354.1,64.4,349.5,59.8,343.8,59.8L343.8,59.8z"/>
	<path class="st0" d="M297.6,0L297.6,0c19.1,0,34.6,15.5,34.6,34.6v372.6h-69.2V34.6C263.1,15.5,278.6,0,297.6,0L297.6,0z"/>
	<g>
		<rect x="361.5" y="347.2" class="st2" width="45.5" height="58.9"/>
		<path class="st1" d="M406,348.2v56.9h-43.5v-56.9H406 M408,346.2h-47.5v60.9H408V346.2L408,346.2z"/>
	</g>
	<g>
		<rect x="513.8" y="347.2" class="st2" width="45.5" height="58.9"/>
		<path class="st1" d="M558.3,348.2v56.9h-43.5v-56.9H558.3 M560.3,346.2h-47.5v60.9h47.5V346.2L560.3,346.2z"/>
	</g>
	<g>
		<rect x="36" y="347.2" class="st2" width="45.5" height="58.9"/>
		<path class="st1" d="M80.5,348.2v56.9H37v-56.9H80.5 M82.5,346.2H35v60.9h47.5V346.2L82.5,346.2z"/>
	</g>
	<g>
		<rect x="274.9" y="347.2" class="st2" width="45.5" height="32.4"/>
		<path class="st1" d="M319.4,348.2v30.4h-43.5v-30.4H319.4 M321.4,346.2h-47.5v34.4h47.5V346.2L321.4,346.2z"/>
	</g>
	<g>
		<rect x="141.6" y="247.5" class="st0" width="312.1" height="32.4"/>
		<path class="st1" d="M452.7,248.5v30.4H142.6v-30.4H452.7 M454.7,246.5H140.6v34.4h314.1V246.5L454.7,246.5z"/>
	</g>
	<g>
		<rect x="188.3" y="347.2" class="st2" width="45.5" height="58.9"/>
		<path class="st1" d="M232.8,348.2v56.9h-43.5v-56.9H232.8 M234.8,346.2h-47.5v60.9h47.5V346.2L234.8,346.2z"/>
	</g>
	<rect y="211.6" class="st1" width="117.5" height="9.4"/>
	<rect x="477.8" y="211.6" class="st1" width="117.5" height="9.4"/>
	<polygon class="st1" points="297.6,45.1 280.6,54.1 283.9,35.1 270.1,21.7 289.1,18.9 297.6,1.7 306.1,18.9 325.2,21.7 311.4,35.1 
		314.7,54.1 	"/>
	<g>
		<line class="st3" x1="117.5" y1="238.2" x2="0" y2="238.2"/>
		<line class="st3" x1="117.5" y1="248.6" x2="0" y2="248.6"/>
		<line class="st3" x1="117.5" y1="259.1" x2="0" y2="259.1"/>
	</g>
	<g>
		<line class="st3" x1="595.3" y1="238.2" x2="477.8" y2="238.2"/>
		<line class="st3" x1="595.3" y1="248.6" x2="477.8" y2="248.6"/>
		<line class="st3" x1="595.3" y1="259.1" x2="477.8" y2="259.1"/>
	</g>
	<g>
		<line class="st3" x1="373.8" y1="59.8" x2="373.8" y2="246.5"/>
		<line class="st3" x1="384.2" y1="59.8" x2="384.2" y2="246.5"/>
		<line class="st3" x1="394.7" y1="59.8" x2="394.7" y2="246.5"/>
	</g>
	<g>
		<line class="st3" x1="200.6" y1="59.8" x2="200.6" y2="246.5"/>
		<line class="st3" x1="211" y1="59.8" x2="211" y2="246.5"/>
		<line class="st3" x1="221.5" y1="59.8" x2="221.5" y2="246.5"/>
	</g>
</g>
</svg>
