<?xml version="1.0" encoding="utf-8"?>
<!-- Generator: Adobe Illustrator 26.5.0, SVG Export Plug-In . SVG Version: 6.00 Build 0)  -->
<svg version="1.1" id="uuid-a0d22b39-edba-480d-b578-a76d7df85ff7"
	 xmlns="http://www.w3.org/2000/svg" xmlns:xlink="http://www.w3.org/1999/xlink" x="0px" y="0px" viewBox="0 0 464.4 424.4"
	 style="enable-background:new 0 0 464.4 424.4;" xml:space="preserve">
<style type="text/css">
	.st0{fill:none;stroke:#FCBE1B;stroke-width:5.38;stroke-miterlimit:10;}
	.st1{fill:#E6629F;}
	.st2{fill:#FCBE1B;}
	.st3{fill:none;stroke:#E6629F;stroke-width:5.38;stroke-miterlimit:10;}
</style>
<g>
	<line class="st0" x1="171.9" y1="409.5" x2="209.3" y2="160.2"/>
	<line class="st0" x1="280.5" y1="409.5" x2="243.2" y2="160.2"/>
	<line class="st0" x1="177.9" y1="369.9" x2="274.9" y2="369.9"/>
	<line class="st0" x1="186.5" y1="309.7" x2="265.6" y2="309.7"/>
	<line class="st0" x1="195" y1="254.7" x2="257.4" y2="254.7"/>
	<line class="st0" x1="186.5" y1="309.7" x2="257.4" y2="254.7"/>
	<line class="st0" x1="265.6" y1="309.7" x2="195" y2="254.7"/>
	<line class="st0" x1="177.9" y1="369.9" x2="265.6" y2="309.7"/>
	<line class="st0" x1="274.9" y1="369.9" x2="186.5" y2="309.7"/>
	<line class="st0" x1="250.6" y1="209.9" x2="195" y2="254.7"/>
	<line class="st0" x1="201.8" y1="209.9" x2="257.4" y2="254.7"/>
	<line class="st0" x1="245.5" y1="174.8" x2="201.8" y2="209.9"/>
	<line class="st0" x1="207.2" y1="174.8" x2="250.8" y2="209.9"/>
	<line class="st0" x1="201.8" y1="209.9" x2="250.8" y2="209.9"/>
	<rect x="146" y="408.2" class="st1" width="160" height="16.2"/>
	<circle class="st2" cx="226.4" cy="160.2" r="19.2"/>
	<line class="st3" x1="460.7" y1="106.9" x2="460.7" y2="424.4"/>
	<line class="st3" x1="42.3" y1="213" x2="42.3" y2="424.4"/>
	
		<rect x="23.9" y="130.6" transform="matrix(0.9103 -0.4141 0.4141 0.9103 -39.8844 99.1799)" class="st2" width="369.8" height="21.9"/>
	<path class="st2" d="M372.6,55.1c5.4-16.5,5.5-34.9-0.2-55.1c0,0,108.6,33.9,89.8,137.4c-23.1-31.8-54.7-60.2-80.5-62.4L372.6,55.1
		L372.6,55.1z"/>
	<polygon class="st2" points="68.2,362.7 17.4,362.7 0,424.4 84.6,424.4 	"/>
</g>
</svg>
