<?xml version="1.0" encoding="utf-8"?>
<!-- Generator: Adobe Illustrator 26.5.0, SVG Export Plug-In . SVG Version: 6.00 Build 0)  -->
<svg version="1.1" id="Palais" xmlns="http://www.w3.org/2000/svg" xmlns:xlink="http://www.w3.org/1999/xlink" x="0px" y="0px"
	 viewBox="0 0 531.9 314.6" style="enable-background:new 0 0 531.9 314.6;" xml:space="preserve">
<style type="text/css">
	.st0{fill:#FCBE1B;}
	.st1{fill:#E6629F;}
	.st2{fill:#E8629F;}
	.st3{fill:#FCBE1C;}
	.st4{fill:#261923;}
</style>
<g>
	<rect x="111.5" y="139.8" class="st0" width="308.8" height="136"/>
	<g>
		<rect x="113" y="141.3" class="st0" width="42.4" height="133"/>
		<path class="st1" d="M153.9,142.8v130h-39.4v-130H153.9 M156.9,139.8h-45.4v136h45.4V139.8L156.9,139.8z"/>
	</g>
	<g>
		<rect x="162.8" y="141.3" class="st0" width="42.4" height="133"/>
		<path class="st1" d="M203.7,142.8v130h-39.4v-130H203.7 M206.7,139.8h-45.4v136h45.4V139.8L206.7,139.8z"/>
	</g>
	<path class="st2" d="M200.1,105.7c0,11.5,6.6,21.4,6.6,21.4v12.8h-45.4c0,0-3.3-5.2-3.3-16.4s12.5-18.5,12.5-18.5
		S184,96.5,184,90.3C184,96.5,192.9,102.3,200.1,105.7L200.1,105.7z"/>
	<polygon class="st2" points="265.9,139.8 206.7,139.8 206.7,279.3 265.9,279.3 325.1,279.3 325.1,139.8 	"/>
	<polygon class="st0" points="265.9,143.2 211,143.2 211,275.9 265.9,275.9 320.8,275.9 320.8,143.2 	"/>
	<polygon class="st2" points="265.9,275.9 0,275.9 0,314.6 265.9,314.6 531.9,314.6 531.9,275.9 	"/>
	<g>
		<rect x="225.8" y="158" class="st3" width="80.2" height="116.3"/>
		<path class="st2" d="M304.5,159.5v113.3h-77.2V159.5H304.5 M307.5,156.5h-83.2v119.3h83.2V156.5L307.5,156.5z"/>
	</g>
	<g>
		<rect x="376.5" y="141.3" class="st0" width="42.4" height="133"/>
		<path class="st1" d="M417.4,142.8v130H378v-130H417.4 M420.4,139.8H375v136h45.4V139.8L420.4,139.8z"/>
	</g>
	<g>
		<rect x="326.6" y="141.3" class="st0" width="42.4" height="133"/>
		<path class="st1" d="M367.5,142.8v130h-39.4v-130H367.5 M370.5,139.8h-45.4v136h45.4V139.8L370.5,139.8z"/>
	</g>
	<polygon class="st0" points="265.9,126 206.7,126 206.7,139.8 265.9,139.8 325.1,139.8 325.1,126 	"/>
	<path class="st2" d="M331.8,105.7c0,11.5-6.6,21.4-6.6,21.4v12.8h45.4c0,0,3.3-5.2,3.3-16.4s-12.5-18.5-12.5-18.5
		s-13.4-8.3-13.4-14.6C347.8,96.5,338.9,102.3,331.8,105.7L331.8,105.7z"/>
	<g>
		<path class="st2" d="M207.6,125.8c-1.9-3.6-10.1-19.8-10.1-38.8c0-21.5,19.9-41.8,31-47.1c9.2-4.4,31.4-23.9,37.4-35.2
			c6,11.3,28.2,30.8,37.4,35.2c11.1,5.4,31,25.7,31,47.1c0,19-8.1,35.2-10.1,38.8H207.6z"/>
		<path class="st3" d="M265.9,7.7c3.1,4.9,8.1,10.3,12.6,14.7c8.8,8.7,18.3,16.1,24.1,18.9c4.5,2.2,12.2,7.9,19.1,17.1
			c5,6.7,11,17.1,11,28.7c0,17.5-7.1,32.6-9.5,37.3H208.5c-2.4-4.7-9.5-19.8-9.5-37.3c0-11.6,6-22,11-28.7
			c6.9-9.2,14.6-14.9,19.1-17.1c5.8-2.8,15.3-10.2,24.1-18.9C257.8,18,262.8,12.5,265.9,7.7 M265.9,0c0,8-26.6,33.1-38,38.6
			s-31.9,26.4-31.9,48.5c0,22.1,10.7,40.3,10.7,40.3h118.4c0,0,10.7-18.1,10.7-40.3s-20.5-43-31.9-48.5S265.9,8,265.9,0L265.9,0
			L265.9,0z"/>
	</g>
	<g>
		<g>
			<path class="st4" d="M172,238.4L172,238.4C172,238.3,172,238.4,172,238.4z"/>
			<path class="st2" d="M172,238.3L172,238.3C172,238.4,172,238.4,172,238.3L172,238.3L172,238.3L172,238.3z"/>
		</g>
		<g>
			<path class="st4" d="M173.5,263.2v-24.6c0.4-1.5,1.6-5.2,4.9-6c2.6-0.6,4.5-2,5.6-3c1.1,1,3.1,2.4,5.7,3c3.3,0.8,4.5,4.6,4.8,6
				v24.6L173.5,263.2L173.5,263.2z"/>
			<path class="st2" d="M184,231.5c1.3,1,3.1,2,5.3,2.5c2.4,0.6,3.4,3.6,3.7,4.7v22.9h-18v-22.9c0.3-1.1,1.3-4.1,3.7-4.7
				C181,233.5,182.7,232.5,184,231.5 M184,227.4c0,0-2.2,2.9-6,3.7c-4.8,1.2-5.9,7-6,7.2v26.3h24v-26.3c-0.1-0.3-1.2-6-6-7.2
				C186.2,230.3,184,227.4,184,227.4L184,227.4L184,227.4z"/>
		</g>
		<g>
			<path class="st4" d="M196,238.3L196,238.3C196,238.4,196,238.4,196,238.3z"/>
			<path class="st2" d="M196,238.3L196,238.3L196,238.3C196,238.4,196,238.4,196,238.3L196,238.3L196,238.3z"/>
		</g>
	</g>
	<g>
		<g>
			<path class="st4" d="M172,172.1L172,172.1C172,172.1,172,172.1,172,172.1z"/>
			<path class="st2" d="M172,172.1L172,172.1C172,172.1,172,172.1,172,172.1L172,172.1L172,172.1L172,172.1z"/>
		</g>
		<g>
			<path class="st4" d="M173.5,196.9v-24.6c0.4-1.5,1.6-5.2,4.9-6c2.6-0.6,4.5-2,5.6-3c1.1,1,3.1,2.4,5.7,3c3.3,0.8,4.5,4.6,4.8,6
				v24.6L173.5,196.9L173.5,196.9z"/>
			<path class="st2" d="M184,165.2c1.3,1,3.1,2,5.3,2.5c2.4,0.6,3.4,3.6,3.7,4.7v22.9h-18v-22.9c0.3-1.1,1.3-4.1,3.7-4.7
				C181,167.3,182.7,166.2,184,165.2 M184,161.1c0,0-2.2,2.9-6,3.7c-4.8,1.2-5.9,7-6,7.2v26.3h24v-26.3c-0.1-0.3-1.2-6-6-7.2
				C186.2,164,184,161.1,184,161.1L184,161.1L184,161.1z"/>
		</g>
		<g>
			<path class="st4" d="M196,172.1L196,172.1C196,172.1,196,172.1,196,172.1z"/>
			<path class="st2" d="M196,172.1L196,172.1L196,172.1C196,172.1,196,172.1,196,172.1L196,172.1L196,172.1z"/>
		</g>
	</g>
	<g>
		<g>
			<path class="st4" d="M122.2,238.4L122.2,238.4C122.2,238.3,122.2,238.4,122.2,238.4z"/>
			<path class="st2" d="M122.2,238.3L122.2,238.3C122.2,238.4,122.2,238.4,122.2,238.3L122.2,238.3L122.2,238.3L122.2,238.3z"/>
		</g>
		<g>
			<path class="st4" d="M123.7,263.2v-24.6c0.4-1.5,1.6-5.2,4.9-6c2.6-0.6,4.5-2,5.6-3c1.1,1,3.1,2.4,5.7,3c3.3,0.8,4.5,4.6,4.8,6
				v24.6L123.7,263.2L123.7,263.2z"/>
			<path class="st2" d="M134.2,231.5c1.3,1,3.1,2,5.3,2.5c2.4,0.6,3.4,3.6,3.7,4.7v22.9h-18v-22.9c0.3-1.1,1.3-4.1,3.7-4.7
				C131.1,233.5,132.9,232.5,134.2,231.5 M134.2,227.4c0,0-2.2,2.9-6,3.7c-4.8,1.2-5.9,7-6,7.2v26.3h24v-26.3c-0.1-0.3-1.2-6-6-7.2
				C136.4,230.3,134.2,227.4,134.2,227.4L134.2,227.4L134.2,227.4z"/>
		</g>
		<g>
			<path class="st4" d="M146.2,238.3L146.2,238.3C146.2,238.4,146.2,238.4,146.2,238.3z"/>
			<path class="st2" d="M146.2,238.3L146.2,238.3L146.2,238.3C146.2,238.4,146.2,238.4,146.2,238.3L146.2,238.3L146.2,238.3z"/>
		</g>
	</g>
	<g>
		<g>
			<path class="st4" d="M122.2,172.1L122.2,172.1C122.2,172.1,122.2,172.1,122.2,172.1z"/>
			<path class="st2" d="M122.2,172.1L122.2,172.1C122.2,172.1,122.2,172.1,122.2,172.1L122.2,172.1L122.2,172.1L122.2,172.1z"/>
		</g>
		<g>
			<path class="st4" d="M123.7,196.9v-24.6c0.4-1.5,1.6-5.2,4.9-6c2.6-0.6,4.5-2,5.6-3c1.1,1,3.1,2.4,5.7,3c3.3,0.8,4.5,4.6,4.8,6
				v24.6L123.7,196.9L123.7,196.9z"/>
			<path class="st2" d="M134.2,165.2c1.3,1,3.1,2,5.3,2.5c2.4,0.6,3.4,3.6,3.7,4.7v22.9h-18v-22.9c0.3-1.1,1.3-4.1,3.7-4.7
				C131.1,167.3,132.9,166.2,134.2,165.2 M134.2,161.1c0,0-2.2,2.9-6,3.7c-4.8,1.2-5.9,7-6,7.2v26.3h24v-26.3c-0.1-0.3-1.2-6-6-7.2
				C136.4,164,134.2,161.1,134.2,161.1L134.2,161.1L134.2,161.1z"/>
		</g>
		<g>
			<path class="st4" d="M146.2,172.1L146.2,172.1C146.2,172.1,146.2,172.1,146.2,172.1z"/>
			<path class="st2" d="M146.2,172.1L146.2,172.1L146.2,172.1C146.2,172.1,146.2,172.1,146.2,172.1L146.2,172.1L146.2,172.1z"/>
		</g>
	</g>
	<g>
		<g>
			<path class="st4" d="M236.7,196L236.7,196C236.7,196,236.7,196.1,236.7,196z"/>
			<path class="st2" d="M236.7,195.9c0,0.1,0,0.1,0,0.1S236.7,196,236.7,195.9L236.7,195.9L236.7,195.9z"/>
		</g>
		<g>
			<path class="st4" d="M295.1,195.9L295.1,195.9C295.2,196.1,295.2,196,295.1,195.9z"/>
			<path class="st2" d="M295.1,195.9L295.1,195.9c0,0.1,0,0.1,0,0.1C295.1,196,295.1,196,295.1,195.9L295.1,195.9z"/>
		</g>
		<g>
			<path class="st4" d="M238.2,274.4v-78.3c0.8-4.1,4-17.7,13.5-20.7c7.1-2,12-7.4,14.1-10.2c2.2,2.8,7.1,8.2,14.2,10.2
				c9.5,3,12.7,16.6,13.5,20.7v0v78.3L238.2,274.4L238.2,274.4z"/>
			<path class="st2" d="M265.9,167.5c2.7,3.1,7.4,7.4,13.7,9.3c6.9,2.2,10.9,11.5,12.5,19.4v76.6h-26.2h-26.2v-76.6
				c1.5-8,5.6-17.2,12.5-19.4C258.6,175,263.3,170.6,265.9,167.5 M265.9,162.6c0,0-5.4,8.7-14.6,11.3c-11.5,3.7-14.4,21.1-14.6,22
				v79.9h29.2h29.2V196c-0.2-1-3.1-18.4-14.6-22C271.3,171.3,265.9,162.6,265.9,162.6L265.9,162.6z"/>
		</g>
	</g>
	<g>
		<g>
			<path class="st4" d="M359.8,238.4L359.8,238.4C359.8,238.3,359.8,238.4,359.8,238.4z"/>
			<path class="st2" d="M359.8,238.3L359.8,238.3L359.8,238.3C359.8,238.4,359.8,238.4,359.8,238.3L359.8,238.3L359.8,238.3z"/>
		</g>
		<g>
			<path class="st4" d="M337.3,263.2v-24.6c0.4-1.5,1.6-5.2,4.9-6c2.6-0.6,4.5-2,5.6-3c1.1,1,3.1,2.4,5.7,3c3.3,0.8,4.5,4.6,4.8,6
				v24.6L337.3,263.2L337.3,263.2z"/>
			<path class="st2" d="M347.8,231.5c1.3,1,3.1,2,5.3,2.5c2.4,0.6,3.4,3.6,3.7,4.7v22.9h-18v-22.9c0.3-1.1,1.3-4.1,3.7-4.7
				C344.8,233.5,346.5,232.5,347.8,231.5 M347.8,227.4c0,0-2.2,2.9-6,3.7c-4.8,1.2-5.9,7-6,7.2v26.3h24v-26.3c-0.1-0.3-1.2-6-6-7.2
				C350,230.3,347.8,227.4,347.8,227.4L347.8,227.4L347.8,227.4z"/>
		</g>
		<g>
			<path class="st4" d="M335.8,238.3L335.8,238.3C335.8,238.4,335.8,238.4,335.8,238.3z"/>
			<path class="st2" d="M335.8,238.3L335.8,238.3C335.8,238.4,335.8,238.4,335.8,238.3L335.8,238.3L335.8,238.3L335.8,238.3z"/>
		</g>
	</g>
	<g>
		<g>
			<path class="st4" d="M359.8,172.1L359.8,172.1C359.8,172.1,359.8,172.1,359.8,172.1z"/>
			<path class="st2" d="M359.8,172.1L359.8,172.1L359.8,172.1C359.8,172.1,359.8,172.1,359.8,172.1L359.8,172.1L359.8,172.1z"/>
		</g>
		<g>
			<path class="st4" d="M337.3,196.9v-24.6c0.4-1.5,1.6-5.2,4.9-6c2.6-0.6,4.5-2,5.6-3c1.1,1,3.1,2.4,5.7,3c3.3,0.8,4.5,4.6,4.8,6
				v24.6L337.3,196.9L337.3,196.9z"/>
			<path class="st2" d="M347.8,165.2c1.3,1,3.1,2,5.3,2.5c2.4,0.6,3.4,3.6,3.7,4.7v22.9h-18v-22.9c0.3-1.1,1.3-4.1,3.7-4.7
				C344.8,167.3,346.5,166.2,347.8,165.2 M347.8,161.1c0,0-2.2,2.9-6,3.7c-4.8,1.2-5.9,7-6,7.2v26.3h24v-26.3c-0.1-0.3-1.2-6-6-7.2
				C350,164,347.8,161.1,347.8,161.1L347.8,161.1L347.8,161.1z"/>
		</g>
		<g>
			<path class="st4" d="M335.8,172.1L335.8,172.1C335.8,172.1,335.8,172.1,335.8,172.1z"/>
			<path class="st2" d="M335.8,172.1L335.8,172.1C335.8,172.1,335.8,172.1,335.8,172.1L335.8,172.1L335.8,172.1L335.8,172.1z"/>
		</g>
	</g>
	<g>
		<g>
			<path class="st4" d="M274.2,193.1L274.2,193.1C274.2,193.1,274.2,193.2,274.2,193.1z"/>
			<path class="st3" d="M274.2,193.1L274.2,193.1L274.2,193.1C274.2,193.1,274.2,193.1,274.2,193.1L274.2,193.1L274.2,193.1z"/>
		</g>
		<g>
			<path class="st4" d="M258.7,210.2v-16.9c0.3-1,1.1-3.5,3.4-4.1c1.8-0.4,3.1-1.4,3.9-2.1c0.8,0.7,2.1,1.7,3.9,2.1
				c2.3,0.6,3.1,3.2,3.3,4.1v16.9L258.7,210.2L258.7,210.2z"/>
			<path class="st3" d="M265.9,188.4c0.9,0.7,2.1,1.4,3.6,1.7c1.7,0.4,2.4,2.5,2.6,3.3v15.8h-12.5v-15.8c0.2-0.7,0.9-2.8,2.6-3.3
				C263.8,189.8,265.1,189.1,265.9,188.4 M266,185.6c0,0-1.5,2-4.1,2.6c-3.3,0.8-4.1,4.8-4.1,5v18h16.5v-18c0-0.2-0.9-4.1-4.1-5
				C267.5,187.6,266,185.6,266,185.6L266,185.6L266,185.6z"/>
		</g>
		<g>
			<path class="st4" d="M257.7,193.1L257.7,193.1C257.7,193.1,257.7,193.2,257.7,193.1z"/>
			<path class="st3" d="M257.7,193.1L257.7,193.1L257.7,193.1L257.7,193.1L257.7,193.1L257.7,193.1z"/>
		</g>
	</g>
	<g>
		<g>
			<path class="st4" d="M274.2,243L274.2,243C274.2,243,274.2,243,274.2,243z"/>
			<path class="st3" d="M274.2,243L274.2,243L274.2,243C274.2,243,274.2,243,274.2,243L274.2,243L274.2,243z"/>
		</g>
		<g>
			<path class="st4" d="M258.7,260v-16.9c0.3-1,1.1-3.5,3.4-4.1c1.8-0.4,3.1-1.4,3.9-2.1c0.8,0.7,2.1,1.7,3.9,2.1
				c2.3,0.6,3.1,3.2,3.3,4.1V260L258.7,260L258.7,260z"/>
			<path class="st3" d="M265.9,238.2c0.9,0.7,2.1,1.4,3.6,1.7c1.7,0.4,2.4,2.5,2.6,3.3V259h-12.5v-15.8c0.2-0.7,0.9-2.8,2.6-3.3
				C263.8,239.6,265.1,238.9,265.9,238.2 M266,235.5c0,0-1.5,2-4.1,2.6c-3.3,0.8-4.1,4.8-4.1,5v18h16.5v-18c0-0.2-0.9-4.1-4.1-5
				C267.5,237.4,266,235.5,266,235.5L266,235.5L266,235.5z"/>
		</g>
		<g>
			<path class="st4" d="M257.7,243L257.7,243C257.7,243,257.7,243,257.7,243z"/>
			<path class="st3" d="M257.7,243L257.7,243L257.7,243L257.7,243L257.7,243L257.7,243z"/>
		</g>
	</g>
	<g>
		<g>
			<path class="st4" d="M409.7,238.4L409.7,238.4C409.7,238.3,409.7,238.4,409.7,238.4z"/>
			<path class="st2" d="M409.7,238.3L409.7,238.3L409.7,238.3C409.7,238.4,409.7,238.4,409.7,238.3L409.7,238.3L409.7,238.3z"/>
		</g>
		<g>
			<path class="st4" d="M387.2,263.2v-24.6c0.4-1.5,1.6-5.2,4.9-6c2.6-0.6,4.5-2,5.6-3c1.1,1,3.1,2.4,5.7,3c3.3,0.8,4.5,4.6,4.8,6
				v24.6L387.2,263.2L387.2,263.2z"/>
			<path class="st2" d="M397.7,231.5c1.3,1,3.1,2,5.3,2.5c2.4,0.6,3.4,3.6,3.7,4.7v22.9h-18v-22.9c0.3-1.1,1.3-4.1,3.7-4.7
				C394.6,233.5,396.4,232.5,397.7,231.5 M397.6,227.4c0,0-2.2,2.9-6,3.7c-4.8,1.2-5.9,7-6,7.2v26.3h24v-26.3c-0.1-0.3-1.2-6-6-7.2
				C399.9,230.3,397.7,227.4,397.6,227.4L397.6,227.4L397.6,227.4z"/>
		</g>
		<g>
			<path class="st4" d="M385.6,238.3L385.6,238.3C385.6,238.4,385.6,238.4,385.6,238.3z"/>
			<path class="st2" d="M385.6,238.3L385.6,238.3C385.6,238.4,385.6,238.4,385.6,238.3L385.6,238.3L385.6,238.3L385.6,238.3z"/>
		</g>
	</g>
	<g>
		<g>
			<path class="st4" d="M409.7,172.1L409.7,172.1C409.7,172.1,409.7,172.1,409.7,172.1z"/>
			<path class="st2" d="M409.7,172.1L409.7,172.1L409.7,172.1C409.7,172.1,409.7,172.1,409.7,172.1L409.7,172.1L409.7,172.1z"/>
		</g>
		<g>
			<path class="st4" d="M387.2,196.9v-24.6c0.4-1.5,1.6-5.2,4.9-6c2.6-0.6,4.5-2,5.6-3c1.1,1,3.1,2.4,5.7,3c3.3,0.8,4.5,4.6,4.8,6
				v24.6L387.2,196.9L387.2,196.9z"/>
			<path class="st2" d="M397.7,165.2c1.3,1,3.1,2,5.3,2.5c2.4,0.6,3.4,3.6,3.7,4.7v22.9h-18v-22.9c0.3-1.1,1.3-4.1,3.7-4.7
				C394.6,167.3,396.4,166.2,397.7,165.2 M397.6,161.1c0,0-2.2,2.9-6,3.7c-4.8,1.2-5.9,7-6,7.2v26.3h24v-26.3c-0.1-0.3-1.2-6-6-7.2
				C399.9,164,397.7,161.1,397.6,161.1L397.6,161.1L397.6,161.1z"/>
		</g>
		<g>
			<path class="st4" d="M385.6,172.1L385.6,172.1C385.6,172.1,385.6,172.1,385.6,172.1z"/>
			<path class="st2" d="M385.6,172.1L385.6,172.1C385.6,172.1,385.6,172.1,385.6,172.1L385.6,172.1L385.6,172.1L385.6,172.1z"/>
		</g>
	</g>
	<g>
		<path class="st0" d="M47.9,204.3L46,127.6l-0.1-5.9l-1.6-64.2c0,0-2.7-8.2-8.4-8.2s-8.4,8.2-8.4,8.2l-1.6,64.2l-0.2,5.9l-1.9,76.7
			l-0.2,5.9l-1.7,65.7h27.8L48,210.1L47.9,204.3L47.9,204.3z"/>
		<rect x="20.3" y="137.7" class="st2" width="30.9" height="5.9"/>
		<rect x="20.3" y="72" class="st2" width="30.9" height="5.9"/>
		<rect x="18.5" y="213.3" class="st2" width="34.6" height="5.9"/>
		<g>
			<path class="st2" d="M40.8,41.8c-1.5-0.7-5-4-5-5c0,1-3.5,4.3-5,5c-1.5,0.7-4.2,3.4-4.2,6.3s1.4,5.3,1.4,5.3h15.5
				c0,0,1.4-2.4,1.4-5.3S42.3,42.5,40.8,41.8L40.8,41.8z"/>
			<rect x="23.7" y="53.4" class="st2" width="24.2" height="2.7"/>
			<rect x="25.6" y="56.1" class="st0" width="20.3" height="15.9"/>
		</g>
	</g>
	<g>
		<path class="st0" d="M92.6,220.8l-1.5-59l-0.1-4.5L89.8,108c0,0-2.1-6.3-6.5-6.3s-6.5,6.3-6.5,6.3l-1.2,49.3l-0.1,4.5l-1.5,59
			l-0.1,4.5l-1.3,50.6H94l-1.3-50.6L92.6,220.8L92.6,220.8z"/>
		<rect x="71.4" y="169.6" class="st2" width="23.8" height="4.5"/>
		<rect x="71.4" y="119.1" class="st2" width="23.8" height="4.5"/>
		<rect x="70" y="227.7" class="st2" width="26.6" height="4.5"/>
		<g>
			<path class="st2" d="M87.1,95.8c-1.1-0.5-3.8-3.1-3.8-3.9c0,0.8-2.7,3.3-3.8,3.9c-1.1,0.5-3.2,2.7-3.2,4.9s1.1,4,1.1,4h11.9
				c0,0,1.1-1.8,1.1-4S88.2,96.4,87.1,95.8L87.1,95.8z"/>
			<rect x="74" y="104.8" class="st2" width="18.6" height="2.1"/>
			<rect x="75.5" y="106.8" class="st0" width="15.6" height="12.2"/>
		</g>
	</g>
	<g>
		<path class="st0" d="M484.1,204.3l1.9-76.7l0.2-5.9l1.6-64.2c0,0,2.7-8.2,8.4-8.2s8.4,8.2,8.4,8.2l1.6,64.2l0.2,5.9l1.9,76.7
			l0.2,5.9l1.7,65.7h-13.9h-13.9l1.7-65.7L484.1,204.3z"/>
		<rect x="480.8" y="137.7" class="st2" width="30.9" height="5.9"/>
		<rect x="480.8" y="72" class="st2" width="30.9" height="5.9"/>
		<rect x="478.9" y="213.3" class="st2" width="34.6" height="5.9"/>
		<g>
			<path class="st2" d="M491.3,41.8c1.5-0.7,5-4,5-5c0,1,3.5,4.3,5,5c1.5,0.7,4.2,3.4,4.2,6.3s-1.4,5.3-1.4,5.3h-7.7h-7.7
				c0,0-1.4-2.4-1.4-5.3S489.8,42.5,491.3,41.8L491.3,41.8z"/>
			<rect x="484.2" y="53.4" class="st2" width="24.2" height="2.7"/>
			<rect x="486.1" y="56.1" class="st0" width="20.3" height="15.9"/>
		</g>
	</g>
	<g>
		<path class="st0" d="M439.5,220.8l1.5-59l0.1-4.5l1.2-49.3c0,0,2.1-6.3,6.5-6.3s6.5,6.3,6.5,6.3l1.2,49.3l0.1,4.5l1.5,59l0.1,4.5
			l1.3,50.6h-10.7h-10.7l1.3-50.6L439.5,220.8L439.5,220.8z"/>
		<rect x="436.9" y="169.6" class="st2" width="23.8" height="4.5"/>
		<rect x="436.9" y="119.1" class="st2" width="23.8" height="4.5"/>
		<rect x="435.4" y="227.7" class="st2" width="26.6" height="4.5"/>
		<g>
			<path class="st2" d="M444.9,95.8c1.1-0.5,3.8-3.1,3.8-3.9c0,0.8,2.7,3.3,3.8,3.9c1.1,0.5,3.2,2.7,3.2,4.9s-1.1,4-1.1,4h-5.9h-5.9
				c0,0-1.1-1.8-1.1-4S443.8,96.4,444.9,95.8L444.9,95.8z"/>
			<rect x="439.4" y="104.8" class="st2" width="18.6" height="2.1"/>
			<rect x="440.9" y="106.8" class="st0" width="15.6" height="12.2"/>
		</g>
	</g>
	<g>
		<g>
			<g>
				<path class="st4" d="M255.5,288.8L255.5,288.8C255.5,288.8,255.5,288.8,255.5,288.8z"/>
				<path class="st3" d="M255.5,288.8L255.5,288.8C255.5,288.8,255.5,288.8,255.5,288.8L255.5,288.8L255.5,288.8L255.5,288.8z"/>
			</g>
			<g>
				<path class="st4" d="M256.5,310.6v-21.7c0.3-1.3,1.4-4.7,4.5-5.4c2.3-0.5,4-1.9,5-2.8c0.9,0.9,2.6,2.2,5,2.8
					c3.1,0.8,4.1,4.3,4.4,5.4v21.7H256.5L256.5,310.6z"/>
				<path class="st3" d="M265.9,282c1.1,0.9,2.7,1.9,4.7,2.4c2.5,0.6,3.4,3.5,3.7,4.6v20.6h-16.9V289c0.3-1.1,1.2-4,3.7-4.6
					C263.2,284,264.9,282.9,265.9,282 M265.9,279.2c0,0-1.9,2.5-5.2,3.2c-4.1,1-5.1,6.1-5.2,6.3v22.8h20.9v-22.8
					c-0.1-0.2-1.1-5.2-5.2-6.3C267.9,281.7,266,279.2,265.9,279.2L265.9,279.2L265.9,279.2z"/>
			</g>
			<g>
				<path class="st4" d="M276.4,288.8L276.4,288.8C276.4,288.8,276.4,288.8,276.4,288.8z"/>
				<path class="st3" d="M276.4,288.8L276.4,288.8L276.4,288.8C276.4,288.8,276.4,288.8,276.4,288.8L276.4,288.8L276.4,288.8z"/>
			</g>
		</g>
		<g>
			<g>
				<path class="st4" d="M226.3,288.8L226.3,288.8C226.3,288.8,226.3,288.8,226.3,288.8z"/>
				<path class="st3" d="M226.3,288.8L226.3,288.8C226.3,288.8,226.3,288.8,226.3,288.8L226.3,288.8L226.3,288.8L226.3,288.8z"/>
			</g>
			<g>
				<path class="st4" d="M227.3,310.6v-21.7c0.3-1.3,1.4-4.7,4.5-5.4c2.3-0.5,4-1.9,5-2.8c0.9,0.9,2.6,2.2,5,2.8
					c3.1,0.8,4.1,4.3,4.4,5.4v21.7H227.3z"/>
				<path class="st3" d="M236.7,282c1.1,0.9,2.7,1.9,4.7,2.4c2.5,0.6,3.4,3.5,3.7,4.6v20.6h-16.9V289c0.3-1.1,1.2-4,3.7-4.6
					C234,284,235.6,282.9,236.7,282 M236.7,279.2c0,0-1.9,2.5-5.2,3.2c-4.1,1-5.1,6.1-5.2,6.3v22.8h20.9v-22.8
					c-0.1-0.2-1.1-5.2-5.2-6.3C238.7,281.7,236.7,279.2,236.7,279.2L236.7,279.2L236.7,279.2z"/>
			</g>
			<g>
				<path class="st4" d="M247.1,288.8L247.1,288.8C247.1,288.8,247.1,288.8,247.1,288.8z"/>
				<path class="st3" d="M247.1,288.8L247.1,288.8L247.1,288.8C247.1,288.8,247.1,288.8,247.1,288.8L247.1,288.8L247.1,288.8z"/>
			</g>
		</g>
		<g>
			<g>
				<path class="st4" d="M197.1,288.8L197.1,288.8C197.1,288.8,197.1,288.8,197.1,288.8z"/>
				<path class="st3" d="M197.1,288.8L197.1,288.8C197.1,288.8,197.1,288.8,197.1,288.8L197.1,288.8L197.1,288.8L197.1,288.8z"/>
			</g>
			<g>
				<path class="st4" d="M198.1,310.6v-21.7c0.3-1.3,1.4-4.7,4.5-5.4c2.3-0.5,4-1.9,5-2.8c0.9,0.9,2.6,2.2,5,2.8
					c3.1,0.8,4.1,4.3,4.4,5.4v21.7H198.1L198.1,310.6z"/>
				<path class="st3" d="M207.5,282c1.1,0.9,2.7,1.9,4.7,2.4c2.5,0.6,3.4,3.5,3.7,4.6v20.6h-16.9V289c0.3-1.1,1.2-4,3.7-4.6
					C204.8,284,206.4,282.9,207.5,282 M207.5,279.2c0,0-1.9,2.5-5.2,3.2c-4.1,1-5.1,6.1-5.2,6.3v22.8h20.9v-22.8
					c-0.1-0.2-1.1-5.2-5.2-6.3C209.4,281.7,207.5,279.2,207.5,279.2L207.5,279.2L207.5,279.2z"/>
			</g>
			<g>
				<path class="st4" d="M217.9,288.8L217.9,288.8C217.9,288.8,217.9,288.8,217.9,288.8z"/>
				<path class="st3" d="M217.9,288.8L217.9,288.8L217.9,288.8C217.9,288.8,217.9,288.8,217.9,288.8L217.9,288.8L217.9,288.8z"/>
			</g>
		</g>
		<g>
			<g>
				<path class="st4" d="M167.9,288.8L167.9,288.8C167.9,288.8,167.9,288.8,167.9,288.8z"/>
				<path class="st3" d="M167.9,288.8L167.9,288.8C167.9,288.8,167.9,288.8,167.9,288.8L167.9,288.8L167.9,288.8L167.9,288.8z"/>
			</g>
			<g>
				<path class="st4" d="M168.9,310.6v-21.7c0.3-1.3,1.4-4.7,4.5-5.4c2.3-0.5,4-1.9,5-2.8c0.9,0.9,2.6,2.2,5,2.8
					c3.1,0.8,4.1,4.3,4.4,5.4v21.7H168.9L168.9,310.6z"/>
				<path class="st3" d="M178.3,282c1.1,0.9,2.7,1.9,4.7,2.4c2.5,0.6,3.4,3.5,3.7,4.6v20.6h-16.9V289c0.3-1.1,1.2-4,3.7-4.6
					C175.6,284,177.2,282.9,178.3,282 M178.3,279.2c0,0-1.9,2.5-5.2,3.2c-4.1,1-5.1,6.1-5.2,6.3v22.8h20.9v-22.8
					c-0.1-0.2-1.1-5.2-5.2-6.3C180.2,281.7,178.3,279.2,178.3,279.2L178.3,279.2L178.3,279.2z"/>
			</g>
			<g>
				<path class="st4" d="M188.7,288.8L188.7,288.8C188.7,288.8,188.7,288.8,188.7,288.8z"/>
				<path class="st3" d="M188.7,288.8L188.7,288.8L188.7,288.8C188.7,288.8,188.7,288.8,188.7,288.8L188.7,288.8L188.7,288.8z"/>
			</g>
		</g>
		<g>
			<g>
				<path class="st4" d="M138.6,288.8L138.6,288.8C138.6,288.8,138.6,288.8,138.6,288.8z"/>
				<path class="st3" d="M138.6,288.8L138.6,288.8C138.6,288.8,138.6,288.8,138.6,288.8L138.6,288.8L138.6,288.8L138.6,288.8z"/>
			</g>
			<g>
				<path class="st4" d="M139.6,310.6v-21.7c0.3-1.3,1.4-4.7,4.5-5.4c2.3-0.5,4-1.9,5-2.8c0.9,0.9,2.6,2.2,5,2.8
					c3.1,0.8,4.1,4.3,4.4,5.4v21.7H139.6L139.6,310.6z"/>
				<path class="st3" d="M149.1,282c1.1,0.9,2.7,1.9,4.7,2.4c2.4,0.6,3.4,3.5,3.7,4.6v20.6h-16.9V289c0.3-1.1,1.2-4,3.7-4.6
					C146.4,284,148,282.9,149.1,282 M149.1,279.2c0,0-1.9,2.5-5.2,3.2c-4.1,1-5.1,6.1-5.2,6.3v22.8h20.9v-22.8
					c-0.1-0.2-1.1-5.2-5.2-6.3C151,281.7,149.1,279.2,149.1,279.2L149.1,279.2L149.1,279.2z"/>
			</g>
			<g>
				<path class="st4" d="M159.5,288.8L159.5,288.8C159.5,288.8,159.5,288.8,159.5,288.8z"/>
				<path class="st3" d="M159.5,288.8L159.5,288.8L159.5,288.8C159.5,288.8,159.5,288.8,159.5,288.8L159.5,288.8L159.5,288.8z"/>
			</g>
		</g>
		<g>
			<g>
				<path class="st4" d="M109.4,288.8L109.4,288.8C109.4,288.8,109.4,288.8,109.4,288.8z"/>
				<path class="st3" d="M109.4,288.8L109.4,288.8C109.4,288.8,109.4,288.8,109.4,288.8L109.4,288.8L109.4,288.8L109.4,288.8z"/>
			</g>
			<g>
				<path class="st4" d="M110.4,310.6v-21.7c0.3-1.3,1.4-4.7,4.5-5.4c2.3-0.5,4-1.9,5-2.8c0.9,0.9,2.6,2.2,5,2.8
					c3.1,0.8,4.2,4.3,4.4,5.4v21.7H110.4L110.4,310.6z"/>
				<path class="st3" d="M119.8,282c1.1,0.9,2.7,1.9,4.7,2.4c2.4,0.6,3.4,3.5,3.7,4.6v20.6h-16.9V289c0.3-1.1,1.2-4,3.7-4.6
					C117.1,284,118.8,282.9,119.8,282 M119.9,279.2c0,0-1.9,2.5-5.2,3.2c-4.1,1-5.1,6.1-5.2,6.3v22.8h20.9v-22.8
					c-0.1-0.2-1.1-5.2-5.2-6.3C121.8,281.7,119.9,279.2,119.9,279.2L119.9,279.2L119.9,279.2z"/>
			</g>
			<g>
				<path class="st4" d="M130.3,288.8L130.3,288.8C130.3,288.8,130.3,288.8,130.3,288.8z"/>
				<path class="st3" d="M130.3,288.8L130.3,288.8L130.3,288.8C130.3,288.8,130.3,288.8,130.3,288.8L130.3,288.8L130.3,288.8z"/>
			</g>
		</g>
		<g>
			<g>
				<path class="st4" d="M80.2,288.8L80.2,288.8C80.2,288.8,80.2,288.8,80.2,288.8z"/>
				<path class="st3" d="M80.2,288.8L80.2,288.8C80.2,288.8,80.2,288.8,80.2,288.8L80.2,288.8L80.2,288.8L80.2,288.8z"/>
			</g>
			<g>
				<path class="st4" d="M81.2,310.6v-21.7c0.3-1.3,1.4-4.7,4.5-5.4c2.3-0.5,4-1.9,5-2.8c0.9,0.9,2.6,2.2,5,2.8
					c3.1,0.8,4.1,4.3,4.4,5.4v21.7H81.2L81.2,310.6z"/>
				<path class="st3" d="M90.6,282c1.1,0.9,2.7,1.9,4.7,2.4c2.4,0.6,3.4,3.5,3.7,4.6v20.6H82.2V289c0.3-1.1,1.2-4,3.7-4.6
					C87.9,284,89.6,282.9,90.6,282 M90.6,279.2c0,0-1.9,2.5-5.2,3.2c-4.1,1-5.1,6.1-5.2,6.3v22.8h20.9v-22.8
					c-0.1-0.2-1.1-5.2-5.2-6.3C92.6,281.7,90.7,279.2,90.6,279.2L90.6,279.2L90.6,279.2z"/>
			</g>
			<g>
				<path class="st4" d="M101.1,288.8L101.1,288.8C101.1,288.8,101.1,288.8,101.1,288.8z"/>
				<path class="st3" d="M101.1,288.8L101.1,288.8L101.1,288.8C101.1,288.8,101.1,288.8,101.1,288.8L101.1,288.8L101.1,288.8z"/>
			</g>
		</g>
		<g>
			<g>
				<path class="st4" d="M51,288.8L51,288.8C51,288.8,51,288.8,51,288.8z"/>
				<path class="st3" d="M51,288.8L51,288.8C51,288.8,51,288.8,51,288.8L51,288.8L51,288.8L51,288.8z"/>
			</g>
			<g>
				<path class="st4" d="M52,310.6v-21.7c0.3-1.3,1.4-4.7,4.5-5.4c2.3-0.5,4-1.9,5-2.8c0.9,0.9,2.6,2.2,5,2.8
					c3.1,0.8,4.1,4.3,4.4,5.4v21.7H52L52,310.6z"/>
				<path class="st3" d="M61.4,282c1.1,0.9,2.7,1.9,4.7,2.4c2.4,0.6,3.4,3.5,3.7,4.6v20.6H53V289c0.3-1.1,1.2-4,3.7-4.6
					C58.7,284,60.3,282.9,61.4,282 M61.4,279.2c0,0-1.9,2.5-5.2,3.2c-4.1,1-5.1,6.1-5.2,6.3v22.8h20.9v-22.8
					c-0.1-0.2-1.1-5.2-5.2-6.3C63.4,281.7,61.4,279.2,61.4,279.2L61.4,279.2L61.4,279.2z"/>
			</g>
			<g>
				<path class="st4" d="M71.8,288.8L71.8,288.8C71.8,288.8,71.8,288.8,71.8,288.8z"/>
				<path class="st3" d="M71.8,288.8L71.8,288.8L71.8,288.8C71.8,288.8,71.8,288.8,71.8,288.8L71.8,288.8L71.8,288.8z"/>
			</g>
		</g>
		<g>
			<g>
				<path class="st4" d="M460,288.8L460,288.8C460,288.8,460,288.8,460,288.8z"/>
				<path class="st3" d="M460,288.8L460,288.8C460,288.8,460,288.8,460,288.8L460,288.8L460,288.8L460,288.8z"/>
			</g>
			<g>
				<path class="st4" d="M461,310.6v-21.7c0.3-1.3,1.4-4.7,4.5-5.4c2.3-0.5,4-1.9,5-2.8c0.9,0.9,2.6,2.2,5,2.8
					c3.1,0.8,4.2,4.3,4.4,5.4v21.7H461z"/>
				<path class="st3" d="M470.5,282c1.1,0.9,2.7,1.9,4.7,2.4c2.5,0.6,3.4,3.5,3.7,4.6v20.6H462V289c0.3-1.1,1.2-4,3.7-4.6
					C467.8,284,469.4,282.9,470.5,282 M470.5,279.2c0,0-1.9,2.5-5.2,3.2c-4.1,1-5.2,6.1-5.2,6.3v22.8h20.9v-22.8
					c-0.1-0.2-1.1-5.2-5.2-6.3C472.4,281.7,470.5,279.2,470.5,279.2L470.5,279.2L470.5,279.2z"/>
			</g>
			<g>
				<path class="st4" d="M480.9,288.8L480.9,288.8C480.9,288.8,480.9,288.8,480.9,288.8z"/>
				<path class="st3" d="M480.9,288.8L480.9,288.8L480.9,288.8C480.9,288.8,480.9,288.8,480.9,288.8L480.9,288.8L480.9,288.8z"/>
			</g>
		</g>
		<g>
			<g>
				<path class="st4" d="M430.8,288.8L430.8,288.8C430.8,288.8,430.8,288.8,430.8,288.8z"/>
				<path class="st3" d="M430.8,288.8L430.8,288.8C430.8,288.8,430.8,288.8,430.8,288.8L430.8,288.8L430.8,288.8L430.8,288.8z"/>
			</g>
			<g>
				<path class="st4" d="M431.8,310.6v-21.7c0.3-1.3,1.4-4.7,4.5-5.4c2.3-0.5,4-1.9,5-2.8c0.9,0.9,2.6,2.2,5,2.8
					c3.1,0.8,4.2,4.3,4.4,5.4v21.7H431.8z"/>
				<path class="st3" d="M441.2,282c1.1,0.9,2.7,1.9,4.7,2.4c2.5,0.6,3.4,3.5,3.7,4.6v20.6h-16.9V289c0.3-1.1,1.2-4,3.7-4.6
					C438.5,284,440.1,282.9,441.2,282 M441.2,279.2c0,0-1.9,2.5-5.2,3.2c-4.1,1-5.2,6.1-5.2,6.3v22.8h20.9v-22.8
					c-0.1-0.2-1.1-5.2-5.2-6.3C443.2,281.7,441.3,279.2,441.2,279.2L441.2,279.2L441.2,279.2z"/>
			</g>
			<g>
				<path class="st4" d="M451.7,288.8L451.7,288.8C451.7,288.8,451.7,288.8,451.7,288.8z"/>
				<path class="st3" d="M451.7,288.8L451.7,288.8L451.7,288.8C451.7,288.8,451.7,288.8,451.7,288.8L451.7,288.8L451.7,288.8z"/>
			</g>
		</g>
		<g>
			<g>
				<path class="st4" d="M401.6,288.8L401.6,288.8C401.6,288.8,401.6,288.8,401.6,288.8z"/>
				<path class="st3" d="M401.6,288.8L401.6,288.8C401.6,288.8,401.6,288.8,401.6,288.8L401.6,288.8L401.6,288.8L401.6,288.8z"/>
			</g>
			<g>
				<path class="st4" d="M402.6,310.6v-21.7c0.3-1.3,1.4-4.7,4.5-5.4c2.3-0.5,4-1.9,5-2.8c0.9,0.9,2.6,2.2,5,2.8
					c3.1,0.8,4.1,4.3,4.4,5.4v21.7H402.6L402.6,310.6z"/>
				<path class="st3" d="M412,282c1.1,0.9,2.7,1.9,4.7,2.4c2.5,0.6,3.4,3.5,3.7,4.6v20.6h-16.9V289c0.3-1.1,1.2-4,3.7-4.6
					C409.3,284,410.9,282.9,412,282 M412,279.2c0,0-1.9,2.5-5.2,3.2c-4.1,1-5.1,6.1-5.2,6.3v22.8h20.9v-22.8
					c-0.1-0.2-1.1-5.2-5.2-6.3C414,281.7,412,279.2,412,279.2L412,279.2L412,279.2z"/>
			</g>
			<g>
				<path class="st4" d="M422.5,288.8L422.5,288.8C422.5,288.8,422.5,288.8,422.5,288.8z"/>
				<path class="st3" d="M422.5,288.8L422.5,288.8L422.5,288.8C422.5,288.8,422.5,288.8,422.5,288.8L422.5,288.8L422.5,288.8z"/>
			</g>
		</g>
		<g>
			<g>
				<path class="st4" d="M372.4,288.8L372.4,288.8C372.4,288.8,372.4,288.8,372.4,288.8z"/>
				<path class="st3" d="M372.4,288.8L372.4,288.8C372.4,288.8,372.4,288.8,372.4,288.8L372.4,288.8L372.4,288.8L372.4,288.8z"/>
			</g>
			<g>
				<path class="st4" d="M373.4,310.6v-21.7c0.3-1.3,1.4-4.7,4.5-5.4c2.3-0.5,4-1.9,5-2.8c0.9,0.9,2.6,2.2,5,2.8
					c3.1,0.8,4.1,4.3,4.4,5.4v21.7H373.4z"/>
				<path class="st3" d="M382.8,282c1.1,0.9,2.7,1.9,4.7,2.4c2.5,0.6,3.4,3.5,3.7,4.6v20.6h-16.9V289c0.3-1.1,1.2-4,3.7-4.6
					C380.1,284,381.7,282.9,382.8,282 M382.8,279.2c0,0-1.9,2.5-5.2,3.2c-4.1,1-5.1,6.1-5.2,6.3v22.8h20.9v-22.8
					c-0.1-0.2-1.1-5.2-5.2-6.3C384.8,281.7,382.8,279.2,382.8,279.2L382.8,279.2L382.8,279.2z"/>
			</g>
			<g>
				<path class="st4" d="M393.2,288.8L393.2,288.8C393.2,288.8,393.2,288.8,393.2,288.8z"/>
				<path class="st3" d="M393.2,288.8L393.2,288.8L393.2,288.8C393.2,288.8,393.2,288.8,393.2,288.8L393.2,288.8L393.2,288.8z"/>
			</g>
		</g>
		<g>
			<g>
				<path class="st4" d="M343.2,288.8L343.2,288.8C343.2,288.8,343.2,288.8,343.2,288.8z"/>
				<path class="st3" d="M343.2,288.8L343.2,288.8C343.2,288.8,343.2,288.8,343.2,288.8L343.2,288.8L343.2,288.8L343.2,288.8z"/>
			</g>
			<g>
				<path class="st4" d="M344.2,310.6v-21.7c0.3-1.3,1.4-4.7,4.5-5.4c2.3-0.5,4-1.9,5-2.8c0.9,0.9,2.6,2.2,5,2.8
					c3.1,0.8,4.1,4.3,4.4,5.4v21.7H344.2L344.2,310.6z"/>
				<path class="st3" d="M353.6,282c1.1,0.9,2.7,1.9,4.7,2.4c2.5,0.6,3.4,3.5,3.7,4.6v20.6h-16.9V289c0.3-1.1,1.2-4,3.7-4.6
					C350.9,284,352.5,282.9,353.6,282 M353.6,279.2c0,0-1.9,2.5-5.2,3.2c-4.1,1-5.1,6.1-5.2,6.3v22.8H364v-22.8
					c-0.1-0.2-1.1-5.2-5.2-6.3C355.5,281.7,353.6,279.2,353.6,279.2L353.6,279.2L353.6,279.2z"/>
			</g>
			<g>
				<path class="st4" d="M364,288.8L364,288.8C364,288.8,364,288.8,364,288.8z"/>
				<path class="st3" d="M364,288.8L364,288.8L364,288.8C364,288.8,364,288.8,364,288.8L364,288.8L364,288.8z"/>
			</g>
		</g>
		<g>
			<g>
				<path class="st4" d="M313.9,288.8L313.9,288.8C313.9,288.8,313.9,288.8,313.9,288.8z"/>
				<path class="st3" d="M313.9,288.8L313.9,288.8C313.9,288.8,313.9,288.8,313.9,288.8L313.9,288.8L313.9,288.8L313.9,288.8z"/>
			</g>
			<g>
				<path class="st4" d="M314.9,310.6v-21.7c0.3-1.3,1.4-4.7,4.5-5.4c2.3-0.5,4-1.9,5-2.8c0.9,0.9,2.6,2.2,5,2.8
					c3.1,0.8,4.1,4.3,4.4,5.4v21.7H314.9L314.9,310.6z"/>
				<path class="st3" d="M324.4,282c1.1,0.9,2.7,1.9,4.7,2.4c2.5,0.6,3.4,3.5,3.7,4.6v20.6h-16.9V289c0.3-1.1,1.2-4,3.7-4.6
					C321.7,284,323.3,282.9,324.4,282 M324.4,279.2c0,0-1.9,2.5-5.2,3.2c-4.1,1-5.1,6.1-5.2,6.3v22.8h20.9v-22.8
					c-0.1-0.2-1.1-5.2-5.2-6.3C326.3,281.7,324.4,279.2,324.4,279.2L324.4,279.2L324.4,279.2z"/>
			</g>
			<g>
				<path class="st4" d="M334.8,288.8L334.8,288.8C334.8,288.8,334.8,288.8,334.8,288.8z"/>
				<path class="st3" d="M334.8,288.8L334.8,288.8L334.8,288.8C334.8,288.8,334.8,288.8,334.8,288.8L334.8,288.8L334.8,288.8z"/>
			</g>
		</g>
		<g>
			<g>
				<path class="st4" d="M284.7,288.8L284.7,288.8C284.7,288.8,284.7,288.8,284.7,288.8z"/>
				<path class="st3" d="M284.7,288.8L284.7,288.8C284.7,288.8,284.7,288.8,284.7,288.8L284.7,288.8L284.7,288.8L284.7,288.8z"/>
			</g>
			<g>
				<path class="st4" d="M285.7,310.6v-21.7c0.3-1.3,1.4-4.7,4.5-5.4c2.3-0.5,4-1.9,5-2.8c0.9,0.9,2.6,2.2,5,2.8
					c3.1,0.8,4.1,4.3,4.4,5.4v21.7H285.7z"/>
				<path class="st3" d="M295.2,282c1.1,0.9,2.7,1.9,4.7,2.4c2.5,0.6,3.4,3.5,3.7,4.6v20.6h-16.9V289c0.3-1.1,1.2-4,3.7-4.6
					C292.4,284,294.1,282.9,295.2,282 M295.2,279.2c0,0-1.9,2.5-5.2,3.2c-4.1,1-5.1,6.1-5.2,6.3v22.8h20.9v-22.8
					c-0.1-0.2-1.1-5.2-5.2-6.3C297.1,281.7,295.2,279.2,295.2,279.2L295.2,279.2L295.2,279.2z"/>
			</g>
			<g>
				<path class="st4" d="M305.6,288.8L305.6,288.8C305.6,288.8,305.6,288.8,305.6,288.8z"/>
				<path class="st3" d="M305.6,288.8L305.6,288.8L305.6,288.8C305.6,288.8,305.6,288.8,305.6,288.8L305.6,288.8L305.6,288.8z"/>
			</g>
		</g>
	</g>
	<g>
		<path class="st2" d="M121.8,119.3c-1-0.5-3.4-2.7-3.4-3.4c0,0.7-2.4,2.9-3.4,3.4s-2.8,2.3-2.8,4.3s0.9,3.6,0.9,3.6h10.5
			c0,0,0.9-1.6,0.9-3.6S122.8,119.8,121.8,119.3L121.8,119.3z"/>
		<rect x="110.2" y="127.2" class="st2" width="16.4" height="1.8"/>
		<rect x="111.5" y="129" class="st0" width="13.8" height="10.8"/>
	</g>
	<g>
		<path class="st2" d="M416.8,119.3c-1-0.5-3.4-2.7-3.4-3.4c0,0.7-2.4,2.9-3.4,3.4s-2.8,2.3-2.8,4.3s1,3.6,1,3.6h10.5
			c0,0,1-1.6,1-3.6S417.8,119.8,416.8,119.3L416.8,119.3z"/>
		<rect x="405.2" y="127.2" class="st2" width="16.4" height="1.8"/>
		<rect x="406.5" y="129" class="st0" width="13.8" height="10.8"/>
	</g>
</g>
</svg>
