<?xml version="1.0" encoding="utf-8"?>
<!-- Generator: Adobe Illustrator 26.5.0, SVG Export Plug-In . SVG Version: 6.00 Build 0)  -->
<svg version="1.1" id="uuid-6eca114b-5f55-42f2-b0e5-cb09ef807172"
	 xmlns="http://www.w3.org/2000/svg" xmlns:xlink="http://www.w3.org/1999/xlink" x="0px" y="0px" viewBox="0 0 407.5 310.7"
	 style="enable-background:new 0 0 407.5 310.7;" xml:space="preserve">
<style type="text/css">
	.st0{fill:none;stroke:#FCBE1B;stroke-miterlimit:10;}
	.st1{fill:none;stroke:#E6629F;stroke-width:4;stroke-miterlimit:10;}
	.st2{fill:#FCBE1B;}
	.st3{fill:#E6629F;}
	.st4{fill:#261923;}
</style>
<g>
	<g>
		<line class="st0" x1="5.1" y1="198.7" x2="141.9" y2="41.3"/>
		<path class="st0" d="M259.3,4.2c-2.9,1-49.8,31.5-49.8,31.5l-73.9,71.8"/>
		<polyline class="st0" points="255.8,67.1 209.6,108.8 188.9,242.1 		"/>
		<polyline class="st0" points="137,182.1 209.6,108.8 150.5,110.1 		"/>
		<polyline class="st0" points="271.3,242.7 263.2,68.4 285.2,240.6 		"/>
		<polyline class="st0" points="264.4,199.9 310.5,107.5 264.4,8.9 		"/>
		<path class="st0" d="M344.9,107.5c0,0.8,35.9,101,35.9,101"/>
		<line class="st0" x1="150.9" y1="95.3" x2="182.6" y2="241.5"/>
		<line class="st0" x1="223.9" y1="192.1" x2="215.8" y2="242.7"/>
		<line class="st0" x1="226" y1="94" x2="153.9" y2="109.1"/>
		<path class="st0" d="M150,74.9c0,2.1,36.6,166.9,36.6,166.9l2.2-186l-37.9-12.3c0,0,58.6-7.9,57.5-7.9"/>
		<polyline class="st0" points="310.5,225.8 267.7,65.3 313,139 		"/>
		<line class="st0" x1="352.2" y1="105.2" x2="385.8" y2="153.4"/>
		<line class="st0" x1="88.5" y1="216.8" x2="73.5" y2="227.5"/>
		<line class="st0" x1="132" y1="222.2" x2="94.9" y2="239"/>
		<polyline class="st0" points="208.2,182.7 169.4,180.4 151.5,172.5 		"/>
		<polyline class="st0" points="263.2,0.3 336,89.8 263.2,30.3 310.5,107.5 336,94 		"/>
		<path class="st0" d="M272,137.1c1.4-0.6,20-11,20-11l18.5-18.5"/>
		<line class="st0" x1="278.9" y1="241.9" x2="263.2" y2="70.1"/>
		<path class="st0" d="M293.8,225.9c-0.3-1.5-29.3-160.6-29.3-160.6"/>
		<path class="st0" d="M321.2,223.5c-0.1-1.9-55.9-212.6-55.9-212.6"/>
		<line class="st0" x1="325.1" y1="223.5" x2="265.4" y2="7.7"/>
		<path class="st0" d="M344.9,120c-0.3,1.9,1.8,64.7,1.8,64.7"/>
		<line class="st0" x1="346.7" y1="120" x2="350.4" y2="182.1"/>
		<line class="st0" x1="350.4" y1="194.7" x2="354.8" y2="214.8"/>
		<line class="st0" x1="337.2" y1="168.4" x2="323" y2="225.9"/>
		<line class="st0" x1="357.7" y1="214.8" x2="270" y2="177.6"/>
		<line class="st0" x1="315.3" y1="149" x2="262.6" y2="88.5"/>
		<line class="st0" x1="195.2" y1="242.7" x2="155.8" y2="50.4"/>
		<line class="st0" x1="191" y1="242.7" x2="153.9" y2="49.2"/>
		<path class="st0" d="M168.3,241.5c-1.3-1.4-16.8-78.9-16.8-78.9l23.3,79.4"/>
		<line class="st0" x1="179.9" y1="242.7" x2="151.5" y2="162.6"/>
	</g>
	<g>
		<line class="st1" x1="261.2" y1="1.5" x2="265.2" y2="245.9"/>
		<line class="st1" x1="152.5" y1="234.3" x2="149.4" y2="35.9"/>
		<line class="st1" x1="344.3" y1="223.5" x2="337.6" y2="89.3"/>
	</g>
	<path class="st2" d="M373.5,305.5v-24.2l31.4-69.7c0,0,3.9-6.3-13.5-5.7c0,0-28.2,7.6-44.6,8v7.2l-53,4.7c0,0,2,16.6-19.6,16.8
		s-99.4-0.8-99.4-0.8s-3.7-4.3-8.8-5.5s-37.4-8.6-45.8,3.1c0,0,0.6,11.3-1.6,13.3c0,0-12.3,1.8-11.9,10c0,0-21.1-6.5-18.6-21.9
		c0,0-1.2-4.5-5.5-0.8v3.7c0,0-3.7,0-4.5,4.7c0,0-4.7,0.4-5.9-6.5l-2.5-0.8c0,0-1.4,17.1,10.2,19.8c0,0,48.3,39.9,48.3,42l25.7,1.5
		l143.8-1.1L373.5,305.5L373.5,305.5z"/>
	<path class="st3" d="M106.7,268.8c0,0,12.1,2.3,18.4-5.1c6.3-7.4-2-22.3-2-22.3s63.8,20.3,169,17.2c0,0,12.1,1.6,12.9-17.2
		l46.6-8.6c0,0,3.9-12.1,18-11.7s28.6-5.1,35.2-9.4l-16.4,57.5c0,0-9.4-0.3-13.3,11.4c0,0-63.4,31.3-162.4,30.1
		S107.9,277.4,106.7,268.8L106.7,268.8z"/>
	<g>
		<rect x="245.5" y="285.1" class="st4" width="5.6" height="5.6"/>
		<rect x="253.1" y="265.1" class="st4" width="5.6" height="5.6"/>
		<rect x="196.5" y="261.8" class="st4" width="5.6" height="5.6"/>
		<rect x="205.4" y="283.6" class="st4" width="5.6" height="5.6"/>
		<rect x="169.4" y="281.7" class="st4" width="5.6" height="5.6"/>
		<rect x="135.4" y="275.3" class="st4" width="5.6" height="5.6"/>
		
			<rect x="138.6" y="253.8" transform="matrix(0.1743 -0.9847 0.9847 0.1743 -135.8838 351.1352)" class="st4" width="5.6" height="5.6"/>
		<rect x="315.3" y="259.5" class="st4" width="5.6" height="5.6"/>
		<rect x="337.2" y="255.1" class="st4" width="5.6" height="5.6"/>
		<rect x="321.7" y="277.9" class="st4" width="5.6" height="5.6"/>
		
			<rect x="349.5" y="275" transform="matrix(0.9923 -0.1241 0.1241 0.9923 -31.7607 45.8727)" class="st4" width="5.6" height="5.6"/>
	</g>
	<g>
		<path class="st2" d="M357.7,253.5c0,0,4.8-22.4,13.6-23.7s29.6-3.9,29.6-3.9s7,1.8,6.7,9.1s-4,18.5-4,18.5l-38.9,3.7L357.7,253.5
			L357.7,253.5z"/>
		<g>
			<path class="st4" d="M371.1,254c0.3-3.8,1.7-11.7,5.3-11.7c0.2,0,0.4,0,0.7,0.1c1,0.2,1.7,0.8,2.2,1.7c1.5,2.8-0.1,8-0.6,9.3
				C377.4,253.5,373,253.7,371.1,254L371.1,254z"/>
			<path class="st3" d="M376.4,242.9c0.2,0,0.4,0,0.6,0.1c0.9,0.2,1.5,0.7,1.9,1.4c1.2,2.2,0.2,6.5-0.5,8.6
				c-1.5,0.1-4.7,0.3-6.7,0.5C372.1,249.7,373.4,242.9,376.4,242.9 M376.4,241.9c-5.2,0-5.9,12.8-5.9,12.8c1.2-0.4,8.5-0.8,8.5-0.8
				s4-10.6-1.9-11.9C377,241.9,376.7,241.9,376.4,241.9L376.4,241.9L376.4,241.9z"/>
		</g>
		<g>
			<path class="st4" d="M381.4,252.9c0.3-3.8,1.7-11.7,5.3-11.7c0.2,0,0.4,0,0.7,0.1c1,0.2,1.7,0.8,2.2,1.7c1.5,2.8-0.1,8-0.6,9.3
				C387.6,252.3,383.3,252.6,381.4,252.9L381.4,252.9z"/>
			<path class="st3" d="M386.7,241.7c0.2,0,0.4,0,0.6,0.1c0.9,0.2,1.5,0.7,1.9,1.4c1.2,2.2,0.2,6.5-0.5,8.6
				c-1.5,0.1-4.7,0.3-6.7,0.5C382.3,248.6,383.7,241.7,386.7,241.7 M386.7,240.7c-5.2,0-5.9,12.8-5.9,12.8c1.2-0.4,8.5-0.8,8.5-0.8
				s4-10.6-1.9-11.9C387.2,240.7,387,240.7,386.7,240.7L386.7,240.7L386.7,240.7z"/>
		</g>
		<g>
			<path class="st4" d="M392.1,251.7c0.3-3.8,1.7-11.7,5.3-11.7c0.2,0,0.4,0,0.7,0.1c1,0.2,1.7,0.8,2.2,1.7c1.5,2.8-0.1,8-0.6,9.3
				C398.4,251.1,394,251.4,392.1,251.7L392.1,251.7z"/>
			<path class="st3" d="M397.5,240.5c0.2,0,0.4,0,0.6,0.1c0.9,0.2,1.5,0.7,1.9,1.4c1.2,2.2,0.2,6.5-0.5,8.6
				c-1.5,0.1-4.7,0.3-6.7,0.5C393.1,247.4,394.4,240.5,397.5,240.5 M397.5,239.5c-5.2,0-5.9,12.8-5.9,12.8c1.2-0.4,8.5-0.8,8.5-0.8
				s4-10.6-1.9-11.9C398,239.6,397.7,239.5,397.5,239.5L397.5,239.5L397.5,239.5z"/>
		</g>
	</g>
	<line class="st1" x1="119.9" y1="250.2" x2="0.8" y2="196.8"/>
	<g>
		<polygon class="st3" points="32.6,193.1 135.7,107.5 98.9,207.7 		"/>
		<polygon class="st3" points="88.5,216.8 137,182.1 114,227.5 		"/>
		<path class="st3" d="M141.9,41.3c0,0,2.4,6.8-15.7,37.3c0,0-12.8,19.3,22.7,20.3c0,0-7.6-3.7-4.4-18.3s11.2-30.3,11.2-30.3
			L141.9,41.3L141.9,41.3z"/>
		<path class="st3" d="M262.9,4.2c0,0-46.9,75.7,4.8,61c0,0-4.2-5.5,0-10.7c0,0-30,11.5-4.4-27.7C263.3,26.9,271.7,13.4,262.9,4.2
			L262.9,4.2z"/>
		<path class="st3" d="M325.6,102.1l26.6,3.1c0,0-5.7,3.1-5.5,18.5c0,0-1,12.3-7.8,21.7c0,0-2.1,19,3.9,29.7l-29.7-24.8
			c0,0-1-17.5,8.4-24.5S325.6,102.1,325.6,102.1L325.6,102.1z"/>
		<path class="st3" d="M291.9,215.8l93.8-62.3c0,0,4.9,11.5-10.3,16.7c0,0,4.4,2.1,3.1,5S365,191.5,365,191.5s-5,2.1-7.3,1.3
			c0,0-4.7,7-12.5,7s-15.5,2.6-17.8,5S300.3,216.6,291.9,215.8L291.9,215.8z"/>
		<path class="st3" d="M265.4,155c0,0-25.3,0.8-0.6-40.2L264,72.6c0,0-23.7,27.5-22.2,62.6C241.9,135.1,253.1,165.2,265.4,155
			L265.4,155z"/>
		<path class="st3" d="M265.4,248.3c0,0-10.5-25.7-9.5-30.1c0,0,3.3,2.7,8-2.3c0,0-19.3-19.9,9.4-38.1L261,154.2
			c0,0-16.5,29.2-15.5,78.5C245.5,232.7,251.3,246.8,265.4,248.3L265.4,248.3z"/>
		<path class="st3" d="M164.1,211.6c0,0-12.2-13.3-12.4-29.5c0,0-9.4,9.4-11.8,20.9c0,0-14,24.6-7.4,34.4c0,0,4.4,6.2,18.4,2.1
			c0,0-13.1-12.2-11-22.4L164.1,211.6L164.1,211.6z"/>
		<path class="st3" d="M153.9,106c0,0-19.8,47.2-6.5,62.1c0,0-4.5,4.4-10.5,2.9c0,0,1.8,11.7,4.4,12.3c0,0-18.7,5.5-10.6-25.6
			s13.8-48.8,13.8-48.8L153.9,106L153.9,106z"/>
		<path class="st3" d="M179,215.8c0,0,3.6-14.5,5.5-14.6s22.2,3.8,39.4-23c0,0,1.8,8.1,0,13.8c0,0,14.6,2.8,15.6-8.5
			c0,0,1-5.8,6-7.4s1.4-11.2,1.4-11.2s4.7-3.5,3.9-9.1c0,0-22.2,13.3-26.4,18c0,0-31.3,16.4-39.9,25c0,0-13.6,1.6-16.2,6
			C168.3,204.8,173.5,216.1,179,215.8L179,215.8z"/>
	</g>
</g>
</svg>
