<?xml version="1.0" encoding="utf-8"?>
<!-- Generator: Adobe Illustrator 26.5.0, SVG Export Plug-In . SVG Version: 6.00 Build 0)  -->
<svg version="1.1" id="Grue_port" xmlns="http://www.w3.org/2000/svg" xmlns:xlink="http://www.w3.org/1999/xlink" x="0px" y="0px"
	 viewBox="0 0 348.3 382.9" style="enable-background:new 0 0 348.3 382.9;" xml:space="preserve">
<style type="text/css">
	.st0{fill:#E6629F;}
	.st1{fill:none;stroke:#FCBE1B;stroke-width:7;stroke-miterlimit:10;}
	.st2{fill:#FCBE1B;}
	.st3{fill:#261923;stroke:#E8629F;stroke-width:2;stroke-miterlimit:10;}
	.st4{fill:none;stroke:#FCBE1B;stroke-width:7;stroke-linejoin:round;}
</style>
<g>
	<g>
		<path class="st0" d="M273.5,40.6c0.8,0,36.8,19.3,36.8,19.3l8.4-22.2l13.3-9.6l-11-15.9L273.5,40.6L273.5,40.6z"/>
		<path class="st0" d="M270.5,51.2c0,0,4.3-10,5-9.7s31.9,16.9,31.9,16.9l-8.8,8.4L270.5,51.2L270.5,51.2z"/>
		<g>
			<line class="st1" x1="342.9" y1="18.9" x2="342.9" y2="105"/>
			<line class="st1" x1="326.6" y1="18.9" x2="326.6" y2="105"/>
		</g>
		<circle class="st0" cx="334.6" cy="14.6" r="13.7"/>
		<path class="st0" d="M348.3,114.2c0-7.6-6.1-13.7-13.7-13.7s-13.7,6.1-13.7,13.7c0,3.5,1.3,6.7,3.5,9.2c0,0,0,0,0,0
			c0,7.6,4.5,13.7,10.2,13.7s10.2-6.1,10.2-13.7c0,0,0,0,0,0C346.9,121,348.3,117.8,348.3,114.2z"/>
		<path class="st1" d="M334.6,137.1c-0.3,1.6,0,10.2,0,10.2s11.7,6.8,0,15.7c0,0-5.8,0.4-5.8-6.9"/>
	</g>
	<polygon class="st0" points="174.5,276.4 104.1,276.4 89.4,260.3 174.5,260.3 	"/>
	<rect x="104.1" y="289.7" class="st0" width="70.4" height="21.1"/>
	<rect x="109.6" y="276.4" class="st0" width="59.5" height="13.3"/>
	<rect x="84.1" y="368.8" class="st0" width="110.4" height="14.1"/>
	<polygon class="st0" points="174.5,310.9 152.7,310.9 187.8,347.9 139.3,347.9 90.8,347.9 125.9,310.9 104.1,310.9 60.6,358.3 
		69.5,368.8 139.3,368.8 209.1,368.8 218,358.3 	"/>
	<polygon class="st2" points="0,161.8 101.4,161.8 101.4,170 164.7,170 170.4,175.7 207.8,175.7 224.2,200.5 224.2,242.4 
		201.5,260.3 59.1,260.3 59.1,237.7 30.9,237.7 0,204 	"/>
	<polygon class="st3" points="178.2,205.8 219.1,205.8 219.1,230.3 178.2,219.8 	"/>
	<polygon class="st3" points="206.4,182.5 178.2,182.5 178.2,200.8 219.1,200.8 	"/>
	<line class="st1" x1="47.4" y1="112.5" x2="85.7" y2="170"/>
	<polyline class="st1" points="185.9,178.6 300.5,67.9 268,49.9 128,155.5 128,175.5 	"/>
	<line class="st1" x1="56.5" y1="126.2" x2="198.7" y2="102.2"/>
	<circle class="st0" cx="42.4" cy="105" r="12.7"/>
	<path class="st2" d="M279.1,38.3c-7.2-11.9-3.5-27.3,8.3-34.6c11.9-7.2,27.3-3.5,34.6,8.3"/>
	<path class="st4" d="M162.1,172.6c0,0-7.7-37-7-37.5s58.9,16.4,59.1,16.2S206.9,96,206.9,96l51.1,12.9l-6.5-46.6l45.7,4.5"/>
	<line class="st1" x1="54.3" y1="100.5" x2="281.4" y2="12.2"/>
	<circle class="st0" cx="228.9" cy="31.1" r="8.3"/>
	<rect x="101.4" y="170" class="st0" width="46.4" height="58.7"/>
</g>
</svg>
