<?xml version="1.0" encoding="utf-8"?>
<!-- Generator: Adobe Illustrator 26.5.0, SVG Export Plug-In . SVG Version: 6.00 Build 0)  -->
<svg version="1.1" id="uuid-6aaa371f-8962-4427-a4ec-24a37f623a67"
	 xmlns="http://www.w3.org/2000/svg" xmlns:xlink="http://www.w3.org/1999/xlink" x="0px" y="0px" viewBox="0 0 552.5 235.4"
	 style="enable-background:new 0 0 552.5 235.4;" xml:space="preserve">
<style type="text/css">
	.st0{fill:#FCBE1B;}
	.st1{fill:#261923;}
	.st2{fill:#E8629F;}
	.st3{fill:none;stroke:#E8629F;stroke-width:4;stroke-miterlimit:10;}
	.st4{fill:none;stroke:#FCBE1B;stroke-width:3;stroke-miterlimit:10;}
</style>
<g>
	<path class="st0" d="M58.4,68.5h12.8v-5.7h3.7v-3.3L37.4,31.8L0,59.5v3.3h3.7v5.7h12.8V102H4.8v-2.3h11.7v-1.5H4.8V96h11.7v-1.5
		H4.8v-1.8h11.7v-1.5H4.8v-6.3h11.7v-1.5H3.2V102h0.5v6.7h2.5v0.3l10.7,11l0.1,0v4.7h5v110.7h30.9V124.7h5v-4.7l0.1,0l10.7-11v-0.3
		h2.5V102h0.5V83.3H58.4v1.5h11.7v6.3H58.4v1.5h11.7v1.8H58.4V96h11.7v2.1H58.4v1.5h11.7v2.3H58.4L58.4,68.5L58.4,68.5z M22,118.7
		h-4.2l-9.7-10H22C22,108.7,22,118.7,22,118.7z M36.2,87.1H19.9V68.5h16.3V87.1z M38.7,87.1V68.5H55v18.6
		C55,87.1,38.7,87.1,38.7,87.1z M66.8,108.7l-9.7,10h-4.2v-10H66.8z"/>
	<g>
		<rect x="21.4" y="70" class="st1" width="13.3" height="15.6"/>
		<path class="st2" d="M33.2,71.5v12.6H22.9V71.5H33.2 M36.2,68.5H19.9v18.6h16.3V68.5L36.2,68.5z"/>
	</g>
	<g>
		<rect x="40.2" y="70" class="st1" width="13.3" height="15.6"/>
		<path class="st2" d="M52,71.5v12.6H41.7V71.5H52 M55,68.5H38.7v18.6H55V68.5L55,68.5z"/>
	</g>
	<polygon class="st0" points="276.3,9.9 113.8,9.9 113.8,150.6 276.3,150.6 438.8,150.6 438.8,9.9 	"/>
	<g>
		<g>
			<rect x="128" y="24.3" class="st1" width="18.9" height="18.9"/>
			<path class="st2" d="M145.4,25.8v15.9h-15.9V25.8H145.4 M148.4,22.8h-21.9v21.9h21.9V22.8L148.4,22.8z"/>
		</g>
		<g>
			<rect x="165.1" y="24.3" class="st1" width="18.9" height="18.9"/>
			<path class="st2" d="M182.4,25.8v15.9h-15.9V25.8H182.4 M185.4,22.8h-21.9v21.9h21.9V22.8L185.4,22.8z"/>
		</g>
		<g>
			<rect x="202.1" y="24.3" class="st1" width="18.9" height="18.9"/>
			<path class="st2" d="M219.5,25.8v15.9h-15.9V25.8H219.5 M222.5,22.8h-21.9v21.9h21.9V22.8L222.5,22.8z"/>
		</g>
		<g>
			<rect x="239.1" y="24.3" class="st1" width="18.9" height="18.9"/>
			<path class="st2" d="M256.5,25.8v15.9h-15.9V25.8H256.5 M259.5,22.8h-21.9v21.9h21.9L259.5,22.8L259.5,22.8L259.5,22.8z"/>
		</g>
	</g>
	<g>
		<g>
			<rect x="128" y="72.3" class="st1" width="18.9" height="18.9"/>
			<path class="st2" d="M145.4,73.8v15.9h-15.9V73.8H145.4 M148.4,70.8h-21.9v21.9h21.9V70.8L148.4,70.8z"/>
		</g>
		<g>
			<rect x="165.1" y="72.3" class="st1" width="18.9" height="18.9"/>
			<path class="st2" d="M182.4,73.8v15.9h-15.9V73.8H182.4 M185.4,70.8h-21.9v21.9h21.9V70.8L185.4,70.8z"/>
		</g>
		<g>
			<rect x="202.1" y="72.3" class="st1" width="18.9" height="18.9"/>
			<path class="st2" d="M219.5,73.8v15.9h-15.9V73.8H219.5 M222.5,70.8h-21.9v21.9h21.9V70.8L222.5,70.8z"/>
		</g>
		<g>
			<rect x="239.1" y="72.3" class="st1" width="18.9" height="18.9"/>
			<path class="st2" d="M256.5,73.8v15.9h-15.9V73.8H256.5 M259.5,70.8h-21.9v21.9h21.9L259.5,70.8L259.5,70.8L259.5,70.8z"/>
		</g>
	</g>
	<g>
		<g>
			<rect x="128" y="120.2" class="st1" width="18.9" height="18.9"/>
			<path class="st2" d="M145.4,121.7v15.9h-15.9v-15.9H145.4 M148.4,118.7h-21.9v21.9h21.9V118.7L148.4,118.7z"/>
		</g>
		<g>
			<rect x="165.1" y="120.2" class="st1" width="18.9" height="18.9"/>
			<path class="st2" d="M182.4,121.7v15.9h-15.9v-15.9H182.4 M185.4,118.7h-21.9v21.9h21.9V118.7L185.4,118.7z"/>
		</g>
		<g>
			<rect x="202.1" y="120.2" class="st1" width="18.9" height="18.9"/>
			<path class="st2" d="M219.5,121.7v15.9h-15.9v-15.9H219.5 M222.5,118.7h-21.9v21.9h21.9V118.7L222.5,118.7z"/>
		</g>
		<g>
			<rect x="239.1" y="120.2" class="st1" width="18.9" height="18.9"/>
			<path class="st2" d="M256.5,121.7v15.9h-15.9v-15.9H256.5 M259.5,118.7h-21.9v21.9h21.9L259.5,118.7L259.5,118.7L259.5,118.7z"/>
		</g>
	</g>
	<path class="st0" d="M494.1,87.1V102h-11.7v-2.3h11.7v-1.5h-11.7V96h11.7v-1.5h-11.7v-1.8h11.7v-1.5h-11.7v-6.3h11.7v-1.5h-13.2
		V102h0.5v6.7h2.5v0.3l10.7,11l0,0v4.7h5v110.7h15.5h15.5V124.7h5v-4.7l0.1,0l10.7-11v-0.3h2.5V102h0.5V83.3H536v1.5h11.7v6.3H536
		v1.5h11.7v1.8H536V96h11.7v2.1H536v1.5h11.7v2.3H536V87.1V68.5h12.8v-5.7h3.7v-3.3l-37.4-27.8l-37.4,27.8v3.3h3.7v5.7h12.8
		L494.1,87.1L494.1,87.1z M530.5,108.7h13.9l-9.7,10h-4.2L530.5,108.7L530.5,108.7z M516.4,68.5h16.3v18.6h-2.1h-14.2L516.4,68.5
		L516.4,68.5z M499.6,87.1h-2.1V68.5h16.3v18.6H499.6L499.6,87.1z M499.6,108.7v10h-4.2l-9.7-10H499.6L499.6,108.7z"/>
	<g>
		<rect x="517.9" y="70" class="st1" width="13.3" height="15.6"/>
		<path class="st2" d="M529.6,71.5v12.6h-10.3V71.5H529.6 M532.6,68.5h-16.3v18.6h16.3V68.5L532.6,68.5z"/>
	</g>
	<g>
		<rect x="499" y="70" class="st1" width="13.3" height="15.6"/>
		<path class="st2" d="M510.8,71.5v12.6h-10.3V71.5H510.8 M513.8,68.5h-16.3v18.6h16.3V68.5L513.8,68.5z"/>
	</g>
	<polygon class="st2" points="276.3,150.6 52.9,150.6 52.9,235.4 276.3,235.4 499.6,235.4 499.6,150.6 	"/>
	<g>
		<g>
			<rect x="405.6" y="24.3" class="st1" width="18.9" height="18.9"/>
			<path class="st2" d="M423,25.8v15.9h-15.9V25.8H423 M426,22.8h-21.9v21.9H426L426,22.8L426,22.8L426,22.8z"/>
		</g>
		<g>
			<rect x="368.6" y="24.3" class="st1" width="18.9" height="18.9"/>
			<path class="st2" d="M386,25.8v15.9h-15.9V25.8H386 M389,22.8h-21.9v21.9H389V22.8L389,22.8z"/>
		</g>
		<g>
			<rect x="331.6" y="24.3" class="st1" width="18.9" height="18.9"/>
			<path class="st2" d="M348.9,25.8v15.9h-15.9V25.8H348.9 M351.9,22.8h-21.9v21.9h21.9L351.9,22.8L351.9,22.8L351.9,22.8z"/>
		</g>
		<g>
			<rect x="294.5" y="24.3" class="st1" width="18.9" height="18.9"/>
			<path class="st2" d="M311.9,25.8v15.9H296V25.8H311.9 M314.9,22.8H293v21.9h21.9L314.9,22.8L314.9,22.8L314.9,22.8z"/>
		</g>
	</g>
	<g>
		<g>
			<rect x="405.6" y="72.3" class="st1" width="18.9" height="18.9"/>
			<path class="st2" d="M423,73.8v15.9h-15.9V73.8H423 M426,70.8h-21.9v21.9H426L426,70.8L426,70.8L426,70.8z"/>
		</g>
		<g>
			<rect x="368.6" y="72.3" class="st1" width="18.9" height="18.9"/>
			<path class="st2" d="M386,73.8v15.9h-15.9V73.8H386 M389,70.8h-21.9v21.9H389V70.8L389,70.8z"/>
		</g>
		<g>
			<rect x="331.6" y="72.3" class="st1" width="18.9" height="18.9"/>
			<path class="st2" d="M348.9,73.8v15.9h-15.9V73.8H348.9 M351.9,70.8h-21.9v21.9h21.9L351.9,70.8L351.9,70.8L351.9,70.8z"/>
		</g>
		<g>
			<rect x="294.5" y="72.3" class="st1" width="18.9" height="18.9"/>
			<path class="st2" d="M311.9,73.8v15.9H296V73.8H311.9 M314.9,70.8H293v21.9h21.9L314.9,70.8L314.9,70.8L314.9,70.8z"/>
		</g>
	</g>
	<g>
		<g>
			<rect x="405.6" y="120.2" class="st1" width="18.9" height="18.9"/>
			<path class="st2" d="M423,121.7v15.9h-15.9v-15.9H423 M426,118.7h-21.9v21.9H426L426,118.7L426,118.7L426,118.7z"/>
		</g>
		<g>
			<rect x="368.6" y="120.2" class="st1" width="18.9" height="18.9"/>
			<path class="st2" d="M386,121.7v15.9h-15.9v-15.9H386 M389,118.7h-21.9v21.9H389V118.7L389,118.7z"/>
		</g>
		<g>
			<rect x="331.6" y="120.2" class="st1" width="18.9" height="18.9"/>
			<path class="st2" d="M348.9,121.7v15.9h-15.9v-15.9H348.9 M351.9,118.7h-21.9v21.9h21.9L351.9,118.7L351.9,118.7L351.9,118.7z"/>
		</g>
		<g>
			<rect x="294.5" y="120.2" class="st1" width="18.9" height="18.9"/>
			<path class="st2" d="M311.9,121.7v15.9H296v-15.9H311.9 M314.9,118.7H293v21.9h21.9L314.9,118.7L314.9,118.7L314.9,118.7z"/>
		</g>
	</g>
	<polygon class="st2" points="276.3,0 99.8,0 99.8,9.9 276.3,9.9 452.7,9.9 452.7,0 	"/>
	<g>
		<rect x="246.3" y="166" class="st1" width="59.9" height="67.9"/>
		<path class="st0" d="M304.7,167.5v64.9h-56.9v-64.9H304.7 M307.7,164.5h-62.9v70.9h62.9V164.5L307.7,164.5z"/>
	</g>
	<polygon class="st2" points="0,62.8 0,59.5 37.4,31.8 74.9,59.5 74.9,62.8 	"/>
	<polygon class="st2" points="477.6,62.8 477.6,59.5 515.1,31.8 552.5,59.5 552.5,62.8 	"/>
	<rect x="3.7" y="102" class="st2" width="67.5" height="6.7"/>
	<rect x="481.3" y="102" class="st2" width="67.5" height="6.7"/>
	<polyline class="st3" points="52.9,138.7 67.3,148.7 81.7,138.7 96.1,148.7 110.6,138.7 124.9,148.7 139.4,138.7 153.8,148.7 
		168.2,138.7 182.6,148.7 197,138.7 211.4,148.7 225.8,138.7 240.2,148.7 254.6,138.7 269,148.7 283.4,138.7 297.9,148.7 
		312.3,138.7 326.7,148.7 341.1,138.7 355.5,148.7 369.9,138.7 384.3,148.7 398.7,138.7 413.1,148.7 427.5,138.7 441.9,148.7 
		456.4,138.7 470.8,148.7 485.2,138.7 499.6,148.7 	"/>
	<line class="st4" x1="276.3" y1="235.4" x2="276.3" y2="164.5"/>
</g>
</svg>
