<?xml version="1.0" encoding="utf-8"?>
<!-- Generator: Adobe Illustrator 26.5.0, SVG Export Plug-In . SVG Version: 6.00 Build 0)  -->
<svg version="1.1" id="Hopital_psychiatrique" xmlns="http://www.w3.org/2000/svg" xmlns:xlink="http://www.w3.org/1999/xlink"
	 x="0px" y="0px" viewBox="0 0 437.8 281.3" style="enable-background:new 0 0 437.8 281.3;" xml:space="preserve">
<style type="text/css">
	.st0{fill-rule:evenodd;clip-rule:evenodd;fill:#E8629F;}
	.st1{fill:#FCBE1B;}
	.st2{fill:#E8629F;}
	.st3{fill-rule:evenodd;clip-rule:evenodd;fill:#FCBE1B;}
	.st4{fill-rule:evenodd;clip-rule:evenodd;fill:#261923;}
	.st5{fill:none;stroke:#E8629F;stroke-width:3.21;stroke-miterlimit:10;}
</style>
<g>
	<path class="st0" d="M44.5,94.8c-0.2-0.2,49.6-49.6,49.6-49.6h99.4v85.1h-149V94.8z"/>
	<path class="st0" d="M393.3,94.8c0.2-0.2-49.6-49.6-49.6-49.6h-99.4v85.1h149V94.8z"/>
	<rect x="176.1" y="72.6" class="st1" width="85.6" height="208.7"/>
	<polygon class="st0" points="250.6,65.8 231.5,3.2 218.9,3.2 206.4,3.2 187.2,65.8 176.1,65.8 176.1,74.7 261.7,74.7 261.7,65.8 	
		"/>
	<path class="st1" d="M231.5,3.2l19.1,62.6h11.1v8.9h-85.6v-8.9h11.1l19.1-62.6H231.5 M233.9,0H204l-0.7,2.3l-18.4,60.3h-12v15.3h92
		V62.6h-12L234.5,2.3L233.9,0L233.9,0L233.9,0z"/>
	<circle class="st2" cx="218.9" cy="112.3" r="21.2"/>
	<polygon class="st3" points="236.4,108.4 222.8,108.4 222.8,94.8 215,94.8 215,108.4 201.4,108.4 201.4,116.2 215,116.2 215,129.8 
		222.8,129.8 222.8,116.2 236.4,116.2 	"/>
	<g>
		<path class="st4" d="M199.6,279.8v-40.4c0-10.7,8.7-19.3,19.3-19.3s19.3,8.7,19.3,19.3v40.4H199.6L199.6,279.8z"/>
		<path class="st2" d="M218.9,221.6c9.8,0,17.8,8,17.8,17.8v38.9h-35.7v-38.9C201.1,229.6,209.1,221.6,218.9,221.6 M218.9,218.6
			L218.9,218.6c-11.5,0-20.8,9.3-20.8,20.8v41.9h41.7v-41.9C239.7,227.9,230.4,218.6,218.9,218.6L218.9,218.6L218.9,218.6z"/>
	</g>
	<g>
		<path class="st4" d="M191.3,196v-26.3c0-3.7,3-6.8,6.8-6.8s6.8,3,6.8,6.8V196H191.3L191.3,196z"/>
		<path class="st2" d="M198.1,164.5c2.9,0,5.3,2.4,5.3,5.3v24.8h-10.5v-24.8C192.8,166.8,195.2,164.5,198.1,164.5 M198.1,161.5
			L198.1,161.5c-4.6,0-8.3,3.7-8.3,8.3v27.8h16.5v-27.8C206.3,165.2,202.6,161.5,198.1,161.5L198.1,161.5L198.1,161.5z"/>
	</g>
	<g>
		<path class="st4" d="M212.1,196v-26.3c0-3.7,3-6.8,6.8-6.8s6.8,3,6.8,6.8V196H212.1L212.1,196z"/>
		<path class="st2" d="M218.9,164.5c2.9,0,5.3,2.4,5.3,5.3v24.8h-10.5v-24.8C213.6,166.8,216,164.5,218.9,164.5 M218.9,161.5
			c-4.6,0-8.3,3.7-8.3,8.3v27.8h16.5v-27.8C227.2,165.2,223.5,161.5,218.9,161.5L218.9,161.5L218.9,161.5z"/>
	</g>
	<g>
		<path class="st4" d="M232.9,196.1v-26.4c0-3.8,3.1-6.9,6.9-6.9s6.9,3.1,6.9,6.9v26.4H232.9L232.9,196.1z"/>
		<path class="st2" d="M239.7,164.3c3,0,5.5,2.5,5.5,5.5v25h-10.9v-25C234.3,166.7,236.7,164.3,239.7,164.3 M239.7,161.4
			L239.7,161.4c-4.6,0-8.3,3.7-8.3,8.3v27.8H248v-27.8C248,165.1,244.3,161.4,239.7,161.4L239.7,161.4L239.7,161.4z"/>
	</g>
	<rect x="11.1" y="130.3" class="st1" width="57.4" height="151"/>
	<rect x="68.5" y="130.3" class="st1" width="107.6" height="151"/>
	<g>
		<g>
			<path class="st4" d="M144.6,196v-23.8c0-5.1,4.2-9.3,9.3-9.3s9.3,4.2,9.3,9.3V196H144.6L144.6,196z"/>
			<path class="st2" d="M153.9,164.5c4.3,0,7.8,3.5,7.8,7.8v22.3h-15.5v-22.3C146.1,167.9,149.6,164.5,153.9,164.5 M153.9,161.5
				L153.9,161.5c-6,0-10.8,4.8-10.8,10.8v25.3h21.5v-25.3C164.7,166.3,159.9,161.5,153.9,161.5L153.9,161.5L153.9,161.5z"/>
		</g>
		<g>
			<path class="st4" d="M111.7,196v-23.8c0-5.1,4.2-9.3,9.3-9.3s9.3,4.2,9.3,9.3V196H111.7L111.7,196z"/>
			<path class="st2" d="M120.9,164.5c4.3,0,7.8,3.5,7.8,7.8v22.3h-15.6v-22.3C113.2,167.9,116.7,164.5,120.9,164.5 M120.9,161.5
				L120.9,161.5c-5.9,0-10.8,4.8-10.8,10.8v25.3h21.6v-25.3C131.7,166.3,126.9,161.5,120.9,161.5L120.9,161.5L120.9,161.5z"/>
		</g>
		<g>
			<path class="st4" d="M78.8,196v-23.8c0-5.1,4.2-9.3,9.3-9.3s9.3,4.2,9.3,9.3V196H78.8L78.8,196z"/>
			<path class="st2" d="M88.1,164.5c4.3,0,7.8,3.5,7.8,7.8v22.3H80.3v-22.3C80.3,167.9,83.8,164.5,88.1,164.5 M88.1,161.5
				L88.1,161.5c-5.9,0-10.8,4.8-10.8,10.8v25.3h21.6v-25.3C98.9,166.3,94,161.5,88.1,161.5L88.1,161.5L88.1,161.5z"/>
		</g>
		<g>
			<path class="st4" d="M144.6,253.1v-23.8c0-5.1,4.2-9.3,9.3-9.3s9.3,4.2,9.3,9.3v23.8H144.6L144.6,253.1z"/>
			<path class="st2" d="M153.9,221.6c4.3,0,7.8,3.5,7.8,7.8v22.3h-15.5v-22.3C146.1,225.1,149.6,221.6,153.9,221.6 M153.9,218.6
				L153.9,218.6c-6,0-10.8,4.8-10.8,10.8v25.3h21.5v-25.3C164.7,223.4,159.9,218.6,153.9,218.6L153.9,218.6L153.9,218.6z"/>
		</g>
		<g>
			<path class="st4" d="M111.7,253.1v-23.8c0-5.1,4.2-9.3,9.3-9.3s9.3,4.2,9.3,9.3v23.8H111.7L111.7,253.1z"/>
			<path class="st2" d="M120.9,221.6c4.3,0,7.8,3.5,7.8,7.8v22.3h-15.6v-22.3C113.2,225.1,116.7,221.6,120.9,221.6 M120.9,218.6
				L120.9,218.6c-5.9,0-10.8,4.8-10.8,10.8v25.3h21.6v-25.3C131.7,223.4,126.9,218.6,120.9,218.6L120.9,218.6L120.9,218.6z"/>
		</g>
		<g>
			<path class="st4" d="M78.8,253.1v-23.8c0-5.1,4.2-9.3,9.3-9.3s9.3,4.2,9.3,9.3v23.8H78.8L78.8,253.1z"/>
			<path class="st2" d="M88.1,221.6c4.3,0,7.8,3.5,7.8,7.8v22.3H80.3v-22.3C80.3,225.1,83.8,221.6,88.1,221.6 M88.1,218.6
				L88.1,218.6c-5.9,0-10.8,4.8-10.8,10.8v25.3h21.6v-25.3C98.9,223.4,94,218.6,88.1,218.6L88.1,218.6L88.1,218.6z"/>
		</g>
	</g>
	<g>
		<g>
			<path class="st4" d="M30.6,196v-23.8c0-5.1,4.2-9.3,9.3-9.3s9.3,4.2,9.3,9.3V196H30.6L30.6,196z"/>
			<path class="st2" d="M39.8,164.5c4.3,0,7.8,3.5,7.8,7.8v22.3H32.1v-22.3C32.1,167.9,35.5,164.5,39.8,164.5 M39.8,161.5
				L39.8,161.5c-5.9,0-10.8,4.8-10.8,10.8v25.3h21.6v-25.3C50.6,166.3,45.8,161.5,39.8,161.5L39.8,161.5L39.8,161.5z"/>
		</g>
		<g>
			<path class="st4" d="M30.6,253.1v-23.8c0-5.1,4.2-9.3,9.3-9.3s9.3,4.2,9.3,9.3v23.8H30.6L30.6,253.1z"/>
			<path class="st2" d="M39.8,221.6c4.3,0,7.8,3.5,7.8,7.8v22.3H32.1v-22.3C32.1,225.1,35.5,221.6,39.8,221.6 M39.8,218.6
				L39.8,218.6c-5.9,0-10.8,4.8-10.8,10.8v25.3h21.6v-25.3C50.6,223.4,45.8,218.6,39.8,218.6L39.8,218.6L39.8,218.6z"/>
		</g>
	</g>
	<g>
		<polygon class="st0" points="3.4,131.9 39.8,86.5 76.3,131.9 		"/>
		<path class="st1" d="M39.8,89L73,130.3H6.7L39.8,89 M39.8,83.9L37.3,87L4.2,128.3L0,133.5h79.7l-4.2-5.2L42.3,87L39.8,83.9
			L39.8,83.9L39.8,83.9z"/>
	</g>
	<rect x="369.3" y="130.3" class="st1" width="57.4" height="151"/>
	<rect x="261.7" y="130.3" class="st1" width="107.6" height="151"/>
	<g>
		<g>
			<path class="st4" d="M274.6,196v-23.8c0-5.1,4.2-9.3,9.3-9.3s9.3,4.2,9.3,9.3V196H274.6L274.6,196z"/>
			<path class="st2" d="M283.9,164.5c4.3,0,7.8,3.5,7.8,7.8v22.3h-15.5v-22.3C276.1,167.9,279.6,164.5,283.9,164.5 M283.9,161.5
				L283.9,161.5c-6,0-10.8,4.8-10.8,10.8v25.3h21.5v-25.3C294.7,166.3,289.8,161.5,283.9,161.5L283.9,161.5L283.9,161.5z"/>
		</g>
		<g>
			<path class="st4" d="M307.6,196v-23.8c0-5.1,4.2-9.3,9.3-9.3s9.3,4.2,9.3,9.3V196H307.6z"/>
			<path class="st2" d="M316.9,164.5c4.3,0,7.8,3.5,7.8,7.8v22.3h-15.5v-22.3C309.1,167.9,312.6,164.5,316.9,164.5 M316.9,161.5
				L316.9,161.5c-6,0-10.8,4.8-10.8,10.8v25.3h21.5v-25.3C327.6,166.3,322.8,161.5,316.9,161.5L316.9,161.5L316.9,161.5z"/>
		</g>
		<g>
			<path class="st4" d="M340.5,196v-23.8c0-5.1,4.2-9.3,9.3-9.3s9.3,4.2,9.3,9.3V196H340.5z"/>
			<path class="st2" d="M349.7,164.5c4.3,0,7.8,3.5,7.8,7.8v22.3H342v-22.3C342,167.9,345.5,164.5,349.7,164.5 M349.7,161.5
				c-6,0-10.8,4.8-10.8,10.8v25.3h21.5v-25.3C360.5,166.3,355.7,161.5,349.7,161.5L349.7,161.5L349.7,161.5z"/>
		</g>
		<g>
			<path class="st4" d="M274.6,253.1v-23.8c0-5.1,4.2-9.3,9.3-9.3s9.3,4.2,9.3,9.3v23.8H274.6L274.6,253.1z"/>
			<path class="st2" d="M283.9,221.6c4.3,0,7.8,3.5,7.8,7.8v22.3h-15.5v-22.3C276.1,225.1,279.6,221.6,283.9,221.6 M283.9,218.6
				L283.9,218.6c-6,0-10.8,4.8-10.8,10.8v25.3h21.5v-25.3C294.7,223.4,289.8,218.6,283.9,218.6L283.9,218.6L283.9,218.6z"/>
		</g>
		<g>
			<path class="st4" d="M307.6,253.1v-23.8c0-5.1,4.2-9.3,9.3-9.3s9.3,4.2,9.3,9.3v23.8H307.6z"/>
			<path class="st2" d="M316.9,221.6c4.3,0,7.8,3.5,7.8,7.8v22.3h-15.5v-22.3C309.1,225.1,312.6,221.6,316.9,221.6 M316.9,218.6
				L316.9,218.6c-6,0-10.8,4.8-10.8,10.8v25.3h21.5v-25.3C327.6,223.4,322.8,218.6,316.9,218.6L316.9,218.6L316.9,218.6z"/>
		</g>
		<g>
			<path class="st4" d="M340.5,253.1v-23.8c0-5.1,4.2-9.3,9.3-9.3s9.3,4.2,9.3,9.3v23.8H340.5z"/>
			<path class="st2" d="M349.7,221.6c4.3,0,7.8,3.5,7.8,7.8v22.3H342v-22.3C342,225.1,345.5,221.6,349.7,221.6 M349.7,218.6
				c-6,0-10.8,4.8-10.8,10.8v25.3h21.5v-25.3C360.5,223.4,355.7,218.6,349.7,218.6L349.7,218.6L349.7,218.6z"/>
		</g>
	</g>
	<g>
		<g>
			<path class="st4" d="M388.7,196v-23.8c0-5.1,4.2-9.3,9.3-9.3s9.3,4.2,9.3,9.3V196H388.7L388.7,196z"/>
			<path class="st2" d="M398,164.5c4.3,0,7.8,3.5,7.8,7.8v22.3h-15.5v-22.3C390.2,167.9,393.7,164.5,398,164.5 M398,161.5
				c-6,0-10.8,4.8-10.8,10.8v25.3h21.5v-25.3C408.8,166.3,403.9,161.5,398,161.5L398,161.5L398,161.5z"/>
		</g>
		<g>
			<path class="st4" d="M388.7,253.1v-23.8c0-5.1,4.2-9.3,9.3-9.3s9.3,4.2,9.3,9.3v23.8H388.7L388.7,253.1z"/>
			<path class="st2" d="M398,221.6c4.3,0,7.8,3.5,7.8,7.8v22.3h-15.5v-22.3C390.2,225.1,393.7,221.6,398,221.6 M398,218.6
				c-6,0-10.8,4.8-10.8,10.8v25.3h21.5v-25.3C408.8,223.4,403.9,218.6,398,218.6L398,218.6L398,218.6z"/>
		</g>
	</g>
	<g>
		<polygon class="st0" points="361.5,131.9 398,86.5 434.5,131.9 		"/>
		<path class="st1" d="M398,89l33.1,41.3h-66.3L398,89 M398,83.9l-2.5,3.1l-33.1,41.3l-4.2,5.2h79.7l-4.2-5.2L400.5,87L398,83.9
			L398,83.9L398,83.9z"/>
	</g>
	<line class="st5" x1="68.5" y1="281.3" x2="68.5" y2="130.3"/>
	<rect x="172.9" y="130.3" class="st2" width="3.2" height="151"/>
	<rect x="261.7" y="130.3" class="st2" width="3.2" height="151"/>
	<line class="st5" x1="369.3" y1="281.3" x2="369.3" y2="130.3"/>
	<rect x="11.1" y="205.1" class="st2" width="161.8" height="7.9"/>
	<rect x="264.9" y="205.1" class="st2" width="161.8" height="7.9"/>
	<g>
		<rect x="103.1" y="91.4" class="st1" width="35.7" height="38.9"/>
		<g>
			<polygon class="st0" points="94.1,90.6 120.9,62.7 147.8,90.6 			"/>
			<path class="st1" d="M120.9,65L144,89H97.9L120.9,65 M120.9,60.4l-2.3,2.4l-23.1,24l-5.2,5.4h61.3l-5.2-5.4l-23.1-24L120.9,60.4
				L120.9,60.4L120.9,60.4z"/>
		</g>
		<g>
			<path class="st4" d="M111.7,128.8V105c0-5.1,4.2-9.3,9.3-9.3s9.3,4.2,9.3,9.3v23.8H111.7L111.7,128.8z"/>
			<path class="st2" d="M120.9,97.3c4.3,0,7.8,3.5,7.8,7.8v22.3h-15.6V105C113.2,100.7,116.7,97.3,120.9,97.3 M120.9,94.3
				L120.9,94.3c-5.9,0-10.8,4.8-10.8,10.8v25.3h21.6V105C131.7,99.1,126.9,94.3,120.9,94.3L120.9,94.3L120.9,94.3z"/>
		</g>
	</g>
	<g>
		<rect x="299" y="91.4" class="st1" width="35.7" height="38.9"/>
		<g>
			<polygon class="st0" points="290,90.6 316.9,62.7 343.7,90.6 			"/>
			<path class="st1" d="M316.9,65L340,89h-46.2L316.9,65 M316.9,60.4l-2.3,2.4l-23.1,24l-5.2,5.4h61.3l-5.2-5.4l-23.1-24L316.9,60.4
				L316.9,60.4z"/>
		</g>
		<g>
			<path class="st4" d="M307.6,128.8V105c0-5.1,4.2-9.3,9.3-9.3s9.3,4.2,9.3,9.3v23.8H307.6L307.6,128.8z"/>
			<path class="st2" d="M316.9,97.3c4.3,0,7.8,3.5,7.8,7.8v22.3h-15.5V105C309.1,100.7,312.6,97.3,316.9,97.3 M316.9,94.3
				L316.9,94.3c-6,0-10.8,4.8-10.8,10.8v25.3h21.5V105C327.6,99.1,322.8,94.3,316.9,94.3L316.9,94.3L316.9,94.3z"/>
		</g>
	</g>
</g>
</svg>
