<?xml version="1.0" encoding="utf-8"?>
<!-- Generator: Adobe Illustrator 26.5.0, SVG Export Plug-In . SVG Version: 6.00 Build 0)  -->
<svg version="1.1" id="uuid-f919de49-c617-4a1b-8446-6ff1b06e09bf"
	 xmlns="http://www.w3.org/2000/svg" xmlns:xlink="http://www.w3.org/1999/xlink" x="0px" y="0px" viewBox="0 0 474.5 294.5"
	 style="enable-background:new 0 0 474.5 294.5;" xml:space="preserve">
<style type="text/css">
	.st0{fill:none;stroke:#FCBE1B;stroke-width:3;stroke-miterlimit:10;}
	.st1{fill:none;stroke:#FCBE1B;stroke-width:2.93;stroke-miterlimit:10;}
	.st2{fill:#FCBE1B;}
	.st3{fill:#E8629F;}
	.st4{fill:none;stroke:#FCBE1B;stroke-width:6;stroke-miterlimit:10;}
	.st5{fill:#261923;}
	.st6{fill-rule:evenodd;clip-rule:evenodd;fill:#FCBE1B;}
</style>
<g>
	<polyline class="st0" points="1.3,239.3 90.9,69.8 153.1,211 	"/>
	<polyline class="st0" points="233.2,239.2 322.8,69.7 393.9,231.3 	"/>
	<g>
		<line class="st1" x1="175.7" y1="165.7" x2="193.4" y2="47.4"/>
		<line class="st1" x1="234.6" y1="165.7" x2="218.4" y2="57.6"/>
		<line class="st1" x1="183.6" y1="111.6" x2="226.5" y2="111.6"/>
		<line class="st1" x1="188.2" y1="81.8" x2="222" y2="81.8"/>
		<line class="st1" x1="183.6" y1="111.6" x2="222" y2="81.8"/>
		<line class="st1" x1="226.5" y1="111.6" x2="188.2" y2="81.8"/>
		<line class="st1" x1="178.9" y1="144.2" x2="226.5" y2="111.6"/>
		<line class="st1" x1="231.5" y1="144.2" x2="183.6" y2="111.6"/>
		<line class="st1" x1="218.4" y1="57.6" x2="188.2" y2="81.8"/>
		<line class="st1" x1="191.9" y1="57.6" x2="222" y2="81.8"/>
		<line class="st1" x1="191.9" y1="57.6" x2="218.4" y2="57.6"/>
		<g>
			<path class="st2" d="M236,57.8c-6.7,6.7-29.8,5.1-45-10.2s-16.9-38.3-10.2-45s24.5,0.2,39.8,15.4C235.8,33.2,242.7,51,236,57.8
				L236,57.8z"/>
			
				<ellipse transform="matrix(0.7071 -0.7071 0.7071 0.7071 39.7071 156.1882)" class="st3" cx="208.4" cy="30.2" rx="17.2" ry="39"/>
			<path class="st2" d="M235.4,3.2l-30.7,23.2c-0.8,0.8,6.6,8.3,7.5,7.4L235.4,3.2L235.4,3.2z"/>
			<ellipse transform="matrix(0.7071 -0.7071 0.7071 0.7071 66.681 167.3662)" class="st3" cx="235.4" cy="3.2" rx="3.2" ry="2"/>
		</g>
	</g>
	<rect x="153.2" y="165.2" class="st3" width="84.7" height="45.7"/>
	<rect x="33.4" y="210.9" class="st3" width="204.6" height="45.7"/>
	<line class="st4" x1="91" y1="48.2" x2="91" y2="210.9"/>
	<line class="st4" x1="323.3" y1="48.2" x2="323.3" y2="231.2"/>
	<g>
		<rect x="159" y="173.1" class="st5" width="15.7" height="31.7"/>
		<path class="st2" d="M173.7,174.1v29.7H160v-29.7H173.7 M175.7,172.1H158v33.7h17.7V172.1L175.7,172.1z"/>
	</g>
	<g>
		<rect x="187.8" y="173.1" class="st5" width="15.7" height="31.7"/>
		<path class="st2" d="M202.4,174.1v29.7h-13.7v-29.7H202.4 M204.4,172.1h-17.7v33.7h17.7V172.1L204.4,172.1z"/>
	</g>
	<g>
		<rect x="216.5" y="173.1" class="st5" width="15.7" height="31.7"/>
		<path class="st2" d="M231.2,174.1v29.7h-13.7v-29.7H231.2 M233.2,172.1h-17.7v33.7h17.7V172.1L233.2,172.1z"/>
	</g>
	<g>
		<rect x="159.5" y="222" class="st5" width="72.1" height="18.4"/>
		<path class="st2" d="M230.2,223.5v15.4H161v-15.4H230.2 M233.2,220.5H158v21.4h75.1V220.5L233.2,220.5z"/>
	</g>
	<g>
		<rect x="48.6" y="222" class="st5" width="96.4" height="18.4"/>
		<path class="st2" d="M143.5,223.5v15.4H50.1v-15.4H143.5 M146.5,220.5H47.1v21.4h99.4V220.5L146.5,220.5z"/>
	</g>
	<path class="st6" d="M26.1,294.5h381.5l66.9-83.6c0,0-137.4,28.4-366.3,28.4L1.4,239.2C1.4,239.2,7.3,275.1,26.1,294.5L26.1,294.5z
		"/>
	<line class="st1" x1="178.9" y1="144.2" x2="231.5" y2="144.2"/>
</g>
</svg>
