<?xml version="1.0" encoding="utf-8"?>
<!-- Generator: Adobe Illustrator 26.5.0, SVG Export Plug-In . SVG Version: 6.00 Build 0)  -->
<svg version="1.1" id="uuid-739892d1-f9fd-46fc-a253-154cccad24e4"
	 xmlns="http://www.w3.org/2000/svg" xmlns:xlink="http://www.w3.org/1999/xlink" x="0px" y="0px" viewBox="0 0 297.4 596"
	 style="enable-background:new 0 0 297.4 596;" xml:space="preserve">
<style type="text/css">
	.st0{fill:none;stroke:#FCBE1B;stroke-width:10.06;stroke-miterlimit:10;}
	.st1{fill:#FCBE1B;}
	.st2{fill:#E6629F;}
</style>
<g>
	<line class="st0" x1="48.1" y1="568.3" x2="108.9" y2="162.6"/>
	<line class="st0" x1="249.9" y1="568.3" x2="194.4" y2="197.4"/>
	<line class="st0" x1="59.1" y1="494.6" x2="239.4" y2="494.6"/>
	<line class="st0" x1="75.2" y1="382.8" x2="222.2" y2="382.8"/>
	<line class="st0" x1="91" y1="280.6" x2="206.9" y2="280.6"/>
	<line class="st0" x1="75.2" y1="382.8" x2="206.9" y2="280.6"/>
	<line class="st0" x1="222.2" y1="382.8" x2="91" y2="280.6"/>
	<line class="st0" x1="59.1" y1="494.6" x2="222.2" y2="382.8"/>
	<line class="st0" x1="239.4" y1="494.6" x2="75.2" y2="382.8"/>
	<line class="st0" x1="194.4" y1="197.4" x2="91" y2="280.6"/>
	<line class="st0" x1="103.6" y1="197.4" x2="206.9" y2="280.6"/>
	<line class="st0" x1="103.6" y1="197.4" x2="194.6" y2="197.4"/>
	<g>
		<path class="st1" d="M254.8,198.1c-23,23-102.2,17.4-154.4-34.8S42.5,31.9,65.6,8.8c23.1-23.1,84.1,0.6,136.4,52.9
			C254.2,114,277.9,175,254.8,198.1L254.8,198.1z"/>
		
			<ellipse transform="matrix(0.7071 -0.7071 0.7071 0.7071 -26.2385 143.564)" class="st2" cx="160.2" cy="103.5" rx="59" ry="133.8"/>
		<path class="st1" d="M252.7,10.9L147.4,90.7c-2.8,2.8,22.8,28.3,25.6,25.6L252.7,10.9z"/>
		
			<ellipse transform="matrix(0.7071 -0.7071 0.7071 0.7071 66.2836 181.8861)" class="st2" cx="252.7" cy="10.9" rx="10.9" ry="6.8"/>
	</g>
	<rect y="565.9" class="st2" width="297.4" height="30.1"/>
</g>
</svg>
