<?xml version="1.0" encoding="utf-8"?>
<!-- Generator: Adobe Illustrator 26.5.0, SVG Export Plug-In . SVG Version: 6.00 Build 0)  -->
<svg version="1.1" id="Restaurant" xmlns="http://www.w3.org/2000/svg" xmlns:xlink="http://www.w3.org/1999/xlink" x="0px" y="0px"
	 viewBox="0 0 273.4 219.7" style="enable-background:new 0 0 273.4 219.7;" xml:space="preserve">
<style type="text/css">
	.st0{fill:#FCBE1B;}
	.st1{fill:#E8629F;}
	.st2{fill:#261923;}
	.st3{fill:none;stroke:#E8629F;stroke-width:2;stroke-miterlimit:10;}
	.st4{fill:#E6629F;}
</style>
<g>
	<rect x="16.4" y="11.2" class="st0" width="240.6" height="197.2"/>
	<rect y="208.4" class="st1" width="273.4" height="11.2"/>
	<rect x="8.6" class="st1" width="256.2" height="11.2"/>
	<g>
		<rect x="186.5" y="118.7" class="st2" width="65.2" height="80.2"/>
		<path class="st1" d="M250.7,119.7V198h-63.2v-78.2H250.7 M252.7,117.7h-67.2V200h67.2V117.7L252.7,117.7z"/>
	</g>
	<g>
		<rect x="21.3" y="118.7" class="st2" width="65.2" height="80.2"/>
		<path class="st1" d="M85.5,119.7V198H22.3v-78.2H85.5 M87.5,117.7H20.3V200h67.2V117.7L87.5,117.7z"/>
	</g>
	<g>
		<rect x="110" y="118.7" class="st2" width="53.3" height="88.7"/>
		<path class="st1" d="M162.3,119.7v86.7H111v-86.7H162.3 M164.3,117.7H109v90.7h55.3V117.7L164.3,117.7z"/>
	</g>
	<rect x="16.4" y="89.1" class="st1" width="240.6" height="11.2"/>
	<line class="st3" x1="164.3" y1="163.1" x2="109" y2="163.1"/>
	<line class="st3" x1="136.7" y1="208.4" x2="136.7" y2="117.7"/>
	<g>
		<rect x="17.4" y="101.3" class="st0" width="238.6" height="35"/>
		<path class="st4" d="M255,102.3v33H18.4v-33H255 M257,100.3H16.4v37H257V100.3L257,100.3z"/>
	</g>
	<g>
		<rect x="24.6" y="100.3" class="st1" width="7.6" height="37"/>
		<rect x="44.3" y="100.3" class="st1" width="7.6" height="37"/>
		<rect x="64" y="100.3" class="st1" width="7.6" height="37"/>
		<rect x="83.7" y="100.3" class="st1" width="7.6" height="37"/>
		<rect x="103.4" y="100.3" class="st1" width="7.6" height="37"/>
		<rect x="123.1" y="100.3" class="st1" width="7.6" height="37"/>
		<rect x="142.8" y="100.3" class="st1" width="7.6" height="37"/>
		<rect x="162.4" y="100.3" class="st1" width="7.6" height="37"/>
		<rect x="182.1" y="100.3" class="st1" width="7.6" height="37"/>
		<rect x="201.8" y="100.3" class="st1" width="7.6" height="37"/>
		<rect x="221.5" y="100.3" class="st1" width="7.6" height="37"/>
		<rect x="241.2" y="100.3" class="st1" width="7.6" height="37"/>
	</g>
	<g>
		<rect x="21.3" y="27.9" class="st2" width="40.4" height="56.3"/>
		<path class="st1" d="M60.7,28.9v54.3H22.3V28.9H60.7 M62.7,26.9H20.3v58.3h42.4V26.9L62.7,26.9z"/>
	</g>
	<g>
		<rect x="67.6" y="27.9" class="st2" width="40.4" height="56.3"/>
		<path class="st1" d="M107,28.9v54.3H68.6V28.9H107 M109,26.9H66.6v58.3H109V26.9L109,26.9z"/>
	</g>
	<g>
		<rect x="165.3" y="27.9" class="st2" width="40.4" height="56.3"/>
		<path class="st1" d="M204.7,28.9v54.3h-38.4V28.9H204.7 M206.7,26.9h-42.4v58.3h42.4V26.9L206.7,26.9z"/>
	</g>
	<g>
		<rect x="211.6" y="27.9" class="st2" width="40.4" height="56.3"/>
		<path class="st1" d="M251,28.9v54.3h-38.4V28.9H251 M253,26.9h-42.4v58.3H253V26.9L253,26.9z"/>
	</g>
</g>
</svg>
