<?xml version="1.0" encoding="utf-8"?>
<!-- Generator: Adobe Illustrator 26.5.0, SVG Export Plug-In . SVG Version: 6.00 Build 0)  -->
<svg version="1.1" id="uuid-12aaa5ae-b557-483a-9f22-dbdfcd25f89d"
	 xmlns="http://www.w3.org/2000/svg" xmlns:xlink="http://www.w3.org/1999/xlink" x="0px" y="0px" viewBox="0 0 421.1 537.6"
	 style="enable-background:new 0 0 421.1 537.6;" xml:space="preserve">
<style type="text/css">
	.st0{fill:none;stroke:#FCBE1B;stroke-width:6.12;stroke-miterlimit:10;}
	.st1{fill:none;stroke:#FCBE1B;stroke-width:5.78;stroke-miterlimit:10;}
	.st2{fill:#E6629F;}
	.st3{fill:#FCBE1B;}
</style>
<g>
	<g>
		<polyline class="st0" points="58.7,534.5 58.7,158.2 114.4,105.6 114.4,534.5 3.1,534.5 3.1,385.3 58.7,327.7 		"/>
		<line class="st1" x1="3.1" y1="534.5" x2="58.9" y2="484.9"/>
		<line class="st1" x1="58.9" y1="534.5" x2="3.1" y2="484.9"/>
		<line class="st1" x1="3.1" y1="485.3" x2="58.9" y2="435.7"/>
		<line class="st1" x1="58.9" y1="485.3" x2="3.1" y2="435.7"/>
		<line class="st1" x1="3.1" y1="435" x2="58.9" y2="385.3"/>
		<line class="st1" x1="58.9" y1="435" x2="3.1" y2="385.3"/>
		<line class="st1" x1="58.4" y1="534.5" x2="114.2" y2="484.9"/>
		<line class="st1" x1="114.2" y1="534.5" x2="58.4" y2="484.9"/>
		<line class="st1" x1="58.4" y1="485.3" x2="114.2" y2="435.7"/>
		<line class="st1" x1="114.2" y1="485.3" x2="58.4" y2="435.7"/>
		<line class="st1" x1="58.4" y1="435" x2="114.2" y2="385.3"/>
		<line class="st1" x1="114.2" y1="435" x2="29.7" y2="359.8"/>
		<line class="st1" x1="58.4" y1="384.6" x2="114.2" y2="335"/>
		<line class="st1" x1="114.2" y1="384.6" x2="58.4" y2="335"/>
		<line class="st1" x1="58.4" y1="335.4" x2="114.2" y2="285.8"/>
		<line class="st1" x1="114.2" y1="335.4" x2="58.4" y2="285.8"/>
		<line class="st1" x1="58.4" y1="285.1" x2="114.2" y2="235.4"/>
		<line class="st1" x1="114.2" y1="285.1" x2="58.4" y2="235.4"/>
		<line class="st1" x1="58.4" y1="234.7" x2="114.2" y2="185.1"/>
		<line class="st1" x1="114.2" y1="234.7" x2="58.4" y2="185.1"/>
		<line class="st1" x1="58.4" y1="185.5" x2="114.2" y2="135.9"/>
		<line class="st1" x1="114.2" y1="185.5" x2="70.7" y2="146.9"/>
		<line class="st1" x1="114.2" y1="135.2" x2="98.2" y2="121"/>
	</g>
	<g>
		<polyline class="st0" points="362.4,534.5 362.4,158.2 306.7,105.6 306.7,534.5 418,534.5 418,385.3 362.4,327.7 		"/>
		<line class="st1" x1="418" y1="534.5" x2="362.2" y2="484.9"/>
		<line class="st1" x1="362.2" y1="534.5" x2="418" y2="484.9"/>
		<line class="st1" x1="418" y1="485.3" x2="362.2" y2="435.7"/>
		<line class="st1" x1="362.2" y1="485.3" x2="418" y2="435.7"/>
		<line class="st1" x1="418" y1="435" x2="362.2" y2="385.3"/>
		<line class="st1" x1="362.2" y1="435" x2="418" y2="385.3"/>
		<line class="st1" x1="362.7" y1="534.5" x2="306.9" y2="484.9"/>
		<line class="st1" x1="306.9" y1="534.5" x2="362.7" y2="484.9"/>
		<line class="st1" x1="362.7" y1="485.3" x2="306.9" y2="435.7"/>
		<line class="st1" x1="306.9" y1="485.3" x2="362.7" y2="435.7"/>
		<line class="st1" x1="362.7" y1="435" x2="306.9" y2="385.3"/>
		<line class="st1" x1="306.9" y1="435" x2="391.4" y2="359.8"/>
		<line class="st1" x1="362.7" y1="384.6" x2="306.9" y2="335"/>
		<line class="st1" x1="306.9" y1="384.6" x2="362.7" y2="335"/>
		<line class="st1" x1="362.7" y1="335.4" x2="306.9" y2="285.8"/>
		<line class="st1" x1="306.9" y1="335.4" x2="362.7" y2="285.8"/>
		<line class="st1" x1="362.7" y1="285.1" x2="306.9" y2="235.4"/>
		<line class="st1" x1="306.9" y1="285.1" x2="362.7" y2="235.4"/>
		<line class="st1" x1="362.7" y1="234.7" x2="306.9" y2="185.1"/>
		<line class="st1" x1="306.9" y1="234.7" x2="362.7" y2="185.1"/>
		<line class="st1" x1="362.7" y1="185.5" x2="306.9" y2="135.9"/>
		<line class="st1" x1="306.9" y1="185.5" x2="350.4" y2="146.9"/>
		<line class="st1" x1="306.9" y1="135.2" x2="322.9" y2="121"/>
	</g>
	<polygon class="st2" points="268.8,204.6 232,178.4 189.1,178.4 152.3,204.6 152.3,497.7 189.1,482.5 232,482.5 268.8,497.7 	"/>
	<path class="st3" d="M210.6,0L210.6,0c-11.8,0-21.4,27.6-21.4,40.8v493.8H232V40.8C232,27.6,222.4,0,210.6,0L210.6,0z"/>
	<rect x="189.1" y="39.9" class="st2" width="42.8" height="17.2"/>
	<polygon class="st2" points="255.2,534.5 165.9,534.5 189.1,488.9 232,488.9 	"/>
	<line class="st0" x1="114.4" y1="101.6" x2="306.7" y2="101.6"/>
	<line class="st0" x1="114.4" y1="138.9" x2="306.7" y2="138.9"/>
</g>
</svg>
