<?xml version="1.0" encoding="utf-8"?>
<!-- Generator: Adobe Illustrator 26.5.0, SVG Export Plug-In . SVG Version: 6.00 Build 0)  -->
<svg version="1.1" id="uuid-d68dda38-95d0-4d36-a529-cccfb3c23efb"
	 xmlns="http://www.w3.org/2000/svg" xmlns:xlink="http://www.w3.org/1999/xlink" x="0px" y="0px" viewBox="0 0 507.1 243.7"
	 style="enable-background:new 0 0 507.1 243.7;" xml:space="preserve">
<style type="text/css">
	.st0{fill-rule:evenodd;clip-rule:evenodd;fill:#FCBE1B;}
	.st1{fill:#261923;stroke:#E8629F;stroke-width:2;stroke-miterlimit:10;}
	.st2{fill:#261923;stroke:#E8629F;stroke-width:1.54;stroke-miterlimit:10;}
	.st3{fill:#E8629F;}
	.st4{fill-rule:evenodd;clip-rule:evenodd;fill:#261923;stroke:#E8629F;stroke-width:2;stroke-miterlimit:10;}
	.st5{fill:#FCBE1B;}
	.st6{fill-rule:evenodd;clip-rule:evenodd;fill:#E8629F;}
</style>
<g>
	<g>
		<polygon class="st0" points="120,7 98.6,0 58.1,19.6 35,7 13.1,25.3 5.5,18.9 5.5,242.9 171.7,242.9 171.7,32.6 146.1,0 		"/>
		<path class="st1" d="M40.5,159.9h35.2c10.9,0,19.8,8.9,19.8,19.8v21.7H20.7v-21.7C20.7,168.8,29.5,159.9,40.5,159.9L40.5,159.9z"
			/>
		<path class="st2" d="M134.2,159.9L134.2,159.9c12.3,0,22.3,10,22.3,22.3v60.7H112v-60.7C112,169.9,121.9,159.9,134.2,159.9z"/>
		<rect y="114" class="st3" width="177.2" height="28.5"/>
		<path class="st4" d="M40.3,39.9L40.3,39.9c-9.3,0-16.9,7.5-16.9,16.9v51.1h33.7V56.8C57.2,47.5,49.7,39.9,40.3,39.9L40.3,39.9z"/>
		<path class="st4" d="M88.6,39.9L88.6,39.9c-9.3,0-16.9,7.5-16.9,16.9v51.1h33.7V56.8C105.5,47.5,97.9,39.9,88.6,39.9L88.6,39.9z"
			/>
		<path class="st4" d="M136.8,39.9L136.8,39.9c-9.3,0-16.9,7.5-16.9,16.9v51.1h33.7V56.8C153.7,47.5,146.2,39.9,136.8,39.9z"/>
	</g>
	<g>
		<polygon class="st0" points="208.1,71.2 200.2,81.6 215.9,106.1 200.2,132.8 210.2,171.2 202.3,185.7 215.9,210 196.6,237.4 
			485.9,237.4 485.9,71.2 		"/>
		<rect x="485.9" y="89.2" class="st5" width="21.2" height="48.5"/>
		<rect x="223.1" y="65.8" class="st3" width="28.5" height="177.2"/>
		<rect x="331.8" y="65.8" class="st3" width="28.5" height="177.2"/>
		<polygon class="st6" points="489.8,65.8 469,65.8 466.6,65.8 440.5,65.8 440.5,242.9 466.6,242.9 469,242.9 489.8,242.9 		"/>
		<g>
			<path class="st4" d="M325.7,106.1L325.7,106.1c0-9.3-7.5-16.9-16.9-16.9h-51.1V123h51.1C318.1,123,325.7,115.4,325.7,106.1z"/>
			<path class="st4" d="M325.7,154.3L325.7,154.3c0-9.3-7.5-16.9-16.9-16.9h-51.1v33.7h51.1C318.1,171.2,325.7,163.7,325.7,154.3z"
				/>
			<path class="st4" d="M325.7,202.6L325.7,202.6c0-9.3-7.5-16.9-16.9-16.9h-51.1v33.7h51.1C318.1,219.5,325.7,211.9,325.7,202.6z"
				/>
			<path class="st4" d="M434.4,106.1L434.4,106.1c0-9.3-7.5-16.9-16.9-16.9h-51.1V123h51.1C426.8,123,434.4,115.4,434.4,106.1z"/>
			<path class="st4" d="M434.4,154.3L434.4,154.3c0-9.3-7.5-16.9-16.9-16.9h-51.1v33.7h51.1C426.8,171.2,434.4,163.7,434.4,154.3z"
				/>
			<path class="st4" d="M434.4,202.6L434.4,202.6c0-9.3-7.5-16.9-16.9-16.9h-51.1v33.7h51.1C426.8,219.5,434.4,211.9,434.4,202.6z"
				/>
		</g>
	</g>
</g>
</svg>
