<?xml version="1.0" encoding="utf-8"?>
<!-- Generator: Adobe Illustrator 26.5.0, SVG Export Plug-In . SVG Version: 6.00 Build 0)  -->
<svg version="1.1" id="uuid-b46be2b8-ed4e-454b-9e9b-a151fc67b1ec"
	 xmlns="http://www.w3.org/2000/svg" xmlns:xlink="http://www.w3.org/1999/xlink" x="0px" y="0px" viewBox="0 0 336.4 534.1"
	 style="enable-background:new 0 0 336.4 534.1;" xml:space="preserve">
<style type="text/css">
	.st0{fill-rule:evenodd;clip-rule:evenodd;fill:#FCBE1B;}
	.st1{fill:#261923;stroke:#E8629F;stroke-width:1.54;stroke-miterlimit:10;}
	.st2{fill:#E8629F;}
	.st3{fill-rule:evenodd;clip-rule:evenodd;fill:#E8629F;}
	.st4{fill-rule:evenodd;clip-rule:evenodd;fill:#261923;stroke:#E8629F;stroke-width:2;stroke-miterlimit:10;}
	.st5{fill-rule:evenodd;clip-rule:evenodd;fill:#261923;stroke:#FCBE1B;stroke-width:2;stroke-miterlimit:10;}
</style>
<g>
	<polygon class="st0" points="296,295.9 275.5,252.8 237.2,221.5 209,191.8 209,143.3 180.4,95.5 185.5,47 180.2,30.7 14,30.7 
		14,153.3 39.9,180 43.8,215.6 37.6,245.1 33.7,274.7 21.9,298.2 14,303.7 14,533.3 336.4,533.3 336.4,313 	"/>
	<path class="st1" d="M173.4,450.3h3.6c11.3,0,20.5,9.2,20.5,20.5v62.5h-44.5v-62.5C152.9,459.5,162.1,450.3,173.4,450.3z"/>
	<rect x="14" y="413.6" class="st2" width="322.4" height="15.3"/>
	<polygon class="st3" points="296,295.9 275.5,252.8 237.2,221.5 230.9,215 230.9,413.6 320.2,413.6 320.2,306.1 	"/>
	<polygon class="st3" points="29.8,169.6 39.9,180 43.8,215.6 37.6,245.1 33.7,274.7 29.8,282.6 29.8,413.6 119,413.6 119,76.7 
		29.8,76.7 	"/>
	<path class="st4" d="M275.5,450.3L275.5,450.3c-11.3,0-20.5,9.2-20.5,20.5v35.9H296v-35.9C296,459.5,286.9,450.3,275.5,450.3
		L275.5,450.3z"/>
	<path class="st5" d="M275.5,339.8L275.5,339.8c-11.3,0-20.5,9.2-20.5,20.5v35.9H296v-35.9C296,348.9,286.9,339.8,275.5,339.8
		L275.5,339.8z"/>
	<g>
		<path class="st5" d="M74.4,339.8L74.4,339.8c-11.3,0-20.5,9.2-20.5,20.5v35.9h40.9v-35.9C94.8,348.9,85.7,339.8,74.4,339.8
			L74.4,339.8z"/>
		<path class="st5" d="M74.4,263.6L74.4,263.6c-11.3,0-20.5,9.2-20.5,20.5V320h40.9v-35.9C94.8,272.8,85.7,263.6,74.4,263.6
			L74.4,263.6z"/>
		<path class="st5" d="M74.4,187.4L74.4,187.4c-11.3,0-20.5,9.2-20.5,20.5v35.9h40.9v-35.9C94.8,196.6,85.7,187.4,74.4,187.4
			L74.4,187.4z"/>
		<path class="st5" d="M74.4,111.3L74.4,111.3c-11.3,0-20.5,9.2-20.5,20.5v35.9h40.9v-35.9C94.8,120.4,85.7,111.3,74.4,111.3
			L74.4,111.3z"/>
	</g>
	<g>
		<path class="st4" d="M175.2,339.8L175.2,339.8c-11.3,0-20.5,9.2-20.5,20.5v35.9h40.9v-35.9C195.7,348.9,186.5,339.8,175.2,339.8
			L175.2,339.8z"/>
		<path class="st4" d="M175.2,263.6L175.2,263.6c-11.3,0-20.5,9.2-20.5,20.5V320h40.9v-35.9C195.7,272.8,186.5,263.6,175.2,263.6
			L175.2,263.6z"/>
		<path class="st4" d="M175.2,187.4L175.2,187.4c-11.3,0-20.5,9.2-20.5,20.5v35.9h40.9v-35.9C195.7,196.6,186.5,187.4,175.2,187.4
			L175.2,187.4z"/>
		<path class="st4" d="M175.2,111.3L175.2,111.3c-11.3,0-20.5,9.2-20.5,20.5v35.9h40.9v-35.9C195.7,120.4,186.5,111.3,175.2,111.3
			L175.2,111.3z"/>
	</g>
	<path class="st4" d="M74.4,450.3L74.4,450.3c-11.3,0-20.5,9.2-20.5,20.5v35.9h40.9v-35.9C94.8,459.5,85.7,450.3,74.4,450.3
		L74.4,450.3z"/>
	<path class="st5" d="M275.5,263.6c-11.3,0-20.5,9.2-20.5,20.5V320H296v-24.1l-15-31.5C279.3,263.9,277.5,263.6,275.5,263.6
		L275.5,263.6z"/>
	<polygon class="st3" points="175.2,15.3 177,0 0,0 0,15.3 14,15.3 14,30.7 180.2,30.7 	"/>
	<polygon class="st3" points="184,61.4 14,61.4 14,76.7 182.3,76.7 	"/>
</g>
</svg>
