<?xml version="1.0" encoding="utf-8"?>
<!-- Generator: Adobe Illustrator 26.5.0, SVG Export Plug-In . SVG Version: 6.00 Build 0)  -->
<svg version="1.1" id="uuid-768fed66-a21e-4c66-b351-3bd0008b02fe"
	 xmlns="http://www.w3.org/2000/svg" xmlns:xlink="http://www.w3.org/1999/xlink" x="0px" y="0px" viewBox="0 0 330.6 461.5"
	 style="enable-background:new 0 0 330.6 461.5;" xml:space="preserve">
<style type="text/css">
	.st0{fill-rule:evenodd;clip-rule:evenodd;fill:#FCBE1B;}
	.st1{fill:#E8629F;}
	.st2{fill-rule:evenodd;clip-rule:evenodd;fill:#261923;stroke:#E8629F;stroke-width:2;stroke-miterlimit:10;}
	.st3{fill-rule:evenodd;clip-rule:evenodd;fill:#E8629F;}
	.st4{fill:#261923;stroke:#E8629F;stroke-width:2;stroke-miterlimit:10;}
	.st5{fill:#261923;stroke:#E8629F;stroke-width:1.6;stroke-miterlimit:10;}
	.st6{fill:#261923;stroke:#E8629F;stroke-width:1.54;stroke-miterlimit:10;}
</style>
<g>
	<polygon class="st0" points="302.7,74.1 256.6,79.8 247.2,34 235.5,0 221.4,16.4 175,40.1 152.7,85.7 113.9,97.4 89.8,135 
		44.6,140.2 44.6,172.6 19.5,190.2 4.1,201.6 4.1,460.5 326.5,460.5 326.5,87 	"/>
	<rect y="331.6" class="st1" width="330.5" height="28.5"/>
	<rect y="222.9" class="st1" width="330.5" height="28.5"/>
	<g>
		<path class="st2" d="M44.6,257.5L44.6,257.5c-9.3,0-16.9,7.5-16.9,16.9v51.1h33.7v-51.1C61.4,265,53.9,257.5,44.6,257.5
			L44.6,257.5z"/>
		<path class="st2" d="M92.8,257.5L92.8,257.5c-9.3,0-16.9,7.5-16.9,16.9v51.1h33.7v-51.1C109.7,265,102.1,257.5,92.8,257.5z"/>
		<path class="st2" d="M141.1,257.5L141.1,257.5c-9.3,0-16.9,7.5-16.9,16.9v51.1h33.7v-51.1C157.9,265,150.4,257.5,141.1,257.5z"/>
		<path class="st2" d="M189.3,257.5L189.3,257.5c-9.3,0-16.9,7.5-16.9,16.9v51.1h33.7v-51.1C206.2,265,198.6,257.5,189.3,257.5z"/>
		<path class="st2" d="M237.6,257.5L237.6,257.5c-9.3,0-16.9,7.5-16.9,16.9v51.1h33.7v-51.1C254.4,265,246.9,257.5,237.6,257.5z"/>
		<path class="st2" d="M285.8,257.5L285.8,257.5c-9.3,0-16.9,7.5-16.9,16.9v51.1h33.7v-51.1C302.7,265,295.1,257.5,285.8,257.5z"/>
	</g>
	<path class="st2" d="M92.8,148.8L92.8,148.8c-9.3,0-16.9,7.5-16.9,16.9v51.1h33.7v-51.1C109.7,156.3,102.1,148.8,92.8,148.8z"/>
	<path class="st2" d="M141.1,148.8L141.1,148.8c-9.3,0-16.9,7.5-16.9,16.9v51.1h33.7v-51.1C157.9,156.3,150.4,148.8,141.1,148.8z"/>
	<path class="st2" d="M189.3,148.8L189.3,148.8c-9.3,0-16.9,7.5-16.9,16.9v51.1h33.7v-51.1C206.2,156.3,198.6,148.8,189.3,148.8z"/>
	<path class="st2" d="M237.6,148.8L237.6,148.8c-9.3,0-16.9,7.5-16.9,16.9v51.1h33.7v-51.1C254.4,156.3,246.9,148.8,237.6,148.8z"/>
	<path class="st2" d="M285.8,148.8L285.8,148.8c-9.3,0-16.9,7.5-16.9,16.9v51.1h33.7v-51.1C302.7,156.3,295.1,148.8,285.8,148.8z"/>
	<polygon class="st3" points="89.8,135 44.6,140.2 44.6,142.6 330.6,142.6 330.6,114.2 103.2,114.2 	"/>
	<polygon class="st3" points="221.4,16.4 187,34 247.2,34 235.5,0 	"/>
	<path class="st2" d="M189.3,40.1L189.3,40.1c-9.3,0-16.9,7.5-16.9,16.9V108h33.7V57C206.2,47.6,198.6,40.1,189.3,40.1L189.3,40.1z"
		/>
	<path class="st2" d="M237.6,40.1L237.6,40.1c-9.3,0-16.9,7.5-16.9,16.9V108h33.7V57C254.4,47.6,246.9,40.1,237.6,40.1L237.6,40.1z"
		/>
	<path class="st4" d="M76.6,377.5L76.6,377.5c20.6,0,37.4,16.8,37.4,37.4v45.6H39.2v-45.6C39.2,394.2,55.9,377.5,76.6,377.5
		L76.6,377.5z"/>
	<path class="st5" d="M265.6,377.5L265.6,377.5c13.2,0,23.9,10.7,23.9,23.9v59.1h-47.8v-59.1C241.8,388.2,252.5,377.5,265.6,377.5z"
		/>
	<path class="st6" d="M152.7,377.5L152.7,377.5c12.3,0,22.3,10,22.3,22.3v60.7h-44.5v-60.7C130.5,387.5,140.4,377.5,152.7,377.5
		L152.7,377.5z"/>
	<path class="st2" d="M44.6,148.8L44.6,148.8v23.8l-16.9,11.8v32.3h33.7v-51.1C61.4,156.3,53.9,148.8,44.6,148.8L44.6,148.8z"/>
	<polygon class="st2" points="268.9,108 302.7,108 302.7,74.1 268.9,78.3 	"/>
	<polygon class="st2" points="152.7,85.7 124.2,94.3 124.2,108 157.9,108 157.9,75.1 	"/>
</g>
</svg>
