<?xml version="1.0" encoding="utf-8"?>
<!-- Generator: Adobe Illustrator 26.5.0, SVG Export Plug-In . SVG Version: 6.00 Build 0)  -->
<svg version="1.1" id="uuid-b40b2560-78c4-412a-87db-4ae2aadf0709"
	 xmlns="http://www.w3.org/2000/svg" xmlns:xlink="http://www.w3.org/1999/xlink" x="0px" y="0px" viewBox="0 0 344.1 346.2"
	 style="enable-background:new 0 0 344.1 346.2;" xml:space="preserve">
<style type="text/css">
	.st0{fill:#FCBE1B;}
	.st1{fill:#261923;}
	.st2{fill:#E8629F;}
	.st3{fill:none;stroke:#E8629F;stroke-width:4;stroke-miterlimit:10;}
	.st4{fill:none;stroke:#261923;stroke-width:2;stroke-miterlimit:10;}
</style>
<g>
	<rect x="11.8" y="233" class="st0" width="320.5" height="102"/>
	<polygon class="st0" points="243.1,68.6 243.1,6.3 100.9,6.3 100.9,68.6 11.8,68.6 11.8,131 11.8,233 332.3,233 332.3,131 
		332.3,68.6 	"/>
	<g>
		<rect x="149.1" y="152.9" class="st1" width="45.8" height="73.5"/>
		<path class="st2" d="M193.9,153.9v71.4h-43.8v-71.4H193.9 M195.9,151.9h-47.8v75.5h47.8L195.9,151.9L195.9,151.9L195.9,151.9z"/>
	</g>
	<rect y="62.4" class="st2" width="100.9" height="6.3"/>
	<rect x="11.8" y="185" class="st2" width="320.5" height="3.1"/>
	<rect x="11.8" y="238.6" class="st2" width="6.3" height="96.3"/>
	<rect x="129" y="238.6" class="st2" width="6.3" height="96.3"/>
	<rect x="208.8" y="238.6" class="st2" width="6.3" height="96.3"/>
	<rect x="326" y="238.6" class="st2" width="6.3" height="96.3"/>
	<rect x="243.1" y="62.4" class="st2" width="100.9" height="6.3"/>
	<rect x="91.7" class="st2" width="160.7" height="6.3"/>
	<rect x="11.8" y="335" class="st2" width="320.5" height="11.2"/>
	<rect x="11.8" y="227.4" class="st2" width="320.5" height="11.2"/>
	<polyline class="st3" points="14.9,259.5 40.3,234.1 40.3,227.4 	"/>
	<polyline class="st3" points="132.1,259.5 157.5,234.1 157.5,227.4 	"/>
	<polyline class="st3" points="211.9,259.5 237.3,234.1 237.3,227.4 	"/>
	<polyline class="st3" points="211.9,259.5 186.6,234.1 186.6,227.4 	"/>
	<polyline class="st3" points="329.1,259.5 303.8,234.1 303.8,227.4 	"/>
	<polyline class="st3" points="132.1,259.5 106.8,234.1 106.8,227.4 	"/>
	<g>
		<rect x="149.1" y="260.5" class="st1" width="45.8" height="73.5"/>
		<path class="st2" d="M193.9,261.5v71.4h-43.8v-71.4H193.9 M195.9,259.5h-47.8V335h47.8L195.9,259.5L195.9,259.5L195.9,259.5z"/>
	</g>
	<g>
		<rect x="234.8" y="260.5" class="st1" width="71.6" height="63.3"/>
		<path class="st2" d="M305.3,261.5v61.3h-69.6v-61.3H305.3 M307.3,259.5h-73.6v65.3h73.6V259.5L307.3,259.5z"/>
	</g>
	<g>
		<rect x="37.7" y="260.5" class="st1" width="71.6" height="63.3"/>
		<path class="st2" d="M108.3,261.5v61.3H38.7v-61.3H108.3 M110.3,259.5H36.7v65.3h73.6V259.5L110.3,259.5z"/>
	</g>
	<g>
		<rect x="26.4" y="138.4" class="st1" width="23" height="42.6"/>
		<path class="st2" d="M48.5,139.4V180h-21v-40.6H48.5 M50.5,137.4h-25V182h25V137.4L50.5,137.4z"/>
	</g>
	<g>
		<rect x="76.9" y="138.4" class="st1" width="23" height="42.6"/>
		<path class="st2" d="M98.9,139.4V180h-21v-40.6H98.9 M100.9,137.4h-25V182h25V137.4L100.9,137.4z"/>
	</g>
	<g>
		<rect x="244.1" y="138.4" class="st1" width="23" height="42.6"/>
		<path class="st2" d="M266.2,139.4V180h-21v-40.6H266.2 M268.2,137.4h-25V182h25V137.4L268.2,137.4z"/>
	</g>
	<g>
		<rect x="294.6" y="138.4" class="st1" width="23" height="42.6"/>
		<path class="st2" d="M316.6,139.4V180h-21v-40.6H316.6 M318.6,137.4h-25V182h25V137.4L318.6,137.4z"/>
	</g>
	<g>
		<path class="st2" d="M112.1,54.7v-9.8h3.2c0,1.8,0.4,3.1,0.9,4s1.2,1.3,2,1.3c0.6,0,1.1-0.3,1.5-0.9c0.4-0.6,0.6-1.3,0.6-2.2
			c0-0.9-0.2-1.6-0.6-2.2c-0.4-0.6-1.1-1.3-2.1-2.1c-2.2-1.6-3.7-3-4.5-4.3s-1.2-2.9-1.2-5c0-2.5,0.5-4.5,1.6-5.9s2.2-2.1,3.5-2.1
			c1.5,0,2.7,0.9,3.5,2.7v-2.4h3.2v8.8h-3.2c-0.1-1.4-0.4-2.4-0.9-3.1c-0.5-0.7-1.1-1.1-1.8-1.1c-0.5,0-1,0.2-1.3,0.6
			c-0.4,0.4-0.5,1-0.5,1.7c0,0.6,0.1,1.2,0.5,1.7c0.3,0.5,1.2,1.3,2.6,2.3c1.4,1,2.5,1.8,3.2,2.6s1.3,1.8,1.8,3
			c0.4,1.2,0.7,2.6,0.7,4.2c0,2.9-0.5,5-1.6,6.4s-2.4,2.2-3.9,2.2c-1.7,0-3-0.9-3.9-2.8v2.5H112.1L112.1,54.7z"/>
		<path class="st2" d="M145.2,49.8v4.9h-9.4v-4.9h2.4l-0.9-5h-4.9l-1,5h2.5v4.9h-8.4v-4.9h2.4l3.7-19.1h-2.5v-4.9h12.4v4.9h-2.6
			l4,19.1L145.2,49.8L145.2,49.8z M136.6,40.6l-1.6-8.7l-1.7,8.7H136.6L136.6,40.6z"/>
		<path class="st2" d="M146,54.7v-4.9h2.7V30.7H146v-4.9h10.5v4.9h-2.8v19.1h5.6v-8.9h3.7v13.8L146,54.7L146,54.7z"/>
		<path class="st2" d="M175.2,25.4c3.3,0,5.9,1.4,7.7,4.3s2.8,6.4,2.8,10.5s-0.9,7.7-2.8,10.5s-4.5,4.3-7.7,4.3s-6-1.5-7.8-4.4
			c-1.8-3-2.7-6.4-2.7-10.4s0.9-7.6,2.8-10.5S171.9,25.4,175.2,25.4L175.2,25.4z M175.2,30.7c-1.5,0-2.7,0.8-3.7,2.5
			c-1,1.7-1.5,4.1-1.5,7.3c0,2.8,0.5,5.1,1.5,6.8c1,1.7,2.2,2.5,3.7,2.5s2.7-0.8,3.7-2.5s1.5-4.1,1.5-7.2c0-2.8-0.5-5.1-1.5-6.8
			C178,31.5,176.8,30.7,175.2,30.7L175.2,30.7z"/>
		<path class="st2" d="M199.1,25.4c3.3,0,5.9,1.4,7.8,4.3s2.8,6.4,2.8,10.5s-0.9,7.7-2.8,10.5s-4.5,4.3-7.7,4.3s-6-1.5-7.8-4.4
			s-2.7-6.4-2.7-10.4s0.9-7.6,2.8-10.5S195.9,25.4,199.1,25.4L199.1,25.4z M199.1,30.7c-1.5,0-2.7,0.8-3.7,2.5
			c-1,1.7-1.5,4.1-1.5,7.3c0,2.8,0.5,5.1,1.5,6.8s2.2,2.5,3.7,2.5s2.7-0.8,3.7-2.5s1.5-4.1,1.5-7.2c0-2.8-0.5-5.1-1.5-6.8
			C202,31.5,200.7,30.7,199.1,30.7L199.1,30.7z"/>
		<path class="st2" d="M211.8,54.7v-4.9h2.5V30.7h-2.5v-4.9h8l7,18V30.7h-2.5v-4.9h8.5v4.9h-2.7v24.2H226l-8.2-21.4v16.3h2.4v4.9
			L211.8,54.7L211.8,54.7z"/>
	</g>
	<g>
		<rect x="11.8" y="188.2" class="st2" width="3.1" height="39.2"/>
		<rect x="24" y="188.2" class="st2" width="3.1" height="39.2"/>
		<rect x="36.2" y="188.2" class="st2" width="3.1" height="39.2"/>
		<rect x="48.4" y="188.2" class="st2" width="3.1" height="39.2"/>
		<rect x="60.6" y="188.2" class="st2" width="3.1" height="39.2"/>
		<rect x="72.8" y="188.2" class="st2" width="3.1" height="39.2"/>
		<rect x="85" y="188.2" class="st2" width="3.1" height="39.2"/>
		<rect x="97.2" y="188.2" class="st2" width="3.1" height="39.2"/>
		<rect x="109.4" y="188.2" class="st2" width="3.1" height="39.2"/>
		<rect x="121.6" y="188.2" class="st2" width="3.1" height="39.2"/>
		<rect x="133.8" y="188.2" class="st2" width="3.1" height="39.2"/>
		<rect x="146.1" y="188.2" class="st2" width="3.1" height="39.2"/>
		<rect x="158.3" y="188.2" class="st2" width="3.1" height="39.2"/>
		<rect x="170.5" y="188.2" class="st2" width="3.1" height="39.2"/>
		<rect x="182.7" y="188.2" class="st2" width="3.1" height="39.2"/>
		<rect x="194.9" y="188.2" class="st2" width="3.1" height="39.2"/>
		<rect x="207.1" y="188.2" class="st2" width="3.1" height="39.2"/>
		<rect x="219.3" y="188.2" class="st2" width="3.1" height="39.2"/>
		<rect x="231.5" y="188.2" class="st2" width="3.1" height="39.2"/>
		<rect x="243.7" y="188.2" class="st2" width="3.1" height="39.2"/>
		<rect x="255.9" y="188.2" class="st2" width="3.1" height="39.2"/>
		<rect x="268.1" y="188.2" class="st2" width="3.1" height="39.2"/>
		<rect x="280.3" y="188.2" class="st2" width="3.1" height="39.2"/>
		<rect x="292.5" y="188.2" class="st2" width="3.1" height="39.2"/>
		<rect x="304.7" y="188.2" class="st2" width="3.1" height="39.2"/>
		<rect x="316.9" y="188.2" class="st2" width="3.1" height="39.2"/>
		<rect x="329.1" y="188.2" class="st2" width="3.1" height="39.2"/>
	</g>
	<path class="st0" d="M150.2,315.8H172v-37.8c0,0-8-1.7-10.9,5.9s-7.2,7.2-10.9,7.2V315.8z"/>
	<path class="st0" d="M193.9,315.8H172v-37.8c0,0,8-1.7,10.9,5.9s7.2,7.2,10.9,7.2V315.8z"/>
	<line class="st4" x1="172" y1="315.8" x2="172" y2="270.2"/>
</g>
</svg>
