<?xml version="1.0" encoding="utf-8"?>
<!-- Generator: Adobe Illustrator 26.5.0, SVG Export Plug-In . SVG Version: 6.00 Build 0)  -->
<svg version="1.1" id="uuid-7ac73b5c-c211-4ecc-9bf9-3874105564f6"
	 xmlns="http://www.w3.org/2000/svg" xmlns:xlink="http://www.w3.org/1999/xlink" x="0px" y="0px" viewBox="0 0 390.5 252.3"
	 style="enable-background:new 0 0 390.5 252.3;" xml:space="preserve">
<style type="text/css">
	.st0{fill:#E8629F;}
	.st1{fill:#FCBE1B;}
	.st2{fill:#261923;}
	.st3{fill:#261923;stroke:#E8629F;stroke-width:2;stroke-miterlimit:10;}
	.st4{fill:none;stroke:#E8629F;stroke-width:2;stroke-miterlimit:10;}
	.st5{fill:none;stroke:#FCBE1B;stroke-width:2.01;stroke-miterlimit:10;}
</style>
<g>
	<polygon class="st0" points="0,93.3 195.3,93.3 195.3,30.7 40.7,30.7 	"/>
	<polygon class="st0" points="390.5,93.3 195.3,93.3 195.3,30.7 349.8,30.7 	"/>
	<g>
		<polygon class="st1" points="111.4,91.3 195.3,2.9 279.2,91.3 		"/>
		<path class="st0" d="M195.3,5.8l79.2,83.4H116L195.3,5.8 M195.3,0l-88.6,93.3h177.1L195.3,0L195.3,0L195.3,0z"/>
	</g>
	<rect y="93.3" class="st1" width="390.5" height="152.9"/>
	<rect y="166.6" class="st0" width="390.5" height="6.1"/>
	<rect y="246.1" class="st0" width="390.5" height="6.1"/>
	<g>
		<g>
			<g>
				<rect x="10.8" y="163.2" class="st0" width="13" height="3.5"/>
				<rect x="10.8" y="93.3" class="st0" width="13" height="3.5"/>
				<rect x="12.8" y="96.7" class="st0" width="9.1" height="66.5"/>
			</g>
			<g>
				<rect x="10.8" y="242.7" class="st0" width="13" height="3.5"/>
				<rect x="10.8" y="172.8" class="st0" width="13" height="3.5"/>
				<rect x="12.8" y="176.2" class="st0" width="9.1" height="66.5"/>
			</g>
		</g>
		<g>
			<g>
				<rect x="58.4" y="163.2" class="st0" width="13" height="3.5"/>
				<rect x="58.4" y="93.3" class="st0" width="13" height="3.5"/>
				<rect x="60.4" y="96.7" class="st0" width="9.1" height="66.5"/>
			</g>
			<g>
				<rect x="58.4" y="242.7" class="st0" width="13" height="3.5"/>
				<rect x="58.4" y="172.8" class="st0" width="13" height="3.5"/>
				<rect x="60.4" y="176.2" class="st0" width="9.1" height="66.5"/>
			</g>
		</g>
		<g>
			<g>
				<rect x="106.1" y="163.2" class="st0" width="13" height="3.5"/>
				<rect x="106.1" y="93.3" class="st0" width="13" height="3.5"/>
				<rect x="108" y="96.7" class="st0" width="9.1" height="66.5"/>
			</g>
			<g>
				<rect x="106.1" y="242.7" class="st0" width="13" height="3.5"/>
				<rect x="106.1" y="172.8" class="st0" width="13" height="3.5"/>
				<rect x="108" y="176.2" class="st0" width="9.1" height="66.5"/>
			</g>
		</g>
		<g>
			<g>
				<rect x="153.6" y="163.2" class="st0" width="13" height="3.5"/>
				<rect x="153.6" y="93.3" class="st0" width="13" height="3.5"/>
				<rect x="155.6" y="96.7" class="st0" width="9.1" height="66.5"/>
			</g>
			<g>
				<rect x="153.6" y="242.7" class="st0" width="13" height="3.5"/>
				<rect x="153.6" y="172.8" class="st0" width="13" height="3.5"/>
				<rect x="155.6" y="176.2" class="st0" width="9.1" height="66.5"/>
			</g>
		</g>
	</g>
	<g>
		<g>
			<rect x="33" y="102.6" class="st2" width="16.4" height="47"/>
			<path class="st0" d="M48.4,103.6v45H34v-45L48.4,103.6 M50.4,101.6H32v49h18.4V101.6L50.4,101.6z"/>
		</g>
		<g>
			<rect x="128.4" y="102.6" class="st2" width="16.4" height="47"/>
			<path class="st0" d="M143.8,103.6v45h-14.4v-45L143.8,103.6 M145.8,101.6h-18.4v49h18.4L145.8,101.6L145.8,101.6L145.8,101.6z"/>
		</g>
		<g>
			<rect x="80.7" y="102.6" class="st2" width="16.4" height="47"/>
			<path class="st0" d="M96.1,103.6v45H81.7v-45L96.1,103.6 M98.1,101.6H79.7v49h18.4V101.6L98.1,101.6z"/>
		</g>
		<g>
			<rect x="33" y="184" class="st2" width="16.4" height="47"/>
			<path class="st0" d="M48.4,185v45H34v-45L48.4,185 M50.4,183H32v49h18.4V183L50.4,183z"/>
		</g>
		<g>
			<rect x="128.4" y="184" class="st2" width="16.4" height="47"/>
			<path class="st0" d="M143.8,185v45h-14.4v-45L143.8,185 M145.8,183h-18.4v49h18.4L145.8,183L145.8,183L145.8,183z"/>
		</g>
		<g>
			<rect x="80.7" y="184" class="st2" width="16.4" height="47"/>
			<path class="st0" d="M96.1,185v45H81.7v-45L96.1,185 M98.1,183H79.7v49h18.4V183L98.1,183z"/>
		</g>
	</g>
	<rect x="179.7" y="188.5" class="st0" width="31" height="63.8"/>
	<rect x="182.3" y="191.3" class="st2" width="11.3" height="20.3"/>
	<g>
		<g>
			<g>
				<rect x="366.7" y="163.2" class="st0" width="13" height="3.5"/>
				<rect x="366.7" y="93.3" class="st0" width="13" height="3.5"/>
				<rect x="368.6" y="96.7" class="st0" width="9.1" height="66.5"/>
			</g>
			<g>
				<rect x="366.7" y="242.7" class="st0" width="13" height="3.5"/>
				<rect x="366.7" y="172.8" class="st0" width="13" height="3.5"/>
				<rect x="368.6" y="176.2" class="st0" width="9.1" height="66.5"/>
			</g>
		</g>
		<g>
			<g>
				<rect x="319.1" y="163.2" class="st0" width="13" height="3.5"/>
				<rect x="319.1" y="93.3" class="st0" width="13" height="3.5"/>
				<rect x="321" y="96.7" class="st0" width="9.1" height="66.5"/>
			</g>
			<g>
				<rect x="319.1" y="242.7" class="st0" width="13" height="3.5"/>
				<rect x="319.1" y="172.8" class="st0" width="13" height="3.5"/>
				<rect x="321" y="176.2" class="st0" width="9.1" height="66.5"/>
			</g>
		</g>
		<g>
			<g>
				<rect x="271.4" y="163.2" class="st0" width="13" height="3.5"/>
				<rect x="271.4" y="93.3" class="st0" width="13" height="3.5"/>
				<rect x="273.4" y="96.7" class="st0" width="9.1" height="66.5"/>
			</g>
			<g>
				<rect x="271.4" y="242.7" class="st0" width="13" height="3.5"/>
				<rect x="271.4" y="172.8" class="st0" width="13" height="3.5"/>
				<rect x="273.4" y="176.2" class="st0" width="9.1" height="66.5"/>
			</g>
		</g>
		<g>
			<g>
				<rect x="223.8" y="163.2" class="st0" width="13" height="3.5"/>
				<rect x="223.8" y="93.3" class="st0" width="13" height="3.5"/>
				<rect x="225.8" y="96.7" class="st0" width="9.1" height="66.5"/>
			</g>
			<g>
				<rect x="223.8" y="242.7" class="st0" width="13" height="3.5"/>
				<rect x="223.8" y="172.8" class="st0" width="13" height="3.5"/>
				<rect x="225.8" y="176.2" class="st0" width="9.1" height="66.5"/>
			</g>
		</g>
	</g>
	<g>
		<g>
			<rect x="341.2" y="102.6" class="st2" width="16.4" height="47"/>
			<path class="st0" d="M356.6,103.6v45h-14.4v-45L356.6,103.6 M358.6,101.6h-18.4v49h18.4V101.6L358.6,101.6z"/>
		</g>
		<g>
			<rect x="245.7" y="102.6" class="st2" width="16.4" height="47"/>
			<path class="st0" d="M261.1,103.6v45h-14.4v-45L261.1,103.6 M263.1,101.6h-18.4v49h18.4V101.6L263.1,101.6z"/>
		</g>
		<g>
			<rect x="293.4" y="102.6" class="st2" width="16.4" height="47"/>
			<path class="st0" d="M308.8,103.6v45h-14.4v-45L308.8,103.6 M310.8,101.6h-18.4v49h18.4L310.8,101.6L310.8,101.6L310.8,101.6z"/>
		</g>
		<g>
			<rect x="341.2" y="184" class="st2" width="16.4" height="47"/>
			<path class="st0" d="M356.6,185v45h-14.4v-45L356.6,185 M358.6,183h-18.4v49h18.4V183L358.6,183z"/>
		</g>
		<g>
			<rect x="245.7" y="184" class="st2" width="16.4" height="47"/>
			<path class="st0" d="M261.1,185v45h-14.4v-45L261.1,185 M263.1,183h-18.4v49h18.4V183L263.1,183z"/>
		</g>
		<g>
			<rect x="293.4" y="184" class="st2" width="16.4" height="47"/>
			<path class="st0" d="M308.8,185v45h-14.4v-45L308.8,185 M310.8,183h-18.4v49h18.4L310.8,183L310.8,183L310.8,183z"/>
		</g>
	</g>
	<rect x="196.9" y="191.3" class="st2" width="11.3" height="20.3"/>
	<g>
		<path class="st3" d="M195.3,101.6L195.3,101.6c8.6,0,15.5,7,15.5,15.5v46h-31v-46C179.7,108.6,186.7,101.6,195.3,101.6
			L195.3,101.6z"/>
		<line class="st4" x1="195.3" y1="101.6" x2="195.3" y2="163.2"/>
		<line class="st4" x1="179.9" y1="122.5" x2="210.8" y2="122.5"/>
		<line class="st4" x1="179.7" y1="144.8" x2="211.2" y2="144.8"/>
	</g>
	<g>
		<path class="st0" d="M195.3,33.1L195.3,33.1c8.8,0,15.9,7.1,15.9,15.9l0,0c0,8.8-7.1,15.9-15.9,15.9h0c-8.8,0-15.9-7.1-15.9-15.9
			l0,0C179.4,40.2,186.5,33.1,195.3,33.1z"/>
		<line class="st5" x1="195.3" y1="49" x2="195.3" y2="35.6"/>
		<line class="st5" x1="195.3" y1="49" x2="207.6" y2="49"/>
	</g>
</g>
</svg>
