<?xml version="1.0" encoding="utf-8"?>
<!-- Generator: Adobe Illustrator 26.5.0, SVG Export Plug-In . SVG Version: 6.00 Build 0)  -->
<svg version="1.1" id="uuid-ad47906d-bf04-4e3b-b2e8-7f380cb1d3d2"
	 xmlns="http://www.w3.org/2000/svg" xmlns:xlink="http://www.w3.org/1999/xlink" x="0px" y="0px" viewBox="0 0 322.1 315.8"
	 style="enable-background:new 0 0 322.1 315.8;" xml:space="preserve">
<style type="text/css">
	.st0{fill:#E8629F;}
	.st1{fill:#FCBE1B;}
	.st2{fill:none;stroke:#E8629F;stroke-width:2.86;stroke-miterlimit:10;}
	.st3{fill:#261923;}
	.st4{fill-rule:evenodd;clip-rule:evenodd;fill:#261923;}
	.st5{fill:none;stroke:#E8629F;stroke-width:2.85;stroke-miterlimit:10;}
</style>
<g>
	<g>
		<polygon class="st0" points="35.5,141.5 0,162.6 71.1,162.6 		"/>
		<rect y="308.1" class="st0" width="71.1" height="7.7"/>
		<rect y="162.6" class="st1" width="71.1" height="145.5"/>
		<line class="st2" x1="35.5" y1="162.6" x2="35.5" y2="308.1"/>
		<line class="st2" x1="56.3" y1="162.6" x2="56.3" y2="308.1"/>
		<line class="st2" x1="14.7" y1="162.6" x2="14.7" y2="308.1"/>
	</g>
	<g>
		<polygon class="st0" points="127.7,141.5 92.2,162.6 163.3,162.6 		"/>
		<rect x="92.2" y="308.1" class="st0" width="71.1" height="7.7"/>
		<rect x="92.2" y="162.6" class="st1" width="71.1" height="145.5"/>
		<line class="st2" x1="127.7" y1="162.6" x2="127.7" y2="308.1"/>
		<line class="st2" x1="148.6" y1="162.6" x2="148.6" y2="308.1"/>
		<line class="st2" x1="106.9" y1="162.6" x2="106.9" y2="308.1"/>
	</g>
	<rect x="35.5" y="135.7" class="st1" width="163.5" height="5.7"/>
	<polygon class="st0" points="252.8,74.4 171.8,104.5 171.8,116.4 256.7,84.8 	"/>
	<polygon class="st1" points="322.1,135.7 293.9,112.4 235,112.4 206.8,135.7 206.8,315.8 322.1,315.8 	"/>
	<polygon class="st0" points="293.9,30.1 235,30.1 264.5,0 	"/>
	<rect x="235" y="30.1" class="st1" width="59" height="105.6"/>
	<g>
		<rect x="254.1" y="116.4" class="st3" width="20.7" height="20.7"/>
		<path class="st0" d="M273.3,117.9v17.7h-17.7v-17.7H273.3 M276.3,114.9h-23.7v23.7h23.7V114.9L276.3,114.9z"/>
	</g>
	<g>
		<rect x="280.7" y="248.4" class="st3" width="20.7" height="44.4"/>
		<path class="st0" d="M299.9,249.9v41.4h-17.7v-41.4H299.9 M302.9,246.9h-23.7v47.4h23.7V246.9L302.9,246.9z"/>
	</g>
	<path class="st4" d="M259.8,315.8h-31.6v-39c0-8.7,7.1-15.8,15.8-15.8l0,0c8.7,0,15.8,7.1,15.8,15.8L259.8,315.8L259.8,315.8z"/>
	<path class="st5" d="M228.2,315.8v-39c0-8.7,7.1-15.8,15.8-15.8l0,0c8.7,0,15.8,7.1,15.8,15.8v39"/>
</g>
</svg>
