<?xml version="1.0" encoding="utf-8"?>
<!-- Generator: Adobe Illustrator 26.5.0, SVG Export Plug-In . SVG Version: 6.00 Build 0)  -->
<svg version="1.1" id="Stade" xmlns="http://www.w3.org/2000/svg" xmlns:xlink="http://www.w3.org/1999/xlink" x="0px" y="0px"
	 viewBox="0 0 493.3 151.3" style="enable-background:new 0 0 493.3 151.3;" xml:space="preserve">
<style type="text/css">
	.st0{fill:#E8629F;}
	.st1{fill:#FCBE1B;}
	.st2{fill:#261923;}
	.st3{fill:none;stroke:#E8629F;stroke-width:2;stroke-miterlimit:10;}
</style>
<g>
	<path class="st0" d="M455.3,125.9H38l-27.3,14.3c0,15,471.9,15,471.9,0L455.3,125.9L455.3,125.9z"/>
	<path class="st1" d="M246.6,33.9H0c0,53.7,38,91.9,38,91.9h417.2c0,0,38-38.2,38-91.9L246.6,33.9L246.6,33.9z"/>
	<g>
		<polygon class="st0" points="39.1,33.9 31.2,33.9 56.2,125.9 64,125.9 		"/>
		<polygon class="st0" points="116.3,33.9 108.5,33.9 120.9,125.9 128.8,125.9 		"/>
		<rect x="185.7" y="33.9" class="st0" width="7.9" height="91.9"/>
	</g>
	<polygon class="st1" points="206.1,126.3 190.8,151 246.6,151.3 246.6,125.9 	"/>
	<polygon class="st1" points="79.9,125.9 53.9,146.9 96.9,149 109.8,125.9 	"/>
	<g>
		<rect x="116.7" y="9.7" class="st0" width="3.9" height="24.2"/>
		<rect x="105.9" class="st1" width="25.5" height="9.7"/>
	</g>
	<g>
		<rect x="13.3" y="9.7" class="st0" width="3.9" height="24.2"/>
		<rect x="13.3" class="st1" width="14.7" height="9.7"/>
	</g>
	<g>
		<polygon class="st0" points="454.2,33.9 462,33.9 437.1,125.9 429.2,125.9 		"/>
		<polygon class="st0" points="376.9,33.9 384.8,33.9 372.4,125.9 364.5,125.9 		"/>
		<rect x="299.7" y="33.9" class="st0" width="7.9" height="91.9"/>
	</g>
	<polygon class="st1" points="287.2,126.3 302.5,151 246.6,151.3 246.6,125.9 	"/>
	<polygon class="st1" points="413.4,125.9 439.4,146.9 396.4,149 383.5,125.9 	"/>
	<g>
		<rect x="372.7" y="9.7" class="st0" width="3.9" height="24.2"/>
		<rect x="361.9" class="st1" width="25.5" height="9.7"/>
	</g>
	<g>
		<rect x="476" y="9.7" class="st0" width="3.9" height="24.2"/>
		<rect x="465.2" class="st1" width="14.7" height="9.7"/>
	</g>
	<g>
		<rect x="244.7" y="9.7" class="st0" width="3.9" height="24.2"/>
		<rect x="233.9" class="st1" width="25.5" height="9.7"/>
	</g>
	<g>
		<rect x="198.8" y="87.5" class="st0" width="95.7" height="6.3"/>
		<g>
			<rect x="207.1" y="94.8" class="st2" width="79.1" height="30.5"/>
			<path class="st0" d="M285.2,95.8v28.5h-77.1V95.8H285.2 M287.2,93.8h-81.1v32.5h81.1V93.8L287.2,93.8z"/>
		</g>
		<line class="st3" x1="246.6" y1="126.3" x2="246.6" y2="95.7"/>
		<line class="st3" x1="266.2" y1="95.8" x2="266.2" y2="126.4"/>
		<line class="st3" x1="227.1" y1="95.8" x2="227.1" y2="126.4"/>
	</g>
	<rect x="207.2" y="48.4" class="st0" width="78.8" height="26.3"/>
</g>
</svg>
