<?xml version="1.0" encoding="utf-8"?>
<!-- Generator: Adobe Illustrator 26.5.0, SVG Export Plug-In . SVG Version: 6.00 Build 0)  -->
<svg version="1.1" id="Scene_musique" xmlns="http://www.w3.org/2000/svg" xmlns:xlink="http://www.w3.org/1999/xlink" x="0px"
	 y="0px" viewBox="0 0 393.7 343.6" style="enable-background:new 0 0 393.7 343.6;" xml:space="preserve">
<style type="text/css">
	.st0{fill:none;stroke:#E8629F;stroke-width:3;stroke-miterlimit:10;}
	.st1{fill:#FCBE1B;}
	.st2{fill:#E8629F;}
	.st3{fill:#261923;}
	.st4{fill-rule:evenodd;clip-rule:evenodd;fill:#FCBE1B;}
</style>
<g>
	<g>
		<g>
			<line class="st0" x1="347.5" y1="288.3" x2="347.5" y2="193.1"/>
			<line class="st0" x1="366.8" y1="191.8" x2="366.8" y2="288.3"/>
			<g>
				<line class="st0" x1="366.8" y1="212.2" x2="347.5" y2="231.4"/>
				<line class="st0" x1="347.5" y1="212.1" x2="366.8" y2="231.4"/>
			</g>
			<g>
				<line class="st0" x1="366.8" y1="193.1" x2="347.5" y2="212.3"/>
				<line class="st0" x1="347.5" y1="193.1" x2="366.8" y2="212.3"/>
			</g>
			<g>
				<line class="st0" x1="366.8" y1="231.4" x2="347.5" y2="250.6"/>
				<line class="st0" x1="347.5" y1="231.4" x2="366.8" y2="250.6"/>
			</g>
			<g>
				<line class="st0" x1="366.8" y1="250.5" x2="347.5" y2="269.7"/>
				<line class="st0" x1="347.5" y1="250.4" x2="366.8" y2="269.6"/>
			</g>
			<g>
				<line class="st0" x1="366.8" y1="269.7" x2="347.5" y2="288.9"/>
				<line class="st0" x1="347.5" y1="269.6" x2="366.8" y2="288.9"/>
			</g>
		</g>
		<g>
			<line class="st0" x1="347.5" y1="193.1" x2="347.5" y2="97.3"/>
			<line class="st0" x1="366.8" y1="97.3" x2="366.8" y2="192.5"/>
			<g>
				<line class="st0" x1="366.8" y1="116.4" x2="347.5" y2="135.6"/>
				<line class="st0" x1="347.5" y1="116.3" x2="366.8" y2="135.6"/>
			</g>
			<g>
				<line class="st0" x1="366.8" y1="97.3" x2="347.5" y2="116.5"/>
				<line class="st0" x1="347.5" y1="97.3" x2="366.8" y2="116.5"/>
			</g>
			<g>
				<line class="st0" x1="366.8" y1="135.6" x2="347.5" y2="154.8"/>
				<line class="st0" x1="347.5" y1="135.6" x2="366.8" y2="154.8"/>
			</g>
			<g>
				<line class="st0" x1="366.8" y1="154.7" x2="347.5" y2="173.9"/>
				<line class="st0" x1="347.5" y1="154.6" x2="366.8" y2="173.8"/>
			</g>
			<g>
				<line class="st0" x1="366.8" y1="173.9" x2="347.5" y2="193.1"/>
				<line class="st0" x1="347.5" y1="173.8" x2="366.8" y2="193"/>
			</g>
		</g>
		<g>
			<polyline class="st0" points="347.5,97.3 347.5,1.5 366.8,1.6 366.8,97.3 			"/>
			<g>
				<line class="st0" x1="366.8" y1="20.6" x2="347.5" y2="39.8"/>
				<line class="st0" x1="347.5" y1="20.6" x2="366.8" y2="39.8"/>
			</g>
			<g>
				<line class="st0" x1="366.8" y1="1.6" x2="347.5" y2="20.8"/>
				<line class="st0" x1="366.8" y1="20.7" x2="347.5" y2="1.5"/>
			</g>
			<g>
				<line class="st0" x1="366.8" y1="39.8" x2="347.5" y2="59"/>
				<line class="st0" x1="347.5" y1="39.8" x2="366.8" y2="59"/>
			</g>
			<g>
				<line class="st0" x1="366.8" y1="58.9" x2="347.5" y2="78.1"/>
				<line class="st0" x1="347.5" y1="58.8" x2="366.8" y2="78.1"/>
			</g>
			<g>
				<line class="st0" x1="366.8" y1="78.1" x2="347.5" y2="97.3"/>
				<line class="st0" x1="347.5" y1="78.1" x2="366.8" y2="97.3"/>
			</g>
		</g>
	</g>
	<g>
		<g>
			<line class="st0" x1="346" y1="84.7" x2="247" y2="84.7"/>
			<line class="st0" x1="245.7" y1="64.7" x2="346" y2="64.7"/>
			<g>
				<line class="st0" x1="266.9" y1="64.7" x2="286.8" y2="84.7"/>
				<line class="st0" x1="266.8" y1="84.7" x2="286.8" y2="64.7"/>
			</g>
			<g>
				<line class="st0" x1="247.1" y1="64.7" x2="267" y2="84.7"/>
				<line class="st0" x1="247" y1="84.7" x2="267" y2="64.7"/>
			</g>
			<g>
				<line class="st0" x1="286.8" y1="64.7" x2="306.8" y2="84.7"/>
				<line class="st0" x1="286.8" y1="84.7" x2="306.8" y2="64.7"/>
			</g>
			<g>
				<line class="st0" x1="306.7" y1="64.7" x2="326.6" y2="84.7"/>
				<line class="st0" x1="306.6" y1="84.7" x2="326.6" y2="64.7"/>
			</g>
			<g>
				<line class="st0" x1="326.6" y1="64.7" x2="346.6" y2="84.7"/>
				<line class="st0" x1="326.6" y1="84.7" x2="346.6" y2="64.7"/>
			</g>
		</g>
		<g>
			<line class="st0" x1="247" y1="84.7" x2="147.4" y2="84.7"/>
			<line class="st0" x1="147.5" y1="64.7" x2="246.4" y2="64.7"/>
			<g>
				<line class="st0" x1="167.3" y1="64.7" x2="187.3" y2="84.7"/>
				<line class="st0" x1="167.2" y1="84.7" x2="187.2" y2="64.7"/>
			</g>
			<g>
				<line class="st0" x1="147.5" y1="64.7" x2="167.4" y2="84.7"/>
				<line class="st0" x1="147.4" y1="84.7" x2="167.4" y2="64.7"/>
			</g>
			<g>
				<line class="st0" x1="187.3" y1="64.7" x2="207.2" y2="84.7"/>
				<line class="st0" x1="187.2" y1="84.7" x2="207.2" y2="64.7"/>
			</g>
			<g>
				<line class="st0" x1="207.1" y1="64.7" x2="227.1" y2="84.7"/>
				<line class="st0" x1="207" y1="84.7" x2="227" y2="64.7"/>
			</g>
			<g>
				<line class="st0" x1="227.1" y1="64.7" x2="247" y2="84.7"/>
				<line class="st0" x1="227" y1="84.7" x2="247" y2="64.7"/>
			</g>
		</g>
		<g>
			<polyline class="st0" points="147.5,84.7 47.9,84.7 47.9,64.7 147.5,64.7 			"/>
			<g>
				<line class="st0" x1="67.7" y1="64.7" x2="87.7" y2="84.7"/>
				<line class="st0" x1="67.7" y1="84.7" x2="87.7" y2="64.7"/>
			</g>
			<g>
				<line class="st0" x1="47.9" y1="64.7" x2="67.9" y2="84.7"/>
				<line class="st0" x1="67.9" y1="64.7" x2="47.9" y2="84.7"/>
			</g>
			<g>
				<line class="st0" x1="87.7" y1="64.7" x2="107.7" y2="84.7"/>
				<line class="st0" x1="87.7" y1="84.7" x2="107.7" y2="64.7"/>
			</g>
			<g>
				<line class="st0" x1="107.5" y1="64.7" x2="127.5" y2="84.7"/>
				<line class="st0" x1="107.5" y1="84.7" x2="127.5" y2="64.7"/>
			</g>
			<g>
				<line class="st0" x1="127.5" y1="64.7" x2="147.5" y2="84.7"/>
				<line class="st0" x1="127.5" y1="84.7" x2="147.4" y2="64.7"/>
			</g>
		</g>
	</g>
	<g>
		<g>
			<line class="st0" x1="27.8" y1="288.3" x2="27.8" y2="193.1"/>
			<line class="st0" x1="47.1" y1="191.8" x2="47.1" y2="288.3"/>
			<g>
				<line class="st0" x1="47.1" y1="212.2" x2="27.8" y2="231.4"/>
				<line class="st0" x1="27.8" y1="212.1" x2="47.1" y2="231.4"/>
			</g>
			<g>
				<line class="st0" x1="47.1" y1="193.1" x2="27.8" y2="212.3"/>
				<line class="st0" x1="27.8" y1="193.1" x2="47.1" y2="212.3"/>
			</g>
			<g>
				<line class="st0" x1="47.1" y1="231.4" x2="27.8" y2="250.6"/>
				<line class="st0" x1="27.8" y1="231.4" x2="47.1" y2="250.6"/>
			</g>
			<g>
				<line class="st0" x1="47.1" y1="250.5" x2="27.8" y2="269.7"/>
				<line class="st0" x1="27.8" y1="250.4" x2="47.1" y2="269.6"/>
			</g>
			<g>
				<line class="st0" x1="47.1" y1="269.7" x2="27.8" y2="288.9"/>
				<line class="st0" x1="27.8" y1="269.6" x2="47.1" y2="288.9"/>
			</g>
		</g>
		<g>
			<line class="st0" x1="27.8" y1="193.1" x2="27.8" y2="97.3"/>
			<line class="st0" x1="47.1" y1="97.3" x2="47.1" y2="192.5"/>
			<g>
				<line class="st0" x1="47.1" y1="116.4" x2="27.8" y2="135.6"/>
				<line class="st0" x1="27.8" y1="116.3" x2="47.1" y2="135.6"/>
			</g>
			<g>
				<line class="st0" x1="47.1" y1="97.3" x2="27.8" y2="116.5"/>
				<line class="st0" x1="27.8" y1="97.3" x2="47.1" y2="116.5"/>
			</g>
			<g>
				<line class="st0" x1="47.1" y1="135.6" x2="27.8" y2="154.8"/>
				<line class="st0" x1="27.8" y1="135.6" x2="47.1" y2="154.8"/>
			</g>
			<g>
				<line class="st0" x1="47.1" y1="154.7" x2="27.8" y2="173.9"/>
				<line class="st0" x1="27.8" y1="154.6" x2="47.1" y2="173.8"/>
			</g>
			<g>
				<line class="st0" x1="47.1" y1="173.9" x2="27.8" y2="193.1"/>
				<line class="st0" x1="27.8" y1="173.8" x2="47.1" y2="193"/>
			</g>
		</g>
		<g>
			<polyline class="st0" points="27.8,97.3 27.8,1.5 47.1,1.6 47.1,97.3 			"/>
			<g>
				<line class="st0" x1="47.1" y1="20.6" x2="27.8" y2="39.8"/>
				<line class="st0" x1="27.8" y1="20.6" x2="47.1" y2="39.8"/>
			</g>
			<g>
				<line class="st0" x1="47.1" y1="1.6" x2="27.8" y2="20.8"/>
				<line class="st0" x1="47.1" y1="20.7" x2="27.8" y2="1.5"/>
			</g>
			<g>
				<line class="st0" x1="47.1" y1="39.8" x2="27.8" y2="59"/>
				<line class="st0" x1="27.8" y1="39.8" x2="47.1" y2="59"/>
			</g>
			<g>
				<line class="st0" x1="47.1" y1="58.9" x2="27.8" y2="78.1"/>
				<line class="st0" x1="27.8" y1="58.8" x2="47.1" y2="78.1"/>
			</g>
			<g>
				<line class="st0" x1="47.1" y1="78.1" x2="27.8" y2="97.3"/>
				<line class="st0" x1="27.8" y1="78.1" x2="47.1" y2="97.3"/>
			</g>
		</g>
	</g>
	<rect x="1.5" y="287.6" class="st1" width="391.5" height="27.4"/>
	<rect x="47.9" y="86.7" class="st1" width="298.7" height="27.4"/>
	<g>
		<path class="st2" d="M197.3,120.7L197.3,120.7c3.3,0,6,2.7,6,6v9.8h-12v-9.8C191.2,123.4,193.9,120.7,197.3,120.7L197.3,120.7z"/>
		<rect x="196.2" y="113.6" class="st2" width="2.2" height="7.1"/>
		<g>
			<path class="st2" d="M54.2,122.1L54.2,122.1c2.7-1.9,6.5-1.2,8.4,1.5l5.6,8.1l-9.9,6.9l-5.6-8.1C50.8,127.8,51.4,124,54.2,122.1
				L54.2,122.1z"/>
			<rect x="57.6" y="113.6" class="st2" width="2.2" height="8.8"/>
		</g>
		<g>
			<path class="st2" d="M336.2,138.6l-9.9-6.9l5.6-8.1c1.9-2.7,5.7-3.4,8.4-1.5l0,0c2.7,1.9,3.4,5.7,1.5,8.4L336.2,138.6
				L336.2,138.6L336.2,138.6z"/>
			<rect x="334.7" y="113.6" class="st2" width="2.2" height="8.4"/>
		</g>
		<g>
			<path class="st2" d="M263.7,138l-11.5-3.4l2.8-9.4c0.9-3.2,4.3-5,7.5-4.1l0,0c3.2,0.9,5,4.3,4.1,7.5L263.7,138L263.7,138
				L263.7,138z"/>
			<rect x="259.2" y="113.6" class="st2" width="2.2" height="8.4"/>
		</g>
		<g>
			<path class="st2" d="M131.9,121.1L131.9,121.1c3.2-0.9,6.5,0.9,7.5,4.1l2.8,9.4l-11.5,3.4l-2.8-9.4
				C126.9,125.4,128.8,122,131.9,121.1L131.9,121.1z"/>
			<rect x="133.2" y="113.6" class="st2" width="2.2" height="8.4"/>
		</g>
	</g>
	<path class="st2" d="M374.9,37.4C256.5-10.4,138-10.4,19.6,37.4V48h355.3V37.4z"/>
	<g>
		<g>
			<rect x="360.8" y="109.4" class="st1" width="28.2" height="47"/>
			<g>
				<circle class="st3" cx="374.9" cy="119.9" r="4.6"/>
				<path class="st2" d="M374.9,116.9c1.7,0,3.1,1.4,3.1,3.1s-1.4,3.1-3.1,3.1s-3.1-1.4-3.1-3.1S373.2,116.9,374.9,116.9
					 M374.9,113.9c-3.3,0-6.1,2.7-6.1,6.1s2.7,6.1,6.1,6.1s6.1-2.7,6.1-6.1S378.2,113.9,374.9,113.9L374.9,113.9z"/>
			</g>
			<g>
				<circle class="st3" cx="374.9" cy="143.7" r="9.3"/>
				<path class="st2" d="M374.9,135.9c4.3,0,7.8,3.5,7.8,7.8s-3.5,7.8-7.8,7.8s-7.8-3.5-7.8-7.8S370.6,135.9,374.9,135.9
					 M374.9,132.9c-6,0-10.8,4.8-10.8,10.8s4.8,10.8,10.8,10.8s10.8-4.8,10.8-10.8S380.8,132.9,374.9,132.9L374.9,132.9z"/>
			</g>
		</g>
		<g>
			<rect x="360.8" y="169.6" class="st1" width="28.2" height="47"/>
			<g>
				<circle class="st3" cx="374.9" cy="180.1" r="4.6"/>
				<path class="st2" d="M374.9,177c1.7,0,3.1,1.4,3.1,3.1s-1.4,3.1-3.1,3.1s-3.1-1.4-3.1-3.1S373.2,177,374.9,177 M374.9,174
					c-3.3,0-6.1,2.7-6.1,6.1s2.7,6.1,6.1,6.1s6.1-2.7,6.1-6.1S378.2,174,374.9,174L374.9,174z"/>
			</g>
			<g>
				<circle class="st3" cx="374.9" cy="203.9" r="9.3"/>
				<path class="st2" d="M374.9,196.1c4.3,0,7.8,3.5,7.8,7.8s-3.5,7.8-7.8,7.8s-7.8-3.5-7.8-7.8S370.6,196.1,374.9,196.1
					 M374.9,193.1c-6,0-10.8,4.8-10.8,10.8s4.8,10.8,10.8,10.8s10.8-4.8,10.8-10.8S380.8,193.1,374.9,193.1L374.9,193.1z"/>
			</g>
		</g>
		<g>
			<rect x="360.8" y="230" class="st1" width="28.2" height="47"/>
			<g>
				<circle class="st3" cx="374.9" cy="240.5" r="4.6"/>
				<path class="st2" d="M374.9,237.4c1.7,0,3.1,1.4,3.1,3.1s-1.4,3.1-3.1,3.1s-3.1-1.4-3.1-3.1S373.2,237.4,374.9,237.4
					 M374.9,234.4c-3.3,0-6.1,2.7-6.1,6.1s2.7,6.1,6.1,6.1s6.1-2.7,6.1-6.1S378.2,234.4,374.9,234.4L374.9,234.4z"/>
			</g>
			<g>
				<circle class="st3" cx="374.9" cy="264.3" r="9.3"/>
				<path class="st2" d="M374.9,256.5c4.3,0,7.8,3.5,7.8,7.8s-3.5,7.8-7.8,7.8s-7.8-3.5-7.8-7.8S370.6,256.5,374.9,256.5
					 M374.9,253.5c-6,0-10.8,4.8-10.8,10.8s4.8,10.8,10.8,10.8s10.8-4.8,10.8-10.8S380.8,253.5,374.9,253.5L374.9,253.5z"/>
			</g>
		</g>
	</g>
	<g>
		<g>
			<rect x="5.5" y="109.4" class="st1" width="28.2" height="47"/>
			<g>
				<circle class="st3" cx="19.6" cy="119.9" r="4.6"/>
				<path class="st2" d="M19.6,116.9c1.7,0,3.1,1.4,3.1,3.1s-1.4,3.1-3.1,3.1s-3.1-1.4-3.1-3.1S17.9,116.9,19.6,116.9 M19.6,113.9
					c-3.4,0-6.1,2.7-6.1,6.1s2.7,6.1,6.1,6.1s6.1-2.7,6.1-6.1S23,113.9,19.6,113.9L19.6,113.9z"/>
			</g>
			<g>
				<circle class="st3" cx="19.6" cy="143.7" r="9.3"/>
				<path class="st2" d="M19.6,135.9c4.3,0,7.8,3.5,7.8,7.8s-3.5,7.8-7.8,7.8s-7.8-3.5-7.8-7.8S15.3,135.9,19.6,135.9 M19.6,132.9
					c-5.9,0-10.8,4.8-10.8,10.8s4.8,10.8,10.8,10.8s10.8-4.8,10.8-10.8S25.6,132.9,19.6,132.9L19.6,132.9z"/>
			</g>
		</g>
		<g>
			<rect x="5.5" y="169.6" class="st1" width="28.2" height="47"/>
			<g>
				<circle class="st3" cx="19.6" cy="180.1" r="4.6"/>
				<path class="st2" d="M19.6,177c1.7,0,3.1,1.4,3.1,3.1s-1.4,3.1-3.1,3.1s-3.1-1.4-3.1-3.1S17.9,177,19.6,177 M19.6,174
					c-3.4,0-6.1,2.7-6.1,6.1s2.7,6.1,6.1,6.1s6.1-2.7,6.1-6.1S23,174,19.6,174L19.6,174z"/>
			</g>
			<g>
				<circle class="st3" cx="19.6" cy="203.9" r="9.3"/>
				<path class="st2" d="M19.6,196.1c4.3,0,7.8,3.5,7.8,7.8s-3.5,7.8-7.8,7.8s-7.8-3.5-7.8-7.8S15.3,196.1,19.6,196.1 M19.6,193.1
					c-5.9,0-10.8,4.8-10.8,10.8s4.8,10.8,10.8,10.8s10.8-4.8,10.8-10.8S25.6,193.1,19.6,193.1L19.6,193.1z"/>
			</g>
		</g>
		<g>
			<rect x="5.5" y="230" class="st1" width="28.2" height="47"/>
			<g>
				<circle class="st3" cx="19.6" cy="240.5" r="4.6"/>
				<path class="st2" d="M19.6,237.4c1.7,0,3.1,1.4,3.1,3.1s-1.4,3.1-3.1,3.1s-3.1-1.4-3.1-3.1S17.9,237.4,19.6,237.4 M19.6,234.4
					c-3.4,0-6.1,2.7-6.1,6.1s2.7,6.1,6.1,6.1s6.1-2.7,6.1-6.1S23,234.4,19.6,234.4L19.6,234.4z"/>
			</g>
			<g>
				<circle class="st3" cx="19.6" cy="264.3" r="9.3"/>
				<path class="st2" d="M19.6,256.5c4.3,0,7.8,3.5,7.8,7.8s-3.5,7.8-7.8,7.8s-7.8-3.5-7.8-7.8S15.3,256.5,19.6,256.5 M19.6,253.5
					c-5.9,0-10.8,4.8-10.8,10.8S13.7,275,19.6,275s10.8-4.8,10.8-10.8S25.6,253.5,19.6,253.5L19.6,253.5z"/>
			</g>
		</g>
	</g>
	<path class="st4" d="M67.8,40.2c0-16.1,57.8-29.1,129.1-29.1S326,24.2,326,40.2"/>
	<rect x="3.2" y="48" class="st1" width="387.4" height="14.7"/>
	<g>
		<path class="st2" d="M58.3,262.9l9.9,6.9l-5.6,8.1c-1.9,2.7-5.7,3.4-8.4,1.5l0,0c-2.7-1.9-3.4-5.7-1.5-8.4L58.3,262.9L58.3,262.9
			L58.3,262.9z"/>
		<rect x="57.6" y="279" class="st2" width="2.2" height="8.8"/>
	</g>
	<g>
		<path class="st2" d="M340.3,279.3L340.3,279.3c-2.7,1.9-6.5,1.2-8.4-1.5l-5.6-8.1l9.9-6.9l5.6,8.1
			C343.7,273.6,343.1,277.4,340.3,279.3L340.3,279.3z"/>
		<rect x="334.7" y="279.5" class="st2" width="2.2" height="8.4"/>
	</g>
	<rect x="102.9" y="314.6" class="st1" width="187.8" height="7.6"/>
	<rect x="176.7" y="277" class="st2" width="40.4" height="11.2"/>
	<rect x="89.8" y="277" class="st2" width="40.4" height="11.2"/>
	<rect x="263.5" y="277" class="st2" width="40.4" height="11.2"/>
	<g>
		<g>
			<path class="st0" d="M15.2,310.8h28.8c7.6,0,13.7,6.1,13.7,13.7v17.6H1.5v-17.6C1.5,317,7.6,310.8,15.2,310.8L15.2,310.8z"/>
			<line class="st0" x1="15.2" y1="310.8" x2="15.2" y2="342.1"/>
			<line class="st0" x1="44.8" y1="310.8" x2="44.8" y2="342.1"/>
			<line class="st0" x1="30" y1="310.8" x2="30" y2="342.1"/>
		</g>
		<g>
			<path class="st0" d="M110.8,310.8H82.1c-7.6,0-13.7,6.1-13.7,13.7v17.6h56.1v-17.6C124.5,317,118.4,310.8,110.8,310.8
				L110.8,310.8z"/>
			<line class="st0" x1="82.1" y1="310.8" x2="82.1" y2="342.1"/>
			<line class="st0" x1="111.7" y1="310.8" x2="111.7" y2="342.1"/>
			<line class="st0" x1="96.9" y1="310.8" x2="96.9" y2="342.1"/>
		</g>
		<g>
			<path class="st0" d="M177.8,310.8H149c-7.6,0-13.7,6.1-13.7,13.7v17.6h56.1v-17.6C191.4,317,185.3,310.8,177.8,310.8L177.8,310.8
				z"/>
			<line class="st0" x1="149" y1="310.8" x2="149" y2="342.1"/>
			<line class="st0" x1="178.6" y1="310.8" x2="178.6" y2="342.1"/>
			<line class="st0" x1="163.8" y1="310.8" x2="163.8" y2="342.1"/>
		</g>
		<g>
			<path class="st0" d="M244.7,310.8h-28.8c-7.6,0-13.7,6.1-13.7,13.7v17.6h56.1v-17.6C258.4,317,252.2,310.8,244.7,310.8
				L244.7,310.8z"/>
			<line class="st0" x1="215.9" y1="310.8" x2="215.9" y2="342.1"/>
			<line class="st0" x1="245.5" y1="310.8" x2="245.5" y2="342.1"/>
			<line class="st0" x1="230.7" y1="310.8" x2="230.7" y2="342.1"/>
		</g>
		<g>
			<path class="st0" d="M311.6,310.8h-28.8c-7.6,0-13.7,6.1-13.7,13.7v17.6h56.1v-17.6C325.3,317,319.1,310.8,311.6,310.8
				L311.6,310.8z"/>
			<line class="st0" x1="282.8" y1="310.8" x2="282.8" y2="342.1"/>
			<line class="st0" x1="312.4" y1="310.8" x2="312.4" y2="342.1"/>
			<line class="st0" x1="297.6" y1="310.8" x2="297.6" y2="342.1"/>
		</g>
		<g>
			<path class="st0" d="M349.8,310.8h28.8c7.6,0,13.7,6.1,13.7,13.7v17.6h-56.1v-17.6C336.1,317,342.2,310.8,349.8,310.8
				L349.8,310.8z"/>
			<line class="st0" x1="349.8" y1="310.8" x2="349.8" y2="342.1"/>
			<line class="st0" x1="379.3" y1="310.8" x2="379.3" y2="342.1"/>
			<line class="st0" x1="364.5" y1="310.8" x2="364.5" y2="342.1"/>
		</g>
	</g>
</g>
</svg>
