<?xml version="1.0" encoding="utf-8"?>
<!-- Generator: Adobe Illustrator 26.5.0, SVG Export Plug-In . SVG Version: 6.00 Build 0)  -->
<svg version="1.1" id="Statue_Liberté_-_copie" xmlns="http://www.w3.org/2000/svg" xmlns:xlink="http://www.w3.org/1999/xlink"
	 x="0px" y="0px" viewBox="0 0 419.4 572.5" style="enable-background:new 0 0 419.4 572.5;" xml:space="preserve">
<style type="text/css">
	.st0{fill:#E8629F;}
	.st1{fill-rule:evenodd;clip-rule:evenodd;fill:#FCBE1B;}
</style>
<g>
	<polygon class="st0" points="320.8,489.8 320.8,493.5 307.7,493.5 307.7,477.3 310.9,477.3 310.9,471.4 304.3,471.4 304.3,466.9 
		171.4,466.9 171.4,471.4 167.1,471.4 167.1,477.3 170,477.3 170,493.5 155.5,493.5 155.5,489.8 146.1,489.8 146.1,493.5 
		146.1,507.1 153.4,507.1 153.4,557.4 146.1,557.4 146.1,572.5 330.2,572.5 330.2,557.4 324.2,557.4 324.2,507.1 330.2,507.1 
		330.2,493.5 330.2,489.8 	"/>
	<path class="st1" d="M288.4,466.9l9.9-41.4v-35.1l5.4-90.1v-38.7l-1.8-5.2l1.8-4.4l-4.6-22l-3.1-15.2V195l-2.6-2.4l-0.8-16l5.6-16
		l5.4-10.8l1.8-2l8,8l11.2,10.8l29.2,17.2l11.2-2.4l2.4-5.2v-2l3.2-18v-12.8l-2-31.6l-0.4-9.2l0.4-4l-0.8-4h2.8l5.2-8.4v-8l-2-2
		l-0.4-3.6h-3.2v-4.8h-3.6v-6h-6l2.8-2.4l19.6-4.8l10.8-2h10l6,2l4.8,3.6l4.4-2.4c0,0,3.6-43.2-22.8-55.7c0,0-3.2,2-2.4,8.8
		c0,0-8.4,15.2-58.9,34.8l-2.3-1.1L328,45l0.3,1.8l-10.1,5.4c0,0-2.2,9.6,5.9,17.1c0,0,9,0.6,16.5-2.6l5.7,5.3l-2.7,2.8l6.8,18.8
		c0,0,3.6,30.6,0.4,40.5l-3.1,12l-13.7-13.8l2.6-2.6l-27.9-30.9l-18.9-7.8l-13.8-5.1l-5.3-1.1c0,0,1.6-8.1,9.3-4.1
		s10.5-1.9,10.5-1.9s1.4-2.6-1.4-5.6l2.9-3.8l-2.6-2.6l2.2-3.8l-1.8-5.1c0,0,3.8,0,5.7-4.5c0,0-3-5.3-3-5.9s0.1-6.9,0.1-6.9
		s-1.9-1.2-4.1-5.7s-3.8-5.9-3.8-5.9s3.8-7.8-6-10.4s-39-9.2-46.1,19.8c0,0-4.1,10.7,7.4,34.5c0,0,1.2,4.8-2.2,11L219,89.7
		l-24.4-1.4l-16,7.2l-8.6,2.2v2.2l-3.6,1.6l-35.4,2.8l-19-3.2l-35-1.6L45,91.7c0,0-14.6-7.6-16.8-12L1,72.9l-1,2.2l12.2,6l6.2,4
		l-3,4v2.4l-4.2,2.6l1,2.8l3.2-0.4l3,2.8l8.4,4.4l3.4-2.2l6.2,4.2h8.4l18.6,5.8c0,0,23.2,9,24,9.4s23.2,7.4,23.2,7.4l11.6,1.6
		l7.6-1.4l31,0.4l13.2-0.6l9-1.4l3.8,6.2l4-0.2l3.4-1.2l5.6,3.6l2.4,3.4c0,0,4.8,19.2,0.2,59.7l-4.8,22.6c0,0-3,14.4-2.8,27.6
		l10.2,0.4l-0.2,4.8l1.6,1.2l-0.8,4.6l-3.3,6l-6.9,34.5l-3,79.3l-1.6,65.4l0.4,22L288.4,466.9L288.4,466.9z"/>
</g>
</svg>
