<?xml version="1.0" encoding="utf-8"?>
<!-- Generator: Adobe Illustrator 26.5.0, SVG Export Plug-In . SVG Version: 6.00 Build 0)  -->
<svg version="1.1" id="uuid-9a79170d-8e39-4b28-89a8-64337bafc978"
	 xmlns="http://www.w3.org/2000/svg" xmlns:xlink="http://www.w3.org/1999/xlink" x="0px" y="0px" viewBox="0 0 154.8 741.8"
	 style="enable-background:new 0 0 154.8 741.8;" xml:space="preserve">
<style type="text/css">
	.st0{fill:#E7629E;}
	.st1{fill:#FCBE1B;}
</style>
<g>
	<rect x="14.6" y="699.5" class="st0" width="126" height="42.3"/>
	<rect x="67.6" y="239.3" class="st0" width="20" height="460.2"/>
	<polygon class="st0" points="77.6,190.4 6.4,190.4 27.1,226.8 77.6,226.8 128.1,226.8 148.8,190.4 	"/>
	<rect x="20.4" y="226.8" class="st1" width="114.1" height="12.5"/>
	<rect x="11.5" y="202.4" class="st1" width="132" height="12.5"/>
	<polygon class="st1" points="154.8,177.9 0.1,177.9 0,190.4 154.7,190.4 	"/>
	<polygon class="st0" points="95.3,131.6 87.9,131.6 87.9,128.1 77.6,128.1 77.5,128.1 67.1,128.1 67.1,131.6 59.7,131.6 
		13.4,177.9 77.5,177.9 77.6,177.9 141.6,177.9 	"/>
	<path class="st1" d="M78.4,0.8l4.2,126.4c0,0.5-0.4,0.9-0.8,0.9h-8.3c-0.5,0-0.9-0.4-0.8-0.9L76.7,0.8C76.8-0.3,78.4-0.3,78.4,0.8
		L78.4,0.8z"/>
	<rect x="67.1" y="128.1" class="st1" width="20.8" height="5.1"/>
	<path class="st1" d="M28.6,699.5c0,0,45.1-338.5,9.9-460.2H52c0.4-0.4,35,68.1-8.4,460.2H28.6L28.6,699.5z"/>
	<path class="st1" d="M126.6,699.5c0,0-45.1-338.5-9.9-460.2h-13.5c-0.4-0.4-35,68.1,8.4,460.2H126.6L126.6,699.5z"/>
</g>
</svg>
