<?xml version="1.0" encoding="utf-8"?>
<!-- Generator: Adobe Illustrator 26.5.0, SVG Export Plug-In . SVG Version: 6.00 Build 0)  -->
<svg version="1.1" id="uuid-66571ac7-c033-4885-92cd-06a4fcdbfa60"
	 xmlns="http://www.w3.org/2000/svg" xmlns:xlink="http://www.w3.org/1999/xlink" x="0px" y="0px" viewBox="0 0 387 232.3"
	 style="enable-background:new 0 0 387 232.3;" xml:space="preserve">
<style type="text/css">
	.st0{fill:#FCBE1B;}
	.st1{fill:#E6629F;}
	.st2{fill:#261923;}
	.st3{fill-rule:evenodd;clip-rule:evenodd;fill:#261923;stroke:#E6629F;stroke-width:5.84;stroke-miterlimit:10;}
	.st4{fill-rule:evenodd;clip-rule:evenodd;fill:#261923;stroke:#E6629F;stroke-width:4.13;stroke-miterlimit:10;}
	.st5{fill:none;stroke:#E6629F;stroke-width:5.84;stroke-miterlimit:10;}
	.st6{fill-rule:evenodd;clip-rule:evenodd;fill:#E6629F;stroke:#E6629F;stroke-width:4.13;stroke-miterlimit:10;}
	.st7{fill:none;stroke:#E6629F;stroke-width:3.35;stroke-miterlimit:10;}
	.st8{fill:none;stroke:#E6629F;stroke-width:6;stroke-miterlimit:10;}
	.st9{fill:#261923;stroke:#E6629F;stroke-width:6;stroke-miterlimit:10;}
</style>
<g>
	<rect x="3" y="83.1" class="st0" width="267.4" height="149.2"/>
	<rect x="270.4" y="96" class="st0" width="116.6" height="136.3"/>
	<rect x="3" y="18.2" class="st1" width="267.4" height="64.9"/>
	<rect x="270.4" y="30.3" class="st1" width="116.6" height="65.7"/>
	<path class="st2" d="M154.5,232.3h-35.6v-51.8c0-9.8,8-17.8,17.8-17.8l0,0c9.8,0,17.8,8,17.8,17.8L154.5,232.3L154.5,232.3
		L154.5,232.3z"/>
	<g>
		<polygon class="st3" points="55.4,93.1 87.1,93.1 118.9,93.1 118.9,123 87.1,123 55.4,123 23.6,123 23.6,93.1 		"/>
		<polygon class="st3" points="186.3,93.1 218.1,93.1 249.9,93.1 249.9,123 218.1,123 186.3,123 154.5,123 154.5,93.1 		"/>
		<polygon class="st4" points="39.5,173.1 55.4,173.1 71.2,173.1 71.2,203 55.4,203 39.5,203 23.6,203 23.6,173.1 		"/>
		<polygon class="st4" points="218.1,173.1 234,173.1 249.9,173.1 249.9,203 234,203 218.1,203 202.2,203 202.2,173.1 		"/>
		<line class="st5" x1="71.2" y1="93.1" x2="71.2" y2="123"/>
		<line class="st5" x1="202.2" y1="93.1" x2="202.2" y2="123"/>
		<path class="st6" d="M71.2,173.1c0-8.8-10.7-16-23.8-16s-23.8,7.2-23.8,16"/>
		<path class="st6" d="M249.9,173.1c0-8.8-10.7-16-23.8-16s-23.8,7.2-23.8,16"/>
	</g>
	<rect x="2.9" y="8.8" class="st0" width="19.8" height="50"/>
	<rect class="st1" width="25.6" height="8.8"/>
	<path class="st7" d="M154.5,232.3v-51.8c0-9.8-8-17.8-17.8-17.8l0,0c-9.8,0-17.8,8-17.8,17.8v51.8"/>
	<circle class="st0" cx="136.7" cy="185.7" r="2.3"/>
	<polyline class="st8" points="270.4,232 270.4,142.5 327,109.8 383.6,142.5 383.6,232 	"/>
	<rect x="287.5" y="215.5" class="st1" width="79" height="16.5"/>
	<rect x="287.5" y="195.3" class="st1" width="79" height="16.5"/>
	<rect x="287.5" y="175.1" class="st1" width="79" height="16.5"/>
	<rect x="310.6" y="131.8" class="st9" width="32.9" height="27.2"/>
	<line class="st5" x1="270.4" y1="83.1" x2="270.4" y2="140.1"/>
</g>
</svg>
