<?xml version="1.0" encoding="utf-8"?>
<!-- Generator: Adobe Illustrator 26.5.0, SVG Export Plug-In . SVG Version: 6.00 Build 0)  -->
<svg version="1.1" id="Supermarché" xmlns="http://www.w3.org/2000/svg" xmlns:xlink="http://www.w3.org/1999/xlink" x="0px"
	 y="0px" viewBox="0 0 504.3 230.4" style="enable-background:new 0 0 504.3 230.4;" xml:space="preserve">
<style type="text/css">
	.st0{fill:#FCBE1B;}
	.st1{fill:#E8629F;}
	.st2{fill:#261923;}
	.st3{fill:none;stroke:#E8629F;stroke-width:2;stroke-miterlimit:10;}
	.st4{fill:#E6629F;}
</style>
<g>
	<rect x="25.8" y="100.1" class="st0" width="452.8" height="108.3"/>
	<rect x="131.9" y="11.2" class="st0" width="240.6" height="197.2"/>
	<rect x="16.2" y="208.4" class="st1" width="471.8" height="11.2"/>
	<rect y="219.1" class="st1" width="504.3" height="11.2"/>
	<rect x="16.2" y="88.8" class="st1" width="115.6" height="11.2"/>
	<rect x="372.4" y="88.8" class="st1" width="115.6" height="11.2"/>
	<rect x="124.1" class="st1" width="256.2" height="11.2"/>
	<path class="st1" d="M365.5,29.9v52.3H138.8V29.9H365.5 M368.5,26.9H135.8v58.3h232.7V26.9L368.5,26.9z"/>
	<g>
		<rect x="47.9" y="123.8" class="st2" width="75.2" height="75.2"/>
		<path class="st1" d="M122.1,124.8V198H48.9v-73.2H122.1 M124.1,122.8H46.9V200h77.2V122.8L124.1,122.8z"/>
	</g>
	<g>
		<rect x="381.2" y="123.8" class="st2" width="75.2" height="75.2"/>
		<path class="st1" d="M455.4,124.8V198h-73.2v-73.2H455.4 M457.4,122.8h-77.2V200h77.2V122.8L457.4,122.8z"/>
	</g>
	<g>
		<rect x="132.9" y="118.7" class="st2" width="90.6" height="80.2"/>
		<path class="st1" d="M222.5,119.7V198h-88.6v-78.2H222.5 M224.5,117.7h-92.6V200h92.6V117.7L224.5,117.7z"/>
	</g>
	<g>
		<rect x="280.8" y="118.7" class="st2" width="90.6" height="80.2"/>
		<path class="st1" d="M370.4,119.7V198h-88.6v-78.2H370.4 M372.4,117.7h-92.6V200h92.6V117.7L372.4,117.7z"/>
	</g>
	<g>
		<rect x="225.5" y="118.7" class="st2" width="53.3" height="88.7"/>
		<path class="st1" d="M277.8,119.7v86.7h-51.3v-86.7H277.8 M279.8,117.7h-55.3v90.7h55.3V117.7L279.8,117.7z"/>
	</g>
	<rect x="131.9" y="103.1" class="st1" width="240.6" height="11.2"/>
	<line class="st3" x1="279.8" y1="163.1" x2="224.5" y2="163.1"/>
	<line class="st3" x1="252.2" y1="208.4" x2="252.2" y2="117.7"/>
	<g>
		<rect x="132.9" y="115.3" class="st0" width="238.6" height="35"/>
		<path class="st4" d="M370.4,116.3v33H133.9v-33H370.4 M372.4,114.3H131.9v37h240.5V114.3L372.4,114.3z"/>
	</g>
	<g>
		<rect x="140.1" y="114.3" class="st1" width="7.6" height="37"/>
		<rect x="159.8" y="114.3" class="st1" width="7.6" height="37"/>
		<rect x="179.5" y="114.3" class="st1" width="7.6" height="37"/>
		<rect x="199.2" y="114.3" class="st1" width="7.6" height="37"/>
		<rect x="218.8" y="114.3" class="st1" width="7.6" height="37"/>
		<rect x="238.5" y="114.3" class="st1" width="7.6" height="37"/>
		<rect x="258.2" y="114.3" class="st1" width="7.6" height="37"/>
		<rect x="277.9" y="114.3" class="st1" width="7.6" height="37"/>
		<rect x="297.6" y="114.3" class="st1" width="7.6" height="37"/>
		<rect x="317.3" y="114.3" class="st1" width="7.6" height="37"/>
		<rect x="336.9" y="114.3" class="st1" width="7.6" height="37"/>
		<rect x="356.6" y="114.3" class="st1" width="7.6" height="37"/>
	</g>
	<g>
		<path class="st1" d="M159.7,60.1c0,4.1-3.1,6.8-8.5,6.8s-9.8-2.8-9.8-7.5h5.4c0,2.3,2,3.1,4.4,3.1c2,0,3.1-0.8,3.1-1.9
			c0-1.7-2.3-2.1-5.3-3c-3.7-1.1-6.9-2.7-6.9-6.6c0-4.7,3.7-6.5,8.3-6.5c5,0,8.9,2.6,9.1,7H154c-0.2-1.6-1.6-2.6-3.7-2.6
			c-1.6,0-2.9,0.5-2.9,1.7c0,1.3,1.4,1.7,4.1,2.5C155.5,54.2,159.7,55.5,159.7,60.1z"/>
		<path class="st1" d="M170.8,66.9c-6.5,0-9-2.9-9-8.2V44.9h5.4v13.7c0,2.8,1.2,3.8,3.6,3.8s3.6-1,3.6-3.8V44.9h5.4v13.7
			C179.8,64,177.3,66.9,170.8,66.9z"/>
		<path class="st1" d="M182.6,44.9H193c4.5,0,7.3,2.3,7.3,6.8s-2.8,6.8-7.3,6.8h-5v7.8h-5.4V44.9L182.6,44.9z M188,54.2h3.9
			c1.9,0,3-0.6,3-2.4s-1.1-2.4-3-2.4H188V54.2z"/>
		<path class="st1" d="M216.9,53.2v4.4h-9.4V62h11v4.4h-16.4V44.9h16.3v4.4h-10.9v3.8L216.9,53.2L216.9,53.2z"/>
		<path class="st1" d="M221,44.9h10.1c4.8,0,7.6,2.2,7.6,6.2c0,2.8-1.7,4.7-4.4,5.2v0.1c5.4,0.9,3.4,9.2,4.6,9.6v0.3h-5.6
			c-1-0.9,0.9-7.5-3.7-7.5h-3.4v7.5H221V44.9L221,44.9z M226.4,54.5h3.7c2.2,0,3.3-0.8,3.3-2.6s-1.1-2.6-3.3-2.6h-3.7V54.5
			L226.4,54.5z"/>
		<path class="st1" d="M241.1,44.9h6.6l4.4,13.7h0.1l4.4-13.7h6.6v21.5h-5.1V53H258l-4,13.3h-3.8l-4-13.3h-0.1v13.3h-5.1L241.1,44.9
			L241.1,44.9z"/>
		<path class="st1" d="M271.1,61.9l-1.4,4.5h-5.4l7.8-21.5h5.4l7.7,21.5h-5.4l-1.4-4.5H271.1L271.1,61.9z M277.2,57.8l-2.4-7.9h-0.1
			l-2.4,7.9H277.2L277.2,57.8z"/>
		<path class="st1" d="M286.7,44.9h10.1c4.8,0,7.7,2.2,7.7,6.2c0,2.8-1.7,4.7-4.4,5.2v0.1c5.4,0.9,3.4,9.2,4.7,9.6v0.3h-5.6
			c-1-0.9,0.9-7.5-3.7-7.5h-3.4v7.5h-5.4V44.9L286.7,44.9z M292.1,54.5h3.7c2.2,0,3.3-0.8,3.3-2.6s-1.1-2.6-3.3-2.6h-3.7V54.5
			L292.1,54.5z"/>
		<path class="st1" d="M312.3,44.9v8.7l7.5-8.7h6.3l-8.2,9.5l8.5,12H320l-5.6-8.1l-2.2,2.5v5.7h-5.4V44.9H312.3z"/>
		<path class="st1" d="M342.5,53.2v4.4h-9.4V62h11v4.4h-16.4V44.9H344v4.4h-10.9v3.8L342.5,53.2L342.5,53.2z"/>
		<path class="st1" d="M351.9,49.3h-6.2v-4.4h17.8v4.4h-6.2v17h-5.4V49.3L351.9,49.3z"/>
	</g>
</g>
</svg>
