<?xml version="1.0" encoding="utf-8"?>
<!-- Generator: Adobe Illustrator 26.5.0, SVG Export Plug-In . SVG Version: 6.00 Build 0)  -->
<svg version="1.1" id="uuid-158ed825-921a-46c5-a841-c5bf2c1e0982"
	 xmlns="http://www.w3.org/2000/svg" xmlns:xlink="http://www.w3.org/1999/xlink" x="0px" y="0px" viewBox="0 0 192 712.6"
	 style="enable-background:new 0 0 192 712.6;" xml:space="preserve">
<style type="text/css">
	.st0{fill-rule:evenodd;clip-rule:evenodd;fill:#FCBE1B;}
	.st1{fill:#E8629F;}
	.st2{fill:#261923;stroke:#E8629F;stroke-width:2.12;stroke-miterlimit:10;}
	.st3{fill-rule:evenodd;clip-rule:evenodd;fill:#E8629F;}
	.st4{fill:#261923;stroke:#E8629F;stroke-width:2.21;stroke-miterlimit:10;}
</style>
<g>
	<g>
		<path class="st0" d="M1.1,711.5V1.3c45.7,8.5,84.3,31.4,114.8,68.1c28.8,34.7,50.9,81.1,67.3,141.9c1.6,6,3.2,12.2,4.7,18.5
			c1,4.2,2,8.5,2.9,12.7v469H1.1L1.1,711.5z"/>
		<path class="st1" d="M2.2,2.7C24.7,7,45.5,14.8,64.2,26c18.7,11.2,35.8,26,50.9,44.1c14.5,17.5,27.6,38.5,38.9,62.7
			c10.8,23,20.3,49.5,28.2,78.8c1.6,5.9,3.2,12.1,4.7,18.4c1,4.1,2,8.4,2.9,12.6v467.8H2.2V2.7 M0,0v712.6h192V242.3
			c-1-4.3-2-8.6-3-12.9c-1.5-6.3-3.1-12.4-4.7-18.5c-15.6-57.6-37.4-106.1-67.6-142.3C86.8,32.6,48.6,8.7,0,0L0,0L0,0z"/>
	</g>
	<g>
		<rect x="22.6" y="243.3" class="st2" width="160.8" height="13.4"/>
		<rect x="22.6" y="276.5" class="st2" width="160.8" height="13.4"/>
		<rect x="22.6" y="309.7" class="st2" width="160.8" height="13.4"/>
		<rect x="22.6" y="342.9" class="st2" width="160.8" height="13.4"/>
	</g>
	<g>
		<rect x="22.6" y="398.5" class="st2" width="160.8" height="13.4"/>
		<rect x="22.6" y="431.7" class="st2" width="160.8" height="13.4"/>
		<rect x="22.6" y="464.9" class="st2" width="160.8" height="13.4"/>
		<rect x="22.6" y="498.1" class="st2" width="160.8" height="13.4"/>
	</g>
	<g>
		<rect x="22.6" y="549.7" class="st2" width="160.8" height="13.4"/>
		<rect x="22.6" y="582.9" class="st2" width="160.8" height="13.4"/>
		<rect x="22.6" y="616.1" class="st2" width="160.8" height="13.4"/>
		<rect x="22.6" y="649.3" class="st2" width="160.8" height="13.4"/>
	</g>
	<rect x="0" y="672.6" class="st1" width="192" height="40.1"/>
	<polygon class="st3" points="11.6,712.6 0,712.6 0,0 11.6,2.4 	"/>
	<rect x="11.6" y="370.1" class="st1" width="180.4" height="18.5"/>
	<g>
		<rect x="22.6" y="84.2" class="st4" width="94.2" height="13.4"/>
		<rect x="22.6" y="117.4" class="st4" width="113.5" height="13.4"/>
		<rect x="22.6" y="150.6" class="st4" width="130.7" height="13.4"/>
		<rect x="22.6" y="183.8" class="st4" width="144.8" height="13.4"/>
	</g>
	<path class="st3" d="M189.1,229.5H11.6V211h172.7C186,217.1,187.6,223.2,189.1,229.5L189.1,229.5z"/>
	<rect x="11.6" y="521.3" class="st1" width="180.4" height="18.5"/>
	<path class="st3" d="M116.8,68.7H0V0C48.6,8.7,86.8,32.6,116.8,68.7z"/>
</g>
</svg>
