<?xml version="1.0" encoding="utf-8"?>
<!-- Generator: Adobe Illustrator 26.5.0, SVG Export Plug-In . SVG Version: 6.00 Build 0)  -->
<svg version="1.1" id="uuid-e8f60619-483f-46a9-b127-df4fdab6a8f8"
	 xmlns="http://www.w3.org/2000/svg" xmlns:xlink="http://www.w3.org/1999/xlink" x="0px" y="0px" viewBox="0 0 169.3 952.2"
	 style="enable-background:new 0 0 169.3 952.2;" xml:space="preserve">
<style type="text/css">
	.st0{fill:#FCBE1B;}
	.st1{fill:#E8629F;}
	.st2{fill:#261923;}
	.st3{fill:none;stroke:#FCBE1B;stroke-width:3;stroke-miterlimit:10;}
</style>
<g>
	<rect x="12.5" y="249.1" class="st0" width="144.3" height="583.3"/>
	<rect y="832.5" class="st1" width="169.3" height="119.7"/>
	<g>
		<g>
			<rect x="0.5" y="847.7" class="st2" width="168.3" height="5.5"/>
			<path class="st0" d="M168.3,848.2v4.5H1v-4.5H168.3 M169.3,847.2H0v6.5h169.3V847.2L169.3,847.2z"/>
		</g>
		<g>
			<rect x="0.5" y="869.4" class="st2" width="168.3" height="5.5"/>
			<path class="st0" d="M168.3,869.9v4.5H1v-4.5H168.3 M169.3,868.9H0v6.5h169.3V868.9L169.3,868.9z"/>
		</g>
		<g>
			<rect x="0.5" y="891.1" class="st2" width="168.3" height="5.5"/>
			<path class="st0" d="M168.3,891.6v4.5H1v-4.5H168.3 M169.3,890.6H0v6.5h169.3V890.6L169.3,890.6z"/>
		</g>
		<g>
			<rect x="0.5" y="912.8" class="st2" width="168.3" height="5.5"/>
			<path class="st0" d="M168.3,913.3v4.5H1v-4.5H168.3 M169.3,912.3H0v6.5h169.3V912.3L169.3,912.3z"/>
		</g>
		<g>
			<rect x="0.5" y="934.5" class="st2" width="168.3" height="5.5"/>
			<path class="st0" d="M168.3,935v4.5H1V935H168.3 M169.3,934H0v6.5h169.3V934L169.3,934z"/>
		</g>
	</g>
	<rect x="29.9" y="190.4" class="st0" width="109.6" height="58.7"/>
	<rect x="12.5" y="249.1" class="st1" width="144.3" height="11"/>
	<rect x="29.9" y="190.4" class="st1" width="109.6" height="11"/>
	<rect x="56.8" y="112.7" class="st0" width="55.7" height="77.7"/>
	<rect x="72.4" y="92.3" class="st0" width="24.5" height="20.3"/>
	<rect x="56.8" y="112.7" class="st1" width="55.7" height="11"/>
	<line class="st3" x1="84.7" y1="0" x2="84.7" y2="92.3"/>
	<g>
		<g>
			<g>
				<g>
					<rect x="15.7" y="810.3" class="st2" width="8.9" height="8.9"/>
					<path class="st1" d="M24.1,810.8v8h-8v-8H24.1 M25.1,809.9h-9.8v9.8h9.8V809.9L25.1,809.9z"/>
				</g>
				<g>
					<rect x="28.5" y="810.3" class="st2" width="8.9" height="8.9"/>
					<path class="st1" d="M36.9,810.8v8h-8v-8H36.9 M37.8,809.9H28v9.8h9.8V809.9L37.8,809.9z"/>
				</g>
				<g>
					<rect x="42" y="810.3" class="st2" width="8.9" height="8.9"/>
					<path class="st1" d="M50.4,810.8v8h-8v-8H50.4 M51.3,809.9h-9.8v9.8h9.8V809.9L51.3,809.9z"/>
				</g>
			</g>
			<g>
				<g>
					<rect x="118.5" y="810.3" class="st2" width="8.9" height="8.9"/>
					<path class="st1" d="M126.9,810.8v8h-8v-8H126.9 M127.8,809.9H118v9.8h9.8V809.9L127.8,809.9z"/>
				</g>
				<g>
					<rect x="131.2" y="810.3" class="st2" width="8.9" height="8.9"/>
					<path class="st1" d="M139.7,810.8v8h-8v-8H139.7 M140.6,809.9h-9.8v9.8h9.8V809.9L140.6,809.9z"/>
				</g>
				<g>
					<rect x="144.7" y="810.3" class="st2" width="8.9" height="8.9"/>
					<path class="st1" d="M153.1,810.8v8h-8v-8H153.1 M154.1,809.9h-9.8v9.8h9.8V809.9L154.1,809.9z"/>
				</g>
			</g>
			<g>
				<g>
					<rect x="67.1" y="810.3" class="st2" width="8.9" height="8.9"/>
					<path class="st1" d="M75.5,810.8v8h-8v-8H75.5 M76.4,809.9h-9.8v9.8h9.8V809.9L76.4,809.9z"/>
				</g>
				<g>
					<rect x="79.9" y="810.3" class="st2" width="8.9" height="8.9"/>
					<path class="st1" d="M88.3,810.8v8h-8v-8H88.3 M89.2,809.9h-9.8v9.8h9.8V809.9L89.2,809.9z"/>
				</g>
				<g>
					<rect x="93.4" y="810.3" class="st2" width="8.9" height="8.9"/>
					<path class="st1" d="M101.8,810.8v8h-8v-8H101.8 M102.7,809.9h-9.8v9.8h9.8V809.9L102.7,809.9z"/>
				</g>
			</g>
		</g>
		<g>
			<g>
				<g>
					<rect x="15.7" y="792.2" class="st2" width="8.9" height="8.9"/>
					<path class="st1" d="M24.1,792.6v8h-8v-8H24.1 M25.1,791.7h-9.8v9.8h9.8V791.7L25.1,791.7z"/>
				</g>
				<g>
					<rect x="28.5" y="792.2" class="st2" width="8.9" height="8.9"/>
					<path class="st1" d="M36.9,792.6v8h-8v-8H36.9 M37.8,791.7H28v9.8h9.8V791.7L37.8,791.7z"/>
				</g>
				<g>
					<rect x="42" y="792.2" class="st2" width="8.9" height="8.9"/>
					<path class="st1" d="M50.4,792.6v8h-8v-8H50.4 M51.3,791.7h-9.8v9.8h9.8V791.7L51.3,791.7z"/>
				</g>
			</g>
			<g>
				<g>
					<rect x="118.5" y="792.2" class="st2" width="8.9" height="8.9"/>
					<path class="st1" d="M126.9,792.6v8h-8v-8H126.9 M127.8,791.7H118v9.8h9.8V791.7L127.8,791.7z"/>
				</g>
				<g>
					<rect x="131.2" y="792.2" class="st2" width="8.9" height="8.9"/>
					<path class="st1" d="M139.7,792.6v8h-8v-8H139.7 M140.6,791.7h-9.8v9.8h9.8V791.7L140.6,791.7z"/>
				</g>
				<g>
					<rect x="144.7" y="792.2" class="st2" width="8.9" height="8.9"/>
					<path class="st1" d="M153.1,792.6v8h-8v-8H153.1 M154.1,791.7h-9.8v9.8h9.8V791.7L154.1,791.7z"/>
				</g>
			</g>
			<g>
				<g>
					<rect x="67.1" y="792.2" class="st2" width="8.9" height="8.9"/>
					<path class="st1" d="M75.5,792.6v8h-8v-8H75.5 M76.4,791.7h-9.8v9.8h9.8V791.7L76.4,791.7z"/>
				</g>
				<g>
					<rect x="79.9" y="792.2" class="st2" width="8.9" height="8.9"/>
					<path class="st1" d="M88.3,792.6v8h-8v-8H88.3 M89.2,791.7h-9.8v9.8h9.8V791.7L89.2,791.7z"/>
				</g>
				<g>
					<rect x="93.4" y="792.2" class="st2" width="8.9" height="8.9"/>
					<path class="st1" d="M101.8,792.6v8h-8v-8H101.8 M102.7,791.7h-9.8v9.8h9.8V791.7L102.7,791.7z"/>
				</g>
			</g>
		</g>
		<g>
			<g>
				<g>
					<rect x="15.7" y="774" class="st2" width="8.9" height="8.9"/>
					<path class="st1" d="M24.1,774.5v8h-8v-8H24.1 M25.1,773.6h-9.8v9.8h9.8V773.6L25.1,773.6z"/>
				</g>
				<g>
					<rect x="28.5" y="774" class="st2" width="8.9" height="8.9"/>
					<path class="st1" d="M36.9,774.5v8h-8v-8H36.9 M37.8,773.6H28v9.8h9.8V773.6L37.8,773.6z"/>
				</g>
				<g>
					<rect x="42" y="774" class="st2" width="8.9" height="8.9"/>
					<path class="st1" d="M50.4,774.5v8h-8v-8H50.4 M51.3,773.6h-9.8v9.8h9.8V773.6L51.3,773.6z"/>
				</g>
			</g>
			<g>
				<g>
					<rect x="118.5" y="774" class="st2" width="8.9" height="8.9"/>
					<path class="st1" d="M126.9,774.5v8h-8v-8H126.9 M127.8,773.6H118v9.8h9.8V773.6L127.8,773.6z"/>
				</g>
				<g>
					<rect x="131.2" y="774" class="st2" width="8.9" height="8.9"/>
					<path class="st1" d="M139.7,774.5v8h-8v-8H139.7 M140.6,773.6h-9.8v9.8h9.8V773.6L140.6,773.6z"/>
				</g>
				<g>
					<rect x="144.7" y="774" class="st2" width="8.9" height="8.9"/>
					<path class="st1" d="M153.1,774.5v8h-8v-8H153.1 M154.1,773.6h-9.8v9.8h9.8V773.6L154.1,773.6z"/>
				</g>
			</g>
			<g>
				<g>
					<rect x="67.1" y="774" class="st2" width="8.9" height="8.9"/>
					<path class="st1" d="M75.5,774.5v8h-8v-8H75.5 M76.4,773.6h-9.8v9.8h9.8V773.6L76.4,773.6z"/>
				</g>
				<g>
					<rect x="79.9" y="774" class="st2" width="8.9" height="8.9"/>
					<path class="st1" d="M88.3,774.5v8h-8v-8H88.3 M89.2,773.6h-9.8v9.8h9.8V773.6L89.2,773.6z"/>
				</g>
				<g>
					<rect x="93.4" y="774" class="st2" width="8.9" height="8.9"/>
					<path class="st1" d="M101.8,774.5v8h-8v-8H101.8 M102.7,773.6h-9.8v9.8h9.8V773.6L102.7,773.6z"/>
				</g>
			</g>
		</g>
		<g>
			<g>
				<g>
					<rect x="15.7" y="755.9" class="st2" width="8.9" height="8.9"/>
					<path class="st1" d="M24.1,756.3v8h-8v-8H24.1 M25.1,755.4h-9.8v9.8h9.8V755.4L25.1,755.4z"/>
				</g>
				<g>
					<rect x="28.5" y="755.9" class="st2" width="8.9" height="8.9"/>
					<path class="st1" d="M36.9,756.3v8h-8v-8H36.9 M37.8,755.4H28v9.8h9.8V755.4L37.8,755.4z"/>
				</g>
				<g>
					<rect x="42" y="755.9" class="st2" width="8.9" height="8.9"/>
					<path class="st1" d="M50.4,756.3v8h-8v-8H50.4 M51.3,755.4h-9.8v9.8h9.8V755.4L51.3,755.4z"/>
				</g>
			</g>
			<g>
				<g>
					<rect x="118.5" y="755.9" class="st2" width="8.9" height="8.9"/>
					<path class="st1" d="M126.9,756.3v8h-8v-8H126.9 M127.8,755.4H118v9.8h9.8V755.4L127.8,755.4z"/>
				</g>
				<g>
					<rect x="131.2" y="755.9" class="st2" width="8.9" height="8.9"/>
					<path class="st1" d="M139.7,756.3v8h-8v-8H139.7 M140.6,755.4h-9.8v9.8h9.8V755.4L140.6,755.4z"/>
				</g>
				<g>
					<rect x="144.7" y="755.9" class="st2" width="8.9" height="8.9"/>
					<path class="st1" d="M153.1,756.3v8h-8v-8H153.1 M154.1,755.4h-9.8v9.8h9.8V755.4L154.1,755.4z"/>
				</g>
			</g>
			<g>
				<g>
					<rect x="67.1" y="755.9" class="st2" width="8.9" height="8.9"/>
					<path class="st1" d="M75.5,756.3v8h-8v-8H75.5 M76.4,755.4h-9.8v9.8h9.8V755.4L76.4,755.4z"/>
				</g>
				<g>
					<rect x="79.9" y="755.9" class="st2" width="8.9" height="8.9"/>
					<path class="st1" d="M88.3,756.3v8h-8v-8H88.3 M89.2,755.4h-9.8v9.8h9.8V755.4L89.2,755.4z"/>
				</g>
				<g>
					<rect x="93.4" y="755.9" class="st2" width="8.9" height="8.9"/>
					<path class="st1" d="M101.8,756.3v8h-8v-8H101.8 M102.7,755.4h-9.8v9.8h9.8V755.4L102.7,755.4z"/>
				</g>
			</g>
		</g>
		<g>
			<g>
				<g>
					<rect x="15.7" y="737.7" class="st2" width="8.9" height="8.9"/>
					<path class="st1" d="M24.1,738.2v8h-8v-8H24.1 M25.1,737.3h-9.8v9.8h9.8V737.3L25.1,737.3z"/>
				</g>
				<g>
					<rect x="28.5" y="737.7" class="st2" width="8.9" height="8.9"/>
					<path class="st1" d="M36.9,738.2v8h-8v-8H36.9 M37.8,737.3H28v9.8h9.8V737.3L37.8,737.3z"/>
				</g>
				<g>
					<rect x="42" y="737.7" class="st2" width="8.9" height="8.9"/>
					<path class="st1" d="M50.4,738.2v8h-8v-8H50.4 M51.3,737.3h-9.8v9.8h9.8V737.3L51.3,737.3z"/>
				</g>
			</g>
			<g>
				<g>
					<rect x="118.5" y="737.7" class="st2" width="8.9" height="8.9"/>
					<path class="st1" d="M126.9,738.2v8h-8v-8H126.9 M127.8,737.3H118v9.8h9.8V737.3L127.8,737.3z"/>
				</g>
				<g>
					<rect x="131.2" y="737.7" class="st2" width="8.9" height="8.9"/>
					<path class="st1" d="M139.7,738.2v8h-8v-8H139.7 M140.6,737.3h-9.8v9.8h9.8V737.3L140.6,737.3z"/>
				</g>
				<g>
					<rect x="144.7" y="737.7" class="st2" width="8.9" height="8.9"/>
					<path class="st1" d="M153.1,738.2v8h-8v-8H153.1 M154.1,737.3h-9.8v9.8h9.8V737.3L154.1,737.3z"/>
				</g>
			</g>
			<g>
				<g>
					<rect x="67.1" y="737.7" class="st2" width="8.9" height="8.9"/>
					<path class="st1" d="M75.5,738.2v8h-8v-8H75.5 M76.4,737.3h-9.8v9.8h9.8V737.3L76.4,737.3z"/>
				</g>
				<g>
					<rect x="79.9" y="737.7" class="st2" width="8.9" height="8.9"/>
					<path class="st1" d="M88.3,738.2v8h-8v-8H88.3 M89.2,737.3h-9.8v9.8h9.8V737.3L89.2,737.3z"/>
				</g>
				<g>
					<rect x="93.4" y="737.7" class="st2" width="8.9" height="8.9"/>
					<path class="st1" d="M101.8,738.2v8h-8v-8H101.8 M102.7,737.3h-9.8v9.8h9.8V737.3L102.7,737.3z"/>
				</g>
			</g>
		</g>
		<g>
			<g>
				<g>
					<rect x="15.7" y="719.6" class="st2" width="8.9" height="8.9"/>
					<path class="st1" d="M24.1,720v8h-8v-8H24.1 M25.1,719.1h-9.8v9.8h9.8V719.1L25.1,719.1z"/>
				</g>
				<g>
					<rect x="28.5" y="719.6" class="st2" width="8.9" height="8.9"/>
					<path class="st1" d="M36.9,720v8h-8v-8H36.9 M37.8,719.1H28v9.8h9.8V719.1L37.8,719.1z"/>
				</g>
				<g>
					<rect x="42" y="719.6" class="st2" width="8.9" height="8.9"/>
					<path class="st1" d="M50.4,720v8h-8v-8H50.4 M51.3,719.1h-9.8v9.8h9.8V719.1L51.3,719.1z"/>
				</g>
			</g>
			<g>
				<g>
					<rect x="118.5" y="719.6" class="st2" width="8.9" height="8.9"/>
					<path class="st1" d="M126.9,720v8h-8v-8H126.9 M127.8,719.1H118v9.8h9.8V719.1L127.8,719.1z"/>
				</g>
				<g>
					<rect x="131.2" y="719.6" class="st2" width="8.9" height="8.9"/>
					<path class="st1" d="M139.7,720v8h-8v-8H139.7 M140.6,719.1h-9.8v9.8h9.8V719.1L140.6,719.1z"/>
				</g>
				<g>
					<rect x="144.7" y="719.6" class="st2" width="8.9" height="8.9"/>
					<path class="st1" d="M153.1,720v8h-8v-8H153.1 M154.1,719.1h-9.8v9.8h9.8V719.1L154.1,719.1z"/>
				</g>
			</g>
			<g>
				<g>
					<rect x="67.1" y="719.6" class="st2" width="8.9" height="8.9"/>
					<path class="st1" d="M75.5,720v8h-8v-8H75.5 M76.4,719.1h-9.8v9.8h9.8V719.1L76.4,719.1z"/>
				</g>
				<g>
					<rect x="79.9" y="719.6" class="st2" width="8.9" height="8.9"/>
					<path class="st1" d="M88.3,720v8h-8v-8H88.3 M89.2,719.1h-9.8v9.8h9.8V719.1L89.2,719.1z"/>
				</g>
				<g>
					<rect x="93.4" y="719.6" class="st2" width="8.9" height="8.9"/>
					<path class="st1" d="M101.8,720v8h-8v-8H101.8 M102.7,719.1h-9.8v9.8h9.8V719.1L102.7,719.1z"/>
				</g>
			</g>
		</g>
		<g>
			<g>
				<g>
					<rect x="15.7" y="701.4" class="st2" width="8.9" height="8.9"/>
					<path class="st1" d="M24.1,701.9v8h-8v-8H24.1 M25.1,701h-9.8v9.8h9.8V701L25.1,701z"/>
				</g>
				<g>
					<rect x="28.5" y="701.4" class="st2" width="8.9" height="8.9"/>
					<path class="st1" d="M36.9,701.9v8h-8v-8H36.9 M37.8,701H28v9.8h9.8V701L37.8,701z"/>
				</g>
				<g>
					<rect x="42" y="701.4" class="st2" width="8.9" height="8.9"/>
					<path class="st1" d="M50.4,701.9v8h-8v-8H50.4 M51.3,701h-9.8v9.8h9.8V701L51.3,701z"/>
				</g>
			</g>
			<g>
				<g>
					<rect x="118.5" y="701.4" class="st2" width="8.9" height="8.9"/>
					<path class="st1" d="M126.9,701.9v8h-8v-8H126.9 M127.8,701H118v9.8h9.8V701L127.8,701z"/>
				</g>
				<g>
					<rect x="131.2" y="701.4" class="st2" width="8.9" height="8.9"/>
					<path class="st1" d="M139.7,701.9v8h-8v-8H139.7 M140.6,701h-9.8v9.8h9.8V701L140.6,701z"/>
				</g>
				<g>
					<rect x="144.7" y="701.4" class="st2" width="8.9" height="8.9"/>
					<path class="st1" d="M153.1,701.9v8h-8v-8H153.1 M154.1,701h-9.8v9.8h9.8V701L154.1,701z"/>
				</g>
			</g>
			<g>
				<g>
					<rect x="67.1" y="701.4" class="st2" width="8.9" height="8.9"/>
					<path class="st1" d="M75.5,701.9v8h-8v-8H75.5 M76.4,701h-9.8v9.8h9.8V701L76.4,701z"/>
				</g>
				<g>
					<rect x="79.9" y="701.4" class="st2" width="8.9" height="8.9"/>
					<path class="st1" d="M88.3,701.9v8h-8v-8H88.3 M89.2,701h-9.8v9.8h9.8V701L89.2,701z"/>
				</g>
				<g>
					<rect x="93.4" y="701.4" class="st2" width="8.9" height="8.9"/>
					<path class="st1" d="M101.8,701.9v8h-8v-8H101.8 M102.7,701h-9.8v9.8h9.8V701L102.7,701z"/>
				</g>
			</g>
		</g>
		<g>
			<g>
				<g>
					<rect x="15.7" y="683.3" class="st2" width="8.9" height="8.9"/>
					<path class="st1" d="M24.1,683.7v8h-8v-8H24.1 M25.1,682.8h-9.8v9.8h9.8V682.8L25.1,682.8z"/>
				</g>
				<g>
					<rect x="28.5" y="683.3" class="st2" width="8.9" height="8.9"/>
					<path class="st1" d="M36.9,683.7v8h-8v-8H36.9 M37.8,682.8H28v9.8h9.8V682.8L37.8,682.8z"/>
				</g>
				<g>
					<rect x="42" y="683.3" class="st2" width="8.9" height="8.9"/>
					<path class="st1" d="M50.4,683.7v8h-8v-8H50.4 M51.3,682.8h-9.8v9.8h9.8V682.8L51.3,682.8z"/>
				</g>
			</g>
			<g>
				<g>
					<rect x="118.5" y="683.3" class="st2" width="8.9" height="8.9"/>
					<path class="st1" d="M126.9,683.7v8h-8v-8H126.9 M127.8,682.8H118v9.8h9.8V682.8L127.8,682.8z"/>
				</g>
				<g>
					<rect x="131.2" y="683.3" class="st2" width="8.9" height="8.9"/>
					<path class="st1" d="M139.7,683.7v8h-8v-8H139.7 M140.6,682.8h-9.8v9.8h9.8V682.8L140.6,682.8z"/>
				</g>
				<g>
					<rect x="144.7" y="683.3" class="st2" width="8.9" height="8.9"/>
					<path class="st1" d="M153.1,683.7v8h-8v-8H153.1 M154.1,682.8h-9.8v9.8h9.8V682.8L154.1,682.8z"/>
				</g>
			</g>
			<g>
				<g>
					<rect x="67.1" y="683.3" class="st2" width="8.9" height="8.9"/>
					<path class="st1" d="M75.5,683.7v8h-8v-8H75.5 M76.4,682.8h-9.8v9.8h9.8V682.8L76.4,682.8z"/>
				</g>
				<g>
					<rect x="79.9" y="683.3" class="st2" width="8.9" height="8.9"/>
					<path class="st1" d="M88.3,683.7v8h-8v-8H88.3 M89.2,682.8h-9.8v9.8h9.8V682.8L89.2,682.8z"/>
				</g>
				<g>
					<rect x="93.4" y="683.3" class="st2" width="8.9" height="8.9"/>
					<path class="st1" d="M101.8,683.7v8h-8v-8H101.8 M102.7,682.8h-9.8v9.8h9.8V682.8L102.7,682.8z"/>
				</g>
			</g>
		</g>
		<g>
			<g>
				<g>
					<rect x="15.7" y="665.1" class="st2" width="8.9" height="8.9"/>
					<path class="st1" d="M24.1,665.6v8h-8v-8H24.1 M25.1,664.7h-9.8v9.8h9.8V664.7L25.1,664.7z"/>
				</g>
				<g>
					<rect x="28.5" y="665.1" class="st2" width="8.9" height="8.9"/>
					<path class="st1" d="M36.9,665.6v8h-8v-8H36.9 M37.8,664.7H28v9.8h9.8V664.7L37.8,664.7z"/>
				</g>
				<g>
					<rect x="42" y="665.1" class="st2" width="8.9" height="8.9"/>
					<path class="st1" d="M50.4,665.6v8h-8v-8H50.4 M51.3,664.7h-9.8v9.8h9.8V664.7L51.3,664.7z"/>
				</g>
			</g>
			<g>
				<g>
					<rect x="118.5" y="665.1" class="st2" width="8.9" height="8.9"/>
					<path class="st1" d="M126.9,665.6v8h-8v-8H126.9 M127.8,664.7H118v9.8h9.8V664.7L127.8,664.7z"/>
				</g>
				<g>
					<rect x="131.2" y="665.1" class="st2" width="8.9" height="8.9"/>
					<path class="st1" d="M139.7,665.6v8h-8v-8H139.7 M140.6,664.7h-9.8v9.8h9.8V664.7L140.6,664.7z"/>
				</g>
				<g>
					<rect x="144.7" y="665.1" class="st2" width="8.9" height="8.9"/>
					<path class="st1" d="M153.1,665.6v8h-8v-8H153.1 M154.1,664.7h-9.8v9.8h9.8V664.7L154.1,664.7z"/>
				</g>
			</g>
			<g>
				<g>
					<rect x="67.1" y="665.1" class="st2" width="8.9" height="8.9"/>
					<path class="st1" d="M75.5,665.6v8h-8v-8H75.5 M76.4,664.7h-9.8v9.8h9.8V664.7L76.4,664.7z"/>
				</g>
				<g>
					<rect x="79.9" y="665.1" class="st2" width="8.9" height="8.9"/>
					<path class="st1" d="M88.3,665.6v8h-8v-8H88.3 M89.2,664.7h-9.8v9.8h9.8V664.7L89.2,664.7z"/>
				</g>
				<g>
					<rect x="93.4" y="665.1" class="st2" width="8.9" height="8.9"/>
					<path class="st1" d="M101.8,665.6v8h-8v-8H101.8 M102.7,664.7h-9.8v9.8h9.8V664.7L102.7,664.7z"/>
				</g>
			</g>
		</g>
		<g>
			<g>
				<g>
					<rect x="15.7" y="647" class="st2" width="8.9" height="8.9"/>
					<path class="st1" d="M24.1,647.4v8h-8v-8H24.1 M25.1,646.5h-9.8v9.8h9.8V646.5L25.1,646.5z"/>
				</g>
				<g>
					<rect x="28.5" y="647" class="st2" width="8.9" height="8.9"/>
					<path class="st1" d="M36.9,647.4v8h-8v-8H36.9 M37.8,646.5H28v9.8h9.8V646.5L37.8,646.5z"/>
				</g>
				<g>
					<rect x="42" y="647" class="st2" width="8.9" height="8.9"/>
					<path class="st1" d="M50.4,647.4v8h-8v-8H50.4 M51.3,646.5h-9.8v9.8h9.8V646.5L51.3,646.5z"/>
				</g>
			</g>
			<g>
				<g>
					<rect x="118.5" y="647" class="st2" width="8.9" height="8.9"/>
					<path class="st1" d="M126.9,647.4v8h-8v-8H126.9 M127.8,646.5H118v9.8h9.8V646.5L127.8,646.5z"/>
				</g>
				<g>
					<rect x="131.2" y="647" class="st2" width="8.9" height="8.9"/>
					<path class="st1" d="M139.7,647.4v8h-8v-8H139.7 M140.6,646.5h-9.8v9.8h9.8V646.5L140.6,646.5z"/>
				</g>
				<g>
					<rect x="144.7" y="647" class="st2" width="8.9" height="8.9"/>
					<path class="st1" d="M153.1,647.4v8h-8v-8H153.1 M154.1,646.5h-9.8v9.8h9.8V646.5L154.1,646.5z"/>
				</g>
			</g>
			<g>
				<g>
					<rect x="67.1" y="647" class="st2" width="8.9" height="8.9"/>
					<path class="st1" d="M75.5,647.4v8h-8v-8H75.5 M76.4,646.5h-9.8v9.8h9.8V646.5L76.4,646.5z"/>
				</g>
				<g>
					<rect x="79.9" y="647" class="st2" width="8.9" height="8.9"/>
					<path class="st1" d="M88.3,647.4v8h-8v-8H88.3 M89.2,646.5h-9.8v9.8h9.8V646.5L89.2,646.5z"/>
				</g>
				<g>
					<rect x="93.4" y="647" class="st2" width="8.9" height="8.9"/>
					<path class="st1" d="M101.8,647.4v8h-8v-8H101.8 M102.7,646.5h-9.8v9.8h9.8V646.5L102.7,646.5z"/>
				</g>
			</g>
		</g>
		<g>
			<g>
				<g>
					<rect x="15.7" y="628.8" class="st2" width="8.9" height="8.9"/>
					<path class="st1" d="M24.1,629.3v8h-8v-8H24.1 M25.1,628.4h-9.8v9.8h9.8V628.4L25.1,628.4z"/>
				</g>
				<g>
					<rect x="28.5" y="628.8" class="st2" width="8.9" height="8.9"/>
					<path class="st1" d="M36.9,629.3v8h-8v-8H36.9 M37.8,628.4H28v9.8h9.8V628.4L37.8,628.4z"/>
				</g>
				<g>
					<rect x="42" y="628.8" class="st2" width="8.9" height="8.9"/>
					<path class="st1" d="M50.4,629.3v8h-8v-8H50.4 M51.3,628.4h-9.8v9.8h9.8V628.4L51.3,628.4z"/>
				</g>
			</g>
			<g>
				<g>
					<rect x="118.5" y="628.8" class="st2" width="8.9" height="8.9"/>
					<path class="st1" d="M126.9,629.3v8h-8v-8H126.9 M127.8,628.4H118v9.8h9.8V628.4L127.8,628.4z"/>
				</g>
				<g>
					<rect x="131.2" y="628.8" class="st2" width="8.9" height="8.9"/>
					<path class="st1" d="M139.7,629.3v8h-8v-8H139.7 M140.6,628.4h-9.8v9.8h9.8V628.4L140.6,628.4z"/>
				</g>
				<g>
					<rect x="144.7" y="628.8" class="st2" width="8.9" height="8.9"/>
					<path class="st1" d="M153.1,629.3v8h-8v-8H153.1 M154.1,628.4h-9.8v9.8h9.8V628.4L154.1,628.4z"/>
				</g>
			</g>
			<g>
				<g>
					<rect x="67.1" y="628.8" class="st2" width="8.9" height="8.9"/>
					<path class="st1" d="M75.5,629.3v8h-8v-8H75.5 M76.4,628.4h-9.8v9.8h9.8V628.4L76.4,628.4z"/>
				</g>
				<g>
					<rect x="79.9" y="628.8" class="st2" width="8.9" height="8.9"/>
					<path class="st1" d="M88.3,629.3v8h-8v-8H88.3 M89.2,628.4h-9.8v9.8h9.8V628.4L89.2,628.4z"/>
				</g>
				<g>
					<rect x="93.4" y="628.8" class="st2" width="8.9" height="8.9"/>
					<path class="st1" d="M101.8,629.3v8h-8v-8H101.8 M102.7,628.4h-9.8v9.8h9.8V628.4L102.7,628.4z"/>
				</g>
			</g>
		</g>
		<g>
			<g>
				<g>
					<rect x="15.7" y="610.7" class="st2" width="8.9" height="8.9"/>
					<path class="st1" d="M24.1,611.1v8h-8v-8H24.1 M25.1,610.2h-9.8v9.8h9.8V610.2L25.1,610.2z"/>
				</g>
				<g>
					<rect x="28.5" y="610.7" class="st2" width="8.9" height="8.9"/>
					<path class="st1" d="M36.9,611.1v8h-8v-8H36.9 M37.8,610.2H28v9.8h9.8V610.2L37.8,610.2z"/>
				</g>
				<g>
					<rect x="42" y="610.7" class="st2" width="8.9" height="8.9"/>
					<path class="st1" d="M50.4,611.1v8h-8v-8H50.4 M51.3,610.2h-9.8v9.8h9.8V610.2L51.3,610.2z"/>
				</g>
			</g>
			<g>
				<g>
					<rect x="118.5" y="610.7" class="st2" width="8.9" height="8.9"/>
					<path class="st1" d="M126.9,611.1v8h-8v-8H126.9 M127.8,610.2H118v9.8h9.8V610.2L127.8,610.2z"/>
				</g>
				<g>
					<rect x="131.2" y="610.7" class="st2" width="8.9" height="8.9"/>
					<path class="st1" d="M139.7,611.1v8h-8v-8H139.7 M140.6,610.2h-9.8v9.8h9.8V610.2L140.6,610.2z"/>
				</g>
				<g>
					<rect x="144.7" y="610.7" class="st2" width="8.9" height="8.9"/>
					<path class="st1" d="M153.1,611.1v8h-8v-8H153.1 M154.1,610.2h-9.8v9.8h9.8V610.2L154.1,610.2z"/>
				</g>
			</g>
			<g>
				<g>
					<rect x="67.1" y="610.7" class="st2" width="8.9" height="8.9"/>
					<path class="st1" d="M75.5,611.1v8h-8v-8H75.5 M76.4,610.2h-9.8v9.8h9.8V610.2L76.4,610.2z"/>
				</g>
				<g>
					<rect x="79.9" y="610.7" class="st2" width="8.9" height="8.9"/>
					<path class="st1" d="M88.3,611.1v8h-8v-8H88.3 M89.2,610.2h-9.8v9.8h9.8V610.2L89.2,610.2z"/>
				</g>
				<g>
					<rect x="93.4" y="610.7" class="st2" width="8.9" height="8.9"/>
					<path class="st1" d="M101.8,611.1v8h-8v-8H101.8 M102.7,610.2h-9.8v9.8h9.8V610.2L102.7,610.2z"/>
				</g>
			</g>
		</g>
		<g>
			<g>
				<g>
					<rect x="15.7" y="592.5" class="st2" width="8.9" height="8.9"/>
					<path class="st1" d="M24.1,593v8h-8v-8H24.1 M25.1,592.1h-9.8v9.8h9.8V592.1L25.1,592.1z"/>
				</g>
				<g>
					<rect x="28.5" y="592.5" class="st2" width="8.9" height="8.9"/>
					<path class="st1" d="M36.9,593v8h-8v-8H36.9 M37.8,592.1H28v9.8h9.8V592.1L37.8,592.1z"/>
				</g>
				<g>
					<rect x="42" y="592.5" class="st2" width="8.9" height="8.9"/>
					<path class="st1" d="M50.4,593v8h-8v-8H50.4 M51.3,592.1h-9.8v9.8h9.8V592.1L51.3,592.1z"/>
				</g>
			</g>
			<g>
				<g>
					<rect x="118.5" y="592.5" class="st2" width="8.9" height="8.9"/>
					<path class="st1" d="M126.9,593v8h-8v-8H126.9 M127.8,592.1H118v9.8h9.8V592.1L127.8,592.1z"/>
				</g>
				<g>
					<rect x="131.2" y="592.5" class="st2" width="8.9" height="8.9"/>
					<path class="st1" d="M139.7,593v8h-8v-8H139.7 M140.6,592.1h-9.8v9.8h9.8V592.1L140.6,592.1z"/>
				</g>
				<g>
					<rect x="144.7" y="592.5" class="st2" width="8.9" height="8.9"/>
					<path class="st1" d="M153.1,593v8h-8v-8H153.1 M154.1,592.1h-9.8v9.8h9.8V592.1L154.1,592.1z"/>
				</g>
			</g>
			<g>
				<g>
					<rect x="67.1" y="592.5" class="st2" width="8.9" height="8.9"/>
					<path class="st1" d="M75.5,593v8h-8v-8H75.5 M76.4,592.1h-9.8v9.8h9.8V592.1L76.4,592.1z"/>
				</g>
				<g>
					<rect x="79.9" y="592.5" class="st2" width="8.9" height="8.9"/>
					<path class="st1" d="M88.3,593v8h-8v-8H88.3 M89.2,592.1h-9.8v9.8h9.8V592.1L89.2,592.1z"/>
				</g>
				<g>
					<rect x="93.4" y="592.5" class="st2" width="8.9" height="8.9"/>
					<path class="st1" d="M101.8,593v8h-8v-8H101.8 M102.7,592.1h-9.8v9.8h9.8V592.1L102.7,592.1z"/>
				</g>
			</g>
		</g>
		<g>
			<g>
				<g>
					<rect x="15.7" y="574.4" class="st2" width="8.9" height="8.9"/>
					<path class="st1" d="M24.1,574.8v8h-8v-8H24.1 M25.1,573.9h-9.8v9.8h9.8V573.9L25.1,573.9z"/>
				</g>
				<g>
					<rect x="28.5" y="574.4" class="st2" width="8.9" height="8.9"/>
					<path class="st1" d="M36.9,574.8v8h-8v-8H36.9 M37.8,573.9H28v9.8h9.8V573.9L37.8,573.9z"/>
				</g>
				<g>
					<rect x="42" y="574.4" class="st2" width="8.9" height="8.9"/>
					<path class="st1" d="M50.4,574.8v8h-8v-8H50.4 M51.3,573.9h-9.8v9.8h9.8V573.9L51.3,573.9z"/>
				</g>
			</g>
			<g>
				<g>
					<rect x="118.5" y="574.4" class="st2" width="8.9" height="8.9"/>
					<path class="st1" d="M126.9,574.8v8h-8v-8H126.9 M127.8,573.9H118v9.8h9.8V573.9L127.8,573.9z"/>
				</g>
				<g>
					<rect x="131.2" y="574.4" class="st2" width="8.9" height="8.9"/>
					<path class="st1" d="M139.7,574.8v8h-8v-8H139.7 M140.6,573.9h-9.8v9.8h9.8V573.9L140.6,573.9z"/>
				</g>
				<g>
					<rect x="144.7" y="574.4" class="st2" width="8.9" height="8.9"/>
					<path class="st1" d="M153.1,574.8v8h-8v-8H153.1 M154.1,573.9h-9.8v9.8h9.8V573.9L154.1,573.9z"/>
				</g>
			</g>
			<g>
				<g>
					<rect x="67.1" y="574.4" class="st2" width="8.9" height="8.9"/>
					<path class="st1" d="M75.5,574.8v8h-8v-8H75.5 M76.4,573.9h-9.8v9.8h9.8V573.9L76.4,573.9z"/>
				</g>
				<g>
					<rect x="79.9" y="574.4" class="st2" width="8.9" height="8.9"/>
					<path class="st1" d="M88.3,574.8v8h-8v-8H88.3 M89.2,573.9h-9.8v9.8h9.8V573.9L89.2,573.9z"/>
				</g>
				<g>
					<rect x="93.4" y="574.4" class="st2" width="8.9" height="8.9"/>
					<path class="st1" d="M101.8,574.8v8h-8v-8H101.8 M102.7,573.9h-9.8v9.8h9.8V573.9L102.7,573.9z"/>
				</g>
			</g>
		</g>
		<g>
			<g>
				<g>
					<rect x="15.7" y="556.2" class="st2" width="8.9" height="8.9"/>
					<path class="st1" d="M24.1,556.7v8h-8v-8H24.1 M25.1,555.8h-9.8v9.8h9.8V555.8L25.1,555.8z"/>
				</g>
				<g>
					<rect x="28.5" y="556.2" class="st2" width="8.9" height="8.9"/>
					<path class="st1" d="M36.9,556.7v8h-8v-8H36.9 M37.8,555.8H28v9.8h9.8V555.8L37.8,555.8z"/>
				</g>
				<g>
					<rect x="42" y="556.2" class="st2" width="8.9" height="8.9"/>
					<path class="st1" d="M50.4,556.7v8h-8v-8H50.4 M51.3,555.8h-9.8v9.8h9.8V555.8L51.3,555.8z"/>
				</g>
			</g>
			<g>
				<g>
					<rect x="118.5" y="556.2" class="st2" width="8.9" height="8.9"/>
					<path class="st1" d="M126.9,556.7v8h-8v-8H126.9 M127.8,555.8H118v9.8h9.8V555.8L127.8,555.8z"/>
				</g>
				<g>
					<rect x="131.2" y="556.2" class="st2" width="8.9" height="8.9"/>
					<path class="st1" d="M139.7,556.7v8h-8v-8H139.7 M140.6,555.8h-9.8v9.8h9.8V555.8L140.6,555.8z"/>
				</g>
				<g>
					<rect x="144.7" y="556.2" class="st2" width="8.9" height="8.9"/>
					<path class="st1" d="M153.1,556.7v8h-8v-8H153.1 M154.1,555.8h-9.8v9.8h9.8V555.8L154.1,555.8z"/>
				</g>
			</g>
			<g>
				<g>
					<rect x="67.1" y="556.2" class="st2" width="8.9" height="8.9"/>
					<path class="st1" d="M75.5,556.7v8h-8v-8H75.5 M76.4,555.8h-9.8v9.8h9.8V555.8L76.4,555.8z"/>
				</g>
				<g>
					<rect x="79.9" y="556.2" class="st2" width="8.9" height="8.9"/>
					<path class="st1" d="M88.3,556.7v8h-8v-8H88.3 M89.2,555.8h-9.8v9.8h9.8V555.8L89.2,555.8z"/>
				</g>
				<g>
					<rect x="93.4" y="556.2" class="st2" width="8.9" height="8.9"/>
					<path class="st1" d="M101.8,556.7v8h-8v-8H101.8 M102.7,555.8h-9.8v9.8h9.8V555.8L102.7,555.8z"/>
				</g>
			</g>
		</g>
		<g>
			<g>
				<g>
					<rect x="15.7" y="538.1" class="st2" width="8.9" height="8.9"/>
					<path class="st1" d="M24.1,538.5v8h-8v-8H24.1 M25.1,537.6h-9.8v9.8h9.8V537.6L25.1,537.6z"/>
				</g>
				<g>
					<rect x="28.5" y="538.1" class="st2" width="8.9" height="8.9"/>
					<path class="st1" d="M36.9,538.5v8h-8v-8H36.9 M37.8,537.6H28v9.8h9.8V537.6L37.8,537.6z"/>
				</g>
				<g>
					<rect x="42" y="538.1" class="st2" width="8.9" height="8.9"/>
					<path class="st1" d="M50.4,538.5v8h-8v-8H50.4 M51.3,537.6h-9.8v9.8h9.8V537.6L51.3,537.6z"/>
				</g>
			</g>
			<g>
				<g>
					<rect x="118.5" y="538.1" class="st2" width="8.9" height="8.9"/>
					<path class="st1" d="M126.9,538.5v8h-8v-8H126.9 M127.8,537.6H118v9.8h9.8V537.6L127.8,537.6z"/>
				</g>
				<g>
					<rect x="131.2" y="538.1" class="st2" width="8.9" height="8.9"/>
					<path class="st1" d="M139.7,538.5v8h-8v-8H139.7 M140.6,537.6h-9.8v9.8h9.8V537.6L140.6,537.6z"/>
				</g>
				<g>
					<rect x="144.7" y="538.1" class="st2" width="8.9" height="8.9"/>
					<path class="st1" d="M153.1,538.5v8h-8v-8H153.1 M154.1,537.6h-9.8v9.8h9.8V537.6L154.1,537.6z"/>
				</g>
			</g>
			<g>
				<g>
					<rect x="67.1" y="538.1" class="st2" width="8.9" height="8.9"/>
					<path class="st1" d="M75.5,538.5v8h-8v-8H75.5 M76.4,537.6h-9.8v9.8h9.8V537.6L76.4,537.6z"/>
				</g>
				<g>
					<rect x="79.9" y="538.1" class="st2" width="8.9" height="8.9"/>
					<path class="st1" d="M88.3,538.5v8h-8v-8H88.3 M89.2,537.6h-9.8v9.8h9.8V537.6L89.2,537.6z"/>
				</g>
				<g>
					<rect x="93.4" y="538.1" class="st2" width="8.9" height="8.9"/>
					<path class="st1" d="M101.8,538.5v8h-8v-8H101.8 M102.7,537.6h-9.8v9.8h9.8V537.6L102.7,537.6z"/>
				</g>
			</g>
		</g>
		<g>
			<g>
				<g>
					<rect x="15.7" y="519.9" class="st2" width="8.9" height="8.9"/>
					<path class="st1" d="M24.1,520.4v8h-8v-8H24.1 M25.1,519.5h-9.8v9.8h9.8V519.5L25.1,519.5z"/>
				</g>
				<g>
					<rect x="28.5" y="519.9" class="st2" width="8.9" height="8.9"/>
					<path class="st1" d="M36.9,520.4v8h-8v-8H36.9 M37.8,519.5H28v9.8h9.8V519.5L37.8,519.5z"/>
				</g>
				<g>
					<rect x="42" y="519.9" class="st2" width="8.9" height="8.9"/>
					<path class="st1" d="M50.4,520.4v8h-8v-8H50.4 M51.3,519.5h-9.8v9.8h9.8V519.5L51.3,519.5z"/>
				</g>
			</g>
			<g>
				<g>
					<rect x="118.5" y="519.9" class="st2" width="8.9" height="8.9"/>
					<path class="st1" d="M126.9,520.4v8h-8v-8H126.9 M127.8,519.5H118v9.8h9.8V519.5L127.8,519.5z"/>
				</g>
				<g>
					<rect x="131.2" y="519.9" class="st2" width="8.9" height="8.9"/>
					<path class="st1" d="M139.7,520.4v8h-8v-8H139.7 M140.6,519.5h-9.8v9.8h9.8V519.5L140.6,519.5z"/>
				</g>
				<g>
					<rect x="144.7" y="519.9" class="st2" width="8.9" height="8.9"/>
					<path class="st1" d="M153.1,520.4v8h-8v-8H153.1 M154.1,519.5h-9.8v9.8h9.8V519.5L154.1,519.5z"/>
				</g>
			</g>
			<g>
				<g>
					<rect x="67.1" y="519.9" class="st2" width="8.9" height="8.9"/>
					<path class="st1" d="M75.5,520.4v8h-8v-8H75.5 M76.4,519.5h-9.8v9.8h9.8V519.5L76.4,519.5z"/>
				</g>
				<g>
					<rect x="79.9" y="519.9" class="st2" width="8.9" height="8.9"/>
					<path class="st1" d="M88.3,520.4v8h-8v-8H88.3 M89.2,519.5h-9.8v9.8h9.8V519.5L89.2,519.5z"/>
				</g>
				<g>
					<rect x="93.4" y="519.9" class="st2" width="8.9" height="8.9"/>
					<path class="st1" d="M101.8,520.4v8h-8v-8H101.8 M102.7,519.5h-9.8v9.8h9.8V519.5L102.7,519.5z"/>
				</g>
			</g>
		</g>
		<g>
			<g>
				<g>
					<rect x="15.7" y="501.8" class="st2" width="8.9" height="8.9"/>
					<path class="st1" d="M24.1,502.2v8h-8v-8H24.1 M25.1,501.3h-9.8v9.8h9.8V501.3L25.1,501.3z"/>
				</g>
				<g>
					<rect x="28.5" y="501.8" class="st2" width="8.9" height="8.9"/>
					<path class="st1" d="M36.9,502.2v8h-8v-8H36.9 M37.8,501.3H28v9.8h9.8V501.3L37.8,501.3z"/>
				</g>
				<g>
					<rect x="42" y="501.8" class="st2" width="8.9" height="8.9"/>
					<path class="st1" d="M50.4,502.2v8h-8v-8H50.4 M51.3,501.3h-9.8v9.8h9.8V501.3L51.3,501.3z"/>
				</g>
			</g>
			<g>
				<g>
					<rect x="118.5" y="501.8" class="st2" width="8.9" height="8.9"/>
					<path class="st1" d="M126.9,502.2v8h-8v-8H126.9 M127.8,501.3H118v9.8h9.8V501.3L127.8,501.3z"/>
				</g>
				<g>
					<rect x="131.2" y="501.8" class="st2" width="8.9" height="8.9"/>
					<path class="st1" d="M139.7,502.2v8h-8v-8H139.7 M140.6,501.3h-9.8v9.8h9.8V501.3L140.6,501.3z"/>
				</g>
				<g>
					<rect x="144.7" y="501.8" class="st2" width="8.9" height="8.9"/>
					<path class="st1" d="M153.1,502.2v8h-8v-8H153.1 M154.1,501.3h-9.8v9.8h9.8V501.3L154.1,501.3z"/>
				</g>
			</g>
			<g>
				<g>
					<rect x="67.1" y="501.8" class="st2" width="8.9" height="8.9"/>
					<path class="st1" d="M75.5,502.2v8h-8v-8H75.5 M76.4,501.3h-9.8v9.8h9.8V501.3L76.4,501.3z"/>
				</g>
				<g>
					<rect x="79.9" y="501.8" class="st2" width="8.9" height="8.9"/>
					<path class="st1" d="M88.3,502.2v8h-8v-8H88.3 M89.2,501.3h-9.8v9.8h9.8V501.3L89.2,501.3z"/>
				</g>
				<g>
					<rect x="93.4" y="501.8" class="st2" width="8.9" height="8.9"/>
					<path class="st1" d="M101.8,502.2v8h-8v-8H101.8 M102.7,501.3h-9.8v9.8h9.8V501.3L102.7,501.3z"/>
				</g>
			</g>
		</g>
		<g>
			<g>
				<g>
					<rect x="15.7" y="483.6" class="st2" width="8.9" height="8.9"/>
					<path class="st1" d="M24.1,484.1v8h-8v-8H24.1 M25.1,483.2h-9.8v9.8h9.8V483.2L25.1,483.2z"/>
				</g>
				<g>
					<rect x="28.5" y="483.6" class="st2" width="8.9" height="8.9"/>
					<path class="st1" d="M36.9,484.1v8h-8v-8H36.9 M37.8,483.2H28v9.8h9.8V483.2L37.8,483.2z"/>
				</g>
				<g>
					<rect x="42" y="483.6" class="st2" width="8.9" height="8.9"/>
					<path class="st1" d="M50.4,484.1v8h-8v-8H50.4 M51.3,483.2h-9.8v9.8h9.8V483.2L51.3,483.2z"/>
				</g>
			</g>
			<g>
				<g>
					<rect x="118.5" y="483.6" class="st2" width="8.9" height="8.9"/>
					<path class="st1" d="M126.9,484.1v8h-8v-8H126.9 M127.8,483.2H118v9.8h9.8V483.2L127.8,483.2z"/>
				</g>
				<g>
					<rect x="131.2" y="483.6" class="st2" width="8.9" height="8.9"/>
					<path class="st1" d="M139.7,484.1v8h-8v-8H139.7 M140.6,483.2h-9.8v9.8h9.8V483.2L140.6,483.2z"/>
				</g>
				<g>
					<rect x="144.7" y="483.6" class="st2" width="8.9" height="8.9"/>
					<path class="st1" d="M153.1,484.1v8h-8v-8H153.1 M154.1,483.2h-9.8v9.8h9.8V483.2L154.1,483.2z"/>
				</g>
			</g>
			<g>
				<g>
					<rect x="67.1" y="483.6" class="st2" width="8.9" height="8.9"/>
					<path class="st1" d="M75.5,484.1v8h-8v-8H75.5 M76.4,483.2h-9.8v9.8h9.8V483.2L76.4,483.2z"/>
				</g>
				<g>
					<rect x="79.9" y="483.6" class="st2" width="8.9" height="8.9"/>
					<path class="st1" d="M88.3,484.1v8h-8v-8H88.3 M89.2,483.2h-9.8v9.8h9.8V483.2L89.2,483.2z"/>
				</g>
				<g>
					<rect x="93.4" y="483.6" class="st2" width="8.9" height="8.9"/>
					<path class="st1" d="M101.8,484.1v8h-8v-8H101.8 M102.7,483.2h-9.8v9.8h9.8V483.2L102.7,483.2z"/>
				</g>
			</g>
		</g>
		<g>
			<g>
				<g>
					<rect x="15.7" y="465.5" class="st2" width="8.9" height="8.9"/>
					<path class="st1" d="M24.1,466v8h-8v-8H24.1 M25.1,465h-9.8v9.8h9.8V465L25.1,465z"/>
				</g>
				<g>
					<rect x="28.5" y="465.5" class="st2" width="8.9" height="8.9"/>
					<path class="st1" d="M36.9,466v8h-8v-8H36.9 M37.8,465H28v9.8h9.8V465L37.8,465z"/>
				</g>
				<g>
					<rect x="42" y="465.5" class="st2" width="8.9" height="8.9"/>
					<path class="st1" d="M50.4,466v8h-8v-8H50.4 M51.3,465h-9.8v9.8h9.8V465L51.3,465z"/>
				</g>
			</g>
			<g>
				<g>
					<rect x="118.5" y="465.5" class="st2" width="8.9" height="8.9"/>
					<path class="st1" d="M126.9,466v8h-8v-8H126.9 M127.8,465H118v9.8h9.8V465L127.8,465z"/>
				</g>
				<g>
					<rect x="131.2" y="465.5" class="st2" width="8.9" height="8.9"/>
					<path class="st1" d="M139.7,466v8h-8v-8H139.7 M140.6,465h-9.8v9.8h9.8V465L140.6,465z"/>
				</g>
				<g>
					<rect x="144.7" y="465.5" class="st2" width="8.9" height="8.9"/>
					<path class="st1" d="M153.1,466v8h-8v-8H153.1 M154.1,465h-9.8v9.8h9.8V465L154.1,465z"/>
				</g>
			</g>
			<g>
				<g>
					<rect x="67.1" y="465.5" class="st2" width="8.9" height="8.9"/>
					<path class="st1" d="M75.5,466v8h-8v-8H75.5 M76.4,465h-9.8v9.8h9.8V465L76.4,465z"/>
				</g>
				<g>
					<rect x="79.9" y="465.5" class="st2" width="8.9" height="8.9"/>
					<path class="st1" d="M88.3,466v8h-8v-8H88.3 M89.2,465h-9.8v9.8h9.8V465L89.2,465z"/>
				</g>
				<g>
					<rect x="93.4" y="465.5" class="st2" width="8.9" height="8.9"/>
					<path class="st1" d="M101.8,466v8h-8v-8H101.8 M102.7,465h-9.8v9.8h9.8V465L102.7,465z"/>
				</g>
			</g>
		</g>
		<g>
			<g>
				<g>
					<rect x="15.7" y="447.4" class="st2" width="8.9" height="8.9"/>
					<path class="st1" d="M24.1,447.8v8h-8v-8H24.1 M25.1,446.9h-9.8v9.8h9.8V446.9L25.1,446.9z"/>
				</g>
				<g>
					<rect x="28.5" y="447.4" class="st2" width="8.9" height="8.9"/>
					<path class="st1" d="M36.9,447.8v8h-8v-8H36.9 M37.8,446.9H28v9.8h9.8V446.9L37.8,446.9z"/>
				</g>
				<g>
					<rect x="42" y="447.4" class="st2" width="8.9" height="8.9"/>
					<path class="st1" d="M50.4,447.8v8h-8v-8H50.4 M51.3,446.9h-9.8v9.8h9.8V446.9L51.3,446.9z"/>
				</g>
			</g>
			<g>
				<g>
					<rect x="118.5" y="447.4" class="st2" width="8.9" height="8.9"/>
					<path class="st1" d="M126.9,447.8v8h-8v-8H126.9 M127.8,446.9H118v9.8h9.8V446.9L127.8,446.9z"/>
				</g>
				<g>
					<rect x="131.2" y="447.4" class="st2" width="8.9" height="8.9"/>
					<path class="st1" d="M139.7,447.8v8h-8v-8H139.7 M140.6,446.9h-9.8v9.8h9.8V446.9L140.6,446.9z"/>
				</g>
				<g>
					<rect x="144.7" y="447.4" class="st2" width="8.9" height="8.9"/>
					<path class="st1" d="M153.1,447.8v8h-8v-8H153.1 M154.1,446.9h-9.8v9.8h9.8V446.9L154.1,446.9z"/>
				</g>
			</g>
			<g>
				<g>
					<rect x="67.1" y="447.4" class="st2" width="8.9" height="8.9"/>
					<path class="st1" d="M75.5,447.8v8h-8v-8H75.5 M76.4,446.9h-9.8v9.8h9.8V446.9L76.4,446.9z"/>
				</g>
				<g>
					<rect x="79.9" y="447.4" class="st2" width="8.9" height="8.9"/>
					<path class="st1" d="M88.3,447.8v8h-8v-8H88.3 M89.2,446.9h-9.8v9.8h9.8V446.9L89.2,446.9z"/>
				</g>
				<g>
					<rect x="93.4" y="447.4" class="st2" width="8.9" height="8.9"/>
					<path class="st1" d="M101.8,447.8v8h-8v-8H101.8 M102.7,446.9h-9.8v9.8h9.8V446.9L102.7,446.9z"/>
				</g>
			</g>
		</g>
		<g>
			<g>
				<g>
					<rect x="15.7" y="429.2" class="st2" width="8.9" height="8.9"/>
					<path class="st1" d="M24.1,429.6v8h-8v-8H24.1 M25.1,428.7h-9.8v9.8h9.8V428.7L25.1,428.7z"/>
				</g>
				<g>
					<rect x="28.5" y="429.2" class="st2" width="8.9" height="8.9"/>
					<path class="st1" d="M36.9,429.6v8h-8v-8H36.9 M37.8,428.7H28v9.8h9.8V428.7L37.8,428.7z"/>
				</g>
				<g>
					<rect x="42" y="429.2" class="st2" width="8.9" height="8.9"/>
					<path class="st1" d="M50.4,429.6v8h-8v-8H50.4 M51.3,428.7h-9.8v9.8h9.8V428.7L51.3,428.7z"/>
				</g>
			</g>
			<g>
				<g>
					<rect x="118.5" y="429.2" class="st2" width="8.9" height="8.9"/>
					<path class="st1" d="M126.9,429.6v8h-8v-8H126.9 M127.8,428.7H118v9.8h9.8V428.7L127.8,428.7z"/>
				</g>
				<g>
					<rect x="131.2" y="429.2" class="st2" width="8.9" height="8.9"/>
					<path class="st1" d="M139.7,429.6v8h-8v-8H139.7 M140.6,428.7h-9.8v9.8h9.8V428.7L140.6,428.7z"/>
				</g>
				<g>
					<rect x="144.7" y="429.2" class="st2" width="8.9" height="8.9"/>
					<path class="st1" d="M153.1,429.6v8h-8v-8H153.1 M154.1,428.7h-9.8v9.8h9.8V428.7L154.1,428.7z"/>
				</g>
			</g>
			<g>
				<g>
					<rect x="67.1" y="429.2" class="st2" width="8.9" height="8.9"/>
					<path class="st1" d="M75.5,429.6v8h-8v-8H75.5 M76.4,428.7h-9.8v9.8h9.8V428.7L76.4,428.7z"/>
				</g>
				<g>
					<rect x="79.9" y="429.2" class="st2" width="8.9" height="8.9"/>
					<path class="st1" d="M88.3,429.6v8h-8v-8H88.3 M89.2,428.7h-9.8v9.8h9.8V428.7L89.2,428.7z"/>
				</g>
				<g>
					<rect x="93.4" y="429.2" class="st2" width="8.9" height="8.9"/>
					<path class="st1" d="M101.8,429.6v8h-8v-8H101.8 M102.7,428.7h-9.8v9.8h9.8V428.7L102.7,428.7z"/>
				</g>
			</g>
		</g>
	</g>
	<g>
		<g>
			<g>
				<g>
					<rect x="15.7" y="393.5" class="st2" width="8.9" height="8.9"/>
					<path class="st1" d="M24.1,393.9v8h-8v-8H24.1 M25.1,393h-9.8v9.8h9.8V393L25.1,393z"/>
				</g>
				<g>
					<rect x="28.5" y="393.5" class="st2" width="8.9" height="8.9"/>
					<path class="st1" d="M36.9,393.9v8h-8v-8H36.9 M37.8,393H28v9.8h9.8V393L37.8,393z"/>
				</g>
				<g>
					<rect x="42" y="393.5" class="st2" width="8.9" height="8.9"/>
					<path class="st1" d="M50.4,393.9v8h-8v-8H50.4 M51.3,393h-9.8v9.8h9.8V393L51.3,393z"/>
				</g>
			</g>
			<g>
				<g>
					<rect x="118.5" y="393.5" class="st2" width="8.9" height="8.9"/>
					<path class="st1" d="M126.9,393.9v8h-8v-8H126.9 M127.8,393H118v9.8h9.8V393L127.8,393z"/>
				</g>
				<g>
					<rect x="131.2" y="393.5" class="st2" width="8.9" height="8.9"/>
					<path class="st1" d="M139.7,393.9v8h-8v-8H139.7 M140.6,393h-9.8v9.8h9.8V393L140.6,393z"/>
				</g>
				<g>
					<rect x="144.7" y="393.5" class="st2" width="8.9" height="8.9"/>
					<path class="st1" d="M153.1,393.9v8h-8v-8H153.1 M154.1,393h-9.8v9.8h9.8V393L154.1,393z"/>
				</g>
			</g>
			<g>
				<g>
					<rect x="67.1" y="393.5" class="st2" width="8.9" height="8.9"/>
					<path class="st1" d="M75.5,393.9v8h-8v-8H75.5 M76.4,393h-9.8v9.8h9.8V393L76.4,393z"/>
				</g>
				<g>
					<rect x="79.9" y="393.5" class="st2" width="8.9" height="8.9"/>
					<path class="st1" d="M88.3,393.9v8h-8v-8H88.3 M89.2,393h-9.8v9.8h9.8V393L89.2,393z"/>
				</g>
				<g>
					<rect x="93.4" y="393.5" class="st2" width="8.9" height="8.9"/>
					<path class="st1" d="M101.8,393.9v8h-8v-8H101.8 M102.7,393h-9.8v9.8h9.8V393L102.7,393z"/>
				</g>
			</g>
		</g>
		<g>
			<g>
				<g>
					<rect x="15.7" y="375.3" class="st2" width="8.9" height="8.9"/>
					<path class="st1" d="M24.1,375.8v8h-8v-8H24.1 M25.1,374.9h-9.8v9.8h9.8V374.9L25.1,374.9z"/>
				</g>
				<g>
					<rect x="28.5" y="375.3" class="st2" width="8.9" height="8.9"/>
					<path class="st1" d="M36.9,375.8v8h-8v-8H36.9 M37.8,374.9H28v9.8h9.8V374.9L37.8,374.9z"/>
				</g>
				<g>
					<rect x="42" y="375.3" class="st2" width="8.9" height="8.9"/>
					<path class="st1" d="M50.4,375.8v8h-8v-8H50.4 M51.3,374.9h-9.8v9.8h9.8V374.9L51.3,374.9z"/>
				</g>
			</g>
			<g>
				<g>
					<rect x="118.5" y="375.3" class="st2" width="8.9" height="8.9"/>
					<path class="st1" d="M126.9,375.8v8h-8v-8H126.9 M127.8,374.9H118v9.8h9.8V374.9L127.8,374.9z"/>
				</g>
				<g>
					<rect x="131.2" y="375.3" class="st2" width="8.9" height="8.9"/>
					<path class="st1" d="M139.7,375.8v8h-8v-8H139.7 M140.6,374.9h-9.8v9.8h9.8V374.9L140.6,374.9z"/>
				</g>
				<g>
					<rect x="144.7" y="375.3" class="st2" width="8.9" height="8.9"/>
					<path class="st1" d="M153.1,375.8v8h-8v-8H153.1 M154.1,374.9h-9.8v9.8h9.8V374.9L154.1,374.9z"/>
				</g>
			</g>
			<g>
				<g>
					<rect x="67.1" y="375.3" class="st2" width="8.9" height="8.9"/>
					<path class="st1" d="M75.5,375.8v8h-8v-8H75.5 M76.4,374.9h-9.8v9.8h9.8V374.9L76.4,374.9z"/>
				</g>
				<g>
					<rect x="79.9" y="375.3" class="st2" width="8.9" height="8.9"/>
					<path class="st1" d="M88.3,375.8v8h-8v-8H88.3 M89.2,374.9h-9.8v9.8h9.8V374.9L89.2,374.9z"/>
				</g>
				<g>
					<rect x="93.4" y="375.3" class="st2" width="8.9" height="8.9"/>
					<path class="st1" d="M101.8,375.8v8h-8v-8H101.8 M102.7,374.9h-9.8v9.8h9.8V374.9L102.7,374.9z"/>
				</g>
			</g>
		</g>
		<g>
			<g>
				<g>
					<rect x="15.7" y="357.2" class="st2" width="8.9" height="8.9"/>
					<path class="st1" d="M24.1,357.6v8h-8v-8H24.1 M25.1,356.7h-9.8v9.8h9.8V356.7L25.1,356.7z"/>
				</g>
				<g>
					<rect x="28.5" y="357.2" class="st2" width="8.9" height="8.9"/>
					<path class="st1" d="M36.9,357.6v8h-8v-8H36.9 M37.8,356.7H28v9.8h9.8V356.7L37.8,356.7z"/>
				</g>
				<g>
					<rect x="42" y="357.2" class="st2" width="8.9" height="8.9"/>
					<path class="st1" d="M50.4,357.6v8h-8v-8H50.4 M51.3,356.7h-9.8v9.8h9.8V356.7L51.3,356.7z"/>
				</g>
			</g>
			<g>
				<g>
					<rect x="118.5" y="357.2" class="st2" width="8.9" height="8.9"/>
					<path class="st1" d="M126.9,357.6v8h-8v-8H126.9 M127.8,356.7H118v9.8h9.8V356.7L127.8,356.7z"/>
				</g>
				<g>
					<rect x="131.2" y="357.2" class="st2" width="8.9" height="8.9"/>
					<path class="st1" d="M139.7,357.6v8h-8v-8H139.7 M140.6,356.7h-9.8v9.8h9.8V356.7L140.6,356.7z"/>
				</g>
				<g>
					<rect x="144.7" y="357.2" class="st2" width="8.9" height="8.9"/>
					<path class="st1" d="M153.1,357.6v8h-8v-8H153.1 M154.1,356.7h-9.8v9.8h9.8V356.7L154.1,356.7z"/>
				</g>
			</g>
			<g>
				<g>
					<rect x="67.1" y="357.2" class="st2" width="8.9" height="8.9"/>
					<path class="st1" d="M75.5,357.6v8h-8v-8H75.5 M76.4,356.7h-9.8v9.8h9.8V356.7L76.4,356.7z"/>
				</g>
				<g>
					<rect x="79.9" y="357.2" class="st2" width="8.9" height="8.9"/>
					<path class="st1" d="M88.3,357.6v8h-8v-8H88.3 M89.2,356.7h-9.8v9.8h9.8V356.7L89.2,356.7z"/>
				</g>
				<g>
					<rect x="93.4" y="357.2" class="st2" width="8.9" height="8.9"/>
					<path class="st1" d="M101.8,357.6v8h-8v-8H101.8 M102.7,356.7h-9.8v9.8h9.8V356.7L102.7,356.7z"/>
				</g>
			</g>
		</g>
		<g>
			<g>
				<g>
					<rect x="15.7" y="339" class="st2" width="8.9" height="8.9"/>
					<path class="st1" d="M24.1,339.5v8h-8v-8H24.1 M25.1,338.6h-9.8v9.8h9.8V338.6L25.1,338.6z"/>
				</g>
				<g>
					<rect x="28.5" y="339" class="st2" width="8.9" height="8.9"/>
					<path class="st1" d="M36.9,339.5v8h-8v-8H36.9 M37.8,338.6H28v9.8h9.8V338.6L37.8,338.6z"/>
				</g>
				<g>
					<rect x="42" y="339" class="st2" width="8.9" height="8.9"/>
					<path class="st1" d="M50.4,339.5v8h-8v-8H50.4 M51.3,338.6h-9.8v9.8h9.8V338.6L51.3,338.6z"/>
				</g>
			</g>
			<g>
				<g>
					<rect x="118.5" y="339" class="st2" width="8.9" height="8.9"/>
					<path class="st1" d="M126.9,339.5v8h-8v-8H126.9 M127.8,338.6H118v9.8h9.8V338.6L127.8,338.6z"/>
				</g>
				<g>
					<rect x="131.2" y="339" class="st2" width="8.9" height="8.9"/>
					<path class="st1" d="M139.7,339.5v8h-8v-8H139.7 M140.6,338.6h-9.8v9.8h9.8V338.6L140.6,338.6z"/>
				</g>
				<g>
					<rect x="144.7" y="339" class="st2" width="8.9" height="8.9"/>
					<path class="st1" d="M153.1,339.5v8h-8v-8H153.1 M154.1,338.6h-9.8v9.8h9.8V338.6L154.1,338.6z"/>
				</g>
			</g>
			<g>
				<g>
					<rect x="67.1" y="339" class="st2" width="8.9" height="8.9"/>
					<path class="st1" d="M75.5,339.5v8h-8v-8H75.5 M76.4,338.6h-9.8v9.8h9.8V338.6L76.4,338.6z"/>
				</g>
				<g>
					<rect x="79.9" y="339" class="st2" width="8.9" height="8.9"/>
					<path class="st1" d="M88.3,339.5v8h-8v-8H88.3 M89.2,338.6h-9.8v9.8h9.8V338.6L89.2,338.6z"/>
				</g>
				<g>
					<rect x="93.4" y="339" class="st2" width="8.9" height="8.9"/>
					<path class="st1" d="M101.8,339.5v8h-8v-8H101.8 M102.7,338.6h-9.8v9.8h9.8V338.6L102.7,338.6z"/>
				</g>
			</g>
		</g>
		<g>
			<g>
				<g>
					<rect x="15.7" y="320.9" class="st2" width="8.9" height="8.9"/>
					<path class="st1" d="M24.1,321.3v8h-8v-8H24.1 M25.1,320.4h-9.8v9.8h9.8V320.4L25.1,320.4z"/>
				</g>
				<g>
					<rect x="28.5" y="320.9" class="st2" width="8.9" height="8.9"/>
					<path class="st1" d="M36.9,321.3v8h-8v-8H36.9 M37.8,320.4H28v9.8h9.8V320.4L37.8,320.4z"/>
				</g>
				<g>
					<rect x="42" y="320.9" class="st2" width="8.9" height="8.9"/>
					<path class="st1" d="M50.4,321.3v8h-8v-8H50.4 M51.3,320.4h-9.8v9.8h9.8V320.4L51.3,320.4z"/>
				</g>
			</g>
			<g>
				<g>
					<rect x="118.5" y="320.9" class="st2" width="8.9" height="8.9"/>
					<path class="st1" d="M126.9,321.3v8h-8v-8H126.9 M127.8,320.4H118v9.8h9.8V320.4L127.8,320.4z"/>
				</g>
				<g>
					<rect x="131.2" y="320.9" class="st2" width="8.9" height="8.9"/>
					<path class="st1" d="M139.7,321.3v8h-8v-8H139.7 M140.6,320.4h-9.8v9.8h9.8V320.4L140.6,320.4z"/>
				</g>
				<g>
					<rect x="144.7" y="320.9" class="st2" width="8.9" height="8.9"/>
					<path class="st1" d="M153.1,321.3v8h-8v-8H153.1 M154.1,320.4h-9.8v9.8h9.8V320.4L154.1,320.4z"/>
				</g>
			</g>
			<g>
				<g>
					<rect x="67.1" y="320.9" class="st2" width="8.9" height="8.9"/>
					<path class="st1" d="M75.5,321.3v8h-8v-8H75.5 M76.4,320.4h-9.8v9.8h9.8V320.4L76.4,320.4z"/>
				</g>
				<g>
					<rect x="79.9" y="320.9" class="st2" width="8.9" height="8.9"/>
					<path class="st1" d="M88.3,321.3v8h-8v-8H88.3 M89.2,320.4h-9.8v9.8h9.8V320.4L89.2,320.4z"/>
				</g>
				<g>
					<rect x="93.4" y="320.9" class="st2" width="8.9" height="8.9"/>
					<path class="st1" d="M101.8,321.3v8h-8v-8H101.8 M102.7,320.4h-9.8v9.8h9.8V320.4L102.7,320.4z"/>
				</g>
			</g>
		</g>
		<g>
			<g>
				<g>
					<rect x="15.7" y="302.7" class="st2" width="8.9" height="8.9"/>
					<path class="st1" d="M24.1,303.2v8h-8v-8H24.1 M25.1,302.3h-9.8v9.8h9.8V302.3L25.1,302.3z"/>
				</g>
				<g>
					<rect x="28.5" y="302.7" class="st2" width="8.9" height="8.9"/>
					<path class="st1" d="M36.9,303.2v8h-8v-8H36.9 M37.8,302.3H28v9.8h9.8V302.3L37.8,302.3z"/>
				</g>
				<g>
					<rect x="42" y="302.7" class="st2" width="8.9" height="8.9"/>
					<path class="st1" d="M50.4,303.2v8h-8v-8H50.4 M51.3,302.3h-9.8v9.8h9.8V302.3L51.3,302.3z"/>
				</g>
			</g>
			<g>
				<g>
					<rect x="118.5" y="302.7" class="st2" width="8.9" height="8.9"/>
					<path class="st1" d="M126.9,303.2v8h-8v-8H126.9 M127.8,302.3H118v9.8h9.8V302.3L127.8,302.3z"/>
				</g>
				<g>
					<rect x="131.2" y="302.7" class="st2" width="8.9" height="8.9"/>
					<path class="st1" d="M139.7,303.2v8h-8v-8H139.7 M140.6,302.3h-9.8v9.8h9.8V302.3L140.6,302.3z"/>
				</g>
				<g>
					<rect x="144.7" y="302.7" class="st2" width="8.9" height="8.9"/>
					<path class="st1" d="M153.1,303.2v8h-8v-8H153.1 M154.1,302.3h-9.8v9.8h9.8V302.3L154.1,302.3z"/>
				</g>
			</g>
			<g>
				<g>
					<rect x="67.1" y="302.7" class="st2" width="8.9" height="8.9"/>
					<path class="st1" d="M75.5,303.2v8h-8v-8H75.5 M76.4,302.3h-9.8v9.8h9.8V302.3L76.4,302.3z"/>
				</g>
				<g>
					<rect x="79.9" y="302.7" class="st2" width="8.9" height="8.9"/>
					<path class="st1" d="M88.3,303.2v8h-8v-8H88.3 M89.2,302.3h-9.8v9.8h9.8V302.3L89.2,302.3z"/>
				</g>
				<g>
					<rect x="93.4" y="302.7" class="st2" width="8.9" height="8.9"/>
					<path class="st1" d="M101.8,303.2v8h-8v-8H101.8 M102.7,302.3h-9.8v9.8h9.8V302.3L102.7,302.3z"/>
				</g>
			</g>
		</g>
		<g>
			<g>
				<g>
					<rect x="15.7" y="284.6" class="st2" width="8.9" height="8.9"/>
					<path class="st1" d="M24.1,285v8h-8v-8H24.1 M25.1,284.1h-9.8v9.8h9.8V284.1L25.1,284.1z"/>
				</g>
				<g>
					<rect x="28.5" y="284.6" class="st2" width="8.9" height="8.9"/>
					<path class="st1" d="M36.9,285v8h-8v-8H36.9 M37.8,284.1H28v9.8h9.8V284.1L37.8,284.1z"/>
				</g>
				<g>
					<rect x="42" y="284.6" class="st2" width="8.9" height="8.9"/>
					<path class="st1" d="M50.4,285v8h-8v-8H50.4 M51.3,284.1h-9.8v9.8h9.8V284.1L51.3,284.1z"/>
				</g>
			</g>
			<g>
				<g>
					<rect x="118.5" y="284.6" class="st2" width="8.9" height="8.9"/>
					<path class="st1" d="M126.9,285v8h-8v-8H126.9 M127.8,284.1H118v9.8h9.8V284.1L127.8,284.1z"/>
				</g>
				<g>
					<rect x="131.2" y="284.6" class="st2" width="8.9" height="8.9"/>
					<path class="st1" d="M139.7,285v8h-8v-8H139.7 M140.6,284.1h-9.8v9.8h9.8V284.1L140.6,284.1z"/>
				</g>
				<g>
					<rect x="144.7" y="284.6" class="st2" width="8.9" height="8.9"/>
					<path class="st1" d="M153.1,285v8h-8v-8H153.1 M154.1,284.1h-9.8v9.8h9.8V284.1L154.1,284.1z"/>
				</g>
			</g>
			<g>
				<g>
					<rect x="67.1" y="284.6" class="st2" width="8.9" height="8.9"/>
					<path class="st1" d="M75.5,285v8h-8v-8H75.5 M76.4,284.1h-9.8v9.8h9.8V284.1L76.4,284.1z"/>
				</g>
				<g>
					<rect x="79.9" y="284.6" class="st2" width="8.9" height="8.9"/>
					<path class="st1" d="M88.3,285v8h-8v-8H88.3 M89.2,284.1h-9.8v9.8h9.8V284.1L89.2,284.1z"/>
				</g>
				<g>
					<rect x="93.4" y="284.6" class="st2" width="8.9" height="8.9"/>
					<path class="st1" d="M101.8,285v8h-8v-8H101.8 M102.7,284.1h-9.8v9.8h9.8V284.1L102.7,284.1z"/>
				</g>
			</g>
		</g>
		<g>
			<g>
				<g>
					<rect x="15.7" y="266.4" class="st2" width="8.9" height="8.9"/>
					<path class="st1" d="M24.1,266.9v8h-8v-8H24.1 M25.1,266h-9.8v9.8h9.8V266L25.1,266z"/>
				</g>
				<g>
					<rect x="28.5" y="266.4" class="st2" width="8.9" height="8.9"/>
					<path class="st1" d="M36.9,266.9v8h-8v-8H36.9 M37.8,266H28v9.8h9.8V266L37.8,266z"/>
				</g>
				<g>
					<rect x="42" y="266.4" class="st2" width="8.9" height="8.9"/>
					<path class="st1" d="M50.4,266.9v8h-8v-8H50.4 M51.3,266h-9.8v9.8h9.8V266L51.3,266z"/>
				</g>
			</g>
			<g>
				<g>
					<rect x="118.5" y="266.4" class="st2" width="8.9" height="8.9"/>
					<path class="st1" d="M126.9,266.9v8h-8v-8H126.9 M127.8,266H118v9.8h9.8V266L127.8,266z"/>
				</g>
				<g>
					<rect x="131.2" y="266.4" class="st2" width="8.9" height="8.9"/>
					<path class="st1" d="M139.7,266.9v8h-8v-8H139.7 M140.6,266h-9.8v9.8h9.8V266L140.6,266z"/>
				</g>
				<g>
					<rect x="144.7" y="266.4" class="st2" width="8.9" height="8.9"/>
					<path class="st1" d="M153.1,266.9v8h-8v-8H153.1 M154.1,266h-9.8v9.8h9.8V266L154.1,266z"/>
				</g>
			</g>
			<g>
				<g>
					<rect x="67.1" y="266.4" class="st2" width="8.9" height="8.9"/>
					<path class="st1" d="M75.5,266.9v8h-8v-8H75.5 M76.4,266h-9.8v9.8h9.8V266L76.4,266z"/>
				</g>
				<g>
					<rect x="79.9" y="266.4" class="st2" width="8.9" height="8.9"/>
					<path class="st1" d="M88.3,266.9v8h-8v-8H88.3 M89.2,266h-9.8v9.8h9.8V266L89.2,266z"/>
				</g>
				<g>
					<rect x="93.4" y="266.4" class="st2" width="8.9" height="8.9"/>
					<path class="st1" d="M101.8,266.9v8h-8v-8H101.8 M102.7,266h-9.8v9.8h9.8V266L102.7,266z"/>
				</g>
			</g>
		</g>
	</g>
	<g>
		<rect x="54.6" y="266.4" class="st2" width="8.9" height="552.8"/>
		<path class="st1" d="M63,266.9v551.9h-8V266.9H63 M63.9,266h-9.8v553.7h9.8V266L63.9,266z"/>
	</g>
	<g>
		<rect x="106" y="266.4" class="st2" width="8.9" height="552.8"/>
		<path class="st1" d="M114.4,266.9v551.9h-8V266.9H114.4 M115.3,266h-9.8v553.7h9.8V266L115.3,266z"/>
	</g>
	<g>
		<rect x="118" y="411.1" class="st1" width="36" height="9.8"/>
		<rect x="66.6" y="411.1" class="st1" width="36" height="9.8"/>
		<rect x="15.3" y="411.1" class="st1" width="36" height="9.8"/>
	</g>
	<g>
		<g>
			<rect x="34.2" y="232.6" class="st2" width="8.9" height="8.9"/>
			<path class="st1" d="M42.6,233v7.9h-8V233H42.6 M43.5,232.1h-9.8v9.8h9.8V232.1L43.5,232.1z"/>
		</g>
		<g>
			<rect x="47.5" y="232.6" class="st2" width="8.9" height="8.9"/>
			<path class="st1" d="M55.9,233v7.9h-8V233H55.9 M56.8,232.1H47v9.8h9.8V232.1L56.8,232.1z"/>
		</g>
		<g>
			<rect x="60.8" y="232.6" class="st2" width="8.9" height="8.9"/>
			<path class="st1" d="M69.2,233v7.9h-8V233H69.2 M70.1,232.1h-9.8v9.8h9.8V232.1L70.1,232.1z"/>
		</g>
		<g>
			<rect x="74.1" y="232.6" class="st2" width="8.9" height="8.9"/>
			<path class="st1" d="M82.5,233v7.9h-8V233H82.5 M83.4,232.1h-9.8v9.8h9.8V232.1L83.4,232.1z"/>
		</g>
		<g>
			<rect x="87.4" y="232.6" class="st2" width="8.9" height="8.9"/>
			<path class="st1" d="M95.8,233v7.9h-8V233H95.8 M96.7,232.1h-9.8v9.8h9.8V232.1L96.7,232.1z"/>
		</g>
		<g>
			<rect x="100.7" y="232.6" class="st2" width="8.9" height="8.9"/>
			<path class="st1" d="M109.1,233v7.9h-8V233H109.1 M110,232.1h-9.8v9.8h9.8V232.1L110,232.1z"/>
		</g>
		<g>
			<rect x="114" y="232.6" class="st2" width="8.9" height="8.9"/>
			<path class="st1" d="M122.4,233v7.9h-8V233H122.4 M123.3,232.1h-9.8v9.8h9.8V232.1L123.3,232.1z"/>
		</g>
		<g>
			<rect x="127.3" y="232.6" class="st2" width="8.9" height="8.9"/>
			<path class="st1" d="M135.7,233v7.9h-8V233H135.7 M136.6,232.1h-9.8v9.8h9.8V232.1L136.6,232.1z"/>
		</g>
	</g>
	<g>
		<g>
			<rect x="34.2" y="218.3" class="st2" width="8.9" height="8.9"/>
			<path class="st1" d="M42.6,218.7v7.9h-8v-7.9H42.6 M43.5,217.8h-9.8v9.8h9.8V217.8L43.5,217.8z"/>
		</g>
		<g>
			<rect x="47.5" y="218.3" class="st2" width="8.9" height="8.9"/>
			<path class="st1" d="M55.9,218.7v7.9h-8v-7.9H55.9 M56.8,217.8H47v9.8h9.8V217.8L56.8,217.8z"/>
		</g>
		<g>
			<rect x="60.8" y="218.3" class="st2" width="8.9" height="8.9"/>
			<path class="st1" d="M69.2,218.7v7.9h-8v-7.9H69.2 M70.1,217.8h-9.8v9.8h9.8V217.8L70.1,217.8z"/>
		</g>
		<g>
			<rect x="74.1" y="218.3" class="st2" width="8.9" height="8.9"/>
			<path class="st1" d="M82.5,218.7v7.9h-8v-7.9H82.5 M83.4,217.8h-9.8v9.8h9.8V217.8L83.4,217.8z"/>
		</g>
		<g>
			<rect x="87.4" y="218.3" class="st2" width="8.9" height="8.9"/>
			<path class="st1" d="M95.8,218.7v7.9h-8v-7.9H95.8 M96.7,217.8h-9.8v9.8h9.8V217.8L96.7,217.8z"/>
		</g>
		<g>
			<rect x="100.7" y="218.3" class="st2" width="8.9" height="8.9"/>
			<path class="st1" d="M109.1,218.7v7.9h-8v-7.9H109.1 M110,217.8h-9.8v9.8h9.8V217.8L110,217.8z"/>
		</g>
		<g>
			<rect x="114" y="218.3" class="st2" width="8.9" height="8.9"/>
			<path class="st1" d="M122.4,218.7v7.9h-8v-7.9H122.4 M123.3,217.8h-9.8v9.8h9.8V217.8L123.3,217.8z"/>
		</g>
		<g>
			<rect x="127.3" y="218.3" class="st2" width="8.9" height="8.9"/>
			<path class="st1" d="M135.7,218.7v7.9h-8v-7.9H135.7 M136.6,217.8h-9.8v9.8h9.8V217.8L136.6,217.8z"/>
		</g>
	</g>
	<g>
		<g>
			<rect x="34.2" y="204" class="st2" width="8.9" height="8.9"/>
			<path class="st1" d="M42.6,204.5v7.9h-8v-7.9H42.6 M43.5,203.6h-9.8v9.8h9.8V203.6L43.5,203.6z"/>
		</g>
		<g>
			<rect x="47.5" y="204" class="st2" width="8.9" height="8.9"/>
			<path class="st1" d="M55.9,204.5v7.9h-8v-7.9H55.9 M56.8,203.6H47v9.8h9.8V203.6L56.8,203.6z"/>
		</g>
		<g>
			<rect x="60.8" y="204" class="st2" width="8.9" height="8.9"/>
			<path class="st1" d="M69.2,204.5v7.9h-8v-7.9H69.2 M70.1,203.6h-9.8v9.8h9.8V203.6L70.1,203.6z"/>
		</g>
		<g>
			<rect x="74.1" y="204" class="st2" width="8.9" height="8.9"/>
			<path class="st1" d="M82.5,204.5v7.9h-8v-7.9H82.5 M83.4,203.6h-9.8v9.8h9.8V203.6L83.4,203.6z"/>
		</g>
		<g>
			<rect x="87.4" y="204" class="st2" width="8.9" height="8.9"/>
			<path class="st1" d="M95.8,204.5v7.9h-8v-7.9H95.8 M96.7,203.6h-9.8v9.8h9.8V203.6L96.7,203.6z"/>
		</g>
		<g>
			<rect x="100.7" y="204" class="st2" width="8.9" height="8.9"/>
			<path class="st1" d="M109.1,204.5v7.9h-8v-7.9H109.1 M110,203.6h-9.8v9.8h9.8V203.6L110,203.6z"/>
		</g>
		<g>
			<rect x="114" y="204" class="st2" width="8.9" height="8.9"/>
			<path class="st1" d="M122.4,204.5v7.9h-8v-7.9H122.4 M123.3,203.6h-9.8v9.8h9.8V203.6L123.3,203.6z"/>
		</g>
		<g>
			<rect x="127.3" y="204" class="st2" width="8.9" height="8.9"/>
			<path class="st1" d="M135.7,204.5v7.9h-8v-7.9H135.7 M136.6,203.6h-9.8v9.8h9.8V203.6L136.6,203.6z"/>
		</g>
	</g>
	<g>
		<g>
			<g>
				<rect x="72.6" y="178.6" class="st2" width="8.9" height="8.9"/>
				<path class="st1" d="M81,179v7.9h-8V179H81 M81.9,178.1h-9.8v9.8h9.8V178.1L81.9,178.1z"/>
			</g>
			<g>
				<rect x="87.9" y="178.6" class="st2" width="8.9" height="8.9"/>
				<path class="st1" d="M96.3,179v7.9h-8V179H96.3 M97.2,178.1h-9.8v9.8h9.8V178.1L97.2,178.1z"/>
			</g>
		</g>
		<g>
			<g>
				<rect x="72.6" y="166.2" class="st2" width="8.9" height="8.9"/>
				<path class="st1" d="M81,166.6v7.9h-8v-7.9H81 M81.9,165.7h-9.8v9.8h9.8V165.7L81.9,165.7z"/>
			</g>
			<g>
				<rect x="87.9" y="166.2" class="st2" width="8.9" height="8.9"/>
				<path class="st1" d="M96.3,166.6v7.9h-8v-7.9H96.3 M97.2,165.7h-9.8v9.8h9.8V165.7L97.2,165.7z"/>
			</g>
		</g>
		<g>
			<g>
				<rect x="72.6" y="153.8" class="st2" width="8.9" height="8.9"/>
				<path class="st1" d="M81,154.3v7.9h-8v-7.9H81 M81.9,153.4h-9.8v9.8h9.8V153.4L81.9,153.4z"/>
			</g>
			<g>
				<rect x="87.9" y="153.8" class="st2" width="8.9" height="8.9"/>
				<path class="st1" d="M96.3,154.3v7.9h-8v-7.9H96.3 M97.2,153.4h-9.8v9.8h9.8V153.4L97.2,153.4z"/>
			</g>
		</g>
		<g>
			<g>
				<rect x="72.6" y="141.4" class="st2" width="8.9" height="8.9"/>
				<path class="st1" d="M81,141.9v7.9h-8v-7.9H81 M81.9,141h-9.8v9.8h9.8V141L81.9,141z"/>
			</g>
			<g>
				<rect x="87.9" y="141.4" class="st2" width="8.9" height="8.9"/>
				<path class="st1" d="M96.3,141.9v7.9h-8v-7.9H96.3 M97.2,141h-9.8v9.8h9.8V141L97.2,141z"/>
			</g>
		</g>
		<g>
			<g>
				<rect x="72.6" y="129.1" class="st2" width="8.9" height="8.9"/>
				<path class="st1" d="M81,129.5v7.9h-8v-7.9H81 M81.9,128.6h-9.8v9.8h9.8V128.6L81.9,128.6z"/>
			</g>
			<g>
				<rect x="87.9" y="129.1" class="st2" width="8.9" height="8.9"/>
				<path class="st1" d="M96.3,129.5v7.9h-8v-7.9H96.3 M97.2,128.6h-9.8v9.8h9.8V128.6L97.2,128.6z"/>
			</g>
		</g>
	</g>
</g>
</svg>
