<?xml version="1.0" encoding="utf-8"?>
<!-- Generator: Adobe Illustrator 26.5.0, SVG Export Plug-In . SVG Version: 6.00 Build 0)  -->
<svg version="1.1" id="Station_train" xmlns="http://www.w3.org/2000/svg" xmlns:xlink="http://www.w3.org/1999/xlink" x="0px"
	 y="0px" viewBox="0 0 469.5 296.6" style="enable-background:new 0 0 469.5 296.6;" xml:space="preserve">
<style type="text/css">
	.st0{fill:#FCBE1B;}
	.st1{fill-rule:evenodd;clip-rule:evenodd;fill:#261923;}
	.st2{fill:#E8629F;}
	.st3{fill:#FCBE1C;}
	.st4{fill:none;stroke:#E8629F;stroke-width:4;stroke-miterlimit:10;}
	.st5{fill:none;stroke:#FCBE1B;stroke-width:3.71;stroke-miterlimit:10;}
	.st6{fill:#261923;stroke:#E8629F;stroke-width:3;stroke-miterlimit:10;}
</style>
<g>
	<rect x="14.9" y="190" class="st0" width="439.6" height="106.5"/>
	<rect x="11.5" y="127.5" class="st0" width="446.4" height="62.5"/>
	<rect x="166.5" y="60.6" class="st0" width="136.5" height="236"/>
	<g>
		<path class="st1" d="M210,295.1v-55.3c0-13.6,11.1-24.7,24.7-24.7s24.7,11.1,24.7,24.7v55.3H210L210,295.1z"/>
		<path class="st2" d="M234.7,216.5c12.8,0,23.2,10.4,23.2,23.2v53.8h-46.5v-53.8C211.5,226.9,221.9,216.5,234.7,216.5 M234.7,213.5
			L234.7,213.5c-14.5,0-26.2,11.7-26.2,26.2v56.8H261v-56.8C261,225.3,249.2,213.5,234.7,213.5L234.7,213.5L234.7,213.5z"/>
	</g>
	<g>
		<path class="st1" d="M210,145.9v-39.5c0-13.6,11.1-24.7,24.7-24.7s24.7,11.1,24.7,24.7v39.5H210L210,145.9z"/>
		<path class="st2" d="M234.7,83.2c12.8,0,23.2,10.4,23.2,23.2v38h-46.5v-38C211.5,93.6,221.9,83.2,234.7,83.2 M234.7,80.2
			L234.7,80.2c-14.5,0-26.2,11.7-26.2,26.2v41H261v-41C261,91.9,249.2,80.2,234.7,80.2L234.7,80.2L234.7,80.2z"/>
	</g>
	<rect x="192.3" y="179.8" class="st2" width="84.8" height="20.5"/>
	<polygon class="st2" points="299.8,80.2 447.4,80.2 469.5,128.1 299.8,128.1 	"/>
	<polygon class="st2" points="169.7,80.2 22,80.2 0,128.1 169.7,128.1 	"/>
	<g>
		<polygon class="st3" points="169.5,57.6 169.5,55.4 234.7,3.8 300,55.4 300,57.6 		"/>
		<path class="st2" d="M234.7,7.6l59.4,46.9H175.4L234.7,7.6 M234.7,0l-68.2,53.9v6.6H303v-6.6L234.7,0L234.7,0L234.7,0z"/>
	</g>
	<line class="st4" x1="303" y1="128.1" x2="303" y2="296.6"/>
	<line class="st4" x1="166.5" y1="128.1" x2="166.5" y2="296.6"/>
	<g>
		<circle class="st2" cx="235.1" cy="34.1" r="16.8"/>
		<circle class="st0" cx="235.1" cy="34.1" r="2.8"/>
		<line class="st5" x1="235.1" y1="34.1" x2="235.1" y2="20.5"/>
		<line class="st5" x1="235.1" y1="34.1" x2="248.8" y2="34.1"/>
	</g>
	<g>
		<g>
			<path class="st1" d="M326.3,295.1v-46.7c0-10.5,8.6-19.1,19.1-19.1s19.1,8.6,19.1,19.1v46.7H326.3L326.3,295.1z"/>
			<path class="st2" d="M345.4,230.7c9.7,0,17.6,7.9,17.6,17.6v45.2h-35.2v-45.2C327.8,238.6,335.7,230.7,345.4,230.7 M345.4,227.7
				L345.4,227.7c-11.4,0-20.6,9.2-20.6,20.6v48.2h41.2v-48.2C366.1,237,356.8,227.7,345.4,227.7L345.4,227.7z"/>
		</g>
		<g>
			<path class="st1" d="M393.1,295.1v-46.7c0-10.5,8.6-19.1,19.1-19.1s19.1,8.6,19.1,19.1v46.7H393.1L393.1,295.1z"/>
			<path class="st2" d="M412.2,230.7c9.7,0,17.6,7.9,17.6,17.6v45.2h-35.2v-45.2C394.6,238.6,402.5,230.7,412.2,230.7 M412.2,227.7
				L412.2,227.7c-11.4,0-20.6,9.2-20.6,20.6v48.2h41.2v-48.2C432.8,237,423.6,227.7,412.2,227.7L412.2,227.7z"/>
		</g>
	</g>
	<g>
		<g>
			<path class="st1" d="M38.1,295.1v-46.7c0-10.5,8.6-19.1,19.1-19.1s19.1,8.6,19.1,19.1v46.7H38.1z"/>
			<path class="st2" d="M57.2,230.7c9.7,0,17.6,7.9,17.6,17.6v45.2H39.6v-45.2C39.6,238.6,47.5,230.7,57.2,230.7 M57.2,227.7
				L57.2,227.7c-11.4,0-20.6,9.2-20.6,20.6v48.2h41.2v-48.2C77.8,237,68.6,227.7,57.2,227.7L57.2,227.7z"/>
		</g>
		<g>
			<path class="st1" d="M104.9,295.1v-46.7c0-10.5,8.6-19.1,19.1-19.1s19.1,8.6,19.1,19.1v46.7H104.9z"/>
			<path class="st2" d="M124,230.7c9.7,0,17.6,7.9,17.6,17.6v45.2h-35.2v-45.2C106.4,238.6,114.3,230.7,124,230.7 M124,227.7
				L124,227.7c-11.4,0-20.6,9.2-20.6,20.6v48.2h41.2v-48.2C144.6,237,135.4,227.7,124,227.7L124,227.7z"/>
		</g>
	</g>
	<g>
		<g>
			<g>
				<path class="st1" d="M315.6,181.5V149c0-7.8,6.4-14.2,14.2-14.2S344,141.2,344,149v32.5H315.6L315.6,181.5z"/>
				<path class="st2" d="M329.8,136.3c7,0,12.7,5.7,12.7,12.7v31h-25.4v-31C317.1,142,322.8,136.3,329.8,136.3 M329.8,133.3
					L329.8,133.3c-8.7,0-15.7,7-15.7,15.7v34h31.4v-34C345.5,140.3,338.5,133.3,329.8,133.3L329.8,133.3L329.8,133.3z"/>
			</g>
			<g>
				<path class="st1" d="M413.8,181.5V149c0-7.8,6.4-14.2,14.2-14.2s14.2,6.4,14.2,14.2v32.5H413.8L413.8,181.5z"/>
				<path class="st2" d="M428,136.3c7,0,12.7,5.7,12.7,12.7v31h-25.4v-31C415.3,142,421,136.3,428,136.3 M428,133.3L428,133.3
					c-8.7,0-15.7,7-15.7,15.7v34h31.4v-34C443.7,140.3,436.7,133.3,428,133.3L428,133.3L428,133.3z"/>
			</g>
			<g>
				<path class="st1" d="M364.7,181.5V149c0-7.8,6.4-14.2,14.2-14.2s14.2,6.4,14.2,14.2v32.5H364.7L364.7,181.5z"/>
				<path class="st2" d="M378.9,136.3c7,0,12.7,5.7,12.7,12.7v31h-25.4v-31C366.2,142,371.9,136.3,378.9,136.3 M378.9,133.3
					L378.9,133.3c-8.7,0-15.7,7-15.7,15.7v34h31.4v-34C394.6,140.3,387.6,133.3,378.9,133.3L378.9,133.3L378.9,133.3z"/>
			</g>
		</g>
		<rect x="314.1" y="184.6" class="st6" width="31.4" height="0.4"/>
		<rect x="363.2" y="184.6" class="st6" width="31.4" height="0.4"/>
		<rect x="412.3" y="184.6" class="st6" width="31.4" height="0.4"/>
	</g>
	<g>
		<g>
			<g>
				<path class="st1" d="M27.2,181.5V149c0-7.8,6.4-14.2,14.2-14.2s14.2,6.4,14.2,14.2v32.5H27.2z"/>
				<path class="st2" d="M41.4,136.3c7,0,12.7,5.7,12.7,12.7v31H28.7v-31C28.7,142,34.4,136.3,41.4,136.3 M41.4,133.3L41.4,133.3
					c-8.7,0-15.7,7-15.7,15.7v34h31.4v-34C57.1,140.3,50.1,133.3,41.4,133.3L41.4,133.3L41.4,133.3z"/>
			</g>
			<g>
				<path class="st1" d="M125.4,181.5V149c0-7.8,6.4-14.2,14.2-14.2c7.8,0,14.2,6.4,14.2,14.2v32.5H125.4L125.4,181.5z"/>
				<path class="st2" d="M139.6,136.3c7,0,12.7,5.7,12.7,12.7v31h-25.4v-31C126.9,142,132.6,136.3,139.6,136.3 M139.6,133.3
					L139.6,133.3c-8.7,0-15.7,7-15.7,15.7v34h31.4v-34C155.4,140.3,148.3,133.3,139.6,133.3L139.6,133.3L139.6,133.3z"/>
			</g>
			<g>
				<path class="st1" d="M76.3,181.5V149c0-7.8,6.4-14.2,14.2-14.2s14.2,6.4,14.2,14.2v32.5H76.3L76.3,181.5z"/>
				<path class="st2" d="M90.5,136.3c7,0,12.7,5.7,12.7,12.7v31H77.8v-31C77.8,142,83.5,136.3,90.5,136.3 M90.5,133.3L90.5,133.3
					c-8.7,0-15.7,7-15.7,15.7v34h31.4v-34C106.2,140.3,99.2,133.3,90.5,133.3L90.5,133.3L90.5,133.3z"/>
			</g>
		</g>
		<rect x="25.7" y="184.6" class="st6" width="31.4" height="0.4"/>
		<rect x="74.8" y="184.6" class="st6" width="31.4" height="0.4"/>
		<rect x="123.9" y="184.6" class="st6" width="31.4" height="0.4"/>
	</g>
	<rect x="207.2" y="148.3" class="st6" width="55.9" height="0.4"/>
</g>
</svg>
