<?xml version="1.0" encoding="utf-8"?>
<!-- Generator: Adobe Illustrator 26.5.0, SVG Export Plug-In . SVG Version: 6.00 Build 0)  -->
<svg version="1.1" id="uuid-d456c535-008f-45d9-8cae-c7498c5f7b05"
	 xmlns="http://www.w3.org/2000/svg" xmlns:xlink="http://www.w3.org/1999/xlink" x="0px" y="0px" viewBox="0 0 251.2 343.9"
	 style="enable-background:new 0 0 251.2 343.9;" xml:space="preserve">
<style type="text/css">
	.st0{fill:#FCBE1B;}
	.st1{fill:#261923;}
	.st2{fill:#E8629F;}
</style>
<path class="st0" d="M125.6,0L125.6,0C56.2,0,0,56.2,0,125.6v218.3h251.2V125.6C251.2,56.2,195,0,125.6,0z"/>
<g>
	<path class="st1" d="M33,341.4V125.5c0-51.1,41.5-92.6,92.6-92.6s92.6,41.5,92.6,92.6v215.9H33z"/>
	<path class="st2" d="M125.6,35.4c49.7,0,90.1,40.4,90.1,90.1v213.4H35.5V125.5C35.5,75.8,75.9,35.4,125.6,35.4 M125.6,30.4
		L125.6,30.4c-52.5,0-95.1,42.6-95.1,95.1v218.4h190.2V125.5C220.7,73,178.1,30.4,125.6,30.4L125.6,30.4z"/>
</g>
</svg>
