<?xml version="1.0" encoding="utf-8"?>
<!-- Generator: Adobe Illustrator 26.5.0, SVG Export Plug-In . SVG Version: 6.00 Build 0)  -->
<svg version="1.1" id="Villa" xmlns="http://www.w3.org/2000/svg" xmlns:xlink="http://www.w3.org/1999/xlink" x="0px" y="0px"
	 viewBox="0 0 245.6 120.3" style="enable-background:new 0 0 245.6 120.3;" xml:space="preserve">
<style type="text/css">
	.st0{fill:#FCBE1B;}
	.st1{fill:#E8629F;}
	.st2{fill-rule:evenodd;clip-rule:evenodd;fill:#261923;}
	.st3{fill:#261923;}
	.st4{fill:none;stroke:#E8629F;stroke-width:2;stroke-miterlimit:10;}
</style>
<g>
	<rect x="85.7" y="22.4" class="st0" width="78" height="97.8"/>
	<rect x="143.5" class="st0" width="8.9" height="8.9"/>
	<polygon class="st1" points="153.8,8.9 124.7,8.9 95.6,8.9 81.5,22.4 124.7,22.4 167.8,22.4 	"/>
	<rect x="3.8" y="71" class="st0" width="81.9" height="49.3"/>
	<polygon class="st1" points="85.7,47.2 12.6,47.2 0,71 85.7,71 	"/>
	<g>
		<g>
			<path class="st2" d="M16,119.3V91.8c0-6.8,5.5-12.3,12.3-12.3c6.8,0,12.3,5.5,12.3,12.3v27.4H16L16,119.3z"/>
			<path class="st1" d="M28.3,80.5c6.2,0,11.3,5.1,11.3,11.3v26.4H17V91.8C17,85.6,22,80.5,28.3,80.5 M28.3,78.5L28.3,78.5
				c-7.4,0-13.3,6-13.3,13.3v28.4h26.6V91.8C41.6,84.5,35.6,78.5,28.3,78.5L28.3,78.5L28.3,78.5z"/>
		</g>
		<g>
			<path class="st2" d="M50.1,119.3V91.8c0-6.8,5.5-12.3,12.3-12.3s12.3,5.5,12.3,12.3v27.4H50.1L50.1,119.3z"/>
			<path class="st1" d="M62.5,80.5c6.2,0,11.3,5.1,11.3,11.3v26.4H51.1V91.8C51.1,85.6,56.2,80.5,62.5,80.5 M62.4,78.5L62.4,78.5
				c-7.4,0-13.3,6-13.3,13.3v28.4h26.6V91.8C75.7,84.5,69.8,78.5,62.4,78.5L62.4,78.5L62.4,78.5z"/>
		</g>
	</g>
	<rect x="163.7" y="71" class="st0" width="81.9" height="49.3"/>
	<rect x="163.7" y="60.1" class="st1" width="81.9" height="10.8"/>
	<g>
		<g>
			<rect x="208.8" y="79.5" class="st3" width="24.6" height="39.7"/>
			<path class="st1" d="M232.4,80.5v37.7h-22.6V80.5H232.4 M234.4,78.5h-26.6v41.7h26.6V78.5L234.4,78.5z"/>
		</g>
		<g>
			<rect x="174.6" y="79.5" class="st3" width="24.6" height="39.7"/>
			<path class="st1" d="M198.2,80.5v37.7h-22.6V80.5H198.2 M200.2,78.5h-26.6v41.7h26.6V78.5L200.2,78.5z"/>
		</g>
	</g>
	<g>
		<rect x="101.3" y="79.5" class="st3" width="46.8" height="39.7"/>
		<path class="st1" d="M147.1,80.5v37.7h-44.8V80.5H147.1 M149.1,78.5h-48.8v41.7h48.8V78.5L149.1,78.5z"/>
	</g>
	<g>
		<path class="st2" d="M101.3,70V55.6c0-12.9,10.5-23.4,23.4-23.4s23.4,10.5,23.4,23.4V70H101.3z"/>
		<path class="st1" d="M124.7,33.2c12.4,0,22.4,10,22.4,22.4V69h-44.8V55.6C102.3,43.2,112.3,33.2,124.7,33.2 M124.7,31.2
			L124.7,31.2c-13.5,0-24.4,10.9-24.4,24.4V71h48.8V55.6C149.1,42.1,138.1,31.2,124.7,31.2L124.7,31.2z"/>
	</g>
	<line class="st4" x1="124.7" y1="78.5" x2="124.7" y2="120.3"/>
</g>
</svg>
