<?xml version="1.0" encoding="utf-8"?>
<!-- Generator: Adobe Illustrator 26.5.0, SVG Export Plug-In . SVG Version: 6.00 Build 0)  -->
<svg version="1.1" id="uuid-1a204072-1c5d-41d1-b4f0-8b15ccd6597f"
	 xmlns="http://www.w3.org/2000/svg" xmlns:xlink="http://www.w3.org/1999/xlink" x="0px" y="0px" viewBox="0 0 344.1 187"
	 style="enable-background:new 0 0 344.1 187;" xml:space="preserve">
<style type="text/css">
	.st0{fill:#FCBE1B;}
	.st1{fill-rule:evenodd;clip-rule:evenodd;fill:#FCBE1B;}
	.st2{fill:#E6629F;}
	.st3{fill:#261923;}
</style>
<g>
	<rect x="98.3" y="50.3" class="st0" width="147.4" height="125.4"/>
	<g>
		<polygon class="st1" points="101.8,46.8 101.8,32.5 172,3.8 242.2,32.5 242.2,46.8 		"/>
		<path class="st2" d="M172,7.6l66.7,27.2v8.5H105.3v-8.5L172,7.6 M172,0L98.3,30.1v20.2h147.4V30.1L172,0L172,0L172,0z"/>
	</g>
	<rect x="98.3" y="175.7" class="st2" width="147.4" height="11.3"/>
	<g>
		<rect x="107.1" y="50.3" class="st2" width="11.3" height="128.8"/>
		<rect x="146.6" y="50.3" class="st2" width="11.3" height="128.8"/>
		<rect x="186.1" y="50.3" class="st2" width="11.3" height="128.8"/>
		<rect x="225.7" y="50.3" class="st2" width="11.3" height="128.8"/>
	</g>
	<g>
		<rect x="105.2" y="50.3" class="st2" width="15" height="5.7"/>
		<rect x="144.8" y="50.3" class="st2" width="15" height="5.7"/>
		<rect x="184.3" y="50.3" class="st2" width="15" height="5.7"/>
		<rect x="223.8" y="50.3" class="st2" width="15" height="5.7"/>
	</g>
	<g>
		<rect x="3.5" y="61.6" class="st0" width="94.9" height="108.4"/>
		<rect y="50.3" class="st2" width="98.3" height="11.3"/>
		<rect y="170.1" class="st2" width="98.3" height="11.3"/>
		<rect x="12.9" y="115.8" class="st3" width="21.3" height="44.4"/>
		<rect x="40.4" y="115.8" class="st3" width="21.3" height="44.4"/>
		<rect x="67.9" y="115.8" class="st3" width="21.3" height="44.4"/>
		<rect x="12.9" y="73.2" class="st3" width="21.3" height="27.2"/>
		<rect x="40.4" y="73.2" class="st3" width="21.3" height="27.2"/>
		<rect x="67.9" y="73.2" class="st3" width="21.3" height="27.2"/>
	</g>
	<g>
		<rect x="245.7" y="61.6" class="st0" width="94.9" height="108.4"/>
		<rect x="245.7" y="50.3" class="st2" width="98.3" height="11.3"/>
		<rect x="245.7" y="170.1" class="st2" width="98.3" height="11.3"/>
		<rect x="309.9" y="115.8" class="st3" width="21.3" height="44.4"/>
		<rect x="282.4" y="115.8" class="st3" width="21.3" height="44.4"/>
		<rect x="254.9" y="115.8" class="st3" width="21.3" height="44.4"/>
		<rect x="309.9" y="73.2" class="st3" width="21.3" height="27.2"/>
		<rect x="282.4" y="73.2" class="st3" width="21.3" height="27.2"/>
		<rect x="254.9" y="73.2" class="st3" width="21.3" height="27.2"/>
	</g>
	<rect x="122.1" y="115.8" class="st3" width="21.3" height="44.4"/>
	<rect x="122.1" y="73.2" class="st3" width="21.3" height="27.2"/>
	<rect x="200.6" y="115.8" class="st3" width="21.3" height="44.4"/>
	<rect x="200.6" y="73.2" class="st3" width="21.3" height="27.2"/>
	<rect x="161.4" y="73.2" class="st3" width="21.3" height="27.2"/>
	<path class="st3" d="M172,115.8L172,115.8c5.9,0,10.6,4.8,10.6,10.6v49.2h-21.3v-49.2C161.4,120.6,166.2,115.8,172,115.8L172,115.8
		z"/>
</g>
</svg>
