<?xml version="1.0" encoding="utf-8"?>
<!-- Generator: Adobe Illustrator 26.5.0, SVG Export Plug-In . SVG Version: 6.00 Build 0)  -->
<svg version="1.1" id="uuid-d07a0394-6d6a-45f3-8eb1-274d24fb33fc"
	 xmlns="http://www.w3.org/2000/svg" xmlns:xlink="http://www.w3.org/1999/xlink" x="0px" y="0px" viewBox="0 0 364.2 256.1"
	 style="enable-background:new 0 0 364.2 256.1;" xml:space="preserve">
<style type="text/css">
	.st0{fill:#FCBE1B;}
	.st1{fill:#261923;}
	.st2{fill:#E8629F;}
</style>
<g>
	<rect x="32.5" y="199.3" class="st0" width="317.7" height="56.8"/>
	<g>
		<rect x="267.7" y="200.3" class="st1" width="31.4" height="54.8"/>
		<path class="st2" d="M298.1,201.3v52.8h-29.4v-52.8H298.1 M300.1,199.3h-33.4v56.8h33.4V199.3L300.1,199.3z"/>
	</g>
	<g>
		<polygon class="st2" points="2.3,198.3 182.1,9 361.8,198.3 		"/>
		<path class="st0" d="M182.1,10.4l177.4,186.8H4.7L182.1,10.4 M182.1,7.5L0,199.3h364.2L182.1,7.5L182.1,7.5L182.1,7.5z"/>
	</g>
	<g>
		<polygon class="st2" points="118.2,72.8 182.1,5.6 245.9,72.8 		"/>
		<path class="st0" d="M182.1,7.1l61.5,64.8h-123L182.1,7.1 M182.1,4.2l-66.2,69.7h132.3L182.1,4.2L182.1,4.2L182.1,4.2z"/>
	</g>
	<g>
		<polygon class="st2" points="138.4,47.5 182.1,1.5 225.8,47.5 		"/>
		<path class="st0" d="M182.1,2.9l41.4,43.6h-82.8L182.1,2.9 M182.1,0l-46,48.5h92.1L182.1,0L182.1,0L182.1,0z"/>
	</g>
</g>
</svg>
