<?xml version="1.0" encoding="utf-8"?>
<!-- Generator: Adobe Illustrator 26.5.0, SVG Export Plug-In . SVG Version: 6.00 Build 0)  -->
<svg version="1.1" id="uuid-89e9aaf8-bc1f-4473-bc0e-07d242056e55"
	 xmlns="http://www.w3.org/2000/svg" xmlns:xlink="http://www.w3.org/1999/xlink" x="0px" y="0px" viewBox="0 0 445.5 445.5"
	 style="enable-background:new 0 0 445.5 445.5;" xml:space="preserve">
<style type="text/css">
	.st0{fill:#FCBE11;}
</style>
<path class="st0" d="M222.8,0C99.7,0,0,99.7,0,222.7s99.7,222.8,222.8,222.8s222.8-99.7,222.8-222.8S345.8,0,222.8,0z M272.1,91.7
	h60v124h-60V91.7z M113.4,91.7h60v124h-60C113.4,215.7,113.4,91.7,113.4,91.7z M222.7,392.8c-91,0-165-74-165-165h50
	c0,63.4,51.6,115,115,115s115-51.6,115-115h50C387.8,318.7,313.7,392.8,222.7,392.8L222.7,392.8z"/>
</svg>
