<?xml version="1.0" encoding="utf-8"?>
<!-- Generator: Adobe Illustrator 26.5.0, SVG Export Plug-In . SVG Version: 6.00 Build 0)  -->
<svg version="1.1" id="uuid-9df65100-8bd4-49f1-8f98-8fac51963770"
	 xmlns="http://www.w3.org/2000/svg" xmlns:xlink="http://www.w3.org/1999/xlink" x="0px" y="0px" viewBox="0 0 445.7 576.1"
	 style="enable-background:new 0 0 445.7 576.1;" xml:space="preserve">
<style type="text/css">
	.st0{fill:#FCBE11;}
</style>
<path class="st0" d="M445.7,162V0L122.9,72.8v388.8c-12.8-7.9-28.7-12.5-45.9-12.5c-42.5,0-77,28.4-77,63.5s34.5,63.5,77,63.5
	s74.6-26.5,76.9-59.9l0,0v-0.1c0.1-1.2,0.1-2.4,0.1-3.6s-0.1-2.4-0.1-3.6V227.8L414.6,169v217.9c-12.8-7.9-28.7-12.5-45.9-12.5
	c-42.5,0-77,28.4-77,63.5s34.5,63.5,77,63.5s74.6-26.5,76.9-59.9l0,0v-0.1c0.1-1.2,0.1-2.4,0.1-3.6s0-2.4-0.1-3.6V162H445.7z"/>
</svg>
