<?xml version="1.0" encoding="UTF-8"?>
<svg id="uuid-df0c6f5a-40eb-46de-a5f2-202dd79cac67" data-name="Layer 1" xmlns="http://www.w3.org/2000/svg" viewBox="0 0 254.73 320">
  <path d="M254.73,122.74c0-1.95-.14-3.85-.42-5.71C249.05,51.53,194.23,0,127.37,0S5.68,51.53,.42,117.04c-.28,1.86-.42,3.76-.42,5.71,0,.87,.01,1.74,.03,2.6-.01,.67-.03,1.34-.03,2.02,0,6.74,.53,13.35,1.53,19.8,9.08,72.19,57.92,141.98,125.83,172.83,67.91-30.86,116.75-100.64,125.83-172.83,1.01-6.45,1.53-13.07,1.53-19.8,0-.67-.01-1.34-.03-2.02,.01-.87,.03-1.73,.03-2.6ZM112.62,217.16c-21.97,3.45-45.22-3.28-62.15-20.21-16.93-16.93-23.65-40.18-20.21-62.15,21.97-3.45,45.22,3.28,62.15,20.21,16.93,16.93,23.65,40.18,20.21,62.15Zm91.65-20.21c-16.93,16.93-40.18,23.65-62.15,20.21-3.45-21.97,3.28-45.22,20.2-62.15,16.93-16.93,40.18-23.65,62.15-20.21,3.45,21.97-3.28,45.23-20.21,62.15Z" style="fill: #fcbe11;"/>
</svg>