<?xml version="1.0" encoding="utf-8"?>
<!-- Generator: Adobe Illustrator 28.2.0, SVG Export Plug-In . SVG Version: 6.00 Build 0)  -->
<svg version="1.1" id="Calque_1" xmlns="http://www.w3.org/2000/svg" xmlns:xlink="http://www.w3.org/1999/xlink" x="0px" y="0px"
	 viewBox="0 0 113.4 113.4" style="enable-background:new 0 0 113.4 113.4;" xml:space="preserve">
<style type="text/css">
	.st0{fill:#E763A0;}
</style>
<g>
	<path class="st0" d="M38.6,73.7c-0.3-0.3-0.7-0.6-1.2-0.6c-0.3,0-0.5,0-0.7,0.1c0-0.2,0-0.4-0.1-0.5c-0.1-0.3-0.3-0.7-0.6-0.9
		c-0.3-0.2-0.5-0.3-0.9-0.4c-0.3-0.1-0.6-0.1-0.9,0c-0.3,0-0.6,0.1-0.9,0.4c-0.2,0.2-0.5,0.5-0.9,0.8l-1.9,2.1
		c-0.1,0.1-0.1,0.3,0,0.4l5.2,4.8c0.1,0,0.1,0.1,0.2,0.1c0,0,0,0,0,0c0.1,0,0.1,0,0.2-0.1l1.6-1.8c0.2-0.2,0.4-0.5,0.6-0.6
		c0.3-0.4,0.5-0.6,0.6-0.7c0.2-0.3,0.4-0.6,0.4-1c0.1-0.4,0-0.7-0.1-1C39.1,74.3,38.9,74,38.6,73.7z M33,74.6l0.4-0.4
		c0.3-0.3,0.5-0.6,0.8-0.9c0,0,0.2-0.1,0.3-0.1c0.1,0,0.1,0,0.2,0.1c0,0,0.1,0.1,0.2,0.1c0.1,0.1,0.1,0.2,0.1,0.2
		c0,0.1-0.1,0.3-0.2,0.4c0,0-0.1,0.1-0.1,0.2c-0.1,0.1-0.3,0.4-0.6,0.6l-0.4,0.5L33,74.6z M37.4,75.7c0,0.1,0,0.2-0.1,0.3
		c0,0,0,0,0,0c0,0-0.1,0.1-0.1,0.1c-0.1,0.1-0.3,0.3-0.4,0.5L36,77.4l-1-0.9l0.6-0.7c0.5-0.6,0.7-0.8,0.8-0.8c0,0,0,0,0.1,0
		c0,0,0.1,0,0.2,0c0.1,0,0.1,0.1,0.2,0.1c0.1,0,0.1,0.1,0.2,0.1c0.1,0.1,0.2,0.3,0.2,0.4C37.4,75.6,37.4,75.6,37.4,75.7z"/>
	<path class="st0" d="M40,65.8c-1,0-1.8,0.4-2.7,1.3c-0.4,0.4-0.6,0.8-0.8,1.2l-0.1,0.2c-0.1,0.3-0.2,0.8-0.1,1.3
		c0,0.1,0,0.2,0.1,0.3c0,0.3,0.1,0.5,0.2,0.8c0.2,0.5,0.6,1,1.2,1.6c0,0,0,0,0,0c0.9,0.8,1.8,1.2,2.7,1.2c1,0,1.9-0.4,2.6-1.3
		c0.8-0.9,1.2-1.8,1.1-2.7c0-0.9-0.4-1.8-1.4-2.7C42,66.2,41,65.8,40,65.8z M42.3,69.8c0,0.5-0.1,0.9-0.4,1.2
		c-0.4,0.4-0.7,0.5-1.2,0.5c-0.4,0-0.9-0.3-1.5-0.7c-0.5-0.5-0.8-0.9-0.8-1.4c-0.1-0.5,0.2-0.9,0.3-1.1c0.3-0.3,0.8-0.5,1.2-0.5
		c0.4,0,1,0.3,1.5,0.7C41.9,68.9,42.3,69.5,42.3,69.8z"/>
	<path class="st0" d="M45,59.6c-0.1-0.1-0.3-0.1-0.4,0l-0.9,0.9c-0.1,0.1-0.1,0.1-0.1,0.2c0,0.1,0,0.1,0.1,0.2l2.7,2.6l-4.4-1
		c-0.1,0-0.2,0-0.3,0.1l-1,1c-0.1,0.1-0.1,0.1-0.1,0.2c0,0.1,0,0.1,0.1,0.2l5,4.9c0.1,0.1,0.1,0.1,0.2,0.1c0,0,0,0,0,0
		c0.1,0,0.2,0,0.2-0.1l0.9-1c0.1-0.1,0.1-0.3,0-0.4L44.5,65l4.3,1c0.1,0,0.2,0,0.3-0.1l1-1c0.1-0.1,0.1-0.1,0.1-0.2
		c0-0.1,0-0.1-0.1-0.2L45,59.6z"/>
	<path class="st0" d="M60.6,52.5c-0.5-0.3-1-0.3-1.3-0.2c-0.3,0-0.8,0.2-1.7,0.6l-2.1,1c-0.1,0.1-0.2,0.2-0.1,0.4l2.5,5.3l-4.7-4.3
		c-0.1-0.1-0.2-0.1-0.3,0l-1.4,0.7c-0.1,0.1-0.2,0.2-0.2,0.3l0.6,7.5c0,0.1,0.1,0.2,0.1,0.2c0,0,0.1,0,0.1,0c0,0,0.1,0,0.1,0
		l1.4-0.7c0.1-0.1,0.2-0.2,0.2-0.3l-0.2-1.5l2.1-1l1.1,1.1c0.1,0.1,0.2,0.1,0.3,0.1l1.4-0.7c0,0,0.1-0.1,0.1-0.1l1.2-0.6
		c0.1-0.1,0.2-0.2,0.1-0.4l-1-2.1l0.8-0.2c0.6-0.2,1-0.5,1.3-0.7l0.1-0.1c0.3-0.1,0.5-0.4,0.6-0.8c0.1-0.3,0.2-0.6,0.2-1
		c0-0.4-0.1-0.8-0.3-1.2C61.4,53.2,61.1,52.7,60.6,52.5z M53.2,58l1.2,1.1l-1,0.5L53.2,58z M60,54.9c-0.1,0.1-0.2,0.3-0.2,0.4
		c-0.2,0.2-0.5,0.4-0.9,0.5L58.4,56l-0.6-1.3l0.4-0.2c0.1-0.1,0.2-0.1,0.3-0.2c0.2-0.1,0.4-0.2,0.5-0.2c0,0,0.1,0,0.1,0
		c0.3-0.1,0.4-0.1,0.5,0c0.1,0.1,0.3,0.2,0.4,0.4C60,54.6,60,54.7,60,54.9z"/>
	<path class="st0" d="M73.1,42.6l1.2-1.4c0.1-0.1,0.1-0.3,0-0.4L73.4,40c-0.1,0-0.1-0.1-0.2-0.1c-0.1,0-0.1,0-0.2,0.1l-3.7,4.2
		c-0.1,0.1-0.1,0.3,0,0.4l0,0c-0.1-0.1-0.3-0.1-0.4,0l-3.6,3.8c-0.1,0.1-0.1,0.3,0,0.4l0.4,0.4c-0.4-0.2-0.8-0.2-1.3-0.1
		c-0.3,0.1-0.7,0.3-1.2,0.6l-2.3,1.4c-0.1,0.1-0.2,0.3-0.1,0.4l3.5,6c0.1,0.1,0.1,0.1,0.2,0.1c0,0,0.1,0,0.1,0L66,57
		c0.1,0,0.1-0.1,0.1-0.2s0-0.2,0-0.2l-1.2-2l0.5-0.3c0.4-0.2,0.7-0.4,0.9-0.6c0.1-0.1,0.2-0.1,0.3-0.2c0.2-0.2,0.4-0.4,0.6-0.8
		c0.2-0.4,0.2-0.7,0.2-1.1c-0.1-0.4-0.2-0.7-0.4-1.1l3.4,3.3c0.1,0.1,0.1,0.1,0.2,0.1c0,0,0,0,0,0c0.1,0,0.1,0,0.2-0.1l3.7-3.9
		c0.1-0.1,0.1-0.1,0.1-0.2s0-0.1-0.1-0.2l-0.9-0.8c-0.1-0.1-0.3-0.1-0.4,0l-2.5,2.6l-1-0.9l2.4-2.3c0.1-0.1,0.1-0.1,0.1-0.2
		c0-0.1,0-0.2-0.1-0.2l-0.9-0.8c-0.1-0.1-0.3-0.1-0.4,0l-2.3,2.3l-0.7-0.7l2.4-2.6c0.1-0.1,0.1-0.1,0.1-0.2c0-0.1,0-0.1-0.1-0.2l0,0
		c0.1,0,0.1,0.1,0.2,0.1c0.1,0,0.1,0,0.2-0.1l1.2-1.4l4.2,3.7c0.1,0,0.1,0.1,0.2,0.1c0.1,0,0.2,0,0.2-0.1l0.9-1
		c0.1-0.1,0.1-0.1,0.1-0.2c0-0.1,0-0.1-0.1-0.2L73.1,42.6z M65.4,51.8c0,0.1,0,0.1-0.1,0.2c0,0-0.1,0.1-0.1,0.2
		c-0.1,0.2-0.5,0.4-0.8,0.6l-0.5,0.3l-0.7-1.2l0.4-0.3c0.3-0.2,0.5-0.3,0.7-0.4c0.1,0,0.1-0.1,0.1-0.1c0.3-0.1,0.4-0.1,0.5,0
		c0,0,0.1,0,0.1,0c0,0,0.2,0.1,0.2,0.2C65.4,51.5,65.4,51.7,65.4,51.8z"/>
	<path class="st0" d="M83,39.5L78.6,36l1.1-1.4c0-0.1,0.1-0.1,0.1-0.2c0-0.1,0-0.1-0.1-0.2l-0.9-0.7c-0.1-0.1-0.3-0.1-0.4,0L74.9,38
		c0,0.1-0.1,0.1-0.1,0.2c0,0.1,0,0.1,0.1,0.2l0,0c-0.1-0.1-0.3-0.1-0.4,0l-0.9,1.1c0,0.1-0.1,0.1-0.1,0.2s0,0.1,0.1,0.2l5.5,4.4
		c0.1,0,0.1,0.1,0.2,0.1c0.1,0,0.2,0,0.2-0.1l0.9-1.1c0-0.1,0.1-0.1,0.1-0.2s0-0.1-0.1-0.2l-5.2-4.2l0.6,0.5c0.1,0.1,0.3,0.1,0.4,0
		l1.1-1.4l4.3,3.4c0.1,0,0.1,0.1,0.2,0.1c0.1,0,0.2,0,0.2-0.1l1-1.1c0.1-0.1,0.1-0.1,0.1-0.2C83.1,39.6,83.1,39.6,83,39.5z"/>
</g>
</svg>
