<?xml version="1.0" encoding="utf-8"?>
<!-- Generator: Adobe Illustrator 28.2.0, SVG Export Plug-In . SVG Version: 6.00 Build 0)  -->
<svg version="1.1" id="Calque_1" xmlns="http://www.w3.org/2000/svg" xmlns:xlink="http://www.w3.org/1999/xlink" x="0px" y="0px"
	 viewBox="0 0 113.4 113.4" style="enable-background:new 0 0 113.4 113.4;" xml:space="preserve">
<style type="text/css">
	.st0{fill:#E763A0;}
</style>
<g>
	<path class="st0" d="M46.4,19.4c0.2,0,0.4,0,0.5-0.1c0.5-0.1,0.8-0.4,1.1-0.7c0.2-0.2,0.3-0.5,0.3-0.7c0.2,0.1,0.3,0.2,0.5,0.3
		c0.3,0.1,0.7,0.1,1,0c0.4,0,0.7-0.1,1-0.4c0.2-0.2,0.4-0.6,0.6-0.8c0.1-0.3,0.1-0.6,0.1-0.9c0-0.2-0.1-0.5-0.1-0.8
		c0-0.2-0.1-0.3-0.1-0.5L50.7,12c0-0.1-0.1-0.1-0.1-0.2c-0.1,0-0.1-0.1-0.2,0l-6.9,1.6c-0.2,0-0.2,0.2-0.2,0.3l0.6,2.8
		c0.1,0.6,0.2,0.9,0.3,1.2c0.1,0.4,0.4,0.7,0.7,0.9c0.2,0.2,0.5,0.5,0.9,0.6C46,19.3,46.2,19.4,46.4,19.4z M49.7,15.9
		c0,0.1,0,0.2,0,0.2c0,0,0,0-0.1,0.1c-0.1,0.1-0.2,0.1-0.2,0.1c-0.2,0-0.3,0-0.5-0.1c-0.1-0.1-0.2-0.2-0.2-0.3c0-0.1,0-0.2-0.1-0.5
		c0-0.1-0.1-0.3-0.1-0.5l-0.1-0.6l1-0.2l0.1,0.5c0.1,0.4,0.1,0.7,0.2,0.9c0,0.1,0,0.2,0,0.2C49.7,15.8,49.7,15.9,49.7,15.9z
		 M46.6,14.7l0.2,0.8c0.2,0.7,0.2,1,0.2,1.2c0,0.1,0,0.1-0.1,0.2c0,0,0,0-0.1,0.1c-0.1,0.1-0.2,0.1-0.2,0.1c-0.2,0-0.3,0-0.5-0.1
		c-0.1-0.1-0.2-0.1-0.3-0.3c0,0,0-0.1-0.1-0.1c0,0-0.1-0.1-0.2-0.7l-0.2-1L46.6,14.7z"/>
	<path class="st0" d="M47.7,26.1c0.4,0,1-0.1,1.9-0.3l3.6-0.8c0.2,0,0.2-0.2,0.2-0.3l-0.3-1.4c0-0.2-0.2-0.3-0.3-0.2L49,23.8
		c-0.2,0-0.4,0.1-0.6,0.1c-0.2,0-0.5,0.1-0.5,0.1c-0.3,0-0.4,0-0.5-0.1c0,0,0,0-0.1-0.1c-0.1-0.1-0.2-0.5-0.2-0.5
		c0-0.4,0-0.7,0.1-0.9c0.1-0.2,0.2-0.3,0.4-0.4c0,0,0.1,0,0.1-0.1c0,0,0.2-0.1,1-0.2l3.7-0.9c0.2,0,0.2-0.2,0.2-0.3l-0.3-1.3
		c0-0.2-0.2-0.2-0.3-0.2l-3.7,0.8c-0.9,0.1-1.4,0.3-1.8,0.5c-0.2,0.1-0.5,0.3-0.8,0.8c-0.3,0.3-0.4,0.7-0.5,1c-0.1,0.3,0,0.7,0,1.3
		l0,0.3c0.1,0.5,0.3,1,0.5,1.4c0.2,0.3,0.5,0.7,0.8,0.8C47,26,47.3,26.1,47.7,26.1z"/>
	<path class="st0" d="M48.1,34c0.1,0,0.1,0,0.2-0.1l1.2-1.1c0.2-0.2,0.4-0.5,0.6-0.7c0.1-0.1,0.2-0.2,0.3-0.4
		c0.1-0.1,0.1-0.2,0.2-0.3c0.2,0.3,0.4,0.6,0.7,0.7c0.4,0.3,0.9,0.4,1.6,0.3c0.5,0,0.9-0.3,1.2-0.5c0.4-0.3,0.6-0.7,0.6-1.1
		c0-0.3,0-0.9-0.2-1.7l-0.7-2.9c0-0.2-0.2-0.2-0.3-0.2l-6.9,1.5c-0.1,0-0.1,0.1-0.2,0.1c0,0.1-0.1,0.1,0,0.2l0.3,1.1
		c0,0.1,0.2,0.2,0.3,0.2l2.7-0.5l0,0.1c0.1,0.3,0.1,0.4,0.1,0.6c0,0.1,0,0.1-0.1,0.2c0,0-0.1,0.1-0.1,0.2c-0.1,0.2-0.4,0.5-0.7,0.9
		l-1.3,1.3c-0.1,0.1-0.1,0.2-0.1,0.3l0.4,1.7C47.9,33.9,48,33.9,48.1,34C48.1,34,48.1,34,48.1,34z M52.9,29.8c0,0.2,0,0.2-0.1,0.3
		l0,0.1c-0.1,0.1-0.3,0.2-0.4,0.2c-0.1,0.1-0.1,0.1-0.2,0c0,0-0.1,0-0.1,0c-0.1,0-0.1,0-0.1-0.1c0,0,0-0.1-0.1-0.1
		c0,0-0.2-0.4-0.3-1.1l-0.1-0.7l1.2-0.3l0.2,0.7c0,0.2,0.1,0.4,0.1,0.5C52.8,29.6,52.9,29.7,52.9,29.8z"/>
	<path class="st0" d="M56.6,38.9c0-0.1,0.1-0.1,0-0.2l-0.3-1.3c0-0.2-0.2-0.2-0.3-0.2L52.4,38l3.3-3.1c0.1-0.1,0.1-0.2,0.1-0.3
		l-0.3-1.4c0-0.1-0.1-0.1-0.1-0.2c-0.1,0-0.1-0.1-0.2,0l-6.9,1.5c-0.1,0-0.1,0.1-0.2,0.1c0,0.1-0.1,0.1,0,0.2l0.3,1.2
		c0,0.1,0.2,0.2,0.3,0.2l3.5-0.8l-3.2,3.1c-0.1,0.1-0.1,0.2-0.1,0.3l0.3,1.5c0,0.1,0.1,0.1,0.1,0.2c0,0,0.1,0,0.2,0c0,0,0,0,0.1,0
		l6.9-1.5C56.5,39.1,56.5,39,56.6,38.9z"/>
	<path class="st0" d="M54.1,50.3c0.4,0,0.7,0,1.1-0.1c1.2-0.3,2-0.9,2.6-1.6c0.5-0.7,0.7-1.7,0.4-2.8c-0.1-0.6-0.3-1.1-0.6-1.5
		c-0.2-0.3-0.5-0.7-0.9-0.9c-0.4-0.2-0.8-0.3-1.2-0.4c-0.6-0.1-1.3-0.1-1.9,0.1c0,0,0,0,0,0c-0.9,0.3-1.8,0.6-2.5,1.6
		c-0.5,0.7-0.7,1.7-0.4,2.8c0.2,1.1,0.7,1.8,1.7,2.4C52.8,50.1,53.4,50.3,54.1,50.3z M52.3,47c-0.1-0.4,0-1,0.2-1.2
		c0.4-0.4,0.9-0.6,1.6-0.8c0.7-0.1,1.3-0.1,1.6,0c0.4,0.3,0.6,0.6,0.7,1.1c0.1,0.5,0,0.9-0.2,1.3c-0.3,0.4-0.7,0.6-1.4,0.8
		C54,48.3,53.5,48.3,53,48C52.7,47.9,52.4,47.5,52.3,47z"/>
	<path class="st0" d="M56.6,56.9l3.6-0.8c0.2,0,0.2-0.2,0.2-0.3l-0.3-1.4c0-0.2-0.2-0.3-0.3-0.2L56,54.9c-0.2,0-0.4,0.1-0.6,0.1
		c-0.2,0-0.4,0.1-0.6,0.1c-0.3,0-0.4,0-0.5-0.1c0,0,0,0-0.1-0.1c-0.1-0.1-0.2-0.5-0.2-0.5c0-0.4,0-0.7,0.1-0.9
		c0.1-0.2,0.2-0.3,0.4-0.4c0,0,0.1,0,0.1-0.1c0,0,0.2-0.1,1-0.2l3.7-0.8c0.2,0,0.2-0.2,0.2-0.3l-0.3-1.4c0-0.1-0.1-0.1-0.1-0.2
		c-0.1,0-0.1-0.1-0.2,0l-3.7,0.9c-0.9,0.1-1.4,0.3-1.8,0.5l-0.1,0.1c-0.2,0.2-0.5,0.3-0.6,0.6c-0.3,0.3-0.4,0.7-0.5,1
		c-0.1,0.3,0,0.7,0,1.3l0,0.3c0.1,0.5,0.3,1,0.5,1.4c0.2,0.3,0.5,0.7,0.8,0.8c0.3,0.1,0.6,0.2,1.1,0.2
		C55.2,57.2,55.8,57.1,56.6,56.9z"/>
	<path class="st0" d="M60.1,62.7c0,0.1,0.1,0.2,0.3,0.2c0,0,0,0,0.1,0l1.2-0.3c0.1,0,0.2-0.2,0.2-0.3l-1.2-5.5
		c0-0.1-0.1-0.1-0.1-0.2c-0.1,0-0.1-0.1-0.2,0l-1.2,0.3c-0.2,0-0.2,0.2-0.2,0.3l0.4,1.7l-5.4,1.2c-0.2,0-0.2,0.2-0.2,0.3l0.3,1.4
		c0,0.1,0.1,0.1,0.1,0.2c0.1,0,0.1,0.1,0.2,0l5.3-1.1L60.1,62.7z"/>
	<path class="st0" d="M59.3,73.5c0.4,0,0.7,0,1.1-0.1c1.2-0.3,2-0.9,2.6-1.6c0.5-0.7,0.7-1.7,0.4-2.8c-0.1-0.6-0.3-1.1-0.6-1.5
		c-0.2-0.3-0.5-0.7-0.9-0.9c-0.4-0.2-0.8-0.3-1.2-0.4c-0.6-0.1-1.3-0.1-1.9,0.1c-1.2,0.2-2,0.8-2.6,1.6c-0.5,0.7-0.7,1.7-0.4,2.8
		c0.2,1.1,0.7,1.8,1.7,2.4C58,73.3,58.6,73.5,59.3,73.5z M57.5,70.2c-0.1-0.4,0-1,0.2-1.2c0.4-0.4,0.9-0.7,1.6-0.8
		c0.3-0.1,0.6-0.1,0.8-0.1c0.3,0,0.6,0,0.8,0.1c0.4,0.3,0.7,0.6,0.7,1.1c0.1,0.5,0,0.9-0.2,1.3c-0.3,0.4-0.7,0.6-1.4,0.8
		c-0.8,0.2-1.3,0.2-1.7-0.1C57.9,71.1,57.6,70.7,57.5,70.2z"/>
	<path class="st0" d="M60.8,78.8c0,0.1,0.1,0.1,0.1,0.2c0,0,0.1,0,0.2,0c0,0,0,0,0.1,0l1.2-0.3c0.1,0,0.2-0.2,0.2-0.3L62,75.8
		l1.1-0.3l0.6,3c0,0.1,0.1,0.1,0.1,0.2c0.1,0,0.1,0,0.2,0l1.2-0.3c0.1,0,0.2-0.2,0.2-0.3l-1-4.7c0-0.1-0.1-0.1-0.1-0.2
		c-0.1,0-0.1-0.1-0.2,0l-6.9,1.5c-0.2,0-0.2,0.2-0.2,0.3l0.3,1.5c0,0.1,0.1,0.1,0.1,0.2s0.1,0.1,0.2,0l2.6-0.6L60.8,78.8z"/>
	<path class="st0" d="M62.1,84.7c0,0.1,0.1,0.1,0.1,0.2c0,0,0.1,0,0.2,0c0,0,0,0,0.1,0l1.2-0.3c0.1,0,0.2-0.2,0.2-0.3l-0.5-2.6
		l1.1-0.3l0.6,3c0,0.1,0.2,0.2,0.3,0.2l1.2-0.2c0.1,0,0.1-0.1,0.2-0.1c0-0.1,0.1-0.1,0-0.2l-1-4.7c0-0.1-0.1-0.1-0.1-0.2
		c-0.1,0-0.1-0.1-0.2,0l-6.9,1.5c-0.2,0-0.2,0.2-0.2,0.3l0.3,1.5c0,0.1,0.1,0.1,0.1,0.2c0.1,0,0.1,0.1,0.2,0l2.6-0.6L62.1,84.7z"/>
	<path class="st0" d="M67.2,86.5l-0.3-1.4c0-0.1-0.1-0.1-0.1-0.2c-0.1,0-0.1-0.1-0.2,0l-6.9,1.5c-0.2,0-0.2,0.2-0.2,0.3l0.3,1.4
		c0,0.1,0.1,0.1,0.1,0.2c0,0,0.1,0,0.2,0c0,0,0,0,0.1,0l6.9-1.5C67.2,86.8,67.3,86.7,67.2,86.5z"/>
	<path class="st0" d="M63.7,94.6c0.1,0,0.3-0.1,0.3-0.3l0.1-1.4c0-0.1,0-0.2-0.1-0.2s-0.1-0.1-0.2-0.1c-0.5,0-0.8-0.1-0.9-0.3
		c0,0-0.1-0.1-0.1-0.1c-0.2-0.2-0.4-0.4-0.5-0.7c-0.1-0.4,0-0.7,0.2-1.1c0.3-0.3,0.8-0.6,1.6-0.8c0.8-0.2,1.4-0.1,1.7,0.1
		c0.3,0.2,0.6,0.5,0.7,0.9c0.1,0.3,0,0.6-0.1,0.8c-0.1,0.2-0.3,0.4-0.6,0.6c-0.1,0.1-0.2,0.2-0.1,0.4l0.6,1.3c0,0.1,0.1,0.1,0.2,0.2
		c0.1,0,0.2,0,0.2,0c0.5-0.3,1-0.6,1.2-1.1c0.4-0.7,0.6-1.5,0.3-2.4c-0.2-1.1-0.8-1.9-1.6-2.3c-0.9-0.5-1.9-0.7-3.1-0.3
		c-1.2,0.3-2,0.9-2.6,1.6c-0.5,0.8-0.7,1.7-0.4,2.7c0.2,0.8,0.6,1.4,1.1,1.8C62.3,94.3,63,94.6,63.7,94.6z"/>
	<path class="st0" d="M69,94.5c0-0.1-0.1-0.1-0.1-0.2c-0.1,0-0.1-0.1-0.2,0l-6.9,1.5c-0.1,0-0.1,0.1-0.2,0.1c0,0.1-0.1,0.1,0,0.2
		l1.2,5.2c0,0.1,0.1,0.1,0.1,0.2c0,0,0.1,0,0.1,0c0,0,0,0,0.1,0l1.2-0.3c0.2,0,0.2-0.2,0.2-0.3l-0.8-3.5l1.3-0.3l0.6,3.3
		c0,0.1,0.1,0.1,0.1,0.2c0.1,0,0.1,0.1,0.2,0l1.2-0.3c0.2,0,0.2-0.2,0.2-0.3l-0.7-3.2l0.9-0.2l0.7,3.4c0,0.1,0.1,0.1,0.1,0.2
		c0.1,0,0.1,0,0.2,0l1.2-0.3c0.1,0,0.2-0.2,0.2-0.3L69,94.5z"/>
</g>
</svg>
