<?xml version="1.0" encoding="utf-8"?>
<!-- Generator: Adobe Illustrator 28.2.0, SVG Export Plug-In . SVG Version: 6.00 Build 0)  -->
<svg version="1.1" id="Calque_1" xmlns="http://www.w3.org/2000/svg" xmlns:xlink="http://www.w3.org/1999/xlink" x="0px" y="0px"
	 viewBox="0 0 113.4 113.4" style="enable-background:new 0 0 113.4 113.4;" xml:space="preserve">
<style type="text/css">
	.st0{fill:#E763A0;}
</style>
<g>
	<path class="st0" d="M39.1,65l-1.4,0.1c-0.1,0-0.2,0-0.2,0.1s-0.1,0.1-0.1,0.2c0.1,0.4,0,0.7-0.1,1.2l0,0.1
		c-0.2,0.3-0.3,0.5-0.6,0.5c-0.5,0.2-0.9,0.1-1.2-0.1c-0.3-0.2-0.7-0.7-1-1.4c-0.3-0.8-0.4-1.3-0.2-1.7c0.2-0.4,0.4-0.7,0.9-0.9
		c0.2-0.2,0.6-0.1,0.8-0.1c0.3,0.1,0.5,0.3,0.7,0.5c0,0.1,0.1,0.1,0.2,0.1c0.1,0,0.2,0,0.2-0.1l1-0.9c0.1-0.1,0.1-0.3,0-0.4
		c-0.4-0.5-0.9-0.8-1.2-1c-0.8-0.2-1.6-0.2-2.4,0.1c-1,0.4-1.7,1.1-2.1,2c-0.3,0.9-0.2,1.9,0.2,3.1c0.4,1.1,1.1,1.8,2,2.3
		c0.4,0.2,0.9,0.2,1.3,0.2c0.4,0,0.9-0.1,1.4-0.2c0.8-0.3,1.3-0.8,1.6-1.3c0.4-0.5,0.6-1.3,0.5-2.2C39.4,65.1,39.3,65,39.1,65z"/>
	<path class="st0" d="M51.9,60.9c-0.5-0.4-0.9-0.7-1.2-0.8c-0.1-0.1-0.2-0.1-0.3-0.2c0.3-0.3,0.5-0.6,0.6-0.8c0.2-0.5,0.2-1.1,0-1.7
		c-0.2-0.4-0.4-0.8-0.8-1c-0.8-0.5-1.6-0.5-2.9,0.1l-2.8,1.1c-0.1,0-0.1,0.1-0.2,0.2c0,0.1,0,0.1,0,0.2l2.2,5.6l-4.4-4.8
		c-0.1-0.1-0.2-0.1-0.3-0.1l-1.4,0.6c-0.1,0-0.2,0.1-0.2,0.3v7.6c0,0.1,0,0.2,0.1,0.2c0,0,0.1,0,0.2,0c0,0,0.1,0,0.1,0l1.4-0.6
		c0.1,0,0.2-0.1,0.2-0.3V65l2.2-0.9l1.1,1.2c0.1,0.1,0.2,0.1,0.3,0.1l1.4-0.6c0.1,0,0.1-0.1,0.1-0.1l1.2-0.5
		c0.1-0.1,0.2-0.2,0.2-0.4l-1-2.4l0.2-0.1c0.2-0.1,0.3-0.1,0.4-0.1c0.2,0,0.2,0,0.4,0.1c0.2,0.1,0.6,0.3,1.1,0.7l1.5,1
		c0.1,0.1,0.2,0.1,0.3,0l1.6-0.6c0.1,0,0.2-0.1,0.2-0.2s0-0.2-0.1-0.3L51.9,60.9z M43.2,62.7l-1,0.4l-0.1-1.6L43.2,62.7z M49.3,58.7
		c0,0-0.1,0.1-0.1,0.1c0,0-0.1,0.1-0.1,0.1C49,59,48.9,59,48.8,59c-0.2,0.1-0.5,0.2-0.9,0.4l-0.7,0.3l-0.4-1.1l0.8-0.3
		c0.7-0.3,0.9-0.4,0.9-0.4c0.2,0,0.3,0,0.5,0.1c0.1,0.1,0.2,0.2,0.3,0.4C49.2,58.5,49.3,58.6,49.3,58.7z"/>
	<path class="st0" d="M64.1,50c-0.1-0.1-0.2-0.1-0.3-0.1l-1.4,0.6c-0.1,0-0.2,0.1-0.2,0.3v7.4L61,57.3c-0.5-0.4-0.9-0.7-1.2-0.8
		c-0.1-0.1-0.2-0.1-0.3-0.2c0.3-0.3,0.5-0.6,0.6-0.8c0.2-0.5,0.2-1.1,0-1.7c-0.2-0.4-0.4-0.8-0.8-1c-0.8-0.5-1.6-0.5-2.9,0.1
		l-2.8,1.1c-0.1,0-0.1,0.1-0.2,0.2c0,0.1,0,0.1,0,0.2l2.6,6.6c0,0.1,0.1,0.1,0.2,0.2c0,0,0.1,0,0.1,0c0,0,0.1,0,0.1,0l1.2-0.5
		c0.1-0.1,0.2-0.2,0.2-0.4l-1-2.4l0,0c0.1,0,0.2-0.1,0.2-0.1c0.2-0.1,0.3-0.1,0.4-0.1c0.2,0,0.2,0,0.4,0.1c0.2,0.1,0.6,0.3,1.1,0.7
		l1.5,1c0.1,0,0.2,0.1,0.3,0l1.6-0.6c0.1,0,0.1-0.1,0.1-0.1c0,0,0,0,0.1,0c0,0,0.1,0,0.1,0l1.3-0.6c0.1,0,0.2-0.1,0.2-0.3v-1.5
		l2.2-0.9l1.1,1.2c0.1,0.1,0.2,0.1,0.3,0.1l1.4-0.6c0.1,0,0.1-0.1,0.2-0.2s0-0.2-0.1-0.3L64.1,50z M56.4,56.1l-0.5-1.2l0.8-0.3
		c0.7-0.3,0.9-0.4,0.9-0.4c0.2,0,0.3,0,0.5,0.1c0.1,0,0.2,0.1,0.3,0.3l0.1,0.1c0.1,0.1,0.1,0.2,0.1,0.3c0,0-0.1,0.1-0.1,0.1
		c0,0-0.1,0.1-0.1,0.1c-0.1,0-0.1,0.1-0.2,0.1c-0.2,0.1-0.5,0.2-0.9,0.4L56.4,56.1z M65.1,54.1l-1,0.4L64,52.9L65.1,54.1z"/>
	<path class="st0" d="M73.7,51.3l-1.4,0.1c-0.1,0-0.2,0-0.2,0.1c0,0.1-0.1,0.1-0.1,0.2c0.1,0.5,0,0.9-0.2,1.2
		c-0.2,0.3-0.4,0.5-0.7,0.6c-0.5,0.2-0.9,0.1-1.2-0.1c-0.3-0.2-0.7-0.7-1-1.4c-0.3-0.8-0.4-1.3-0.2-1.7c0.2-0.4,0.4-0.7,0.9-0.9
		c0.2-0.2,0.6-0.1,0.8-0.1c0.3,0.1,0.5,0.3,0.7,0.5c0,0.1,0.1,0.1,0.2,0.1c0.1,0,0.2,0,0.2,0l1.2-0.8c0.1-0.1,0.2-0.3,0.1-0.4
		c-0.3-0.5-0.7-0.8-1.3-1.1c-0.8-0.2-1.6-0.2-2.4,0.1c-1,0.4-1.7,1-2.2,2c-0.3,0.9-0.2,1.9,0.2,3.1c0.4,1.1,1.1,1.8,2,2.3
		c0.4,0.2,0.9,0.2,1.3,0.2c0.4,0,0.9-0.1,1.4-0.2c0.8-0.3,1.3-0.8,1.6-1.3c0.4-0.5,0.6-1.3,0.5-2.2C74,51.4,73.9,51.3,73.7,51.3z"/>
	<path class="st0" d="M80.6,50c0-0.1-0.1-0.1-0.1-0.2c-0.1,0-0.1,0-0.2,0l-3.4,1.3l-0.5-1.3l3-1.2c0.1-0.1,0.2-0.2,0.2-0.3l-0.3-1
		c0-0.1-0.1-0.1-0.1-0.2c-0.1,0-0.2,0-0.2,0l-3,1.2l-0.4-1l3.2-1.3c0.1-0.1,0.2-0.2,0.2-0.4l-0.4-1.1c0-0.1-0.1-0.1-0.1-0.2
		c-0.1,0-0.1,0-0.2,0l-4.9,1.9c-0.1,0-0.1,0.1-0.2,0.2c0,0.1,0,0.1,0,0.2l2.6,6.6c0,0.1,0.1,0.1,0.2,0.2c0,0,0.1,0,0.1,0
		c0,0,0.1,0,0.1,0l4.9-2c0.1-0.1,0.2-0.2,0.2-0.4L80.6,50z"/>
</g>
</svg>
