<?xml version="1.0" encoding="utf-8"?>
<!-- Generator: Adobe Illustrator 28.2.0, SVG Export Plug-In . SVG Version: 6.00 Build 0)  -->
<svg version="1.1" id="Calque_1" xmlns="http://www.w3.org/2000/svg" xmlns:xlink="http://www.w3.org/1999/xlink" x="0px" y="0px"
	 viewBox="0 0 113.4 113.4" style="enable-background:new 0 0 113.4 113.4;" xml:space="preserve">
<style type="text/css">
	.st0{fill:#E763A0;}
</style>
<g>
	<path class="st0" d="M44.7,82.9c-0.1-0.1-0.3-0.1-0.4,0.1l-0.9,1.2c0,0.1-0.1,0.1-0.1,0.2c0,0.1,0.1,0.1,0.1,0.2
		c0.4,0.3,0.7,0.6,0.8,0.9c0.1,0.2,0.1,0.5,0,0.9c-0.1,0.4-0.3,0.6-0.7,0.8c-0.4,0.2-1,0.1-1.8-0.2c-0.7-0.3-1.3-0.6-1.4-1
		c-0.1-0.3-0.3-0.7-0.1-1.2c0.1-0.2,0.3-0.5,0.6-0.7c0.2-0.2,0.5-0.2,0.8-0.2c0.1,0,0.3-0.1,0.3-0.3l0.1-1.4c0-0.1,0-0.2-0.1-0.2
		s-0.1-0.1-0.2-0.1c-0.6,0-1.2,0.1-1.6,0.3c-0.7,0.3-1.2,1-1.5,1.8c-0.4,1-0.4,1.9,0.1,2.8c0.4,0.8,1.3,1.5,2.5,1.9
		c0.6,0.2,1.1,0.3,1.6,0.3c0.5,0,1-0.1,1.4-0.3c0.9-0.5,1.5-1.1,1.8-2.1c0.3-0.8,0.3-1.5,0.1-2.2C45.8,83.9,45.4,83.4,44.7,82.9z"/>
	<path class="st0" d="M44.7,74.8c-1.2-0.2-2.3-0.1-3,0.4c-0.8,0.5-1.3,1.4-1.5,2.5c-0.1,0.5-0.1,1.1,0,1.6c0.1,0.3,0.3,0.7,0.5,1.1
		c0.2,0.3,0.5,0.7,0.9,0.9c0.3,0.2,0.9,0.6,1.8,0.8c0.4,0.1,0.7,0.1,1,0.1c0.7,0,1.4-0.2,1.9-0.5c0.8-0.5,1.3-1.4,1.5-2.5
		c0.2-1,0-2-0.5-2.8C46.8,75.5,45.9,75,44.7,74.8z M46.2,78.8c-0.1,0.5-0.3,0.8-0.8,1.1c-0.4,0.3-1,0.3-1.7,0.2
		c-0.8-0.2-1.3-0.5-1.5-0.8C42,79,41.9,78.6,42,78.1c0.2-0.6,0.4-0.9,0.8-1.1c0.5-0.3,1-0.3,1.7-0.2c0.8,0.2,1.3,0.5,1.5,0.8
		C46.2,77.9,46.3,78.3,46.2,78.8z"/>
	<path class="st0" d="M48.5,69.6c-0.2-0.3-0.4-0.6-0.7-0.9c-0.3-0.2-0.7-0.3-1-0.4c-0.4-0.1-1-0.1-1.9-0.1h-3.7
		c-0.2,0-0.3,0.1-0.3,0.3v1.4c0,0.2,0.1,0.3,0.3,0.3h4c0.4,0,0.7,0,0.9,0.1c0.1,0,0.2,0,0.3,0c0.2,0.1,0.3,0.2,0.4,0.3
		c0.1,0.2,0.2,0.4,0.2,0.7c0,0.3-0.1,0.6-0.2,0.7c-0.2,0.2-0.3,0.2-0.6,0.3c-0.1,0.1-0.6,0.1-1.1,0.1h-3.8c-0.2,0-0.3,0.1-0.3,0.3
		v1.7h0.6v-0.1h3.5c0.8,0,1.4,0,1.9-0.1c0.3-0.1,0.7-0.2,0.9-0.5c0.2-0.2,0.4-0.5,0.6-0.8c0,0,0,0,0-0.1c0.1-0.2,0.2-0.8,0.2-1.6
		C48.8,70.4,48.6,69.9,48.5,69.6C48.6,69.7,48.5,69.6,48.5,69.6z"/>
	<path class="st0" d="M49.7,61.7l-6.9-1.5c-0.1,0-0.3,0.1-0.3,0.2l-0.3,1.3c0,0.1,0,0.2,0,0.2c0,0.1,0.1,0.1,0.2,0.1l3.6,0.8
		l-4.2,1.5c-0.1,0-0.2,0.1-0.2,0.2l-0.3,1.4c0,0.2,0.1,0.3,0.2,0.3l6.9,1.5c0,0,0,0,0.1,0c0.1,0,0.2-0.1,0.3-0.2l0.3-1.3
		c0-0.1,0-0.2,0-0.2c0-0.1-0.1-0.1-0.2-0.1l-3.5-0.8l4.2-1.5c0.1,0,0.2-0.1,0.2-0.2l0.3-1.4C49.9,61.9,49.8,61.7,49.7,61.7z"/>
	<path class="st0" d="M46.4,55.7l0.9-1.5c0-0.1,0-0.2,0-0.2c0-0.1-0.1-0.1-0.2-0.2L46,53.2c-0.1-0.1-0.3,0-0.4,0.1l-2.6,5
		c0,0.1,0,0.1,0,0.2c0,0.1,0.1,0.1,0.2,0.2l1.1,0.5c0.1,0.1,0.3,0,0.4-0.1l0.9-1.7l4.9,2.6c0,0,0.1,0,0.1,0c0,0,0.1,0,0.1,0
		c0.1,0,0.1-0.1,0.2-0.1l0.6-1.3c0.1-0.1,0-0.3-0.1-0.4L46.4,55.7z"/>
	<path class="st0" d="M55.6,49.7L54,49.8c-0.3,0-0.5,0.1-0.7,0.1c-0.3,0-0.6,0.1-0.8,0.1c-0.1,0-0.2,0.1-0.4,0.1
		c0.1-0.4,0.1-0.7-0.1-1c-0.1-0.5-0.5-1-1-1.2c-0.4-0.2-0.8-0.2-1.3-0.2c-0.5,0-0.8,0.2-1.2,0.4c0,0-0.1,0-0.1,0.1
		c-0.1,0.1-0.1,0.2-0.2,0.3c-0.2,0.3-0.5,0.6-0.7,1.2l-1.4,2.7c0,0.1,0,0.1,0,0.2s0.1,0.1,0.1,0.2l6.2,3.2c0,0,0.1,0,0.1,0
		c0,0,0.1,0,0.1,0c0.1,0,0.1-0.1,0.2-0.1l0.6-1.3c0.1-0.1,0-0.3-0.1-0.4L51,52.9l0,0c0.1-0.1,0.1-0.2,0.2-0.3
		c0.1-0.1,0.1-0.2,0.1-0.2c0.1,0,0.1-0.1,0.2-0.1c0.1,0,0.2-0.1,0.3-0.1c0.1,0,0.3-0.1,0.6-0.1c0.2,0,0.4,0,0.6-0.1l1.8-0.2
		c0.1,0,0.2-0.1,0.2-0.1l0.8-1.5c0-0.1,0-0.2,0-0.3C55.8,49.8,55.7,49.7,55.6,49.7z M49.7,52.2l-1.1-0.6l0.4-0.7
		c0.2-0.3,0.3-0.5,0.3-0.6c0-0.1,0.1-0.2,0.1-0.2c0.2-0.2,0.3-0.2,0.3-0.2c0.2,0,0.3,0,0.5,0.1c0.1,0.1,0.2,0.1,0.3,0.3
		c0.1,0.1,0.1,0.2,0.1,0.4c0,0.1-0.2,0.6-0.5,1.1L49.7,52.2z"/>
	<path class="st0" d="M55.9,45.4l-1.4-4.5c0-0.1-0.1-0.2-0.2-0.2c-0.1,0-0.2,0-0.3,0.1L53,42c-0.1,0.1-0.1,0.2-0.1,0.3l0.9,2.5
		l-2.7-0.5c-0.1,0-0.2,0-0.3,0.1l-1.1,1.3c-0.1,0.1-0.1,0.2,0,0.3c0,0.1,0.1,0.2,0.2,0.2l4.7,0.7l2.2,1.8c0.1,0,0.1,0.1,0.2,0.1
		c0,0,0,0,0,0c0.1,0,0.1,0,0.2-0.1l0.8-1c0.1-0.1,0.1-0.3,0-0.4L55.9,45.4z"/>
	<path class="st0" d="M62.5,39.4c-0.4-0.4-0.9-0.6-1.1-0.7c0,0-0.1,0-0.1,0c-0.4,0-0.7,0-1.2,0.1c-0.3,0.1-0.8,0.4-1.5,0.8
		c-0.8,0.5-1,0.6-1,0.6c0,0-0.1,0-0.1,0c-0.1,0-0.2,0-0.2,0c-0.1-0.1-0.1-0.1-0.1-0.3c0.1-0.3,0.2-0.5,0.4-0.8
		c0.3-0.3,0.4-0.4,0.6-0.4c0,0,0.1,0,0.1,0c0.1,0,0.2,0,0.5,0.2c0.1,0.1,0.3,0.1,0.4-0.1l0.9-1.1c0-0.1,0.1-0.1,0.1-0.2
		c0-0.1,0-0.1-0.1-0.2c-0.6-0.5-1.2-0.7-1.8-0.6c-0.6,0.1-1.3,0.5-2,1.2c-0.5,0.5-0.8,0.9-0.9,1.3c-0.2,0.5-0.2,0.9-0.1,1.3
		c0.1,0.4,0.2,0.8,0.6,1c0.5,0.5,1.1,0.7,1.7,0.6c0.5,0,0.9-0.3,1.6-0.7l0.1-0.1c0.2-0.1,0.4-0.2,0.5-0.3c0.2-0.1,0.4-0.2,0.5-0.3
		c0.2-0.2,0.3-0.2,0.4-0.2c0,0,0.2,0.1,0.2,0.1c0.2,0.2,0.2,0.3,0.2,0.5c0,0.2-0.1,0.5-0.4,0.8c-0.3,0.3-0.5,0.4-0.7,0.4
		c0,0-0.1,0-0.1,0c-0.2,0.1-0.5,0-0.8-0.3c-0.1,0-0.1-0.1-0.2-0.1c-0.1,0-0.1,0.1-0.2,0.1L58,43.4c0,0.1-0.1,0.1-0.1,0.2
		c0,0.1,0.1,0.1,0.1,0.2c0.6,0.5,1.2,0.7,1.7,0.7c0.1,0,0.2,0,0.3,0c0.8-0.1,1.5-0.5,2.1-1.2c0.5-0.5,0.7-1,1-1.4
		c0.2-0.4,0.3-0.9,0.1-1.4C63.1,40.1,62.9,39.8,62.5,39.4z"/>
	<path class="st0" d="M60.7,34.2c-0.1-0.1-0.3-0.1-0.4,0l-1,1c-0.1,0.1-0.1,0.1-0.1,0.2s0,0.1,0.1,0.2l5.1,4.8
		c0.1,0.1,0.1,0.1,0.2,0.1c0.1,0,0.1,0,0.2-0.1l1-1c0.1-0.1,0.1-0.1,0.1-0.2s0-0.1-0.1-0.2L60.7,34.2z"/>
	<path class="st0" d="M68,31.7c-0.4-0.4-0.9-0.8-1.5-1.1c-0.4-0.2-0.9-0.3-1.4-0.3c-0.4,0-0.9,0.1-1.4,0.3c-0.3,0.2-0.6,0.5-1,0.9
		l-1.8,1.9c-0.1,0.1-0.1,0.3,0,0.4l5.1,4.9c0.1,0.1,0.1,0.1,0.2,0.1c0,0,0,0,0,0c0.1,0,0.1,0,0.2-0.1l1.8-2c0.4-0.4,0.7-0.7,0.8-1.1
		c0.2-0.4,0.3-0.9,0.3-1.2c0-0.6-0.1-1-0.4-1.5C68.7,32.5,68.4,32.1,68,31.7z M67.4,34.5c0,0.1-0.1,0.3-0.2,0.5c0,0,0,0.1,0,0.1
		c0,0.1-0.2,0.3-0.4,0.5l-0.5,0.6l-3-2.8l0.3-0.3c0.3-0.4,0.6-0.7,0.7-0.7c0,0,0.1,0,0.1-0.1c0.1-0.1,0.4-0.2,0.5-0.2
		c0.2,0,0.3,0.1,0.5,0.1l0.1,0.1c0.3,0.2,0.6,0.4,0.9,0.7c0.4,0.4,0.6,0.7,0.7,0.9C67.3,34.1,67.4,34.4,67.4,34.5z"/>
	<path class="st0" d="M75,29.1l-0.8-0.8c-0.1-0.1-0.1-0.1-0.2-0.1c-0.1,0-0.2,0-0.2,0.1L71.3,31l-1-0.9l2.2-2.4
		c0.1-0.1,0.1-0.1,0.1-0.2c0-0.1,0-0.1-0.1-0.2l-0.9-0.8c-0.1-0.1-0.3-0.1-0.4,0L69,28.9l-0.7-0.7l2.4-2.6c0.1-0.1,0.1-0.1,0.1-0.2
		s0-0.1-0.1-0.2l-0.9-0.8c-0.1-0.1-0.3-0.1-0.4,0l-3.6,3.8c-0.1,0.1-0.1,0.1-0.1,0.2c0,0.1,0,0.1,0.1,0.2l5.1,4.8
		c0.1,0.1,0.1,0.1,0.2,0.1c0.1,0,0.2,0,0.2-0.1l3.7-3.9C75.1,29.4,75.1,29.2,75,29.1z"/>
</g>
</svg>
