<?xml version="1.0" encoding="utf-8"?>
<!-- Generator: Adobe Illustrator 28.2.0, SVG Export Plug-In . SVG Version: 6.00 Build 0)  -->
<svg version="1.1" id="Calque_1" xmlns="http://www.w3.org/2000/svg" xmlns:xlink="http://www.w3.org/1999/xlink" x="0px" y="0px"
	 viewBox="0 0 113.4 113.4" style="enable-background:new 0 0 113.4 113.4;" xml:space="preserve">
<style type="text/css">
	.st0{fill:#E763A0;}
</style>
<g>
	<path class="st0" d="M27.2,52.9c-0.6-0.6-1.2-0.9-2.2-1c-1-0.1-2,0.2-2.6,0.9c-0.7,0.6-1.1,1.5-1.2,2.9c-0.1,1.1,0.2,2.1,0.8,2.8
		c0.7,0.8,1.4,1.2,2.4,1.3c0.8,0,1.5-0.1,2.1-0.5c0.6-0.3,1-1,1.2-1.8c0-0.1,0-0.3-0.2-0.3l-1.3-0.5c-0.1-0.1-0.3,0-0.4,0.2
		c-0.2,0.4-0.4,0.7-0.6,1c-0.3,0.2-0.5,0.3-0.8,0.3c-0.5-0.1-0.8-0.3-1-0.6c-0.2-0.3-0.3-1-0.2-1.7c0-0.8,0.2-1.3,0.5-1.6
		c0,0,0,0,0.1-0.1c0.2-0.3,0.5-0.4,1.1-0.4c0.3,0,0.5,0.1,0.7,0.4c0.2,0.1,0.3,0.3,0.4,0.7c0,0.1,0.2,0.2,0.3,0.2l1.4-0.3
		c0.2,0,0.2-0.2,0.2-0.3C27.8,53.7,27.6,53.2,27.2,52.9z"/>
	<path class="st0" d="M54.6,53.8L53,53.7c-0.1,0-0.2,0-0.3,0.1l-1.5,2.3l-1.4-2.5c0-0.1-0.1-0.1-0.2-0.1l-1.7-0.1c0,0-0.1,0-0.1,0
		c0,0,0,0-0.1,0l-5.1-0.3c-0.1,0-0.3,0.1-0.3,0.3l-0.1,1.2c0,0.1,0,0.2,0.1,0.2s0.1,0.1,0.2,0.1l2.7,0.2l-3.3,3.7l-1.8-5.5
		c0-0.1-0.1-0.2-0.2-0.2l-1.5-0.1c-0.1,0-0.2,0.1-0.3,0.2l-2.9,6.5l-0.7-1.1c-0.3-0.6-0.5-1-0.8-1.3c-0.1-0.1-0.2-0.2-0.3-0.3
		c0.4-0.1,0.7-0.3,0.9-0.5c0.4-0.3,0.7-0.9,0.7-1.5c0.1-0.4,0-0.9-0.2-1.3c-0.2-0.3-0.6-0.6-0.9-0.8c0,0,0,0-0.1,0
		c-0.3-0.1-0.9-0.2-1.7-0.3l-3-0.2c-0.2,0-0.3,0.1-0.3,0.3l-0.5,7c0,0.1,0,0.1,0.1,0.2c0,0.1,0.1,0.1,0.2,0.1l1.4,0.1
		c0.1,0,0.1,0,0.2-0.1c0.1,0,0.1-0.1,0.1-0.2l0.2-2.6h0c0.2,0,0.3,0,0.5,0.1c0.1,0,0.2,0,0.2,0c0,0,0.1,0.1,0.2,0.1
		c0,0.1,0.1,0.2,0.2,0.3c0.1,0.2,0.3,0.4,0.5,0.8L33,60c0,0.1,0.1,0.1,0.2,0.1l1.7,0.1c0,0,0,0,0,0c0,0.1,0.1,0.1,0.2,0.1l1.5,0.1
		c0.1,0,0.2-0.1,0.3-0.2l0.6-1.4l2.4,0.2l0.4,1.4c0,0.1,0.1,0.2,0.3,0.2l1,0.1c0,0,0,0,0.1,0l5.6,0.3c0,0,0,0,0,0
		c0.1,0,0.3-0.1,0.3-0.3l0.1-1.2c0-0.1,0-0.2-0.1-0.2c-0.1-0.1-0.1-0.1-0.2-0.1l-3.4-0.2l3.7-4.2c0,0,0.1-0.1,0.1-0.2l0-0.5L50,58
		l-0.1,2.9c0,0.1,0.1,0.3,0.2,0.3l1.5,0.2c0,0,0,0,0,0c0.1,0,0.1,0,0.2-0.1c0.1-0.1,0.1-0.1,0.1-0.2l0.1-2.9l2.8-3.9
		c0.1-0.1,0.1-0.2,0-0.3S54.7,53.8,54.6,53.8z M30.8,54.2l0.9,0.1c0.3,0,0.6,0,0.8,0.1c0.1,0,0.2,0,0.2,0c0,0,0.2,0,0.2,0.1
		C33,54.7,33,54.8,33,55c0,0.1-0.1,0.3-0.1,0.3c0,0,0,0-0.1,0.1c-0.1,0.1-0.1,0.1-0.1,0.1l-1.3,0l-0.7-0.1L30.8,54.2z M39.4,57.3
		l-1.1-0.1l0.6-1.5L39.4,57.3z"/>
	<path class="st0" d="M63.4,53.7H62c-0.1,0-0.2,0-0.2,0.1s-0.1,0.1-0.1,0.2l0.1,2.5l-2.2,0.1l-0.1-2.4c0-0.2-0.1-0.3-0.3-0.3h-1.4
		c-0.1,0-0.1,0-0.2,0.1c-0.1,0.1-0.1,0.1-0.1,0.2l0.2,7c0,0.1,0,0.2,0.1,0.2c0.1,0,0.1,0.1,0.2,0.1c0,0,0,0,0,0l1.4-0.1
		c0.2,0,0.3-0.1,0.3-0.3l-0.1-2.8l2.2-0.1l0.1,2.8c0,0.2,0.1,0.3,0.3,0.3h1.4c0.1,0,0.1,0,0.2-0.1c0.1-0.1,0.1-0.1,0.1-0.2l-0.2-7
		C63.7,53.8,63.5,53.7,63.4,53.7z"/>
	<path class="st0" d="M68.1,53.4c-0.6,0-1.2,0.1-1.7,0.3c-0.3,0.2-0.6,0.4-1,0.8c-0.1,0.1-0.1,0.1-0.2,0.2c-0.2,0.2-0.4,0.5-0.5,0.8
		c-0.2,0.5-0.3,1.2-0.3,1.9c0,1.1,0.4,2,1.2,2.8c0.6,0.6,1.6,1,2.7,1c1.1,0,2-0.4,2.6-1.1c0.6-0.7,0.9-1.6,0.9-2.9
		c0-1.2-0.4-2.2-1.1-2.9C70.2,53.8,69.2,53.4,68.1,53.4z M69.8,57.2c0,0.9-0.1,1.4-0.4,1.7c-0.3,0.4-0.7,0.6-1.2,0.6
		c-0.4,0-0.9-0.2-1.2-0.5c-0.3-0.3-0.5-0.9-0.5-1.6c0-0.9,0.2-1.4,0.4-1.6c0.3-0.4,0.8-0.5,1.2-0.5c0.1,0,0.2,0,0.3,0
		c0.4,0,0.7,0.1,0.9,0.3C69.6,55.9,69.8,56.5,69.8,57.2z"/>
	<path class="st0" d="M78.2,53.3h-1.4c-0.1,0-0.1,0-0.2,0.1s-0.1,0.1-0.1,0.2l0.1,3.9v1.1c-0.1,0.2-0.2,0.3-0.3,0.5
		c-0.1,0.1-0.4,0.2-0.7,0.2c-0.4,0-0.6,0-0.7-0.2c-0.2-0.2-0.3-0.3-0.4-0.6c-0.1-0.1-0.1-0.6-0.1-1.1l-0.1-3.8
		c0-0.2-0.1-0.3-0.3-0.3h-1.4c-0.1,0-0.2,0-0.2,0.1c-0.1,0.1-0.1,0.1-0.1,0.2l0.2,3.8c0,0.7,0.1,1.3,0.2,1.9
		c0.1,0.3,0.2,0.7,0.4,0.9c0.2,0.3,0.4,0.4,0.6,0.5c0.1,0,0.2,0.1,0.2,0.1c0.3,0.2,0.8,0.2,1.4,0.2c0.1,0,0.2,0,0.3,0
		c0.1,0,0.3-0.1,0.4-0.1c0.4-0.1,0.7-0.1,1-0.3c0.3-0.2,0.6-0.4,0.9-0.7c0.2-0.3,0.3-0.5,0.4-1c0.1-0.4,0.1-1,0.1-1.9l-0.1-3.7
		C78.5,53.4,78.3,53.3,78.2,53.3z"/>
	<path class="st0" d="M84.3,56.3c-0.4-0.3-1-0.5-1.6-0.5c-0.6-0.1-1-0.3-1.2-0.4c-0.1-0.1-0.1-0.1-0.1-0.2c0,0,0.1-0.2,0.1-0.2
		c0.3-0.2,0.5-0.3,0.8-0.3c0.4,0,0.6,0,0.7,0.1c0.2,0.2,0.4,0.4,0.4,0.6c0,0.1,0.2,0.2,0.3,0.2l1.4-0.1c0.1,0,0.3-0.1,0.3-0.3
		c0-0.7-0.3-1.3-0.8-1.7c-0.5-0.4-1.2-0.6-2.2-0.6c-0.6,0-1.1,0.1-1.5,0.3c-0.5,0.1-0.9,0.5-1.1,0.8c-0.2,0.4-0.3,0.7-0.3,1.2
		c0,0.7,0.4,1.2,0.8,1.6c0.3,0.3,0.8,0.5,1.7,0.8c0.3,0.1,0.6,0.2,0.8,0.2c0.1,0,0.2,0,0.3,0.1c0.1,0,0.2,0.1,0.2,0.1
		c0,0.1,0,0.1,0.1,0.1c0.1,0.1,0.1,0.1,0.1,0.2c0,0.2-0.1,0.3-0.2,0.5c-0.1,0.1-0.3,0.2-0.8,0.2c-0.3,0-0.6-0.1-0.8-0.2
		c-0.2-0.2-0.3-0.5-0.4-0.9c0-0.1-0.2-0.2-0.3-0.2L79.6,58c-0.2,0-0.3,0.2-0.2,0.3c0.1,0.9,0.5,1.6,1,1.9c0.5,0.4,1.3,0.7,2.3,0.7
		c0.6,0,1.2-0.1,1.6-0.3c0.5-0.2,0.8-0.5,1-0.9c0.2-0.3,0.3-0.8,0.3-1.3c0-0.6-0.1-0.9-0.4-1.4C84.9,56.7,84.6,56.5,84.3,56.3z"/>
	<path class="st0" d="M92.1,58.9c0-0.2-0.1-0.3-0.3-0.3l-3.5,0.3l-0.1-1.3l3.2-0.2c0.1,0,0.1,0,0.2-0.1c0.1-0.1,0.1-0.1,0.1-0.2
		l-0.1-1.2c0-0.1,0-0.1-0.1-0.2c-0.1,0-0.1-0.1-0.2-0.1l-3.2,0.3l-0.1-1l3.5-0.2c0.1,0,0.1,0,0.2-0.1c0-0.1,0.1-0.1,0.1-0.2
		l-0.1-1.2c0-0.2-0.1-0.3-0.3-0.3l-5.2,0.2c-0.1,0-0.1,0-0.2,0.1c-0.1,0.1-0.1,0.1-0.1,0.2l0.3,7c0,0.1,0,0.1,0.1,0.2
		c0.1,0,0.1,0.1,0.2,0.1c0,0,0,0,0,0l5.4-0.3c0.1,0,0.1,0,0.2-0.1c0-0.1,0.1-0.1,0.1-0.2L92.1,58.9z"/>
</g>
</svg>
