<?xml version="1.0" encoding="utf-8"?>
<!-- Generator: Adobe Illustrator 28.2.0, SVG Export Plug-In . SVG Version: 6.00 Build 0)  -->
<svg version="1.1" id="Calque_1" xmlns="http://www.w3.org/2000/svg" xmlns:xlink="http://www.w3.org/1999/xlink" x="0px" y="0px"
	 viewBox="0 0 113.4 113.4" style="enable-background:new 0 0 113.4 113.4;" xml:space="preserve">
<style type="text/css">
	.st0{fill:none;}
	.st1{fill:#EE79AD;}
	.st2{fill:#E763A0;}
</style>
<g>
	<polygon class="st0" points="37.7,80 37.8,78.9 36.2,79.3 	"/>
	<path class="st0" d="M39.9,72.6c0-0.1-0.1-0.3-0.2-0.5c0,0,0,0,0,0c-0.1-0.1-0.2-0.2-0.4-0.2c-0.3-0.1-0.7-0.2-1.3-0.3
		c-0.5-0.1-0.9-0.1-1.2,0c-0.3,0.1-0.4,0.2-0.6,0.3c-0.1,0.1-0.2,0.3-0.3,0.4c0,0.3,0,0.7-0.1,1.2l-0.1,0.4l4,0.4l0.1-0.8
		c0-0.1,0-0.3,0-0.4c0-0.1,0-0.3,0-0.3C39.9,72.7,39.9,72.7,39.9,72.6z"/>
	<path class="st0" d="M54.8,36.5c-0.2-0.2-0.2-0.2-0.3-0.2c-0.2,0-0.3,0-0.4,0.1c0,0-0.1,0.1-0.1,0.1c-0.1,0.1-0.4,0.3-0.6,0.5
		l-0.6,0.5l0.7,1L54,38l0.9-0.9c0.1-0.1,0.1-0.2,0.1-0.3c0-0.1,0-0.1-0.1-0.2C54.8,36.6,54.8,36.6,54.8,36.5z"/>
	<polygon class="st0" points="50.7,44.4 51.2,43.4 49.6,43.2 	"/>
	<path class="st0" d="M65.4,28.1c-0.5-0.1-0.9,0-1.3,0.3c-0.4,0.2-0.6,0.6-0.7,1.1c0,0.3,0.3,0.8,0.6,1.4l0,0.1
		c0.5,0.6,0.9,0.9,1.3,1c0.4,0.1,0.9,0,1.3-0.3c0.3-0.2,0.6-0.6,0.7-1.1c0.1-0.4-0.1-0.9-0.7-1.6C66.3,28.5,65.8,28.2,65.4,28.1z"/>
	<path class="st0" d="M37.8,92.6c0-0.1-0.1-0.3-0.2-0.5c-0.1-0.1-0.2-0.2-0.4-0.3c-0.3-0.1-0.7-0.2-1.3-0.3c-0.5-0.1-0.9-0.1-1.2,0
		c-0.3,0.1-0.4,0.2-0.6,0.3c-0.2,0.2-0.2,0.4-0.3,0.6c0,0.1-0.1,0.3-0.1,0.5c0,0.2,0,0.4-0.1,0.6l0,0.3l4.1,0.4l0.1-0.8
		c0-0.1,0-0.3,0-0.4c0-0.1,0-0.3,0-0.3C37.8,92.7,37.8,92.7,37.8,92.6z"/>
	<path class="st1" d="M37.9,92c-0.1-0.2-0.3-0.3-0.6-0.4c-0.3-0.1-0.7-0.2-1.3-0.3c-0.6-0.1-1-0.1-1.3,0c-0.3,0.1-0.5,0.2-0.7,0.3
		c-0.2,0.3-0.3,0.5-0.4,0.7c-0.1,0.2-0.1,0.6-0.2,1.2v0.6l4.6,0.5l0.1-1.1c0-0.4,0.1-0.7,0-0.9C38.1,92.4,38,92.2,37.9,92z
		 M33.7,94.1L33.7,94.1L33.7,94.1z M37.8,93.1c0,0.1,0,0.3,0,0.4l-0.1,0.8l-4.1-0.4l0-0.3c0-0.2,0.1-0.4,0.1-0.6
		c0-0.2,0.1-0.4,0.1-0.5c0.1-0.2,0.2-0.4,0.3-0.6c0.2-0.1,0.3-0.2,0.6-0.3c0.3-0.1,0.6-0.1,1.2,0c0.5,0.1,0.9,0.2,1.3,0.3
		c0.3,0.1,0.4,0.2,0.4,0.3c0.1,0.2,0.2,0.3,0.2,0.5c0,0,0,0.1,0,0.1C37.9,92.8,37.9,93,37.8,93.1z"/>
	<path class="st1" d="M39.2,91.2c-0.3-0.4-0.8-0.8-1.3-1c-0.4-0.2-1-0.3-1.6-0.4c-0.7-0.1-1.3-0.1-1.8,0c-0.5,0.1-1,0.2-1.3,0.6
		c-0.4,0.3-0.7,0.7-0.9,1.1c-0.1,0.4-0.2,0.8-0.3,1.4l-0.3,2.6c0,0.2,0.1,0.3,0.2,0.3l7.2,1c0,0,0,0,0,0c0.1,0,0.1,0,0.2-0.1
		c0.1,0,0.1-0.1,0.1-0.2l0.3-2.7c0.1-0.6,0.1-1.1,0-1.4C39.7,91.8,39.4,91.5,39.2,91.2z M39.5,93.7l-0.3,2.7l-7.2-1l0.3-2.6
		c0.1-0.6,0.2-1,0.3-1.3c0.2-0.4,0.4-0.7,0.8-1c0.3-0.3,0.7-0.4,1.2-0.5c0.5-0.1,1-0.1,1.7,0c0.6,0.1,1.1,0.2,1.5,0.4
		c0.5,0.2,0.9,0.5,1.2,0.9c0.2,0.3,0.4,0.6,0.5,1.1C39.6,92.7,39.6,93.1,39.5,93.7z"/>
	<path class="st1" d="M40.3,83.5c0,0-0.1,0-0.1,0l-0.4-0.2l-0.6,0c-0.1,0-0.3,0.1-0.3,0.3l-0.4,3.6L37.2,87l0.4-3.2
		c0-0.1,0-0.2-0.1-0.2c0-0.1-0.1-0.1-0.2-0.1l-1.2-0.1c-0.1,0-0.3,0.1-0.3,0.2l-0.4,3.2l-1-0.1l0.5-3.5c0-0.1,0-0.2-0.1-0.2
		s-0.1-0.1-0.2-0.1l-1.2-0.1c-0.2,0-0.3,0.1-0.3,0.2l-0.6,5.2c0,0.1,0,0.1,0.1,0.2c0,0.1,0.1,0.1,0.2,0.1l7,0.8c0,0,0,0,0,0
		c0.1,0,0.1,0,0.2-0.1c0.1,0,0.1-0.1,0.1-0.2l0.6-5.4c0-0.1,0-0.2-0.1-0.2c0,0-0.1,0-0.1-0.1c0,0-0.1,0.1-0.1,0.1
		C40.4,83.5,40.3,83.5,40.3,83.5z M39.8,89l-7-0.8l0.6-5.2l1.2,0.1l-0.5,3.8l1.6,0.2l0.4-3.5l1.2,0.1l-0.4,3.5l1.9,0.2l0.4-3.9
		l1.2,0.1L39.8,89z"/>
	<path class="st1" d="M38.1,78.5l-2.7,0.7l2.5,1.2L38.1,78.5z M37.7,80l-1.4-0.7l1.6-0.4L37.7,80z"/>
	<path class="st1" d="M41.3,76.6l-0.1,0L41,77.7l-1.7,0.4L39,80.9l1.5,0.8l-0.2,1.5l-6.6-3.4l0.2-1.5l6.4-1.8l-0.7-0.1l-5.8,1.7
		c-0.1,0-0.2,0.1-0.2,0.2l-0.2,1.5c0,0.1,0,0.2,0.2,0.3l6.2,3.2l0.6,0.1c0,0,0.1,0,0.1,0.1c0,0,0.1-0.1,0.1-0.1l0.2-1.5
		c0-0.1,0-0.2-0.1-0.3l-1.3-0.7l0.3-2.4l1.5-0.4c0.1,0,0.2-0.1,0.2-0.2l0.2-1.2C41.4,76.6,41.3,76.6,41.3,76.6
		C41.3,76.6,41.3,76.6,41.3,76.6z"/>
	<path class="st1" d="M39.8,83.3l0.4,0.2c0,0,0.1,0,0.1,0c0,0,0.1,0,0.1,0c0,0,0.1,0,0.1-0.1c0,0-0.1,0-0.1-0.1L39.8,83.3z"/>
	<path class="st1" d="M41.3,71.1c-0.3-0.4-0.8-0.8-1.3-1c-0.5-0.2-1-0.3-1.6-0.4c-0.7-0.1-1.3-0.1-1.8,0c-0.5,0.1-0.9,0.4-1.2,0.6
		c-0.4,0.3-0.7,0.7-0.9,1.1c-0.1,0.3-0.2,0.8-0.3,1.4l-0.3,2.6c0,0.2,0.1,0.3,0.2,0.3l5.4,0.7l0.7-0.2l-6.1-0.8l0.3-2.6
		c0.1-0.6,0.2-1,0.3-1.3c0.2-0.4,0.4-0.7,0.8-1c0.3-0.3,0.7-0.5,1.1-0.6c0.5-0.1,1-0.1,1.7,0c0.6,0.1,1.1,0.2,1.5,0.4
		c0.5,0.2,0.9,0.5,1.2,0.9c0.2,0.3,0.4,0.6,0.5,1.1c0.1,0.3,0.1,0.7,0,1.3L41.3,76c0,0,0,0,0,0c0.1,0.1,0.1,0.2,0.1,0.3l0,0.3
		c0,0,0,0,0,0c0.1,0,0.1-0.1,0.1-0.2l0.3-2.7c0.1-0.6,0.1-1.1,0-1.4C41.8,71.7,41.5,71.4,41.3,71.1z"/>
	<path class="st1" d="M40,72c0-0.1-0.3-0.3-0.6-0.4c-0.3-0.1-0.7-0.2-1.3-0.3c-0.5-0.1-1-0.1-1.3,0c-0.3,0.1-0.5,0.2-0.7,0.3
		c-0.2,0.2-0.3,0.4-0.4,0.6c0,0.3,0,0.7-0.1,1.2l-0.1,0.7l4.6,0.5l0.1-1.1c0-0.4,0.1-0.7,0-0.9C40.2,72.4,40.1,72.2,40,72z M39.7,72
		L39.7,72L39.7,72z M39.9,73.1c0,0.1,0,0.3,0,0.4l-0.1,0.8l-4-0.4l0.1-0.4C36,73,36,72.6,36,72.3c0.1-0.2,0.2-0.3,0.3-0.4
		c0.2-0.1,0.4-0.2,0.6-0.3c0.3-0.1,0.7-0.1,1.2,0c0.5,0.1,0.9,0.2,1.3,0.3c0.2,0.1,0.4,0.2,0.4,0.2c0,0,0,0,0,0
		c0.1,0.2,0.2,0.3,0.2,0.5c0,0,0,0.1,0,0.1C40,72.8,40,73,39.9,73.1z"/>
	<path class="st1" d="M41.4,76C41.4,76,41.3,76,41.4,76l-0.1,0.3l-0.1,0l0,0.3l0.1,0c0,0,0,0,0,0c0.1,0,0.1,0,0.1,0l0-0.3
		C41.5,76.2,41.5,76.1,41.4,76z"/>
	<polygon class="st1" points="41,76.3 40.3,76.2 39.6,76.4 40.3,76.5 	"/>
	<path class="st1" d="M43.9,64.9l-1.1-0.4c-0.1-0.1-0.3,0-0.4,0.2l-1.2,3l-5.1-2.1c-0.1,0-0.2,0-0.2,0c-0.1,0-0.1,0.1-0.2,0.2
		L35.2,67c-0.1,0.1,0,0.3,0.2,0.4l6.5,2.6c0,0,0.1,0,0.1,0c0,0,0.1,0,0.1,0c0.1,0,0.1-0.1,0.2-0.2l1.8-4.6c0-0.1,0-0.2,0-0.2
		C44,65,44,64.9,43.9,64.9z M42,69.7l-6.5-2.6l0.5-1.3l5.4,2.2l1.3-3.3l1.1,0.4L42,69.7z"/>
	<path class="st1" d="M43.1,59.9l-2.5-4c-0.1-0.1-0.2-0.1-0.3-0.1c-0.1,0-0.2,0.1-0.2,0.2l-0.7,1.5c0,0.1,0,0.2,0,0.3L41,60
		l-2.7,0.2c-0.1,0-0.2,0.1-0.2,0.2l-0.7,1.5c0,0.1,0,0.2,0,0.3c0.1,0.1,0.2,0.1,0.3,0.1l4.6-0.4l2.6,1.3c0,0,0.1,0,0.1,0
		c0,0,0.1,0,0.1,0c0.1,0,0.1-0.1,0.2-0.2l0.5-1.4c0-0.1,0-0.3-0.1-0.3L43.1,59.9z M45,62.8l-2.7-1.3l-4.7,0.4l0.7-1.5l3.2-0.2
		l-1.8-2.7l0.7-1.5l2.5,4.1l2.6,1.3L45,62.8z"/>
	<path class="st1" d="M46.1,45.1c-0.1-0.1-0.2-0.1-0.2-0.1c-0.1,0-0.2,0.1-0.2,0.2L45,46.5c-0.1,0.1,0,0.3,0.1,0.3l3,2.5l-3.8-0.8
		c-0.1,0-0.3,0-0.3,0.1l-0.8,1.5c-0.1,0.1,0,0.3,0.1,0.3l2.9,2.5l-3.7-0.9c-0.1,0-0.3,0-0.3,0.1l-0.7,1.3c0,0.1,0,0.2,0,0.3
		c0,0.1,0.1,0.1,0.2,0.2l7.1,1.6c0,0,0,0,0.1,0c0.1,0,0.2-0.1,0.3-0.2l0.7-1.4c0.1-0.1,0-0.3-0.1-0.3l-3.3-2.9l4.2,0.9
		c0.1,0,0.2,0,0.3-0.1l0.7-1.3c0.1-0.1,0-0.3-0.1-0.3L46.1,45.1z M50.7,51.3l-5.3-1.1l4.1,3.6l-0.7,1.4l-7.1-1.6l0.7-1.3l4.8,1.2
		l-3.8-3.3l0.8-1.5l5,1.1l-3.9-3.2l0.6-1.3l5.5,4.7L50.7,51.3z"/>
	<path class="st1" d="M54.8,43.2l-0.1,0.3L53,43.2l-1.3,2.5l1.2,1.2l-0.7,1.3l-5.1-5.6l0.7-1.3l5.9,0.5l-0.3-0.3l-5.6-0.5
		c-0.1,0-0.2,0-0.3,0.1l-0.7,1.3c-0.1,0.1,0,0.2,0,0.3l5.1,5.6c0.1,0.1,0.1,0.1,0.2,0.1c0,0,0,0,0,0c0.1,0,0.2-0.1,0.2-0.1l0.7-1.3
		c0.1-0.1,0-0.2,0-0.3L52,45.7l1.1-2.1l1.5,0.2c0.1,0,0.2,0,0.3-0.2l0.2-0.4c0,0-0.1,0.1-0.2,0.1C54.9,43.2,54.9,43.2,54.8,43.2z"/>
	<path class="st1" d="M50.8,44.8l0.9-1.7l-2.8-0.3L50.8,44.8z M50.7,44.4l-1.1-1.2l1.6,0.2L50.7,44.4z"/>
	<path class="st1" d="M59.8,39c-0.1,0-0.1,0-0.1-0.1l-1,0.9l-1.9-0.5c-0.6-0.2-1.1-0.3-1.2-0.3c-0.2,0-0.4,0-0.5,0.1
		c-0.1,0.1-0.3,0.2-0.6,0.4l-0.2,0.2l2,2.2l-0.7,0.6l-0.3,0.6c0,0,0,0,0,0l1.2-1c0.1,0,0.1-0.1,0.1-0.2s0-0.2-0.1-0.2l-1.8-2
		c0.1-0.1,0.2-0.1,0.3-0.2c0.2-0.1,0.3-0.2,0.3-0.2c0,0,0.2,0,0.3,0c0.1,0,0.5,0.1,1.1,0.3l1.9,0.5c0.1,0,0.2,0,0.3-0.1l1.3-1.1
		c0,0,0.1-0.1,0.1-0.1L60,39C59.9,39,59.9,39,59.8,39z"/>
	<path class="st1" d="M50.3,37.6l2.2-2c0.6-0.5,1-0.8,1.4-0.9c0.3-0.1,0.7-0.1,1.1,0c0.4,0.1,0.7,0.3,1,0.6c0.4,0.4,0.5,0.8,0.5,1.3
		s-0.2,0.9-0.6,1.4c0.3-0.1,0.7-0.1,1-0.1s0.7,0.1,1.4,0.3l1,0.3L59,38.2L58.4,38c-0.7-0.2-1.1-0.3-1.5-0.3c-0.1,0-0.3,0-0.4,0
		c0.2-0.3,0.3-0.7,0.3-1c0-0.5-0.1-1-0.6-1.5c-0.4-0.4-0.7-0.6-1.1-0.7c-0.5-0.1-0.9-0.1-1.2,0c-0.5,0.1-1,0.5-1.5,1l-2.2,2
		c-0.1,0.1-0.1,0.3,0,0.4l3.3,3.7l0.4,0L50.3,37.6z"/>
	<path class="st1" d="M55.2,36.8c0-0.2-0.1-0.3-0.2-0.5c-0.2-0.2-0.3-0.3-0.5-0.3s-0.4,0-0.6,0.1c-0.1,0.1-0.4,0.3-0.8,0.7l-0.8,0.7
		l1.1,1.4l0.8-0.7c0.5-0.5,0.8-0.8,0.9-0.9C55.2,37.1,55.2,37,55.2,36.8z M54.9,37.2L54,38l-0.6,0.5l-0.7-1l0.6-0.5
		c0.3-0.3,0.5-0.4,0.6-0.5c0.1,0,0.1-0.1,0.1-0.1c0.1-0.1,0.3-0.1,0.4-0.1c0.1,0,0.1,0,0.3,0.2c0,0,0,0.1,0.1,0.1
		c0.1,0.1,0.1,0.1,0.1,0.2C54.9,37,54.9,37.1,54.9,37.2z"/>
	<polygon class="st1" points="54.1,41.9 53.8,41.6 53.4,41.6 53.7,41.9 	"/>
	<path class="st1" d="M55,42.9L55,42.9l-0.2,0.2c0,0,0.1,0.1,0.2,0.1c0.1,0,0.1,0,0.2-0.1l0.3-0.6L55,42.9z"/>
	<path class="st1" d="M63.8,34.2c0-0.1-0.1-0.1-0.2-0.1c-0.1,0-0.2,0-0.2,0.1l-2.7,2l0.3-5.5c0-0.1,0-0.1-0.1-0.2l-0.7-0.9
		c-0.1-0.1-0.3-0.1-0.4-0.1l-4.1,3.1c-0.1,0.1-0.1,0.3-0.1,0.4l0.7,1c0,0.1,0.1,0.1,0.2,0.1c0.1,0,0.2,0,0.2-0.1l2.1-1.6l-0.2,5.3
		c0,0.1,0,0.1,0.1,0.2l0.2,0.2l0.5,0.2L59,37.7l0.2-5.9l-2.6,2l-0.7-1l4.1-3.1l0.7,0.9l-0.3,6.1l3.2-2.4l0.7,1l-4.2,3.2
		c0,0,0.1,0.1,0.1,0.2c0,0,0,0.1,0,0.1l4.3-3.3c0.1-0.1,0.1-0.3,0.1-0.4L63.8,34.2z"/>
	<polygon class="st1" points="59.8,38.7 59.4,38.3 59,38.2 59.3,38.5 	"/>
	<path class="st1" d="M60.1,38.5l-0.2,0.2l0.1,0L59.6,39c0,0,0.1,0.1,0.1,0.1c0.1,0,0.1,0,0.2-0.1l0.2-0.1c0,0,0-0.1,0-0.1
		C60.2,38.6,60.1,38.6,60.1,38.5z"/>
	<path class="st1" d="M66.2,26.2c-0.9-0.2-1.9,0.1-2.8,0.7c-0.5,0.3-1,0.8-1.2,1.2c-0.2,0.4-0.3,0.8-0.4,1.2c-0.1,0.4-0.1,0.9,0,1.3
		c0.1,0.5,0.4,1,0.8,1.7c0,0,0,0,0,0c0.8,1,1.6,1.5,2.7,1.7c0.2,0,0.4,0.1,0.6,0.1c0.7,0,1.5-0.3,2.2-0.8c0.9-0.8,1.4-1.6,1.5-2.5
		c0.2-0.9-0.1-1.9-0.9-2.9C67.9,26.8,67,26.3,66.2,26.2z M69.3,30.7c-0.1,0.9-0.6,1.6-1.4,2.3c-0.8,0.6-1.7,0.9-2.6,0.7
		c-1.1-0.2-1.8-0.7-2.5-1.6c-0.4-0.6-0.7-1.1-0.8-1.6c-0.1-0.4-0.1-0.8,0-1.2c0.1-0.4,0.2-0.7,0.4-1.1c0.2-0.4,0.6-0.8,1.1-1.1
		c0.8-0.6,1.7-0.9,2.6-0.7c0.9,0.1,1.7,0.7,2.4,1.6C69.2,28.9,69.5,29.8,69.3,30.7z"/>
	<path class="st1" d="M65.5,27.8c-0.5-0.1-1,0-1.5,0.4c-0.5,0.3-0.7,0.8-0.8,1.3c0,0.5,0.3,1,0.7,1.7c0.5,0.6,1,1,1.5,1.1
		c0.5,0.1,1,0,1.5-0.3c0.5-0.3,0.7-0.8,0.8-1.3s-0.2-1.1-0.7-1.8C66.5,28.3,66,27.9,65.5,27.8z M67.4,30.7c-0.1,0.6-0.3,0.9-0.7,1.1
		c-0.4,0.3-0.9,0.4-1.3,0.3c-0.4-0.1-0.8-0.4-1.3-1l0-0.1c-0.4-0.6-0.6-1.1-0.6-1.4c0.1-0.6,0.3-0.9,0.7-1.1
		c0.4-0.3,0.8-0.4,1.3-0.3c0.4,0.1,0.8,0.4,1.3,1C67.3,29.8,67.5,30.3,67.4,30.7z"/>
	<path class="st1" d="M71.8,21c0-0.1-0.1-0.1-0.2-0.1c-0.1,0-0.2,0-0.2,0.1l-1.1,0.8c-0.1,0-0.1,0.1-0.1,0.2s0,0.2,0.1,0.2l2.2,3
		l-4.2-1.7c-0.1,0-0.2,0-0.3,0l-1.1,0.8c-0.1,0-0.1,0.1-0.1,0.2c0,0.1,0,0.2,0.1,0.2l4.2,5.7c0.1,0.1,0.1,0.1,0.2,0.1
		c0.1,0,0.1,0,0.2-0.1l1-0.7c0.1,0,0.1-0.1,0.1-0.2c0-0.1,0-0.2-0.1-0.2l-2.1-2.9l4.1,1.6c0.1,0,0.2,0,0.3,0l1.1-0.9
		c0.1-0.1,0.1-0.3,0.1-0.4L71.8,21z M74.6,27.7l-5-2l2.7,3.7l-1,0.7l-4.2-5.7l1.1-0.8l5.1,2.1l-2.8-3.8l1.1-0.8l4.1,5.7L74.6,27.7z"
		/>
	<path class="st1" d="M81.6,22.8l-0.7-1c0-0.1-0.1-0.1-0.2-0.1c-0.1,0-0.2,0-0.2,0l-3,2.1l-0.8-1.1l2.7-1.8c0.1,0,0.1-0.1,0.1-0.2
		c0-0.1,0-0.2,0-0.2l-0.7-1c-0.1-0.1-0.3-0.2-0.4-0.1l-2.7,1.8l-0.5-0.8l2.9-1.9c0.1,0,0.1-0.1,0.1-0.2c0-0.1,0-0.2,0-0.2l-0.7-1
		c-0.1-0.1-0.3-0.2-0.4-0.1l-4.3,2.9c-0.1,0-0.1,0.1-0.1,0.2c0,0.1,0,0.2,0,0.2l4,5.8c0.1,0.1,0.1,0.1,0.2,0.1c0.1,0,0.1,0,0.2,0
		l4.4-3c0.1,0,0.1-0.1,0.1-0.2C81.7,22.9,81.7,22.8,81.6,22.8z M77,25.9l-4-5.8l4.3-2.9l0.7,1l-3.1,2.1l0.8,1.3l2.9-2l0.7,1l-2.9,2
		l1.1,1.6l3.2-2.3l0.7,1L77,25.9z"/>
	<path class="st2" d="M38.8,91.5c-0.3-0.3-0.6-0.6-1.1-0.8c-0.4-0.2-0.9-0.3-1.4-0.4c-0.7-0.1-1.1-0.1-1.6,0
		c-0.5,0.1-0.8,0.2-1.1,0.4c-0.4,0.3-0.6,0.6-0.7,0.9c-0.1,0.3-0.2,0.7-0.3,1.2l-0.3,2.3l6.6,0.9l0.3-2.4c0.1-0.6,0.1-0.9,0-1.2
		C39.1,92.1,38.9,91.8,38.8,91.5z M38.4,93.2c0,0.1,0,0.2,0,0.4l-0.1,1.1c0,0.1,0,0.1-0.1,0.2c-0.1,0-0.1,0.1-0.2,0.1c0,0,0,0,0,0
		l-4.6-0.5c-0.1,0-0.3-0.1-0.3-0.3v-0.6c0-0.3,0.1-0.5,0.1-0.6c0-0.3,0.1-0.5,0.1-0.7c0.1-0.2,0.2-0.4,0.4-0.7c0,0,0.1-0.1,0.1-0.1
		c0.2-0.1,0.4-0.2,0.7-0.3c0.3-0.1,0.8-0.1,1.4,0c0.6,0.1,1,0.2,1.3,0.3c0.3,0.1,0.6,0.2,0.8,0.5c0.1,0.2,0.2,0.4,0.2,0.7
		C38.4,92.8,38.4,93,38.4,93.2z"/>
	<path class="st2" d="M39,91.3c-0.3-0.4-0.7-0.7-1.2-0.9c-0.4-0.2-0.9-0.3-1.5-0.4c-0.7-0.1-1.2-0.1-1.7,0c-0.5,0.1-0.9,0.2-1.2,0.5
		c-0.4,0.3-0.6,0.6-0.8,1c-0.1,0.3-0.2,0.7-0.3,1.3L32,95.4l7.2,1l0.3-2.7c0.1-0.6,0.1-1,0-1.3C39.4,91.9,39.2,91.6,39,91.3z
		 M39.2,93.7l-0.3,2.4l-6.6-0.9l0.3-2.3c0.1-0.5,0.2-0.9,0.3-1.2c0.2-0.4,0.4-0.6,0.7-0.9c0.2-0.2,0.6-0.3,1.1-0.4
		c0.5-0.1,0.9-0.1,1.6,0c0.5,0.1,1,0.2,1.4,0.4c0.4,0.2,0.8,0.5,1.1,0.8c0.2,0.3,0.4,0.6,0.5,1C39.3,92.8,39.3,93.2,39.2,93.7z"/>
	<path class="st2" d="M38.1,91.9c-0.2-0.3-0.5-0.4-0.8-0.5c-0.4-0.1-0.8-0.2-1.3-0.3c-0.6-0.1-1.1-0.1-1.4,0
		c-0.3,0.1-0.5,0.2-0.7,0.3c0,0-0.1,0.1-0.1,0.1c-0.2,0.3-0.3,0.5-0.4,0.7c-0.1,0.2-0.1,0.4-0.1,0.7c0,0.2,0,0.4-0.1,0.6v0.6
		c0,0.1,0.1,0.3,0.3,0.3l4.6,0.5c0,0,0,0,0,0c0.1,0,0.1,0,0.2-0.1c0.1,0,0.1-0.1,0.1-0.2l0.1-1.1c0-0.1,0-0.3,0-0.4
		c0-0.2,0-0.4,0-0.6C38.4,92.3,38.2,92.1,38.1,91.9z M38.1,93.5L38,94.6l-4.6-0.5v-0.6c0.1-0.6,0.1-1,0.2-1.2
		c0.1-0.2,0.2-0.4,0.4-0.7c0.2-0.1,0.4-0.2,0.7-0.3c0.3-0.1,0.7-0.1,1.3,0c0.6,0.1,1,0.2,1.3,0.3c0.3,0.1,0.5,0.2,0.6,0.4
		c0.1,0.2,0.2,0.4,0.2,0.6C38.2,92.8,38.1,93.1,38.1,93.5z"/>
	<path class="st2" d="M39,87.7c-0.1,0-0.1,0.1-0.2,0.1l-1.9-0.2c-0.1,0-0.1,0-0.2-0.1c0-0.1-0.1-0.1-0.1-0.2L37,84l-0.6-0.1L36,87.2
		c0,0.1,0,0.1-0.1,0.2c-0.1,0-0.1,0.1-0.2,0.1l-1.6-0.2c-0.1,0-0.1,0-0.2-0.1c0-0.1-0.1-0.1-0.1-0.2l0.5-3.5l-0.6-0.1L33.1,88
		l6.4,0.7l0.5-4.8l-0.6-0.1l-0.4,3.6C39.1,87.5,39,87.6,39,87.7z"/>
	<path class="st2" d="M38.8,87.4l-1.9-0.2l0.4-3.5l-1.2-0.1l-0.4,3.5l-1.6-0.2l0.5-3.8L33.4,83l-0.6,5.2l7,0.8l0.6-5.4l-1.2-0.1
		L38.8,87.4z M40.1,83.9l-0.5,4.8L33.1,88l0.5-4.6l0.6,0.1l-0.5,3.5c0,0.1,0,0.2,0.1,0.2c0,0.1,0.1,0.1,0.2,0.1l1.6,0.2
		c0.1,0,0.2,0,0.2-0.1c0.1,0,0.1-0.1,0.1-0.2l0.4-3.2L37,84l-0.4,3.2c0,0.1,0,0.2,0.1,0.2c0,0.1,0.1,0.1,0.2,0.1l1.9,0.2
		c0.1,0,0.1,0,0.2-0.1c0.1,0,0.1-0.1,0.1-0.2l0.4-3.6L40.1,83.9z"/>
	<path class="st2" d="M34,79.7l6.1,3.1l0.1-0.9l-1.3-0.7c-0.1-0.1-0.2-0.2-0.1-0.3l0.3-2.8c0-0.1,0.1-0.2,0.2-0.2l1.5-0.4l0.1-0.9
		l-6.7,1.9L34,79.7z M35.3,79l2.7-0.7c0.1,0,0.2,0,0.3,0.1c0.1,0.1,0.1,0.2,0.1,0.2l-0.2,1.9c0,0.1-0.1,0.2-0.1,0.2c0,0-0.1,0-0.1,0
		c0,0-0.1,0-0.1,0l-2.5-1.2c-0.1-0.1-0.2-0.2-0.2-0.3C35.1,79.1,35.2,79,35.3,79z"/>
	<path class="st2" d="M33.9,78.3l-0.2,1.5l6.6,3.4l0.2-1.5L39,80.9l0.3-2.8l1.7-0.4l0.2-1.1l-0.9-0.1L33.9,78.3z M40.7,77.5
		l-1.5,0.4c-0.1,0-0.2,0.1-0.2,0.2l-0.3,2.8c0,0.1,0,0.2,0.1,0.3l1.3,0.7l-0.1,0.9L34,79.7l0.1-1.1l6.7-1.9L40.7,77.5z"/>
	<path class="st2" d="M35.3,79.5l2.5,1.2c0,0,0.1,0,0.1,0c0,0,0.1,0,0.1,0c0.1,0,0.1-0.1,0.1-0.2l0.2-1.9c0-0.1,0-0.2-0.1-0.2
		c-0.1-0.1-0.2-0.1-0.3-0.1L35.3,79c-0.1,0-0.2,0.1-0.2,0.2C35.1,79.3,35.2,79.4,35.3,79.5z M38.1,78.5l-0.2,1.9l-2.5-1.2L38.1,78.5
		z"/>
	<polygon class="st2" points="40.3,76.5 41.1,76.6 41.2,76.3 41,76.3 	"/>
	<path class="st2" d="M41.3,72.4c-0.1-0.5-0.3-0.7-0.5-1c-0.3-0.3-0.6-0.6-1.1-0.8c-0.4-0.2-0.8-0.3-1.4-0.4c-0.7-0.1-1.1-0.1-1.6,0
		c-0.4,0.1-0.7,0.3-1,0.5c-0.4,0.3-0.6,0.6-0.7,0.9c-0.1,0.3-0.2,0.7-0.3,1.2l-0.3,2.3L41,76l0.1,0l0.3-2.4
		C41.4,73,41.4,72.7,41.3,72.4z M40.5,73.2c0,0.1,0,0.2,0,0.4l-0.1,1.1c0,0.1,0,0.1-0.1,0.2c-0.1,0-0.1,0.1-0.2,0.1c0,0,0,0,0,0
		l-4.6-0.5c-0.1,0-0.1,0-0.2-0.1c0-0.1-0.1-0.1-0.1-0.2l0.1-0.7c0.1-0.5,0.1-0.9,0.1-1.2c0,0,0-0.1,0-0.1c0.1-0.2,0.2-0.4,0.5-0.7
		c0,0,0,0,0.1-0.1c0.2-0.1,0.4-0.2,0.7-0.3c0.3-0.1,0.9-0.1,1.4,0c0.6,0.1,1,0.2,1.3,0.3c0,0,0.7,0.2,0.8,0.6
		c0.1,0.2,0.2,0.4,0.2,0.6C40.5,72.8,40.5,73,40.5,73.2z"/>
	<polygon class="st2" points="41,76 41,76 41,76 	"/>
	<path class="st2" d="M34.5,75.2l0.3-2.3c0.1-0.5,0.2-0.9,0.3-1.2c0.2-0.4,0.4-0.6,0.7-0.9c0.2-0.2,0.6-0.4,1-0.5
		c0.5-0.1,0.9-0.1,1.6,0c0.6,0.1,1.1,0.2,1.4,0.4c0.4,0.2,0.8,0.5,1.1,0.8c0.2,0.3,0.4,0.6,0.5,1c0.1,0.3,0.1,0.6,0,1.2L41,76l0.1,0
		c0.1,0,0.1,0,0.2,0l0.3-2.4c0.1-0.6,0.1-1,0-1.3c-0.1-0.5-0.3-0.8-0.5-1.1c-0.3-0.4-0.7-0.7-1.2-0.9c-0.4-0.2-0.9-0.3-1.5-0.4
		c-0.7-0.1-1.2-0.1-1.7,0c-0.4,0.1-0.8,0.3-1.1,0.6c-0.4,0.3-0.6,0.6-0.8,1c-0.1,0.3-0.2,0.7-0.3,1.3l-0.3,2.6l6.1,0.8L41,76
		L34.5,75.2z"/>
	<path class="st2" d="M40.3,71.9c-0.1-0.3-0.7-0.6-0.8-0.6c-0.4-0.1-0.8-0.2-1.3-0.3c-0.6-0.1-1.1-0.1-1.4,0
		c-0.3,0.1-0.5,0.2-0.7,0.3c0,0-0.1,0-0.1,0.1c-0.2,0.2-0.3,0.5-0.5,0.7c0,0,0,0.1,0,0.1c0,0.3,0,0.7-0.1,1.2l-0.1,0.7
		c0,0.1,0,0.2,0.1,0.2c0,0.1,0.1,0.1,0.2,0.1l4.6,0.5c0,0,0,0,0,0c0.1,0,0.1,0,0.2-0.1c0.1,0,0.1-0.1,0.1-0.2l0.1-1.1
		c0-0.1,0-0.3,0-0.4c0-0.2,0-0.4,0-0.6C40.5,72.3,40.4,72.1,40.3,71.9z M40.2,73.5l-0.1,1.1l-4.6-0.5l0.1-0.7
		c0.1-0.5,0.1-0.9,0.1-1.2c0.1-0.2,0.2-0.4,0.4-0.6c0.2-0.1,0.4-0.2,0.7-0.3c0.3-0.1,0.8-0.1,1.3,0c0.6,0.1,1,0.2,1.3,0.3
		c0.3,0.1,0.6,0.3,0.6,0.4c0.1,0.2,0.2,0.4,0.2,0.6C40.3,72.8,40.2,73.1,40.2,73.5z"/>
	<path class="st2" d="M41.2,76.2L41.2,76.2l0.1,0.1l0-0.3c-0.1,0-0.1-0.1-0.2,0L41,76l0,0L41,76l-0.7,0.2l0.7,0.1L41.2,76.2z"/>
	<polygon class="st2" points="41,76.3 41.2,76.3 41.2,76.2 	"/>
	<path class="st2" d="M41.5,68.3c-0.1,0-0.1,0-0.2,0l-5.1-2.1L35.9,67l6,2.4l1.6-4.1l-0.6-0.2l-1.2,3C41.6,68.2,41.6,68.3,41.5,68.3
		z"/>
	<path class="st2" d="M41.4,68L36,65.8l-0.5,1.3l6.5,2.6l1.8-4.6l-1.1-0.4L41.4,68z M43.4,65.3l-1.6,4.1l-6-2.4l0.3-0.8l5.1,2.1
		c0.1,0,0.1,0,0.2,0c0.1,0,0.1-0.1,0.2-0.2l1.2-3L43.4,65.3z"/>
	<path class="st2" d="M42.7,60.3l-2.2-3.6L40,57.5l1.7,2.6c0.1,0.1,0.1,0.2,0,0.3s-0.1,0.2-0.2,0.2l-3,0.2l-0.4,0.9l4.2-0.4
		c0,0,0,0,0,0c0,0,0.1,0,0.1,0l2.4,1.2l0.3-0.9l-2.4-1.2C42.7,60.4,42.7,60.3,42.7,60.3z"/>
	<path class="st2" d="M40.4,56l-0.7,1.5l1.8,2.7l-3.2,0.2l-0.7,1.5l4.7-0.4l2.7,1.3l0.5-1.4l-2.6-1.3L40.4,56z M44.8,62.5l-2.4-1.2
		c0,0-0.1,0-0.1,0c0,0,0,0,0,0l-4.2,0.4l0.4-0.9l3-0.2c0.1,0,0.2-0.1,0.2-0.2s0-0.2,0-0.3L40,57.5l0.4-0.9l2.2,3.6
		c0,0,0.1,0.1,0.1,0.1l2.4,1.2L44.8,62.5z"/>
	<path class="st2" d="M49.4,49.6c0.1,0.1,0.1,0.2,0.1,0.3c-0.1,0.1-0.2,0.2-0.3,0.2l-4.8-1.1l-0.6,1.1l3.6,3.2
		c0.1,0.1,0.1,0.2,0.1,0.3c-0.1,0.1-0.2,0.2-0.3,0.1l-4.6-1.1l-0.4,0.8l6.5,1.5l0.5-1l-3.9-3.5c-0.1-0.1-0.1-0.2-0.1-0.3
		c0.1-0.1,0.2-0.2,0.3-0.2l5.1,1.1l0.5-0.9l-5-4.3l-0.4,0.8L49.4,49.6z"/>
	<path class="st2" d="M45.3,46.6l3.9,3.2l-5-1.1l-0.8,1.5l3.8,3.3l-4.8-1.2l-0.7,1.3l7.1,1.6l0.7-1.4l-4.1-3.6l5.3,1.1l0.7-1.3
		l-5.5-4.7L45.3,46.6z M51,50.1L50.5,51L45.5,50c-0.1,0-0.3,0-0.3,0.2c-0.1,0.1,0,0.3,0.1,0.3l3.9,3.5l-0.5,1l-6.5-1.5l0.4-0.8
		l4.6,1.1c0.1,0,0.3,0,0.3-0.1c0.1-0.1,0-0.3-0.1-0.3l-3.6-3.2l0.6-1.1l4.8,1.1c0.1,0,0.3,0,0.3-0.2c0.1-0.1,0-0.3-0.1-0.3l-3.7-3.1
		l0.4-0.8L51,50.1z"/>
	<path class="st2" d="M48,41.6l-0.5,1l4.7,5.2l0.4-0.8l-1.1-1.1c-0.1-0.1-0.1-0.2-0.1-0.3l1.3-2.5C52.8,43,52.9,43,53,43l1.5,0.2
		l0.1-0.2L54,42.2L48,41.6z M51.9,43.3L51,45c0,0.1-0.1,0.1-0.2,0.1c0,0,0,0,0,0c-0.1,0-0.2,0-0.2-0.1l-1.9-2
		c-0.1-0.1-0.1-0.2,0-0.3c0.1-0.1,0.2-0.2,0.3-0.2l2.8,0.3c0.1,0,0.2,0.1,0.2,0.1C52,43.1,52,43.2,51.9,43.3z"/>
	<path class="st2" d="M54.6,43l-0.1,0.2L53,43c-0.1,0-0.2,0-0.3,0.2l-1.3,2.5c-0.1,0.1,0,0.2,0.1,0.3l1.1,1.1l-0.4,0.8l-4.7-5.2
		l0.5-1l6,0.6l-0.3-0.3l-5.9-0.5l-0.7,1.3l5.1,5.6l0.7-1.3l-1.2-1.2l1.3-2.5l1.7,0.2l0.1-0.3c0,0,0,0-0.1,0L54.6,43z"/>
	<path class="st2" d="M51.7,42.9l-2.8-0.3c-0.1,0-0.2,0-0.3,0.2c-0.1,0.1,0,0.2,0,0.3l1.9,2c0.1,0.1,0.1,0.1,0.2,0.1c0,0,0,0,0,0
		c0.1,0,0.2-0.1,0.2-0.1l0.9-1.7c0-0.1,0-0.2,0-0.3C51.9,42.9,51.8,42.9,51.7,42.9z M50.8,44.8l-1.9-2l2.8,0.3L50.8,44.8z"/>
	<polygon class="st2" points="54,42.2 54.6,43 54.8,42.7 54.4,42.2 	"/>
	<polygon class="st2" points="54.4,42.2 54.1,41.9 53.7,41.9 54,42.2 	"/>
	<path class="st2" d="M54.6,43l0.2,0.2c0,0,0,0,0.1,0l0.1-0.2l-0.2-0.2L54.6,43z"/>
	<path class="st2" d="M55.6,41.9c0,0,0,0.1,0,0.1l0.1-0.1l-1.8-2c-0.1-0.1-0.1-0.3,0-0.4l0.2-0.2c0.2-0.1,0.3-0.2,0.3-0.2
		c0.1-0.1,0.2-0.1,0.2-0.2c0.2-0.2,0.5-0.2,0.7-0.2c0.2,0,0.7,0.1,1.3,0.3l1.7,0.5l0.8-0.7l-1.1-0.3c-0.7-0.2-1.1-0.3-1.3-0.3
		c-0.3,0-0.7,0-0.9,0.1c-0.1,0-0.3,0-0.3-0.1c-0.1-0.1-0.1-0.2,0-0.3c0.4-0.5,0.5-0.8,0.5-1.2c0-0.4-0.1-0.8-0.4-1.1
		c-0.3-0.3-0.5-0.4-0.9-0.5c-0.3-0.1-0.7-0.1-0.9,0c-0.4,0.1-0.7,0.4-1.3,0.8l-2,1.8l3.5,4l1.2,0.1C55.5,41.8,55.6,41.8,55.6,41.9z
		 M53.4,39.2C53.4,39.2,53.4,39.2,53.4,39.2c-0.1,0-0.2,0-0.2-0.1l-1.1-1.4c-0.1-0.1-0.1-0.3,0-0.4l0.8-0.7c0.3-0.3,0.5-0.4,0.6-0.6
		c0.1-0.1,0.1-0.1,0.1-0.1c0,0,0,0,0.1-0.1c0.3-0.1,0.5-0.1,0.7-0.1c0.3,0,0.5,0.2,0.7,0.4c0,0,0,0,0.1,0.1c0,0,0,0.1,0.1,0.1
		c0.1,0.1,0.2,0.3,0.2,0.5c0,0.2,0,0.4-0.1,0.6c0,0,0,0.1-0.1,0.1l-0.9,0.9l-0.8,0.7C53.5,39.2,53.5,39.2,53.4,39.2z"/>
	<path class="st2" d="M55.4,42l-0.2,0.3l0.4-0.4c0,0,0-0.1,0-0.1c0-0.1-0.1-0.1-0.2-0.1l-1.2-0.1l0.3,0.3L55.4,42z"/>
	<path class="st2" d="M59.3,38.5l-1-0.3c-0.7-0.2-1.1-0.3-1.4-0.3s-0.7,0-1,0.1c0.4-0.5,0.6-0.9,0.6-1.4s-0.1-0.9-0.5-1.3
		c-0.3-0.3-0.6-0.5-1-0.6c-0.4-0.1-0.8-0.1-1.1,0c-0.4,0.1-0.8,0.4-1.4,0.9l-2.2,2l3.5,4l0.4,0l-3.5-4l2-1.8c0.6-0.5,1-0.8,1.3-0.8
		c0.2-0.1,0.6-0.1,0.9,0c0.3,0.1,0.6,0.2,0.9,0.5c0.3,0.3,0.4,0.7,0.4,1.1c0,0.4-0.1,0.7-0.5,1.2c-0.1,0.1-0.1,0.2,0,0.3
		c0.1,0.1,0.2,0.1,0.3,0.1c0.3-0.1,0.6-0.1,0.9-0.1c0.3,0,0.7,0.1,1.3,0.3l1.1,0.3l-0.8,0.7l-1.7-0.5c-0.6-0.2-1.1-0.3-1.3-0.3
		c-0.2,0-0.5,0-0.7,0.2c0,0-0.1,0.1-0.2,0.2c-0.1,0.1-0.2,0.1-0.3,0.2L54,39.5c-0.1,0.1-0.1,0.3,0,0.4l1.8,2L55.7,42
		c0,0.1,0,0.1,0,0.2l-0.2,0.4l0.7-0.6l-2-2.2l0.2-0.2c0.3-0.2,0.5-0.3,0.6-0.4c0.1-0.1,0.3-0.1,0.5-0.1c0.1,0,0.6,0.1,1.2,0.3
		l1.9,0.5l1-0.9c0,0-0.1,0-0.1,0L59.3,38.5z"/>
	<path class="st2" d="M55.3,37.5C55.3,37.5,55.3,37.5,55.3,37.5c0.2-0.3,0.2-0.5,0.2-0.7c0-0.2-0.1-0.4-0.2-0.5c0,0,0-0.1-0.1-0.1
		c0,0,0-0.1-0.1-0.1c-0.2-0.2-0.4-0.4-0.7-0.4c-0.2,0-0.5,0-0.7,0.1c0,0-0.1,0-0.1,0.1c0,0-0.1,0.1-0.1,0.1
		c-0.2,0.1-0.4,0.3-0.6,0.6l-0.8,0.7c-0.1,0.1-0.1,0.3,0,0.4l1.1,1.4c0,0.1,0.1,0.1,0.2,0.1c0,0,0,0,0,0c0.1,0,0.1,0,0.2-0.1
		l0.8-0.7L55.3,37.5z M53.4,38.9l-1.1-1.4l0.8-0.7c0.4-0.4,0.7-0.6,0.8-0.7c0.2-0.1,0.4-0.1,0.6-0.1s0.3,0.1,0.5,0.3
		c0.1,0.2,0.2,0.3,0.2,0.5c0,0.2,0,0.3-0.1,0.5c-0.1,0.1-0.4,0.4-0.9,0.9L53.4,38.9z"/>
	<polygon class="st2" points="54.2,41.7 53.8,41.6 54.1,41.9 54.5,42 	"/>
	<path class="st2" d="M55.7,42l-0.4,0.4L55,42.9l0,0l0.5-0.4l0.2-0.4C55.7,42.1,55.7,42.1,55.7,42z"/>
	<path class="st2" d="M59.8,38.7l-0.5-0.2l0.3,0.4c0,0,0,0,0.1,0l0.3-0.2L59.8,38.7L59.8,38.7L59.8,38.7z"/>
	<polygon class="st2" points="54.8,42.3 54.9,42.4 55,42.3 	"/>
	<polygon class="st2" points="54.5,42 54.8,42.3 55,42.3 54.9,42.4 55,42.5 55.2,42.4 55.4,42 	"/>
	<polygon class="st2" points="54.4,42.2 54.8,42.7 54.9,42.4 54.8,42.3 	"/>
	<polygon class="st2" points="54.8,42.3 54.5,42 54.1,41.9 54.4,42.2 	"/>
	<polygon class="st2" points="55,42.5 54.9,42.4 54.8,42.7 55,42.9 55.2,42.4 	"/>
	<path class="st2" d="M63.5,34.7l-3,2.2c-0.1,0.1-0.2,0.1-0.3,0c-0.1-0.1-0.2-0.2-0.2-0.3l0.3-6l-0.5-0.6l-3.7,2.8l0.4,0.5l2.4-1.8
		c0.1-0.1,0.2-0.1,0.3,0c0.1,0,0.2,0.2,0.2,0.3l-0.2,5.8l0.6,0.7l4.1-3.1L63.5,34.7z"/>
	<path class="st2" d="M60.1,38.5l4.2-3.2l-0.7-1l-3.2,2.4l0.3-6.1L60,29.7l-4.1,3.1l0.7,1l2.6-2L59,37.7l0.4,0.6L60.1,38.5
		C60,38.5,60,38.5,60.1,38.5z M59.3,37.6l0.2-5.8c0-0.1-0.1-0.2-0.2-0.3c-0.1-0.1-0.2,0-0.3,0l-2.4,1.8l-0.4-0.5l3.7-2.8l0.5,0.6
		l-0.3,6c0,0.1,0.1,0.2,0.2,0.3c0.1,0.1,0.2,0,0.3,0l3-2.2l0.4,0.5l-4.1,3.1L59.3,37.6z"/>
	<path class="st2" d="M59.8,38.7l0.2-0.2c0,0-0.1,0-0.1-0.1l-0.5-0.2L59.8,38.7L59.8,38.7z"/>
	<polygon class="st2" points="59.8,38.7 59.8,38.7 59.8,38.7 	"/>
	<path class="st2" d="M66.1,26.7c-1-0.2-1.8,0.2-2.4,0.6c-0.5,0.3-0.8,0.6-1,1c-0.2,0.4-0.3,0.7-0.4,1c-0.1,0.4-0.1,0.7,0,1.1
		c0.1,0.4,0.3,0.9,0.8,1.5c0.7,0.9,1.3,1.3,2.3,1.5c1,0.2,1.8-0.2,2.4-0.6c0.8-0.7,1.2-1.3,1.3-2.1c0.2-0.8-0.1-1.6-0.7-2.5
		C67.6,27.3,66.8,26.8,66.1,26.7z M68,30.8c-0.1,0.5-0.3,1.1-0.9,1.5c-0.4,0.3-0.8,0.4-1.3,0.4c-0.1,0-0.3,0-0.4,0
		c-0.5-0.1-1.1-0.5-1.7-1.2c0,0,0,0,0,0l-0.1-0.1c-0.4-0.7-0.7-1.2-0.7-1.7c0.1-0.5,0.3-1.2,0.9-1.5c0.5-0.4,1.1-0.6,1.7-0.4
		c0.5,0.1,1.1,0.5,1.7,1.2C67.9,29.7,68.1,30.3,68,30.8z"/>
	<path class="st2" d="M65.5,27.6c-0.6-0.1-1.2,0-1.7,0.4c-0.6,0.4-0.8,1-0.9,1.5c0,0.6,0.3,1.1,0.7,1.7l0.1,0.1c0,0,0,0,0,0
		c0.6,0.7,1.1,1.1,1.7,1.2c0.1,0,0.3,0,0.4,0c0.4,0,0.9-0.1,1.3-0.4c0.6-0.4,0.8-1,0.9-1.5c0.1-0.5-0.1-1.1-0.8-2
		C66.6,28.1,66.1,27.7,65.5,27.6z M67.7,30.7c-0.1,0.5-0.3,1-0.8,1.3c-0.5,0.3-1,0.4-1.5,0.3c-0.5-0.1-1-0.5-1.5-1.1
		c-0.4-0.7-0.7-1.2-0.7-1.7c0.1-0.5,0.3-1,0.8-1.3c0.5-0.4,1-0.5,1.5-0.4c0.5,0.1,1,0.5,1.5,1.1C67.5,29.6,67.8,30.2,67.7,30.7z"/>
	<path class="st2" d="M66.1,26.4c-0.9-0.2-1.8,0.1-2.6,0.7c-0.5,0.3-0.9,0.7-1.1,1.1c-0.2,0.4-0.3,0.7-0.4,1.1
		c-0.1,0.4-0.1,0.8,0,1.2c0.1,0.5,0.4,1,0.8,1.6c0.7,0.9,1.4,1.4,2.5,1.6c0.9,0.2,1.8-0.1,2.6-0.7c0.8-0.7,1.3-1.4,1.4-2.3
		c0.2-0.9-0.1-1.8-0.8-2.7C67.8,27.1,67,26.5,66.1,26.4z M69,30.7c-0.1,0.8-0.5,1.4-1.3,2.1c-0.6,0.4-1.4,0.9-2.4,0.6
		c-1-0.2-1.6-0.6-2.3-1.5c-0.4-0.6-0.7-1.1-0.8-1.5c-0.1-0.4-0.1-0.7,0-1.1c0.1-0.4,0.2-0.7,0.4-1c0.2-0.4,0.5-0.7,1-1
		c0.6-0.4,1.4-0.9,2.4-0.6c0.8,0.1,1.5,0.6,2.2,1.5C68.9,29.1,69.2,29.9,69,30.7z"/>
	<path class="st2" d="M70.9,22l2.6,3.6c0.1,0.1,0.1,0.2,0,0.3c-0.1,0.1-0.2,0.1-0.3,0.1l-5-2l-0.7,0.5l3.9,5.2l0.5-0.4l-2.5-3.5
		c-0.1-0.1-0.1-0.2,0-0.3c0.1-0.1,0.2-0.1,0.3-0.1l4.8,1.9l0.8-0.6l-3.8-5.3L70.9,22z"/>
	<path class="st2" d="M70.5,21.9l2.8,3.8l-5.1-2.1l-1.1,0.8l4.2,5.7l1-0.7l-2.7-3.7l5,2l1.1-0.9l-4.1-5.7L70.5,21.9z M74.5,27.4
		l-4.8-1.9c-0.1,0-0.3,0-0.3,0.1c-0.1,0.1-0.1,0.2,0,0.3l2.5,3.5l-0.5,0.4l-3.9-5.2l0.7-0.5l5,2c0.1,0,0.3,0,0.3-0.1
		c0.1-0.1,0.1-0.2,0-0.3L70.9,22l0.6-0.5l3.8,5.3L74.5,27.4z"/>
	<path class="st2" d="M77.7,24.5c-0.1,0-0.1,0.1-0.2,0c-0.1,0-0.1-0.1-0.2-0.1l-1.1-1.6c-0.1-0.1-0.1-0.3,0.1-0.4l2.7-1.8L78.5,20
		l-2.7,1.8c-0.1,0-0.1,0.1-0.2,0c-0.1,0-0.1-0.1-0.2-0.1l-0.8-1.3c-0.1-0.1,0-0.3,0.1-0.4l2.9-1.9l-0.4-0.5l-3.8,2.6l3.7,5.3
		l3.9-2.7l-0.4-0.5L77.7,24.5z"/>
	<path class="st2" d="M77.5,24.2l-1.1-1.6l2.9-2l-0.7-1l-2.9,2l-0.8-1.3l3.1-2.1l-0.7-1L73,20.1l4,5.8l4.4-3l-0.7-1L77.5,24.2z
		 M77.1,25.6l-3.7-5.3l3.8-2.6l0.4,0.5l-2.9,1.9c-0.1,0.1-0.2,0.3-0.1,0.4l0.8,1.3c0,0.1,0.1,0.1,0.2,0.1c0.1,0,0.2,0,0.2,0l2.7-1.8
		l0.4,0.5l-2.7,1.8c-0.1,0.1-0.2,0.3-0.1,0.4l1.1,1.6c0,0.1,0.1,0.1,0.2,0.1c0.1,0,0.2,0,0.2,0l3-2.1l0.4,0.5L77.1,25.6z"/>
</g>
</svg>
