<?xml version="1.0" encoding="utf-8"?>
<!-- Generator: Adobe Illustrator 28.2.0, SVG Export Plug-In . SVG Version: 6.00 Build 0)  -->
<svg version="1.1" id="Calque_1" xmlns="http://www.w3.org/2000/svg" xmlns:xlink="http://www.w3.org/1999/xlink" x="0px" y="0px"
	 viewBox="0 0 113.4 113.4" style="enable-background:new 0 0 113.4 113.4;" xml:space="preserve">
<style type="text/css">
	.st0{fill:#E763A0;}
</style>
<g>
	<path class="st0" d="M32.9,57l2.6-2.9c0.1-0.1,0.1-0.2,0.1-0.3s-0.1-0.2-0.2-0.2l-1.6-0.3c-0.1,0-0.2,0-0.3,0.1l-1.4,1.6L31.3,53
		c0-0.1-0.1-0.2-0.2-0.2l-1.6-0.2c-0.1,0-0.2,0-0.3,0.1c-0.1,0.1-0.1,0.2,0,0.3l1.5,3.5l-2.7,2.9l0.2-0.9c0-0.1,0-0.2-0.1-0.2
		s-0.1-0.1-0.2-0.1l-3.6-0.6l0.2-1.3l3.2,0.6c0.2,0,0.3-0.1,0.3-0.2l0.2-1.1c0-0.1,0-0.2,0-0.2c0-0.1-0.1-0.1-0.2-0.1l-3.2-0.6
		l0.2-1l3.4,0.6c0.2,0,0.3-0.1,0.3-0.2l0.2-1.2c0-0.1,0-0.2-0.1-0.2c0-0.1-0.1-0.1-0.2-0.1l-5.2-0.8c-0.2,0-0.3,0.1-0.3,0.2l-1.1,7
		c0,0.1,0,0.2,0.1,0.2c0,0.1,0.1,0.1,0.2,0.1l5.3,0.8c0,0,0,0,0,0c0.1,0,0.1,0,0.2-0.1c0,0.1,0.1,0.1,0.2,0.2l1.7,0.3
		c0.1,0,0.2,0,0.3-0.1l1.6-1.8l0.9,2.3c0,0.1,0.1,0.2,0.2,0.2l1.7,0.3c0,0,0,0,0,0c0.1,0,0.2,0,0.2-0.1c0.1-0.1,0.1-0.2,0-0.3
		L32.9,57z"/>
	<path class="st0" d="M37.9,56.2C37.9,56.2,37.9,56.1,37.9,56.2c0.3-0.4,0.8-0.4,1.1-0.4c0.2,0.1,0.3,0.2,0.5,0.3
		c0.1,0.1,0.2,0.2,0.3,0.2c0.2,0.1,0.3,0.3,0.3,0.7c0,0.1,0,0.2,0.1,0.2c0.1,0.1,0.1,0.1,0.2,0.1l1.4-0.1c0.1,0,0.2,0,0.2-0.1
		c0-0.1,0.1-0.1,0.1-0.2c-0.1-0.7-0.2-1.2-0.5-1.5c-0.5-0.7-1.2-1.1-2.1-1.2c-1.1-0.1-1.9,0.1-2.7,0.7c-0.8,0.6-1.2,1.5-1.4,2.8
		c-0.1,1.3,0.1,2.2,0.6,2.9c0.6,0.8,1.4,1.3,2.3,1.4c0.2,0,0.4,0,0.6,0c0.6,0,1.1-0.1,1.5-0.4c0.6-0.4,1.1-1,1.4-1.6
		c0.1-0.1,0-0.3-0.1-0.4l-1.3-0.7c-0.1,0-0.2,0-0.2,0c-0.1,0-0.1,0.1-0.2,0.2c-0.2,0.4-0.5,0.7-0.7,1c-0.3,0.2-0.5,0.2-0.8,0.2
		c-0.4-0.1-0.6-0.3-0.9-0.7c-0.3-0.4-0.3-1-0.2-1.8C37.4,56.9,37.5,56.4,37.9,56.2z"/>
	<path class="st0" d="M48.2,57.4c0.2,0,0.3-0.1,0.3-0.2l0.2-1.2c0-0.1,0-0.2-0.1-0.2c0-0.1-0.1-0.1-0.2-0.1l-5.2-0.8
		c-0.2,0-0.3,0.1-0.3,0.2l-1.1,7c0,0.2,0.1,0.3,0.2,0.3l5.3,0.9c0,0,0,0,0,0c0.1,0,0.1,0,0.2-0.1c0.1,0,0.1-0.1,0.1-0.2l0.2-1.2
		c0-0.1,0-0.2-0.1-0.2s-0.1-0.1-0.2-0.1L44.1,61l0.2-1.3l3.2,0.6c0.1,0,0.1,0,0.2,0c0.1,0,0.1-0.1,0.1-0.2l0.2-1.2
		c0-0.2-0.1-0.3-0.2-0.3l-3.3-0.6l0.2-1L48.2,57.4z"/>
	<path class="st0" d="M51.7,57.5c0.3,0,0.6,0.1,0.7,0.2c0.2,0.2,0.3,0.3,0.3,0.6c0,0.2,0.1,0.3,0.3,0.3h1.4c0.2,0,0.3-0.1,0.3-0.3
		c0-0.8-0.2-1.3-0.7-1.8c-0.7-0.5-1.3-0.8-2.2-0.8c-0.4,0-0.9,0.1-1.5,0.2c-0.4,0.2-0.8,0.4-1,0.8c-0.3,0.3-0.5,0.7-0.5,1.2
		c0,0.6,0.2,1.2,0.7,1.6c0.4,0.4,1,0.7,1.7,0.9c0.6,0.2,0.9,0.3,1.1,0.4c0.2,0.1,0.4,0.2,0.4,0.3c0,0,0,0.1,0,0.2
		c0,0.2-0.1,0.3-0.3,0.5c-0.2,0.1-0.5,0.2-0.8,0.2c-0.3,0-0.6-0.2-0.8-0.4c-0.2-0.1-0.3-0.3-0.4-0.8c0-0.1-0.1-0.2-0.3-0.2l-1.4,0.1
		c-0.1,0-0.3,0.1-0.3,0.3c0,0.9,0.3,1.6,0.9,1.9c0.5,0.5,1.3,0.8,2.2,0.8c0.6,0,1.2-0.1,1.6-0.2c0.4-0.1,0.9-0.4,1.2-0.8
		c0.3-0.4,0.4-0.9,0.4-1.3c0-0.4,0-0.9-0.2-1.2c-0.1-0.5-0.5-0.7-0.8-0.9c-0.3-0.2-0.8-0.4-1.6-0.6l-0.2-0.1c-0.5-0.1-0.9-0.2-1-0.4
		c-0.1-0.1-0.1-0.1-0.1-0.2c0-0.1,0-0.1,0-0.1l0.1,0C51.1,57.5,51.3,57.5,51.7,57.5z"/>
	<path class="st0" d="M59.8,58.9c-0.4-0.2-1-0.3-1.7-0.4c-0.4-0.1-0.7-0.1-0.9-0.1c-0.1,0-0.2,0-0.3,0c-0.1-0.1-0.1-0.1-0.1-0.1
		c0-0.1,0.1-0.2,0.1-0.3l0.1,0c0.2-0.1,0.4-0.2,0.7-0.2c0.3-0.1,0.5,0,0.7,0.1c0.2,0.1,0.3,0.3,0.4,0.5c0,0.1,0.2,0.2,0.3,0.2
		l1.4-0.2c0.2,0,0.3-0.2,0.2-0.3c-0.1-0.8-0.5-1.4-1-1.7c-0.4-0.4-1.2-0.6-2.2-0.5c-0.6,0.1-1,0.2-1.5,0.4c-0.5,0.2-0.7,0.6-0.9,0.9
		c-0.2,0.4-0.2,0.7-0.2,1.2c0.1,0.5,0.3,1.1,1,1.5c0.4,0.2,0.9,0.4,1.8,0.5c0.2,0,0.4,0.1,0.6,0.1c0.3,0,0.4,0.1,0.6,0.1
		c0.1,0.1,0.3,0.2,0.4,0.2c0.1,0.1,0.1,0.1,0.1,0.2c0,0.1-0.1,0.3-0.2,0.5c-0.1,0.1-0.4,0.3-0.9,0.3c-0.4,0.1-0.6,0-0.9-0.2
		c-0.3-0.2-0.4-0.4-0.5-0.8c0-0.1-0.1-0.1-0.1-0.2c-0.1,0-0.1-0.1-0.2,0l-1.4,0.3c-0.1,0-0.1,0.1-0.2,0.1c0,0.1-0.1,0.1,0,0.2
		c0.2,0.8,0.6,1.4,1.1,1.9c0.4,0.3,1,0.5,1.7,0.5c0.2,0,0.4,0,0.7,0c0.6-0.1,1.1-0.2,1.6-0.4c0.5-0.2,0.8-0.6,1-1
		c0.2-0.5,0.2-0.9,0.2-1.4c-0.1-0.5-0.2-0.8-0.5-1.2C60.5,59.3,60.1,59,59.8,58.9z"/>
	<path class="st0" d="M69.8,54.3c-0.1,0-0.1-0.1-0.2-0.1l-1.4,0.2c-0.1,0-0.1,0.1-0.2,0.1c0,0.1-0.1,0.1-0.1,0.2l0.4,2.4L66,57.5
		l-0.4-2.4c0-0.2-0.2-0.3-0.3-0.2L64,55.1c-0.1,0-0.1,0.1-0.2,0.1c0,0.1-0.1,0.1-0.1,0.2l1,7c0,0.1,0,0.1,0.1,0.2
		c0,0,0.1,0.1,0.2,0.1c0,0,0,0,0,0l1.4-0.2c0.2,0,0.3-0.2,0.2-0.3l-0.4-2.7l2.2-0.3l0.4,2.7c0,0.1,0,0.1,0.1,0.2
		c0.1,0,0.1,0.1,0.2,0.1l1.4-0.2c0.2,0,0.3-0.2,0.2-0.3l-1-7C69.9,54.4,69.8,54.4,69.8,54.3z"/>
	<path class="st0" d="M72.1,53.8c-0.1,0-0.1,0-0.2,0l-1.4,0.4c-0.1,0-0.2,0.2-0.2,0.3l1.7,6.8c0,0.1,0.1,0.1,0.1,0.2
		c0,0,0.1,0,0.1,0c0,0,0.1,0,0.1,0l1.4-0.4c0.1,0,0.2-0.2,0.2-0.3L72.3,54C72.2,53.9,72.2,53.8,72.1,53.8z"/>
	<path class="st0" d="M79.2,58.1l-3.1,0.7l-1.3-5.3c0-0.1-0.2-0.2-0.3-0.2L73,53.6c-0.1,0-0.1,0.1-0.2,0.1c0,0.1-0.1,0.1,0,0.2
		l1.7,6.8c0,0.1,0.1,0.2,0.3,0.2c0,0,0,0,0.1,0l4.8-1.1c0.1,0,0.1-0.1,0.2-0.1c0-0.1,0.1-0.1,0-0.2l-0.3-1.2
		C79.5,58.1,79.4,58,79.2,58.1z"/>
	<path class="st0" d="M85,56.6l-3.1,0.7L80.6,52c0-0.1-0.2-0.2-0.3-0.2l-1.4,0.3c-0.1,0-0.1,0.1-0.2,0.1c0,0.1-0.1,0.1,0,0.2
		l1.7,6.8c0,0.1,0.1,0.2,0.3,0.2c0,0,0,0,0.1,0l4.8-1.1c0.1,0,0.1-0.1,0.2-0.1c0-0.1,0.1-0.1,0-0.2l-0.3-1.2
		C85.3,56.6,85.2,56.5,85,56.6z"/>
	<path class="st0" d="M91.3,54.2c0-0.1-0.1-0.2-0.1-0.3c-0.1-0.3-0.3-0.6-0.5-0.8c-0.2-0.2-0.5-0.4-1-0.6c-0.4-0.1-1-0.1-1.7-0.1
		c-0.6,0.1-1.1,0-1.2-0.1c-0.1-0.1-0.1-0.1-0.1-0.1c0,0,0-0.1,0-0.1c0-0.1,0-0.2,0-0.2c0.1-0.1,0.4-0.3,0.8-0.4
		c0.4-0.1,0.6-0.1,0.7,0c0.1,0,0.2,0.2,0.3,0.4c0,0.1,0.1,0.2,0.1,0.2c0.1,0.1,0.2,0.1,0.3,0.1l1.4-0.4c0.1,0,0.1-0.1,0.2-0.1
		s0-0.1,0-0.2c-0.2-0.6-0.6-1.1-1.2-1.5c-0.7-0.4-1.4-0.3-2.3-0.1c-0.5,0.2-1,0.4-1.3,0.6c-0.5,0.2-0.7,0.6-0.8,1.1
		c-0.1,0.4-0.1,0.9,0,1.3c0.2,0.6,0.6,1,1.1,1.3c0.3,0.2,1,0.3,1.9,0.3h1.2c0.1,0,0.2,0.1,0.3,0.1c0.1,0,0.2,0,0.2,0
		c0.1,0.1,0.1,0.1,0.1,0.2c0,0.2,0,0.4-0.1,0.5c0,0,0,0-0.1,0.1c-0.1,0.1-0.5,0.3-0.7,0.5c-0.3,0.1-0.7,0-0.9-0.1
		c-0.2-0.1-0.4-0.4-0.6-0.8c-0.1-0.1-0.2-0.2-0.4-0.1l-1.3,0.5c-0.1,0-0.1,0.1-0.2,0.2c0,0.1,0,0.2,0,0.2c0.4,0.9,0.8,1.3,1.5,1.6
		c0.3,0.2,0.7,0.3,1.1,0.3c0.3,0,0.7,0,1.1-0.1c0.6-0.1,1-0.3,1.6-0.7c0.3-0.3,0.7-0.7,0.8-1.1C91.5,55.2,91.5,54.7,91.3,54.2z"/>
</g>
</svg>
