<?xml version="1.0" encoding="utf-8"?>
<!-- Generator: Adobe Illustrator 28.2.0, SVG Export Plug-In . SVG Version: 6.00 Build 0)  -->
<svg version="1.1" id="Calque_1" xmlns="http://www.w3.org/2000/svg" xmlns:xlink="http://www.w3.org/1999/xlink" x="0px" y="0px"
	 viewBox="0 0 113.4 113.4" style="enable-background:new 0 0 113.4 113.4;" xml:space="preserve">
<style type="text/css">
	.st0{fill:#E763A0;}
</style>
<g>
	<path class="st0" d="M28.8,64.6l-2.5,0.8l-0.3-1.1l3-0.9c0.1,0,0.1-0.1,0.2-0.1c0-0.1,0-0.2,0-0.2L28.7,62
		c-0.1-0.1-0.2-0.2-0.3-0.2l-4.6,1.4c-0.1,0-0.1,0.1-0.2,0.1c0,0.1,0,0.1,0,0.2l2.1,6.7c0,0.1,0.1,0.2,0.3,0.2c0,0,0.1,0,0.1,0
		l1.3-0.4c0.1,0,0.1-0.1,0.2-0.1c0-0.1,0-0.1,0-0.2l-0.8-2.6l2.6-0.8c0.1,0,0.1-0.1,0.2-0.1c0-0.1,0-0.2,0-0.2l-0.4-1.1
		C29.1,64.7,28.9,64.6,28.8,64.6z"/>
	<path class="st0" d="M31.1,61.1l-1.4,0.3c-0.1,0-0.1,0.1-0.2,0.1c0,0.1-0.1,0.1,0,0.2l1.7,6.8c0,0.1,0.1,0.2,0.3,0.2c0,0,0,0,0.1,0
		l1.4-0.3c0.1,0,0.1-0.1,0.2-0.1c0-0.1,0.1-0.1,0-0.2l-1.7-6.8C31.4,61.2,31.2,61.1,31.1,61.1z"/>
	<path class="st0" d="M38.3,65.3l-3.1,0.7l-1.3-5.3c0-0.1-0.2-0.2-0.3-0.2l-1.4,0.3c-0.1,0-0.1,0.1-0.2,0.1c0,0.1-0.1,0.1,0,0.2
		l1.7,6.8c0,0.1,0.1,0.2,0.3,0.2c0,0,0,0,0.1,0l4.8-1.1c0.1,0,0.1-0.1,0.2-0.1c0-0.1,0.1-0.1,0-0.2l-0.3-1.2
		C38.6,65.4,38.4,65.3,38.3,65.3z"/>
	<path class="st0" d="M44.6,57.8l-2.1,0.5c-0.1,0-0.2,0.1-0.2,0.3l-0.1,3.9l-1.9-3.5c-0.1-0.1-0.2-0.2-0.3-0.1l-2.1,0.5
		c-0.1,0-0.1,0.1-0.2,0.1c0,0.1-0.1,0.1,0,0.2l1.7,6.8c0,0.1,0.1,0.2,0.3,0.2c0,0,0,0,0.1,0l1.2-0.3c0.2,0,0.2-0.2,0.2-0.3l-0.8-3.2
		L42,66c0.1,0.1,0.2,0.2,0.3,0.1l1.5-0.4c0.1,0,0.2-0.1,0.2-0.3v-3.3l0.7,3.1c0,0.2,0.2,0.2,0.3,0.2l1.3-0.3c0.1,0,0.1-0.1,0.2-0.1
		c0-0.1,0.1-0.1,0-0.2L44.9,58C44.9,57.9,44.7,57.8,44.6,57.8z"/>
	<path class="st0" d="M54.1,59.3c-0.3-0.4-0.6-0.5-1-0.6c-0.4-0.1-1-0.1-1.7-0.1c-0.5,0-1.1,0-1.2-0.1c0,0,0,0-0.1,0
		c0,0-0.1-0.1-0.1-0.1c0-0.1,0-0.3,0-0.3c0.1-0.1,0.4-0.3,0.8-0.4c0.4-0.1,0.6-0.1,0.7,0c0.2,0.1,0.3,0.3,0.5,0.5
		c0.1,0.1,0.2,0.2,0.3,0.1l1.3-0.5c0.1-0.1,0.2-0.2,0.2-0.4c-0.2-0.7-0.7-1.2-1.3-1.5c-0.7-0.2-1.4-0.2-2.2,0
		c-0.6,0.1-1.1,0.3-1.4,0.6c-0.4,0.2-0.6,0.6-0.7,1.1c-0.1,0.5-0.1,0.9,0,1.2c0.1,0.7,0.6,1.1,1.1,1.4c0.4,0.2,1,0.2,1.9,0.2h1.2
		c0.2,0,0.4,0,0.4,0c0,0,0,0,0.1,0.1c0.1,0.1,0.1,0.1,0.1,0.1c0,0,0,0.1,0,0.1c0.1,0.2,0.1,0.3-0.1,0.6c-0.2,0.2-0.4,0.4-0.7,0.5
		c-0.3,0.1-0.7,0.1-0.9,0c-0.2-0.1-0.5-0.3-0.6-0.7C50.5,61,50.4,61,50.2,61l-1.3,0.5c-0.1,0-0.1,0.1-0.2,0.2c0,0.1,0,0.2,0,0.2
		c0.3,0.8,0.8,1.3,1.5,1.8c0.4,0.1,0.7,0.2,1.1,0.2c0.4,0,0.8-0.1,1.2-0.2c0.7-0.2,1.2-0.4,1.5-0.7c0.4-0.3,0.7-0.7,0.8-1.2
		c0.1-0.4,0.1-0.9,0-1.3C54.7,60.1,54.6,59.6,54.1,59.3z"/>
	<path class="st0" d="M59.1,54.9c0.1-0.1,0.2-0.2,0.2-0.4l-0.4-1.1c0-0.1-0.1-0.1-0.1-0.2c-0.1,0-0.1,0-0.2,0l-5.2,2
		c-0.1,0.1-0.2,0.2-0.2,0.4l0.4,1.1c0.1,0.1,0.2,0.2,0.4,0.2l1.7-0.6l1.9,5.2c0,0.1,0.1,0.1,0.2,0.2c0,0,0.1,0,0.1,0s0.1,0,0.1,0
		l1.4-0.6c0.1-0.1,0.2-0.2,0.2-0.4l-2-5.2L59.1,54.9z"/>
	<path class="st0" d="M65.3,51.2c0-0.1-0.1-0.1-0.1-0.2c-0.1,0-0.1,0-0.2,0l-1.3,0.5c-0.1,0-0.1,0.1-0.2,0.1c0,0.1,0,0.1,0,0.2
		l1.4,3.6c0.1,0.1,0.1,0.3,0.2,0.4c0.1,0.2,0.2,0.5,0.2,0.6c0,0,0,0.1,0,0.1c0,0.1,0,0.2-0.1,0.4c-0.2,0.3-0.3,0.4-0.7,0.5
		c-0.4,0.2-0.6,0.1-0.8,0.1c-0.2-0.1-0.4-0.2-0.6-0.4l-0.1-0.1c-0.1-0.2-0.3-0.5-0.4-0.9l-1.4-3.6c-0.1-0.1-0.2-0.2-0.4-0.2
		l-1.3,0.5c-0.1,0.1-0.2,0.2-0.2,0.4l1.2,3.6c0.3,0.7,0.6,1.3,0.9,1.7c0.2,0.2,0.4,0.4,0.7,0.6c0.4,0.2,0.7,0.3,1.2,0.3
		c0.4,0,1-0.1,1.6-0.3c0.5-0.2,0.9-0.4,1.2-0.7c0.3-0.2,0.6-0.6,0.7-0.9c0.1-0.3,0.1-0.8,0.1-1.1c0-0.3-0.1-0.8-0.5-1.8L65.3,51.2z"
		/>
	<path class="st0" d="M72.5,50.1c-0.3-0.3-0.6-0.6-1.1-0.9C71,49,70.6,49,70.1,49c0,0-0.1,0-0.1,0c-0.1,0-0.2,0.1-0.4,0.1
		c-0.3,0.1-0.6,0.2-0.9,0.3l-2.4,0.9c-0.1,0.1-0.2,0.2-0.2,0.4l2.4,6.6c0,0.1,0.1,0.1,0.2,0.2c0,0,0.1,0,0.1,0c0,0,0.1,0,0.1,0
		l2.5-1c0.5-0.2,0.8-0.4,1.2-0.7c0.3-0.3,0.6-0.6,0.8-1c0.2-0.4,0.3-1,0.3-1.5c0-0.5-0.1-1.1-0.3-1.6C73.2,51.2,72.9,50.6,72.5,50.1
		z M70.1,55.2l-1.5-3.9l0.5-0.2c0.5-0.3,0.8-0.4,1-0.4c0.2,0,0.4,0,0.6,0.1c0.2,0.1,0.3,0.3,0.5,0.4c0.1,0.2,0.3,0.5,0.5,1
		c0.2,0.6,0.3,1,0.3,1.2c0,0.4,0,0.5-0.1,0.7c-0.1,0.2-0.2,0.3-0.3,0.4c-0.1,0-0.1,0.1-0.2,0.1c-0.1,0.1-0.3,0.2-0.6,0.3L70.1,55.2z
		"/>
	<path class="st0" d="M74.6,47.2c-0.1,0-0.1,0-0.2,0L73,47.7c-0.1,0.1-0.2,0.2-0.2,0.4l2.5,6.6c0,0.1,0.1,0.1,0.1,0.2
		c0,0,0.1,0,0.1,0c0,0,0.1,0,0.1,0l1.3-0.5c0.1-0.1,0.2-0.2,0.2-0.4l-2.5-6.6C74.7,47.3,74.6,47.3,74.6,47.2z"/>
	<path class="st0" d="M81.2,45.7c-0.9-0.4-1.9-0.4-2.9,0c-0.6,0.2-1.1,0.5-1.4,0.9c-0.2,0.2-0.4,0.5-0.6,0.9
		c-0.2,0.3-0.3,0.8-0.3,1.2c-0.1,0.6,0,1.2,0.3,2c0.4,1.1,1,1.9,1.9,2.3c0.4,0.2,0.9,0.3,1.4,0.3c0.5,0,1-0.1,1.5-0.3
		c1.1-0.4,1.8-1.1,2.2-2c0.3-0.9,0.3-1.9-0.1-3C82.7,47,82.1,46.2,81.2,45.7z M81.3,50.5c-0.2,0.4-0.5,0.8-0.9,0.9
		c-0.5,0.2-0.9,0.2-1.2-0.1c-0.4-0.3-0.8-0.7-1.1-1.4c-0.3-0.7-0.3-1.2,0-1.7c0.2-0.4,0.5-0.8,0.9-0.9c0.4-0.1,0.8-0.1,1.3,0.1
		c0.4,0.2,0.7,0.7,1,1.3C81.4,49.5,81.4,50.1,81.3,50.5z"/>
	<path class="st0" d="M89.7,47.1c-0.2-0.4-0.4-0.8-0.8-1c-0.3-0.2-0.7-0.4-1.1-0.4c-0.4-0.1-0.9,0-1.4,0.1l-0.3,0
		c-0.8,0.1-1.1,0.1-1.2,0c-0.1,0-0.1-0.1-0.1-0.1c0-0.2,0-0.2,0.1-0.4c0.1-0.3,0.4-0.4,0.6-0.4c0.4-0.2,0.6-0.1,0.7-0.1
		c0.2,0.1,0.3,0.2,0.5,0.5c0.1,0.1,0.2,0.2,0.4,0.1l1.3-0.6c0.1-0.1,0.2-0.2,0.1-0.3c-0.2-0.7-0.7-1.2-1.4-1.4
		c-0.6-0.2-1.4-0.1-2.3,0.2c-0.5,0.2-0.9,0.4-1.3,0.8c-0.4,0.4-0.6,0.7-0.7,1.1c-0.1,0.3-0.1,0.7,0.1,1.2c0.2,0.6,0.7,1,1.2,1.2
		c0.3,0.2,0.9,0.3,1.9,0.1c0.6-0.1,1-0.1,1.2-0.1c0.2,0,0.4,0,0.4,0c0.1,0.1,0.1,0.1,0.1,0.1c0,0,0,0,0.1,0.1c0.1,0.2,0,0.3-0.1,0.5
		l0,0c-0.2,0.2-0.4,0.3-0.8,0.5C86.6,49,86.3,49,86,48.9c-0.2-0.1-0.5-0.3-0.6-0.7c-0.1-0.1-0.2-0.2-0.4-0.1l-1.2,0.6
		c-0.1,0-0.1,0.1-0.1,0.2c0,0.1,0,0.2,0,0.2c0.4,0.7,1,1.3,1.7,1.6c0.2,0.1,0.5,0.1,0.8,0.1c0.5,0,1-0.1,1.6-0.3
		c0.6-0.3,1-0.5,1.4-0.8c0.3-0.3,0.6-0.8,0.7-1.2C89.8,48,89.8,47.6,89.7,47.1z"/>
</g>
</svg>
