<?xml version="1.0" encoding="utf-8"?>
<!-- Generator: Adobe Illustrator 28.2.0, SVG Export Plug-In . SVG Version: 6.00 Build 0)  -->
<svg version="1.1" id="Calque_1" xmlns="http://www.w3.org/2000/svg" xmlns:xlink="http://www.w3.org/1999/xlink" x="0px" y="0px"
	 viewBox="0 0 113.4 113.4" style="enable-background:new 0 0 113.4 113.4;" xml:space="preserve">
<style type="text/css">
	.st0{fill:#E763A0;}
</style>
<g>
	<path class="st0" d="M47.7,43.6c0,0,0.1,0,0.1,0l1-0.6c0.1,0,0.1-0.1,0.1-0.2c0-0.1,0-0.2,0-0.2l-1.4-2.3l1-0.6l1.6,2.7
		c0.1,0.1,0.2,0.2,0.4,0.1l1-0.5c0.1,0,0.1-0.1,0.1-0.2c0-0.1,0-0.2,0-0.2l-2.4-4.2c0-0.1-0.1-0.1-0.2-0.1c-0.1,0-0.2,0-0.2,0
		l-6.1,3.6c-0.1,0.1-0.2,0.3-0.1,0.4l0.7,1.2c0.1,0.1,0.3,0.2,0.4,0.1l2.4-1.4l1.4,2.3C47.6,43.5,47.6,43.6,47.7,43.6z"/>
	<path class="st0" d="M52,49.5l3.2-1.9c0.1-0.1,0.2-0.3,0.1-0.4l-0.7-1.2c0-0.1-0.1-0.1-0.2-0.1c-0.1,0-0.2,0-0.2,0l-3.4,2
		c-0.5,0.3-0.9,0.5-1.1,0.6c-0.1,0.1-0.3,0.1-0.5,0c-0.2-0.1-0.4-0.3-0.6-0.6c-0.2-0.2-0.2-0.4-0.2-0.7c0-0.2,0.1-0.5,0.2-0.6
		c0,0,0.2-0.2,0.4-0.3c0.2-0.1,0.3-0.2,0.5-0.3l3.3-2c0.1-0.1,0.2-0.3,0.1-0.4l-0.7-1.2c0-0.1-0.1-0.1-0.2-0.1c-0.1,0-0.2,0-0.2,0
		l-3.2,2.1c-0.7,0.4-1.2,0.7-1.6,1c-0.2,0.2-0.4,0.4-0.6,0.8c-0.1,0.3-0.1,0.7-0.1,1.1c0,0,0,0.1,0,0.1c0.1,0.2,0.2,0.7,0.6,1.5
		c0.3,0.4,0.6,0.8,1,1.1c0.3,0.2,0.7,0.4,1.2,0.4c0.3,0,0.7,0,1.1-0.1C50.7,50.3,51.3,49.9,52,49.5z"/>
	<path class="st0" d="M58.9,53.7c0-0.1,0-0.2,0-0.2l-0.7-1.1c-0.1-0.1-0.3-0.2-0.4-0.1l-3.2,1.9l2.1-4c0-0.1,0-0.2,0-0.3L56,48.7
		c0-0.1-0.1-0.1-0.2-0.1c-0.1,0-0.1,0-0.2,0l-6.1,3.6c-0.1,0-0.1,0.1-0.1,0.2c0,0.1,0,0.2,0,0.2l0.7,1.1c0.1,0.1,0.3,0.2,0.4,0.1
		l3.2-1.8l-2.1,3.9c0,0.1,0,0.2,0,0.3l0.7,1.2c0,0.1,0.1,0.1,0.2,0.1c0,0,0,0,0.1,0c0.1,0,0.1,0,0.1,0l6.1-3.6
		C58.9,53.8,58.9,53.7,58.9,53.7z"/>
	<path class="st0" d="M58.1,60.9c0.1,0.1,0.1,0.1,0.2,0.1c0.1,0,0.1,0,0.2-0.1l1-0.7c0.1,0,0.1-0.1,0.1-0.2c0-0.1,0-0.2,0-0.2
		L58,57.7l0.9-0.6l1.7,2.6c0,0.1,0.1,0.1,0.2,0.1c0.1,0,0.2,0,0.2,0l1-0.7c0.1-0.1,0.2-0.3,0.1-0.4l-2.7-4c0-0.1-0.1-0.1-0.2-0.1
		c-0.1,0-0.2,0-0.2,0l-5.8,4c-0.1,0.1-0.2,0.2-0.1,0.4l0.7,1.2c0,0.1,0.1,0.1,0.2,0.1c0.1,0,0.2,0,0.2,0l2.3-1.5L58.1,60.9z"/>
	<path class="st0" d="M70.7,69.8C70.7,69.8,70.7,69.8,70.7,69.8c-0.3-0.4-0.6-0.8-1.1-1.4l-2-2.2c-0.1-0.1-0.1-0.1-0.2-0.1
		c-0.1,0-0.1,0-0.1,0c0-0.1,0-0.1,0-0.2l-0.8-1.2c0-0.1-0.1-0.1-0.2-0.1c-0.1,0-0.2,0-0.2,0L61.5,68l3.4-5.2c0.1-0.1,0.1-0.2,0-0.3
		L64,61.2c-0.1-0.1-0.2-0.1-0.3-0.1l-7.3,1.8c-0.1,0-0.2,0.1-0.2,0.2c0,0.1,0,0.2,0,0.3l0.9,1.2c0.1,0.1,0.2,0.1,0.3,0.1l1.4-0.4
		l1.4,2l-0.8,1.2c-0.1,0.1-0.1,0.2,0,0.3l0.9,1.3c0,0,0,0.1,0,0.1l0.8,1.2c0,0.1,0.1,0.1,0.2,0.1c0,0,0,0,0.1,0c0.1,0,0.1,0,0.2-0.1
		l5.2-3.8L62.1,71c-0.1,0.1-0.1,0.3,0,0.4l0.9,1c0.1,0.1,0.1,0.1,0.2,0.1c0.1,0,0.1,0,0.2-0.1l2-1.8c0.1,0.1,0.1,0.2,0.2,0.3
		c0.1,0.2,0.2,0.3,0.2,0.3c0,0,0,0.2,0,0.3c0,0.1-0.1,0.3-0.1,0.4c0,0.2-0.1,0.5-0.2,0.9l-0.4,1.8c0,0.1,0,0.2,0.1,0.3l1.2,1.3
		c0.1,0.1,0.1,0.1,0.2,0.1c0,0,0,0,0.1,0c0.1,0,0.2-0.1,0.2-0.2l0.5-1.6c0.2-0.7,0.3-1.1,0.3-1.5c0-0.1,0-0.3,0-0.4
		c0.3,0.2,0.7,0.3,1,0.3c0.5,0,1-0.1,1.5-0.6c0.4-0.4,0.6-0.7,0.7-1.1C70.9,70.6,70.8,70.1,70.7,69.8z M68.9,70.5
		c0,0.1,0,0.1-0.2,0.3S68.4,71,68.3,71c-0.2,0-0.2,0-0.3-0.1l-0.9-0.9l-0.5-0.6l0.9-0.8l0.5,0.6c0.3,0.3,0.4,0.5,0.5,0.6
		c0.1,0.1,0.1,0.1,0.2,0.2C68.9,70.2,68.9,70.3,68.9,70.5z M62.2,63.4l-0.9,1.3l-0.6-0.9L62.2,63.4z"/>
</g>
</svg>
