<?xml version="1.0" encoding="utf-8"?>
<!-- Generator: Adobe Illustrator 28.2.0, SVG Export Plug-In . SVG Version: 6.00 Build 0)  -->
<svg version="1.1" id="Calque_1" xmlns="http://www.w3.org/2000/svg" xmlns:xlink="http://www.w3.org/1999/xlink" x="0px" y="0px"
	 viewBox="0 0 113.4 113.4" style="enable-background:new 0 0 113.4 113.4;" xml:space="preserve">
<style type="text/css">
	.st0{fill:#E763A0;}
</style>
<g>
	<path class="st0" d="M29.5,56.7l-3.1,0.1c-0.2,0-0.3,0.1-0.3,0.3v1.2c0,0.2,0.1,0.3,0.3,0.3h1.4V59c0,0,0,0-0.1,0
		c-0.2,0.1-0.4,0.2-0.6,0.3c-0.3,0.1-0.6,0.2-0.8,0.2c-0.5,0-1-0.2-1.3-0.5c-0.3-0.3-0.5-0.9-0.5-1.7c0-0.8,0.1-1.3,0.4-1.6
		c0.3-0.3,0.8-0.5,1.3-0.5c0.3,0,0.6,0.1,0.8,0.3c0.2,0.1,0.4,0.4,0.5,0.7c0,0.1,0.2,0.2,0.3,0.2l1.5-0.3c0.1,0,0.1-0.1,0.2-0.1
		c0-0.1,0.1-0.1,0-0.2c-0.2-0.7-0.5-1.2-1.1-1.6c-0.6-0.5-1.5-0.6-2.3-0.6c-0.8,0-1.5,0.3-1.9,0.4c-0.7,0.4-1.1,0.9-1.4,1.5
		c-0.3,0.6-0.4,1.3-0.4,2.1c0,0.6,0.2,1.4,0.5,1.9c0.2,0.7,0.9,1.2,1.3,1.5c0.6,0.3,1.2,0.4,2.1,0.4c0.4,0,1.1-0.1,1.8-0.4
		c0.6-0.2,1.1-0.5,1.4-0.9c0.1-0.1,0.1-0.1,0.1-0.2L29.8,57C29.8,56.8,29.7,56.7,29.5,56.7z"/>
	<path class="st0" d="M33.8,53.2c-0.6,0-1.2,0.1-1.7,0.3c-0.3,0.2-0.6,0.4-1,0.8c-0.1,0.1-0.1,0.2-0.2,0.2c-0.2,0.2-0.4,0.5-0.5,0.8
		c-0.2,0.5-0.3,1.2-0.3,1.9c0,0,0,0,0,0c0.1,1.3,0.5,2.2,1.2,2.8c0.6,0.6,1.6,1,2.7,1c1.1,0,2-0.4,2.6-1.1c0.6-0.7,0.9-1.6,0.9-2.9
		c0-1.2-0.4-2.2-1.1-2.9C35.9,53.6,34.9,53.2,33.8,53.2z M35.6,57c0,0.9-0.1,1.3-0.4,1.7c-0.3,0.4-0.7,0.6-1.2,0.6
		c-0.4,0-0.9-0.2-1.2-0.5c-0.3-0.3-0.5-0.9-0.5-1.6s0.1-1.3,0.4-1.8c0.3-0.4,0.8-0.5,1.2-0.5c0.5,0,0.8,0.1,1.2,0.5
		C35.4,55.7,35.6,56.3,35.6,57z"/>
	<path class="st0" d="M43.5,53.1l-5.6,0.2c-0.2,0-0.3,0.1-0.3,0.3v1.2c0,0.1,0,0.2,0.1,0.2c0.1,0.1,0.1,0.1,0.2,0.1l1.8-0.1l0.2,5.5
		c0,0.2,0.1,0.3,0.3,0.3h1.4c0.1,0,0.2,0,0.2-0.1c0.1-0.1,0.1-0.1,0.1-0.2L41.7,55l1.8-0.1c0.2,0,0.3-0.1,0.3-0.3v-1.2
		c0-0.1,0-0.2-0.1-0.2C43.6,53.1,43.6,53.1,43.5,53.1z"/>
	<path class="st0" d="M50.2,53h-1.4c-0.1,0-0.2,0-0.2,0.1c-0.1,0.1-0.1,0.1-0.1,0.2l0.1,2.5l-2.2,0.1l-0.1-2.5
		c0-0.2-0.1-0.3-0.3-0.3h-1.4c-0.1,0-0.1,0-0.2,0.1c-0.1,0.1-0.1,0.1-0.1,0.2l0.2,7c0,0.2,0.1,0.3,0.3,0.3h1.4c0.1,0,0.2,0,0.2-0.1
		c0.1-0.1,0.1-0.1,0.1-0.2l-0.1-2.8l2.2-0.1l0.1,2.8c0,0.2,0.1,0.3,0.3,0.3h1.4c0.1,0,0.1,0,0.2-0.1c0.1-0.1,0.1-0.1,0.1-0.2l-0.2-7
		C50.5,53.1,50.3,53,50.2,53z"/>
	<path class="st0" d="M65.1,52.7H63c-0.1,0-0.2,0.1-0.3,0.2l-0.9,3.8l-1.1-3.8c0-0.1-0.1-0.2-0.3-0.2h-2.1c-0.1,0-0.1,0-0.2,0.1
		C58,52.8,58,52.9,58,53l0.1,5.6L55.7,53c0-0.1-0.1-0.2-0.3-0.2h-1.5c-0.1,0-0.2,0.1-0.3,0.2L51,60c0,0.1,0,0.2,0,0.3
		c0.1,0.1,0.1,0.1,0.2,0.1h1.5c0.1,0,0.2-0.1,0.3-0.2l0.5-1.4l2.4-0.1l0.6,1.4c0,0.1,0.1,0.2,0.3,0.2h1.5l1.3,0.1c0,0,0,0,0,0
		c0.1,0,0.1,0,0.2-0.1c0.1-0.1,0.1-0.1,0.1-0.2l-0.1-3.2l0.9,3.3c0,0.1,0.1,0.2,0.3,0.2h1.4c0.1,0,0.2-0.1,0.3-0.2l0.8-3.4l0.1,3.2
		c0,0.2,0.1,0.3,0.3,0.3h1.3c0.1,0,0.1,0,0.2-0.1c0.1-0.1,0.1-0.1,0.1-0.2l-0.1-7C65.4,52.8,65.2,52.7,65.1,52.7z M55.3,57h-1.1
		l0.5-1.5L55.3,57z"/>
	<path class="st0" d="M75,57.3l-1.4-0.4c-0.1,0-0.2,0-0.2,0c-0.1,0-0.1,0.1-0.1,0.2c-0.1,0.4-0.2,0.7-0.4,0.8c0,0-0.1,0-0.1,0.1
		c-0.2,0.2-0.4,0.3-0.8,0.3c-0.5,0.1-0.8,0-1-0.4c-0.3-0.4-0.4-1-0.4-1.7c0-0.9,0.2-1.4,0.4-1.6c0.4-0.4,0.7-0.5,1.1-0.5
		c0.3,0,0.5,0.1,0.8,0.2c0,0.1,0.1,0.1,0.1,0.2c0.1,0.2,0.3,0.4,0.3,0.6c0,0.1,0.1,0.1,0.1,0.2c0.1,0,0.1,0,0.2,0l1.4-0.4
		c0.1,0,0.1-0.1,0.2-0.1c0-0.1,0-0.2,0-0.2c-0.2-0.5-0.4-1.1-0.7-1.3c-0.5-0.5-1.3-0.8-2.3-0.8c-1.1,0-2,0.4-2.6,1.1
		c-0.7,0.7-1,1.6-1,2.9c0,1.2,0.3,2.2,1,2.8c0.6,0.6,1.5,1,2.5,1c0.9,0,1.5-0.2,2.1-0.7c0.6-0.4,0.9-1,1.1-1.9
		C75.2,57.5,75.1,57.4,75,57.3z"/>
	<path class="st0" d="M90.7,52.3c0-0.1-0.1-0.1-0.2-0.1h-1.6c-0.1,0-0.2,0.1-0.2,0.1l-1.4,2.4l-1.4-2.3c-0.1-0.1-0.1-0.1-0.2-0.1
		h-1.7c-0.1,0-0.1,0-0.2,0.1c0,0-0.1-0.1-0.1-0.1H78c-0.2,0-0.3,0.1-0.3,0.3v0c-0.1-0.1-0.1-0.1-0.2-0.1h-1.4c-0.1,0-0.1,0-0.2,0.1
		c-0.1,0.1-0.1,0.1-0.1,0.2l0.1,7c0,0.2,0.1,0.3,0.3,0.3h1.4c0.1,0,0.1,0,0.2-0.1c0.1-0.1,0.1-0.1,0.1-0.2l-0.1-5.8
		c0.1,0.1,0.1,0.1,0.2,0.1h1.8l0.1,5.6c0,0.2,0.1,0.3,0.3,0.3h1.4c0.1,0,0.1,0,0.2-0.1c0.1-0.1,0.1-0.1,0.1-0.2L81.8,54h1.8
		c0.2,0,0.3-0.1,0.3-0.3V53l2.4,3.6l0.1,2.9c0,0.2,0.1,0.3,0.3,0.3h1.4c0.1,0,0.2,0,0.2-0.1c0.1-0.1,0.1-0.1,0.1-0.2l-0.1-2.9l2.5-4
		C90.8,52.5,90.8,52.3,90.7,52.3z"/>
</g>
</svg>
