<?xml version="1.0" encoding="utf-8"?>
<!-- Generator: Adobe Illustrator 28.2.0, SVG Export Plug-In . SVG Version: 6.00 Build 0)  -->
<svg version="1.1" id="Calque_1" xmlns="http://www.w3.org/2000/svg" xmlns:xlink="http://www.w3.org/1999/xlink" x="0px" y="0px"
	 viewBox="0 0 113.4 113.4" style="enable-background:new 0 0 113.4 113.4;" xml:space="preserve">
<style type="text/css">
	.st0{fill:#E763A0;}
</style>
<g>
	<path class="st0" d="M32.5,43.7l-1.4-0.3c-0.1,0-0.2,0-0.2,0c-0.1,0-0.1,0.1-0.1,0.2l-0.3,2.5l-2.2-0.2l0.3-2.4
		c0-0.2-0.1-0.3-0.2-0.3L26.8,43c-0.1,0-0.2,0-0.2,0.1c-0.1,0-0.1,0.1-0.1,0.2l-0.8,7c0,0.1,0,0.2,0.1,0.2s0.1,0.1,0.2,0.1l1.4,0.1
		c0.1,0,0.3-0.1,0.3-0.2l0.4-2.7l2.2,0.2l-0.4,2.8c0,0.2,0.1,0.3,0.2,0.3l1.4,0.2c0,0,0,0,0,0c0.1,0,0.1,0,0.2-0.1
		c0.1,0,0.1-0.1,0.1-0.2l0.8-7C32.7,43.8,32.6,43.7,32.5,43.7z"/>
	<path class="st0" d="M37.1,44.1c-0.6-0.1-1.1,0-1.6,0.1c-0.4,0.1-0.8,0.2-1.1,0.6l-0.8,0.8c0,0,0,0.1-0.1,0.1
		c-0.3,0.7-0.4,1.3-0.5,1.9c0,0,0,0,0,0c-0.1,1.2,0.1,2.2,0.7,3.1c0.6,0.8,1.5,1.2,2.6,1.3c0.2,0,0.4,0,0.5,0c0.9,0,1.6-0.3,2.3-0.8
		c0.7-0.5,1.2-1.5,1.3-2.7c0.1-1.3-0.1-2.2-0.7-3C39.1,44.6,38.2,44.2,37.1,44.1z M38.4,48.1c-0.1,0.9-0.4,1.3-0.7,1.6
		c-0.5,0.3-0.8,0.4-1.3,0.4c-0.6-0.1-0.9-0.3-1.1-0.7c-0.2-0.3-0.3-0.8-0.3-1.6c0.1-0.7,0.3-1.2,0.7-1.6c0.4-0.3,0.9-0.4,1.4-0.4
		c0.5,0.1,0.8,0.3,1.1,0.7C38.4,46.8,38.5,47.4,38.4,48.1z"/>
	<path class="st0" d="M45.8,51.4l-3.2-0.6l0.9-5.4c0-0.1,0-0.2-0.1-0.2s-0.1-0.1-0.2-0.1l-1.4-0.2c-0.2,0-0.3,0.1-0.3,0.2L40.4,52
		c0,0.2,0.1,0.3,0.2,0.3l4.9,0.8c0,0,0,0,0,0c0.1,0,0.3-0.1,0.3-0.2l0.2-1.2C46.1,51.5,46,51.4,45.8,51.4z"/>
	<path class="st0" d="M51.5,53l-3.1-0.8l1.4-5.3c0-0.1,0-0.3-0.2-0.3l-1.4-0.4c-0.1,0-0.2,0-0.2,0c-0.1,0-0.1,0.1-0.1,0.2L46,53
		c0,0.2,0,0.3,0.2,0.3l4.8,1.3c0,0,0,0,0.1,0c0.1,0,0.2-0.1,0.3-0.2l0.3-1.1c0-0.1,0-0.2,0-0.2S51.5,53,51.5,53z"/>
	<path class="st0" d="M59.7,48.9l-1.6-0.4c-0.1,0-0.2,0-0.3,0.1l-2,2l-0.8-2.6c0-0.1-0.1-0.2-0.2-0.2l-1.5-0.4c-0.1,0-0.2,0-0.3,0.1
		C53,47.4,53,47.5,53,47.6l1.4,4.5L53.6,55c0,0.1,0,0.2,0,0.2s0.1,0.1,0.2,0.1l1.3,0.3c0,0,0,0,0.1,0c0.1,0,0.2-0.1,0.3-0.2l0.8-2.8
		l3.5-3.2c0.1-0.1,0.1-0.2,0.1-0.3C59.8,49,59.8,48.9,59.7,48.9z"/>
	<path class="st0" d="M69,52.4c0-0.1-0.1-0.1-0.2-0.2l-1.3-0.5c-0.1-0.1-0.3,0-0.4,0.2l-1,2.3l-2.1-0.9l1-2.3c0-0.1,0-0.2,0-0.2
		s-0.1-0.1-0.2-0.2l-1.3-0.5c-0.1-0.1-0.3,0-0.4,0.2l-2.7,6.5c0,0.1,0,0.2,0,0.2s0.1,0.1,0.2,0.2l1.3,0.5c0.1,0.1,0.3,0,0.4-0.2
		l1.1-2.5l2.1,0.9l-1.1,2.5c0,0.1,0,0.2,0,0.2c0,0.1,0.1,0.1,0.2,0.2l1.3,0.5c0,0,0.1,0,0.1,0c0.1,0,0.2-0.1,0.3-0.2l2.7-6.5
		C69,52.6,69,52.5,69,52.4z"/>
	<path class="st0" d="M75.3,56.5c-0.3-0.9-0.9-1.6-2-2.2c-0.5-0.2-1-0.4-1.6-0.4c-0.4,0-0.8,0-1.2,0.2c-0.4,0.2-0.7,0.4-1.1,0.7
		c-0.5,0.5-0.9,1-1.2,1.6c0,0,0,0,0,0c-0.5,1.1-0.6,2.1-0.3,2.9c0.3,0.9,0.9,1.6,2,2.2c0.6,0.3,1.2,0.4,1.7,0.4
		c0.4,0,0.7-0.1,1.1-0.2c0.9-0.3,1.6-1.1,2.2-2.1C75.4,58.3,75.6,57.3,75.3,56.5z M73,58.7c-0.4,0.7-0.8,1.1-1.2,1.3
		c-0.5,0.2-0.9,0.2-1.2-0.1c-0.3-0.2-0.8-0.6-0.9-1c-0.2-0.5-0.1-1,0.3-1.7c0,0,0,0,0,0c0.4-0.7,0.7-1.1,1.2-1.3
		c0.2-0.1,0.4-0.1,0.6-0.1c0.2,0,0.5,0.1,0.7,0.2c0.3,0.2,0.8,0.5,0.9,1C73.5,57.6,73.4,58.1,73,58.7z"/>
	<path class="st0" d="M81.3,63.9c0.6-0.9,0.9-1.9,0.7-2.9c-0.1-1-0.6-1.7-1.6-2.4c-0.5-0.3-1-0.5-1.5-0.6c-0.3-0.1-0.8-0.1-1.3,0
		c-0.4,0.1-0.8,0.2-1.2,0.4c-0.5,0.3-1,0.8-1.4,1.4c-0.7,1.1-0.9,2-0.7,2.9c0.1,1,0.6,1.7,1.6,2.4c0.7,0.5,1.4,0.7,2.1,0.7
		c0.2,0,0.5,0,0.7-0.1C79.8,65.5,80.7,64.9,81.3,63.9z M79.7,62.8c-0.5,0.6-0.9,1-1.3,1.1c-0.4,0.1-0.9,0-1.3-0.3
		c-0.3-0.2-0.6-0.6-0.7-1.1c0-0.4,0.1-1,0.5-1.6c0,0,0,0,0,0c0.4-0.6,0.8-1,1.3-1.1c0.1,0,0.2,0,0.3,0c0.3,0,0.6,0.1,1,0.3
		c0.4,0.2,0.6,0.6,0.7,1.1C80.3,61.6,80.1,62.1,79.7,62.8z"/>
	<path class="st0" d="M87.5,65.2c-0.1-0.4-0.6-0.9-0.9-1.2L84.8,62C84.7,62,84.7,62,84.6,62c0,0-0.1,0-0.2,0.1l-5.1,5
		c-0.1,0.1-0.1,0.3,0,0.4l1.8,1.9c0.4,0.4,0.7,0.6,1.1,0.9c0.4,0.2,0.9,0.3,1.2,0.3c0.5,0,1-0.1,1.5-0.3c0.4-0.2,0.9-0.5,1.2-0.9
		c0.5-0.4,0.9-0.9,1.2-1.4c0.4-0.5,0.5-1.1,0.5-1.5C87.8,66,87.7,65.6,87.5,65.2z M85.6,66c0,0.2-0.1,0.3-0.1,0.5l-0.1,0.2
		c-0.1,0.2-0.4,0.5-0.7,0.9c-0.4,0.4-0.7,0.7-0.9,0.7c0,0-0.1,0-0.1,0.1c-0.1,0.1-0.3,0.1-0.5,0.1c-0.1,0-0.3-0.1-0.4-0.1l-0.6-0.6
		l-0.5-0.6l2.9-2.8l0,0.1c0,0,0,0.1,0.1,0.1c0.4,0.4,0.7,0.7,0.7,0.8C85.5,65.7,85.6,65.9,85.6,66z"/>
</g>
</svg>
