<?xml version="1.0" encoding="utf-8"?>
<!-- Generator: Adobe Illustrator 28.2.0, SVG Export Plug-In . SVG Version: 6.00 Build 0)  -->
<svg version="1.1" id="Calque_1" xmlns="http://www.w3.org/2000/svg" xmlns:xlink="http://www.w3.org/1999/xlink" x="0px" y="0px"
	 viewBox="0 0 113.4 113.4" style="enable-background:new 0 0 113.4 113.4;" xml:space="preserve">
<style type="text/css">
	.st0{fill:#FE76B8;}
	.st1{fill:#E8629F;}
</style>
<g>
	<g>
		<path class="st0" d="M32.6,92.3c-0.3-0.2-0.7-0.4-1.3-0.6l-4.2-1.4c-0.1,0-0.3,0-0.4,0.2l-0.5,1.3c-0.1,0.1,0,0.3,0.2,0.4l4.3,1.5
			c0.7,0.2,0.8,0.4,0.9,0.4c0,0,0.1,0.2,0,0.5c-0.1,0.2-0.2,0.3-0.4,0.4c-0.1,0-0.3,0-0.7-0.1c-0.1,0-0.2,0-0.2,0
			c-0.1,0-0.1,0.1-0.1,0.2l-0.3,1.3c0,0.1,0,0.3,0.2,0.3c0.4,0.1,0.8,0.2,1.1,0.2c0.3,0,0.6-0.1,0.9-0.2c0.6-0.3,1-0.8,1.2-1.5
			c0.2-0.6,0.2-1.2,0.1-1.6C33.3,93,33,92.6,32.6,92.3z"/>
		<path class="st0" d="M34.6,85.4c-0.3-0.2-0.9-0.4-1.7-0.7l-3.5-1.2c-0.1,0-0.1,0-0.2,0S29,83.6,29,83.6L28.6,85
			c-0.1,0.1,0,0.3,0.2,0.4l3.7,1.3c0.5,0.2,0.9,0.3,1.1,0.4c0.2,0.1,0.3,0.2,0.3,0.4c0.1,0.2,0,0.4-0.1,0.8
			c-0.1,0.3-0.3,0.5-0.4,0.7c-0.2,0.1-0.4,0.2-0.6,0.1c-0.1,0-0.4-0.1-1.1-0.3L28,87.4c-0.1,0-0.3,0-0.4,0.2l-0.5,1.3
			c0,0.1,0,0.1,0,0.2s0.1,0.1,0.2,0.1l3.6,1.2c0.8,0.3,1.4,0.4,1.8,0.5c0.1,0,0.1,0,0.2,0c0.3,0,0.5-0.1,0.8-0.2
			c0.3-0.1,0.7-0.3,0.9-0.7c0.3-0.3,0.5-0.8,0.8-1.5c0.2-0.6,0.3-1,0.2-1.5c0-0.4-0.1-0.8-0.3-1.1C35.2,85.8,34.9,85.6,34.6,85.4z"
			/>
		<path class="st0" d="M33.5,76.4c-0.1,0-0.1-0.1-0.2,0c-0.1,0-0.1,0.1-0.2,0.1l-0.7,1.1c-0.1,0.1,0,0.3,0.1,0.4l3.1,2l-4.5,0
			c-0.1,0-0.2,0-0.2,0.1l-0.7,1.2c-0.1,0.1,0,0.3,0.1,0.4l6,3.7c0,0,0.1,0,0.2,0c0,0,0,0,0.1,0c0.1,0,0.1-0.1,0.2-0.1l0.7-1.1
			c0.1-0.1,0-0.3-0.1-0.4l-3-1.9l4.4,0c0,0,0,0,0,0c0.1,0,0.2,0,0.2-0.1l0.8-1.2c0.1-0.1,0-0.3-0.1-0.4L33.5,76.4z"/>
		<path class="st0" d="M41.1,71.8c-0.1,0-0.1-0.1-0.2-0.1c-0.1,0-0.1,0-0.2,0.1l-1.9,2.4c0,0.1-0.1,0.1-0.1,0.2c0,0.1,0,0.1,0.1,0.2
			l0.9,0.7c0.1,0.1,0.3,0.1,0.4,0l0.8-1.1l0.4,0.3c0,0.2-0.1,0.4-0.1,0.7c-0.1,0.3-0.2,0.5-0.4,0.7c-0.3,0.4-0.7,0.6-1.2,0.7
			c-0.5,0-1-0.2-1.6-0.7c-0.6-0.4-0.9-0.9-0.9-1.3c-0.1-0.5,0.1-0.9,0.4-1.3c0.2-0.3,0.5-0.5,0.7-0.5c0.3-0.1,0.5-0.1,0.8,0
			c0.1,0.1,0.3,0,0.4-0.1l0.7-1.3c0-0.1,0-0.1,0-0.2S40.1,71,40,71c-0.7-0.3-1.3-0.4-2-0.2c-0.6,0.2-1.3,0.6-1.8,1.4
			c-0.4,0.6-0.7,1.1-0.8,1.7c-0.1,0.7-0.1,1.4,0.2,2c0.3,0.6,0.7,1.2,1.3,1.7c0.6,0.4,1.2,0.7,1.8,0.9c0.2,0.1,0.5,0.1,0.7,0.1
			c0.4,0,0.9-0.1,1.3-0.3c0.6-0.3,1.2-0.7,1.7-1.3c0.4-0.5,0.7-1,0.8-1.7c0.2-0.6,0.3-1.2,0.2-1.6c0-0.1,0-0.1-0.1-0.2L41.1,71.8z"
			/>
		<path class="st0" d="M52.1,65.4c0-0.1-0.1-0.1-0.2-0.1c-0.1,0-0.1,0-0.2,0l-3.1,1.9l-0.7-1.2l2.8-1.7c0.1,0,0.1-0.1,0.1-0.2
			c0-0.1,0-0.1,0-0.2l-0.6-1c-0.1-0.1-0.3-0.2-0.4-0.1l-2.8,1.7l-0.5-0.8l3-1.8c0.1,0,0.1-0.1,0.1-0.2c0-0.1,0-0.1,0-0.2l-0.6-1
			c0-0.1-0.1-0.1-0.2-0.1c-0.1,0-0.1,0-0.2,0l-4.5,2.7c-0.1,0.1-0.2,0.3-0.1,0.4l2.9,4.8c0,0,0,0,0,0c-0.1,0-0.1,0-0.2,0.1l-2,2.6
			l-4.4-3.4c-0.1-0.1-0.3-0.1-0.4,0L39,68.7c0,0.1-0.1,0.1-0.1,0.2c0,0.1,0,0.1,0.1,0.2l5.5,4.3c0.1,0,0.1,0.1,0.2,0.1
			c0.1,0,0.2,0,0.2-0.1l2.9-3.8c0,0,0.1,0,0.1,0l4.6-2.8c0.1-0.1,0.2-0.3,0.1-0.4L52.1,65.4z"/>
		<path class="st0" d="M68.6,50.9c-0.4-0.5-0.9-0.8-1.4-0.9c-0.5-0.1-1-0.1-1.4,0.2c-0.3,0.1-0.7,0.5-1.4,1.1l-1.7,1.5
			c0,0,0,0.1,0,0.1l-1.3,0.7c-0.1,0-0.1,0.1-0.1,0.2l-0.1,2.2l-1.9-1.1c-0.1,0-0.2,0-0.3,0l-1.5,0.8c-0.1,0.1-0.1,0.1-0.1,0.3
			c0,0.1,0.1,0.2,0.2,0.2l3.4,1.8l-0.3,4.1l-0.5-0.9c0-0.1-0.1-0.1-0.2-0.1c-0.1,0-0.1,0-0.2,0l-3.2,1.7l-0.6-1.2l2.9-1.5
			c0.1-0.1,0.2-0.2,0.1-0.4l-0.5-1.1c0-0.1-0.1-0.1-0.2-0.1c-0.1,0-0.1,0-0.2,0L55,60.1l-0.5-0.9l3.1-1.6c0.1-0.1,0.2-0.2,0.1-0.4
			l-0.6-1.1c0-0.1-0.1-0.1-0.2-0.1c-0.1,0-0.2,0-0.2,0l-4.6,2.4c-0.1,0.1-0.2,0.2-0.1,0.4l3.3,6.2c0,0.1,0.1,0.1,0.2,0.1
			c0,0,0.1,0,0.1,0c0,0,0.1,0,0.1,0l4.8-2.5c0.1-0.1,0.1-0.2,0.1-0.3c0,0,0,0,0,0c0,0,0.1,0,0.2,0c0,0,0.1,0,0.1,0l1.5-0.8
			c0.1,0,0.1-0.1,0.1-0.2l0.2-2.5l2.2,1.2c0.1,0,0.2,0,0.3,0l1.5-0.8c0.1-0.1,0.1-0.1,0.1-0.3s-0.1-0.2-0.2-0.2l-3.7-1.9l0.2-3.2
			l4.1,4.8c0,0.1,0.1,0.1,0.2,0.1c0,0,0,0,0,0c0.1,0,0.1,0,0.2-0.1l1.1-0.9c0.1,0,0.1-0.1,0.1-0.2c0-0.1,0-0.1-0.1-0.2l-1.5-1.8
			l0.5-0.4c0.5-0.4,0.9-0.8,1.1-1.1c0.2-0.2,0.3-0.5,0.4-0.8c0.1-0.3,0.1-0.7,0-1C69.1,51.6,68.9,51.2,68.6,50.9z M67.2,52.6
			c0,0.1,0,0.3-0.1,0.4c0,0.1-0.2,0.3-0.7,0.7L66,54l-0.9-1.1l0.3-0.3c0.5-0.4,0.7-0.5,0.8-0.6c0.1-0.1,0.3-0.1,0.5-0.1
			c0.2,0,0.3,0.1,0.4,0.2C67.1,52.3,67.2,52.4,67.2,52.6z"/>
		<path class="st0" d="M75.5,48.8c-0.1-0.1-0.3-0.1-0.4,0l-2.5,2.7l-1-0.9l2.2-2.4c0.1-0.1,0.1-0.1,0.1-0.2s0-0.1-0.1-0.2L72.9,47
			c-0.1-0.1-0.3-0.1-0.4,0l-2.2,2.4l-0.7-0.7l2.4-2.6c0.1-0.1,0.1-0.3,0-0.4l-0.9-0.8c-0.1-0.1-0.1-0.1-0.2-0.1
			c-0.1,0-0.1,0-0.2,0.1l-3.5,3.8c-0.1,0.1-0.1,0.3,0,0.4l5.2,4.8c0.1,0.1,0.1,0.1,0.2,0.1c0.1,0,0.2,0,0.2-0.1l3.6-3.9
			c0.1-0.1,0.1-0.1,0.1-0.2s0-0.1-0.1-0.2L75.5,48.8z"/>
		<path class="st0" d="M78.9,42.6c-0.3-0.4-0.7-0.7-1.2-1.1c-0.6-0.4-1.1-0.6-1.6-0.8c-0.5-0.1-1-0.2-1.4-0.1
			c-0.5,0.1-0.9,0.3-1.3,0.6c-0.3,0.2-0.6,0.6-0.9,1.1L71,44.5c0,0.1-0.1,0.1,0,0.2s0.1,0.1,0.1,0.2l5.8,3.9c0,0,0.1,0,0.2,0
			c0,0,0,0,0.1,0c0.1,0,0.1-0.1,0.2-0.1l1.5-2.2c0.3-0.5,0.5-0.9,0.6-1.2c0.1-0.5,0.2-0.9,0.1-1.3C79.5,43.6,79.2,43.1,78.9,42.6z
			 M73.4,44.1l0.2-0.3c0.4-0.6,0.6-0.8,0.7-0.9c0.2-0.2,0.3-0.2,0.5-0.3c0.2,0,0.4,0,0.7,0c0.3,0.1,0.6,0.3,1,0.5
			c0.4,0.3,0.7,0.6,0.9,0.8c0.2,0.3,0.3,0.4,0.3,0.6c0,0.2,0,0.3-0.1,0.5c0,0.1-0.1,0.3-0.4,0.7l-0.4,0.6L73.4,44.1z"/>
		<path class="st0" d="M83.3,36.7l-5.2-2l0.7-1.7c0-0.1,0-0.1,0-0.2c0-0.1-0.1-0.1-0.2-0.1l-1.1-0.4c-0.1-0.1-0.3,0-0.4,0.2l-2,5.2
			c0,0.1,0,0.1,0,0.2c0,0,0.1,0.1,0.1,0.1c-0.1,0-0.3,0-0.3,0.2l-0.5,1.3c0,0.1,0,0.1,0,0.2c0,0.1,0.1,0.1,0.2,0.1l6.6,2.5
			c0,0,0.1,0,0.1,0c0.1,0,0.2-0.1,0.3-0.2l0.5-1.3c0-0.1,0-0.1,0-0.2c0-0.1-0.1-0.1-0.2-0.1l-5.3-2.1c0,0,0.1,0,0.1,0
			c0.1,0,0.1-0.1,0.2-0.2l0.7-1.7l5.2,2c0,0,0.1,0,0.1,0c0.1,0,0.2-0.1,0.3-0.2l0.5-1.3c0-0.1,0-0.1,0-0.2
			C83.5,36.8,83.4,36.7,83.3,36.7z"/>
		<path class="st0" d="M82.5,23.8c-1.2-0.1-2.2,0.1-3,0.7c-0.8,0.6-1.2,1.5-1.3,2.6c-0.1,0.6,0,1.2,0.1,1.6c0.1,0.4,0.3,0.7,0.6,1.1
			c0.1,0.2,0.3,0.3,0.4,0.4l-0.9-0.3c-0.1,0-0.1,0-0.2,0c-0.1,0-0.1,0.1-0.2,0.2l-0.5,1.3c-0.1,0.1,0,0.3,0.2,0.4l6.6,2.5
			c0,0,0.1,0,0.1,0c0,0,0.1,0,0.1,0c0.1,0,0.1-0.1,0.2-0.2l0.5-1.3c0.1-0.1,0-0.3-0.2-0.4l-3.2-1.2c0.2,0,0.4,0,0.6,0
			c0.9,0,1.7-0.2,2.3-0.7c0.8-0.6,1.2-1.5,1.3-2.6c0.1-1.1-0.1-2-0.8-2.8C84.6,24.4,83.7,23.9,82.5,23.8z M80,27.2
			c0.1-0.5,0.3-0.9,0.6-1.1c0.3-0.2,0.7-0.3,1.2-0.3c0.1,0,0.3,0,0.5,0c0.7,0.1,1.3,0.3,1.6,0.7c0.3,0.3,0.4,0.8,0.4,1.2
			c-0.1,0.5-0.3,0.9-0.7,1.1c-0.4,0.3-0.9,0.4-1.7,0.3c-0.7-0.1-1.3-0.3-1.6-0.6C80,28.1,79.9,27.7,80,27.2z"/>
		<path class="st0" d="M87.1,17.7c0-0.1-0.1-0.1-0.2-0.1l-7-1c-0.1,0-0.2,0-0.2,0.1c-0.1,0-0.1,0.1-0.1,0.2l-0.2,1.3
			c0,0.2,0.1,0.3,0.2,0.3l3.7,0.5l-4.1,1.8c-0.1,0-0.2,0.1-0.2,0.2l-0.2,1.4c0,0.1,0,0.1,0.1,0.2c0,0.1,0.1,0.1,0.2,0.1l7,1
			c0,0,0,0,0,0c0.1,0,0.1,0,0.2-0.1c0.1,0,0.1-0.1,0.1-0.2l0.2-1.3c0-0.2-0.1-0.3-0.2-0.3l-3.6-0.5l4-1.8c0.1,0,0.2-0.1,0.2-0.2
			l0.2-1.4C87.2,17.8,87.1,17.7,87.1,17.7z"/>
	</g>
	<g transform="matrix(0.322364,-0.946536,0.946536,0.322364,1971.79,6151.93)">
		<path vector-effect="none" class="st1" d="M5109.8-3795.4h1.4v4.5c0,0.6-0.1,1-0.2,1.3c-0.1,0.4-0.4,0.7-0.7,1
			c-0.4,0.2-0.8,0.4-1.4,0.4c-0.7,0-1.2-0.2-1.6-0.6c-0.4-0.4-0.6-1-0.6-1.7l1.3-0.2c0,0.4,0.1,0.7,0.2,0.9c0.2,0.3,0.4,0.4,0.7,0.4
			c0.3,0,0.5-0.1,0.7-0.3c0.1-0.2,0.2-0.6,0.2-1.1V-3795.4"/>
	</g>
	<g transform="matrix(0.322364,-0.946536,0.946536,0.322364,1979.2,6130.16)">
		<path vector-effect="none" class="st1" d="M5089.8-3795.4h1.4v3.8c0,0.6,0,1,0.1,1.2c0.1,0.3,0.2,0.5,0.4,0.7
			c0.2,0.2,0.5,0.3,0.9,0.3c0.4,0,0.7-0.1,0.9-0.2c0.2-0.2,0.3-0.4,0.4-0.6s0.1-0.6,0.1-1.2v-3.9h1.4v3.7c0,0.8,0,1.4-0.1,1.8
			c-0.1,0.3-0.2,0.6-0.4,0.9s-0.5,0.4-0.8,0.6c-0.3,0.1-0.8,0.2-1.4,0.2c-0.7,0-1.2-0.1-1.5-0.2c-0.3-0.2-0.6-0.4-0.8-0.6
			c-0.2-0.2-0.3-0.5-0.4-0.8c-0.1-0.4-0.1-1-0.1-1.8V-3795.4"/>
	</g>
	<g transform="matrix(0.530837,-0.847384,0.847384,0.530837,1987.72,6104.19)">
		<path vector-effect="none" class="st1" d="M4065.2-4849.4v-7h1.4l2.9,4.7v-4.7h1.3v7h-1.4l-2.8-4.6v4.6H4065.2"/>
	</g>
	<g transform="matrix(0.612656,-0.790253,0.790253,0.612656,2002.98,6079.73)">
		<path vector-effect="none" class="st1" d="M3543.1-5230.8v-1.2h3.1v2.8c-0.3,0.3-0.7,0.5-1.3,0.8c-0.6,0.2-1.1,0.3-1.7,0.3
			c-0.7,0-1.4-0.2-1.9-0.5c-0.5-0.3-1-0.8-1.2-1.3c-0.3-0.6-0.4-1.2-0.4-1.9c0-0.7,0.2-1.4,0.5-2c0.3-0.6,0.8-1,1.4-1.3
			c0.5-0.2,1-0.4,1.7-0.4c0.9,0,1.6,0.2,2,0.6s0.8,0.9,0.9,1.5l-1.4,0.3c-0.1-0.3-0.3-0.6-0.6-0.8c-0.3-0.2-0.6-0.3-1-0.3
			c-0.6,0-1.1,0.2-1.5,0.6c-0.4,0.4-0.6,1-0.6,1.8c0,0.8,0.2,1.5,0.6,1.9s0.9,0.6,1.5,0.6c0.3,0,0.6-0.1,0.9-0.2
			c0.3-0.1,0.6-0.3,0.8-0.4v-0.9H3543.1"/>
	</g>
	<g transform="matrix(0.612656,-0.790253,0.790253,0.612656,2022.58,6054.44)">
		<path vector-effect="none" class="st1" d="M3515.5-5228.2v-7h1.4v5.8h3.5v1.2H3515.5"/>
	</g>
	<g transform="matrix(0.853834,-0.520399,0.520399,0.853834,2034.75,6037.49)">
		<path vector-effect="none" class="st1" d="M1409.6-6130.7v-7h5.2v1.2h-3.8v1.6h3.5v1.2h-3.5v1.9h3.9v1.2H1409.6"/>
	</g>
	<g transform="matrix(0.886847,-0.461899,0.461899,0.886847,2057.13,6023.82)">
		<path vector-effect="none" class="st1" d="M974.2-6210.1"/>
	</g>
	<g transform="matrix(0.886847,-0.461899,0.461899,0.886847,2066.88,6018.74)">
		<path vector-effect="none" class="st1" d="M966.5-6210.1v-7h5.2v1.2h-3.8v1.6h3.5v1.2h-3.5v1.9h3.9v1.2H966.5"/>
	</g>
	<g transform="matrix(0.87283,-0.487868,0.487868,0.87283,2091.13,6006.11)">
		<path vector-effect="none" class="st1" d="M1127.9-6179.5l2.4-3.7l-2.2-3.4h1.7l1.4,2.3l1.4-2.3h1.6l-2.2,3.4l2.4,3.6h-1.7
			l-1.6-2.4l-1.6,2.4H1127.9"/>
	</g>
	<g transform="matrix(0.759199,-0.650742,0.650742,0.759199,2116.59,5991.61)">
		<path vector-effect="none" class="st1" d="M2305.7-5839v-7h2.3c0.9,0,1.4,0,1.7,0.1c0.4,0.1,0.7,0.3,1,0.7s0.4,0.8,0.4,1.4
			c0,0.4-0.1,0.8-0.2,1.1c-0.2,0.3-0.4,0.5-0.6,0.7c-0.2,0.2-0.5,0.3-0.7,0.3c-0.3,0.1-0.8,0.1-1.5,0.1h-0.9v2.7H2305.7
			 M2307.1-5844.8v2h0.8c0.6,0,0.9,0,1.1-0.1s0.3-0.2,0.4-0.3c0.1-0.2,0.2-0.3,0.2-0.5c0-0.3-0.1-0.5-0.2-0.6
			c-0.2-0.2-0.3-0.3-0.6-0.3c-0.2,0-0.5,0-1,0H2307.1"/>
	</g>
	<g transform="matrix(0.678429,-0.734563,0.734563,0.678429,2138.07,5973.1)">
		<path vector-effect="none" class="st1" d="M2947.3-5534v-7h5.2v1.2h-3.8v1.6h3.5v1.2h-3.5v1.9h3.9v1.2H2947.3"/>
	</g>
	<g transform="matrix(0.558957,-0.829105,0.829105,0.558957,2157.49,5951.88)">
		<path vector-effect="none" class="st1" d="M3732.2-5032.3h2.6c0.6,0,1,0,1.3,0.1c0.4,0.1,0.8,0.3,1.1,0.6c0.3,0.3,0.5,0.7,0.7,1.1
			c0.2,0.5,0.2,1,0.2,1.7c0,0.6-0.1,1.1-0.2,1.5c-0.2,0.5-0.4,0.9-0.8,1.2c-0.2,0.2-0.6,0.4-1,0.6c-0.3,0.1-0.7,0.1-1.3,0.1h-2.7
			V-5032.3 M3733.6-5031.2v4.7h1.1c0.4,0,0.7,0,0.9-0.1c0.2-0.1,0.4-0.2,0.6-0.3c0.2-0.1,0.3-0.4,0.4-0.7c0.1-0.3,0.1-0.7,0.1-1.3
			s0-1-0.1-1.3c-0.1-0.3-0.2-0.5-0.4-0.7c-0.2-0.2-0.4-0.3-0.7-0.3c-0.2,0-0.6-0.1-1.2-0.1H3733.6"/>
	</g>
	<g transform="matrix(0.360967,-0.932497,0.932497,0.360967,2175.46,5924.7)">
		<path vector-effect="none" class="st1" d="M4730.4-4076.9v-7h1.4v7H4730.4"/>
	</g>
	<g transform="matrix(0.360967,-0.932497,0.932497,0.360967,2179.07,5915.37)">
		<path vector-effect="none" class="st1" d="M4724.4-4076.9v-5.9h-2.1v-1.2h5.6v1.2h-2.1v5.9H4724.4"/>
	</g>
	<g transform="matrix(0.360967,-0.932497,0.932497,0.360967,2188.45,5891.13)">
		<path vector-effect="none" class="st1" d="M4703-4076.9v-7h1.4v7H4703"/>
	</g>
	<g transform="matrix(0.109464,-0.993914,0.993914,0.109464,2192.78,5878.87)">
		<path vector-effect="none" class="st1" d="M5582.2-2738.7c0-0.7,0.1-1.3,0.3-1.8c0.2-0.4,0.4-0.7,0.7-1c0.3-0.3,0.6-0.5,0.9-0.6
			c0.4-0.2,0.9-0.3,1.5-0.3c1,0,1.9,0.3,2.5,1s0.9,1.5,0.9,2.7c0,1.1-0.3,2-0.9,2.7s-1.4,1-2.5,1c-1,0-1.9-0.3-2.5-1
			C5582.5-2736.7,5582.2-2737.6,5582.2-2738.7 M5583.7-2738.8c0,0.8,0.2,1.4,0.6,1.8c0.4,0.4,0.8,0.6,1.4,0.6c0.6,0,1-0.2,1.4-0.6
			c0.4-0.4,0.5-1,0.5-1.8c0-0.8-0.2-1.4-0.5-1.8c-0.4-0.4-0.8-0.6-1.4-0.6c-0.6,0-1.1,0.2-1.4,0.6
			C5583.8-2740.2,5583.7-2739.6,5583.7-2738.8"/>
	</g>
	<g transform="matrix(0.136847,-0.990516,0.990516,0.136847,2196.24,5847.39)">
		<path vector-effect="none" class="st1" d="M5480.8-2887.6v-7h1.4l2.9,4.7v-4.7h1.3v7h-1.4l-2.8-4.6v4.6H5480.8"/>
	</g>
</g>
</svg>
