<?xml version="1.0" encoding="utf-8"?>
<!-- Generator: Adobe Illustrator 28.2.0, SVG Export Plug-In . SVG Version: 6.00 Build 0)  -->
<svg version="1.1" id="Calque_1" xmlns="http://www.w3.org/2000/svg" xmlns:xlink="http://www.w3.org/1999/xlink" x="0px" y="0px"
	 viewBox="0 0 113.4 113.4" style="enable-background:new 0 0 113.4 113.4;" xml:space="preserve">
<style type="text/css">
	.st0{fill:#E8629F;}
</style>
<g>
	<path class="st0" d="M41.3,57.3c-0.3-0.2-0.7-0.4-1.1-0.4c-0.4,0-1,0-1.7,0.2c-0.9,0.2-1.2,0.1-1.3,0.1c-0.1,0-0.2-0.1-0.2-0.1
		c0-0.1,0-0.2,0-0.2c0.1-0.2,0.3-0.4,0.6-0.5c0.3-0.1,0.6-0.2,0.7-0.1c0.2,0,0.3,0.2,0.5,0.4c0.1,0.1,0.2,0.2,0.4,0.1l1.3-0.6
		c0.1-0.1,0.2-0.2,0.1-0.4c-0.3-0.6-0.8-1.1-1.5-1.3c-0.6-0.2-1.4-0.1-2.3,0.3c-0.5,0.2-0.9,0.5-1.3,0.9c-0.3,0.3-0.5,0.7-0.6,1.2
		c-0.1,0.4,0,0.8,0.2,1.2c0.3,0.6,0.7,1,1.4,1.2c0.4,0.1,1.1,0.1,1.9,0c0.6-0.1,1-0.2,1.1-0.2c0.3,0,0.4,0,0.4,0
		c0.1,0,0.1,0.1,0.2,0.2c0.1,0.2,0.1,0.3,0,0.5c-0.1,0.2-0.3,0.4-0.7,0.6c-0.3,0.1-0.6,0.2-0.9,0.1c-0.3-0.1-0.5-0.3-0.7-0.6
		c-0.1-0.1-0.2-0.2-0.4-0.1l-1.2,0.7c-0.1,0-0.1,0.1-0.1,0.2c0,0.1,0,0.2,0,0.2c0,0.1,0.1,0.1,0.1,0.2l-4.2-3.5
		c-0.1-0.1-0.2-0.1-0.3,0L30.6,58c-0.1,0.1-0.2,0.2-0.1,0.3l0.8,6.8L31,64.8c0-0.1-0.1-0.1-0.2-0.1c-0.1,0-0.1,0-0.2,0l-2.9,1.5
		l-2.6-4.9c0-0.1-0.1-0.1-0.2-0.1c-0.1,0-0.1,0-0.2,0l-1.3,0.7c-0.1,0.1-0.2,0.2-0.1,0.4l3.3,6.2c0,0.1,0.1,0.1,0.2,0.1
		c0,0,0.1,0,0.1,0c0,0,0.1,0,0.1,0l4.4-2.3c0,0,0.1-0.1,0.1-0.1c0,0,0,0,0,0c0,0,0.1,0,0.1,0l1.3-0.7c0.1-0.1,0.2-0.2,0.1-0.3
		L33,63.6l2.1-1.1l1.1,1c0.1,0.1,0.2,0.1,0.3,0l1.4-0.7c0.1,0,0.1-0.1,0.1-0.2c0-0.1,0-0.2-0.1-0.2l-0.2-0.2c0.1,0,0.1,0.1,0.2,0.1
		c0.2,0.1,0.5,0.1,0.7,0.1c0.5,0,1-0.1,1.6-0.4c0.6-0.3,1.1-0.6,1.4-0.9c0.3-0.4,0.5-0.8,0.6-1.3c0.1-0.5,0-0.9-0.2-1.3
		C41.9,57.9,41.6,57.5,41.3,57.3z M32.7,61.7l-0.2-1.6l1.2,1.1L32.7,61.7z"/>
	<path class="st0" d="M44.4,53.4l1.6-0.7c0.1-0.1,0.2-0.2,0.1-0.4l-0.5-1.1c0-0.1-0.1-0.1-0.2-0.1c-0.1,0-0.1,0-0.2,0l-5.1,2.3
		c-0.1,0.1-0.2,0.2-0.1,0.4l0.5,1.1c0,0.1,0.1,0.1,0.2,0.1c0.1,0,0.1,0,0.2,0l1.6-0.7l2.3,5.1c0,0.1,0.2,0.2,0.3,0.2
		c0,0,0.1,0,0.1,0l1.3-0.6c0.1,0,0.1-0.1,0.1-0.2c0-0.1,0-0.1,0-0.2L44.4,53.4z"/>
	<path class="st0" d="M54.5,51l-2.6,0.7l-0.3-1.1l3-0.8c0.1,0,0.1-0.1,0.2-0.1c0-0.1,0-0.1,0-0.2l-0.3-1.2c0-0.2-0.2-0.2-0.3-0.2
		l-4.7,1.3c-0.1,0-0.1,0.1-0.2,0.1c0,0.1,0,0.1,0,0.2l1.8,6.8c0,0.1,0.1,0.2,0.3,0.2c0,0,0,0,0.1,0l1.4-0.4c0.1,0,0.1-0.1,0.2-0.1
		c0-0.1,0-0.1,0-0.2l-0.7-2.6l2.6-0.7c0.1,0,0.1-0.1,0.2-0.1c0-0.1,0-0.1,0-0.2l-0.3-1.2C54.8,51.1,54.6,51,54.5,51z"/>
	<path class="st0" d="M56.9,47.5l-1.4,0.3c-0.1,0-0.1,0.1-0.2,0.1c0,0.1-0.1,0.1,0,0.2l1.4,6.9c0,0.1,0.1,0.2,0.3,0.2c0,0,0,0,0.1,0
		l1.4-0.3c0.1,0,0.1-0.1,0.2-0.1s0.1-0.1,0-0.2l-1.4-6.9C57.2,47.6,57.1,47.5,56.9,47.5z"/>
	<path class="st0" d="M64.6,52c-0.1,0-0.1-0.1-0.2,0l-3.6,0.7l-0.3-1.3l3.2-0.7c0.1,0,0.1-0.1,0.2-0.1s0.1-0.1,0-0.2l-0.2-1.2
		c0-0.2-0.2-0.3-0.3-0.2l-3.2,0.7l-0.2-1l3.4-0.7c0.2,0,0.3-0.2,0.2-0.3l-0.2-1.2c0-0.1-0.1-0.1-0.1-0.2c-0.1,0-0.1-0.1-0.2,0
		l-5.1,1.1c-0.2,0-0.3,0.2-0.2,0.3l1.4,6.9c0,0.1,0.1,0.1,0.1,0.2c0,0,0.1,0,0.2,0c0,0,0,0,0.1,0l5.2-1.1c0.2,0,0.3-0.2,0.2-0.3
		l-0.2-1.2C64.7,52.1,64.6,52,64.6,52z"/>
	<path class="st0" d="M69.5,48.8c-0.4-0.2-0.9-0.3-1.6-0.4c-0.9-0.1-1.1-0.3-1.2-0.3c-0.1-0.1-0.1-0.1-0.1-0.2c0-0.1,0-0.2,0.1-0.2
		c0.2-0.1,0.4-0.2,0.8-0.3c0.3,0,0.6,0,0.7,0.1c0.2,0.1,0.3,0.3,0.3,0.6c0,0.1,0.2,0.2,0.3,0.2l1.4-0.2c0.2,0,0.3-0.2,0.2-0.3
		c-0.1-0.7-0.4-1.3-0.9-1.7c-0.5-0.4-1.3-0.5-2.2-0.5c-0.6,0-1.1,0.2-1.5,0.4c-0.4,0.2-0.7,0.5-0.9,0.9c-0.2,0.4-0.3,0.8-0.3,1.2
		c0.1,0.6,0.3,1.2,0.9,1.6c0.4,0.3,1,0.5,1.8,0.6c0.7,0.1,1,0.2,1.1,0.2c0.3,0.1,0.4,0.1,0.4,0.2c0.1,0.1,0.1,0.1,0.1,0.2
		c0,0.2-0.1,0.3-0.2,0.5c-0.2,0.2-0.4,0.3-0.8,0.3c-0.4,0-0.6,0-0.9-0.2s-0.4-0.4-0.5-0.8c0-0.1-0.2-0.2-0.3-0.2l-1.4,0.3
		c-0.1,0-0.1,0.1-0.2,0.1c0,0.1-0.1,0.1,0,0.2c0.2,0.8,0.5,1.5,1.1,1.9c0.5,0.3,1.1,0.5,1.8,0.5c0.1,0,0.3,0,0.5,0
		c0.6-0.1,1.2-0.2,1.6-0.4c0.4-0.2,0.8-0.6,1-1c0.2-0.4,0.3-0.9,0.3-1.3c0-0.5-0.2-0.9-0.4-1.2C70.2,49.2,69.9,49,69.5,48.8z"/>
	<path class="st0" d="M76.4,45.1l-5.6,0.4c-0.2,0-0.3,0.1-0.3,0.3l0.1,1.2c0,0.1,0,0.1,0.1,0.2c0.1,0,0.1,0.1,0.2,0.1l1.8-0.1
		l0.4,5.6c0,0.1,0,0.1,0.1,0.2c0.1,0,0.1,0.1,0.2,0.1c0,0,0,0,0,0l1.4-0.1c0.1,0,0.1,0,0.2-0.1c0-0.1,0.1-0.1,0.1-0.2L74.7,47
		l1.8-0.1c0.1,0,0.1,0,0.2-0.1c0-0.1,0.1-0.1,0.1-0.2l-0.1-1.2C76.7,45.2,76.6,45.1,76.4,45.1z"/>
	<path class="st0" d="M89.7,49c-0.2-0.3-0.5-0.6-0.9-0.8c-0.4-0.2-0.9-0.4-1.6-0.6c-0.9-0.2-1.1-0.4-1.2-0.4C86,47.1,86,47,86,47
		c0-0.1,0-0.2,0.1-0.2c0.2-0.1,0.4-0.2,0.8-0.2c0.3,0,0.6,0.1,0.7,0.2c0.1,0.1,0.2,0.3,0.3,0.6c0,0.1,0.1,0.3,0.3,0.2l1.4,0
		c0.2,0,0.3-0.1,0.3-0.3c0-0.7-0.3-1.3-0.8-1.8c-0.5-0.4-1.2-0.7-2.2-0.7c-0.6,0-1.1,0.1-1.5,0.2c-0.4,0.2-0.8,0.4-1,0.8
		C84.2,46.2,84,46.6,84,47c0,0.6,0.2,1.2,0.7,1.6c0.3,0.3,0.9,0.6,1.7,0.8c0.6,0.2,1,0.3,1.1,0.3c0.3,0.1,0.3,0.2,0.4,0.2
		c0.1,0.1,0.1,0.1,0.1,0.2c0,0.2-0.1,0.3-0.3,0.5c-0.2,0.1-0.5,0.2-0.9,0.2c-0.4,0-0.6-0.1-0.8-0.3s-0.3-0.5-0.4-0.9
		c0-0.1-0.1-0.3-0.3-0.2L84,49.7c-0.1,0-0.1,0-0.2,0.1s-0.1,0.1-0.1,0.2c0,0.1,0,0.2,0,0.2l-2.2-5.1c0-0.1-0.1-0.2-0.3-0.2l-1.5,0
		c-0.1,0-0.2,0.1-0.3,0.2L77,52.3c0,0.1,0,0.2,0,0.3c0.1,0.1,0.1,0.1,0.2,0.1c0,0,0,0,0,0l1.5,0c0.1,0,0.2-0.1,0.3-0.2l0.5-1.4
		l2.4,0l0.6,1.4c0,0.1,0.2,0.2,0.3,0.2l1.5,0c0.1,0,0.2-0.1,0.2-0.1c0.1-0.1,0.1-0.2,0-0.3l-0.2-0.4c0.1,0.1,0.1,0.2,0.2,0.3
		c0.5,0.5,1.3,0.7,2.2,0.7c0,0,0.1,0,0.1,0c0.6,0,1.1-0.1,1.5-0.2c0.5-0.2,0.8-0.5,1.1-0.9c0.3-0.4,0.4-0.8,0.4-1.3
		C90,49.8,89.9,49.4,89.7,49z M80.1,49.2l0.5-1.5l0.6,1.5L80.1,49.2z"/>
</g>
</svg>
