<?xml version="1.0" encoding="utf-8"?>
<!-- Generator: Adobe Illustrator 28.2.0, SVG Export Plug-In . SVG Version: 6.00 Build 0)  -->
<svg version="1.1" id="Calque_1" xmlns="http://www.w3.org/2000/svg" xmlns:xlink="http://www.w3.org/1999/xlink" x="0px" y="0px"
	 viewBox="0 0 113.4 113.4" style="enable-background:new 0 0 113.4 113.4;" xml:space="preserve">
<style type="text/css">
	.st0{fill:#E763A0;}
</style>
<g>
	<path class="st0" d="M31.2,48.9l-3-1.1l1.9-5.1c0.1-0.1,0-0.3-0.2-0.4l-1.3-0.5c-0.1,0-0.1,0-0.2,0c-0.1,0-0.1,0.1-0.1,0.2
		l-2.4,6.6c-0.1,0.1,0,0.3,0.2,0.4l4.6,1.7c0,0,0.1,0,0.1,0c0,0,0.1,0,0.1,0c0.1,0,0.1-0.1,0.1-0.2l0.4-1.2
		C31.5,49.1,31.4,49,31.2,48.9z"/>
	<path class="st0" d="M41.4,46.7c0-0.1-0.1-0.1-0.2-0.1l-5.3-1.9c-0.1,0-0.3,0-0.3,0.1c0-0.1,0-0.3-0.2-0.3l-1.3-0.5
		c-0.1,0-0.1,0-0.2,0c-0.1,0-0.1,0.1-0.1,0.2l-2.4,6.6c0,0.1,0,0.1,0,0.2c0,0.1,0.1,0.1,0.2,0.1l1.4,0.5c0,0,0.1,0,0.1,0
		c0,0,0.1,0,0.1,0c0.1,0,0.1-0.1,0.1-0.2l1.9-5.4c0,0,0,0.1,0,0.1c0,0.1,0.1,0.1,0.2,0.1l1.7,0.6l-1.9,5.2c-0.1,0.1,0,0.3,0.2,0.4
		l1.3,0.5c0,0,0.1,0,0.1,0c0,0,0.1,0,0.1,0c0.1,0,0.1-0.1,0.1-0.2l1.9-5.2l1.7,0.6c0.1,0,0.3,0,0.4-0.2l0.4-1.1
		C41.4,46.8,41.4,46.7,41.4,46.7z"/>
	<path class="st0" d="M46.9,50.1l0.4-1.1c0-0.1,0-0.1,0-0.2c0-0.1-0.1-0.1-0.2-0.1l-5.3-1.9c-0.1-0.1-0.3,0-0.4,0.2L41.1,48
		c0,0.1,0,0.1,0,0.2c0,0.1,0.1,0.1,0.2,0.1L43,49l-1.9,5.2c-0.1,0.1,0,0.3,0.2,0.4l1.3,0.5c0,0,0.1,0,0.1,0c0,0,0.1,0,0.1,0
		c0.1,0,0.1-0.1,0.1-0.2l1.9-5.2l1.7,0.6C46.7,50.3,46.9,50.2,46.9,50.1z"/>
	<path class="st0" d="M50.8,56.2l-3-1.1l1.9-5.1c0.1-0.1,0-0.3-0.1-0.4L48.3,49c-0.1,0-0.2,0-0.2,0c-0.1,0-0.1,0.1-0.2,0.2l-2.4,6.6
		c-0.1,0.1,0,0.3,0.2,0.4l4.6,1.7c0,0,0.1,0,0.1,0c0,0,0.1,0,0.1,0c0.1,0,0.1-0.1,0.1-0.2l0.4-1.1C51.1,56.4,51,56.3,50.8,56.2z"/>
	<path class="st0" d="M58.7,52.9l-4.9-1.8c-0.1,0-0.1,0-0.2,0c-0.1,0-0.1,0.1-0.1,0.2l-2.4,6.6c-0.1,0.1,0,0.3,0.2,0.4l5,1.9
		c0,0,0.1,0,0.1,0c0,0,0.1,0,0.1,0c0.1,0,0.1-0.1,0.1-0.2l0.4-1.1c0.1-0.1,0-0.3-0.2-0.4l-3.4-1.3l0.5-1.3l3,1.1
		c0.1,0.1,0.3,0,0.4-0.2l0.4-1.1c0-0.1,0-0.1,0-0.2c0-0.1-0.1-0.1-0.2-0.1l-3-1.1l0.3-1l3.3,1.2c0.1,0.1,0.3,0,0.4-0.2l0.4-1.1
		C59,53.1,58.9,53,58.7,52.9z"/>
	<path class="st0" d="M79.2,63.8c0-0.1,0-0.1,0-0.2s-0.1-0.1-0.2-0.1l-2.5-0.9l0.4-1.1l2.8,1.1c0.1,0,0.2,0,0.2,0
		c0.1,0,0.1-0.1,0.1-0.2l0.4-1.1c0.1-0.1,0-0.3-0.2-0.4l-4.5-1.7c-0.1,0-0.2,0-0.2,0c-0.1,0-0.1,0.1-0.1,0.2l-2,5.4l-0.2-6.5
		c0-0.1-0.1-0.2-0.2-0.3l-1.4-0.5c-0.1,0-0.2,0-0.3,0.1l-5,5.7l2.4-6.5c0-0.1,0-0.1,0-0.2c0-0.1-0.1-0.1-0.2-0.1l-2-0.7
		c-0.1,0-0.3,0-0.3,0.1l-2.2,3.2l0.4-3.9c0-0.1-0.1-0.3-0.2-0.3l-2-0.7c-0.1-0.1-0.3,0-0.4,0.2L59.6,61c0,0.1,0,0.2,0,0.2
		c0,0.1,0.1,0.1,0.2,0.1l1.2,0.3c0.1,0,0.3,0,0.3-0.2l1.1-3l-0.4,3.4c0,0.1,0.1,0.2,0.2,0.3l1.3,0.5c0.1,0,0.3,0,0.3-0.1l1.9-2.8
		l-1.1,3.1c-0.1,0.1,0,0.3,0.2,0.4l1.2,0.5c0,0,0.1,0,0.1,0c0,0,0.1,0,0.1,0c0.1,0,0.1-0.1,0.1-0.1c0,0,0,0.1,0,0.1
		c0,0.1,0.1,0.2,0.2,0.2l1.4,0.5c0.1,0,0.2,0,0.3-0.1l1-1.1l2.2,0.9v1.5c0,0.1,0.1,0.2,0.2,0.3l1.5,0.5c0,0,0.1,0.1,0.1,0.1l1.4,0.5
		c0,0,0.1,0,0.1,0c0.1,0,0.2-0.1,0.3-0.2l0.9-2.5l2.5,0.9c0.2,0.1,0.3,0,0.4-0.2L79.2,63.8z M70.4,61.8l1-1.3v1.6L70.4,61.8z"/>
	<path class="st0" d="M87.3,63.5c0-0.1-0.1-0.2-0.2-0.3l-1.4-0.5c-0.1,0-0.2,0-0.3,0.1l-4.8,5.4l2.2-6.1c0.1-0.1,0-0.3-0.2-0.4
		l-1.3-0.5c-0.1,0-0.2,0-0.2,0c-0.1,0-0.1,0.1-0.1,0.2L78.7,68c-0.1,0.1,0,0.3,0.2,0.4l1.3,0.5c0,0,0.1,0,0.1,0c0,0,0.1,0,0.1,0
		c0,0,0,0,0,0c0,0.1,0.1,0.1,0.2,0.1l1.4,0.5c0.1,0,0.2,0,0.3-0.1l1-1.1l2.2,0.9v1.5c0,0.1,0.1,0.2,0.2,0.3l1.5,0.6c0,0,0.1,0,0.1,0
		c0.1,0,0.1,0,0.2-0.1c0.1-0.1,0.1-0.1,0.1-0.2L87.3,63.5z M84.4,66.8l1-1.2v1.6L84.4,66.8z"/>
</g>
</svg>
