<?xml version="1.0" encoding="utf-8"?>
<!-- Generator: Adobe Illustrator 28.2.0, SVG Export Plug-In . SVG Version: 6.00 Build 0)  -->
<svg version="1.1" id="Calque_1" xmlns="http://www.w3.org/2000/svg" xmlns:xlink="http://www.w3.org/1999/xlink" x="0px" y="0px"
	 viewBox="0 0 113.4 113.4" style="enable-background:new 0 0 113.4 113.4;" xml:space="preserve">
<style type="text/css">
	.st0{fill:#E8629F;}
</style>
<g>
	<path class="st0" d="M48.7,81.3l-1.2-0.1c-0.2,0-0.3,0.1-0.3,0.2l-0.4,3.2L41.4,84c-0.2,0-0.3,0.1-0.3,0.2l-0.2,1.4
		c0,0.1,0,0.2,0.1,0.2s0.1,0.1,0.2,0.1l6.9,0.8c0,0,0,0,0,0c0.1,0,0.3-0.1,0.3-0.3l0.6-4.9c0-0.1,0-0.2-0.1-0.2S48.8,81.3,48.7,81.3
		z"/>
	<path class="st0" d="M46.1,73.4c-1.2-0.1-2.2,0.1-3,0.7c-0.8,0.6-1.2,1.5-1.3,2.6c-0.1,0.6,0,1.2,0.1,1.7c0.1,0.4,0.3,0.7,0.6,1.1
		c0.3,0.3,0.6,0.6,1,0.8c0.5,0.3,1.1,0.5,1.9,0.6c0,0,0,0,0,0c0.2,0,0.4,0,0.6,0c0.9,0,1.7-0.2,2.3-0.7c0.8-0.6,1.2-1.5,1.3-2.6
		c0.1-1.1-0.1-2-0.7-2.8C48.2,74,47.3,73.5,46.1,73.4z M45.5,78.7c-0.7-0.1-1.3-0.3-1.6-0.6c-0.3-0.3-0.4-0.8-0.4-1.3
		c0.1-0.5,0.3-0.9,0.6-1.1c0.3-0.2,0.7-0.3,1.2-0.3c0.2,0,0.3,0,0.5,0c0.7,0.1,1.3,0.3,1.6,0.7c0.3,0.3,0.4,0.8,0.4,1.2
		c-0.1,0.5-0.3,0.9-0.7,1.1C46.7,78.7,46.2,78.8,45.5,78.7z"/>
	<path class="st0" d="M57.9,58.5c0-0.1-0.1-0.1-0.2-0.1c-0.1,0-0.1,0-0.2,0.1l-2.5,2l-3.5-4.3c-0.1-0.1-0.3-0.1-0.4,0L50,57.1
		c-0.1,0-0.1,0.1-0.1,0.2c0,0.1,0,0.1,0.1,0.2l3.2,4l-5.7-1.4c-0.1,0-0.2,0-0.3,0.1l-0.9,1.2c-0.1,0.1-0.1,0.2,0,0.3l4,6.1
		c-0.3-0.4-0.7-0.8-1.3-1.1c-0.1-0.1-0.3,0-0.4,0.1L48,68.2c0,0.1-0.1,0.1,0,0.2c0,0.1,0.1,0.1,0.1,0.2c0.4,0.2,0.7,0.4,0.8,0.7
		c0.1,0.3,0.2,0.5,0.1,0.8c-0.1,0.4-0.3,0.7-0.7,0.9c-0.4,0.2-1,0.2-1.8,0c-0.7-0.2-1.2-0.4-1.5-0.8c-0.2-0.3-0.3-0.7-0.2-1.1
		c0.1-0.3,0.2-0.5,0.4-0.7c0.2-0.2,0.5-0.2,0.8-0.2c0,0,0,0,0,0c0.1,0,0.1,0,0.2-0.1c0.1-0.1,0.1-0.1,0.1-0.2l0-1.4
		c0-0.1,0-0.2-0.1-0.2c-0.1-0.1-0.1-0.1-0.2-0.1c-0.6,0-1.2,0.2-1.6,0.5c-0.7,0.4-1.1,1.1-1.3,2c-0.2,1-0.1,2,0.4,2.8
		c0.5,0.8,1.4,1.3,2.6,1.6c0.4,0.1,0.8,0.1,1.2,0.1c0.7,0,1.3-0.2,1.8-0.5c0.8-0.5,1.4-1.2,1.6-2.2c0.2-0.8,0.1-1.5-0.1-2.1
		c-0.1-0.1-0.1-0.2-0.2-0.4l0.1,0.1c0.1,0.1,0.1,0.1,0.2,0.1c0,0,0,0,0,0c0.1,0,0.2,0,0.2-0.1l0.9-1.2c0.1-0.1,0.1-0.2,0-0.3
		L51,65.3l1.4-2l1.5,0.4c0.1,0,0.2,0,0.3-0.1l0.4-0.6c0.1,0,0.1,0,0.1-0.1l3.9-3.1c0.1,0,0.1-0.1,0.1-0.2c0-0.1,0-0.1-0.1-0.2
		L57.9,58.5z M49.9,63.8L49,62.5l1.6,0.4L49.9,63.8z"/>
	<path class="st0" d="M58.2,50.8l0.8-1.6c0-0.1,0-0.1,0-0.2c0-0.1-0.1-0.1-0.1-0.2l-1.1-0.5c-0.1,0-0.1,0-0.2,0
		c-0.1,0-0.1,0.1-0.2,0.1l-2.4,5c0,0.1,0,0.1,0,0.2c0,0.1,0.1,0.1,0.1,0.2l1.1,0.5c0.1,0.1,0.3,0,0.4-0.1l0.8-1.6l5,2.4
		c0,0,0.1,0,0.1,0c0,0,0.1,0,0.1,0c0.1,0,0.1-0.1,0.2-0.1l0.6-1.3c0.1-0.1,0-0.3-0.1-0.4L58.2,50.8z"/>
	<path class="st0" d="M64.3,42.9c-1.1-0.5-2.1-0.6-3-0.3c-0.9,0.3-1.6,1-2.1,2c-0.3,0.5-0.4,1.1-0.4,1.6c0,0.4,0,0.8,0.2,1.2
		c0.1,0.4,0.4,0.8,0.6,1.1c0.4,0.4,0.9,0.8,1.6,1.1c0.7,0.3,1.3,0.5,1.9,0.5c0.4,0,0.7-0.1,1-0.2c0.9-0.3,1.6-1,2.1-2
		c0.5-1,0.6-2,0.2-2.9C66.1,44.1,65.3,43.4,64.3,42.9z M61.9,47.7c-0.7-0.3-1.1-0.7-1.3-1.1c-0.2-0.4-0.2-0.9,0.1-1.3
		c0.2-0.5,0.5-0.7,1-0.9c0.4-0.1,1,0,1.7,0.3c0.7,0.3,1.1,0.7,1.3,1.1c0.2,0.4,0.2,0.9,0,1.3c-0.2,0.4-0.5,0.7-1,0.8
		C63.1,48.1,62.6,48,61.9,47.7z"/>
	<path class="st0" d="M63.8,32.7c-0.1,0-0.2-0.1-0.2,0c-0.1,0-0.1,0.1-0.2,0.2L63,34.2c0,0.1,0,0.3,0.1,0.3l3.3,1.9l-3.9-0.2
		c-0.1,0-0.2,0.1-0.3,0.2l-0.5,1.6c0,0.1,0,0.3,0.1,0.3l3.2,2l-3.8-0.3c-0.1,0-0.3,0.1-0.3,0.2l-0.4,1.4c0,0.1,0,0.2,0,0.2
		c0,0.1,0.1,0.1,0.2,0.1l7.2,0.5c0,0,0,0,0,0c0.1,0,0.2-0.1,0.3-0.2l0.5-1.5c0-0.1,0-0.3-0.1-0.3L65,38.2l4.4,0.2
		c0.1,0,0.2-0.1,0.3-0.2l0.4-1.4c0-0.1,0-0.3-0.1-0.3L63.8,32.7z"/>
	<path class="st0" d="M72.5,28.7c0-0.1-0.1-0.1-0.2-0.1l-6.8-2c-0.1,0-0.2,0-0.2,0c-0.1,0-0.1,0.1-0.1,0.2l-0.4,1.3
		c0,0.1,0,0.3,0.2,0.4l3.5,1l-4.4,1.2c-0.1,0-0.2,0.1-0.2,0.2l-0.4,1.3c0,0.1,0,0.3,0.2,0.4l6.8,2c0,0,0.1,0,0.1,0
		c0.1,0,0.2-0.1,0.3-0.2l0.4-1.3c0-0.1,0-0.1,0-0.2s-0.1-0.1-0.2-0.1l-3.5-1l4.2-1.2c0.1,0,0.2-0.1,0.2-0.2l0.4-1.4
		C72.5,28.9,72.5,28.8,72.5,28.7z"/>
</g>
</svg>
