<?xml version="1.0" encoding="utf-8"?>
<!-- Generator: Adobe Illustrator 28.2.0, SVG Export Plug-In . SVG Version: 6.00 Build 0)  -->
<svg version="1.1" id="Calque_1" xmlns="http://www.w3.org/2000/svg" xmlns:xlink="http://www.w3.org/1999/xlink" x="0px" y="0px"
	 viewBox="0 0 113.4 113.4" style="enable-background:new 0 0 113.4 113.4;" xml:space="preserve">
<style type="text/css">
	.st0{fill:#E763A0;}
</style>
<g>
	<path class="st0" d="M32,42l2.7-4.8c0.1-0.1,0-0.3-0.1-0.4l-1.2-0.7c-0.1,0-0.1,0-0.2,0c-0.1,0-0.1,0.1-0.2,0.1l-3.4,6.1
		c0,0.1,0,0.1,0,0.2c0,0.1,0.1,0.1,0.1,0.2l4.3,2.3c0,0,0.1,0,0.1,0c0.1,0,0.2,0,0.2-0.1l0.6-1c0-0.1,0.1-0.1,0-0.2
		c0-0.1-0.1-0.1-0.1-0.2L32,42z"/>
	<path class="st0" d="M43.2,42.6c-0.2-0.9-0.9-1.6-1.8-2.2c-0.6-0.4-1.1-0.5-1.6-0.5c-0.3,0-0.8,0-1.2,0.2c-0.3,0.1-0.7,0.3-1.1,0.5
		c-0.4,0.3-0.8,0.8-1.3,1.5c0,0,0,0,0,0c-0.6,1.2-0.7,2.1-0.4,2.9c0.2,0.9,0.9,1.6,1.8,2.2c0.7,0.4,1.3,0.6,1.9,0.6
		c0.3,0,0.6-0.1,0.9-0.2c1-0.3,1.7-1,2.3-2C43.2,44.6,43.4,43.5,43.2,42.6z M40.9,44.6c-0.3,0.6-0.8,1-1.3,1.2
		c-0.5,0.2-0.9,0.2-1.2-0.1c-0.4-0.3-0.7-0.6-0.8-1.1c-0.2-0.4,0-0.9,0.3-1.6c0.3-0.7,0.7-1.1,1.3-1.2c0.5-0.1,0.9-0.1,1.3,0.2
		c0.4,0.3,0.7,0.6,0.8,1C41.4,43.5,41.3,44,40.9,44.6z"/>
	<path class="st0" d="M47.5,44c-0.1-0.1-0.3-0.1-0.4-0.2c-0.3-0.1-0.6-0.3-0.9-0.3c-0.5-0.1-1-0.1-1.3,0.1c-0.3,0.2-0.6,0.4-0.9,0.8
		c-0.4,0.5-0.5,1.1-0.2,1.7c0.1,0.5,0.5,1,1.1,1.6c0.4,0.5,0.7,0.8,0.8,0.9c0.2,0.2,0.2,0.2,0.2,0.3c0,0.1,0,0.2,0,0.2
		c-0.2,0.2-0.3,0.3-0.5,0.3c0,0-0.1,0-0.1,0c-0.1,0-0.3,0-0.6-0.2l-0.2-0.1c-0.3-0.1-0.5-0.3-0.6-0.6c-0.1-0.3-0.1-0.6,0.1-0.9
		c0.1-0.1,0-0.3-0.1-0.4l-1.2-0.6c-0.1-0.1-0.3,0-0.4,0.1c-0.4,0.8-0.5,1.6-0.3,2.2c0.2,0.6,0.7,1.1,1.5,1.8c0.5,0.3,1,0.5,1.5,0.6
		c0.2,0,0.4,0.1,0.6,0.1c0.3,0,0.6-0.1,0.8-0.2c0.5-0.3,0.8-0.6,1-0.9c0.3-0.4,0.5-0.8,0.5-1.3c0-0.3-0.1-0.8-0.3-1.1
		c-0.2-0.4-0.5-0.9-1-1.4c-0.4-0.5-0.6-0.8-0.7-1c0-0.1,0-0.2,0.1-0.3c0.1-0.1,0.1-0.1,0.2-0.1c0.2,0,0.6,0.1,0.8,0.3
		c0.3,0.2,0.5,0.5,0.5,0.6c0.1,0.2,0,0.4-0.1,0.7c0,0.1,0,0.3,0.1,0.3l1.2,0.6c0.1,0,0.1,0,0.2,0c0.1,0,0.1-0.1,0.2-0.1
		c0.4-0.7,0.4-1.3,0.2-1.9C48.9,45.1,48.4,44.6,47.5,44z"/>
	<path class="st0" d="M54.9,55.5l0.1-0.2c0.2-0.3,0.3-0.6,0.3-1c0-0.3,0-0.8-0.2-1.2L55,53c-0.2-0.3-0.5-0.8-1-1.2
		c-0.4-0.4-0.6-0.8-0.7-1c0-0.1,0-0.2,0-0.2c0.1-0.1,0.1-0.1,0.2-0.1c0.1,0,0.4,0.1,0.7,0.4c0.3,0.2,0.5,0.5,0.5,0.6
		c0.1,0.3,0.1,0.5-0.1,0.7c-0.1,0.1-0.1,0.3,0.1,0.4l1.2,0.9c0.1,0.1,0.2,0.1,0.2,0s0.2-0.1,0.2-0.1c0.3-0.7,0.4-1.2,0.3-1.9
		c-0.1-0.6-0.6-1.2-1.4-1.8c-0.6-0.4-1-0.5-1.4-0.6c-0.5-0.1-0.9,0-1.3,0.1c-0.4,0.1-0.7,0.4-0.9,0.7c-0.3,0.5-0.5,1-0.3,1.7
		c0.1,0.4,0.4,1,1,1.6c0.3,0.3,0.5,0.6,0.8,0.9c0,0,0,0.1,0.1,0.1c0.1,0.1,0.1,0.1,0.1,0.2c0,0.1,0,0.2-0.1,0.2
		c-0.2,0.2-0.3,0.3-0.5,0.3c-0.2,0-0.4,0-0.8-0.3c-0.3-0.2-0.5-0.5-0.6-0.8c-0.1-0.2,0-0.5,0.2-0.9c0.1-0.1,0-0.3-0.1-0.4l-1.2-0.7
		c-0.1,0-0.1,0-0.2,0c-0.1,0-0.1,0.1-0.2,0.1c-0.5,0.8-0.5,1.6-0.2,2.1c0.1,0.6,0.6,1.3,1.4,1.8c0.5,0.4,1,0.6,1.5,0.8
		c0.2,0.1,0.4,0.1,0.6,0.1c0.3,0,0.5-0.1,0.8-0.2C54.4,56.2,54.7,55.8,54.9,55.5z"/>
	<path class="st0" d="M68.4,59.1l-1-0.8c-0.1,0-0.1-0.1-0.2-0.1c-0.1,0-0.1,0-0.2,0.1l-2.3,2.9l0.5-4.5c0-0.1,0-0.2-0.1-0.2L64,55.6
		c-0.1,0-0.1-0.1-0.2-0.1c-0.1,0-0.1,0-0.2,0.1l-3.5,4.5l1.5-6.1c0-0.1,0-0.2-0.1-0.3l-1.2-0.9c-0.1-0.1-0.2-0.1-0.3,0l-6.3,4.2
		c-0.1,0.1-0.1,0.1-0.1,0.2c0,0.1,0,0.2,0.1,0.2l1.2,0.9c0.1,0.1,0.2,0.1,0.3,0l1.2-0.9l1.9,1.4l-0.4,1.5c0,0.1,0,0.2,0.1,0.3
		l1.3,0.9c0,0,0,0,0,0l1.1,0.8c0.1,0.1,0.3,0.1,0.4-0.1l2.2-2.8L62.5,64c0,0.1,0,0.2,0.1,0.3l1.1,0.9c0.1,0,0.1,0.1,0.2,0.1
		c0,0,0,0,0,0c0.1,0,0.1,0,0.2-0.1l4.3-5.6C68.5,59.4,68.5,59.2,68.4,59.1z M59.2,55.6l-0.4,1.6l-0.9-0.6L59.2,55.6z"/>
	<path class="st0" d="M72.6,64.7c0.1,0,0.1,0.1,0.2,0.1c0.1,0,0.1,0,0.2-0.1l0.7-0.9c0.1-0.1,0.1-0.3,0-0.4l-4.4-3.5
		c-0.1,0-0.1-0.1-0.2-0.1c-0.1,0-0.1,0-0.2,0.1l-0.7,0.9c0,0.1-0.1,0.1-0.1,0.2s0,0.1,0.1,0.2l1.5,1.1l-3.5,4.4
		c-0.1,0.1-0.1,0.3,0,0.4l1.1,0.9c0.1,0,0.1,0.1,0.2,0.1c0,0,0,0,0,0c0.1,0,0.1,0,0.2-0.1l3.5-4.4L72.6,64.7z"/>
	<path class="st0" d="M77.6,71.3c0.7-1,1.1-1.9,1-2.9c0-0.9-0.5-1.8-1.4-2.5l-0.3-0.2c-0.4-0.2-0.8-0.5-1.2-0.6
		c-0.3-0.1-0.8-0.1-1.2-0.1c-0.5,0-0.9,0.1-1.2,0.3c-0.6,0.2-1.1,0.7-1.5,1.3c-0.7,1-1.1,1.9-1,2.9c0.1,0.9,0.6,1.7,1.5,2.5
		c0.8,0.6,1.5,0.9,2.3,0.9c0.1,0,0.2,0,0.4,0C76,72.8,76.9,72.3,77.6,71.3z M76.6,68.5c0,0.5-0.2,1-0.6,1.5c-0.4,0.5-1,0.9-1.4,1
		c-0.6,0.1-0.9,0-1.3-0.3c-0.4-0.4-0.6-0.7-0.6-1.2c0-0.6,0.2-1.1,0.6-1.6c0.5-0.5,1-0.9,1.3-0.8c0,0,0.1,0,0.1,0
		c0.5-0.1,0.9,0,1.3,0.3C76.4,67.7,76.6,68.2,76.6,68.5z"/>
	<path class="st0" d="M83.9,71.9c-0.2-0.5-0.6-1.1-1.4-1.7c-0.6-0.4-1-0.5-1.4-0.6c-0.5-0.1-0.9,0-1.3,0.1c-0.4,0.1-0.7,0.4-0.9,0.7
		c-0.3,0.5-0.5,1-0.3,1.7c0.1,0.4,0.4,1,1,1.6c0.2,0.2,0.4,0.5,0.5,0.7c0.1,0.1,0.1,0.1,0.1,0.2c0,0,0,0.1,0.1,0.1
		c0.1,0.1,0.1,0.1,0.1,0.2c0,0.1,0,0.2,0,0.2c-0.2,0.2-0.3,0.2-0.5,0.2c-0.2,0-0.4,0-0.8-0.3c-0.3-0.3-0.4-0.5-0.5-0.8
		c-0.1-0.2,0-0.5,0.2-0.9c0.1-0.1,0-0.3-0.1-0.4l-1.2-0.7c-0.1,0-0.1,0-0.2,0c-0.1,0-0.1,0.1-0.2,0.1c-0.4,0.8-0.5,1.5-0.3,2.3
		c0.1,0.6,0.6,1.3,1.4,1.9c0.5,0.4,1,0.6,1.5,0.8c0.2,0.1,0.4,0.1,0.6,0.1c0.3,0,0.5-0.1,0.8-0.2c0.4-0.1,0.8-0.5,1.1-0.8l0.1-0.2
		c0.2-0.3,0.3-0.6,0.3-1c0-0.3,0-0.8-0.2-1.1c-0.1-0.3-0.4-0.8-0.9-1.4c-0.4-0.5-0.6-0.9-0.7-1.1c0-0.1,0-0.2,0-0.2
		c0.1-0.1,0.1-0.1,0.2-0.1c0.2,0,0.5,0.2,0.7,0.4c0.3,0.2,0.5,0.5,0.5,0.6c0.1,0.3,0.1,0.5-0.1,0.7c0,0.1-0.1,0.1,0,0.2
		c0,0.1,0.1,0.1,0.1,0.2l1.2,0.8c0.1,0,0.2,0.1,0.2,0c0.1,0,0.1-0.1,0.2-0.1C83.9,73.2,84,72.6,83.9,71.9z"/>
</g>
</svg>
