<?xml version="1.0" encoding="utf-8"?>
<!-- Generator: Adobe Illustrator 28.2.0, SVG Export Plug-In . SVG Version: 6.00 Build 0)  -->
<svg version="1.1" id="Calque_1" xmlns="http://www.w3.org/2000/svg" xmlns:xlink="http://www.w3.org/1999/xlink" x="0px" y="0px"
	 viewBox="0 0 113.4 113.4" style="enable-background:new 0 0 113.4 113.4;" xml:space="preserve">
<style type="text/css">
	.st0{fill:#E763A0;}
</style>
<g>
	<path class="st0" d="M38.7,77.8c-0.1-0.1-0.1-0.1-0.2-0.1c-0.1,0-0.1,0-0.2,0.1l-2.1,2.5L32,76.7c-0.1,0-0.1-0.1-0.2-0.1
		c-0.1,0-0.1,0-0.2,0.1l-0.9,1.1c-0.1,0.1-0.1,0.3,0,0.4l5.2,4.6c0.1,0,0.1,0.1,0.2,0.1c0,0,0,0,0,0c0.1,0,0.1,0,0.2-0.1l3.3-3.8
		c0.1-0.1,0.1-0.3,0-0.4L38.7,77.8z"/>
	<path class="st0" d="M42,70.9c-0.8-0.8-1.7-1.2-2.8-1.2c-1,0-1.9,0.4-2.6,1.3c-0.4,0.4-0.8,0.8-0.9,1.4c-0.1,0.3-0.1,0.8-0.1,1.2
		c0,0.5,0.1,0.8,0.3,1.2c0.2,0.4,0.6,0.9,1.2,1.5c0,0,0,0,0,0c0.8,0.7,1.8,1.2,2.8,1.3c1,0,1.9-0.4,2.6-1.3c0.8-0.9,1.1-1.8,1-2.7
		C43.4,72.6,42.9,71.7,42,70.9z M41.6,73.6c0,0.6-0.1,1-0.4,1.3c-0.4,0.4-0.7,0.5-1.2,0.5c-0.4,0-1-0.3-1.5-0.7
		c-0.6-0.5-0.9-0.9-0.9-1.4c-0.1-0.4,0.1-0.8,0.4-1.2c0.3-0.4,0.7-0.6,1.2-0.6c0.4,0,0.9,0.3,1.5,0.7C41.3,72.8,41.5,73.4,41.6,73.6
		z"/>
	<path class="st0" d="M46.6,67l-0.1,0c-0.4-0.1-0.7-0.2-1.1-0.1c-0.4,0.1-0.9,0.3-1.6,0.6c-0.5,0.3-1,0.4-1.2,0.4
		c-0.1,0-0.1,0-0.2-0.1c0-0.1-0.1-0.2-0.1-0.3c0.1-0.2,0.2-0.4,0.5-0.6c0.4-0.3,0.5-0.3,0.7-0.3c0.1,0,0.3,0.1,0.5,0.2
		c0.1,0,0.1,0.1,0.2,0.1c0.1,0.1,0.2,0.1,0.3,0l1.1-0.9c0.1-0.1,0.1-0.3,0-0.4c-0.5-0.6-1.1-0.9-1.7-0.9c-0.7,0-1.4,0.3-2.1,0.9
		c-0.4,0.4-0.7,0.7-0.9,1.2c-0.2,0.5-0.2,0.8-0.2,1.2c0,0.5,0.2,0.8,0.5,1.2c0.4,0.4,0.9,0.8,1.6,0.8c0.4,0,1-0.2,1.8-0.5
		c0.4-0.2,0.6-0.3,0.8-0.4c0.1,0,0.2-0.1,0.2-0.1c0.3-0.1,0.4-0.1,0.5-0.1c0.1,0,0.1,0,0.2,0.1c0.2,0.2,0.2,0.3,0.1,0.4
		c0,0,0,0.1,0,0.1c0,0.3-0.3,0.5-0.5,0.7c-0.3,0.3-0.7,0.3-0.8,0.3c-0.2,0-0.4-0.2-0.8-0.4c-0.1-0.1-0.3-0.1-0.4,0l-1,1
		c-0.1,0.1-0.1,0.3,0,0.4c0.5,0.6,1.2,1,1.4,1.1c0,0,0.1,0,0.1,0c0.8,0,1.5-0.3,2.2-0.9c0.4-0.4,0.8-0.8,1-1.2
		c0.4-0.5,0.4-1,0.4-1.4c0-0.5-0.2-1-0.5-1.3C47.3,67.4,47,67.1,46.6,67z"/>
	<path class="st0" d="M49.4,62.5l1.6-0.9c0.1-0.1,0.2-0.3,0.1-0.4l-0.6-1c0-0.1-0.1-0.1-0.2-0.1c-0.1,0-0.2,0-0.2,0l-4.7,3
		c-0.1,0.1-0.2,0.3-0.1,0.4l0.6,1c0,0.1,0.1,0.1,0.2,0.1c0.1,0,0.2,0,0.2,0l1.6-1l3,4.7c0,0.1,0.1,0.1,0.2,0.1c0,0,0,0,0.1,0
		c0.1,0,0.1,0,0.2-0.1l1.1-0.8c0.1-0.1,0.2-0.3,0.1-0.4L49.4,62.5z"/>
	<path class="st0" d="M54.9,57.4c0-0.1-0.1-0.1-0.2-0.1c-0.1,0-0.2,0-0.2,0l-1.2,0.8c-0.1,0.1-0.2,0.3-0.1,0.4l3.8,5.9
		c0,0.1,0.1,0.1,0.2,0.1c0,0,0,0,0.1,0c0.1,0,0.1,0,0.2,0l1.2-0.8c0.1-0.1,0.2-0.3,0.1-0.4L54.9,57.4z"/>
	<path class="st0" d="M61.8,57.1c-0.4-0.2-0.7-0.2-1.2-0.2l-0.2,0c-0.4,0.1-0.9,0.2-1.5,0.5c-0.5,0.3-1,0.4-1.2,0.4
		c-0.1,0-0.1,0-0.2-0.1l0-0.1c0,0-0.1-0.1-0.1-0.1l0-0.1c0.1-0.2,0.3-0.5,0.6-0.6c0.4-0.2,0.5-0.3,0.8-0.3c0.2,0,0.3,0,0.6,0.3
		c0.1,0.1,0.2,0.1,0.4,0l1.2-0.8c0.1,0,0.1-0.1,0.1-0.2c0-0.1,0-0.2-0.1-0.2c-0.4-0.6-1-0.9-1.7-1c-0.7-0.1-1.5,0.1-2.2,0.7
		c-0.4,0.3-0.9,0.6-1.1,1.1c-0.2,0.4-0.3,0.8-0.3,1.2c0,0.4,0.1,0.8,0.3,1.1c0.3,0.5,0.8,0.8,1.5,0.9c0.5,0.1,1.1,0,1.9-0.3
		c0.3-0.1,0.5-0.2,0.7-0.3c0.1-0.1,0.3-0.1,0.3-0.1H61c0.1,0.1,0.2,0.1,0.2,0.2l0,0c0.1,0.2,0.1,0.3,0.1,0.5
		c-0.1,0.2-0.2,0.4-0.6,0.7c-0.2,0.2-0.6,0.2-0.8,0.3c-0.2-0.1-0.5-0.2-0.8-0.5c-0.1-0.1-0.3-0.1-0.4,0L57.6,61
		c-0.1,0-0.1,0.1-0.1,0.2s0,0.2,0.1,0.2c0.5,0.6,1.2,1,2,1.1c0.5,0,1.3-0.1,2.2-0.8l0.1-0.1c0.5-0.4,0.9-0.7,1.1-1.1
		c0.2-0.4,0.3-0.9,0.3-1.4c-0.1-0.4-0.2-0.8-0.4-1.2C62.4,57.5,62.1,57.2,61.8,57.1z"/>
	<path class="st0" d="M68.4,47.5c-0.1-0.1-0.2-0.1-0.3,0l-1.2,0.9c-0.1,0.1-0.1,0.2-0.1,0.3l1.9,7.1l-0.4-0.6c0-0.1-0.1-0.1-0.2-0.1
		c-0.1,0-0.2,0-0.2,0.1L65.3,57L62,52.6c-0.1-0.1-0.3-0.2-0.4-0.1l-1.1,0.8c-0.1,0-0.1,0.1-0.1,0.2c0,0.1,0,0.2,0.1,0.2l4.1,5.6
		c0.1,0.1,0.1,0.1,0.2,0.1c0.1,0,0.1,0,0.2-0.1l4-2.8c0.1-0.1,0.1-0.2,0.1-0.4c0,0,0,0,0.1,0c0.1,0,0.1,0,0.2-0.1l1.2-0.9
		c0.1-0.1,0.1-0.2,0.1-0.3l-0.4-1.4l2-1.5l1.2,0.8c0.1,0.1,0.2,0.1,0.3,0l1.2-0.9c0.1-0.1,0.1-0.1,0.1-0.2c0-0.1-0.1-0.2-0.1-0.2
		L68.4,47.5z M69.5,51.8L69,50.2l1.3,0.9L69.5,51.8z"/>
	<path class="st0" d="M79.3,37.8c-0.4-0.3-0.9-0.5-1.5-0.7c-1.3-0.4-2.2-0.5-3.2,0l-0.1,0.1c-0.3,0.2-0.6,0.4-0.8,0.8
		c-0.1,0.2-0.3,0.6-0.5,1.2l-0.8,2.5c0,0.1,0,0.1,0,0.2c0,0,0,0,0,0c-0.1,0-0.1,0.1-0.2,0.1l-0.7,1.1c0,0.1-0.1,0.1,0,0.2
		s0.1,0.1,0.1,0.2l3.1,2l-4.5-0.1c0,0,0,0,0,0c-0.1,0-0.2,0-0.2,0.1l-0.8,1.2c0,0.1-0.1,0.1,0,0.2c0,0.1,0.1,0.1,0.1,0.2l5.9,3.8
		c0,0,0.1,0,0.2,0c0,0,0,0,0.1,0c0.1,0,0.1-0.1,0.2-0.1l0.7-1.1c0.1-0.1,0-0.3-0.1-0.4l-3.1-2l4.4,0.1c0.1,0,0.2,0,0.2-0.1l0.8-1.2
		c0-0.1,0.1-0.1,0-0.2c0-0.1-0.1-0.1-0.1-0.2l-5.5-3.6l6.4,2c0,0,0.1,0,0.1,0c0.1,0,0.2-0.1,0.3-0.2l0.8-2.5l0.1-0.3
		c0.1-0.4,0.1-0.7,0.1-0.9c0-0.4,0-0.9-0.2-1.2C80.1,38.5,79.6,38,79.3,37.8z M74.5,40.7l0.1-0.3c0.1-0.2,0.1-0.4,0.2-0.5
		c0.1-0.2,0.1-0.3,0.1-0.4c0,0,0,0,0.1-0.1c0.1-0.1,0.2-0.3,0.4-0.4c0.2-0.1,0.5-0.2,0.7-0.2c0.2,0,0.5,0.1,0.8,0.1l0.3,0.1
		c0.4,0.1,0.8,0.2,1.1,0.4c0.2,0.2,0.4,0.4,0.4,0.5c0.1,0.1,0.1,0.3,0.1,0.5c0,0.1,0,0.2-0.1,0.3c0,0.1-0.1,0.3-0.1,0.4l-0.2,0.7
		L74.5,40.7z"/>
	<path class="st0" d="M82.9,32.8c-0.1-0.4-0.2-0.9-0.6-1.2c-0.4-0.4-0.7-0.6-1.1-0.7c-0.6-0.1-1-0.1-1.3,0c-0.3,0.1-0.7,0.3-1,0.6
		c-0.3,0.2-0.6,0.6-1,1.4c-0.3,0.6-0.6,0.9-0.7,1C77.1,34,77,34,76.8,34c-0.1,0-0.1,0-0.1-0.1c-0.1-0.2-0.1-0.5,0-0.8
		c0.1-0.4,0.3-0.6,0.4-0.6c0,0,0.1,0,0.1-0.1c0.1-0.1,0.3-0.1,0.7-0.1c0.1,0,0.2-0.1,0.3-0.2l0.3-1.4c0-0.1,0-0.2,0-0.2
		c0-0.1-0.1-0.1-0.2-0.1c-0.7-0.1-1.3,0-1.9,0.4c-0.4,0.3-1,0.9-1.2,2C75,33.1,74.9,33.6,75,34c0,0.5,0.2,0.8,0.5,1.2
		c0.3,0.3,0.7,0.6,1,0.7c0.5,0.2,1.1,0.1,1.8-0.3c0.3-0.3,0.7-0.7,1.1-1.5c0.1-0.2,0.2-0.4,0.3-0.5c0.1-0.2,0.2-0.4,0.3-0.4
		c0,0,0,0,0.1-0.1c0-0.1,0.1-0.1,0.2-0.2c0,0,0,0,0,0h0.2c0.2,0.1,0.3,0.2,0.4,0.3c0.1,0.2,0.1,0.6,0,0.9c-0.1,0.3-0.2,0.6-0.5,0.7
		c-0.2,0.1-0.4,0.2-0.9,0.2c-0.1,0-0.2,0.1-0.3,0.2l-0.3,1.4c0,0.1,0,0.2,0,0.2C79,37,79,37,79.1,37c0.2,0,0.4,0,0.5,0
		c0.6,0,1.2-0.1,1.8-0.7c0.6-0.4,1-1,1.2-1.9C82.9,34,83,33.3,82.9,32.8z"/>
</g>
</svg>
