<?xml version="1.0" encoding="utf-8"?>
<!-- Generator: Adobe Illustrator 28.2.0, SVG Export Plug-In . SVG Version: 6.00 Build 0)  -->
<svg version="1.1" id="Calque_1" xmlns="http://www.w3.org/2000/svg" xmlns:xlink="http://www.w3.org/1999/xlink" x="0px" y="0px"
	 viewBox="0 0 113.4 113.4" style="enable-background:new 0 0 113.4 113.4;" xml:space="preserve">
<style type="text/css">
	.st0{fill:#E763A0;}
</style>
<g>
	<path class="st0" d="M40.7,49.5l-3.1-0.8l0.3-1l3.4,0.8c0.2,0,0.3-0.1,0.3-0.2l0.3-1.1c0-0.1,0-0.2,0-0.2c0-0.1-0.1-0.1-0.2-0.1
		l-5.1-1.3c-0.1,0-0.2,0-0.2,0c-0.1,0-0.1,0.1-0.1,0.2l-1.5,6l-0.4-6.2c0-0.2-0.1-0.3-0.3-0.3L32,45.4c-0.1,0-0.2,0.1-0.3,0.2
		L31,49.5l-1.2-3.7c0-0.1-0.1-0.2-0.3-0.2l-2.1,0.1c-0.1,0-0.1,0-0.2,0.1c-0.1,0.1-0.1,0.1-0.1,0.2l0.4,7c0,0.1,0,0.1,0.1,0.2
		c0.1,0,0.1,0.1,0.2,0.1c0,0,0,0,0,0l1.3-0.1c0.2,0,0.3-0.1,0.3-0.3l-0.2-3.3l1,3.3c0,0.1,0.1,0.2,0.3,0.2h1.3
		c0.1,0,0.3-0.1,0.3-0.2l0.7-3.4l0.2,3.2c0,0.1,0,0.1,0.1,0.2c0.1,0.1,0.1,0.1,0.2,0.1l1.3-0.1c0,0,0,0,0.1,0c0,0.1,0.1,0.1,0.2,0.1
		l5.2,1.4c0,0,0,0,0.1,0c0,0,0.1,0,0.1,0c0.1,0,0.1-0.1,0.1-0.2l0.3-1.2c0-0.2-0.1-0.3-0.2-0.3l-3.5-0.9l0.4-1.3l3,0.9
		c0.1,0,0.2,0,0.2,0c0.1,0,0.1-0.1,0.1-0.2l0.3-1.2C41,49.7,40.9,49.6,40.7,49.5z"/>
	<path class="st0" d="M47.2,55.9l1.1-2.6c0.1-0.1,0-0.3-0.1-0.4l-2.8-1.2c-0.1-0.1-0.3,0-0.4,0.1L44.5,53c0,0.1,0,0.2,0,0.2
		c0,0.1,0.1,0.1,0.2,0.2l1.3,0.5l-0.2,0.4c-0.5,0.1-1,0.1-1.5-0.1c-0.4-0.1-0.7-0.4-0.9-0.9c-0.2-0.4-0.1-0.9,0.2-1.7
		c0.3-0.7,0.6-1.1,1.1-1.3c0.4-0.2,0.8-0.2,1.3,0c0.4,0.2,0.5,0.4,0.7,0.6c0.2,0.2,0.2,0.5,0.2,0.8c0,0.1,0.1,0.2,0.2,0.3l1.4,0.3
		c0.1,0,0.2,0,0.2,0c0.1,0,0.1-0.1,0.1-0.2c0.1-0.8,0-1.4-0.3-2c-0.3-0.5-0.8-0.9-1.7-1.4c-0.6-0.2-1.2-0.3-1.8-0.3c0,0,0,0,0,0
		c-0.8,0.1-1.4,0.4-1.9,0.8c-0.6,0.5-1,1-1.3,1.7c-0.4,0.7-0.4,1.5-0.4,2c0,0.7,0.2,1.3,0.7,1.9c0.5,0.6,1,0.9,1.7,1.2
		c0.5,0.3,1.1,0.4,1.8,0.4c0.6,0,1.2-0.1,1.6-0.2C47.1,56,47.2,56,47.2,55.9z"/>
	<path class="st0" d="M53.8,51.6l-1.4-0.5c-0.1,0-0.2,0-0.3,0.1L47,56.8C47,56.9,46.9,57,47,57.1c0,0.1,0.1,0.2,0.2,0.2l1.4,0.5
		c0.1,0,0.2,0,0.3-0.1l1-1.1l2.2,0.9v1.5c0,0.1,0.1,0.2,0.2,0.3l1.4,0.6c0,0,0.1,0,0.1,0c0.1,0,0.1,0,0.2,0c0.1-0.1,0.1-0.1,0.1-0.2
		v-7.6C54,51.8,54,51.7,53.8,51.6z M51,55.2l1-1.2v1.6L51,55.2z"/>
	<path class="st0" d="M61.4,54.7c0-0.1-0.1-0.1-0.2-0.1l-5.3-1.9c-0.1-0.1-0.3,0-0.4,0.2l-0.4,1.1c0,0.1,0,0.1,0,0.2
		c0,0.1,0.1,0.1,0.2,0.1l1.7,0.6l-1.9,5.2c-0.1,0.1,0,0.3,0.2,0.4l1.3,0.5c0,0,0.1,0,0.1,0c0,0,0.1,0,0.1,0c0.1,0,0.1-0.1,0.1-0.2
		l1.9-5.2l1.7,0.6c0.1,0,0.3,0,0.4-0.2l0.4-1.1C61.4,54.8,61.4,54.7,61.4,54.7z"/>
	<path class="st0" d="M66.9,58.1l0.4-1.1c0-0.1,0-0.1,0-0.2c0-0.1-0.1-0.1-0.2-0.1l-5.3-1.9c-0.1-0.1-0.3,0-0.4,0.2L61.1,56
		c0,0.1,0,0.1,0,0.2s0.1,0.1,0.2,0.1L63,57l-1.9,5.2c-0.1,0.1,0,0.3,0.2,0.4l1.3,0.5c0,0,0.1,0,0.1,0c0,0,0.1,0,0.1,0
		c0.1,0,0.1-0.1,0.1-0.2l1.9-5.2l1.7,0.6C66.7,58.3,66.9,58.2,66.9,58.1z"/>
	<path class="st0" d="M71.3,57.9l-1.4-0.4c-0.1,0-0.2,0-0.3,0.1l-4.7,5.9c-0.1,0.1-0.1,0.2,0,0.3c0,0.1,0.1,0.2,0.2,0.2l1.5,0.5
		c0.1,0,0.2,0,0.3-0.1l0.9-1.2l2.3,0.7l0.1,1.5c0,0.1,0.1,0.2,0.2,0.3l1.5,0.5c0,0,0.1,0,0.1,0c0.1,0,0.1,0,0.2-0.1
		c0.1-0.1,0.1-0.2,0.1-0.2l-0.7-7.6C71.5,58,71.4,58,71.3,57.9z M69.9,61.9l-1.1-0.4l1-1.3L69.9,61.9z"/>
	<path class="st0" d="M78.8,64.2l-1.3-0.6c-0.1,0-0.2,0-0.2,0c-0.1,0-0.1,0.1-0.2,0.2c-0.1,0.3-0.3,0.5-0.4,0.7
		c-0.1,0.1-0.1,0.1-0.1,0.2c-0.3,0.2-0.5,0.2-0.8,0.1c-0.5,0-0.7-0.2-1-0.6c-0.3-0.4-0.3-1-0.2-1.8c0.2-0.8,0.4-1.3,0.7-1.5
		c0,0,0,0,0.1-0.1c0.3-0.4,0.8-0.3,1-0.3c0.4,0.1,0.6,0.3,0.8,0.4c0.2,0.2,0.3,0.4,0.3,0.7c0,0.1,0,0.2,0.1,0.2
		c0.1,0.1,0.1,0.1,0.2,0.1l1.4-0.1c0.1,0,0.2,0,0.2-0.1s0.1-0.1,0.1-0.2c-0.1-0.7-0.2-1.2-0.6-1.5c-0.6-0.7-1.3-1.1-2.2-1.2
		c-1.1-0.2-2,0-2.7,0.7c-0.8,0.6-1.2,1.5-1.4,2.8c-0.2,1.1,0,2.1,0.5,2.9c0.6,0.8,1.4,1.3,2.3,1.4c0.2,0,0.4,0,0.6,0
		c0.6,0,1.1-0.1,1.5-0.4c0.6-0.4,1.1-1,1.4-1.6C79,64.5,78.9,64.3,78.8,64.2z"/>
	<path class="st0" d="M84.4,60.3c0-0.1-0.1-0.2-0.2-0.2l-1.5-0.2c-0.1,0-0.2,0-0.3,0.1l-3.8,6.6c0,0.1,0,0.2,0,0.3
		c0,0.1,0.1,0.1,0.2,0.2l1.5,0.2c0.1,0,0.2,0,0.3-0.1l0.7-1.3l2.4,0.3l0.4,1.5c0,0.1,0.1,0.2,0.2,0.2l1.5,0.2c0,0,0,0,0,0
		c0.1,0,0.2,0,0.2-0.1c0.1-0.1,0.1-0.2,0.1-0.3L84.4,60.3z M83.4,64.2l-1.1-0.2l0.7-1.4L83.4,64.2z"/>
</g>
</svg>
