<?xml version="1.0" encoding="utf-8"?>
<!-- Generator: Adobe Illustrator 28.2.0, SVG Export Plug-In . SVG Version: 6.00 Build 0)  -->
<svg version="1.1" id="Calque_1" xmlns="http://www.w3.org/2000/svg" xmlns:xlink="http://www.w3.org/1999/xlink" x="0px" y="0px"
	 viewBox="0 0 113.4 113.4" style="enable-background:new 0 0 113.4 113.4;" xml:space="preserve">
<style type="text/css">
	.st0{fill:#FE76B8;}
	.st1{fill:#E8629F;}
</style>
<g>
	<g>
		<path class="st0" d="M15.3,60.6c0-0.1-0.1-0.1-0.2-0.1c-0.1,0-0.1,0-0.2,0l-1.8,1.1c-0.1,0.1-0.2,0.2-0.1,0.3l1,3.8l-2.7-2.8
			c-0.1-0.1-0.2-0.1-0.3,0L9,63.9C9,63.9,8.9,64,8.9,64c0,0.1,0,0.1,0,0.2l3.5,6.1c0.1,0.1,0.1,0.1,0.2,0.1c0,0,0.1,0,0.1,0l1.1-0.7
			c0.1,0,0.1-0.1,0.1-0.2c0-0.1,0-0.1,0-0.2l-1.6-2.8l2.4,2.5c0.1,0.1,0.2,0.1,0.3,0l1.2-0.7c0.1-0.1,0.2-0.2,0.1-0.3l-0.9-3.3
			l1.6,2.8c0.1,0.1,0.2,0.2,0.4,0.1l1.1-0.7c0.1,0,0.1-0.1,0.1-0.2c0-0.1,0-0.1,0-0.2L15.3,60.6z"/>
		<path class="st0" d="M21.4,57.8c-0.9-0.3-1.9-0.1-2.9,0.4c-0.5,0.3-1,0.7-1.3,1.1c-0.2,0.3-0.4,0.7-0.5,1.1
			c-0.1,0.4-0.1,0.8-0.1,1.3c0.1,0.6,0.3,1.2,0.7,1.8c0.6,1,1.4,1.7,2.3,2c0.3,0.1,0.6,0.1,0.9,0.1c0.6,0,1.3-0.2,2-0.6
			c1-0.6,1.6-1.3,1.8-2.2c0.2-0.9,0-1.9-0.6-3C23.1,58.8,22.4,58.1,21.4,57.8z M20.3,59.6c0.2,0,0.3,0,0.5,0.1
			c0.4,0.1,0.8,0.5,1.2,1.2c0.4,0.6,0.5,1.2,0.4,1.7c-0.1,0.5-0.3,0.8-0.8,1c-0.4,0.2-0.8,0.3-1.3,0.1c-0.5-0.1-0.9-0.5-1.2-1.2
			c-0.4-0.6-0.5-1.2-0.4-1.6c0.1-0.4,0.4-0.8,0.8-1C19.8,59.6,20,59.6,20.3,59.6z"/>
		<path class="st0" d="M29.7,56.6l-1.8-3.2c-0.1-0.1-0.3-0.2-0.4-0.1L26.2,54c-0.1,0-0.1,0.1-0.1,0.2s0,0.1,0,0.2l1.9,3.4
			c0.3,0.5,0.4,0.8,0.5,1c0.1,0.2,0.1,0.3,0,0.5c-0.1,0.2-0.3,0.4-0.5,0.5c-0.3,0.2-0.5,0.2-0.8,0.2c-0.2,0-0.4-0.1-0.5-0.3
			c-0.1-0.1-0.2-0.3-0.6-0.9l-1.9-3.3c-0.1-0.1-0.3-0.2-0.4-0.1l-1.2,0.7c-0.1,0-0.1,0.1-0.1,0.2s0,0.1,0,0.2l1.9,3.3
			c0.4,0.7,0.8,1.2,1.1,1.5c0.2,0.2,0.5,0.4,0.8,0.5c0.3,0.1,0.5,0.1,0.8,0.1c0.1,0,0.2,0,0.3,0c0.4,0,0.9-0.2,1.6-0.6
			c0.5-0.3,0.9-0.6,1.2-0.9c0.3-0.3,0.4-0.7,0.5-1c0.1-0.4,0-0.7-0.1-1.1C30.4,57.9,30.1,57.4,29.7,56.6z"/>
		<path class="st0" d="M34.8,50.2c-0.1,0-0.1,0-0.2,0l-1.2,0.5c-0.1,0.1-0.2,0.2-0.2,0.4l1.4,3.4L31,51.8c-0.1-0.1-0.2-0.1-0.3,0
			l-1.3,0.5c-0.1,0-0.1,0.1-0.2,0.2c0,0.1,0,0.1,0,0.2l2.6,6.5c0,0.1,0.2,0.2,0.3,0.2c0,0,0.1,0,0.1,0l1.2-0.5
			c0.1,0,0.1-0.1,0.2-0.2s0-0.1,0-0.2l-1.3-3.3l3.5,2.6c0.1,0.1,0.2,0.1,0.3,0l1.3-0.5c0.1-0.1,0.2-0.2,0.2-0.4L35,50.4
			C35,50.3,34.9,50.2,34.8,50.2z"/>
		<path class="st0" d="M42,48.4c-0.1,0-0.1-0.1-0.2,0l-5.5,1.2c-0.2,0-0.2,0.2-0.2,0.3l0.3,1.2c0,0.1,0.1,0.1,0.1,0.2s0.1,0.1,0.2,0
			l1.8-0.4l1.2,5.4c0,0.1,0.1,0.1,0.1,0.2c0,0,0.1,0,0.2,0c0,0,0,0,0.1,0l1.4-0.3c0.2,0,0.2-0.2,0.2-0.3l-1.2-5.4l1.8-0.4
			c0.2,0,0.2-0.2,0.2-0.3l-0.3-1.2C42.1,48.5,42.1,48.5,42,48.4z"/>
		<path class="st0" d="M52.1,46.1l-2.1,0.5c-0.1,0-0.2,0.1-0.2,0.3l-0.2,3.9l-1.8-3.5c-0.1-0.1-0.2-0.2-0.3-0.1l-2.1,0.5
			c-0.1,0-0.1,0.1-0.2,0.1c0,0.1-0.1,0.1,0,0.2l1.5,6.9c0,0.1,0.1,0.1,0.1,0.2c0,0,0.1,0,0.2,0c0,0,0,0,0.1,0l1.3-0.3
			c0.2,0,0.2-0.2,0.2-0.3L48,51.2l1.5,3.1c0.1,0.1,0.2,0.2,0.3,0.1l1.3-0.3c0.1,0,0.2-0.1,0.2-0.3l0.1-3.4l0.7,3.2
			c0,0.2,0.2,0.2,0.3,0.2l1.3-0.3c0.1,0,0.1-0.1,0.2-0.1c0-0.1,0.1-0.1,0-0.2l-1.5-6.9C52.5,46.2,52.3,46.1,52.1,46.1z"/>
		<path class="st0" d="M59.1,44.9c0-0.1-0.1-0.1-0.1-0.2c-0.1,0-0.1-0.1-0.2,0L57.3,45c-0.1,0-0.1,0.1-0.2,0.1c0,0.1-0.1,0.1,0,0.2
			l0.8,3.8c0.1,0.5,0.2,0.9,0.2,1.1c0,0.2,0,0.3-0.2,0.5c-0.1,0.2-0.4,0.3-0.7,0.3c-0.3,0.1-0.6,0.1-0.8,0c-0.2-0.1-0.3-0.2-0.4-0.4
			c0-0.1-0.1-0.4-0.3-1.1L55,45.8c0-0.1-0.1-0.1-0.1-0.2c-0.1,0-0.1-0.1-0.2,0l-1.4,0.3c-0.2,0-0.2,0.2-0.2,0.3l0.8,3.7
			c0.2,0.8,0.4,1.4,0.5,1.8c0.1,0.3,0.4,0.6,0.6,0.8c0.3,0.2,0.6,0.4,1.1,0.5c0.1,0,0.3,0,0.5,0c0.3,0,0.7,0,1.2-0.2
			c0.6-0.1,1-0.3,1.4-0.5c0.3-0.2,0.6-0.5,0.8-0.8c0.2-0.3,0.3-0.7,0.3-1.1c0-0.4-0.1-1-0.3-1.8L59.1,44.9z"/>
		<path class="st0" d="M67.2,47.8l-1.4-0.1c-0.1,0-0.2,0-0.2,0.1c-0.1,0.1-0.1,0.1-0.1,0.2c0,0.5-0.1,0.8-0.3,1.1
			c-0.2,0.2-0.4,0.4-0.7,0.5c-0.4,0.1-0.8,0-1.1-0.2c-0.3-0.3-0.6-0.8-0.8-1.6c-0.2-0.7-0.1-1.3,0.1-1.7c0.2-0.4,0.5-0.6,0.9-0.7
			c0.3-0.1,0.6,0,0.8,0.1c0.2,0.1,0.4,0.3,0.6,0.6c0,0.1,0.1,0.1,0.2,0.1c0.1,0,0.2,0,0.2,0l1.3-0.6c0.1,0,0.1-0.1,0.1-0.2
			c0-0.1,0-0.2,0-0.2c-0.3-0.6-0.7-1-1.1-1.2c-0.7-0.4-1.5-0.5-2.4-0.3c-1,0.2-1.8,0.8-2.3,1.6c-0.5,0.8-0.6,1.9-0.3,3.1
			c0.3,1.1,0.8,2,1.6,2.5c0.6,0.4,1.2,0.6,1.8,0.6c0.3,0,0.5,0,0.8-0.1c0.8-0.2,1.4-0.5,1.9-1c0.4-0.5,0.7-1.2,0.7-2.1
			C67.4,47.9,67.3,47.8,67.2,47.8z"/>
		<path class="st0" d="M74.4,43.5L73,43.3c-0.1,0-0.1,0-0.2,0.1s-0.1,0.1-0.1,0.2l-0.3,2.5l-2.2-0.2l0.3-2.5c0-0.2-0.1-0.3-0.3-0.3
			l-1.4-0.2c-0.2,0-0.3,0.1-0.3,0.3l-0.8,7c0,0.2,0.1,0.3,0.3,0.3l1.4,0.2c0.1,0,0.1,0,0.2-0.1c0.1,0,0.1-0.1,0.1-0.2l0.3-2.8
			l2.2,0.2l-0.3,2.8c0,0.2,0.1,0.3,0.3,0.3l1.4,0.2c0,0,0,0,0,0c0.1,0,0.3-0.1,0.3-0.3l0.8-7c0-0.1,0-0.1-0.1-0.2
			S74.5,43.5,74.4,43.5z"/>
		<path class="st0" d="M82.9,44.5c0-0.1-0.1-0.1-0.2-0.1l-2.1-0.2c-0.1,0-0.2,0.1-0.3,0.2L78.9,48l-0.6-3.9c0-0.1-0.1-0.2-0.2-0.2
			l-2.1-0.2c-0.1,0-0.1,0-0.2,0.1c-0.1,0-0.1,0.1-0.1,0.2l-0.8,7c0,0.1,0,0.1,0.1,0.2s0.1,0.1,0.2,0.1l1.3,0.1
			c0.2,0,0.3-0.1,0.3-0.3l0.4-3.2l0.5,3.4c0,0.1,0.1,0.2,0.2,0.2l1.4,0.1c0.1,0,0.3-0.1,0.3-0.2l1.2-3.2l-0.4,3.2
			c0,0.1,0,0.1,0.1,0.2s0.1,0.1,0.2,0.1l1.3,0.1c0,0,0,0,0,0c0.1,0,0.3-0.1,0.3-0.3l0.8-7C83,44.6,82.9,44.6,82.9,44.5z"/>
		<path class="st0" d="M86.9,44.7c-0.6-0.1-1.2,0-1.6,0.1c-0.4,0.1-0.7,0.3-1.1,0.6c-0.3,0.3-0.6,0.6-0.8,1
			c-0.3,0.5-0.5,1.1-0.6,1.9c-0.1,1.2,0.1,2.2,0.7,2.9c0.6,0.8,1.5,1.2,2.6,1.3c0.2,0,0.4,0,0.5,0c0.9,0,1.6-0.3,2.3-0.8
			c0.7-0.6,1.2-1.5,1.3-2.7c0.1-1.2-0.1-2.2-0.7-3C88.9,45.3,88,44.9,86.9,44.7z M88.2,48.8c-0.1,0.7-0.3,1.3-0.6,1.6
			c-0.3,0.3-0.8,0.4-1.2,0.4c-0.5-0.1-0.9-0.3-1.1-0.6c-0.3-0.4-0.4-0.9-0.3-1.7c0.1-0.7,0.3-1.3,0.6-1.6c0.3-0.3,0.7-0.4,1.3-0.4
			c0.5,0.1,0.9,0.3,1.1,0.6C88.2,47.5,88.3,48.1,88.2,48.8z"/>
		<path class="st0" d="M104.3,47.6l-5.1-1.3c-0.1,0-0.1,0-0.2,0c-0.1,0-0.1,0.1-0.1,0.2l-1.7,6.6l-0.7-1.4c-0.3-0.6-0.5-1-0.7-1.3
			c-0.1-0.1-0.2-0.2-0.3-0.3c0.4-0.1,0.7-0.3,1-0.5c0.4-0.4,0.6-0.8,0.7-1.4c0-0.5,0-0.9-0.2-1.3c-0.2-0.4-0.5-0.7-0.9-0.9
			c-0.4-0.2-0.9-0.3-1.7-0.4l-3-0.3c-0.2,0-0.3,0.1-0.3,0.3l-0.8,7c0,0.2,0.1,0.3,0.3,0.3l1.4,0.2c0.1,0,0.1,0,0.2-0.1
			s0.1-0.1,0.1-0.2l0.3-2.6l0,0c0.4,0,0.5,0.1,0.6,0.1c0.1,0,0.2,0.1,0.3,0.3c0.1,0.1,0.2,0.4,0.6,1.1l0.9,1.6
			c0,0.1,0.1,0.1,0.2,0.2l1.7,0.2c0,0,0,0,0,0c0.1,0,0.2,0,0.2-0.1c0,0,0,0.1,0,0.1c0,0.1,0.1,0.1,0.2,0.1l5.2,1.3c0,0,0,0,0.1,0
			c0.1,0,0.2-0.1,0.3-0.2l0.3-1.2c0-0.2-0.1-0.3-0.2-0.3l-3.5-0.9l0.3-1.3l3.2,0.8c0.1,0,0.3-0.1,0.3-0.2l0.3-1.2
			c0-0.2-0.1-0.3-0.2-0.3l-3.2-0.8l0.2-1l3.4,0.9c0.1,0,0.1,0,0.2,0s0.1-0.1,0.1-0.2l0.3-1.2C104.5,47.8,104.4,47.6,104.3,47.6z
			 M93,47.3l0.8,0.1c0.7,0.1,0.9,0.1,1,0.1c0.2,0,0.3,0.1,0.3,0.2c0.1,0.1,0.1,0.2,0.1,0.4c0,0.2-0.1,0.3-0.1,0.4
			c-0.1,0.1-0.2,0.1-0.3,0.2c-0.1,0-0.3,0-1.2-0.1l-0.8-0.1L93,47.3z"/>
	</g>
	<g transform="matrix(0.866557,-0.498927,0.498927,0.866557,8019.51,3545.49)">
		<path vector-effect="none" class="st1" d="M-5205.2-7007.4v-7h2.1l1.3,4.8l1.3-4.8h2.1v7h-1.3v-5.5l-1.4,5.5h-1.4l-1.4-5.5v5.5
			H-5205.2"/>
	</g>
	<g transform="matrix(0.866557,-0.498927,0.498927,0.866557,8048.1,3529.03)">
		<path vector-effect="none" class="st1" d="M-5230.6-7010.9c0-0.7,0.1-1.3,0.3-1.8c0.2-0.4,0.4-0.7,0.7-1c0.3-0.3,0.6-0.5,0.9-0.6
			c0.4-0.2,0.9-0.3,1.5-0.3c1,0,1.9,0.3,2.5,1c0.6,0.6,0.9,1.5,0.9,2.7c0,1.1-0.3,2-0.9,2.7c-0.6,0.6-1.4,1-2.5,1
			c-1,0-1.9-0.3-2.5-1C-5230.3-7008.9-5230.6-7009.7-5230.6-7010.9 M-5229.1-7010.9c0,0.8,0.2,1.4,0.6,1.8c0.4,0.4,0.8,0.6,1.4,0.6
			c0.6,0,1-0.2,1.4-0.6s0.5-1,0.5-1.8c0-0.8-0.2-1.4-0.5-1.8c-0.4-0.4-0.8-0.6-1.4-0.6c-0.6,0-1.1,0.2-1.4,0.6
			C-5228.9-7012.3-5229.1-7011.7-5229.1-7010.9"/>
	</g>
	<g transform="matrix(0.866557,-0.498927,0.498927,0.866557,8075.83,3513.06)">
		<path vector-effect="none" class="st1" d="M-5254.6-7014.4h1.4v3.8c0,0.6,0,1,0.1,1.2c0.1,0.3,0.2,0.5,0.4,0.7
			c0.2,0.2,0.5,0.3,0.9,0.3c0.4,0,0.7-0.1,0.9-0.2c0.2-0.2,0.3-0.4,0.4-0.6c0-0.2,0.1-0.6,0.1-1.2v-3.9h1.4v3.7c0,0.8,0,1.4-0.1,1.8
			c-0.1,0.3-0.2,0.6-0.4,0.9s-0.5,0.4-0.8,0.6c-0.3,0.1-0.8,0.2-1.4,0.2c-0.7,0-1.2-0.1-1.5-0.2c-0.3-0.2-0.6-0.4-0.8-0.6
			c-0.2-0.2-0.3-0.5-0.4-0.8c-0.1-0.4-0.1-1-0.1-1.8V-7014.4"/>
	</g>
	<g transform="matrix(0.927626,-0.373308,0.373308,0.927626,8100.37,3498.8)">
		<path vector-effect="none" class="st1" d="M-6201.1-6203.6v-7h1.4l2.9,4.7v-4.7h1.3v7h-1.4l-2.8-4.6v4.6H-6201.1"/>
	</g>
	<g transform="matrix(0.976113,-0.216914,0.216914,0.976113,8126.37,3488.17)">
		<path vector-effect="none" class="st1" d="M-7149.9-5104.7v-5.9h-2.1v-1.2h5.6v1.2h-2.1v5.9H-7149.9"/>
	</g>
	<g transform="matrix(0.976113,-0.216914,0.216914,0.976113,8151.75,3482.53)">
		<path vector-effect="none" class="st1" d="M-7171.9-5104.7"/>
	</g>
	<g transform="matrix(0.976113,-0.216914,0.216914,0.976113,8162.49,3480.14)">
		<path vector-effect="none" class="st1" d="M-7179.6-5104.7v-7h2.1l1.3,4.8l1.3-4.8h2.1v7h-1.3v-5.5l-1.4,5.5h-1.4l-1.4-5.5v5.5
			H-7179.6"/>
	</g>
	<g transform="matrix(0.976113,-0.216914,0.216914,0.976113,8194.7,3472.99)">
		<path vector-effect="none" class="st1" d="M-7204.7-5111.7h1.4v3.8c0,0.6,0,1,0.1,1.2c0.1,0.3,0.2,0.5,0.4,0.7
			c0.2,0.2,0.5,0.3,0.9,0.3c0.4,0,0.7-0.1,0.9-0.2c0.2-0.2,0.3-0.4,0.4-0.6c0-0.2,0.1-0.6,0.1-1.2v-3.9h1.4v3.7c0,0.8,0,1.4-0.1,1.8
			c-0.1,0.3-0.2,0.6-0.4,0.9s-0.5,0.4-0.8,0.6c-0.3,0.1-0.8,0.2-1.4,0.2c-0.7,0-1.2-0.1-1.5-0.2c-0.3-0.2-0.6-0.4-0.8-0.6
			c-0.2-0.2-0.3-0.5-0.4-0.8c-0.1-0.4-0.1-1-0.1-1.8V-5111.7"/>
	</g>
	<g transform="matrix(0.976113,-0.216914,0.216914,0.976113,8223.99,3466.48)">
		<path vector-effect="none" class="st1" d="M-7223-5107.3l1.4,0.4c-0.2,0.8-0.6,1.3-1.1,1.7s-1.1,0.6-1.9,0.6c-0.9,0-1.7-0.3-2.3-1
			c-0.6-0.6-0.9-1.5-0.9-2.6c0-1.2,0.3-2.1,0.9-2.7c0.6-0.6,1.4-1,2.4-1c0.9,0,1.6,0.3,2.1,0.8c0.3,0.3,0.6,0.7,0.7,1.3l-1.4,0.3
			c-0.1-0.4-0.3-0.7-0.5-0.9s-0.6-0.3-1-0.3c-0.5,0-0.9,0.2-1.3,0.6c-0.3,0.4-0.5,1-0.5,1.8c0,0.9,0.2,1.5,0.5,1.9s0.7,0.6,1.2,0.6
			c0.4,0,0.7-0.1,1-0.4C-7223.3-5106.4-7223.1-5106.8-7223-5107.3"/>
	</g>
	<g transform="matrix(0.994153,0.107273,-0.107273,0.994153,8249.49,3460.18)">
		<path vector-effect="none" class="st1" d="M-8500.7-2512.8v-7h1.4v2.8h2.8v-2.8h1.4v7h-1.4v-3.1h-2.8v3.1H-8500.7"/>
	</g>
	<g transform="matrix(0.994069,0.108051,-0.108051,0.994069,8279.31,3463.4)">
		<path vector-effect="none" class="st1" d="M-8525.5-2506.1v-7h2.1l1.3,4.8l1.3-4.8h2.1v7h-1.3v-5.5l-1.4,5.5h-1.4l-1.4-5.5v5.5
			H-8525.5"/>
	</g>
	<g transform="matrix(0.994069,0.108051,-0.108051,0.994069,8312.11,3466.96)">
		<path vector-effect="none" class="st1" d="M-8550.9-2509.6c0-0.7,0.1-1.3,0.3-1.8c0.2-0.4,0.4-0.7,0.7-1c0.3-0.3,0.6-0.5,0.9-0.6
			c0.4-0.2,0.9-0.3,1.5-0.3c1,0,1.9,0.3,2.5,1s0.9,1.5,0.9,2.7c0,1.1-0.3,2-0.9,2.7c-0.6,0.6-1.4,1-2.5,1c-1,0-1.9-0.3-2.5-1
			C-8550.6-2507.6-8550.9-2508.5-8550.9-2509.6 M-8549.4-2509.6c0,0.8,0.2,1.4,0.6,1.8c0.4,0.4,0.8,0.6,1.4,0.6c0.6,0,1-0.2,1.4-0.6
			s0.5-1,0.5-1.8c0-0.8-0.2-1.4-0.5-1.8c-0.4-0.4-0.8-0.6-1.4-0.6s-1.1,0.2-1.4,0.6C-8549.2-2511.1-8549.4-2510.5-8549.4-2509.6"/>
	</g>
	<g transform="matrix(0.994069,0.108051,-0.108051,0.994069,8343.92,3470.42)">
		<path vector-effect="none" class="st1" d="M-8574.9-2506.1v-7h3c0.8,0,1.3,0.1,1.6,0.2c0.3,0.1,0.6,0.4,0.8,0.7
			c0.2,0.3,0.3,0.7,0.3,1.1c0,0.5-0.2,1-0.5,1.3c-0.3,0.3-0.8,0.6-1.4,0.7c0.3,0.2,0.6,0.4,0.8,0.6s0.5,0.6,0.8,1.1l0.9,1.4h-1.7
			l-1-1.5c-0.4-0.5-0.6-0.9-0.8-1s-0.3-0.2-0.4-0.3c-0.2-0.1-0.4-0.1-0.7-0.1h-0.3v2.9H-8574.9 M-8573.5-2510.2h1.1
			c0.7,0,1.1,0,1.3-0.1c0.2-0.1,0.3-0.2,0.4-0.3c0.1-0.1,0.1-0.3,0.1-0.5c0-0.2-0.1-0.4-0.2-0.6c-0.1-0.1-0.3-0.2-0.5-0.3
			c-0.1,0-0.5,0-1,0h-1.1V-2510.2"/>
	</g>
	<g transform="matrix(0.970004,0.242777,-0.242777,0.970004,8372.17,3473.38)">
		<path vector-effect="none" class="st1" d="M-8858.2-1308.6v-7h5.2v1.2h-3.8v1.6h3.5v1.2h-3.5v1.9h3.9v1.2H-8858.2"/>
	</g>
</g>
</svg>
