<?xml version="1.0" encoding="utf-8"?>
<!-- Generator: Adobe Illustrator 28.2.0, SVG Export Plug-In . SVG Version: 6.00 Build 0)  -->
<svg version="1.1" id="Calque_1" xmlns="http://www.w3.org/2000/svg" xmlns:xlink="http://www.w3.org/1999/xlink" x="0px" y="0px"
	 viewBox="0 0 113.4 113.4" style="enable-background:new 0 0 113.4 113.4;" xml:space="preserve">
<style type="text/css">
	.st0{fill:#E763A0;}
</style>
<g>
	<path class="st0" d="M28.8,55.4h-2.1c-0.1,0-0.2,0.1-0.3,0.2l-1.1,3.8l-0.9-3.8c0-0.1-0.1-0.2-0.3-0.2H22c-0.2,0-0.3,0.1-0.3,0.3
		l-0.1,7c0,0.1,0,0.1,0.1,0.2c0.1,0.1,0.1,0.1,0.2,0.1h1.3c0.2,0,0.3-0.1,0.3-0.3l0.1-3.2l0.8,3.3c0,0.1,0.1,0.2,0.3,0.2H26
		c0.1,0,0.2-0.1,0.3-0.2l0.9-3.3l-0.1,3.2c0,0.1,0,0.1,0.1,0.2c0.1,0.1,0.1,0.1,0.2,0.1h1.3c0.2,0,0.3-0.1,0.3-0.3l0.1-7
		c0-0.1,0-0.1-0.1-0.2C29,55.4,28.9,55.4,28.8,55.4z"/>
	<path class="st0" d="M33.1,55.4c-0.7,0-1.2,0.1-1.6,0.2c-0.3,0.1-0.7,0.3-1,0.7c-0.3,0.3-0.5,0.6-0.7,1.1c-0.3,0.5-0.4,1.1-0.4,1.9
		c0,1.2,0.3,2.1,1,2.9c0.7,0.7,1.7,1.1,2.7,1.1c1.1,0,2.1-0.3,2.7-1c0.7-0.7,1.1-1.7,1.1-2.9c0-1.2-0.3-2.1-1-2.9
		C35.2,55.8,34.2,55.4,33.1,55.4z M34.8,59.2c0,0.7-0.2,1.3-0.5,1.6c-0.4,0.4-0.7,0.5-1.2,0.5s-0.8-0.1-1.2-0.5
		c-0.2-0.3-0.4-0.8-0.4-1.6c0-0.7,0.2-1.3,0.5-1.6c0.3-0.4,0.8-0.5,1.2-0.5s0.9,0.1,1.2,0.5C34.6,58,34.8,58.6,34.8,59.2z"/>
	<path class="st0" d="M43.9,56.1c0-0.1-0.1-0.1-0.2-0.1l-1.5-0.1c-0.1,0-0.2,0.1-0.3,0.2l-1.8,4.3l-1.2-4.5c0-0.1-0.1-0.2-0.3-0.2
		l-1.5-0.1c-0.1,0-0.2,0-0.2,0.1c-0.1,0.1-0.1,0.2-0.1,0.3l2,7.2c0,0.1,0.1,0.2,0.3,0.2h1.5c0.1,0,0.2-0.1,0.3-0.2l3-6.8
		C43.9,56.3,43.9,56.2,43.9,56.1z"/>
	<path class="st0" d="M46.1,56.4c0-0.1-0.1-0.1-0.2-0.1l-1.4-0.1c-0.1,0-0.3,0.1-0.3,0.3l-0.7,7c0,0.1,0,0.2,0.1,0.2
		s0.1,0.1,0.2,0.1l1.4,0.1c0,0,0,0,0,0c0.1,0,0.3-0.1,0.3-0.3l0.7-7C46.1,56.5,46.1,56.4,46.1,56.4z"/>
	<path class="st0" d="M52.1,56.9l-5.2-0.5c-0.2,0-0.3,0.1-0.3,0.3l-0.7,7c0,0.1,0,0.2,0.1,0.2c0,0.1,0.1,0.1,0.2,0.1l5.3,0.5
		c0,0,0,0,0,0c0.1,0,0.1,0,0.2-0.1c0.1,0,0.1-0.1,0.1-0.2l0.1-1.2c0-0.2-0.1-0.3-0.3-0.3L48,62.3l0.1-1.3l3.3,0.4
		c0.1,0,0.2,0,0.2-0.1c0.1,0,0.1-0.1,0.1-0.2l0.1-1.2c0-0.2-0.1-0.3-0.3-0.3l-3.2-0.3l0.1-1l3.5,0.4c0.1,0,0.2,0,0.2-0.1
		c0.1,0,0.1-0.1,0.1-0.2l0.1-1.2C52.3,57,52.2,56.9,52.1,56.9z"/>
	<path class="st0" d="M64.2,57c-0.1-0.1-0.1-0.1-0.2-0.1h-1.4c-0.1,0-0.3,0.1-0.3,0.2l-0.7,3.7l-1.1-3.7c0-0.1-0.2-0.2-0.3-0.2
		L58.5,57c-0.1,0-0.2,0.1-0.3,0.2l-0.8,3.7l-0.9-3.6c0-0.1-0.1-0.2-0.3-0.2h-1.5c-0.1,0-0.2,0-0.2,0.1c-0.1,0.1-0.1,0.2,0,0.2l1.9,7
		c0,0.1,0.1,0.2,0.3,0.2h1.5c0.1,0,0.2-0.1,0.3-0.2l1-4.3l1.3,4.2c0,0.1,0.1,0.2,0.3,0.2h1.5c0.1,0,0.2-0.1,0.3-0.2l1.5-7.1
		C64.2,57.1,64.2,57,64.2,57z"/>
	<path class="st0" d="M70.2,57.1c-0.7-0.6-1.7-0.9-2.8-0.8c-0.5,0.1-1,0.3-1.5,0.5c-0.3,0.1-0.7,0.4-0.9,0.8
		c-0.2,0.3-0.4,0.6-0.5,1.1c-0.2,0.5-0.2,1.1-0.1,1.9c0.1,1.1,0.5,2,1.3,2.9c0.6,0.5,1.4,0.8,2.3,0.8c0.2,0,0.4,0,0.5,0
		c1.1-0.2,2-0.7,2.5-1.4c0.5-0.9,0.7-1.8,0.6-3C71.4,58.7,71,57.8,70.2,57.1z M69.3,61.6c-0.2,0.4-0.5,0.6-1.1,0.7
		c-0.5,0.1-0.9,0-1.3-0.4c-0.4-0.2-0.6-0.7-0.7-1.5c-0.1-0.8,0-1.4,0.4-1.7c0.2-0.4,0.5-0.6,1.1-0.7c0.3-0.1,0.8,0,1.3,0.3
		c0.3,0.2,0.5,0.7,0.6,1.5C69.7,60.6,69.6,61.1,69.3,61.6z"/>
	<path class="st0" d="M76.8,54.9c-0.8-0.4-1.8-0.5-2.9-0.1c-0.5,0.2-1,0.5-1.4,0.8c-0.4,0.3-0.6,0.6-0.8,1c-0.2,0.3-0.3,0.8-0.3,1.3
		c0,0.5,0.1,1.2,0.3,1.9c0,0,0,0,0,0c0.4,1.2,1.1,1.9,1.9,2.3c0.5,0.2,1,0.3,1.5,0.3c0.4,0,0.9-0.1,1.4-0.2c1-0.3,1.7-0.9,2.2-1.8
		c0.4-0.9,0.4-1.9,0-3C78.3,56.1,77.7,55.3,76.8,54.9z M76.8,59.6c-0.2,0.4-0.5,0.6-0.9,0.8c-0.5,0.2-0.9,0.2-1.3-0.1
		c-0.4-0.1-0.6-0.5-0.9-1.3c-0.3-0.7-0.3-1.2-0.1-1.7c0.2-0.4,0.4-0.7,0.9-0.8c0.2-0.1,0.4-0.1,0.6-0.1c0.2,0,0.5,0.1,0.7,0.2
		c0.4,0.1,0.6,0.5,0.9,1.3C76.9,58.6,77,59.2,76.8,59.6z"/>
	<path class="st0" d="M85.5,55.5c-0.1-0.4-0.2-0.9-0.5-1.3c-0.4-0.8-0.9-1.3-1.1-1.5c-0.2-0.2-0.7-0.6-1.2-0.8
		c-0.4-0.1-0.9-0.2-1.3-0.1C81,52,80.5,52.1,80,52.4l-2.4,1.1c-0.1,0-0.1,0.1-0.2,0.2c0,0.1,0,0.2,0,0.2l3.3,6.3
		c0.1,0.1,0.1,0.2,0.3,0.2c0,0,0.1,0,0.1,0l2.4-1.2c0.5-0.2,1-0.5,1.2-0.8c0.3-0.3,0.6-0.7,0.7-1.1c0.1-0.5,0.2-1.1,0.1-1.6
		L85.5,55.5z M81.8,58l-1.8-3.6l0.3-0.1c0.7-0.4,0.9-0.5,1-0.5c0,0,0.1,0,0.1,0c0.1-0.1,0.3-0.1,0.4,0c0,0,0.1,0,0.1,0
		c0.2,0,0.3,0.1,0.5,0.3c0.1,0.1,0.1,0.2,0.2,0.3c0.2,0.2,0.3,0.5,0.5,0.8c0.1,0.3,0.2,0.6,0.3,0.9c0,0.1,0.1,0.2,0.1,0.3
		c0.1,0.4,0.1,0.5,0,0.6c-0.1,0.2-0.2,0.2-0.3,0.4c-0.1,0.1-0.3,0.2-0.6,0.3L81.8,58z"/>
	<path class="st0" d="M91.6,52.7c-0.3-0.5-0.6-0.8-0.9-1c-0.4-0.2-0.7-0.3-1.2-0.3c-0.4,0-0.9,0-1.7,0.2c-0.9,0.3-1.1,0.2-1.2,0.2
		c-0.1-0.1-0.2-0.1-0.3-0.2c0-0.1,0-0.1,0-0.2c0.2-0.3,0.3-0.4,0.7-0.6c0.3-0.2,0.6-0.2,0.6-0.2c0,0,0.1,0,0.1,0
		c0.1,0,0.3,0.1,0.5,0.4c0.1,0.1,0.2,0.2,0.4,0.1l1.2-0.7c0.1-0.1,0.2-0.2,0.1-0.4c-0.4-0.7-0.9-1.1-1.5-1.3c-0.6-0.1-1.4,0-2.2,0.4
		c-0.6,0.2-0.9,0.5-1.2,0.9c-0.3,0.3-0.6,0.7-0.6,1.2c0,0.3,0,0.8,0.2,1.1c0.2,0.6,0.7,0.9,1.4,1.2c0.5,0.1,1.1,0.1,1.8-0.1
		c0.2,0,0.4-0.1,0.6-0.1c0.3,0,0.4-0.1,0.5-0.1c0,0,0.1,0,0.1,0c0.2-0.1,0.3-0.1,0.3-0.1c0,0,0.1,0.1,0.1,0.1c0,0,0,0.1,0.1,0.1
		c0,0,0.1,0.1,0.1,0.1c0.1,0.2,0.1,0.3,0,0.6c-0.1,0.2-0.2,0.3-0.7,0.5c-0.4,0.2-0.7,0.3-0.9,0.2c-0.3-0.1-0.5-0.3-0.8-0.6
		c-0.1-0.1-0.2-0.1-0.4-0.1l-1.2,0.7c-0.1,0.1-0.2,0.2-0.1,0.4c0.4,0.8,1,1.2,1.7,1.6c0,0,0.1,0,0.1,0c0.2,0,0.3,0,0.5,0
		c0.6,0,1.2-0.2,1.8-0.5c0.6-0.3,1-0.6,1.4-1c0.4-0.4,0.6-0.8,0.6-1.3C91.8,53.5,91.8,53.2,91.6,52.7z"/>
</g>
</svg>
