<?xml version="1.0" encoding="utf-8"?>
<!-- Generator: Adobe Illustrator 28.2.0, SVG Export Plug-In . SVG Version: 6.00 Build 0)  -->
<svg version="1.1" id="Calque_1" xmlns="http://www.w3.org/2000/svg" xmlns:xlink="http://www.w3.org/1999/xlink" x="0px" y="0px"
	 viewBox="0 0 113.4 113.4" style="enable-background:new 0 0 113.4 113.4;" xml:space="preserve">
<style type="text/css">
	.st0{fill:#E763A0;}
</style>
<g>
	<path class="st0" d="M25,65.1l-2,0.7c-0.1,0-0.2,0.2-0.2,0.3l0.3,3.9l-2.2-3.2c-0.1-0.1-0.2-0.2-0.3-0.1l-2,0.7
		c-0.1,0-0.1,0.1-0.2,0.1c0,0.1,0,0.1,0,0.2l2.4,6.6c0,0.1,0.2,0.2,0.3,0.2c0,0,0.1,0,0.1,0l1.3-0.4c0.1,0,0.1-0.1,0.2-0.1
		s0-0.2,0-0.2l-1.1-3l1.9,2.8c0.1,0.1,0.2,0.2,0.3,0.1l1.3-0.5c0.1,0,0.2-0.2,0.2-0.3L25,69.5l1,3c0.1,0.1,0.2,0.2,0.4,0.2l1.2-0.4
		c0.1,0,0.1-0.1,0.2-0.1s0-0.1,0-0.2l-2.4-6.7C25.3,65.1,25.1,65,25,65.1z"/>
	<path class="st0" d="M33.4,67.9c-0.1-0.3-0.2-0.8-0.4-1.3l-1.2-3.5c0-0.1-0.1-0.1-0.1-0.2c-0.1,0-0.1,0-0.2,0l-1.3,0.5
		c-0.1,0.1-0.2,0.2-0.2,0.4l1.3,3.7c0.1,0.3,0.1,0.5,0.2,0.7c0,0.1,0.1,0.3,0.1,0.3c0,0,0,0.1,0,0.1c0,0.1,0,0.2-0.1,0.4
		c-0.2,0.2-0.3,0.3-0.7,0.4c-0.4,0.2-0.6,0.1-0.7,0.1c-0.2-0.1-0.3-0.2-0.5-0.4c-0.1-0.2-0.2-0.5-0.4-1.1l-1.3-3.6
		c0-0.1-0.1-0.1-0.1-0.2c-0.1,0-0.1,0-0.2,0l-1.3,0.5C26,64.8,26,65,26,65.1l1.2,3.6c0.2,0.7,0.5,1.4,0.7,1.6
		c0.1,0.2,0.4,0.5,0.7,0.7c0.4,0.2,0.7,0.3,1.2,0.3c0.4,0,1-0.1,1.6-0.3c0.5-0.2,0.8-0.4,1.1-0.6l0.1-0.1c0.3-0.2,0.6-0.6,0.7-0.9
		c0.1-0.3,0.1-0.7,0.1-1.1c0,0,0-0.1,0-0.1C33.4,68.2,33.4,68,33.4,67.9z"/>
	<path class="st0" d="M39.4,64.2c-0.3-0.2-0.7-0.3-1.1-0.4c-0.4-0.1-1-0.1-1.7,0c-0.8,0.1-1.1,0.1-1.3,0c0,0,0,0-0.1-0.1
		c0-0.1,0-0.2,0.1-0.3c0.1-0.3,0.4-0.4,0.6-0.4c0,0,0.1,0,0.1,0c0.2-0.1,0.5-0.1,0.6-0.1c0.2,0.1,0.3,0.2,0.5,0.5
		c0.1,0.1,0.2,0.2,0.3,0.1l1.3-0.5c0.1,0,0.1-0.1,0.2-0.2s0-0.2,0-0.2c-0.3-0.6-0.7-1.1-1.4-1.3c-0.7-0.2-1.5-0.2-2.3,0.1
		c-0.5,0.2-0.9,0.4-1.3,0.8c-0.4,0.4-0.6,0.7-0.7,1.1c-0.1,0.5-0.1,0.9,0,1.3c0.2,0.6,0.7,1,1.3,1.3c0.2,0.1,0.8,0.2,1.8,0.1
		c0.6-0.1,1-0.1,1.2-0.1c0.2,0,0.4,0,0.4,0c0,0,0,0,0.1,0.1c0.1,0,0.1,0,0.1,0.1c0,0,0,0.1,0,0.1c0.1,0.2,0.1,0.3,0,0.5
		c-0.2,0.2-0.5,0.4-0.8,0.5c-0.3,0.1-0.7,0.1-0.9,0c-0.2-0.1-0.5-0.3-0.6-0.7c-0.1-0.1-0.2-0.2-0.4-0.1l-1.3,0.6
		c-0.1,0-0.1,0.1-0.1,0.2s0,0.2,0,0.2c0.4,0.9,0.9,1.3,1.7,1.6c0.3,0.1,0.6,0.2,0.9,0.2c0.4,0,0.9-0.1,1.4-0.3l0.4-0.2
		c0.5-0.2,0.8-0.4,1.1-0.7c0.3-0.3,0.6-0.8,0.7-1.2c0.1-0.5,0-0.9-0.1-1.3C40.1,64.8,39.8,64.5,39.4,64.2z"/>
	<path class="st0" d="M40.5,59.7c-0.1,0-0.1,0-0.2,0L39,60.2c-0.1,0.1-0.2,0.2-0.2,0.4l2.4,6.6c0,0.1,0.1,0.1,0.1,0.2
		c0,0,0.1,0,0.1,0c0,0,0.1,0,0.1,0l1.3-0.5c0.1-0.1,0.2-0.2,0.2-0.4l-2.4-6.6C40.6,59.8,40.6,59.7,40.5,59.7z"/>
	<path class="st0" d="M48.6,62.1h-1.4c-0.2,0-0.3,0.1-0.3,0.3c0,0.5,0,0.8-0.3,1.3c-0.2,0.3-0.3,0.5-0.7,0.6
		c-0.5,0.2-0.9,0.1-1.2-0.1c-0.3-0.2-0.7-0.7-1-1.4c-0.2-0.8-0.3-1.3-0.1-1.7c0.2-0.4,0.4-0.7,0.8-0.8c0.2-0.1,0.6-0.1,0.8,0
		c0.3,0.1,0.5,0.3,0.7,0.5c0,0.1,0.1,0.1,0.2,0.1c0.1,0,0.2,0,0.2,0l1.2-0.8c0.1-0.1,0.2-0.3,0.1-0.4c-0.3-0.5-0.7-0.8-1.2-1.1
		c-0.7-0.3-1.6-0.3-2.4,0c-0.9,0.3-1.6,0.9-2.1,1.9c-0.3,0.9-0.3,2,0.1,3.1c0.3,1.1,0.9,1.9,1.8,2.4c0.5,0.2,0.9,0.3,1.4,0.3
		c0.4,0,0.8-0.1,1.3-0.2c0.8-0.4,1.4-0.8,1.7-1.3c0.4-0.6,0.5-1.4,0.4-2.2C48.9,62.2,48.7,62.1,48.6,62.1z"/>
	<path class="st0" d="M55.8,57.3l-2.5,0.9l-0.4-1.1l2.9-1c0.1,0,0.1-0.1,0.2-0.1s0-0.1,0-0.2l-0.4-1.1c-0.1-0.1-0.2-0.2-0.4-0.2
		l-4.6,1.6c-0.1,0-0.1,0.1-0.2,0.1c0,0.1,0,0.1,0,0.2l2.4,6.6c0,0.1,0.2,0.2,0.3,0.2c0,0,0.1,0,0.1,0l1.4-0.5
		c0.1-0.1,0.2-0.2,0.2-0.4l-0.9-2.5l2.5-0.9c0.1,0,0.1-0.1,0.2-0.1c0-0.1,0-0.1,0-0.2l-0.4-1.1C56.1,57.3,55.9,57.2,55.8,57.3z"/>
	<path class="st0" d="M63.3,57.7c-0.1,0-0.1,0-0.2,0L59.7,59l-0.5-1.3l3-1.1c0.1-0.1,0.2-0.2,0.2-0.4L62,55.1c0-0.1-0.1-0.1-0.1-0.2
		s-0.1,0-0.2,0l-3,1.1l-0.3-1l3.3-1.2c0.1,0,0.1-0.1,0.2-0.1s0-0.1,0-0.2l-0.4-1.1c0-0.1-0.1-0.1-0.1-0.2c-0.1,0-0.1,0-0.2,0
		l-4.9,1.8c-0.1,0-0.1,0.1-0.2,0.1s0,0.1,0,0.2l2.5,6.6c0,0.1,0.1,0.1,0.1,0.2c0,0,0.1,0,0.1,0c0,0,0.1,0,0.1,0l4.9-1.9
		c0.1-0.1,0.2-0.2,0.2-0.4l-0.4-1.1C63.4,57.8,63.4,57.7,63.3,57.7z"/>
	<path class="st0" d="M68.4,53.4c-0.4-0.2-0.7-0.3-1.2-0.3c-0.4,0-0.9,0-1.7,0.2c-0.9,0.3-1.1,0.2-1.2,0.2c-0.1-0.1-0.2-0.1-0.3-0.2
		c0-0.1,0-0.1,0-0.2c0.2-0.3,0.3-0.4,0.7-0.6c0.3-0.2,0.6-0.2,0.6-0.2c0,0,0.1,0,0.1,0c0.1,0,0.3,0.1,0.5,0.4
		c0.1,0.1,0.2,0.2,0.4,0.1l1.2-0.7c0.1-0.1,0.2-0.2,0.1-0.4c-0.4-0.7-0.9-1.1-1.5-1.3c-0.6-0.1-1.4,0-2.2,0.4
		c-0.6,0.2-0.9,0.5-1.2,0.9c-0.3,0.3-0.6,0.7-0.6,1.2c0,0.3,0,0.8,0.2,1.1c0.2,0.6,0.7,0.9,1.4,1.2c0.5,0.1,1.1,0.1,1.8-0.1
		c0.2,0,0.4-0.1,0.6-0.1c0.2,0,0.4-0.1,0.5-0.1c0,0,0.1,0,0.1,0c0.2-0.1,0.3-0.1,0.3-0.1c0,0,0.1,0.1,0.1,0.1c0,0,0,0.1,0.1,0.1
		c0,0,0.1,0.1,0.1,0.1c0.1,0.2,0.1,0.3,0,0.6c-0.1,0.2-0.2,0.3-0.7,0.5c-0.4,0.2-0.7,0.3-0.9,0.2c-0.3-0.1-0.5-0.3-0.8-0.6
		c-0.1-0.1-0.2-0.1-0.4-0.1l-1.2,0.7c-0.1,0-0.1,0.1-0.1,0.2s0,0.2,0,0.2c0.3,0.5,0.8,0.9,1.3,1.2c0.1,0.1,0.3,0.2,0.4,0.3
		c0,0,0.1,0.1,0.1,0.1c0.2,0,0.3,0,0.5,0c0.6,0,1.2-0.2,1.8-0.5c0.6-0.3,1-0.6,1.4-1c0.4-0.4,0.6-0.8,0.6-1.3c0-0.5,0-0.9-0.2-1.3
		C69,53.9,68.6,53.6,68.4,53.4z"/>
	<path class="st0" d="M71.3,49.1l1.6-0.8c0.1-0.1,0.2-0.2,0.1-0.4l-0.5-1.1c0-0.1-0.1-0.1-0.2-0.1c-0.1,0-0.2,0-0.2,0l-5,2.5
		C67,49.3,67,49.4,67,49.6l0.5,1.1c0,0.1,0.1,0.1,0.2,0.1c0.1,0,0.2,0,0.2,0l1.6-0.8l2.5,5c0,0.1,0.1,0.1,0.2,0.1c0,0,0.1,0,0.1,0
		c0,0,0.1,0,0.1,0l1.2-0.7c0.1-0.1,0.2-0.2,0.1-0.4L71.3,49.1z"/>
	<path class="st0" d="M80.7,42.6c-0.1,0-0.2,0-0.3,0l-1.3,0.7c-0.1,0.1-0.2,0.2-0.1,0.3l0.7,4.6l-3.3-3.3c-0.1-0.1-0.2-0.1-0.3-0.1
		l-1.4,0.7c0,0-0.1,0-0.1,0.1c-0.1,0-0.2,0-0.2,0l-1.2,0.7C73,46.4,73,46.5,73,46.7l3.1,6.3c0,0.1,0.1,0.1,0.2,0.1c0,0,0.1,0,0.1,0
		c0,0,0.1,0,0.1,0l1.2-0.7c0.1-0.1,0.2-0.2,0.1-0.4l-2.7-5.6l4.9,4.7c0.1,0.1,0.1,0.1,0.2,0.1c0,0,0.1,0,0.1,0l1.3-0.7
		c0.1-0.1,0.2-0.2,0.1-0.3l-0.9-7.4C80.9,42.7,80.8,42.6,80.7,42.6z"/>
	<path class="st0" d="M95,43.7l-0.5-1.1c0-0.1-0.1-0.1-0.2-0.1c-0.1,0-0.2,0-0.2,0L91.1,44L88.6,39c-0.1-0.1-0.2-0.2-0.4-0.1
		L87,39.5c-0.1,0-0.1,0.1-0.1,0.2s0,0.2,0,0.2l2.5,5.1l-4.8-4.2c-0.1-0.1-0.2-0.1-0.3,0L83,41.4c-0.1,0.1-0.2,0.2-0.1,0.3l0.7,7.5
		c0,0.1,0.1,0.2,0.1,0.2c0,0,0.1,0,0.1,0s0.1,0,0.1,0l1.3-0.7c0.1-0.1,0.2-0.2,0.1-0.3l-0.2-1.5l2.1-1.1l1.2,1.1
		c0.1,0.1,0.2,0.1,0.3,0l1.4-0.7c0,0,0,0,0,0c0,0,0.1,0,0.1,0l4.5-2.1C95,44,95,43.9,95,43.7z M84.9,43.5l1.2,1.1l-1,0.5L84.9,43.5z
		"/>
</g>
</svg>
