<?xml version="1.0" encoding="utf-8"?>
<!-- Generator: Adobe Illustrator 28.2.0, SVG Export Plug-In . SVG Version: 6.00 Build 0)  -->
<svg version="1.1" id="Calque_1" xmlns="http://www.w3.org/2000/svg" xmlns:xlink="http://www.w3.org/1999/xlink" x="0px" y="0px"
	 viewBox="0 0 113.4 113.4" style="enable-background:new 0 0 113.4 113.4;" xml:space="preserve">
<style type="text/css">
	.st0{fill:#FE76B8;}
	.st1{fill:#E8629F;}
</style>
<g>
	<g>
		<path class="st0" d="M13.6,71.6c-0.1-0.1-0.3,0-0.4,0.1l-0.5,1.2c0,0.1,0,0.1,0,0.2c0,0.1,0.1,0.1,0.1,0.2l3.4,1.5l-4.5,0.6
			c-0.1,0-0.2,0.1-0.2,0.2L11,76.8c-0.1,0.1,0,0.3,0.1,0.4l6.4,2.9c0,0,0.1,0,0.1,0c0.1,0,0.2-0.1,0.3-0.2l0.5-1.2
			c0-0.1,0-0.1,0-0.2c0-0.1-0.1-0.1-0.1-0.2l-3.3-1.5l4.4-0.6c0.1,0,0.2-0.1,0.2-0.2l0.6-1.3c0.1-0.1,0-0.3-0.1-0.4L13.6,71.6z"/>
		<path class="st0" d="M22.6,67.7l-1.1-0.4c-0.1,0-0.1,0-0.2,0c-0.1,0-0.1,0.1-0.1,0.2l-1.3,3.4l-1.3-0.5l1.1-3.1c0-0.1,0-0.1,0-0.2
			c0-0.1-0.1-0.1-0.2-0.1l-1.1-0.4c-0.1-0.1-0.3,0-0.4,0.2l-1.1,3.1L16,69.5l1.2-3.3c0-0.1,0-0.1,0-0.2c0-0.1-0.1-0.1-0.2-0.1
			l-1.1-0.4c-0.1-0.1-0.3,0-0.4,0.2l-1.8,4.9c0,0.1,0,0.1,0,0.2c0,0.1,0.1,0.1,0.2,0.1l6.6,2.4c0,0,0.1,0,0.1,0c0,0,0.1,0,0.1,0
			c0.1,0,0.1-0.1,0.1-0.2l1.8-5C22.8,68,22.7,67.8,22.6,67.7z"/>
		<path class="st0" d="M18.6,58.8c-0.1-0.1-0.2-0.1-0.3-0.1c-0.1,0-0.2,0.1-0.2,0.2l-0.5,1.4c0,0.1,0,0.2,0.1,0.3l3.6,3l-4.7-0.2
			c-0.1,0-0.2,0.1-0.3,0.2L15.8,65c0,0.1,0,0.2,0,0.3s0.1,0.1,0.2,0.1l7.5,0.2c0,0,0,0,0,0c0.1,0,0.2-0.1,0.3-0.2l0.6-1.4
			c0-0.1,0-0.2-0.1-0.3L18.6,58.8z"/>
		<path class="st0" d="M26.5,55.6c-0.1,0-0.1,0-0.2,0c-0.1,0-0.1,0.1-0.2,0.1L24.6,59l-1.2-0.6l1.4-2.9c0-0.1,0-0.1,0-0.2
			c0-0.1-0.1-0.1-0.1-0.2l-1.1-0.5c-0.1-0.1-0.3,0-0.4,0.1l-1.4,2.9l-0.9-0.4l1.5-3.2c0-0.1,0-0.1,0-0.2c0-0.1-0.1-0.1-0.1-0.2
			l-1.1-0.5c-0.1-0.1-0.3,0-0.4,0.1L18.6,58c-0.1,0.1,0,0.3,0.1,0.4l6.3,3c0,0,0.1,0,0.1,0c0,0,0.1,0,0.1,0c0.1,0,0.1-0.1,0.2-0.1
			l2.3-4.8c0.1-0.1,0-0.3-0.1-0.4L26.5,55.6z"/>
		<path class="st0" d="M47.4,40.7l-1.3,0c0,0,0,0,0,0c-0.2,0-0.3,0.1-0.3,0.3l-0.1,3.7l-2.3-3.9c0-0.1-0.1-0.1-0.2-0.1l-1.4,0
			c0,0,0,0,0,0c-0.2,0-0.3,0.1-0.3,0.3l-0.1,5.4l-3-5.2c-0.1-0.1-0.2-0.2-0.3-0.1l-1.5,0.2c-0.1,0-0.2,0.1-0.2,0.2L35,47.3
			c0,0,0,0,0,0l-2.8,1.6l-2.7-4.8c0-0.1-0.1-0.1-0.2-0.1s-0.2,0-0.2,0l-1.2,0.7c-0.1,0.1-0.2,0.3-0.1,0.4l3,5.3L30,50.3
			c-0.7,0-1.1-0.1-1.5,0c-0.1,0-0.3,0-0.4,0.1c0.1-0.4,0.1-0.8,0.1-1.1c-0.1-0.5-0.4-1-0.9-1.3c-0.4-0.3-0.8-0.4-1.2-0.5
			c-0.4,0-0.9,0.1-1.2,0.3c-0.3,0.2-0.7,0.6-1.2,1.3l-1.8,2.4c0,0.1-0.1,0.1-0.1,0.2c0,0.1,0.1,0.1,0.1,0.2l5.7,4.1
			c0,0,0.1,0.1,0.2,0.1c0,0,0,0,0,0c0.1,0,0.1-0.1,0.2-0.1l0.8-1.1c0.1-0.1,0.1-0.3-0.1-0.4l-2.1-1.6l0,0c0.2-0.3,0.3-0.4,0.4-0.5
			c0.1-0.1,0.2-0.1,0.4-0.1c0.1,0,0.4,0,1.2,0l1.8,0.1c0.1,0,0.2,0,0.2-0.1l0.7-1c0,0,0,0,0.1,0l4-2.3l0.9-0.1
			c0.1,0,0.2-0.1,0.2-0.2l0.3-1.5l2.4-0.3l0.7,1.3c0.1,0.1,0.2,0.2,0.3,0.1l1.1-0.1c0,0,0.1,0.1,0.1,0.1l1.3,0c0.1,0,0.1,0,0.2-0.1
			s0.1-0.1,0.1-0.2l0.1-3.6l2.2,3.8c0,0.1,0.1,0.1,0.2,0.1l1.4,0c0,0,0,0,0,0c0.1,0,0.1,0,0.2-0.1c0.1-0.1,0.1-0.1,0.1-0.2l0.2-7
			c0-0.1,0-0.1-0.1-0.2C47.6,40.8,47.5,40.7,47.4,40.7z M25.3,51.9l-1-0.7l0.5-0.7c0.4-0.6,0.6-0.8,0.6-0.8c0.1-0.1,0.2-0.2,0.4-0.2
			c0.1,0,0.2,0,0.4,0.1c0.1,0.1,0.2,0.2,0.2,0.3c0,0.1,0,0.2,0,0.3c0,0.1-0.1,0.3-0.6,1L25.3,51.9z M38.6,45.2l-1.1,0.2l0.3-1.6
			L38.6,45.2z"/>
		<path class="st0" d="M54.2,41.7c-0.3-0.4-0.7-0.6-1.2-0.7c-0.3-0.1-0.8-0.2-1.4-0.2l-2.6,0c-0.1,0-0.1,0-0.2,0.1S48.7,41,48.7,41
			l-0.1,7c0,0.2,0.1,0.3,0.3,0.3l2.7,0c0,0,0.1,0,0.1,0c0.5,0,0.9,0,1.2-0.1c0.5-0.1,0.8-0.3,1.1-0.6c0.4-0.3,0.6-0.8,0.8-1.3
			c0.2-0.4,0.2-1,0.3-1.6c0-0.7-0.1-1.3-0.2-1.8C54.7,42.5,54.5,42.1,54.2,41.7z M50.7,42.5l0.4,0c0.7,0,1,0,1.1,0.1
			c0.2,0.1,0.4,0.1,0.5,0.3c0.1,0.1,0.2,0.3,0.3,0.6c0.1,0.3,0.1,0.7,0.1,1.2c0,0.5-0.1,0.9-0.2,1.2c-0.1,0.3-0.2,0.4-0.3,0.5
			c-0.1,0.1-0.3,0.2-0.5,0.2c-0.1,0-0.3,0.1-0.8,0l-0.8,0L50.7,42.5z"/>
		<path class="st0" d="M64.7,44.9l-1.4-0.3c-0.1,0-0.2,0-0.2,0S63,44.8,63,44.9c-0.1,0.5-0.2,0.8-0.4,1c-0.2,0.2-0.4,0.3-0.8,0.4
			c-0.4,0-0.8-0.1-1.1-0.4c-0.3-0.3-0.5-0.9-0.6-1.7c-0.1-0.8,0-1.3,0.2-1.7c0.2-0.3,0.6-0.5,1-0.6c0.3,0,0.6,0,0.8,0.2
			c0.2,0.1,0.4,0.4,0.5,0.7c0,0.1,0.1,0.1,0.1,0.2c0.1,0,0.1,0,0.2,0l1.4-0.5c0.1,0,0.1-0.1,0.2-0.2c0-0.1,0-0.2,0-0.2
			c-0.2-0.6-0.6-1-0.9-1.3c-0.6-0.5-1.4-0.7-2.4-0.6c-1.1,0.1-1.9,0.6-2.5,1.3c-0.6,0.8-0.8,1.8-0.7,3c0.1,1.2,0.6,2.1,1.3,2.7
			c0.6,0.5,1.3,0.8,2.2,0.8c0.1,0,0.3,0,0.4,0c0.8-0.1,1.5-0.4,2-0.8c0.5-0.5,0.8-1.1,1-2C65,45.1,64.9,44.9,64.7,44.9z"/>
		<path class="st0" d="M76.7,42.2c-0.4-0.2-0.9-0.3-1.6-0.4c-0.9-0.1-1.2-0.3-1.2-0.3c-0.1-0.1-0.1-0.1-0.1-0.2c0-0.1,0-0.2,0.1-0.2
			c0.2-0.1,0.4-0.2,0.8-0.3c0.3,0,0.6,0,0.7,0.1c0.2,0.1,0.3,0.3,0.3,0.6c0,0.1,0.2,0.2,0.3,0.2l1.4-0.2c0.2,0,0.3-0.2,0.2-0.3
			c-0.1-0.7-0.4-1.3-1-1.7c-0.5-0.4-1.3-0.5-2.2-0.5c-0.6,0-1.1,0.2-1.5,0.4c-0.4,0.2-0.7,0.5-0.9,0.9c-0.2,0.4-0.3,0.8-0.2,1.2
			c0.1,0.6,0.4,1.2,0.9,1.6c0.4,0.3,1,0.5,1.8,0.6c0.6,0.1,1,0.2,1.1,0.2c0.3,0.1,0.4,0.1,0.4,0.2c0.1,0.1,0.1,0.1,0.1,0.2
			c0,0.2-0.1,0.3-0.2,0.5c-0.2,0.2-0.4,0.3-0.8,0.3c-0.4,0-0.6,0-0.9-0.2c-0.2-0.2-0.4-0.4-0.5-0.8c0-0.1-0.2-0.2-0.3-0.2L72,44.1
			c-0.1,0-0.1,0.1-0.2,0.1c0,0.1-0.1,0.1,0,0.2c0,0.1,0.1,0.3,0.1,0.4l-2.6-5.1c-0.1-0.1-0.2-0.2-0.3-0.2l-1.5,0.1
			c-0.1,0-0.2,0.1-0.2,0.2l-2.2,7.2c0,0.1,0,0.2,0.1,0.3c0.1,0.1,0.1,0.1,0.2,0.1c0,0,0,0,0,0l1.5-0.1c0.1,0,0.2-0.1,0.2-0.2
			l0.4-1.5l2.4-0.2l0.7,1.4c0.1,0.1,0.2,0.2,0.3,0.2l1.5-0.1c0.1,0,0.2-0.1,0.2-0.1s0-0.2,0-0.3l-0.4-0.8c0.2,0.2,0.3,0.4,0.5,0.6
			c0.5,0.3,1.1,0.5,1.8,0.5c0.1,0,0.3,0,0.5,0c0.6-0.1,1.2-0.2,1.6-0.4c0.4-0.2,0.8-0.6,1-1c0.2-0.4,0.3-0.9,0.3-1.3
			c0-0.5-0.2-0.9-0.4-1.2C77.4,42.6,77.1,42.3,76.7,42.2z M69.2,43.9L68.1,44l0.4-1.5L69.2,43.9z"/>
		<path class="st0" d="M83.4,38.2l-5.6,0.6c-0.2,0-0.3,0.2-0.2,0.3l0.1,1.2c0,0.1,0,0.1,0.1,0.2s0.1,0.1,0.2,0.1l1.8-0.2l0.6,5.5
			c0,0.1,0.1,0.3,0.3,0.3c0,0,0,0,0,0l1.4-0.2c0.1,0,0.1,0,0.2-0.1c0-0.1,0.1-0.1,0.1-0.2l-0.6-5.5l1.8-0.2c0.2,0,0.3-0.2,0.2-0.3
			l-0.1-1.2C83.7,38.3,83.5,38.2,83.4,38.2z"/>
		<path class="st0" d="M90.4,43.1c-0.1,0-0.1-0.1-0.2,0L87,43.6L86,38.1c0-0.1-0.1-0.1-0.1-0.2c-0.1,0-0.1-0.1-0.2,0l-1.4,0.2
			c-0.1,0-0.1,0.1-0.2,0.1c0,0.1-0.1,0.1,0,0.2l1.2,6.9c0,0.1,0.1,0.1,0.1,0.2c0,0,0.1,0.1,0.2,0.1c0,0,0,0,0,0l4.9-0.8
			c0.2,0,0.3-0.2,0.2-0.3l-0.2-1.2C90.5,43.2,90.4,43.1,90.4,43.1z"/>
		<path class="st0" d="M101.9,36.5c-0.3-0.4-0.6-0.7-1-0.8c-0.4-0.1-0.8-0.2-1.2-0.1c-0.4,0.1-0.9,0.2-1.6,0.5
			c-0.8,0.4-1.1,0.4-1.2,0.4c-0.1,0-0.2-0.1-0.2-0.1c-0.1-0.1-0.1-0.1,0-0.2c0.1-0.2,0.2-0.4,0.5-0.6c0.3-0.2,0.5-0.3,0.7-0.3
			c0.2,0,0.4,0.1,0.6,0.3c0.1,0.1,0.3,0.1,0.4,0l1.1-0.9c0.1-0.1,0.1-0.3,0-0.4c-0.5-0.6-1-0.9-1.7-0.9c-0.7,0-1.4,0.2-2.1,0.8
			c-0.5,0.3-0.8,0.7-1,1.1c-0.1,0.2-0.2,0.3-0.2,0.5c-0.1-0.1-0.2-0.2-0.3-0.2l-5,1.5c-0.1,0-0.1,0.1-0.2,0.1s0,0.1,0,0.2l2.1,6.7
			c0,0.1,0.1,0.2,0.3,0.2c0,0,0.1,0,0.1,0l5.1-1.6c0.1,0,0.2-0.2,0.2-0.4l-0.3-1.1c0-0.1-0.1-0.1-0.1-0.2c-0.1,0-0.1,0-0.2,0
			l-3.5,1.1l-0.4-1.3l3.1-1c0.1,0,0.2-0.2,0.2-0.4l-0.3-1.1c0-0.1-0.1-0.1-0.1-0.2c-0.1,0-0.1,0-0.2,0l-3.1,1l-0.3-1l3.3-1
			c0.1,0.1,0.1,0.2,0.2,0.4c0.4,0.5,0.9,0.8,1.6,0.8c0.5,0,1.1-0.1,1.8-0.4c0.7-0.3,1-0.4,1.1-0.4c0.3-0.1,0.4-0.1,0.4-0.1
			c0.1,0,0.2,0.1,0.2,0.1c0.1,0.1,0.1,0.3,0.1,0.5c-0.1,0.2-0.2,0.5-0.5,0.7c-0.3,0.2-0.6,0.3-0.8,0.3c-0.3,0-0.5-0.2-0.8-0.4
			c-0.1-0.1-0.3-0.1-0.4,0l-1,0.9c-0.1,0.1-0.1,0.1-0.1,0.2s0,0.1,0.1,0.2c0.6,0.6,1.3,1,2,1c0,0,0.1,0,0.1,0c0.7,0,1.3-0.3,2-0.8
			c0.5-0.4,0.9-0.8,1.1-1.2c0.3-0.4,0.4-0.9,0.3-1.4C102.4,37.3,102.2,36.9,101.9,36.5z"/>
	</g>
	<g transform="matrix(0.405709,-0.913919,0.913919,0.405709,7652.01,2143.07)">
		<path vector-effect="none" class="st1" d="M-1211.8-7815.4v-7h1.4l2.9,4.7v-4.7h1.3v7h-1.4l-2.8-4.6v4.6H-1211.8"/>
	</g>
	<g transform="matrix(0.342288,-0.939514,0.939514,0.342288,7664.48,2114.92)">
		<path vector-effect="none" class="st1" d="M-698.1-7881.6v-7h5.2v1.2h-3.8v1.6h3.5v1.2h-3.5v1.9h3.9v1.2H-698.1"/>
	</g>
	<g transform="matrix(0.363817,-0.931389,0.931389,0.363817,7673.62,2089.8)">
		<path vector-effect="none" class="st1" d="M-897.8-7863l-2.5-7h1.5l1.8,5.2l1.7-5.2h1.5l-2.5,7H-897.8"/>
	</g>
	<g transform="matrix(0.432783,-0.901414,0.901414,0.432783,7683.1,2065.46)">
		<path vector-effect="none" class="st1" d="M-1507.8-7771.6v-7h5.2v1.2h-3.8v1.6h3.5v1.2h-3.5v1.9h3.9v1.2H-1507.8"/>
	</g>
	<g transform="matrix(0.588501,-0.808403,0.808403,0.588501,7693.7,2042.93)">
		<path vector-effect="none" class="st1" d="M-2905.4-7367.6v-7h3c0.8,0,1.3,0.1,1.6,0.2c0.3,0.1,0.6,0.4,0.8,0.7
			c0.2,0.3,0.3,0.7,0.3,1.1c0,0.5-0.2,1-0.5,1.3c-0.3,0.3-0.8,0.6-1.4,0.7c0.3,0.2,0.6,0.4,0.8,0.6c0.2,0.2,0.5,0.6,0.8,1.1l0.9,1.4
			h-1.7l-1-1.5c-0.4-0.5-0.6-0.9-0.7-1s-0.3-0.2-0.4-0.3c-0.2-0.1-0.4-0.1-0.7-0.1h-0.3v2.9H-2905.4 M-2904-7371.7h1.1
			c0.7,0,1.1,0,1.3-0.1c0.2-0.1,0.3-0.2,0.4-0.3c0.1-0.1,0.1-0.3,0.1-0.5c0-0.2-0.1-0.4-0.2-0.6c-0.1-0.1-0.3-0.2-0.5-0.3
			c-0.1,0-0.5,0-1,0h-1.1V-7371.7"/>
	</g>
	<g transform="matrix(0.869059,-0.494554,0.494554,0.869059,7707.7,2021.95)">
		<path vector-effect="none" class="st1" d="M-5697.3-5510v-7h1.4v5.8h3.5v1.2H-5697.3"/>
	</g>
	<g transform="matrix(0.990455,-0.137284,0.137284,0.990455,7725.26,2011)">
		<path vector-effect="none" class="st1" d="M-7341.5-2999.7h-1.5l-0.6-1.6h-2.8l-0.6,1.6h-1.5l2.7-7h1.5L-7341.5-2999.7
			 M-7344.2-3002.5l-1-2.6l-1,2.6H-7344.2"/>
	</g>
	<g transform="matrix(0.999649,0.0234637,-0.0234637,0.999649,7750.13,2007.4)">
		<path vector-effect="none" class="st1" d="M-7752.9-1778.2v-7h1.4l2.9,4.7v-4.7h1.3v7h-1.4l-2.8-4.6v4.6H-7752.9"/>
	</g>
	<g transform="matrix(0.999797,0.0159088,-0.0159088,0.999797,7780.21,2008.11)">
		<path vector-effect="none" class="st1" d="M-7762.1-1844h2.6c0.6,0,1,0,1.3,0.1c0.4,0.1,0.8,0.3,1.1,0.6c0.3,0.3,0.5,0.7,0.7,1.1
			c0.2,0.4,0.2,1,0.2,1.7c0,0.6-0.1,1.1-0.2,1.5c-0.2,0.5-0.4,0.9-0.8,1.2c-0.2,0.2-0.6,0.4-1,0.6c-0.3,0.1-0.7,0.1-1.3,0.1h-2.7
			V-1844 M-7760.7-1842.8v4.7h1.1c0.4,0,0.7,0,0.9-0.1c0.2-0.1,0.4-0.2,0.6-0.3c0.2-0.1,0.3-0.4,0.4-0.7c0.1-0.3,0.1-0.7,0.1-1.3
			s0-1-0.1-1.3s-0.2-0.5-0.4-0.7c-0.2-0.2-0.4-0.3-0.7-0.3c-0.2,0-0.6-0.1-1.2-0.1H-7760.7"/>
	</g>
	<g transform="matrix(0.998367,-0.0557883,0.0557883,0.998367,7811.04,2008.57)">
		<path vector-effect="none" class="st1" d="M-7634.6-2390.2"/>
	</g>
	<g transform="matrix(0.994246,-0.10641,0.10641,0.994246,7822.61,2007.91)">
		<path vector-effect="none" class="st1" d="M-7507-2777.8l1.4,0.4c-0.2,0.8-0.6,1.3-1.1,1.7c-0.5,0.4-1.1,0.6-1.9,0.6
			c-0.9,0-1.7-0.3-2.3-1c-0.6-0.6-0.9-1.5-0.9-2.6c0-1.2,0.3-2.1,0.9-2.7c0.6-0.6,1.4-1,2.4-1c0.9,0,1.6,0.3,2.1,0.8
			c0.3,0.3,0.6,0.7,0.7,1.3l-1.4,0.3c-0.1-0.4-0.3-0.7-0.5-0.9c-0.3-0.2-0.6-0.3-1-0.3c-0.5,0-0.9,0.2-1.3,0.6
			c-0.3,0.4-0.5,1-0.5,1.8c0,0.9,0.2,1.5,0.5,1.9s0.7,0.6,1.2,0.6c0.4,0,0.7-0.1,1-0.4C-7507.3-2776.9-7507.1-2777.3-7507-2777.8"/>
	</g>
	<g transform="matrix(0.996582,-0.0816835,0.0816835,0.996582,7852.15,2004.74)">
		<path vector-effect="none" class="st1" d="M-7594.3-2587.2h-1.5l-0.6-1.6h-2.8l-0.6,1.6h-1.5l2.7-7h1.5L-7594.3-2587.2
			 M-7596.9-2590l-1-2.6l-1,2.6H-7596.9"/>
	</g>
	<g transform="matrix(0.996176,-0.0865012,0.0865012,0.996176,7879.11,2002.53)">
		<path vector-effect="none" class="st1" d="M-7609-2626.3l1.4-0.1c0.1,0.5,0.3,0.8,0.5,1c0.3,0.2,0.6,0.3,1,0.3
			c0.5,0,0.8-0.1,1-0.3c0.2-0.2,0.3-0.4,0.3-0.7c0-0.2,0-0.3-0.1-0.4s-0.3-0.2-0.5-0.3c-0.2-0.1-0.5-0.2-1.1-0.3
			c-0.8-0.2-1.3-0.4-1.6-0.7c-0.4-0.4-0.6-0.9-0.6-1.4c0-0.4,0.1-0.7,0.3-1c0.2-0.3,0.5-0.6,0.9-0.7s0.8-0.2,1.4-0.2
			c0.9,0,1.5,0.2,2,0.6c0.4,0.4,0.7,0.9,0.7,1.6l-1.4,0.1c-0.1-0.4-0.2-0.6-0.4-0.8c-0.2-0.2-0.5-0.2-0.9-0.2c-0.4,0-0.7,0.1-1,0.3
			c-0.2,0.1-0.2,0.3-0.2,0.4c0,0.2,0.1,0.3,0.2,0.4c0.2,0.2,0.6,0.3,1.3,0.5c0.7,0.2,1.2,0.3,1.5,0.5s0.6,0.4,0.8,0.7
			s0.3,0.7,0.3,1.1c0,0.4-0.1,0.8-0.3,1.1c-0.2,0.4-0.5,0.6-1,0.8c-0.4,0.2-0.9,0.3-1.5,0.3c-0.9,0-1.6-0.2-2.1-0.6
			C-7608.6-2624.9-7608.9-2625.5-7609-2626.3"/>
	</g>
	<g transform="matrix(0.9936,-0.112279,0.112279,0.9936,7906.31,2000.16)">
		<path vector-effect="none" class="st1" d="M-7557.2-2820.8v-5.9h-2.1v-1.2h5.6v1.2h-2.1v5.9H-7557.2"/>
	</g>
	<g transform="matrix(0.985191,-0.171014,0.171014,0.985191,7932.83,1997.15)">
		<path vector-effect="none" class="st1" d="M-7398.4-3265.4v-7h1.4v5.8h3.5v1.2H-7398.4"/>
	</g>
	<g transform="matrix(0.955447,-0.294904,0.294904,0.955447,7958.9,1992.53)">
		<path vector-effect="none" class="st1" d="M-6943.1-4182.3v-7h5.2v1.2h-3.8v1.6h3.5v1.2h-3.5v1.9h3.9v1.2H-6943.1"/>
	</g>
	<g transform="matrix(0.797079,-0.603749,0.603749,0.797079,7988.3,1982.72)">
		<path vector-effect="none" class="st1" d="M-5117.8-6313.9l1.4-0.1c0.1,0.5,0.3,0.8,0.5,1c0.3,0.2,0.6,0.3,1,0.3
			c0.5,0,0.8-0.1,1-0.3s0.3-0.4,0.3-0.7c0-0.2,0-0.3-0.1-0.4s-0.3-0.2-0.5-0.3c-0.2-0.1-0.5-0.2-1.1-0.3c-0.8-0.2-1.3-0.4-1.6-0.7
			c-0.4-0.4-0.6-0.9-0.6-1.4c0-0.4,0.1-0.7,0.3-1c0.2-0.3,0.5-0.5,0.9-0.7s0.8-0.2,1.4-0.2c0.9,0,1.5,0.2,2,0.6s0.7,0.9,0.7,1.6
			l-1.4,0.1c-0.1-0.4-0.2-0.6-0.4-0.8s-0.5-0.2-0.9-0.2c-0.4,0-0.7,0.1-1,0.3c-0.2,0.1-0.2,0.3-0.2,0.4c0,0.2,0.1,0.3,0.2,0.4
			c0.2,0.2,0.6,0.3,1.3,0.5c0.7,0.2,1.2,0.3,1.5,0.5c0.3,0.2,0.6,0.4,0.8,0.7c0.2,0.3,0.3,0.7,0.3,1.1c0,0.4-0.1,0.8-0.3,1.1
			c-0.2,0.4-0.5,0.6-1,0.8s-0.9,0.3-1.5,0.3c-0.9,0-1.6-0.2-2.1-0.6C-5117.4-6312.5-5117.7-6313.1-5117.8-6313.9"/>
	</g>
</g>
</svg>
