<?xml version="1.0" encoding="utf-8"?>
<!-- Generator: Adobe Illustrator 28.2.0, SVG Export Plug-In . SVG Version: 6.00 Build 0)  -->
<svg version="1.1" id="Calque_1" xmlns="http://www.w3.org/2000/svg" xmlns:xlink="http://www.w3.org/1999/xlink" x="0px" y="0px"
	 viewBox="0 0 113.4 113.4" style="enable-background:new 0 0 113.4 113.4;" xml:space="preserve">
<style type="text/css">
	.st0{fill:#E763A0;}
</style>
<g>
	<path class="st0" d="M26.3,71.5c0-0.1-0.1-0.1-0.2-0.1s-0.2,0-0.2,0l-1.1,0.7c-0.1,0.1-0.2,0.3-0.1,0.4l1.9,3.2l-4.1-2.1
		c-0.1,0-0.2,0-0.3,0l-1.2,0.7c-0.1,0-0.1,0.1-0.1,0.2c0,0.1,0,0.2,0,0.2l3.7,6c0.1,0.1,0.1,0.1,0.2,0.1c0,0,0.1,0,0.1,0l1.3-0.7
		c0.1,0,0.1-0.1,0.1-0.2c0-0.1,0-0.2,0-0.2l-1.9-3.1l3.9,2c0.1,0,0.2,0,0.3,0l1.2-0.7c0.1,0,0.1-0.1,0.1-0.2c0-0.1,0-0.2,0-0.2
		L26.3,71.5z"/>
	<path class="st0" d="M32.7,68.4c-0.8-0.2-1.8,0-2.8,0.5c-0.6,0.4-1,0.7-1.3,1.1c-0.2,0.3-0.3,0.7-0.4,1.1C28,71.6,28,72,28,72.4
		c0.1,0.7,0.4,1.3,0.7,1.8c0.7,1,1.4,1.6,2.4,1.9c0.2,0.1,0.5,0.1,0.7,0.1c0.7,0,1.4-0.2,2.1-0.6c0.9-0.5,1.5-1.3,1.7-2.3
		c0.2-1,0-1.9-0.6-3C34.4,69.3,33.6,68.6,32.7,68.4z M33.8,73.1c-0.1,0.4-0.3,0.8-0.8,1c-0.5,0.3-0.9,0.3-1.2,0.2
		c-0.5-0.2-0.9-0.6-1.3-1.2c0,0,0,0,0,0c-0.4-0.6-0.6-1.1-0.5-1.6c0.1-0.5,0.3-0.8,0.8-1.1c0.3-0.2,0.6-0.3,0.8-0.3
		c0.1,0,0.3,0,0.4,0.1c0.5,0.2,0.9,0.6,1.3,1.2C33.7,72.1,33.9,72.7,33.8,73.1z"/>
	<path class="st0" d="M43.1,69.4l-1.4-0.7c-0.6-0.3-1-0.5-1.3-0.6c-0.1,0-0.3-0.1-0.4-0.1c0.3-0.3,0.4-0.6,0.5-1
		c0.1-0.6,0-1-0.3-1.6c-0.2-0.5-0.6-0.7-0.9-0.9c-0.5-0.2-0.8-0.3-1.3-0.2c-0.5,0.1-1,0.4-1.6,0.7l-2.6,1.6c-0.1,0-0.1,0.1-0.1,0.2
		c0,0.1,0,0.2,0,0.2l3.7,6c0,0.1,0.1,0.1,0.2,0.1c0,0,0,0,0.1,0c0.1,0,0.1,0,0.2,0l1.1-0.7c0.1-0.1,0.2-0.3,0.1-0.4l-1.3-2.2
		c0.2-0.2,0.4-0.2,0.5-0.2c0.1,0,0.1,0,0.2-0.1c0,0,0.1,0,0.2,0c0.1,0,0.2,0.1,0.3,0.1c0.2,0.1,0.5,0.2,0.9,0.4l1.7,0.8
		c0.1,0,0.2,0,0.3,0l1.5-0.9c0.1-0.1,0.1-0.2,0.1-0.3S43.2,69.5,43.1,69.4z M38.5,67c0,0.1-0.1,0.3-0.1,0.3
		c-0.1,0.1-0.4,0.3-0.9,0.7l-0.7,0.4l-0.7-1l0.9-0.6c0.2-0.1,0.4-0.3,0.5-0.3c0.1,0,0.2,0,0.2,0c0.1,0,0.2,0,0.2,0
		c0.2,0.1,0.3,0.2,0.4,0.3c0,0,0,0.1,0.1,0.1C38.5,66.8,38.5,66.8,38.5,67z"/>
	<path class="st0" d="M43.7,62.7l1.6-1c0.1-0.1,0.2-0.3,0.1-0.4l-0.6-1c0-0.1-0.1-0.1-0.2-0.1c-0.1,0-0.1,0-0.2,0l-4.8,2.9
		c-0.1,0.1-0.2,0.3-0.1,0.4l0.6,1c0,0.1,0.1,0.1,0.2,0.1c0.1,0,0.2,0,0.2,0l1.6-1l2.9,4.8c0.1,0.1,0.1,0.1,0.2,0.1c0,0,0.1,0,0.1,0
		l1.2-0.7c0.1,0,0.1-0.1,0.1-0.2c0-0.1,0-0.2,0-0.2L43.7,62.7z"/>
	<path class="st0" d="M50.4,56.9c-0.1-0.1-0.3-0.2-0.4-0.1l-1.2,0.7c-0.1,0-0.1,0.1-0.1,0.2c0,0.1,0,0.2,0,0.2l1.3,2.2l-1.9,1.1
		l-1.3-2.2c0-0.1-0.1-0.1-0.2-0.1c-0.1,0-0.1,0-0.2,0l-1.2,0.7c-0.1,0-0.1,0.1-0.1,0.2c0,0.1,0,0.2,0,0.2l3.7,6
		c0.1,0.1,0.1,0.1,0.2,0.1c0,0,0.1,0,0.1,0l1.2-0.7c0.1,0,0.1-0.1,0.1-0.2c0-0.1,0-0.2,0-0.2l-1.4-2.4l1.9-1.1l1.5,2.4
		c0.1,0.1,0.2,0.2,0.4,0.1l1.2-0.7c0.1,0,0.1-0.1,0.1-0.2c0-0.1,0-0.2,0-0.2L50.4,56.9z"/>
	<path class="st0" d="M60.7,50.6c-0.1-0.1-0.3-0.2-0.4-0.1l-1.2,0.7c-0.1,0-0.1,0.1-0.1,0.2s0,0.2,0,0.2l3,4.8l-4.9-3.6
		c-0.1-0.1-0.2-0.1-0.3,0l-1.3,0.8c-0.1,0.1-0.2,0.2-0.1,0.3l1.3,7.4c0,0.1,0.1,0.2,0.2,0.2c0,0,0.1,0,0.1,0c0.1,0,0.1,0,0.1,0
		l1.3-0.8c0.1-0.1,0.2-0.2,0.1-0.3l-0.3-1.5l2.1-1.3l1.2,0.9c0.1,0.1,0.2,0.1,0.3,0l1.3-0.8c0,0,0,0,0,0l1.2-0.7
		c0.1,0,0.1-0.1,0.1-0.2s0-0.2,0-0.2L60.7,50.6z M57.8,57l-0.3-1.6l1.3,1L57.8,57z"/>
	<path class="st0" d="M70.6,52.7L69.2,52c-0.6-0.3-1-0.5-1.3-0.6c-0.1,0-0.3-0.1-0.4-0.1c0.3-0.3,0.4-0.6,0.5-1c0.1-0.6,0-1-0.3-1.6
		c-0.2-0.5-0.6-0.7-0.9-0.9c-0.5-0.2-0.8-0.3-1.3-0.2c-0.5,0.1-1,0.4-1.6,0.7L61.2,50c-0.1,0-0.1,0.1-0.1,0.2c0,0.1,0,0.2,0,0.2
		l3.7,6c0,0.1,0.1,0.1,0.2,0.1c0,0,0,0,0.1,0c0.1,0,0.1,0,0.2,0l1.1-0.7c0.1-0.1,0.2-0.3,0.1-0.4l-1.3-2.2c0.2-0.2,0.4-0.2,0.5-0.2
		c0.1,0,0.1,0,0.2-0.1c0,0,0.1,0,0.2,0c0.1,0,0.2,0.1,0.3,0.1c0.2,0.1,0.5,0.2,0.9,0.4l1.7,0.8c0.1,0,0.2,0,0.3,0l1.5-0.9
		c0.1-0.1,0.1-0.2,0.1-0.3C70.8,52.9,70.7,52.8,70.6,52.7z M66,50.3c0,0.1-0.1,0.3-0.1,0.3c-0.1,0.1-0.4,0.3-0.9,0.7l-0.7,0.4
		l-0.7-1l0.9-0.6c0.2-0.1,0.4-0.3,0.5-0.3c0.1,0,0.2,0,0.2,0c0.1,0,0.2,0,0.2,0c0.2,0.1,0.3,0.2,0.4,0.3c0,0,0,0.1,0.1,0.1
		C66,50.1,66,50.1,66,50.3z"/>
	<path class="st0" d="M73.5,45.3c-0.3-0.5-0.7-0.8-1.2-1.1c-0.4-0.2-0.9-0.3-1.4-0.1c-0.3,0.1-0.7,0.3-1.2,0.6l-2.2,1.4
		c-0.1,0.1-0.2,0.3-0.1,0.4l3.7,6c0.1,0.1,0.1,0.1,0.2,0.1c0,0,0.1,0,0.1,0l1.2-0.7c0.1,0,0.1-0.1,0.1-0.2c0-0.1,0-0.2,0-0.2l-1.2-2
		l0.4-0.2c0,0,0,0,0.1,0c0.5-0.4,0.9-0.7,1.2-0.9c0.2-0.2,0.4-0.4,0.6-0.8c0.2-0.4,0.2-0.7,0.2-1.1C73.9,46.1,73.8,45.8,73.5,45.3z
		 M71.9,46.8c0,0.1,0,0.1-0.1,0.2c0,0-0.1,0.1-0.1,0.2c-0.1,0.2-0.5,0.4-0.8,0.6L70.5,48l-0.7-1.2l0.4-0.3c0.3-0.2,0.5-0.3,0.7-0.4
		c0.1,0,0.1-0.1,0.1-0.1c0.3-0.1,0.4-0.1,0.5,0c0,0,0.1,0,0.1,0c0,0,0.2,0.1,0.2,0.2C71.9,46.5,71.9,46.6,71.9,46.8z"/>
	<path class="st0" d="M78.4,40.6c-0.8-0.2-1.8,0-2.8,0.5c-0.6,0.4-1,0.7-1.3,1.1c-0.2,0.3-0.3,0.7-0.4,1.1c-0.1,0.4-0.1,0.9-0.1,1.3
		c0.1,0.7,0.4,1.3,0.7,1.8h0c0.7,1,1.4,1.6,2.4,1.9c0.2,0.1,0.5,0.1,0.7,0.1c0.7,0,1.4-0.2,2.1-0.6c0.9-0.5,1.5-1.3,1.7-2.3
		c0.2-1,0-1.9-0.6-3C80.1,41.5,79.3,40.8,78.4,40.6z M76.5,42.6c0.3-0.2,0.6-0.3,0.8-0.3c0.1,0,0.3,0,0.4,0.1
		c0.5,0.2,0.9,0.6,1.3,1.2c0.4,0.7,0.6,1.3,0.5,1.7c-0.1,0.4-0.3,0.8-0.8,1c-0.5,0.3-0.9,0.3-1.2,0.2c-0.5-0.2-0.9-0.6-1.3-1.2
		c0,0,0,0,0,0c-0.4-0.6-0.6-1.1-0.5-1.6C75.9,43.2,76.1,42.9,76.5,42.6z"/>
	<path class="st0" d="M88.9,41.6l-1.4-0.7c-0.6-0.3-1-0.5-1.3-0.6c-0.1,0-0.3-0.1-0.4-0.1c0.3-0.3,0.4-0.6,0.5-1
		c0.1-0.6,0-1-0.3-1.6c-0.2-0.5-0.6-0.7-0.9-0.9c-0.5-0.2-0.8-0.3-1.3-0.2c-0.5,0.1-1,0.4-1.6,0.7l-2.6,1.6c-0.1,0-0.1,0.1-0.1,0.2
		c0,0.1,0,0.2,0,0.2l3.7,6c0,0.1,0.1,0.1,0.2,0.1c0,0,0,0,0.1,0c0.1,0,0.1,0,0.2-0.1l1.1-0.8c0.1-0.1,0.2-0.2,0.1-0.4l-1.3-2.2
		c0.2-0.2,0.4-0.2,0.5-0.2c0.1,0,0.3,0,0.3,0c0,0,0,0,0.1,0.1c0.1,0,0.2,0.1,0.3,0.1c0.2,0.1,0.5,0.2,0.9,0.4l1.7,0.8
		c0.1,0,0.2,0,0.3,0l1.5-0.9c0.1-0.1,0.1-0.2,0.1-0.3S89,41.7,88.9,41.6z M84.3,39.2c0,0.1-0.1,0.3-0.1,0.3
		c-0.1,0.1-0.4,0.3-0.9,0.7l-0.7,0.4l-0.7-1.1l0.8-0.5l0.3-0.2c0.2-0.1,0.4-0.3,0.5-0.3c0.1,0,0.2,0,0.2,0c0.1,0,0.2,0,0.2,0
		c0.1,0.1,0.2,0.1,0.3,0.3c0,0,0,0.1,0.1,0.1C84.3,39,84.3,39,84.3,39.2z"/>
	<path class="st0" d="M92.2,39.6l-2.9-4.8l1.6-1c0.1-0.1,0.2-0.3,0.1-0.4l-0.6-1c0-0.1-0.1-0.1-0.2-0.1c-0.1,0-0.1,0-0.2,0l-4.8,2.9
		c-0.1,0.1-0.2,0.3-0.1,0.4l0.6,1c0.1,0.1,0.3,0.2,0.4,0.1l1.7-1l2.9,4.8c0,0.1,0.1,0.1,0.2,0.1c0,0,0,0,0.1,0c0.1,0,0.1,0,0.2,0
		l1.1-0.7C92.3,39.9,92.3,39.8,92.2,39.6z"/>
</g>
</svg>
