<?xml version="1.0" encoding="utf-8"?>
<!-- Generator: Adobe Illustrator 28.2.0, SVG Export Plug-In . SVG Version: 6.00 Build 0)  -->
<svg version="1.1" id="Calque_1" xmlns="http://www.w3.org/2000/svg" xmlns:xlink="http://www.w3.org/1999/xlink" x="0px" y="0px"
	 viewBox="0 0 113.4 113.4" style="enable-background:new 0 0 113.4 113.4;" xml:space="preserve">
<style type="text/css">
	.st0{fill:#E763A0;}
</style>
<g>
	<path class="st0" d="M10.8,56.2c0-0.7-0.1-1.1-0.5-1.6C10,54.2,9.7,54,9.2,53.9c-0.3-0.1-0.9-0.1-1.8-0.1H5.1
		c-0.2,0-0.3,0.1-0.3,0.3v7c0,0.2,0.1,0.3,0.3,0.3h1.4c0.2,0,0.3-0.1,0.3-0.3v-2.4h0.6c0.7,0,1.2,0,1.5-0.1c0.3,0,0.5-0.1,0.6-0.2
		c0,0,0.1-0.1,0.2-0.1c0.3-0.2,0.5-0.4,0.7-0.6c0,0,0.1-0.1,0.1-0.1C10.8,57,10.8,56.6,10.8,56.2z M8.6,55.8
		c0.1,0.1,0.1,0.2,0.1,0.4c0,0.1,0,0.1-0.1,0.2c0,0,0,0.1-0.1,0.1c-0.1,0.1-0.2,0.1-0.3,0.2c-0.1,0.1-0.5,0.1-1,0.1H6.8v-1.3h1.4
		C8.3,55.5,8.4,55.5,8.6,55.8z"/>
	<path class="st0" d="M27.8,53.9c0-0.1-0.1-0.2-0.3-0.2H26c-0.1,0-0.2,0.1-0.3,0.2l-2.5,6.4v-0.5c0-0.2-0.1-0.3-0.3-0.3h-3.2V54
		c0-0.2-0.1-0.3-0.3-0.3h-1.4c-0.2,0-0.3,0.1-0.3,0.3v6.1l-2.6-6.2c0-0.1-0.1-0.2-0.3-0.2h-1.5c-0.1,0-0.2,0.1-0.3,0.2l-2.7,7
		c0,0.1,0,0.2,0,0.3c0.1,0.1,0.1,0.1,0.2,0.1h1.5c0.1,0,0.2-0.1,0.3-0.2l0.5-1.4h2.5l0.5,1.4c0,0.1,0.1,0.2,0.3,0.2h1.5
		c0,0,0.1,0,0.1,0c0,0,0,0,0.1,0H23c0.1,0,0.1,0,0.1-0.1c0,0,0.1,0.1,0.2,0.1h1.5c0.1,0,0.2-0.1,0.3-0.2l0.5-1.4H28l0.5,1.4
		c0,0.1,0.1,0.2,0.3,0.2h1.6c0.1,0,0.2,0,0.2-0.1c0.1-0.1,0.1-0.2,0-0.3L27.8,53.9z M14.9,58h-1.1l0.5-1.5L14.9,58z M26.3,58
		l0.6-1.5l0.6,1.5H26.3z"/>
	<path class="st0" d="M33.8,53.8C33.8,53.8,33.8,53.8,33.8,53.8c-1-0.1-1.8,0.2-2.6,0.9c-0.7,0.7-1.1,1.7-1.1,2.9
		c0,1.3,0.3,2.2,0.9,2.9c0.7,0.8,1.6,1.2,2.5,1.2c0.7,0,1.5-0.1,2.1-0.6c0.6-0.5,1-1.1,1.2-1.9c0-0.1,0-0.3-0.2-0.3l-1.4-0.5
		c-0.1,0-0.2,0-0.2,0s-0.1,0.1-0.1,0.2c-0.1,0.5-0.3,0.8-0.6,0.9c-0.3,0.2-0.5,0.3-0.8,0.3c-0.4,0-0.7-0.2-1-0.5
		C32.1,59,32,58.4,32,57.6c0.1-0.7,0.3-1.3,0.5-1.7c0.2-0.3,0.5-0.4,1.1-0.4c0.4,0,0.6,0.1,0.8,0.4c0.2,0.1,0.3,0.3,0.4,0.7
		c0,0.1,0.2,0.2,0.3,0.2l1.4-0.3c0.1,0,0.2-0.1,0.2-0.1c0-0.1,0-0.2,0-0.2c-0.2-0.5-0.4-1.1-0.8-1.4C35.4,54.1,34.7,53.8,33.8,53.8z
		"/>
	<path class="st0" d="M43.3,54.5l-5.2-0.4c-0.1,0-0.1,0-0.2,0.1c-0.1,0-0.1,0.1-0.1,0.2l-0.5,7c0,0.2,0.1,0.3,0.3,0.3l5.3,0.4
		c0,0,0,0,0,0c0.1,0,0.3-0.1,0.3-0.3l0.1-1.2c0-0.1,0-0.1-0.1-0.2S43,60.3,43,60.3L39.4,60l0.1-1.3l3.2,0.3c0.1,0,0.1,0,0.2-0.1
		c0.1,0,0.1-0.1,0.1-0.2l0.1-1.2c0-0.1,0-0.2-0.1-0.2s-0.1-0.1-0.2-0.1L39.5,57l0.1-1l3.5,0.3c0.1,0,0.3-0.1,0.3-0.3l0.1-1.2
		c0-0.1,0-0.1-0.1-0.2C43.4,54.5,43.3,54.5,43.3,54.5z"/>
	<path class="st0" d="M50.2,54.8c-0.5,0-1.1,0-1.6,0.2c-0.4,0.1-0.8,0.3-1.1,0.6c-0.3,0.2-0.5,0.5-0.7,0.8c0,0.1-0.1,0.1-0.2,0.2
		c-0.2,0.5-0.4,1.1-0.4,1.9c-0.1,1.2,0.2,2.2,0.8,2.8c0.5,0.7,1.5,1.1,2.6,1.2c0.1,0,0.3,0,0.4,0c0.9,0,1.6-0.3,2.3-0.9
		c0.7-0.7,1.1-1.6,1.2-2.8c0.1-1.3-0.2-2.3-0.8-2.9C52.2,55.3,51.3,54.9,50.2,54.8z M51.7,58.8c-0.1,0.8-0.3,1.3-0.6,1.6
		c-0.3,0.3-0.6,0.4-1.2,0.4c-0.5,0-0.9-0.2-1.2-0.6c-0.2-0.3-0.4-0.8-0.3-1.6c0.1-0.7,0.3-1.3,0.5-1.6c0.3-0.3,0.7-0.4,1.3-0.4
		c0.5,0,0.9,0.2,1.2,0.6C51.5,57.5,51.8,58,51.7,58.8z"/>
	<path class="st0" d="M59.6,55.6l-4.8-0.2c-0.2,0-0.3,0.1-0.3,0.3l-0.4,7c0,0.1,0,0.2,0.1,0.2s0.1,0.1,0.2,0.1h1.4
		c0.1,0,0.3-0.1,0.3-0.3l0.2-2.7l2.6,0.2c0.1,0,0.2,0,0.2-0.1c0.1-0.1,0.1-0.1,0.1-0.2v-1.1c0-0.1-0.1-0.3-0.3-0.3l-2.6-0.2l0.1-1.1
		l3.1,0.2c0,0,0,0,0,0c0.1,0,0.3-0.1,0.3-0.3l0.1-1.2c0-0.1,0-0.2-0.1-0.2C59.7,55.6,59.6,55.6,59.6,55.6z"/>
	<path class="st0" d="M67.6,58.5c-0.3-0.2-0.9-0.4-1.7-0.5c-0.6-0.1-1-0.3-1.2-0.4c-0.1-0.1-0.1-0.1-0.1-0.2c0,0,0.1-0.2,0.1-0.2
		c0.3-0.2,0.5-0.3,0.8-0.3c0.4,0,0.6,0,0.7,0.1c0.1,0.1,0.2,0.3,0.3,0.7c0,0.1,0.2,0.2,0.3,0.2l1.5-0.1c0.1,0,0.2,0,0.2-0.1
		c0-0.1,0.1-0.1,0.1-0.2c-0.1-0.5-0.3-1.2-0.9-1.7c-0.5-0.5-1.4-0.6-2.2-0.6c-0.6,0-1.1,0.1-1.5,0.3c-0.5,0.1-0.9,0.5-1.1,0.8
		c-0.2,0.4-0.3,0.7-0.3,1.2c0,0.7,0.4,1.2,0.8,1.6c0.4,0.2,0.9,0.4,1.7,0.6c0.3,0.1,0.6,0.2,0.8,0.2c0.1,0,0.2,0,0.3,0.1
		c0.2,0.1,0.4,0.2,0.4,0.2c0.1,0.1,0.1,0.1,0.1,0.2c0,0.2-0.1,0.3-0.2,0.5c-0.1,0.1-0.3,0.2-0.8,0.2c-0.3,0-0.6-0.1-0.8-0.2
		c-0.2-0.2-0.3-0.5-0.4-0.9c0-0.1-0.2-0.2-0.3-0.2l-1.4,0.2c-0.2,0-0.3,0.2-0.2,0.3c0.1,0.8,0.5,1.5,1,1.8c0.5,0.4,1.3,0.7,2.3,0.7
		c0.6,0,1.2-0.1,1.6-0.3c0.5-0.2,0.8-0.5,1-0.9c0.2-0.3,0.3-0.8,0.3-1.3s-0.1-0.9-0.3-1.3C68.2,58.9,67.9,58.7,67.6,58.5z"/>
	<path class="st0" d="M74.9,61l-3.6,0.1l-0.1-1.3l3.2-0.1c0.2,0,0.3-0.1,0.3-0.3v-1.2c0-0.1,0-0.1-0.1-0.2c-0.1-0.1-0.1-0.1-0.2-0.1
		L71.2,58v-1l3.5-0.1c0.2,0,0.3-0.1,0.3-0.3v-1.2c0-0.1,0-0.2-0.1-0.2c-0.1-0.1-0.1-0.1-0.2-0.1l-5.2,0.2c-0.2,0-0.3,0.1-0.3,0.3
		l0.2,7c0,0.2,0.1,0.3,0.3,0.3c0,0,0,0,0,0l5.2-0.1c0.2,0,0.3-0.1,0.3-0.3v-1.2c0-0.1,0-0.1-0.1-0.2S75,61,74.9,61z"/>
	<path class="st0" d="M82,59.3L80.6,59c-0.1,0-0.2,0-0.2,0.1c-0.1,0.1-0.1,0.1-0.1,0.2c0,0.4-0.1,0.7-0.5,1
		c-0.2,0.2-0.4,0.4-0.7,0.4c-0.3,0.1-0.6,0-1.1-0.3c-0.3-0.2-0.5-0.7-0.6-1.6c-0.1-0.8,0-1.4,0.2-1.7c0.2-0.3,0.6-0.5,1-0.6
		c0.4,0,0.6,0,0.8,0.2c0.3,0.2,0.4,0.3,0.5,0.6c0,0.1,0.1,0.1,0.1,0.2c0.1,0,0.2,0,0.2,0l1.4-0.5c0.1,0,0.1-0.1,0.2-0.2
		c0-0.1,0-0.2,0-0.2l-0.1-0.2c-0.2-0.4-0.5-0.8-0.9-1.1c-0.7-0.5-1.5-0.6-2.4-0.5c-1.1,0.1-2,0.6-2.5,1.3c-0.5,0.8-0.8,1.7-0.7,3
		c0.1,1.2,0.5,2,1.3,2.7c0.6,0.5,1.3,0.8,2.1,0.8c0.2,0,0.3,0,0.5,0c0.8-0.1,1.5-0.4,1.9-0.9c0.6-0.4,0.9-1.1,1-2
		C82.2,59.4,82.1,59.3,82,59.3z"/>
	<path class="st0" d="M89.1,58.9c-0.3-0.4-0.6-0.6-0.8-0.8c-0.1-0.1-0.1-0.1-0.2-0.2c0,0-0.1-0.1-0.1-0.1c-0.1,0-0.2-0.1-0.3-0.1
		c0.3-0.2,0.6-0.4,0.8-0.8c0.2-0.5,0.3-1.1,0.2-1.6c-0.1-0.4-0.2-0.8-0.5-1.1c-0.3-0.4-0.6-0.5-1-0.6c-0.3-0.1-0.9,0-1.6,0.1
		l-3.1,0.6c-0.2,0-0.2,0.2-0.2,0.3l1.3,6.9c0,0.1,0.1,0.1,0.1,0.2c0,0,0.1,0,0.2,0c0,0,0,0,0.1,0l1.5-0.3c0.1,0,0.1-0.1,0.2-0.1
		c0-0.1,0.1-0.1,0-0.2L85,58.5c0,0,0,0,0,0c0.3-0.1,0.4-0.1,0.6-0.1c0.1,0,0.1,0,0.2,0.1c0,0,0.1,0,0.1,0.1l0.9,0.9l1.2,1.3
		c0.1,0.1,0.2,0.1,0.3,0.1l1.7-0.3c0.1,0,0.2-0.1,0.2-0.2c0-0.1,0-0.2-0.1-0.3L89.1,58.9z M86.8,56.1c-0.1,0.1-0.1,0.2-0.3,0.3
		c0,0,0,0-0.1,0c0,0-0.2,0.1-1.1,0.2l-0.7,0.1l-0.3-1.1l0.8-0.1c0.2,0,0.4-0.1,0.5-0.1c0.2,0,0.4-0.1,0.4-0.1c0.2,0,0.2,0,0.3,0.1
		l0.1,0.1c0.1,0.1,0.1,0.2,0.1,0.2c0,0,0,0.1,0,0.1C86.8,56,86.8,56,86.8,56.1z"/>
	<path class="st0" d="M95.8,57.8l-3.5,0.6L92.1,57l3.2-0.6c0.2,0,0.3-0.2,0.2-0.3l-0.2-1.2c0-0.1-0.1-0.1-0.1-0.2s-0.1-0.1-0.2,0
		l-3.2,0.6l-0.2-0.9l3.4-0.6c0.1,0,0.1-0.1,0.2-0.1c0-0.1,0.1-0.1,0-0.2L95,52.2c0-0.1-0.1-0.1-0.1-0.2c-0.1,0-0.1-0.1-0.2,0
		l-5.2,0.9c-0.1,0-0.1,0.1-0.2,0.1c0,0.1-0.1,0.1,0,0.2l1.2,6.9c0,0.1,0.1,0.2,0.3,0.2c0,0,0,0,0,0l5.3-0.8c0.1,0,0.1-0.1,0.2-0.1
		c0-0.1,0.1-0.1,0-0.2L96.1,58C96.1,57.8,96,57.7,95.8,57.8z"/>
	<path class="st0" d="M101,51l-5.5,0.8c-0.1,0-0.1,0.1-0.2,0.1s-0.1,0.1-0.1,0.2l0.2,1.2c0,0.2,0.2,0.3,0.3,0.2l1.8-0.3l0.9,5.5
		c0,0.1,0.1,0.2,0.3,0.2c0,0,0,0,0,0l1.3-0.2c0.1,0,0.1-0.1,0.2-0.1c0-0.1,0.1-0.1,0.1-0.2L99.5,53l1.8-0.3c0.1,0,0.1-0.1,0.2-0.1
		s0.1-0.1,0.1-0.2l-0.2-1.2C101.3,51,101.1,50.9,101,51z"/>
	<path class="st0" d="M108.5,55.6c-0.1-0.6-0.3-0.9-0.6-1.2c-0.3-0.3-0.6-0.6-1-0.6c-0.3-0.2-0.7-0.2-1.2-0.3c-0.2,0-0.3,0-0.5-0.1
		c-0.9-0.1-1.2-0.2-1.3-0.3c-0.1-0.1-0.1-0.1-0.1-0.1c0-0.1,0.1-0.3,0.1-0.3c0.1-0.1,0.4-0.2,0.8-0.3c0.3-0.1,0.6,0,0.7,0.1
		c0.1,0.1,0.3,0.3,0.4,0.5c0,0.1,0.2,0.2,0.3,0.2l1.4-0.3c0.1,0,0.2-0.2,0.2-0.3c-0.1-0.7-0.5-1.3-1-1.6c-0.6-0.3-1.3-0.4-2.3-0.3
		c-0.5,0.1-1,0.3-1.4,0.5c-0.5,0.2-0.7,0.6-0.9,0.9c0,0,0,0,0,0.1c-0.1,0.3-0.2,0.7-0.1,1.1c0.1,0.7,0.4,1.1,1.1,1.5
		c0.5,0.2,1,0.3,1.8,0.4c0.4,0,0.7,0,0.9,0.1c0.1,0,0.3,0,0.3,0c0.2,0,0.3,0.1,0.4,0.1c0.1,0.1,0.1,0.1,0.1,0.2c0,0,0,0.1,0,0.1
		c0,0.1,0,0.2-0.1,0.4c-0.1,0.1-0.4,0.2-0.8,0.3c-0.5,0-0.7,0-0.9-0.2c0,0,0,0-0.1,0c-0.2-0.1-0.4-0.4-0.5-0.8
		c-0.1-0.1-0.2-0.2-0.3-0.1l-1.3,0.3c-0.1,0-0.1,0.1-0.2,0.1c0,0.1,0,0.2,0,0.2c0.3,0.8,0.6,1.4,1.1,2.2c0,0,0.1,0.1,0.1,0.1
		c0.4,0.3,1,0.4,1.6,0.4c0.2,0,0.4,0,0.7,0c0.5-0.1,1-0.3,1.6-0.5c0.5-0.2,0.7-0.6,0.9-1C108.6,56.5,108.6,56,108.5,55.6z"/>
</g>
</svg>
