<?xml version="1.0" encoding="utf-8"?>
<!-- Generator: Adobe Illustrator 28.2.0, SVG Export Plug-In . SVG Version: 6.00 Build 0)  -->
<svg version="1.1" id="Calque_1" xmlns="http://www.w3.org/2000/svg" xmlns:xlink="http://www.w3.org/1999/xlink" x="0px" y="0px"
	 viewBox="0 0 113.4 113.4" style="enable-background:new 0 0 113.4 113.4;" xml:space="preserve">
<style type="text/css">
	.st0{fill:#E763A0;}
</style>
<g>
	<path class="st0" d="M24.8,55.4c-0.4-0.4-0.8-0.5-1.3-0.6c-0.3,0-1,0.1-1.8,0.3l-2.2,0.5c-0.2,0-0.2,0.2-0.2,0.3l1.5,6.9
		c0,0.1,0.1,0.2,0.3,0.2c0,0,0,0,0.1,0l1.4-0.3c0.1,0,0.1-0.1,0.2-0.1c0-0.1,0.1-0.1,0-0.2l-0.5-2.3l0.6-0.1
		c0.3-0.1,0.7-0.2,0.9-0.3c0.2,0,0.4-0.1,0.5-0.1c0.4-0.1,0.6-0.4,0.8-0.6c0.2-0.2,0.4-0.6,0.5-0.9c0.1-0.3,0.1-0.8,0-1.2
		C25.5,56.2,25.2,55.7,24.8,55.4z M21.8,58.4L21.5,57l0.4-0.1c0.2,0,0.4-0.1,0.5-0.1c0.2,0,0.4-0.1,0.4-0.1c0.1,0,0.4,0.1,0.4,0.1
		c0.2,0.2,0.3,0.3,0.3,0.5c0.1,0.1,0.1,0.2,0,0.3c0,0-0.1,0.1-0.1,0.1c-0.1,0.1-0.1,0.2-0.2,0.2c-0.2,0.1-0.5,0.2-1,0.4L21.8,58.4z"
		/>
	<path class="st0" d="M32.5,58.6c-0.2-0.2-0.5-0.4-0.7-0.6c-0.1-0.1-0.2-0.2-0.4-0.3c-0.1-0.1-0.2-0.1-0.3-0.2
		c0.3-0.2,0.6-0.4,0.7-0.7c0.3-0.4,0.4-0.9,0.2-1.6c-0.1-0.4-0.3-0.8-0.5-1.1c-0.3-0.4-0.6-0.5-1.1-0.6c-0.3,0-0.9,0-1.7,0.2
		l-2.9,0.6c-0.1,0-0.1,0.1-0.2,0.1c0,0.1-0.1,0.1,0,0.2l1.5,6.9c0,0.1,0.1,0.2,0.3,0.2c0,0,0,0,0.1,0l1.4-0.3c0.2,0,0.2-0.2,0.2-0.3
		l-0.5-2.6c0,0,0,0,0,0c0.2-0.1,0.5-0.1,0.6-0.1c0,0,0,0,0,0c0.1,0.1,0.2,0.2,0.3,0.3c0.2,0.1,0.4,0.3,0.7,0.6l1.3,1.3
		c0.1,0.1,0.2,0.1,0.3,0.1l1.7-0.4c0.1,0,0.2-0.1,0.2-0.2c0-0.1,0-0.2-0.1-0.3L32.5,58.6z M28.1,56.8l-0.2-1.2l0.6-0.2
		c0.2,0,0.4-0.1,0.5-0.1c0.2,0,0.4-0.1,0.4-0.1c0.2,0,0.2,0,0.3,0.1l0.1,0c0.1,0.1,0.2,0.3,0.2,0.4c0.1,0.1,0.1,0.1,0,0.2
		c0,0,0,0.1,0,0.1c0,0.1,0,0.1-0.1,0.1c0,0-0.1,0-0.1,0.1c0,0-0.4,0.2-1.1,0.3L28.1,56.8z"/>
	<path class="st0" d="M34.2,52.4l-1.4,0.3c-0.1,0-0.1,0.1-0.2,0.1c0,0.1-0.1,0.1,0,0.2l1.5,6.9c0,0.1,0.1,0.2,0.3,0.2c0,0,0,0,0.1,0
		l1.4-0.3c0.1,0,0.1-0.1,0.2-0.1c0-0.1,0.1-0.1,0-0.2l-1.5-6.9C34.5,52.5,34.4,52.4,34.2,52.4z"/>
	<path class="st0" d="M41.3,55.1c-0.2-0.2-0.5-0.4-1-0.6c-0.4-0.1-0.9-0.2-1.7-0.2c-0.7,0-1.2-0.1-1.3-0.2c-0.1-0.1-0.1-0.1-0.1-0.1
		c0,0,0-0.1,0-0.1c0-0.1,0-0.2,0.1-0.2c0.1-0.2,0.3-0.3,0.7-0.4c0.4-0.1,0.6-0.1,0.7,0c0.1,0,0.3,0.1,0.4,0.7c0,0.1,0.1,0.1,0.1,0.2
		c0.1,0,0.2,0.1,0.2,0l1.4-0.4c0.1,0,0.2-0.2,0.2-0.3c-0.1-0.9-0.7-1.3-1.2-1.6c-0.5-0.2-1.2-0.3-2.3-0.1c-0.5,0.1-1.1,0.3-1.4,0.6
		c-0.3,0.3-0.6,0.6-0.8,1c-0.1,0.3-0.2,0.7-0.1,1.1c0.1,0.6,0.5,1,1,1.4c0.3,0.2,1,0.4,1.8,0.3c0.6,0.1,1,0.1,1.2,0.1
		c0.2,0,0.3,0.1,0.4,0.1c0.1,0.1,0.1,0.1,0.1,0.2c0,0,0,0.1,0,0.1c0,0.1,0,0.2-0.1,0.4c0,0,0,0-0.1,0.1c0,0.1-0.3,0.2-0.7,0.4
		c-0.3,0.1-0.6,0.1-0.9-0.1c-0.2-0.1-0.4-0.4-0.6-0.8c-0.1-0.1-0.2-0.2-0.3-0.1l-1.3,0.4c-0.1,0-0.2,0.2-0.2,0.3
		c0.2,0.8,0.7,1.4,1.3,1.9c0.4,0.2,0.8,0.3,1.4,0.3c0.3,0,0.6,0,1-0.1l0.3-0.1c0.5-0.2,0.8-0.3,1.2-0.6c0.4-0.3,0.8-0.6,0.9-1.1
		c0.2-0.4,0.3-0.9,0.1-1.4C41.8,55.8,41.5,55.5,41.3,55.1z"/>
	<path class="st0" d="M48.1,51.4c-0.8-0.7-1.8-1-2.8-0.9c-0.6,0-1.2,0.2-1.5,0.4c-0.4,0.2-0.7,0.4-1,0.8c-0.4,0.4-0.6,0.7-0.7,1.1
		c-0.2,0.6-0.2,1.2-0.2,1.9c0,0,0,0,0,0c0.1,1.1,0.5,2,1.2,2.7c0.7,0.6,1.5,0.9,2.4,0.9c0.1,0,0.3,0,0.4,0c1.1,0,1.9-0.4,2.6-1.2
		c0.6-0.8,0.9-1.8,0.8-2.9C49.2,52.9,48.8,52,48.1,51.4z M46.8,55.9c-0.3,0.4-0.6,0.6-1.1,0.6c-0.4,0.1-0.8-0.1-1.1-0.4
		c-0.3-0.3-0.5-0.9-0.5-1.6c0,0,0,0,0,0c-0.1-0.7,0-1.2,0.2-1.7c0.4-0.4,0.7-0.6,1.2-0.6c0.5,0,0.9,0.1,1.2,0.4
		c0.3,0.3,0.5,0.8,0.6,1.6C47.2,55,47,55.6,46.8,55.9z"/>
	<path class="st0" d="M55.8,50.3h-1.3c-0.2,0-0.3,0.1-0.3,0.3v3.7l-2.4-3.9c-0.1-0.1-0.1-0.1-0.2-0.1h-1.4c-0.2,0-0.3,0.1-0.3,0.3v7
		c0,0.2,0.1,0.3,0.3,0.3h1.4c0.2,0,0.3-0.1,0.3-0.3V54l2.3,3.7c0.1,0.1,0.1,0.1,0.2,0.1h1.4c0.2,0,0.3-0.1,0.3-0.3v-7
		C56.1,50.4,55.9,50.3,55.8,50.3z"/>
	<path class="st0" d="M65.2,54.1c0.2-0.1,0.3-0.3,0.4-0.4c0.2-0.3,0.3-0.7,0.3-1.1c0-0.3-0.1-0.5-0.2-0.7l-0.1-0.2
		c-0.1-0.2-0.3-0.5-0.6-0.7c0,0,0,0-0.1-0.1c-0.2-0.1-0.4-0.2-0.7-0.3c-0.1,0-0.2,0-0.4,0c-0.2,0-0.5-0.1-0.9-0.1c0,0,0,0,0,0
		l-2.8-0.2c-0.1,0-0.2,0-0.2,0.1S60,50.5,60,50.6l-0.4,7.1c0,0.1,0,0.2,0.1,0.2s0.1,0.1,0.2,0.1l2.4,0.1H64c0.4,0,0.8-0.1,1.2-0.4
		c0.2-0.2,0.4-0.4,0.6-0.7c0.2-0.3,0.3-0.7,0.3-1.1c0-0.5-0.1-0.9-0.4-1.3C65.6,54.4,65.4,54.2,65.2,54.1z M63.9,53
		c-0.2,0.1-0.3,0.2-0.5,0.2h-1.6l0.1-1h0.5c0.5,0,0.8,0.1,1,0.1c0,0,0.1,0,0.1,0c0.1,0.1,0.3,0.2,0.4,0.2c0,0,0,0,0.1,0.1
		c0,0,0,0.1,0,0.2C64,52.8,64,53,63.9,53z M61.8,55l0.8,0.1c0.3,0,0.5,0.1,0.6,0.1c0.3,0,0.5,0.1,0.6,0.1c0,0,0.1,0,0.1,0
		c0.1,0,0.1,0,0.1,0.1c0,0,0,0,0,0.1c0,0,0,0.2,0,0.3c0,0.2-0.1,0.3-0.1,0.4c0,0,0,0-0.1,0.1c-0.1,0.1-0.2,0.1-0.2,0.1l-1,0l-1-0.1
		L61.8,55z"/>
	<path class="st0" d="M72.8,57.2c-0.2-0.7-0.6-1.2-0.7-1.3c-0.1-0.1-0.2-0.3-0.3-0.4c0.5-0.1,0.8-0.2,1-0.4c0.3-0.5,0.5-0.9,0.7-1.5
		c0-0.4,0-0.9-0.2-1.2c-0.1-0.5-0.5-0.7-0.8-0.9c-0.4-0.2-1-0.3-1.7-0.4l-3-0.3c-0.2,0-0.3,0.1-0.3,0.3l-0.7,7c0,0.1,0,0.2,0.1,0.2
		c0,0.1,0.1,0.1,0.2,0.1l1.5,0.1c0.2,0,0.3-0.1,0.3-0.3l0.3-2.6h0c0.3,0,0.3,0.1,0.3,0.1c0,0.1,0.1,0.2,0.2,0.2c0,0,0.1,0.1,0.2,0.1
		c0,0,0,0.1,0.1,0.1c0.1,0.1,0.3,0.6,0.6,1l0.9,1.6c0,0.1,0.1,0.1,0.2,0.1l1.7,0.2c0,0,0,0,0,0c0.1,0,0.2,0,0.2-0.1
		c0.1-0.1,0.1-0.2,0-0.3L72.8,57.2z M69.2,52.7l0.8,0.1c0.3,0,0.6,0,0.8,0.1c0.1,0,0.2,0,0.2,0c0,0,0.2,0,0.2,0.1
		c0.1,0.1,0.1,0.3,0.1,0.5c0,0.1-0.1,0.3-0.1,0.3c0,0,0,0-0.1,0.1C71.2,54,71.1,54,71.1,54c0,0-0.1,0-0.1,0c-0.1,0-0.4,0.1-1.1,0
		l-0.7-0.1L69.2,52.7z"/>
	<path class="st0" d="M94.1,53.4c0-0.1-0.1-0.2-0.3-0.2l-1.9-0.1c-0.1,0-0.2,0-0.2,0.1l-2.6,2.4l0.2-2.4c0-0.2-0.1-0.3-0.3-0.3
		l-1.4-0.1c-0.1,0-0.1,0-0.2,0.1s-0.1,0.1-0.1,0.2l-0.4,6l-1.8-6.2c0-0.1-0.1-0.2-0.2-0.2l-1.5-0.2c-0.1,0-0.2,0-0.3,0.1l-3.3,6.3
		l0.1-0.6c0-0.2-0.1-0.3-0.3-0.3l-3.6-0.4l0.1-1.3l3.2,0.4c0.1,0,0.2,0,0.2-0.1c0.1,0,0.1-0.1,0.1-0.2l0.1-1.2
		c0-0.2-0.1-0.3-0.2-0.3l-3.2-0.4l0.1-1l3.5,0.4c0.1,0,0.2,0,0.2-0.1c0.1,0,0.1-0.1,0.1-0.2l0.1-1.2c0-0.2-0.1-0.3-0.3-0.3l-5.2-0.5
		c-0.2,0-0.3,0.1-0.3,0.3l-0.7,7c0,0.1,0,0.2,0.1,0.2c0,0.1,0.1,0.1,0.2,0.1l5.3,0.5c0,0,0,0,0,0c0.1,0,0.1,0,0.2-0.1c0,0,0,0,0,0
		c0,0,0.1,0.1,0.2,0.1l1.5,0.2c0.1,0,0.2,0,0.3-0.1l0.7-1.3l2.4,0.3L85,60c0,0.1,0.1,0.2,0.2,0.2l1.6,0.2c0,0,0,0,0,0
		c0,0,0.1,0,0.1,0c0,0,0.1,0,0.1,0l1.4,0.1c0.2,0,0.3-0.1,0.3-0.3l0.2-2l0.8-0.8l1.5,3.1c0,0.1,0.1,0.2,0.2,0.2l1.8,0.1c0,0,0,0,0,0
		c0.1,0,0.2,0,0.2-0.1c0.1-0.1,0.1-0.2,0-0.3l-2.4-4.3l2.7-2.3C94.1,53.6,94.1,53.5,94.1,53.4z M84.1,56.8L83,56.7l0.7-1.4
		L84.1,56.8z"/>
</g>
</svg>
