<?xml version="1.0" encoding="utf-8"?>
<!-- Generator: Adobe Illustrator 28.2.0, SVG Export Plug-In . SVG Version: 6.00 Build 0)  -->
<svg version="1.1" id="Calque_1" xmlns="http://www.w3.org/2000/svg" xmlns:xlink="http://www.w3.org/1999/xlink" x="0px" y="0px"
	 viewBox="0 0 113.4 113.4" style="enable-background:new 0 0 113.4 113.4;" xml:space="preserve">
<style type="text/css">
	.st0{fill:#E763A0;}
</style>
<g>
	<path class="st0" d="M35.2,55.5c-0.3-0.1-0.9-0.2-1.6-0.3c-0.6-0.1-1-0.3-1.2-0.4c-0.1-0.1-0.1-0.1-0.1-0.2c0-0.2,0-0.2,0.1-0.3
		c0.1-0.1,0.4-0.2,0.7-0.2c0.4,0,0.6,0,0.7,0.1c0,0,0.1,0.1,0.1,0.1c0.2,0.1,0.2,0.2,0.3,0.5c0,0.1,0.2,0.2,0.3,0.2l1.4-0.2
		c0.1,0,0.1-0.1,0.2-0.1c0-0.1,0.1-0.1,0.1-0.2c-0.1-0.5-0.3-1.2-0.9-1.7c-0.5-0.4-1.3-0.6-2.2-0.5c-0.6,0.1-1,0.2-1.5,0.4
		c-0.5,0.2-0.8,0.5-1,0.9c-0.2,0.4-0.2,0.7-0.2,1.2c0.1,0.7,0.4,1.1,0.9,1.6c0.4,0.2,1,0.4,1.7,0.5c0.2,0,0.4,0.1,0.6,0.1
		c0.3,0.1,0.5,0.1,0.6,0.1c0.3,0.1,0.4,0.2,0.5,0.2c0.1,0.1,0.1,0.1,0.1,0.2c0,0.2-0.1,0.3-0.2,0.5c-0.1,0.1-0.4,0.3-0.9,0.3
		c-0.4,0.1-0.6,0-0.9-0.2c-0.3-0.2-0.4-0.4-0.5-0.8c0-0.1-0.2-0.3-0.3-0.2l-1.4,0.2c-0.1,0-0.2,0.1-0.2,0.1c0,0.1-0.1,0.1,0,0.2
		c0.2,1,0.6,1.6,1.1,1.9c0.5,0.4,1.1,0.6,1.8,0.6c0.2,0,0.3,0,0.5,0c0.6-0.1,1.1-0.2,1.6-0.4c0.4-0.2,0.8-0.5,1.1-0.9
		c0,0,0,0,0.1-0.1c0.2-0.5,0.2-0.9,0.2-1.4c-0.1-0.5-0.2-0.9-0.6-1.3C35.9,56,35.6,55.6,35.2,55.5z"/>
	<path class="st0" d="M47.6,51.8c0-0.1-0.1-0.2-0.3-0.2h-1.5c-0.1,0-0.2,0.1-0.3,0.2l-2.3,6.6l0-0.5c0-0.2-0.2-0.3-0.3-0.3l-3.6,0.3
		l-0.1-1.3l3.2-0.3c0.1,0,0.1,0,0.2-0.1c0-0.1,0.1-0.1,0.1-0.2l-0.1-1.1c0-0.2-0.1-0.3-0.3-0.3L39,54.9l-0.1-1l3.5-0.3
		c0.1,0,0.1,0,0.2-0.1s0.1-0.1,0.1-0.2l-0.1-1.2c0-0.2-0.2-0.3-0.3-0.3L37,52.2c-0.1,0-0.1,0-0.2,0.1c0,0.1-0.1,0.1-0.1,0.2l0.6,7
		c0,0.1,0.1,0.3,0.3,0.3c0,0,0,0,0,0l5.4-0.4c0.1,0,0.1,0,0.2-0.1c0,0,0,0,0,0c0,0,0.1,0,0.1,0h1.5c0.1,0,0.2-0.1,0.3-0.2l0.4-1.4
		l2.4-0.2l0.6,1.4c0,0.1,0.1,0.2,0.3,0.2h1.5c0.1,0,0.2,0,0.2-0.1c0.1-0.1,0.1-0.2,0-0.3L47.6,51.8z M47.2,55.8L46,55.9l0.5-1.5
		L47.2,55.8z"/>
	<path class="st0" d="M58.3,51.9l-5.6-0.2c-0.2,0-0.3,0.1-0.3,0.3l-0.1,1.2c0,0.1,0,0.2,0.1,0.2c0.1,0.1,0.1,0.1,0.2,0.1l1.8,0.1
		l-0.2,5.5c0,0.1,0,0.2,0.1,0.2c0.1,0.1,0.1,0.1,0.2,0.1h1.4c0.2,0,0.3-0.1,0.3-0.3l0.2-5.5l1.8,0.1c0,0,0,0,0,0
		c0.1,0,0.3-0.1,0.3-0.3l0.1-1.2c0-0.1,0-0.2-0.1-0.2C58.4,51.9,58.3,51.9,58.3,51.9z"/>
	<path class="st0" d="M62.5,51.9c-0.5,0-1.2,0-1.6,0.2c-0.4,0.2-0.7,0.4-1,0.8c-0.4,0.3-0.6,0.6-0.8,1c-0.2,0.5-0.4,1.1-0.4,1.9
		c-0.1,1.1,0.2,2.1,0.8,2.8c0.7,0.8,1.6,1.2,2.7,1.2c0,0,0,0,0,0c0.1,0,0.3,0,0.4,0c1,0,1.7-0.3,2.3-1c0.7-0.7,1.1-1.7,1.1-2.8
		c0.1-1-0.2-2-0.9-2.9C64.6,52.4,63.6,51.9,62.5,51.9z M62.3,58c-0.5,0-0.8-0.2-1.2-0.6c-0.3-0.3-0.4-0.8-0.4-1.6
		c0.1-0.7,0.3-1.3,0.5-1.7c0.3-0.3,0.7-0.4,1.2-0.4c0.6,0.1,1,0.3,1.2,0.6c0.3,0.3,0.4,0.8,0.4,1.6c0,0.7-0.2,1.3-0.5,1.6
		C63.2,57.9,62.8,58,62.3,58z"/>
	<path class="st0" d="M75.9,52.8c0-0.1-0.1-0.1-0.2-0.1l-1.4-0.1c-0.1,0-0.3,0.1-0.3,0.2l-1,3.7l-0.8-3.8c0-0.1-0.1-0.2-0.3-0.2
		l-1.7-0.1c-0.1,0-0.2,0.1-0.3,0.2l-1.2,3.7l-0.7-3.8c0-0.1-0.1-0.2-0.3-0.2l-1.4-0.1c-0.1,0-0.2,0-0.2,0.1
		c-0.1,0.1-0.1,0.2-0.1,0.2l1.4,7.1c0,0.1,0.1,0.2,0.3,0.2l1.5,0.1c0.1,0,0.2-0.1,0.3-0.2l1.3-4.1l1,4.3c0,0.1,0.1,0.2,0.3,0.2
		l1.5,0.1c0,0,0,0,0,0c0.1,0,0.2-0.1,0.3-0.2l2-7C75.9,53,75.9,52.9,75.9,52.8z"/>
	<path class="st0" d="M82.8,54.5l-1.3-0.4c-0.1,0-0.2,0-0.2,0c-0.1,0-0.1,0.1-0.1,0.2l-0.9,3.5L79,53.5c0-0.1-0.1-0.2-0.2-0.2
		L77.4,53c-0.2,0-0.3,0.1-0.3,0.2l-1.8,6.7c0,0.1,0,0.3,0.2,0.3l1.2,0.4c0.1,0,0.2,0,0.2,0c0.1,0,0.1-0.1,0.1-0.2L78,57l1.2,4.2
		c0,0.1,0.1,0.2,0.2,0.2l1.4,0.4c0,0,0.1,0,0.1,0c0,0,0.1,0,0.1,0c0.1,0,0.1-0.1,0.1-0.2l1.9-6.8C83.1,54.7,83,54.6,82.8,54.5z"/>
</g>
</svg>
