<?xml version="1.0" encoding="utf-8"?>
<!-- Generator: Adobe Illustrator 28.2.0, SVG Export Plug-In . SVG Version: 6.00 Build 0)  -->
<svg version="1.1" id="Calque_1" xmlns="http://www.w3.org/2000/svg" xmlns:xlink="http://www.w3.org/1999/xlink" x="0px" y="0px"
	 viewBox="0 0 113.4 113.4" style="enable-background:new 0 0 113.4 113.4;" xml:space="preserve">
<style type="text/css">
	.st0{fill:#FE76B8;}
	.st1{fill:#E8629F;}
</style>
<g>
	<g>
		<path class="st0" d="M35.5,47c0.1-0.4,0.1-0.8,0-1.2c-0.1-0.4-0.4-0.9-0.8-1.5c-0.5-0.7-0.5-1-0.5-1.1c0-0.1,0-0.2,0.1-0.2
			c0.1-0.1,0.1-0.1,0.2-0.1c0.2,0,0.5,0.2,0.7,0.4c0.2,0.2,0.4,0.4,0.4,0.6c0,0.2-0.1,0.4-0.2,0.6c-0.1,0.1-0.1,0.3,0,0.4l1,1
			c0.1,0.1,0.3,0.1,0.4,0c0.5-0.5,0.7-1.1,0.7-1.8c0-0.7-0.4-1.3-1.1-2c-0.4-0.4-0.8-0.7-1.2-0.9c-0.4-0.2-0.9-0.2-1.3-0.1
			c-0.4,0.1-0.8,0.3-1.1,0.6c-0.5,0.5-0.7,1-0.6,1.7c0,0.5,0.2,1,0.7,1.8c0.4,0.6,0.5,0.9,0.6,1c0.1,0.2,0.1,0.4,0.1,0.4
			c0,0.1,0,0.2-0.1,0.2c-0.1,0.1-0.3,0.2-0.5,0.2c-0.2,0-0.5-0.2-0.8-0.4c-0.3-0.3-0.4-0.5-0.4-0.8c0-0.3,0.1-0.6,0.3-0.9
			c0.1-0.1,0.1-0.3-0.1-0.4L31,43.5c-0.1,0-0.1-0.1-0.2-0.1c-0.1,0-0.1,0-0.2,0.1c-0.5,0.7-0.8,1.4-0.7,2.1c0.1,0.7,0.4,1.4,1.1,2.1
			c0.5,0.5,0.9,0.8,1.4,1c0.3,0.1,0.6,0.2,0.9,0.2c0.2,0,0.3,0,0.5-0.1c0.5-0.1,0.9-0.3,1.2-0.6C35.2,47.8,35.4,47.4,35.5,47z"/>
		<path class="st0" d="M40.2,46l-1-1c-0.1-0.1-0.3-0.1-0.4,0l-5,5c-0.1,0.1-0.1,0.1-0.1,0.2c0,0.1,0,0.1,0.1,0.2l1,1
			c0.1,0.1,0.1,0.1,0.2,0.1s0.1,0,0.2-0.1l5-5C40.3,46.2,40.3,46.1,40.2,46z"/>
		<path class="st0" d="M50.7,52.3L49,51.6c-0.1,0-0.2,0-0.2,0l-3.2,1.6l0.9-2.2c0-0.1,0-0.1,0-0.2c0-0.1-0.1-0.1-0.2-0.1L45,50.1
			c-0.1-0.1-0.3,0-0.4,0.2l-0.4,1.1c0.1-0.3,0.1-0.7,0.1-1c-0.1-0.8-0.5-1.5-1.2-2.1c-0.8-0.7-1.7-1-2.7-0.9c-1,0.1-1.8,0.6-2.6,1.6
			c-0.8,0.9-1.1,1.8-1.1,2.8c0,1,0.5,1.8,1.2,2.4c0.6,0.5,1.3,0.8,2,0.9c0,0,0.1,0,0.1,0c0.6,0,1.3-0.2,1.9-0.7
			c0.1-0.1,0.2-0.3,0.1-0.4l-0.8-1.2c0-0.1-0.1-0.1-0.2-0.1c-0.1,0-0.2,0-0.2,0.1c-0.4,0.3-0.7,0.4-1,0.4c-0.3,0-0.6-0.1-0.8-0.3
			c-0.3-0.3-0.5-0.6-0.5-1c0-0.4,0.3-1,0.8-1.6c0.5-0.6,1-0.9,1.4-1c0.4-0.1,0.8,0,1.1,0.3c0.2,0.2,0.4,0.4,0.4,0.7
			c0.1,0.3,0,0.5-0.1,0.8c0,0.1,0,0.1,0,0.2c0,0.1,0.1,0.1,0.1,0.2l1.3,0.7c0.1,0,0.1,0,0.2,0c0.1,0,0.1-0.1,0.1-0.1l-1.8,4.8
			c0,0.1,0,0.1,0,0.2c0,0.1,0.1,0.1,0.2,0.1l1.3,0.5c0.1,0.1,0.3,0,0.4-0.2l0.7-1.9l1.1-0.5l0.6,3.4c0,0.1,0.1,0.2,0.2,0.2l1.7,0.7
			c0,0,0.1,0,0.1,0c0.1,0,0.1,0,0.2-0.1c0.1-0.1,0.1-0.2,0.1-0.3l-1-4.8l3.3-1.5c0.1,0,0.2-0.2,0.2-0.3S50.9,52.4,50.7,52.3z"/>
		<path class="st0" d="M58.5,57.9c0.2-0.6,0.3-1.1,0.1-1.6c-0.1-0.5-0.4-0.9-0.8-1.2c-0.2-0.2-0.8-0.4-1.6-0.7l-2.1-0.8
			c-0.1,0-0.1,0-0.2,0c-0.1,0-0.1,0.1-0.1,0.2l-2.5,6.6c-0.1,0.1,0,0.3,0.2,0.4l1.3,0.5c0,0,0.1,0,0.1,0c0,0,0.1,0,0.1,0
			c0.1,0,0.1-0.1,0.1-0.2l0.9-2.2l0.6,0.2c0.6,0.2,1.1,0.4,1.5,0.5c0.3,0,0.6,0,0.9-0.1c0.3-0.1,0.6-0.2,0.9-0.5
			C58.1,58.7,58.4,58.4,58.5,57.9z M55.5,56c0.6,0.2,0.8,0.3,0.9,0.4c0.1,0.1,0.2,0.2,0.3,0.4c0.1,0.1,0,0.3,0,0.5
			c-0.1,0.1-0.1,0.2-0.2,0.3c-0.1,0.1-0.2,0.1-0.4,0.1c0,0,0,0,0,0c-0.1,0-0.3,0-1-0.3l-0.5-0.2l0.5-1.3L55.5,56z"/>
		<path class="st0" d="M69.1,59.4l-1.4-0.5c-0.1,0-0.2,0-0.3,0.1L62.7,64l0.2-0.4c0.1-0.1,0-0.3-0.2-0.4l-3-1.2l2-5.1
			c0.1-0.1,0-0.3-0.2-0.4L60.2,56c-0.1,0-0.1,0-0.2,0c-0.1,0-0.1,0.1-0.1,0.2l-2.5,6.5c-0.1,0.1,0,0.3,0.2,0.4l4.6,1.8
			c0,0,0.1,0,0.1,0c0,0,0,0,0,0c0,0,0.1,0.1,0.1,0.1l1.4,0.5c0.1,0,0.2,0,0.3-0.1l1-1.1l2.3,0.9l0,1.5c0,0.1,0.1,0.2,0.2,0.3
			l1.4,0.6c0,0,0.1,0,0.1,0c0.1,0,0.1,0,0.2-0.1c0.1-0.1,0.1-0.1,0.1-0.2l-0.1-7.6C69.2,59.5,69.2,59.4,69.1,59.4z M66.3,62.9
			l1.1-1.2l0,1.6L66.3,62.9z"/>
		<path class="st0" d="M75.5,67.3l-1.1-0.9c-0.1-0.1-0.1-0.1-0.2-0.1c-0.1,0-0.1,0.1-0.2,0.1c-0.3,0.4-0.6,0.6-0.8,0.7
			c-0.3,0.1-0.6,0.1-0.8,0c-0.4-0.2-0.6-0.4-0.8-0.8c-0.1-0.4,0-1,0.3-1.7c0.3-0.7,0.6-1.2,1-1.3c0.4-0.2,0.7-0.2,1.2,0
			c0.3,0.1,0.5,0.3,0.6,0.5c0.1,0.2,0.2,0.5,0.1,0.8c0,0.1,0,0.2,0,0.2s0.1,0.1,0.2,0.1l1.4,0.2c0.1,0,0.2,0,0.2-0.1
			c0.1,0,0.1-0.1,0.1-0.2c0.1-0.6,0-1.2-0.2-1.6c-0.3-0.7-0.9-1.3-1.8-1.7c-1-0.4-1.9-0.4-2.8,0c-0.9,0.4-1.6,1.2-2,2.3
			c-0.5,1.1-0.5,2.1-0.2,3c0.3,0.9,1,1.5,1.9,1.9c0.5,0.2,1,0.3,1.4,0.3c0.2,0,0.5,0,0.7-0.1c0.7-0.2,1.3-0.6,1.8-1.3
			C75.7,67.6,75.7,67.4,75.5,67.3z"/>
		<path class="st0" d="M83.4,65.3l-4.8-2c-0.1,0-0.1,0-0.2,0c-0.1,0-0.1,0.1-0.2,0.2l-2.8,6.5c0,0.1,0,0.1,0,0.2
			c0,0.1,0.1,0.1,0.2,0.2l4.9,2.1c0,0,0.1,0,0.1,0c0.1,0,0.2-0.1,0.3-0.2l0.5-1.1c0-0.1,0-0.1,0-0.2c0-0.1-0.1-0.1-0.2-0.2l-3.4-1.4
			l0.5-1.2l3,1.3c0.1,0.1,0.3,0,0.4-0.2l0.5-1.1c0-0.1,0-0.1,0-0.2c0-0.1-0.1-0.1-0.2-0.2l-3-1.3l0.4-0.9l3.2,1.4c0.1,0,0.1,0,0.2,0
			c0.1,0,0.1-0.1,0.2-0.2l0.5-1.1C83.6,65.5,83.5,65.4,83.4,65.3z"/>
	</g>
	<g transform="matrix(0.707053,0.707053,-0.707053,0.707053,4533.33,3514.75)">
		<path vector-effect="none" class="st1" d="M-5638.6,729.4l1.4-0.1c0.1,0.5,0.3,0.8,0.5,1c0.3,0.2,0.6,0.3,1,0.3
			c0.5,0,0.8-0.1,1-0.3s0.3-0.4,0.3-0.7c0-0.2,0-0.3-0.1-0.4c-0.1-0.1-0.3-0.2-0.5-0.3c-0.2-0.1-0.5-0.2-1.1-0.3
			c-0.8-0.2-1.3-0.4-1.6-0.7c-0.4-0.4-0.6-0.9-0.6-1.4c0-0.4,0.1-0.7,0.3-1c0.2-0.3,0.5-0.6,0.9-0.7c0.4-0.2,0.8-0.2,1.4-0.2
			c0.9,0,1.5,0.2,2,0.6s0.7,0.9,0.7,1.6l-1.4,0.1c-0.1-0.4-0.2-0.6-0.4-0.8s-0.5-0.2-0.9-0.2c-0.4,0-0.7,0.1-1,0.3
			c-0.2,0.1-0.2,0.3-0.2,0.4c0,0.2,0.1,0.3,0.2,0.4c0.2,0.2,0.6,0.3,1.3,0.5c0.7,0.2,1.2,0.3,1.5,0.5c0.3,0.2,0.6,0.4,0.8,0.7
			c0.2,0.3,0.3,0.7,0.3,1.1c0,0.4-0.1,0.8-0.3,1.1c-0.2,0.4-0.5,0.6-1,0.8c-0.4,0.2-0.9,0.3-1.5,0.3c-0.9,0-1.6-0.2-2.1-0.6
			C-5638.2,730.8-5638.5,730.2-5638.6,729.4"/>
	</g>
	<g transform="matrix(0.707053,0.707053,-0.707053,0.707053,4552.42,3533.84)">
		<path vector-effect="none" class="st1" d="M-5658.8,731.7v-7h1.4v7H-5658.8"/>
	</g>
	<g transform="matrix(0.760786,0.648886,-0.648886,0.760786,4560.17,3541.54)">
		<path vector-effect="none" class="st1" d="M-5702.7,278.4l1.4,0.4c-0.2,0.8-0.6,1.3-1.1,1.7c-0.5,0.4-1.1,0.6-1.9,0.6
			c-0.9,0-1.7-0.3-2.3-1c-0.6-0.6-0.9-1.5-0.9-2.6c0-1.2,0.3-2.1,0.9-2.7c0.6-0.6,1.4-1,2.4-1c0.9,0,1.6,0.3,2.1,0.8
			c0.3,0.3,0.6,0.7,0.7,1.3l-1.4,0.3c-0.1-0.4-0.3-0.7-0.5-0.9c-0.3-0.2-0.6-0.3-1-0.3c-0.5,0-0.9,0.2-1.3,0.6
			c-0.3,0.4-0.5,1-0.5,1.8c0,0.9,0.2,1.5,0.5,1.9s0.7,0.6,1.2,0.6c0.4,0,0.7-0.1,1-0.4C-5703,279.3-5702.8,278.9-5702.7,278.4"/>
	</g>
	<g transform="matrix(0.933275,0.358952,-0.358952,0.933275,4586.37,3563.01)">
		<path vector-effect="none" class="st1" d="M-5500.2-1641.3v-7h1.4v3.1l2.9-3.1h1.9l-2.7,2.7l2.8,4.3h-1.8l-1.9-3.3l-1.2,1.2v2.1
			H-5500.2"/>
	</g>
	<g transform="matrix(0.933275,0.358952,-0.358952,0.933275,4614.37,3573.78)">
		<path vector-effect="none" class="st1" d="M-5523.7-1641.3"/>
	</g>
	<g transform="matrix(0.933275,0.358952,-0.358952,0.933275,4624.64,3577.73)">
		<path vector-effect="none" class="st1" d="M-5531.4-1641.3v-7h2.3c0.9,0,1.4,0,1.7,0.1c0.4,0.1,0.7,0.3,1,0.7
			c0.3,0.4,0.4,0.8,0.4,1.4c0,0.4-0.1,0.8-0.2,1.1c-0.2,0.3-0.4,0.5-0.6,0.7c-0.2,0.2-0.5,0.3-0.7,0.3c-0.3,0.1-0.8,0.1-1.5,0.1
			h-0.9v2.7H-5531.4 M-5530-1647.2v2h0.8c0.6,0,0.9,0,1.1-0.1s0.3-0.2,0.4-0.3s0.2-0.3,0.2-0.5c0-0.3-0.1-0.5-0.2-0.6
			c-0.2-0.2-0.3-0.3-0.6-0.3c-0.2,0-0.5,0-1,0H-5530"/>
	</g>
	<g transform="matrix(0.933275,0.358952,-0.358952,0.933275,4649.83,3587.42)">
		<path vector-effect="none" class="st1" d="M-5551.9-1641.3v-7h1.4v5.8h3.5v1.2H-5551.9"/>
	</g>
	<g transform="matrix(0.933275,0.358952,-0.358952,0.933275,4673.17,3596.39)">
		<path vector-effect="none" class="st1" d="M-5564.5-1641.3h-1.5l-0.6-1.6h-2.8l-0.6,1.6h-1.5l2.7-7h1.5L-5564.5-1641.3
			 M-5567.2-1644.1l-1-2.6l-1,2.6H-5567.2"/>
	</g>
	<g transform="matrix(0.922639,0.385469,-0.385469,0.922639,4698.06,3605.96)">
		<path vector-effect="none" class="st1" d="M-5631.3-1483.5l1.4,0.4c-0.2,0.8-0.6,1.3-1.1,1.7c-0.5,0.4-1.1,0.6-1.9,0.6
			c-0.9,0-1.7-0.3-2.3-1c-0.6-0.6-0.9-1.5-0.9-2.6c0-1.2,0.3-2.1,0.9-2.7c0.6-0.6,1.4-1,2.4-1c0.9,0,1.6,0.3,2.1,0.8
			c0.3,0.3,0.6,0.7,0.7,1.3l-1.4,0.3c-0.1-0.4-0.3-0.7-0.5-0.9s-0.6-0.3-1-0.3c-0.5,0-0.9,0.2-1.3,0.6c-0.3,0.4-0.5,1-0.5,1.8
			c0,0.9,0.2,1.5,0.5,1.9c0.3,0.4,0.7,0.6,1.2,0.6c0.4,0,0.7-0.1,1-0.4C-5631.6-1482.6-5631.4-1482.9-5631.3-1483.5"/>
	</g>
	<g transform="matrix(0.920565,0.390395,-0.390395,0.920565,4725.68,3617.5)">
		<path vector-effect="none" class="st1" d="M-5666.4-1450.6v-7h5.2v1.2h-3.8v1.6h3.5v1.2h-3.5v1.9h3.9v1.2H-5666.4"/>
	</g>
</g>
</svg>
