<?xml version="1.0" encoding="utf-8"?>
<!-- Generator: Adobe Illustrator 28.2.0, SVG Export Plug-In . SVG Version: 6.00 Build 0)  -->
<svg version="1.1" id="Calque_1" xmlns="http://www.w3.org/2000/svg" xmlns:xlink="http://www.w3.org/1999/xlink" x="0px" y="0px"
	 viewBox="0 0 113.4 113.4" style="enable-background:new 0 0 113.4 113.4;" xml:space="preserve">
<style type="text/css">
	.st0{fill:#E763A0;}
</style>
<g>
	<path class="st0" d="M24,67c-0.3-0.4-0.6-0.5-1-0.6c-0.4-0.1-1-0.1-1.7-0.1c-0.5,0-1.1,0-1.2-0.1c0,0,0,0-0.1-0.1
		c0,0-0.1-0.1-0.1-0.1c0-0.1,0-0.3,0-0.3c0.1-0.1,0.4-0.3,0.8-0.4c0.4-0.1,0.6-0.1,0.8,0c0.2,0.1,0.3,0.2,0.5,0.5
		c0.1,0.1,0.2,0.2,0.3,0.1l1.3-0.5c0.1-0.1,0.2-0.2,0.2-0.4c-0.2-0.7-0.7-1.3-1.3-1.5c-0.6-0.2-1.4-0.2-2.2,0
		c-0.6,0.1-1.1,0.3-1.4,0.6c-0.4,0.2-0.6,0.6-0.7,1.1c-0.1,0.5-0.1,0.9,0,1.2c0.1,0.7,0.6,1.1,1.1,1.4c0.4,0.2,1,0.2,1.9,0.2h1.2
		c0.2,0.1,0.4,0.1,0.5,0c0,0,0,0,0,0.1c0,0,0,0.1,0,0.1c0.1,0.2,0.1,0.3-0.1,0.6c-0.2,0.2-0.4,0.4-0.7,0.5c-0.3,0.1-0.7,0.1-0.9,0
		c-0.2-0.1-0.5-0.3-0.6-0.7c-0.1-0.1-0.2-0.2-0.4-0.1l-1.3,0.5c-0.1,0.1-0.2,0.2-0.2,0.4c0.3,0.9,0.9,1.4,1.4,1.8c0,0,0,0,0.1,0
		c0.4,0.1,0.7,0.2,1.1,0.2c0.4,0,0.8-0.1,1.2-0.2c0.7-0.2,1.2-0.4,1.5-0.7c0.4-0.3,0.7-0.7,0.8-1.2c0.1-0.4,0.1-0.9,0-1.3
		C24.6,67.8,24.5,67.3,24,67z"/>
	<path class="st0" d="M30.1,61.9c-0.9-0.5-1.9-0.5-2.9-0.2c-0.6,0.2-1.1,0.4-1.5,0.8c-0.3,0.3-0.5,0.5-0.7,0.9
		c-0.2,0.3-0.3,0.8-0.4,1.2c-0.1,0.5,0,1.1,0.2,1.9c0,0,0,0,0,0c0.4,1.2,1,2,1.9,2.4c0.5,0.3,1.1,0.4,1.7,0.4c0.4,0,0.8-0.1,1.2-0.2
		c1.1-0.3,1.9-0.9,2.3-1.7c0.4-0.8,0.5-1.8,0.1-3C31.4,63.1,30.9,62.3,30.1,61.9z M29.8,66.6c-0.2,0.4-0.6,0.7-1.1,0.9
		c-0.4,0.2-0.8,0.1-1.2-0.2c-0.3-0.2-0.7-0.7-0.9-1.4c0,0,0,0,0,0c-0.3-0.8-0.2-1.3,0-1.7c0.2-0.4,0.5-0.7,1-0.8
		c0.2,0,0.4-0.1,0.5-0.1c0.3,0,0.5,0.1,0.8,0.2c0.3,0.2,0.7,0.7,0.9,1.4C30,65.7,30,66.2,29.8,66.6z"/>
	<path class="st0" d="M38.3,62.6l-1-3.5c0-0.1-0.2-0.2-0.4-0.2l-1.4,0.4c-0.1,0-0.1,0.1-0.2,0.1s0,0.1,0,0.2l1.1,3.7
		c0.2,0.7,0.3,1,0.3,1.1c0,0.3,0,0.4-0.1,0.5c0,0,0,0-0.1,0.1c0,0.1-0.2,0.3-0.6,0.4c-0.3,0.1-0.6,0.1-0.8,0
		c-0.3-0.1-0.4-0.2-0.4-0.3c0,0,0-0.1-0.1-0.1c0-0.1-0.1-0.3-0.2-0.5c0-0.1-0.1-0.3-0.1-0.5l-1.1-3.7c0-0.1-0.2-0.2-0.3-0.2
		l-1.4,0.4c-0.1,0-0.1,0.1-0.2,0.1c0,0.1,0,0.1,0,0.2l1.2,3.7c0.2,0.7,0.4,1.3,0.6,1.8c0.1,0.2,0.4,0.5,0.7,0.7c0,0,0,0,0.1,0
		c0.2,0.1,0.3,0.1,0.5,0.2c0.2,0,0.3,0.1,0.5,0.1c0.1,0,0.2,0.1,0.4,0.1c0.5,0,1-0.2,1.3-0.3c0.5-0.2,0.9-0.4,1.3-0.7
		c0.3-0.3,0.5-0.5,0.7-0.9c0.2-0.4,0.2-0.7,0.2-1.1c0-0.3-0.1-0.7-0.3-1.3C38.4,63,38.4,62.8,38.3,62.6z"/>
	<path class="st0" d="M43.6,57.1c-0.1,0-0.1,0-0.2,0L38,58.7c-0.1,0-0.2,0.2-0.2,0.3l0.3,1.1c0,0.1,0.1,0.1,0.1,0.2
		c0.1,0,0.1,0,0.2,0l1.7-0.5l1.5,5.3c0,0.1,0.1,0.2,0.3,0.2c0,0,0.1,0,0.1,0l1.4-0.4c0.1,0,0.1-0.1,0.2-0.1c0-0.1,0-0.1,0-0.2
		l-1.5-5.3l1.7-0.5c0.1,0,0.2-0.2,0.2-0.3l-0.3-1.1C43.7,57.2,43.6,57.2,43.6,57.1z"/>
	<path class="st0" d="M49.9,55.1l-1.4,0.4c-0.1,0-0.1,0.1-0.2,0.1c0,0.1,0,0.1,0,0.2l0.7,2.4l-2.2,0.6l-0.7-2.4
		c0-0.1-0.2-0.2-0.4-0.2l-1.4,0.4c-0.1,0-0.1,0.1-0.2,0.1c0,0.1,0,0.1,0,0.2l2,6.8c0,0.1,0.1,0.2,0.3,0.2c0,0,0.1,0,0.1,0l1.4-0.4
		c0.1,0,0.1-0.1,0.2-0.1c0-0.1,0-0.1,0-0.2l-0.8-2.7l2.2-0.6l0.8,2.7c0,0.1,0.2,0.2,0.3,0.2l1.4-0.4c0.1,0,0.1-0.1,0.2-0.1
		c0-0.1,0-0.1,0-0.2l-2-6.8C50.2,55.2,50,55.1,49.9,55.1z"/>
	<path class="st0" d="M61.4,51.7L60,52.1c-0.1,0-0.1,0.1-0.2,0.1c0,0.1,0,0.1,0,0.2l1.6,5.6l-3.8-5c-0.1-0.1-0.2-0.1-0.3-0.1
		l-1.4,0.4c-0.1,0-0.2,0.1-0.2,0.2L55,61.1c0,0.1,0,0.2,0.1,0.2c0.1,0,0.1,0.1,0.2,0.1c0,0,0.1,0,0.1,0l1.4-0.4
		c0.1,0,0.2-0.1,0.2-0.3l0.1-1.5l2.3-0.7l0.9,1.2c0.1,0.1,0.2,0.1,0.3,0.1l1.5-0.4c0,0,0,0,0,0c0,0,0.1,0,0.1,0l1.4-0.4
		c0.1,0,0.1-0.1,0.2-0.1c0-0.1,0-0.1,0-0.2l-2-6.8C61.7,51.8,61.5,51.7,61.4,51.7z M58.2,57.1l-1,0.3l0.1-1.6L58.2,57.1z"/>
	<path class="st0" d="M69.4,55.5c-0.5-0.5-0.8-0.8-1.2-1c-0.1-0.1-0.2-0.1-0.3-0.2c0.3-0.2,0.6-0.5,0.7-0.8c0.2-0.4,0.2-0.9,0.1-1.6
		c-0.1-0.3-0.3-0.9-0.7-1.2c-0.3-0.2-0.7-0.4-1.2-0.4c-0.4,0-1,0.1-1.7,0.3l-2.9,0.8c-0.1,0-0.1,0.1-0.2,0.1c0,0.1,0,0.1,0,0.2
		l2,6.8c0,0.1,0.1,0.1,0.1,0.2c0,0,0.1,0,0.1,0c0,0,0.1,0,0.1,0l1.3-0.5c0.1-0.1,0.2-0.2,0.2-0.3l-0.7-2.5l0,0
		c0.3-0.1,0.4-0.1,0.6-0.1c0.1,0,0.1,0,0.2,0.1c0,0,0.1,0.1,0.2,0.1c0.1,0,0.3,0.2,0.5,0.4c0.1,0.1,0.3,0.3,0.5,0.4l1.4,1.3
		c0.1,0.1,0.2,0.1,0.3,0.1l1.6-0.5c0.1,0,0.2-0.1,0.2-0.2c0-0.1,0-0.2-0.1-0.3L69.4,55.5z M66.9,53c-0.1,0.2-0.2,0.2-0.2,0.3
		c-0.1,0.1-0.4,0.1-0.8,0.3l-1,0.3l-0.3-1.1l0.8-0.2c0.4-0.1,0.8-0.3,0.9-0.3c0.2,0,0.3,0,0.4,0c0.1,0.1,0.1,0.2,0.2,0.3
		c0,0.1,0,0.1,0,0.2C66.9,52.9,66.9,52.9,66.9,53z"/>
	<path class="st0" d="M74.6,48.9c-0.4-0.3-0.9-0.5-1.4-0.5c-0.2,0-0.6,0.1-1.1,0.2c-0.2,0.1-0.4,0.1-0.7,0.2l-2.2,0.6
		c-0.1,0-0.1,0.1-0.2,0.1s0,0.1,0,0.2l2,6.8c0,0.1,0.1,0.1,0.1,0.2c0,0,0.1,0,0.1,0c0,0,0.1,0,0.1,0l1.4-0.5
		c0.1-0.1,0.2-0.2,0.2-0.3l-0.6-2.2l0.6-0.2c0.2-0.1,0.3-0.1,0.5-0.2c0.4-0.1,0.7-0.2,0.9-0.4c0.2-0.1,0.5-0.3,0.7-0.6
		c0.2-0.2,0.4-0.6,0.5-0.9c0,0,0-0.1,0-0.1c0-0.3,0-0.7-0.1-1.2C75.3,49.7,75.1,49.2,74.6,48.9z M71.8,52l-0.4-1.4l0.3-0.2
		c0.2,0,0.3-0.1,0.5-0.1c0.2,0,0.4-0.1,0.4-0.1c0.3,0,0.4,0.1,0.4,0.1c0,0,0,0,0.1,0.1c0.1,0.1,0.2,0.2,0.3,0.4c0,0,0,0.1,0,0.2
		c0,0.1,0,0.2,0,0.2c0,0,0,0.2-0.1,0.2c0,0,0,0-0.1,0c0,0-0.2,0.1-0.4,0.2c-0.2,0.1-0.3,0.1-0.5,0.2L71.8,52z"/>
	<path class="st0" d="M81.4,46.8c-0.9-0.5-1.9-0.5-2.9-0.2c-0.6,0.2-1.1,0.4-1.5,0.8c-0.3,0.3-0.5,0.5-0.7,0.9
		c-0.2,0.3-0.3,0.8-0.4,1.3c0,0.5,0,1.1,0.2,1.9c0,0,0,0,0,0c0.5,1.2,1,2,1.9,2.4c0.5,0.3,1.1,0.4,1.7,0.4c0.4,0,0.8-0.1,1.2-0.2
		c1.1-0.3,1.9-0.9,2.3-1.7c0.4-0.8,0.5-1.8,0.1-3C82.7,48,82.2,47.2,81.4,46.8z M81.1,51.5c-0.2,0.4-0.6,0.7-1.1,0.9
		c-0.4,0.2-0.8,0.1-1.2-0.2c-0.3-0.2-0.7-0.7-0.9-1.4c0,0,0,0,0,0c-0.2-0.6-0.2-1.3,0-1.7c0.2-0.4,0.5-0.7,1-0.8
		c0.2,0,0.4-0.1,0.5-0.1c0.3,0,0.5,0.1,0.8,0.2c0.4,0.3,0.7,0.8,0.9,1.4C81.3,50.7,81.3,51.2,81.1,51.5z"/>
	<path class="st0" d="M89.9,49.5c-0.5-0.5-0.8-0.8-1.2-1c-0.1-0.1-0.2-0.1-0.3-0.2c0.3-0.2,0.6-0.5,0.7-0.8c0.2-0.4,0.2-0.9,0.1-1.6
		c-0.1-0.4-0.3-0.8-0.7-1.2c-0.3-0.2-0.7-0.4-1.2-0.4c-0.4,0-1,0.1-1.7,0.3l-2.9,0.8c-0.1,0-0.1,0.1-0.2,0.1c0,0.1,0,0.1,0,0.2
		l2,6.8c0,0.1,0.1,0.1,0.1,0.2c0,0,0.1,0,0.1,0c0,0,0.1,0,0.1,0l1.3-0.5c0.1-0.1,0.2-0.2,0.2-0.3l-0.7-2.5l0,0
		c0.3-0.1,0.4-0.1,0.6-0.1c0.1,0,0.1,0,0.2,0.1c0,0,0.1,0.1,0.2,0.1c0.1,0,0.3,0.2,0.5,0.4c0.1,0.1,0.3,0.3,0.5,0.4l1.4,1.3
		c0.1,0.1,0.2,0.1,0.3,0.1l1.6-0.5c0.1,0,0.2-0.1,0.2-0.2c0-0.1,0-0.2-0.1-0.3L89.9,49.5z M87.4,47c-0.1,0.2-0.2,0.2-0.2,0.3
		c-0.1,0.1-0.4,0.1-0.8,0.3l-1,0.3L85,46.8l0.8-0.2c0.4-0.1,0.8-0.3,0.9-0.3c0.2,0,0.3,0,0.4,0c0.1,0.1,0.1,0.2,0.2,0.3
		c0,0.1,0,0.1,0,0.2C87.4,46.9,87.4,46.9,87.4,47z"/>
	<path class="st0" d="M95.1,42.2c0-0.1-0.1-0.1-0.1-0.2c-0.1,0-0.2-0.1-0.2,0l-5.4,1.6c-0.1,0-0.2,0.2-0.2,0.3l0.3,1.1
		c0,0.1,0.1,0.1,0.1,0.2c0.1,0,0.1,0,0.2,0l1.7-0.5l1.5,5.3c0,0.1,0.1,0.1,0.1,0.2c0,0,0.1,0,0.1,0c0,0,0.1,0,0.1,0l1.3-0.4
		c0.1,0,0.2-0.2,0.2-0.3l-1.5-5.3l1.7-0.5c0.1,0,0.2-0.2,0.2-0.3L95.1,42.2z"/>
</g>
</svg>
