<?xml version="1.0" encoding="utf-8"?>
<!-- Generator: Adobe Illustrator 28.2.0, SVG Export Plug-In . SVG Version: 6.00 Build 0)  -->
<svg version="1.1" id="Calque_1" xmlns="http://www.w3.org/2000/svg" xmlns:xlink="http://www.w3.org/1999/xlink" x="0px" y="0px"
	 viewBox="0 0 113.4 113.4" style="enable-background:new 0 0 113.4 113.4;" xml:space="preserve">
<style type="text/css">
	.st0{fill:#E763A0;}
</style>
<g>
	<path class="st0" d="M25.4,43.8c-0.5-0.1-1.1-0.1-1.5,0c-0.3,0.1-0.9,0.3-1.2,0.7c-0.2,0.3-0.3,0.7-0.4,1.1c-0.1,0.7,0,1.3,0.5,1.7
		c0.3,0.3,0.8,0.6,1.6,1c0.4,0.2,0.7,0.3,0.8,0.4c0.1,0,0.2,0.1,0.3,0.1c0.2,0.1,0.3,0.2,0.4,0.3c0,0,0,0.1,0.1,0.1c0,0,0,0.1,0,0.2
		c0,0,0,0.2-0.2,0.3c-0.3,0.1-0.5,0.2-0.9,0.1c-0.5-0.1-0.7-0.2-0.9-0.4c-0.2-0.2-0.3-0.5-0.3-0.9c0-0.1-0.1-0.3-0.3-0.3l-1.4-0.1
		c-0.1,0-0.2,0-0.2,0.1s-0.1,0.1-0.1,0.2c0,0.9,0.2,1.7,0.7,2.1c0.5,0.6,1.1,0.9,2.1,1c0.4,0.1,0.7,0.1,1,0.1c0.3,0,0.5,0,0.8-0.1
		c0.3-0.1,0.9-0.3,1.1-0.7c0.4-0.4,0.6-0.8,0.6-1.2c0.1-0.5,0.1-1-0.1-1.4c-0.2-0.3-0.4-0.6-0.8-0.9c-0.3-0.2-0.7-0.4-1.5-0.7
		c-0.5-0.1-0.8-0.3-1.1-0.5c0,0-0.1,0-0.1-0.1c0-0.1,0-0.1,0-0.2c0.1-0.1,0.1-0.2,0.2-0.2c0.3-0.1,0.5-0.1,0.8-0.1
		c0.1,0,0.6,0.1,0.6,0.3c0,0,0,0.1,0.1,0.1c0.1,0.1,0.2,0.3,0.2,0.6c0,0.1,0.1,0.3,0.3,0.3l1.5,0.1c0.1,0,0.2,0,0.2-0.1
		c0.1-0.1,0.1-0.1,0.1-0.2c0-0.8-0.2-1.4-0.6-1.8C27.1,44.2,26.4,43.9,25.4,43.8z"/>
	<path class="st0" d="M35.1,47.3c-0.4-0.8-1.2-1.4-2.3-1.8c-0.5-0.1-1.1-0.2-1.6-0.1L31,45.5c-0.3,0.1-0.6,0.2-0.9,0.4
		c-0.3,0.1-0.7,0.4-1,0.8c-0.4,0.5-0.7,1.1-0.8,1.7c0,0,0,0,0,0c-0.3,1.1-0.2,2.1,0.2,3c0.4,0.8,1.2,1.4,2.3,1.7
		c0.4,0.1,0.8,0.2,1.2,0.2c0.6,0,1.2-0.2,1.7-0.5c0.8-0.5,1.4-1.4,1.7-2.5C35.7,49.2,35.6,48.2,35.1,47.3z M33.4,49.8
		c-0.2,0.7-0.4,1.2-0.9,1.4c-0.5,0.3-0.9,0.3-1.3,0.2c-0.6-0.2-0.9-0.4-1-0.8c-0.2-0.4-0.2-1,0-1.7c0.3-0.7,0.5-1.3,0.9-1.4
		c0,0,0,0,0.1,0c0.3-0.3,0.7-0.3,1.1-0.2c0.6,0.2,0.9,0.4,1,0.8C33.6,48.5,33.6,49.1,33.4,49.8z"/>
	<path class="st0" d="M42.7,48.5l-1.4-0.4c-0.2,0-0.3,0-0.3,0.2L39.8,52c-0.1,0.3-0.2,0.5-0.2,0.7c-0.1,0.2-0.1,0.3-0.1,0.4
		c-0.1,0.1-0.2,0.3-0.4,0.4c-0.1,0-0.3,0.1-0.7,0c-0.3-0.1-0.5-0.2-0.6-0.4c-0.1-0.1-0.2-0.4-0.2-0.6c0-0.1,0.1-0.4,0.3-1l1-3.7
		c0-0.1,0-0.3-0.2-0.3l-1.3-0.4c-0.1,0-0.3,0-0.4,0.2l-1.2,3.6c-0.3,0.9-0.4,1.5-0.4,1.9c0,0.3,0.1,0.7,0.2,1
		c0.1,0.4,0.4,0.7,0.7,0.9c0.3,0.2,0.8,0.4,1.5,0.6c0.6,0.2,1.1,0.2,1.5,0.2c0.4,0,0.8-0.1,1.1-0.3c0.4-0.1,0.6-0.5,0.8-0.8
		c0.2-0.3,0.4-0.9,0.6-1.8l1-3.6C42.9,48.7,42.8,48.6,42.7,48.5z"/>
	<path class="st0" d="M48.9,51.8c0.1,0,0.1-0.1,0.1-0.2l0.3-1.1c0-0.2,0-0.3-0.2-0.3l-5.4-1.5c-0.1,0-0.2,0-0.2,0
		c-0.1,0-0.1,0.1-0.1,0.2L43.1,50c0,0.1,0,0.3,0.2,0.3l1.7,0.5l-1.5,5.3c0,0.1,0,0.2,0,0.2c0,0.1,0.1,0.1,0.2,0.1l1.4,0.3
		c0,0,0,0,0.1,0c0.1,0,0.2-0.1,0.3-0.2l1.5-5.3l1.7,0.5C48.8,51.9,48.9,51.9,48.9,51.8z"/>
	<path class="st0" d="M55.7,51.9l-1.4-0.4c-0.1,0-0.2,0-0.2,0c-0.1,0-0.1,0.1-0.1,0.2l-0.6,2.4l-2.1-0.6l0.6-2.3
		c0-0.1,0-0.3-0.2-0.3l-1.4-0.4c-0.1,0-0.2,0-0.2,0c-0.1,0-0.1,0.1-0.1,0.2L48,57.5c0,0.1,0,0.2,0,0.2c0,0.1,0.1,0.1,0.2,0.1
		l1.4,0.3c0.1,0,0.3-0.1,0.3-0.2l0.7-2.7l2.2,0.6l-0.7,2.7c0,0.1,0,0.3,0.2,0.3l1.4,0.4c0,0,0.1,0,0.1,0c0,0,0.1,0,0.1,0
		c0.1,0,0.1-0.1,0.1-0.2l1.8-6.8C55.9,52.1,55.8,52,55.7,51.9z"/>
	<path class="st0" d="M64.8,56.6c0.1-0.4,0.1-0.7,0-1.1c-0.1-0.3-0.2-0.5-0.4-0.8c-0.2-0.3-0.4-0.5-0.7-0.6c-0.1,0-0.2-0.1-0.3-0.1
		c-0.3-0.1-0.6-0.2-0.9-0.3L59.7,53c-0.2,0-0.3,0-0.3,0.2L57.4,60c0,0.1,0,0.2,0,0.2c0,0.1,0.1,0.1,0.2,0.1l2.3,0.6
		c0.4,0.1,0.7,0.2,1,0.3c0.4,0.1,0.6,0.2,0.7,0.2c0.4,0,0.7,0,1.1-0.1c0.3-0.1,0.7-0.2,0.9-0.6c0.3-0.3,0.5-0.6,0.6-0.9
		c0.1-0.4,0-0.8-0.1-1.1l-0.1-0.2c-0.1-0.2-0.3-0.5-0.4-0.6c0.2-0.1,0.3-0.2,0.4-0.3C64.5,57.3,64.7,56.9,64.8,56.6z M61.4,55.2
		c0.9,0.1,1,0.2,1,0.2c0,0,0.1,0.1,0.1,0.1c0.2,0.1,0.3,0.1,0.3,0.2c0,0.1,0,0.1,0,0.2c0,0.1,0,0.2,0,0.2c0,0,0,0.1,0,0.1
		c0,0,0,0.2-0.1,0.2c-0.1,0.1-0.3,0.1-0.5,0.1c-0.1,0-0.2,0-0.4-0.1c-0.2,0-0.3-0.1-0.5-0.1l-0.6-0.1l0.3-1.1L61.4,55.2z M61.1,58.1
		c0.5,0.1,0.9,0.3,1.1,0.4c0.1,0.1,0.1,0.2,0.2,0.3c0.1,0.1,0.1,0.2,0,0.3c0,0,0,0.1,0,0.1c0,0,0,0.2-0.1,0.2
		c-0.1,0.1-0.3,0.1-0.5,0.1c-0.1,0-0.2,0-0.4-0.1c-0.1,0-0.3-0.1-0.5-0.1l-1-0.2l0.3-1.2L61.1,58.1z"/>
	<path class="st0" d="M76.4,57.5l-1.5-0.4c-0.1,0-0.2,0-0.3,0.1l-4.3,5.9l0.2-0.8c0-0.1,0-0.2,0-0.2c0-0.1-0.1-0.1-0.2-0.1L66.7,61
		l0.4-1.4l3.1,0.8c0.2,0,0.3-0.1,0.3-0.2l0.3-1.1c0-0.1,0-0.2,0-0.2c0-0.1-0.1-0.1-0.2-0.1L67.5,58l0.3-1l3.4,0.9c0.1,0,0.2,0,0.2,0
		c0.1,0,0.1-0.1,0.1-0.2l0.3-1.2c0-0.2-0.1-0.3-0.2-0.3l-5-1.3c-0.2,0-0.3,0.1-0.3,0.2l-1.8,6.8c0,0.1,0,0.2,0,0.2s0.1,0.1,0.2,0.1
		l5.1,1.3c0,0,0,0,0.1,0c0,0,0.1,0,0.1,0c0,0,0,0,0,0.1c0,0.1,0.1,0.2,0.2,0.2l1.5,0.4c0.1,0,0.2,0,0.3-0.1l0.9-1.2l2.3,0.6l0.2,1.5
		c0,0.1,0.1,0.2,0.2,0.2l1.5,0.4c0,0,0,0,0.1,0c0.1,0,0.1,0,0.2-0.1c0.1-0.1,0.1-0.2,0.1-0.2l-0.9-7.5
		C76.6,57.6,76.5,57.5,76.4,57.5z M75.1,61.5L74,61.2l0.9-1.3L75.1,61.5z"/>
	<path class="st0" d="M82.3,64c-0.1,0-0.2-0.1-0.2,0c-0.1,0-0.1,0.1-0.2,0.2c-0.1,0.4-0.4,0.6-0.7,0.8c-0.2,0.1-0.5,0.1-0.8,0
		c-0.4-0.1-0.6-0.3-0.8-0.7c-0.2-0.5-0.2-1.1,0.1-1.8c0.2-0.6,0.5-1.1,0.9-1.4c0.3-0.1,0.7-0.3,1.2-0.1c0.3,0.1,0.5,0.3,0.7,0.5
		c0.2,0.2,0.2,0.5,0.2,0.8c0,0.1,0.1,0.3,0.3,0.3l1.4,0.1c0.1,0,0.2,0,0.2-0.1c0.1-0.1,0.1-0.1,0.1-0.2c0-0.6-0.1-1.2-0.3-1.6
		c-0.4-0.7-1-1.2-2-1.5c-1-0.3-1.9-0.2-2.8,0.2c-0.8,0.4-1.4,1.2-1.8,2.5c-0.3,1.2-0.3,2.2,0.1,3c0.4,0.9,1.1,1.4,2.1,1.7
		c0.4,0.1,0.8,0.2,1.1,0.2c0.4,0,0.7-0.1,1-0.2c0.7-0.2,1.2-0.7,1.7-1.4c0.1-0.1,0-0.3-0.1-0.4L82.3,64z"/>
	<path class="st0" d="M91.8,62.4c0-0.1-0.1-0.1-0.2-0.1l-1.4-0.4c-0.2,0-0.3,0-0.3,0.2l-0.8,2.3l-2.1-0.7l0.8-2.3c0-0.1,0-0.2,0-0.2
		c0-0.1-0.1-0.1-0.2-0.1l-1.4-0.4c-0.1,0-0.3,0-0.3,0.2l-2.2,6.7c0,0.1,0,0.2,0,0.2s0.1,0.1,0.2,0.1l1.4,0.4c0.1,0,0.3,0,0.3-0.2
		l0.9-2.6l2.1,0.7l-0.9,2.6c0,0.1,0,0.2,0,0.2c0,0.1,0.1,0.1,0.2,0.1l1.4,0.4c0,0,0.1,0,0.1,0c0.1,0,0.2-0.1,0.3-0.2l2.2-6.7
		C91.9,62.5,91.9,62.4,91.8,62.4z"/>
</g>
</svg>
