<?xml version="1.0" encoding="utf-8"?>
<!-- Generator: Adobe Illustrator 28.2.0, SVG Export Plug-In . SVG Version: 6.00 Build 0)  -->
<svg version="1.1" id="Calque_1" xmlns="http://www.w3.org/2000/svg" xmlns:xlink="http://www.w3.org/1999/xlink" x="0px" y="0px"
	 viewBox="0 0 113.4 113.4" style="enable-background:new 0 0 113.4 113.4;" xml:space="preserve">
<style type="text/css">
	.st0{fill:#E763A0;}
</style>
<g>
	<path class="st0" d="M27.9,54c0.3,0,0.5,0.1,0.8,0.2c0,0,0,0.1,0.1,0.1c0.1,0.2,0.2,0.3,0.2,0.5c0,0.2,0.1,0.3,0.3,0.3h1.4
		c0.2,0,0.3-0.1,0.3-0.3c0-0.8-0.2-1.3-0.7-1.8c-0.5-0.4-1.2-0.7-2.2-0.8c-0.4,0-0.9,0.1-1.5,0.2c-0.5,0.1-0.8,0.4-1,0.7
		c-0.3,0.3-0.5,0.7-0.5,1.2c0,0.7,0.3,1.2,0.7,1.7c0.4,0.4,1,0.6,1.6,0.8c0.2,0.1,0.4,0.1,0.6,0.2c0.3,0.1,0.5,0.2,0.6,0.2
		c0.1,0.1,0.3,0.1,0.3,0.2c0,0,0,0.1,0.1,0.1c0,0,0,0.1,0,0.2c0,0.1-0.1,0.3-0.3,0.5c-0.3,0.1-0.5,0.2-0.9,0.2
		c-0.3,0-0.6-0.2-0.8-0.3c-0.1-0.1-0.3-0.5-0.3-0.9c0-0.1,0-0.2-0.1-0.2c-0.1-0.1-0.1-0.1-0.2-0.1l-1.4,0.1c-0.1,0-0.3,0.1-0.3,0.3
		c0,1,0.4,1.6,0.8,2c0.6,0.6,1.5,0.8,2.3,0.9c0.6,0,1.2,0,1.6-0.2c0.4-0.1,0.9-0.4,1.2-0.8l0.1-0.2c0.2-0.3,0.3-0.6,0.3-1
		c0-0.5,0-1-0.3-1.3c-0.1-0.4-0.5-0.7-0.8-0.9c-0.2-0.1-0.5-0.3-0.8-0.4c-0.2-0.1-0.4-0.2-0.6-0.3l-0.2,0c-0.5-0.1-0.9-0.2-1-0.4
		c-0.1-0.1-0.1-0.1-0.1-0.2c0-0.1,0-0.1,0.1-0.2C27.3,54,27.6,54,27.9,54z"/>
	<path class="st0" d="M35.9,52.6c-0.3-0.1-0.9-0.1-1.8-0.1h-2.3c-0.2,0-0.3,0.1-0.3,0.3l-0.1,7c0,0.2,0.1,0.3,0.3,0.3l1.5,0.1
		c0,0,0,0,0,0c0.1,0,0.1,0,0.2-0.1c0.1-0.1,0.1-0.1,0.1-0.2v-2.4h0.6c0.6,0,1.1,0,1.6-0.1c0.3,0,0.6-0.1,0.9-0.4
		c0.2-0.2,0.4-0.4,0.6-0.7c0,0,0,0,0-0.1c0.1-0.4,0.2-0.8,0.2-1.2c0-0.7-0.1-1.1-0.5-1.6C36.7,53,36.4,52.7,35.9,52.6z M35.5,55
		c0,0.1-0.1,0.3-0.1,0.4c-0.1,0.1-0.2,0.1-0.3,0.2c-0.1,0.1-0.5,0.1-1,0.1h-0.5v-1.4h0.4c0.3,0,0.5,0,0.7,0.1c0.1,0,0.2,0,0.3,0
		c0.3,0,0.3,0.1,0.3,0.1c0,0,0,0.1,0.1,0.1C35.4,54.6,35.5,54.8,35.5,55z"/>
	<path class="st0" d="M41.3,52.4c-0.6,0-1.2,0.1-1.6,0.3c-0.3,0.1-0.7,0.3-1,0.7c-0.3,0.3-0.5,0.6-0.8,1.1c-0.2,0.5-0.3,1.2-0.3,1.9
		c0,1.2,0.3,2.2,1,2.8c0.6,0.7,1.6,1.1,2.7,1.1c0,0,0,0,0,0c0.1,0,0.2,0,0.3,0c0.9,0,1.8-0.4,2.4-1c0.6-0.7,1-1.7,1-2.9
		c0-1.2-0.3-2.1-1-2.9C43.4,52.8,42.5,52.4,41.3,52.4z M43.2,56.4c0,0.7-0.2,1.3-0.5,1.6c-0.4,0.4-0.7,0.5-1.2,0.5
		c-0.5,0-0.8-0.1-1.2-0.5c-0.3-0.3-0.5-0.9-0.5-1.6c0-0.8,0.2-1.3,0.6-1.6c0,0,0,0,0-0.1c0.3-0.4,0.8-0.5,1.2-0.5
		c0.5,0,0.8,0.1,1.2,0.5C42.9,55,43.2,55.5,43.2,56.4z"/>
	<path class="st0" d="M51.7,58.6c-0.4-0.8-0.7-1.1-0.9-1.3c-0.1-0.1-0.2-0.2-0.3-0.2c0.4-0.2,0.7-0.4,0.9-0.6
		c0.4-0.4,0.6-0.9,0.6-1.5c0-0.5-0.1-0.9-0.3-1.3c-0.3-0.4-0.6-0.7-0.9-0.8c-0.4-0.1-1-0.2-1.7-0.2h-3c-0.2,0-0.3,0.1-0.3,0.3
		l-0.1,7c0,0.1,0,0.2,0.1,0.2s0.1,0.1,0.2,0.1l1.4-0.1c0.1,0,0.3-0.1,0.3-0.3v-2.6h0c0.3,0,0.4,0,0.6,0.1c0.1,0.1,0.2,0.1,0.4,0.4
		c0.1,0.1,0.3,0.4,0.7,1l1,1.5c0.1,0.1,0.1,0.1,0.2,0.1h1.7c0.1,0,0.2-0.1,0.2-0.1c0.1-0.1,0.1-0.2,0-0.3L51.7,58.6z M50,55
		c0,0.1,0,0.3,0,0.3c-0.1,0.1-0.2,0.2-0.3,0.2c-0.1,0.1-0.6,0.1-1.2,0.1h-0.8l0.1-1.1h1.8c0.1,0,0.2,0,0.3,0.1
		C49.9,54.7,50,54.9,50,55z"/>
	<path class="st0" d="M58.2,52.7h-5.6c-0.2,0-0.3,0.1-0.3,0.3v1.2c0,0.1,0,0.2,0.1,0.2c0.1,0.1,0.1,0.1,0.2,0.1l1.8-0.1V60
		c0,0.1,0.1,0.3,0.3,0.3l1.4,0.1c0,0,0,0,0,0c0.1,0,0.1,0,0.2-0.1c0.1-0.1,0.1-0.1,0.1-0.2v-5.6h1.8c0.2,0,0.3-0.1,0.3-0.3V53
		C58.5,52.8,58.4,52.7,58.2,52.7z"/>
	<path class="st0" d="M74.2,58.9c-0.4-0.8-0.7-1.1-0.9-1.3c-0.1-0.1-0.2-0.2-0.3-0.3c0.4-0.1,0.7-0.3,1-0.5c0.4-0.4,0.6-0.9,0.6-1.5
		c0-0.5-0.1-0.9-0.3-1.3c-0.2-0.3-0.4-0.6-0.9-0.8c-0.4-0.1-1-0.2-1.7-0.2c0,0,0,0,0,0l-3-0.1c-0.1,0-0.1,0-0.2,0.1
		c-0.1,0.1-0.1,0.1-0.1,0.2L68.2,59L66,53c0-0.1-0.1-0.2-0.3-0.2h-1.5c-0.1,0-0.2,0.1-0.3,0.2l-2.9,7c0,0.1,0,0.2,0,0.3
		c0.1,0.1,0.1,0.1,0.2,0.1h1.5c0.1,0,0.2-0.1,0.3-0.2l0.5-1.4l2.4,0.1l0.5,1.4c0,0.1,0.1,0.2,0.3,0.2h1.5c0,0,0,0,0,0c0,0,0,0,0.1,0
		l1.4-0.1c0.1,0,0.3-0.1,0.3-0.3l0.1-2.6h0c0.2,0,0.5,0,0.5,0c0.1,0.1,0.2,0.1,0.2,0.2c0,0,0.1,0.1,0.1,0.1c0,0.1,0.1,0.2,0.2,0.3
		c0.1,0.2,0.3,0.4,0.5,0.8l1,1.6c0,0.1,0.1,0.1,0.2,0.1l1.7,0.1c0,0,0,0,0,0c0.1,0,0.2,0,0.2-0.1c0.1-0.1,0.1-0.2,0-0.3L74.2,58.9z
		 M72.7,55.4c0,0.1-0.1,0.3-0.1,0.3c0,0,0,0-0.1,0.1c0,0.1-0.1,0.1-0.1,0.1h-2.1l0.1-1.2l0.8,0c0.2,0,0.6,0.1,1,0.1
		c0.1,0.1,0.3,0.2,0.4,0.2C72.7,55.1,72.7,55.2,72.7,55.4z M65.3,57.1h-1.1l0.6-1.5L65.3,57.1z"/>
	<path class="st0" d="M88.7,60.8l-2.5-7.2c0-0.1-0.1-0.2-0.3-0.2h-1.5c-0.1,0-0.2,0.1-0.3,0.2l-3,6.9v-1.1c0-0.2-0.1-0.3-0.3-0.3
		L77.3,59l0.1-1.3l3.2,0.1c0.1,0,0.2,0,0.2-0.1c0.1-0.1,0.1-0.1,0.1-0.2v-1.2c0-0.2-0.1-0.3-0.3-0.3l-3.2-0.1l0.1-0.8l3.5,0.1
		c0.1,0,0.2,0,0.2-0.1c0.1-0.1,0.1-0.1,0.1-0.2v-1.2c0-0.2-0.1-0.3-0.3-0.3l-5.2-0.2c-0.1,0-0.1,0-0.2,0.1c-0.1,0.1-0.1,0.1-0.1,0.2
		l-0.2,7c0,0.1,0,0.1,0.1,0.2c0.1,0.1,0.1,0.1,0.2,0.1l5.3,0.1c0,0,0,0,0,0c0.1,0,0.1,0,0.2-0.1c0,0,0,0,0-0.1c0,0,0,0.1,0,0.1
		c0.1,0.1,0.1,0.1,0.2,0.1h1.5c0.1,0,0.2-0.1,0.3-0.2l0.5-1.4l2.4,0.1l0.5,1.5c0,0.1,0.1,0.2,0.3,0.2h1.5c0.1,0,0.2,0,0.2-0.1
		C88.7,61,88.7,60.9,88.7,60.8z M85.5,57.7h-1.1l0.6-1.5L85.5,57.7z"/>
</g>
</svg>
