<?xml version="1.0" encoding="utf-8"?>
<!-- Generator: Adobe Illustrator 28.2.0, SVG Export Plug-In . SVG Version: 6.00 Build 0)  -->
<svg version="1.1" id="Calque_1" xmlns="http://www.w3.org/2000/svg" xmlns:xlink="http://www.w3.org/1999/xlink" x="0px" y="0px"
	 viewBox="0 0 113.4 113.4" style="enable-background:new 0 0 113.4 113.4;" xml:space="preserve">
<style type="text/css">
	.st0{fill:#E8629F;}
</style>
<g>
	<path class="st0" d="M22.5,67c-0.3-0.2-0.7-0.3-1.1-0.4c-0.4-0.1-1-0.1-1.7,0c-0.8,0.1-1.1,0.1-1.3,0c0,0,0,0-0.1-0.1
		c0-0.1,0-0.2,0-0.2c0,0,0,0,0.1-0.1c0-0.1,0.2-0.3,0.6-0.4c0.4-0.1,0.6-0.1,0.7,0c0.2,0.1,0.3,0.2,0.5,0.5c0.1,0.1,0.2,0.2,0.3,0.1
		l1.3-0.5c0.1-0.1,0.2-0.2,0.2-0.4c-0.2-0.6-0.6-1.1-1.4-1.5c-0.7-0.2-1.5-0.2-2.3,0.1c-0.5,0.2-0.9,0.4-1.3,0.7
		c-0.4,0.2-0.6,0.6-0.7,1.1c-0.1,0.5-0.1,0.9,0,1.3c0.2,0.7,0.7,1.1,1.2,1.3c0.4,0.3,1.1,0.3,1.9,0.2c0.6-0.1,1-0.1,1.2-0.1
		c0.2,0,0.4,0,0.4,0c0.1,0.1,0.2,0.2,0.3,0.2c0,0.1,0,0.3-0.1,0.4c-0.2,0.2-0.4,0.4-0.7,0.5c-0.3,0.1-0.7,0.1-0.9,0
		c-0.2-0.1-0.5-0.3-0.6-0.7C18.8,69,18.7,69,18.5,69l-1.3,0.6c-0.1,0.1-0.2,0.2-0.1,0.4c0.3,0.7,0.8,1.3,1.6,1.7
		c0.3,0.1,0.6,0.1,0.8,0.1c0.5,0,1-0.1,1.4-0.4c0.6-0.2,1.1-0.4,1.5-0.7c0.4-0.2,0.7-0.6,0.8-1.2c0.1-0.4,0.1-0.9,0-1.3
		C23.1,67.8,22.9,67.3,22.5,67z"/>
	<path class="st0" d="M28.1,61.5c0-0.1-0.2-0.2-0.3-0.2l-1.4,0.4c-0.1,0-0.1,0.1-0.2,0.1c0,0.1,0,0.1,0,0.2l1.2,3.7
		c0.2,0.7,0.3,1,0.3,1.1c0,0.1-0.1,0.3-0.2,0.5c-0.2,0.2-0.3,0.3-0.6,0.4c-0.3,0.1-0.6,0.1-0.8,0l-0.1,0c-0.2-0.1-0.3-0.2-0.4-0.3
		c0,0,0-0.1-0.1-0.1c0,0-0.1-0.2-0.2-1l-1.2-3.6c0-0.1-0.2-0.2-0.3-0.2L22.4,63c-0.1,0-0.1,0.1-0.2,0.1c0,0.1,0,0.1,0,0.2l1.1,3.6
		c0.3,0.8,0.5,1.3,0.7,1.7c0.2,0.3,0.6,0.5,0.9,0.6c0.1,0,0.2,0.1,0.2,0.1c0.2,0.1,0.5,0.2,0.8,0.2c0.1,0,0.3,0,0.4,0
		c0.3,0,0.7-0.1,1.3-0.3c0.5-0.2,0.9-0.4,1.3-0.6c0.3-0.2,0.6-0.6,0.7-0.9c0.1-0.3,0.1-0.7,0.1-1.1c0-0.2,0-0.8-0.4-1.8L28.1,61.5z"
		/>
	<path class="st0" d="M35.9,62.9c-0.2-0.1-0.5-0.2-0.7-0.3c0.1-0.2,0.2-0.3,0.2-0.5c0.1-0.4,0.1-0.7,0-1.1c-0.1-0.4-0.4-0.6-0.6-0.8
		c-0.2-0.2-0.5-0.4-0.8-0.5c-0.3-0.1-0.6-0.1-0.9-0.1c-0.3,0-0.8,0.1-1.3,0.3l-2.7,0.9c-0.1,0-0.2,0.2-0.2,0.4l2.2,6.7
		c0,0.1,0.1,0.2,0.3,0.2c0,0,0.1,0,0.1,0l2.3-0.7c0.3-0.1,0.6-0.2,0.8-0.3c0.4-0.1,0.7-0.2,0.8-0.3c0.4-0.1,0.7-0.4,0.9-0.7
		c0.2-0.3,0.4-0.7,0.4-1.1c0-0.4,0-0.7-0.1-1.1C36.5,63.5,36.3,63.1,35.9,62.9z M34.6,65.3c-0.1,0-0.4,0.1-0.9,0.3l-1,0.3l-0.4-1.2
		l0.9-0.2c0.7-0.2,1-0.3,1.1-0.3c0.1,0,0.3,0.1,0.3,0.1c0.1,0.1,0.2,0.3,0.2,0.4c0.1,0.1,0.1,0.2,0,0.3
		C34.7,65.2,34.7,65.3,34.6,65.3z M33.3,62.5c-0.2,0-0.6,0.2-1,0.3L31.6,63L31.3,62l0.5-0.2c0.9-0.3,1.1-0.3,1.1-0.3
		c0.2,0,0.3,0,0.4,0.1c0.1,0.1,0.1,0.3,0.2,0.4c0.1,0.1,0.1,0.2,0,0.3C33.5,62.4,33.4,62.4,33.3,62.5z"/>
	<path class="st0" d="M41.8,57.1c0-0.1-0.2-0.2-0.3-0.2l-1.4,0.4c-0.1,0-0.1,0.1-0.2,0.1c0,0.1,0,0.2,0,0.2l1.3,3.7
		c0.2,0.7,0.3,1,0.3,1.1c0,0.1-0.1,0.3-0.2,0.5c-0.2,0.2-0.3,0.3-0.6,0.4c-0.3,0.1-0.6,0.1-0.8,0l-0.1,0c-0.2-0.1-0.3-0.2-0.4-0.3
		c-0.1-0.2-0.2-0.5-0.4-1.1l-1.2-3.6c0-0.1-0.2-0.2-0.3-0.2l-1.4,0.4c-0.1,0-0.1,0.1-0.2,0.1c0,0.1,0,0.1,0,0.2l1.2,3.5
		c0.3,0.8,0.5,1.3,0.7,1.7c0.1,0.2,0.4,0.6,0.8,0.7c0.1,0,0.2,0.1,0.2,0.1c0.2,0.1,0.5,0.2,0.8,0.2c0.1,0,0.3,0,0.4,0
		c0.3,0,0.7-0.1,1.3-0.3c0.5-0.2,0.9-0.4,1.3-0.6c0.3-0.2,0.6-0.6,0.7-0.9c0.1-0.3,0.1-0.7,0.1-1.1c0-0.2,0-0.8-0.4-1.8L41.8,57.1z"
		/>
	<path class="st0" d="M50.2,60.2c-0.1-0.1-0.2-0.2-0.3-0.3c-0.3-0.3-0.6-0.5-0.9-0.6l-0.3-0.1c0.3-0.2,0.5-0.5,0.7-0.9
		c0.1-0.5,0.2-1,0-1.5c-0.1-0.3-0.3-0.9-0.7-1.1c-0.3-0.3-0.7-0.5-1.2-0.5c-0.4,0-1,0.1-1.7,0.3L43,56.4c-0.1,0-0.1,0.1-0.2,0.1
		c0,0.1,0,0.1,0,0.2l2.1,6.7c0,0.1,0.1,0.1,0.1,0.2c0,0,0.1,0,0.1,0c0,0,0.1,0,0.1,0l1.5-0.5c0.1,0,0.2-0.2,0.2-0.4l-0.8-2.5l0,0
		c0.3-0.1,0.4-0.1,0.6-0.1c0.2,0,0.2,0,0.3,0.1c0.1,0.1,0.3,0.2,0.5,0.4l1.9,1.5c0.1,0.1,0.2,0.1,0.3,0l1.6-0.5
		c0.1,0,0.2-0.1,0.2-0.2c0-0.1,0-0.2-0.1-0.3L50.2,60.2z M47.5,57.5v0.4c-0.1,0.1-0.1,0.2-0.2,0.2c-0.2,0.1-0.6,0.3-1.1,0.5
		l-0.7,0.2L45,57.6l0.8-0.2c0.5-0.2,0.8-0.3,0.9-0.3c0.2,0,0.3,0,0.5,0.1C47.3,57.2,47.4,57.3,47.5,57.5z"/>
	<path class="st0" d="M68.2,48.4l-1.3,0.4c-0.1,0-0.1,0.1-0.2,0.1c0,0.1,0,0.1,0,0.2l1.1,3.5l-3.3-2.9c-0.1-0.1-0.2-0.1-0.3-0.1
		l-1.3,0.4c-0.1,0-0.1,0.1-0.2,0.1c0,0.1,0,0.1,0,0.2l1.7,5.5l-4.2-4.9C60.2,51,60.1,51,59.9,51l-1.4,0.5c-0.1,0-0.2,0.1-0.2,0.2
		l-0.5,7.5c0,0.1,0,0.2,0.1,0.2c0,0,0.1,0.1,0.2,0.1c0,0,0.1,0,0.1,0l1.4-0.5c0.1,0,0.2-0.1,0.2-0.2l0.1-1.5l2.3-0.8l1,1.2
		c0.1,0.1,0.2,0.1,0.3,0.1l1.5-0.5c0,0,0,0,0,0c0,0,0.1,0,0.1,0l1.2-0.4c0.1,0,0.2-0.2,0.2-0.4l-1.1-3.5l3.3,2.9
		c0.1,0.1,0.2,0.1,0.3,0.1l1.4-0.4c0.1,0,0.1-0.1,0.2-0.1c0-0.1,0-0.1,0-0.2l-2.1-6.7C68.5,48.5,68.3,48.4,68.2,48.4z M61.1,55.2
		l-1,0.3l0.1-1.6L61.1,55.2z"/>
	<path class="st0" d="M91.2,47c-0.2-0.2-0.5-0.4-1.1-0.6c-0.2,0-0.3,0-0.6,0c-0.3,0-0.6-0.1-1-0.1c-0.7,0-1.2-0.1-1.3-0.2
		c-0.1-0.1-0.1-0.1-0.1-0.1c0,0,0-0.1,0-0.1c0-0.1,0-0.2,0.1-0.2c0.1-0.2,0.3-0.3,0.7-0.4c0.4-0.1,0.6-0.1,0.7,0
		c0.2,0.1,0.3,0.3,0.4,0.5c0,0.1,0.2,0.2,0.3,0.2l1.4-0.2c0.1,0,0.1-0.1,0.2-0.1s0.1-0.1,0.1-0.2c-0.1-0.9-0.7-1.3-1.1-1.6
		c-0.5-0.3-1.3-0.4-2.4-0.1c-0.5,0.2-1,0.4-1.4,0.7c-0.1,0.1-0.1,0.1-0.2,0.2c-0.2,0.2-0.5,0.4-0.6,0.8c-0.2,0.4-0.2,0.9-0.1,1.2
		c0.2,0.6,0.6,1,1.1,1.3c0.3,0.2,1,0.3,1.9,0.3h1.2c0.3,0,0.4,0.1,0.4,0.1c0.1,0.1,0.1,0.1,0.1,0.2c0,0.2,0,0.4-0.1,0.5
		c0,0,0,0-0.1,0.1c0,0.1-0.3,0.2-0.7,0.4c-0.3,0.1-0.6,0.1-0.9-0.1c-0.2-0.1-0.4-0.4-0.6-0.8c-0.1-0.1-0.2-0.2-0.3-0.1l-1.4,0.4
		c-0.1,0-0.1,0.1-0.2,0.1c0,0.1,0,0.2,0,0.2c0,0.1,0.1,0.2,0.1,0.3L82.6,45c-0.1-0.1-0.2-0.1-0.3-0.1l-1.4,0.3
		c-0.1,0-0.2,0.1-0.2,0.2l-1.1,7.2l-0.2-0.7c0-0.1-0.2-0.2-0.3-0.2l-3.5,0.8l-0.3-1.3l3.1-0.7c0.1,0,0.2-0.2,0.2-0.3l-0.2-1.2
		c0-0.1-0.1-0.1-0.1-0.2c-0.1,0-0.1-0.1-0.2,0l-3.1,0.7l-0.3-1l3.4-0.8c0.1,0,0.1-0.1,0.2-0.1c0-0.1,0.1-0.1,0-0.2L78,46.1
		c0-0.2-0.2-0.2-0.3-0.2l-5.1,1.2c-0.2,0-0.2,0.2-0.2,0.3l1.6,6.9c0,0.1,0.1,0.2,0.3,0.2c0,0,0,0,0.1,0l5.2-1.1
		c0.1,0,0.1-0.1,0.2-0.1c0,0,0-0.1,0-0.1c0,0,0.1,0.1,0.1,0.1c0,0,0,0,0.1,0l1.5-0.3c0.1,0,0.2-0.1,0.2-0.2l0.2-1.6l2.3-0.5l0.9,1.2
		c0.1,0.1,0.2,0.1,0.3,0.1l1.5-0.3c0.1,0,0.2-0.1,0.2-0.2c0-0.1,0-0.2,0-0.3l-0.4-0.5c0.2,0.1,0.3,0.2,0.5,0.3
		c0.3,0.2,0.7,0.3,1.2,0.3c0.3,0,0.7,0,1.1-0.1c0.6-0.1,1.1-0.3,1.6-0.6c0.3-0.3,0.7-0.7,0.8-1.1c0.2-0.4,0.3-0.9,0.1-1.4
		C91.7,47.7,91.6,47.4,91.2,47z M83.1,49.1l-1,0.3l0.2-1.6L83.1,49.1z"/>
	<path class="st0" d="M96.7,41.8c0-0.2-0.2-0.2-0.3-0.2L91,42.9c-0.1,0-0.1,0.1-0.2,0.1c0,0.1-0.1,0.1,0,0.2l0.3,1.2
		c0,0.1,0.1,0.1,0.1,0.2c0.1,0,0.1,0.1,0.2,0l1.7-0.4l1.3,5.3c0,0.1,0.1,0.2,0.3,0.2c0,0,0,0,0,0l1.4-0.2c0.1,0,0.2-0.1,0.2-0.1
		c0-0.1,0.1-0.1,0-0.2l-1.3-5.4l1.7-0.4c0.1,0,0.1-0.1,0.2-0.1c0-0.1,0-0.1,0-0.2L96.7,41.8z"/>
	<path class="st0" d="M56.5,56.3C56.3,56.1,56,56,55.8,56c0.1-0.2,0.2-0.3,0.2-0.5c0-0.1,0-0.2,0.1-0.3c0-0.1,0-0.3,0-0.4
		c0-0.1,0-0.2-0.1-0.4c-0.1-0.2-0.2-0.3-0.3-0.5c0,0,0,0,0,0c-0.1-0.1-0.2-0.2-0.3-0.3c-0.2-0.2-0.5-0.4-0.8-0.5
		C54.3,53,54,53,53.7,53h0c0,0,0,0,0,0c-0.3,0-0.8,0.1-1.3,0.3l-2.7,0.9c-0.1,0-0.2,0.2-0.2,0.4l2.2,6.7c0,0.1,0.1,0.2,0.3,0.2
		c0,0,0.1,0,0.1,0l2.3-0.7c0.3-0.1,0.6-0.2,0.8-0.3c0.4-0.1,0.7-0.2,0.8-0.3c0.4-0.1,0.7-0.4,0.9-0.7l0.1-0.1
		c0.2-0.2,0.3-0.5,0.3-0.9c0-0.4,0-0.7-0.1-1.1C57.1,56.9,56.9,56.5,56.5,56.3z M55.4,58.4c-0.1,0.1-0.1,0.2-0.2,0.2
		c-0.1,0-0.4,0.1-0.9,0.3l-1,0.3l-0.4-1.2l0.9-0.2c0.7-0.2,1-0.3,1.1-0.3c0.1,0,0.3,0.1,0.3,0.1c0.1,0.1,0.2,0.3,0.2,0.4
		c0,0,0,0.1,0,0.1C55.4,58.3,55.4,58.3,55.4,58.4z M52.4,55.2c0.1,0,0.3-0.1,0.4-0.1c0.6-0.2,0.7-0.2,0.8-0.2c0.2,0,0.3,0,0.4,0
		c0.1,0.1,0.1,0.3,0.2,0.4c0.1,0.1,0.1,0.2,0,0.3c-0.1,0.1-0.2,0.2-0.3,0.2c-0.2,0-0.6,0.2-1,0.3l-0.6,0.2l-0.3-1.1L52.4,55.2z"/>
</g>
</svg>
