<?xml version="1.0" encoding="utf-8"?>
<!-- Generator: Adobe Illustrator 28.2.0, SVG Export Plug-In . SVG Version: 6.00 Build 0)  -->
<svg version="1.1" id="Calque_1" xmlns="http://www.w3.org/2000/svg" xmlns:xlink="http://www.w3.org/1999/xlink" x="0px" y="0px"
	 viewBox="0 0 113.4 113.4" style="enable-background:new 0 0 113.4 113.4;" xml:space="preserve">
<style type="text/css">
	.st0{fill:#E763A0;}
</style>
<g>
	<path class="st0" d="M19.7,62.3c-0.3-0.3-0.6-0.6-1-0.7c-0.5-0.1-1-0.2-1.6-0.3c-0.9-0.1-1.2-0.2-1.3-0.3c-0.1-0.1-0.1-0.1-0.1-0.1
		c0-0.1,0.1-0.3,0.1-0.3c0.1-0.1,0.4-0.2,0.7-0.3c0.4,0,0.5,0,0.6,0.2c0,0.1,0.1,0.1,0.1,0.1c0.1,0.1,0.3,0.3,0.4,0.5
		c0,0.1,0.2,0.2,0.3,0.2l1.4-0.3c0.1,0,0.2-0.2,0.2-0.3c-0.1-0.7-0.5-1.3-1-1.6c-0.6-0.3-1.3-0.4-2.2-0.3c-0.6,0-1,0.2-1.4,0.4
		c-0.5,0.2-0.7,0.6-0.9,0.9c-0.2,0.3-0.4,0.7-0.2,1.2c0.1,0.6,0.5,1.2,1,1.5c0.4,0.3,1,0.4,1.9,0.6c0.4,0,0.7,0,0.9,0.1
		c0.1,0,0.3,0,0.3,0c0.2,0,0.3,0.1,0.4,0.1c0.1,0.1,0.1,0.1,0.1,0.2c0,0,0,0.1,0,0.1c0,0.1,0,0.2-0.1,0.4c-0.1,0.1-0.4,0.2-0.8,0.3
		c-0.5,0-0.7,0-0.9-0.2c0,0,0,0-0.1,0c-0.2-0.1-0.4-0.4-0.5-0.8c-0.1-0.1-0.2-0.2-0.3-0.1l-1.3,0.3c-0.1,0-0.1,0.1-0.2,0.1
		c0,0.1-0.1,0.1,0,0.2c0.2,0.8,0.6,1.4,1.2,1.9c0.4,0.2,1,0.4,1.6,0.4c0.2,0,0.4,0,0.7,0c0.5-0.1,1-0.3,1.6-0.5
		c0.5-0.2,0.7-0.6,0.9-1c0.3-0.5,0.3-1,0.2-1.4C20.1,62.9,20,62.6,19.7,62.3z"/>
	<path class="st0" d="M26.1,57.5c0-0.1,0-0.1-0.1-0.2c-0.1,0-0.1-0.1-0.2-0.1l-1.4,0.2c-0.1,0-0.1,0.1-0.2,0.1
		c0,0.1-0.1,0.1-0.1,0.2l0.6,3.9c0.1,0.6,0.1,1,0.1,1.2c0,0.2-0.1,0.3-0.2,0.5c-0.1,0.1-0.4,0.2-0.8,0.3c-0.3,0.1-0.6,0-0.8-0.1
		c-0.1,0-0.2-0.1-0.3-0.4c0-0.1,0-0.3-0.1-0.6c0-0.2-0.1-0.4-0.1-0.6l-0.6-3.8c0-0.2-0.2-0.3-0.3-0.2l-1.4,0.2
		c-0.1,0-0.1,0.1-0.2,0.1c0,0.1-0.1,0.1,0,0.2l0.7,3.7c0.1,0.7,0.2,1.3,0.4,1.8c0.1,0.2,0.3,0.5,0.6,0.8c0.2,0.2,0.5,0.4,1,0.6
		c0.2,0.1,0.4,0.1,0.7,0.1c0.3,0,0.6,0,0.9-0.1c0.5,0,0.9-0.1,1.4-0.4c0.3-0.2,0.6-0.4,0.7-0.7c0.3-0.3,0.4-0.6,0.4-1
		c0.1-0.4,0-0.9-0.1-1.6L26.1,57.5z"/>
	<path class="st0" d="M33,59.8c0.1-0.1,0.2-0.3,0.3-0.5c0.1-0.3,0.1-0.7,0.1-1c0-0.4-0.1-0.8-0.4-1c-0.2-0.2-0.4-0.4-0.7-0.6
		l-0.2-0.1c-0.2-0.1-0.4-0.2-0.7-0.2c-0.2,0-0.6,0-1.2,0.1L27.4,57c-0.2,0-0.3,0.2-0.2,0.3l1,7.1c0,0.1,0.1,0.1,0.1,0.2
		c0,0,0.1,0.1,0.2,0.1c0,0,0,0,0,0l2.4-0.4c1.3-0.1,1.6-0.3,1.7-0.3c0.5-0.1,0.8-0.4,1-0.6c0.2-0.2,0.5-0.6,0.6-0.9
		c0.1-0.4,0.1-0.8,0.1-1.1c-0.1-0.4-0.2-0.8-0.6-1.1C33.5,60,33.2,59.9,33,59.8z M31.3,59.1L31.3,59.1c-0.1,0.1-0.3,0.2-0.5,0.3
		c0,0-0.2,0-0.4,0.1c-0.2,0-0.3,0-0.5,0.1l-0.6,0.1l-0.1-1l0.6-0.1c0.4-0.1,0.7-0.1,0.9-0.2c0.1,0,0.2,0,0.2,0c0,0,0,0,0,0
		c0,0,0,0,0,0c0,0.1,0.1,0.1,0.1,0.2c0.1,0.1,0.1,0.2,0.1,0.2c0,0,0,0.1,0,0.1C31.4,58.9,31.4,58.9,31.3,59.1z M30.6,61.1
		c0.6-0.1,1-0.1,1.2-0.1c0.1,0.1,0.3,0.2,0.4,0.2c0,0,0.1,0.2,0.1,0.3c0,0.2,0,0.3-0.1,0.5c-0.1,0.1-0.2,0.2-0.4,0.3
		c-0.1,0-0.2,0.1-0.4,0.1c-0.1,0-0.3,0-0.5,0.1l-1,0.2l-0.2-1.3L30.6,61.1z"/>
	<path class="st0" d="M40.4,55.4c0-0.1,0-0.1-0.1-0.2c-0.1,0-0.1-0.1-0.2-0.1l-1.4,0.2c-0.1,0-0.1,0.1-0.2,0.1
		c0,0.1-0.1,0.1-0.1,0.2l0.6,3.9c0.1,0.6,0.1,1,0.1,1.2c0,0.2-0.1,0.3-0.2,0.5c-0.1,0.1-0.4,0.2-0.8,0.3c-0.3,0.1-0.6,0-0.8-0.1
		c-0.1,0-0.2-0.1-0.3-0.4c0-0.1,0-0.3-0.1-0.6c0-0.2-0.1-0.4-0.1-0.6L36.2,56c0-0.2-0.2-0.3-0.3-0.2L34.5,56c-0.1,0-0.1,0.1-0.2,0.1
		c0,0.1-0.1,0.1-0.1,0.2l0.6,3.7c0.1,0.7,0.2,1.3,0.4,1.8c0.1,0.2,0.3,0.5,0.6,0.8c0.2,0.2,0.5,0.4,1,0.6c0.2,0.1,0.4,0.1,0.7,0.1
		c0.3,0,0.6,0,1-0.1c0.5-0.1,1.1-0.2,1.4-0.4c0.3-0.2,0.6-0.4,0.7-0.7c0.3-0.3,0.4-0.6,0.4-1c0.1-0.4,0-0.9-0.1-1.6L40.4,55.4z"/>
	<path class="st0" d="M48.1,59.8c-0.3-0.4-0.6-0.6-0.8-0.8c-0.1-0.1-0.1-0.1-0.2-0.2c-0.1-0.1-0.2-0.2-0.3-0.2
		c0.3-0.2,0.6-0.4,0.8-0.7c0.3-0.5,0.5-1,0.4-1.6c-0.1-0.6-0.2-0.9-0.6-1.2c-0.2-0.2-0.5-0.4-1.1-0.6c-0.4,0-1,0-1.7,0.1l-3,0.4
		c-0.1,0-0.1,0-0.2,0.1c0,0.1-0.1,0.1-0.1,0.2l1,7c0,0.1,0.1,0.1,0.1,0.2c0,0,0.1,0.1,0.2,0.1c0,0,0,0,0.1,0l1.5-0.3
		c0.1,0,0.2-0.2,0.2-0.3L44,59.3h0.7c0.1,0,0.1,0,0.2,0.1c0,0,0.1,0.1,0.2,0.1c0.1,0,0.3,0.2,0.8,0.8l1.2,1.4
		c0.1,0.1,0.2,0.1,0.3,0.1l1.7-0.3c0.1,0,0.2-0.1,0.2-0.2c0-0.1,0-0.2-0.1-0.3L48.1,59.8z M46,56.5c0,0.2,0,0.2-0.1,0.4
		c-0.1,0.1-0.1,0.2-0.3,0.3c-0.1,0.1-0.4,0.2-1.2,0.3l-0.7,0.1l-0.1-1.2l0.8-0.2c0.2,0,0.6-0.1,0.9-0.1c0.2,0,0.3,0.1,0.4,0.1
		c0,0,0,0,0.1,0.1C46,56.3,46,56.5,46,56.5z"/>
	<path class="st0" d="M54.3,56.7c0.2-0.2,0.3-0.4,0.4-0.6c0.1-0.3,0.1-0.7,0.1-1c0-0.4-0.1-0.8-0.4-1c-0.2-0.2-0.4-0.4-0.7-0.6
		l-0.2-0.1c-0.2-0.1-0.4-0.2-0.7-0.2c-0.2,0-0.6,0-1.2,0.1l-2.8,0.4c-0.2,0-0.3,0.2-0.2,0.3l0.9,7c0,0.1,0.1,0.2,0.3,0.2
		c0,0,0,0,0,0l2.4-0.3c1.3-0.1,1.6-0.2,1.7-0.3c0.5-0.1,0.8-0.4,1-0.6c0,0,0.1-0.1,0.1-0.1c0.2-0.2,0.4-0.3,0.5-0.7
		c0.1-0.4,0.1-0.8,0.1-1.1c-0.1-0.4-0.2-0.8-0.6-1.1C54.8,56.9,54.5,56.8,54.3,56.7z M52.7,55.9L52.7,55.9c-0.1,0.1-0.3,0.2-0.5,0.3
		c0,0-0.2,0-0.4,0.1c-0.2,0-0.3,0-0.5,0.1l-0.6,0.1l-0.1-1.1l0.3-0.1c0.5,0,0.9-0.1,1-0.1c0.1,0,0.1,0,0.1,0c0.2,0,0.3,0.1,0.4,0.1
		c0,0,0,0,0.1,0.1c0.1,0.1,0.1,0.2,0.1,0.2c0,0,0,0.1,0,0.1C52.8,55.7,52.8,55.7,52.7,55.9z M51.9,58c0.6-0.1,1-0.1,1.2-0.1
		c0.1,0.1,0.3,0.2,0.4,0.2c0,0,0.1,0.2,0.1,0.3c0,0.2,0,0.3-0.1,0.5c-0.1,0.1-0.2,0.2-0.4,0.3c-0.1,0-0.2,0.1-0.4,0.1
		c-0.1,0-0.3,0-0.5,0.1l-1,0.2L51,58.1L51.9,58z"/>
	<path class="st0" d="M68.1,51.3c-0.1,0-0.1-0.1-0.2-0.1l-1.3,0.2c-0.2,0-0.3,0.2-0.2,0.3l0.5,3.7l-2.9-3.5
		c-0.1-0.1-0.1-0.1-0.2-0.1l-1.3,0.1c-0.1,0-0.1,0-0.2,0.1c0,0.1-0.1,0.1-0.1,0.2l0.8,5.9l-3.2-5.6c-0.1-0.1-0.2-0.2-0.3-0.1
		l-1.5,0.2c-0.1,0-0.2,0.1-0.2,0.2l-1.8,7.3c0,0.1,0,0.2,0.1,0.3c0.1,0.1,0.1,0.1,0.2,0.1c0,0,0,0,0,0l1.5-0.2
		c0.1,0,0.2-0.1,0.2-0.2l0.4-1.4l2.4-0.3l0.8,1.3c0.1,0.1,0.2,0.1,0.3,0.1l1.5-0.2c0.1,0,0.1-0.1,0.2-0.1l1.2-0.1
		c0.1,0,0.1,0,0.2-0.1c0-0.1,0.1-0.1,0.1-0.2l-0.5-3.6l2.8,3.4c0.1,0.1,0.2,0.1,0.3,0.1l1.4-0.2c0.2,0,0.3-0.2,0.2-0.3l-0.9-7
		C68.2,51.4,68.1,51.3,68.1,51.3z M59.7,56.7l-1.1,0.1l0.3-1.6L59.7,56.7z"/>
	<path class="st0" d="M80.5,49.5l-1.4,0.2c-0.1,0-0.2,0.1-0.2,0.3l-0.3,3.8l-1.5-3.6c0-0.1-0.2-0.2-0.3-0.2l-1.7,0.2
		c-0.1,0-0.2,0.1-0.2,0.2l-0.5,3.8l-1.3-3.6c0-0.1-0.2-0.2-0.3-0.2l-1.4,0.2c-0.1,0-0.2,0.1-0.2,0.1s-0.1,0.2,0,0.2l2.6,6.8
		c0,0.1,0.1,0.2,0.3,0.2c0,0,0,0,0,0l1.5-0.2c0.1,0,0.2-0.1,0.2-0.2l0.6-4.4l1.7,4c0,0.1,0.2,0.2,0.3,0.2l1.5-0.2
		c0.1,0,0.2-0.1,0.2-0.3l0.7-7.2c0-0.1,0-0.2-0.1-0.2C80.6,49.5,80.5,49.5,80.5,49.5z"/>
	<path class="st0" d="M87.7,54.6c-0.1,0-0.1-0.1-0.2-0.1L83.8,55l-0.2-1.3l3.2-0.5c0.1,0,0.1-0.1,0.2-0.1s0.1-0.1,0.1-0.2l-0.2-1.2
		c0-0.2-0.2-0.3-0.3-0.2l-3.2,0.5l-0.1-0.9l3.5-0.5c0.1,0,0.1-0.1,0.2-0.1c0-0.1,0.1-0.1,0.1-0.2l-0.2-1.2c0-0.2-0.2-0.3-0.3-0.2
		l-5.1,0.7c-0.2,0-0.3,0.2-0.2,0.3l0.9,7c0,0.1,0,0.1,0.1,0.2c0,0,0.1,0.1,0.2,0.1c0,0,0,0,0,0l5.3-0.7c0.2,0,0.3-0.2,0.2-0.3
		l-0.1-1.2C87.8,54.7,87.7,54.6,87.7,54.6z"/>
	<path class="st0" d="M93.6,51.8c-0.3-0.3-0.6-0.6-1-0.7c-0.5-0.1-1-0.2-1.6-0.3c-0.3,0-0.6-0.1-0.9-0.1c-0.2,0-0.3,0-0.4-0.1
		c-0.1-0.1-0.1-0.1-0.1-0.1c0-0.1,0.1-0.3,0.1-0.3c0.1-0.1,0.4-0.2,0.8-0.3c0.2-0.1,0.5,0,0.7,0.1c0.1,0.1,0.3,0.2,0.5,0.7
		c0.1,0.1,0.2,0.2,0.3,0.2l1.4-0.3c0.1,0,0.2-0.2,0.2-0.3c-0.1-0.7-0.5-1.3-1-1.6c-0.6-0.3-1.3-0.4-2.2-0.3c-0.6,0-1,0.2-1.4,0.4
		c-0.5,0.2-0.7,0.6-0.9,0.9c-0.2,0.4-0.2,0.7-0.2,1.2c0,0.6,0.4,1.2,0.9,1.5c0.4,0.3,1.1,0.5,1.9,0.5c0.2,0,0.4,0.1,0.6,0.1
		c0.3,0.1,0.5,0.1,0.6,0.1c0.1,0,0.3,0.1,0.3,0.1c0.1,0.1,0.1,0.1,0.1,0.2c0,0.1-0.1,0.4-0.2,0.5c-0.1,0.1-0.4,0.2-0.8,0.3
		c-0.5,0-0.7,0-1-0.2c-0.1-0.1-0.4-0.4-0.5-0.7c0-0.1-0.2-0.2-0.3-0.2L88,53.3c-0.1,0-0.1,0.1-0.2,0.1c0,0.1-0.1,0.1,0,0.2
		c0.2,0.9,0.6,1.4,1.2,2c0.4,0.2,1,0.4,1.6,0.4c0.2,0,0.4,0,0.7,0c0.5-0.1,1.1-0.3,1.6-0.5c0.3-0.2,0.6-0.5,0.9-1
		c0.3-0.5,0.3-1,0.2-1.3C94.1,52.5,93.8,52.1,93.6,51.8z"/>
	<path class="st0" d="M99.5,47.1c0-0.2-0.2-0.3-0.3-0.2l-5.5,0.8c-0.1,0-0.3,0.2-0.2,0.3l0.1,1.2c0,0.1,0,0.1,0.1,0.2
		c0.1,0,0.1,0.1,0.2,0.1l1.8-0.3l0.8,5.5c0,0.1,0.1,0.1,0.1,0.2c0,0,0.1,0.1,0.2,0.1c0,0,0,0,0,0l1.4-0.2c0.2,0,0.3-0.2,0.2-0.3
		l-0.8-5.5l1.8-0.3c0.1,0,0.1-0.1,0.2-0.1s0.1-0.1,0.1-0.2L99.5,47.1z"/>
</g>
</svg>
