<?xml version="1.0" encoding="utf-8"?>
<!-- Generator: Adobe Illustrator 28.2.0, SVG Export Plug-In . SVG Version: 6.00 Build 0)  -->
<svg version="1.1" id="Calque_1" xmlns="http://www.w3.org/2000/svg" xmlns:xlink="http://www.w3.org/1999/xlink" x="0px" y="0px"
	 viewBox="0 0 113.4 113.4" style="enable-background:new 0 0 113.4 113.4;" xml:space="preserve">
<style type="text/css">
	.st0{fill:#E763A0;}
</style>
<g>
	<path class="st0" d="M95.5,57.1c-0.2-0.3-0.6-0.6-0.9-0.8c-0.3-0.2-0.8-0.4-1.6-0.6l-0.2,0c-0.5-0.1-0.9-0.2-1-0.4
		c-0.1-0.1-0.1-0.1-0.1-0.2c0-0.1,0-0.1,0-0.1c0.3-0.1,0.6-0.2,0.9-0.2c0.3,0,0.6,0.1,0.7,0.2c0.1,0.1,0.2,0.3,0.3,0.7
		c0,0.1,0.1,0.2,0.3,0.2h1.4c0.2,0,0.3-0.1,0.3-0.3c0-0.7-0.3-1.3-0.8-1.8c-0.6-0.5-1.2-0.7-2.2-0.7c-0.6,0-1.1,0.1-1.5,0.3
		c-0.4,0.2-0.8,0.4-1,0.8c-0.2,0.4-0.3,0.7-0.3,1.2c0,0.6,0.2,1.2,0.7,1.6c0.3,0.2,0.9,0.5,1.7,0.7c0.6,0.1,0.9,0.2,1,0.3
		c0.2,0.1,0.4,0.2,0.4,0.3c0,0,0,0.1,0,0.2c0,0.2-0.1,0.3-0.3,0.5c-0.1,0.1-0.3,0.2-0.7,0.2c-0.3-0.1-0.7-0.2-0.9-0.4
		c-0.2-0.1-0.3-0.3-0.4-0.8c0-0.1-0.2-0.2-0.3-0.2l-1.4,0.1c-0.1,0-0.1,0-0.2,0.1c0,0.1-0.1,0.1-0.1,0.2c0.1,0.9,0.5,1.6,1,1.8
		c0.5,0.5,1.3,0.7,2.2,0.7c0.6,0,1.2,0,1.6-0.2c0.5-0.2,0.9-0.6,1.1-0.9c0.3-0.3,0.5-0.8,0.5-1.2C95.9,58,95.8,57.5,95.5,57.1z"/>
	<path class="st0" d="M88.6,53.1h-1.4c-0.2,0-0.3,0.1-0.3,0.3l-0.2,3.9c0,0.5,0,0.9-0.1,1.1c-0.1,0.2-0.2,0.3-0.3,0.5
		c-0.2,0.1-0.4,0.1-0.7,0.1c-0.3,0-0.6-0.1-0.7-0.2c-0.1-0.1-0.2-0.3-0.3-0.5l0.1-4.9c0-0.1,0-0.2-0.1-0.2S84.5,53,84.4,53H83
		c-0.2,0-0.3,0.1-0.3,0.3L82.6,57c0,0.8,0,1.4,0.1,1.9c0.1,0.3,0.2,0.7,0.5,0.9c0.2,0.2,0.5,0.4,0.8,0.6c0.3,0.2,0.9,0.3,1.7,0.3
		c0.6,0,1,0,1.4-0.1c0,0,0.1,0,0.1,0c0.3-0.2,0.6-0.4,0.8-0.6c0.3-0.3,0.5-0.7,0.6-1c0.1-0.4,0.2-1,0.2-1.9l0.1-3.7
		c0-0.1,0-0.2-0.1-0.2S88.7,53.1,88.6,53.1z"/>
	<path class="st0" d="M80.7,53.1c-0.4-0.1-1-0.2-1.8-0.2c0,0,0,0,0,0l-2.3-0.1c-0.1,0-0.2,0-0.2,0.1s-0.1,0.1-0.1,0.2l-0.2,7
		c0,0.1,0.1,0.3,0.2,0.3l1.4,0.2c0,0,0,0,0,0c0.1,0,0.1,0,0.2-0.1c0.1-0.1,0.1-0.1,0.1-0.2l0.1-2.4h0.6c0.7,0,1.2,0,1.5-0.1
		c0.3,0,0.6-0.1,0.9-0.4c0.2-0.2,0.4-0.4,0.6-0.7c0.2-0.3,0.3-0.8,0.3-1.3c0-0.6-0.1-1.1-0.4-1.5C81.5,53.6,81.1,53.2,80.7,53.1z
		 M79.9,54.9C80,54.9,80,55,79.9,54.9c0.1,0.1,0.2,0.3,0.2,0.5c0,0.1,0,0.1-0.1,0.2c0,0,0,0,0,0.1c-0.1,0-0.1,0.1-0.2,0.1
		c-0.1,0-0.1,0.1-0.2,0.1c-0.1,0.1-0.5,0.1-1,0.1h-0.5l0.1-1.4h0.5c0.3,0,0.5,0,0.7,0.1c0.1,0,0.2,0,0.3,0
		C79.8,54.7,79.9,54.8,79.9,54.9z"/>
	<path class="st0" d="M75.3,52.8l-2.1-0.1c-0.1,0-0.2,0.1-0.3,0.2l-1.1,3.8L71,52.9c0-0.1-0.1-0.2-0.3-0.2l-2.1-0.1
		c-0.1,0-0.2,0-0.2,0.1s-0.1,0.1-0.1,0.2l-0.2,5.6L66,52.8c0-0.1-0.1-0.2-0.3-0.2h-1.5c-0.1,0-0.2,0.1-0.3,0.2l-2.8,7
		c0,0.1,0,0.2,0,0.3c0.1,0.1,0.1,0.1,0.2,0.1h1.5c0.1,0,0.2-0.1,0.3-0.2l0.5-1.4h2.4l0.5,1.4c0,0.1,0.1,0.2,0.3,0.2h1.5h1.3
		c0.2,0,0.3-0.1,0.3-0.3l0.1-3l0.6,3.3c0,0.1,0.1,0.2,0.3,0.2h1.4c0.1,0,0.2-0.1,0.3-0.2l1-3.3l-0.1,3.2c0,0.1,0,0.2,0.1,0.2
		c0.1,0.1,0.1,0.1,0.2,0.1h1.3c0.2,0,0.3-0.1,0.3-0.3l0.2-7C75.6,52.9,75.5,52.8,75.3,52.8z M65.4,56.8h-1.2l0.6-1.5L65.4,56.8z"/>
	<path class="st0" d="M57.8,54.2c0.3,0,0.7,0.1,0.8,0.2c0.1,0.1,0.3,0.4,0.4,0.8c0,0.1,0.2,0.2,0.3,0.2l1.4-0.3
		c0.1,0,0.2-0.2,0.2-0.3c-0.1-0.7-0.5-1.2-0.8-1.5c-0.6-0.6-1.4-0.9-2.3-0.9c-1,0-1.9,0.4-2.6,1.1c-0.7,0.7-1,1.6-1,2.9
		c0,1.1,0.3,2,1,2.8c0.6,0.7,1.5,1.1,2.5,1.1c0.9,0,1.5-0.2,2.1-0.7c0.6-0.4,0.9-1,1.1-1.9c0-0.1,0-0.3-0.2-0.3L59.5,57
		c-0.1,0-0.3,0-0.3,0.2c-0.2,0.4-0.3,0.8-0.6,1c-0.2,0.2-0.4,0.3-0.8,0.3c-0.4,0-0.7-0.2-1-0.5c-0.3-0.4-0.4-1-0.4-1.7
		c0-0.9,0.2-1.4,0.4-1.6C57.1,54.3,57.4,54.2,57.8,54.2z"/>
	<path class="st0" d="M50.6,58.3c-0.3-0.5-0.6-0.9-0.8-1.2c-0.1-0.1-0.2-0.2-0.3-0.3c0.4-0.1,0.7-0.4,0.9-0.6
		c0.4-0.4,0.6-0.9,0.6-1.5c0-0.5-0.1-0.9-0.3-1.3c-0.3-0.4-0.6-0.7-0.9-0.8c-0.4-0.1-1-0.2-1.7-0.2h-3c-0.2,0-0.3,0.1-0.3,0.3v7.4
		h1.8c0.2,0,0.3-0.1,0.3-0.3v-2.6h0c0.3,0,0.4,0,0.5,0.1c0.1,0,0.1,0.1,0.2,0.1c0.1,0,0.1,0.1,0.2,0.1c0,0,0.1,0.1,0.1,0.2
		c0.1,0.2,0.3,0.5,0.5,0.8l1,1.5c0.1,0.1,0.1,0.1,0.2,0.1h1.7c0.1,0,0.2-0.1,0.2-0.1c0-0.1,0-0.2,0-0.3L50.6,58.3z M49,54.9
		c0,0.1,0,0.3,0,0.3c-0.1,0.1-0.2,0.2-0.3,0.2c-0.1,0.1-0.6,0.1-1.2,0.1h-0.7v-1.2h1.7c0.1,0.1,0.3,0.1,0.3,0.2
		C48.9,54.6,49,54.8,49,54.9z"/>
	<path class="st0" d="M43.8,58.4h-3.6v-1.3h3.2c0.2,0,0.3-0.1,0.3-0.3v-1.2c0-0.2-0.1-0.3-0.3-0.3h-3.2v-1h3.5
		c0.2,0,0.3-0.1,0.3-0.3v-1.2c0-0.2-0.1-0.3-0.3-0.3h-5.2c-0.2,0-0.3,0.1-0.3,0.3v7.4h5.6c0.2,0,0.3-0.1,0.3-0.3v-1.2
		C44.1,58.5,43.9,58.4,43.8,58.4z"/>
	<path class="st0" d="M36.1,52.6c-0.3-0.1-0.9-0.1-1.8-0.1H32c-0.2,0-0.3,0.1-0.3,0.3v7.4h1.8c0.2,0,0.3-0.1,0.3-0.3v-2.4h0.6
		c0.7,0,1.2,0,1.5-0.1c0.3,0,0.6-0.1,0.9-0.4c0.2-0.2,0.4-0.4,0.6-0.7c0,0,0,0,0-0.1c0.1-0.4,0.2-0.8,0.2-1.2c0-0.7-0.1-1.1-0.5-1.6
		C36.9,53,36.5,52.7,36.1,52.6z M35.7,55.1c0,0.1,0,0.1-0.1,0.2c0,0,0,0.1-0.1,0.1c-0.1,0.1-0.2,0.1-0.3,0.2c-0.1,0.1-0.5,0.1-1,0.1
		h-0.5v-1.2h1.4c0.2,0,0.2,0,0.4,0.2C35.6,54.7,35.7,54.9,35.7,55.1z"/>
	<path class="st0" d="M30.5,52.5h-1.4c-0.2,0-0.3,0.1-0.3,0.3v4c0,0.5,0,0.9-0.1,1.1c-0.1,0.2-0.2,0.3-0.3,0.5
		c-0.2,0.1-0.4,0.1-0.7,0.1c-0.3,0-0.6-0.1-0.8-0.2c-0.2-0.2-0.2-0.3-0.3-0.6c-0.1-0.1-0.1-0.6-0.1-1.1v-3.8c0-0.2-0.1-0.3-0.3-0.3
		h-1.4c-0.2,0-0.3,0.1-0.3,0.3v3.8c0,0.8,0.1,1.3,0.2,1.8c0,0.4,0.4,0.8,0.4,0.9c0.2,0.3,0.6,0.6,0.9,0.8c0,0,0,0,0.1,0
		c0.2,0.1,0.8,0.2,1.6,0.2c0.6,0,1.2,0,1.6-0.2l0.9-0.6c0,0,0.1,0,0.1-0.1c0.2-0.3,0.3-0.7,0.4-1c0.1-0.4,0.1-1,0.1-1.9v-3.7
		C30.8,52.6,30.6,52.5,30.5,52.5z"/>
	<path class="st0" d="M23.7,56.5c-0.3-0.4-0.6-0.7-0.9-0.8c-0.4-0.2-0.9-0.4-1.6-0.5l-0.2,0c-0.5-0.1-0.9-0.2-1-0.4
		c-0.1-0.1-0.1-0.1-0.1-0.2c0-0.1,0-0.1,0-0.1c0,0,0,0,0,0c0.3-0.2,0.5-0.3,0.8-0.3c0.4,0,0.6,0,0.7,0.1c0.2,0.2,0.3,0.3,0.3,0.6
		c0,0.2,0.1,0.3,0.3,0.3h1.5c0.2,0,0.3-0.1,0.3-0.3c0-0.7-0.3-1.3-0.8-1.8c-0.6-0.5-1.2-0.7-2.2-0.7c-0.6,0-1.1,0-1.5,0.2
		c-0.4,0.2-0.8,0.4-1,0.8c-0.2,0.4-0.3,0.7-0.3,1.2c0,0.7,0.2,1.2,0.7,1.7c0.3,0.2,0.9,0.5,1.7,0.7c0.7,0.1,1,0.2,1.1,0.3l0.3,0.2
		c0,0,0,0.1,0,0.2c0,0.2-0.1,0.3-0.2,0.5c-0.1,0.1-0.3,0.2-0.8,0.2c-0.3,0-0.6-0.1-0.8-0.2c-0.2-0.2-0.3-0.5-0.4-0.9
		c0-0.1-0.2-0.3-0.3-0.2L18,57.3c-0.1,0-0.1,0-0.2,0.1c0,0.1-0.1,0.1-0.1,0.2c0.1,0.8,0.4,1.4,1,2c0.4,0.4,1.2,0.7,2.2,0.7
		c0.6,0,1.2-0.1,1.6-0.3c0.5-0.2,0.9-0.4,1.1-0.9c0.2-0.3,0.3-0.8,0.3-1.3C24,57.3,23.9,56.9,23.7,56.5
		C23.8,56.6,23.7,56.6,23.7,56.5z"/>
</g>
</svg>
