<?xml version="1.0" encoding="utf-8"?>
<!-- Generator: Adobe Illustrator 28.2.0, SVG Export Plug-In . SVG Version: 6.00 Build 0)  -->
<svg version="1.1" id="Calque_1" xmlns="http://www.w3.org/2000/svg" xmlns:xlink="http://www.w3.org/1999/xlink" x="0px" y="0px"
	 viewBox="0 0 113.4 113.4" style="enable-background:new 0 0 113.4 113.4;" xml:space="preserve">
<style type="text/css">
	.st0{fill:#E763A0;}
</style>
<g>
	<path class="st0" d="M25.3,75.1h-3.6v-1.3h3.2c0.2,0,0.3-0.1,0.3-0.3v-1.2c0-0.2-0.1-0.3-0.3-0.3h-3.2v-1h3.5
		c0.2,0,0.3-0.1,0.3-0.3v-1.2c0-0.2-0.1-0.3-0.3-0.3h-5.1l-5.4-1.6c-0.1,0-0.2,0-0.2,0c-0.1,0-0.1,0.1-0.1,0.2l-0.3,1.1
		c0,0.1,0,0.3,0.2,0.3l1.7,0.5l-1.6,5.3c0,0.1,0,0.2,0,0.2c0,0.1,0.1,0.1,0.2,0.1l1.4,0.4c0,0,0.1,0,0.1,0c0.1,0,0.2-0.1,0.3-0.2
		l1.6-5.3l1.7,0.5v6h5.6c0.2,0,0.3-0.1,0.3-0.3v-1.2C25.6,75.2,25.5,75.1,25.3,75.1z"/>
	<path class="st0" d="M33.2,69.2h-2.1c-0.1,0-0.2,0.1-0.3,0.2l-1,3.8l-1-3.8c0-0.1-0.1-0.2-0.3-0.2h-2.1c-0.2,0-0.3,0.1-0.3,0.3v7
		c0,0.2,0.1,0.3,0.3,0.3h1.3c0.2,0,0.3-0.1,0.3-0.3v-3.2l0.8,3.3c0,0.1,0.1,0.2,0.3,0.2h1.4c0.1,0,0.2-0.1,0.3-0.2l0.8-3.3v3.2
		c0,0.2,0.1,0.3,0.3,0.3h1.3c0.2,0,0.3-0.1,0.3-0.3v-7C33.5,69.3,33.4,69.2,33.2,69.2z"/>
	<path class="st0" d="M38,68.8c-0.3,0-0.8,0-1.7,0.1L34,69.1c-0.1,0-0.1,0-0.2,0.1s-0.1,0.1-0.1,0.2l0.7,7c0,0.1,0,0.1,0.1,0.2
		c0.1,0,0.1,0.1,0.2,0.1c0,0,0,0,0,0l1.5-0.2c0.2,0,0.3-0.2,0.2-0.3l-0.3-2.3l0.6-0.1c0.8,0,1.4-0.1,1.6-0.2l0.1-0.1
		c0.2-0.1,0.4-0.2,0.6-0.4c0.2-0.2,0.5-0.6,0.6-0.9c0.1-0.3,0.1-0.8,0.1-1.2c0-0.6-0.2-1.1-0.6-1.5C39,69.2,38.6,68.9,38,68.8z
		 M36,72.1l-0.1-1.4l0.4-0.1c0.4-0.1,0.7-0.1,0.9-0.1c0.1,0,0.1,0,0.2,0.1c0.1,0,0.2,0.1,0.3,0.2c0,0,0,0,0.1,0.1
		c0,0,0.1,0.1,0.1,0.3c0,0.2,0,0.3-0.1,0.5c-0.1,0.1-0.1,0.2-0.3,0.3c-0.1,0-0.2,0.1-0.5,0.1c-0.1,0-0.3,0-0.5,0.1L36,72.1z"/>
	<path class="st0" d="M46.2,68.9c-0.7-0.6-1.7-0.9-2.8-0.8c-0.7,0-1.2,0.2-1.6,0.4c-0.3,0.1-0.7,0.4-0.9,0.8
		c-0.2,0.3-0.4,0.6-0.5,1.1c-0.1,0.5-0.2,1.1-0.1,1.9c0.1,1,0.4,1.9,1.2,2.9c0.6,0.5,1.4,0.8,2.3,0.8c0.2,0,0.3,0,0.5,0
		c1.2-0.1,2.1-0.6,2.6-1.3c0.5-0.9,0.7-1.8,0.6-3C47.4,70.4,47,69.5,46.2,68.9z M45.2,73.3c-0.2,0.4-0.5,0.6-1.1,0.7
		c-0.6,0-1-0.1-1.3-0.4c-0.3-0.2-0.5-0.7-0.6-1.5c-0.1-0.8,0-1.4,0.3-1.6c0.2-0.4,0.5-0.6,1.1-0.7c0.5-0.1,0.9,0,1.3,0.3
		c0.3,0.2,0.5,0.7,0.6,1.5C45.6,72.4,45.5,73,45.2,73.3z"/>
	<path class="st0" d="M67,66.2c-0.2-0.1-0.3-0.2-0.4-0.3c-0.3-0.2-0.6-0.4-0.8-0.4c-0.1-0.1-0.2-0.1-0.4-0.1
		c0.3-0.3,0.5-0.6,0.6-0.9c0.1-0.5,0.1-1-0.1-1.5c-0.1-0.5-0.5-0.9-0.8-1.1c-0.4-0.2-0.7-0.3-1.2-0.3c-0.5,0-1,0.2-1.7,0.5l-2.7,1.2
		c-0.1,0.1-0.2,0.2-0.1,0.4l2.4,5.5l-4.6-4.6c-0.1-0.1-0.2-0.1-0.3-0.1L55.4,65c-0.1,0-0.2,0.2-0.2,0.3l0.3,7.5l-1.1-1L54,71.5
		c-0.3-0.2-0.6-0.4-0.7-0.6c-0.1-0.1-0.3-0.2-0.4-0.2c0.4-0.3,0.6-0.5,0.8-0.8c0.2-0.4,0.3-1,0.1-1.6c-0.1-0.4-0.3-0.8-0.7-1.2
		c-0.3-0.2-0.6-0.4-1.1-0.4c-0.3-0.1-0.9,0-1.7,0.2l-2.9,0.8c-0.1,0-0.2,0.2-0.2,0.3l1.8,6.8c0,0.1,0.1,0.1,0.1,0.2c0,0,0.1,0,0.1,0
		c0,0,0.1,0,0.1,0l1.4-0.4c0.1,0,0.2-0.2,0.2-0.3l-0.6-2.5l0.1,0c0.3-0.1,0.4-0.1,0.6-0.1c0.1,0,0.1,0,0.2,0.1c0,0,0.1,0.1,0.2,0.1
		c0.1,0,0.3,0.2,0.4,0.4c0.1,0.1,0.3,0.3,0.5,0.4l1.4,1.2c0.1,0.1,0.2,0.1,0.3,0.1l1.6-0.4c0.1,0,0.2-0.1,0.2-0.2c0,0,0,0,0,0
		c0,0,0.1,0,0.1,0c0,0,0.1,0,0.1,0l1.4-0.6c0.1,0,0.2-0.2,0.2-0.3l-0.1-1.5l2.2-0.9l1.1,1.1C60.8,71,61,71,61.1,71l1.4-0.6
		c0.1,0,0.1-0.1,0.1-0.1c0,0,0,0,0,0l1.1-0.7c0.1-0.1,0.2-0.2,0.1-0.4l-1.1-2.4l0,0c0.1,0,0.2-0.1,0.2-0.1c0.2-0.1,0.3-0.1,0.4-0.1
		c0.2,0,0.2,0,0.4,0.1c0.2,0.1,0.5,0.3,1.1,0.7l1.6,1c0.1,0,0.2,0.1,0.3,0l1.6-0.7c0.1,0,0.2-0.1,0.2-0.2s0-0.2-0.1-0.3L67,66.2z
		 M51.8,69.2c0,0,0,0.1,0,0.1c0,0-0.1,0.1-0.1,0.1c0,0-0.1,0.1-0.1,0.1c-0.1,0.1-0.4,0.2-0.8,0.3l-1,0.3l-0.3-1.1l0.8-0.2
		c0.2,0,0.4-0.1,0.5-0.1c0.2,0,0.4-0.1,0.4-0.1c0,0,0.1,0,0.1,0c0.1,0,0.2,0,0.3,0.1c0.1,0.1,0.2,0.3,0.2,0.4
		C51.8,69,51.8,69,51.8,69.2z M57.3,67.4l1.1,1.1l-1,0.5L57.3,67.4z M63.5,63.5c0.1-0.1,0.2-0.1,0.3,0c0.1,0.1,0.2,0.2,0.3,0.4
		c0.1,0.1,0.1,0.2,0.1,0.4c0,0-0.1,0.2-0.1,0.2c-0.1,0.1-0.5,0.3-1,0.5l-0.8,0.3l-0.5-1.1l0.7-0.3c0.4-0.1,0.6-0.2,0.8-0.3
		c0.1,0,0.1-0.1,0.1-0.1C63.4,63.6,63.4,63.6,63.5,63.5z"/>
	<path class="st0" d="M71.1,62.9l0.6-4.7c0-0.1,0-0.2-0.1-0.3c-0.1-0.1-0.2-0.1-0.3,0l-1.5,0.7c-0.1,0-0.2,0.1-0.2,0.2l-0.3,2.7
		l-2.3-1.5C67,60,66.9,60,66.8,60l-1.5,0.7c-0.1,0-0.2,0.1-0.2,0.2c0,0.1,0,0.2,0.1,0.3l4,2.6l1.3,2.6c0,0.1,0.2,0.2,0.3,0.2
		c0,0,0.1,0,0.1,0l1.3-0.6c0.1,0,0.1-0.1,0.1-0.2s0-0.2,0-0.2L71.1,62.9z"/>
	<path class="st0" d="M76.5,55.5l1.4-1.2c0.1,0,0.1-0.1,0.1-0.2c0-0.1,0-0.1-0.1-0.2L77.2,53c-0.1-0.1-0.3-0.1-0.4,0l-4.2,3.7
		c-0.1,0-0.1,0.1-0.1,0.2c0,0.1,0,0.1,0.1,0.2l0.8,0.9c0.1,0.1,0.3,0.1,0.4,0l1.4-1.2l3.6,4.3c0.1,0.1,0.1,0.1,0.2,0.1c0,0,0,0,0,0
		c0.1,0,0.1,0,0.2-0.1l1-1c0.1-0.1,0.1-0.3,0-0.4L76.5,55.5z"/>
	<path class="st0" d="M82.3,49.1c-1,0-1.9,0.3-2.7,1.1c-0.4,0.3-0.7,0.7-1,1.3c-0.1,0.4-0.2,0.8-0.2,1.2c0,0.4,0.1,0.9,0.2,1.3
		c0.2,0.6,0.6,1.1,1.1,1.6c0.7,0.8,1.6,1.3,2.7,1.4c0.1,0,0.2,0,0.3,0c0.8,0,1.6-0.4,2.4-1.1c0.8-0.8,1.2-1.7,1.2-2.6
		c0-1-0.4-2-1.3-2.8C84.1,49.5,83.2,49.1,82.3,49.1z M84.3,53.3c0,0.4-0.2,0.9-0.5,1.2c-0.3,0.3-0.6,0.4-1.2,0.4
		c-0.4,0-1-0.3-1.4-0.8c0,0,0,0,0,0c-0.5-0.4-0.7-0.9-0.7-1.5c0-0.4,0.2-0.9,0.5-1.2c0.3-0.3,0.7-0.4,1.2-0.4c0.4,0,0.9,0.3,1.3,0.8
		C84,52.3,84.3,52.9,84.3,53.3z"/>
	<path class="st0" d="M89.5,41.3c0-0.1-0.1-0.1-0.2-0.1c-0.1,0-0.2,0-0.2,0.1l-1,1c-0.1,0.1-0.1,0.2,0,0.4l2.1,3.2l-3.4-2
		c-0.1-0.1-0.3,0-0.3,0l-1.2,1.2c-0.1,0.1-0.1,0.2,0,0.3l1.9,3.3l-3.2-2.1c-0.1-0.1-0.3-0.1-0.4,0l-1,1c-0.1,0.1-0.1,0.1-0.1,0.2
		c0,0.1,0.1,0.2,0.1,0.2l6.2,3.8c0,0,0.1,0,0.1,0c0.1,0,0.1,0,0.2-0.1l1.1-0.9c0.1-0.1,0.1-0.2,0.1-0.4L88,46.9l3.8,2.2
		c0.1,0.1,0.2,0,0.3,0l1.1-1.1c0.1-0.1,0.1-0.2,0-0.3L89.5,41.3z"/>
	<path class="st0" d="M99.2,42.3l-4.5-5.4c-0.1-0.1-0.3-0.1-0.4,0l-1,0.8c-0.1,0-0.1,0.1-0.1,0.2c0,0.1,0,0.2,0.1,0.2l2.3,2.8
		l-4.2-1.5c-0.1,0-0.2,0-0.3,0L90,40.3c-0.1,0-0.1,0.1-0.1,0.2c0,0.1,0,0.2,0.1,0.2l4.5,5.5c0.1,0.1,0.1,0.1,0.2,0.1
		c0.1,0,0.1,0,0.2-0.1l1-0.8c0.1,0,0.1-0.1,0.1-0.2s0-0.2-0.1-0.2l-2.3-2.7l4.2,1.4c0.1,0,0.2,0,0.3,0l1.1-0.9
		c0.1,0,0.1-0.1,0.1-0.2S99.2,42.4,99.2,42.3z"/>
</g>
</svg>
