<?xml version="1.0" encoding="utf-8"?>
<!-- Generator: Adobe Illustrator 28.2.0, SVG Export Plug-In . SVG Version: 6.00 Build 0)  -->
<svg version="1.1" id="Calque_1" xmlns="http://www.w3.org/2000/svg" xmlns:xlink="http://www.w3.org/1999/xlink" x="0px" y="0px"
	 viewBox="0 0 113.4 113.4" style="enable-background:new 0 0 113.4 113.4;" xml:space="preserve">
<style type="text/css">
	.st0{fill:#E763A0;}
</style>
<g>
	<path class="st0" d="M27.6,51.1L22,50.7c-0.1,0-0.3,0.1-0.3,0.3l-0.1,1.2c0,0.1,0,0.2,0.1,0.2c0.1,0.1,0.1,0.1,0.2,0.1l1.8,0.1
		l-0.4,5.5c0,0.2,0.1,0.3,0.3,0.3l1.4,0.1c0,0,0,0,0,0c0.1,0,0.1,0,0.2-0.1c0.1,0,0.1-0.1,0.1-0.2l0.4-5.5l1.8,0.1
		c0.2,0,0.3-0.1,0.3-0.3l0.1-1.1c0-0.1,0-0.2-0.1-0.2S27.7,51.1,27.6,51.1z"/>
	<path class="st0" d="M34.3,51.5l-1.4-0.1c-0.1,0-0.3,0.1-0.3,0.3l-0.2,2.5L30.2,54l0.2-2.4c0-0.1,0-0.1-0.1-0.2
		c0-0.1-0.1-0.1-0.2-0.1l-1.4-0.1c-0.1,0-0.1,0-0.2,0.1s-0.1,0.1-0.1,0.2l-0.5,7c0,0.1,0,0.1,0.1,0.2c0,0.1,0.1,0.1,0.2,0.1l1.4,0.1
		c0.1,0,0.3-0.1,0.3-0.3l0.3-2.8l2.1,0.2l-0.2,2.7c0,0.2,0.1,0.3,0.3,0.3l1.4,0.1c0,0,0,0,0,0c0.1,0,0.3-0.1,0.3-0.3l0.5-7
		c0-0.1,0-0.1-0.1-0.2C34.5,51.6,34.4,51.5,34.3,51.5z"/>
	<path class="st0" d="M41.1,51.9l-5.2-0.3c-0.2,0-0.3,0.1-0.3,0.3l-0.5,7c0,0.2,0.1,0.3,0.3,0.3l5.4,0.5c0,0,0,0,0,0
		c0.1,0,0.1,0,0.2-0.1c0.1,0,0.1-0.1,0.1-0.2l0.1-1.2c0-0.1,0-0.1-0.1-0.2s-0.1-0.1-0.2-0.1l-3.6-0.3l0.1-1.3l3.2,0.2
		c0.1,0,0.2,0,0.2-0.1s0.1-0.1,0.1-0.2V55c0-0.1-0.1-0.3-0.3-0.3l-3.2-0.3l0.1-1l3.5,0.3c0.2,0,0.3-0.1,0.3-0.3l0.1-1.2
		c0-0.1,0-0.2-0.1-0.2C41.3,51.9,41.2,51.9,41.1,51.9z"/>
	<path class="st0" d="M49.1,55.4l-2.6-0.2l0.1-1.1l3.1,0.2c0.1,0,0.3-0.1,0.3-0.3l0.1-1.2c0-0.1,0-0.2-0.1-0.2
		c0-0.1-0.1-0.1-0.2-0.1L45,52.2c-0.1,0-0.3,0.1-0.3,0.3l-0.5,7c0,0.1,0.1,0.3,0.2,0.3l1.4,0.2c0,0,0,0,0,0c0.1,0,0.1,0,0.2-0.1
		c0.1,0,0.1-0.1,0.1-0.2l0.2-2.7l2.6,0.2c0.2,0,0.3-0.1,0.3-0.3l0.1-1.2c0-0.1,0-0.2-0.1-0.2C49.3,55.5,49.2,55.4,49.1,55.4z"/>
	<path class="st0" d="M54.8,53.2c0-0.1-0.1-0.2-0.3-0.2L53,52.9c-0.1,0-0.2,0.1-0.3,0.2l-3.2,6.8c0,0.1,0,0.2,0,0.3
		c0,0.1,0.1,0.1,0.2,0.1l1.5,0.1c0.1,0,0.2-0.1,0.3-0.2l0.6-1.4l2.4,0.2l0.4,1.4c0,0.1,0.1,0.2,0.3,0.2l1.5,0.1c0,0,0,0,0,0
		c0.1,0,0.2,0,0.2-0.1c0.1-0.1,0.1-0.2,0-0.3L54.8,53.2z M54,57.1L52.9,57l0.6-1.4L54,57.1z"/>
	<path class="st0" d="M60.4,53c-1-0.1-2,0.2-2.6,0.9c-0.7,0.6-1.1,1.5-1.2,2.9c-0.1,1.2,0.1,2.2,0.8,2.9c0.5,0.7,1.3,1.1,2.4,1.2
		c0.2,0,0.3,0,0.5,0c0.6,0,1.1-0.2,1.6-0.5c0.6-0.3,1-0.9,1.3-1.7c0.1-0.1,0-0.3-0.2-0.4l-1.3-0.5c-0.1,0-0.2,0-0.2,0
		S61.3,58,61.3,58c-0.1,0.6-0.3,0.6-0.4,0.6c-0.1,0-0.1,0-0.2,0c-0.3,0.2-0.5,0.3-0.8,0.3c-0.4,0-0.7-0.2-1-0.5
		c-0.3-0.4-0.4-1-0.3-1.7c0-0.8,0.3-1.3,0.5-1.6c0.2-0.3,0.5-0.4,1.1-0.4c0.2,0,0.5,0.2,0.7,0.4c0.2,0.1,0.3,0.3,0.4,0.7
		c0,0.1,0.2,0.2,0.3,0.2l1.4-0.2c0.1,0,0.1-0.1,0.2-0.1s0.1-0.1,0-0.2c-0.1-0.4-0.3-1-0.7-1.4C62,53.4,61.3,53.1,60.4,53z"/>
	<path class="st0" d="M69.7,53.9l-5.6-0.4c-0.2,0-0.3,0.1-0.3,0.3L63.7,55c0,0.1,0,0.2,0.1,0.2c0.1,0.1,0.1,0.1,0.2,0.1l1.8,0.1
		l-0.4,5.5c0,0.2,0.1,0.3,0.3,0.3l1.4,0.1c0,0,0,0,0,0c0.1,0,0.1,0,0.2-0.1c0.1,0,0.1-0.1,0.1-0.2l0.4-5.5l1.8,0.1
		c0.2,0,0.3-0.1,0.3-0.3l0.1-1.1c0-0.1,0-0.2-0.1-0.2C69.9,54,69.8,53.9,69.7,53.9z"/>
	<path class="st0" d="M73.9,54c-0.5,0-1.1,0-1.6,0.2c-0.4,0.1-0.8,0.3-1.1,0.6c-0.3,0.2-0.5,0.5-0.7,0.8c0,0.1-0.1,0.1-0.2,0.3
		C70.2,56.4,70,57,70,57.8c-0.1,1.1,0.2,2.1,0.9,2.8c0.5,0.7,1.4,1.1,2.6,1.2c0.1,0,0.3,0,0.4,0c0.9,0,1.6-0.3,2.3-0.9
		c0.7-0.6,1.1-1.5,1.2-2.8c0-1.3-0.3-2.2-0.9-2.9C75.9,54.5,75.1,54.1,73.9,54z M75.4,58c-0.1,0.8-0.3,1.3-0.6,1.6
		c-0.3,0.3-0.6,0.4-1.2,0.4c-0.5,0-0.9-0.2-1.2-0.6c-0.2-0.3-0.4-0.8-0.3-1.6c0,0,0,0,0,0c0-0.7,0.2-1.3,0.5-1.6
		c0.3-0.3,0.7-0.4,1.3-0.4c0.6,0.1,1,0.3,1.2,0.6C75.3,56.6,75.5,57.2,75.4,58z"/>
	<path class="st0" d="M83.7,60.6c-0.3-0.6-0.5-1-0.7-1.3c-0.1-0.1-0.2-0.2-0.3-0.3c0.4-0.1,0.7-0.3,0.9-0.5c0.4-0.3,0.7-0.9,0.7-1.5
		c0.1-0.4,0-0.9-0.2-1.3c-0.3-0.4-0.6-0.7-0.9-0.8c-0.4-0.2-0.9-0.3-1.7-0.3c0,0,0,0,0,0l-3-0.2c-0.2,0-0.3,0.1-0.3,0.3l-0.5,7
		c0,0.2,0.1,0.3,0.3,0.3l1.4,0.1c0.1,0,0.1,0,0.2-0.1s0.1-0.1,0.1-0.2l0.2-2.6h0c0.2,0,0.5,0,0.5,0c0.1,0.1,0.1,0.1,0.2,0.1
		c0,0,0.1,0.1,0.2,0.1c0,0.1,0.1,0.2,0.2,0.3c0.1,0.2,0.3,0.4,0.5,0.8l0.9,1.6c0,0.1,0.1,0.1,0.2,0.1l1.7,0.1c0,0,0,0,0,0
		c0.1,0,0.2,0,0.2-0.1c0.1-0.1,0.1-0.2,0-0.3L83.7,60.6z M82.2,56.7c0.1,0.1,0.1,0.2,0.1,0.4c0,0.2,0,0.2,0,0.2
		c-0.1,0-0.1,0.1-0.1,0.1c-0.1,0.1-0.1,0.1-0.1,0.1l-1.3,0L80,57.5l0.1-1.2l0.8,0.1c0.3,0,0.6,0,0.8,0.1c0.1,0,0.2,0,0.2,0
		C81.9,56.5,82.1,56.5,82.2,56.7C82.2,56.6,82.2,56.7,82.2,56.7z"/>
	<path class="st0" d="M91.8,55.5c0-0.1-0.1-0.2-0.2-0.2l-1.6-0.1c-0.1,0-0.2,0-0.3,0.1l-1.5,2.3l-1.3-2.5c0-0.1-0.1-0.1-0.2-0.2
		L85,54.9c-0.1,0-0.2,0-0.3,0.1c-0.1,0.1-0.1,0.2,0,0.3l2.3,4.1l-0.2,2.9c0,0.1,0,0.2,0.1,0.2c0.1,0.1,0.1,0.1,0.2,0.1h1.3
		c0.1,0,0.3-0.1,0.3-0.3l0.2-2.8l2.9-3.8C91.8,55.7,91.8,55.6,91.8,55.5z"/>
</g>
</svg>
