<?xml version="1.0" encoding="utf-8"?>
<!-- Generator: Adobe Illustrator 28.2.0, SVG Export Plug-In . SVG Version: 6.00 Build 0)  -->
<svg version="1.1" id="Calque_1" xmlns="http://www.w3.org/2000/svg" xmlns:xlink="http://www.w3.org/1999/xlink" x="0px" y="0px"
	 viewBox="0 0 113.4 113.4" style="enable-background:new 0 0 113.4 113.4;" xml:space="preserve">
<style type="text/css">
	.st0{fill:#E8629F;}
</style>
<g>
	<path class="st0" d="M20.7,54.4l-5.5,1c-0.1,0-0.1,0.1-0.2,0.1c0,0.1-0.1,0.1,0,0.2l0.2,1.2c0,0.2,0.2,0.3,0.3,0.2l1.8-0.3l1,5.5
		c0,0.1,0.1,0.2,0.3,0.2c0,0,0,0,0.1,0l1.4-0.3c0.2,0,0.3-0.2,0.2-0.3l-1-5.5l1.8-0.3c0.1,0,0.1-0.1,0.2-0.1c0-0.1,0.1-0.1,0-0.2
		L21,54.6C21,54.5,20.8,54.4,20.7,54.4z"/>
	<path class="st0" d="M27.9,53.5c-0.1,0-0.1-0.1-0.2-0.1l-1.4,0.2c-0.2,0-0.3,0.2-0.2,0.3l0.3,2.5l-2.2,0.3l-0.3-2.5
		c0-0.1,0-0.1-0.1-0.2c-0.1,0-0.1-0.1-0.2-0.1l-1.4,0.2c-0.2,0-0.3,0.2-0.2,0.3l0.9,7c0,0.1,0,0.1,0.1,0.2c0,0,0.1,0.1,0.2,0.1
		c0,0,0,0,0,0l1.4-0.2c0.2,0,0.3-0.2,0.2-0.3l-0.3-2.8l2.2-0.3l0.3,2.8c0,0.1,0,0.1,0.1,0.2c0.1,0,0.1,0.1,0.2,0.1l1.4-0.2
		c0.2,0,0.3-0.2,0.2-0.3l-0.9-7C28,53.7,27.9,53.6,27.9,53.5z"/>
	<path class="st0" d="M31,53.2c-0.1,0-0.1-0.1-0.2-0.1l-1.4,0.1c-0.2,0-0.3,0.2-0.3,0.3l0.6,7c0,0.1,0.1,0.3,0.3,0.3c0,0,0,0,0,0
		l1.4-0.1c0.1,0,0.1,0,0.2-0.1s0.1-0.1,0.1-0.2l-0.6-7C31.1,53.4,31.1,53.3,31,53.2z"/>
	<path class="st0" d="M38,58.7c-0.4-0.6-0.7-0.9-0.9-1.2c-0.1-0.1-0.2-0.2-0.3-0.3c0.4-0.1,0.7-0.4,0.9-0.6c0.3-0.4,0.5-0.9,0.5-1.5
		c0-0.5-0.2-0.9-0.4-1.2c-0.3-0.4-0.6-0.6-1-0.7C36.4,53,35.8,53,35,53l-3,0.1c-0.1,0-0.1,0-0.2,0.1c-0.1,0.1-0.1,0.1-0.1,0.2l0.3,7
		c0,0.1,0,0.1,0.1,0.2c0.1,0,0.1,0.1,0.2,0.1c0,0,0,0,0,0l1.4-0.1c0.2,0,0.3-0.1,0.3-0.3l-0.1-2.7h0c0.4,0,0.5,0,0.6,0
		c0.1,0,0.2,0.1,0.3,0.2c0.1,0.1,0.3,0.3,0.8,1l1.1,1.5c0.1,0.1,0.1,0.1,0.2,0.1l1.7-0.1c0.1,0,0.2-0.1,0.2-0.2c0-0.1,0-0.2,0-0.3
		L38,58.7z M36.1,55.3c0,0.2,0,0.3-0.1,0.4c-0.1,0.1-0.1,0.2-0.2,0.2c-0.1,0-0.3,0.1-1.2,0.1l-0.8,0l-0.1-1.2l0.8,0c0.7,0,0.9,0,1,0
		c0.2,0,0.3,0.1,0.4,0.2C36.1,55,36.1,55.1,36.1,55.3z"/>
	<path class="st0" d="M43.8,56.1c-0.4-0.2-0.9-0.4-1.6-0.5c-0.9-0.2-1.1-0.4-1.2-0.4c-0.1-0.1-0.1-0.2-0.1-0.2c0-0.1,0-0.2,0.1-0.2
		c0.2-0.1,0.4-0.2,0.8-0.2c0.3,0,0.6,0.1,0.7,0.2c0.1,0.1,0.2,0.3,0.3,0.6c0,0.1,0.2,0.2,0.3,0.2l1.4-0.1c0.2,0,0.3-0.1,0.3-0.3
		c0-0.7-0.3-1.3-0.8-1.8c-0.5-0.4-1.2-0.7-2.2-0.7c-0.6,0-1.1,0.1-1.5,0.3c-0.4,0.2-0.8,0.5-1,0.8C39.1,54.2,39,54.6,39,55
		c0,0.6,0.2,1.2,0.7,1.6c0.3,0.3,0.9,0.6,1.7,0.8c0.7,0.2,1,0.3,1.1,0.3c0.3,0.1,0.4,0.2,0.4,0.2C43,58,43,58,43,58.1
		c0,0.2-0.1,0.3-0.3,0.5c-0.2,0.1-0.5,0.2-0.9,0.2c-0.4,0-0.6-0.1-0.8-0.3c-0.2-0.2-0.3-0.5-0.4-0.9c0-0.1-0.2-0.2-0.3-0.2L39,57.6
		c-0.1,0-0.1,0-0.2,0.1s-0.1,0.1-0.1,0.2c0.1,0.9,0.4,1.5,0.9,2c0.5,0.5,1.3,0.7,2.2,0.7c0,0,0,0,0.1,0c0.6,0,1.2-0.1,1.6-0.3
		c0.5-0.2,0.8-0.5,1.1-0.9c0.3-0.4,0.4-0.8,0.4-1.3c0-0.5-0.1-0.9-0.3-1.3C44.5,56.5,44.2,56.3,43.8,56.1z"/>
	<path class="st0" d="M51.2,53.2l-5.6-0.3c-0.2,0-0.3,0.1-0.3,0.3l-0.1,1.2c0,0.1,0,0.1,0.1,0.2c0.1,0.1,0.1,0.1,0.2,0.1l1.8,0.1
		L47,60.3c0,0.1,0,0.1,0.1,0.2c0.1,0.1,0.1,0.1,0.2,0.1l1.4,0.1c0,0,0,0,0,0c0.2,0,0.3-0.1,0.3-0.3l0.3-5.6l1.8,0.1
		c0.2,0,0.3-0.1,0.3-0.3l0.1-1.2c0-0.1,0-0.1-0.1-0.2C51.3,53.2,51.2,53.2,51.2,53.2z"/>
	<path class="st0" d="M58.4,53.9l-1.6-0.2c-0.1,0-0.2,0-0.3,0.1L54.9,56l-1.2-2.5c0-0.1-0.1-0.2-0.2-0.2l-1.7-0.2
		c-0.1,0-0.2,0-0.3,0.1c-0.1,0.1-0.1,0.2,0,0.3l2.1,4.3l-0.3,2.9c0,0.2,0.1,0.3,0.3,0.3l1.4,0.1c0,0,0,0,0,0c0.1,0,0.1,0,0.2-0.1
		c0.1,0,0.1-0.1,0.1-0.2l0.3-2.9l3-3.7c0.1-0.1,0.1-0.2,0-0.3C58.6,54,58.5,53.9,58.4,53.9z"/>
	<path class="st0" d="M66.3,56c-0.3-0.2-0.7-0.3-1.3-0.5l-2.5-0.7c-0.1,0-0.1,0-0.2,0c-0.1,0-0.1,0.1-0.1,0.2l-1.8,6.8
		c0,0.1,0,0.1,0,0.2s0.1,0.1,0.2,0.1l2.6,0.7c0.5,0.1,0.9,0.2,1.2,0.2c0,0,0.1,0,0.1,0c0.5,0,0.9-0.1,1.2-0.3
		c0.4-0.2,0.8-0.6,1.1-1.1c0.3-0.4,0.5-0.9,0.6-1.5c0.2-0.7,0.2-1.3,0.2-1.8c0-0.5-0.2-1-0.4-1.4C67.1,56.6,66.7,56.3,66.3,56z
		 M64.7,61.2c-0.1,0.1-0.3,0.1-0.5,0.1c-0.1,0-0.3,0-0.8-0.1l-0.8-0.2l1-4l0.3,0.1c0.7,0.2,0.9,0.3,1.1,0.3c0.2,0.1,0.3,0.2,0.4,0.4
		c0.1,0.2,0.2,0.4,0.2,0.6c0,0.3,0,0.7-0.2,1.2c-0.1,0.5-0.3,0.9-0.4,1.1C64.9,60.9,64.8,61.1,64.7,61.2z"/>
	<path class="st0" d="M73.7,62.2l-3.7,0l0-1.3l3.3,0c0.1,0,0.1,0,0.2-0.1c0.1-0.1,0.1-0.1,0.1-0.2l0-1.2c0-0.2-0.1-0.3-0.3-0.3
		l-3.3,0l0-1l3.5,0c0.2,0,0.3-0.1,0.3-0.3l0-1.2c0-0.1,0-0.1-0.1-0.2c-0.1-0.1-0.1-0.1-0.2-0.1l-5.2,0c-0.2,0-0.3,0.1-0.3,0.3l0,7
		c0,0.1,0,0.1,0.1,0.2c0.1,0.1,0.1,0.1,0.2,0.1l5.4,0c0.2,0,0.3-0.1,0.3-0.3l0-1.2c0-0.1,0-0.1-0.1-0.2
		C73.8,62.2,73.7,62.2,73.7,62.2z"/>
	<path class="st0" d="M79.1,59c-0.4-0.2-0.9-0.3-1.6-0.4c-0.9-0.1-1.2-0.2-1.2-0.3c-0.1-0.1-0.1-0.1-0.1-0.2c0-0.1,0-0.2,0.1-0.2
		c0.2-0.2,0.4-0.2,0.8-0.3c0.3,0,0.6,0,0.7,0.1c0.2,0.1,0.3,0.3,0.3,0.6c0,0.1,0.2,0.2,0.3,0.2l1.4-0.2c0.2,0,0.3-0.2,0.2-0.3
		c-0.1-0.7-0.4-1.3-1-1.7c-0.5-0.4-1.3-0.5-2.2-0.4c-0.6,0.1-1.1,0.2-1.5,0.4c-0.4,0.2-0.7,0.5-0.9,0.9c-0.2,0.4-0.3,0.8-0.2,1.2
		c0.1,0.6,0.4,1.2,0.9,1.5c0.4,0.3,1,0.5,1.8,0.6c0.6,0.1,1,0.1,1.1,0.2c0.3,0.1,0.4,0.1,0.4,0.2c0.1,0.1,0.1,0.1,0.1,0.2
		c0,0.2,0,0.3-0.2,0.5c-0.2,0.2-0.4,0.3-0.8,0.3c-0.4,0-0.6,0-0.9-0.2c-0.2-0.2-0.4-0.4-0.5-0.8c0-0.1-0.2-0.2-0.3-0.2l-1.4,0.3
		c-0.1,0-0.1,0.1-0.2,0.1c0,0.1-0.1,0.1,0,0.2c0.2,0.8,0.6,1.5,1.1,1.9c0.5,0.3,1.1,0.5,1.8,0.5c0.2,0,0.3,0,0.5,0
		c0.6-0.1,1.2-0.2,1.6-0.4c0.4-0.2,0.8-0.6,1-1c0.2-0.4,0.3-0.9,0.2-1.3c0-0.5-0.2-0.9-0.5-1.2C79.8,59.4,79.5,59.2,79.1,59z"/>
	<path class="st0" d="M93.3,57.9c-0.5-0.4-1-0.6-1.2-0.8C92,57,91.8,57,91.7,57c0.3-0.3,0.5-0.6,0.6-0.9c0.2-0.5,0.1-1-0.1-1.6
		c-0.2-0.4-0.5-0.8-0.8-1c-0.4-0.2-0.8-0.4-1.2-0.3c-0.4,0-0.9,0.2-1.7,0.5l-2.7,1.2c0,0,0,0-0.1,0.1c0,0,0,0,0,0l-5.2,0.8
		c-0.1,0-0.1,0.1-0.2,0.1c0,0.1-0.1,0.1-0.1,0.2l1.1,7c0,0.1,0.1,0.2,0.3,0.2c0,0,0,0,0,0l5.3-0.8c0.1,0,0.1-0.1,0.2-0.1
		c0-0.1,0.1-0.1,0.1-0.2L87,60.9c0-0.1-0.1-0.1-0.1-0.2c-0.1,0-0.1-0.1-0.2-0.1l-3.6,0.6l-0.2-1.3l3.2-0.5c0.1,0,0.1-0.1,0.2-0.1
		c0-0.1,0.1-0.1,0.1-0.2l-0.2-1.2c0-0.2-0.2-0.3-0.3-0.2l-3.2,0.5l-0.2-1l3.5-0.5c0.1,0,0.1-0.1,0.2-0.1c0,0,0-0.1,0-0.1l2.3,5.2
		c0,0.1,0.1,0.1,0.2,0.2c0,0,0.1,0,0.1,0c0,0,0.1,0,0.1,0l1.3-0.6c0.1-0.1,0.2-0.2,0.1-0.4l-1.1-2.4l0,0c0.3-0.1,0.5-0.2,0.6-0.2
		c0.1,0,0.2,0,0.4,0.1c0.2,0.1,0.5,0.3,1.1,0.6l1.6,1c0.1,0.1,0.2,0.1,0.3,0l1.6-0.7c0.1,0,0.2-0.1,0.2-0.2s0-0.2-0.1-0.3L93.3,57.9
		z M89.7,55c0.2,0,0.3,0,0.4,0c0.1,0.1,0.2,0.2,0.3,0.3c0.1,0.1,0.1,0.3,0.1,0.4c0,0.1-0.1,0.2-0.2,0.3c0,0-0.2,0.2-1.1,0.5
		l-0.7,0.3L88,55.7l0.8-0.3C89.5,55.1,89.7,55,89.7,55z"/>
	<path class="st0" d="M98.4,56.7l-2.9-4.7L97,51c0.1,0,0.1-0.1,0.1-0.2c0-0.1,0-0.1,0-0.2l-0.6-1c-0.1-0.1-0.3-0.2-0.4-0.1l-4.8,2.9
		c-0.1,0-0.1,0.1-0.1,0.2c0,0.1,0,0.1,0,0.2l0.6,1c0.1,0.1,0.3,0.2,0.4,0.1l1.5-0.9l2.9,4.7c0,0.1,0.1,0.1,0.2,0.1c0,0,0,0,0.1,0
		c0.1,0,0.1,0,0.1,0l1.2-0.7C98.4,57,98.5,56.8,98.4,56.7z"/>
</g>
</svg>
