<?xml version="1.0" encoding="utf-8"?>
<!-- Generator: Adobe Illustrator 28.2.0, SVG Export Plug-In . SVG Version: 6.00 Build 0)  -->
<svg version="1.1" id="Calque_1" xmlns="http://www.w3.org/2000/svg" xmlns:xlink="http://www.w3.org/1999/xlink" x="0px" y="0px"
	 viewBox="0 0 113.4 113.4" style="enable-background:new 0 0 113.4 113.4;" xml:space="preserve">
<style type="text/css">
	.st0{fill:#E763A0;}
</style>
<g>
	<path class="st0" d="M38.8,29.7c0-0.1,0-0.2-0.1-0.2l-1-1c-0.1-0.1-0.3-0.1-0.4,0l-3.1,2.2l1.9-3.4c0.1-0.1,0-0.3-0.1-0.3l-1.3-1.2
		c-0.1-0.1-0.2-0.1-0.3,0l-3.1,2l1.9-3.1c0.1-0.1,0.1-0.3-0.1-0.4l-1.1-1c-0.1-0.1-0.1-0.1-0.2-0.1c-0.1,0-0.2,0.1-0.2,0.1L28,29.6
		c-0.1,0.1,0,0.3,0.1,0.4l1.1,1c0.1,0.1,0.2,0.1,0.3,0l3.7-2.3l-2.1,3.9c-0.1,0.1,0,0.3,0.1,0.3l1.1,1c0.1,0,0.1,0.1,0.2,0.1
		c0.1,0,0.1,0,0.2,0l6-4C38.7,29.9,38.8,29.8,38.8,29.7z"/>
	<path class="st0" d="M40.4,30.9l-1-1c-0.1-0.1-0.1-0.1-0.2-0.1c-0.1,0-0.1,0-0.2,0.1l-4.8,5.2c-0.1,0.1-0.1,0.3,0,0.4l1,1
		c0.1,0.1,0.1,0.1,0.2,0.1c0,0,0,0,0,0c0.1,0,0.1,0,0.2-0.1l4.8-5.2C40.5,31.2,40.5,31,40.4,30.9z"/>
	<path class="st0" d="M45.4,35.7c0-0.1,0-0.1-0.1-0.2l-1-0.9c-0.1-0.1-0.3-0.1-0.4,0l-2.5,2.7l0.9-4.5c0-0.1,0-0.2-0.1-0.3l-1-0.9
		c-0.1-0.1-0.3-0.1-0.4,0L36,36.8c-0.1,0.1-0.1,0.3,0,0.4l1,1c0.1,0.1,0.1,0.1,0.2,0.1c0.1,0,0.2,0,0.2-0.1l2.4-2.7L39,39.8
		c0,0.1,0,0.2,0.1,0.3l1,1c0.1,0.1,0.1,0.1,0.2,0.1c0,0,0,0,0,0c0.1,0,0.1,0,0.2-0.1l4.8-5.2C45.4,35.8,45.4,35.8,45.4,35.7z"/>
	<path class="st0" d="M49,41.3c0.1,0.1,0.1,0.1,0.2,0.1c0.1,0,0.1,0,0.2-0.1l0.8-0.9c0.1-0.1,0.1-0.3,0-0.4l-4.1-3.8
		c-0.1-0.1-0.1-0.1-0.2-0.1c-0.1,0-0.1,0-0.2,0.1l-0.8,0.9c-0.1,0.1-0.1,0.3,0,0.4l1.3,1.2l-3.8,4.1c-0.1,0.1-0.1,0.1-0.1,0.2
		s0,0.1,0.1,0.2l1.1,1c0.1,0,0.1,0.1,0.2,0.1c0.1,0,0.2,0,0.2-0.1l3.8-4.1L49,41.3z"/>
	<path class="st0" d="M51.1,49c0-0.1,0-0.2-0.1-0.2l-2.7-2.5l0.8-1l2.4,2.2c0.1,0.1,0.1,0.1,0.2,0.1c0.1,0,0.1,0,0.2-0.1l0.8-0.9
		c0.1-0.1,0.1-0.3,0-0.4L50.3,44l0.7-0.7l2.6,2.4c0.1,0.1,0.1,0.1,0.2,0.1c0.1,0,0.1,0,0.2-0.1l0.8-0.9c0.1-0.1,0.1-0.3,0-0.4
		L51,40.8c-0.1-0.1-0.1-0.1-0.2-0.1c-0.1,0-0.1,0-0.2,0.1L45.8,46c-0.1,0.1-0.1,0.3,0,0.4l3.9,3.6c0.1,0,0.1,0.1,0.2,0.1
		c0.1,0,0.1,0,0.2-0.1l0.9-0.8C51,49.2,51.1,49.1,51.1,49z"/>
	<path class="st0" d="M59.1,48.6c-0.2-0.5-0.6-0.9-1.2-1.4l-2.2-2c-0.1-0.1-0.3-0.1-0.4,0l-4.8,5.2c-0.1,0.1-0.1,0.1-0.1,0.2
		c0,0.1,0,0.1,0.1,0.2l1.2,1c0.1,0.1,0.3,0.1,0.4,0l1.8-2l0,0c0.2,0.1,0.3,0.2,0.3,0.3c0,0.1,0.1,0.1,0.1,0.1c0,0,0,0.2,0,0.3
		c0,0.1-0.1,0.4-0.1,0.8L54,53.6c0,0.1,0,0.2,0.1,0.2l1.2,1.2c0.1,0.1,0.1,0.1,0.2,0.1c0,0,0.1,0,0.1,0c0.1,0,0.2-0.1,0.2-0.2l0.4-2
		c0.1-0.5,0.1-0.8,0.1-1.1c0-0.1,0-0.3,0-0.4c0.3,0.2,0.7,0.2,1.1,0.2c0.5,0,0.9-0.2,1.4-0.7c0.4-0.4,0.5-0.7,0.6-1.1
		C59.4,49.3,59.4,48.9,59.1,48.6z M57.3,49.5c0,0.1-0.1,0.2-0.1,0.2c-0.2,0.2-0.2,0.2-0.3,0.2c-0.2,0-0.2,0-0.4-0.1
		c-0.2-0.1-0.5-0.4-0.9-0.8L55,48.6l1-0.9l1.3,1.3c0.1,0.1,0.1,0.2,0.1,0.4C57.4,49.4,57.4,49.4,57.3,49.5z"/>
	<path class="st0" d="M67.3,56c0-0.1,0-0.2-0.1-0.2l-1.1-1c-0.1-0.1-0.2-0.1-0.3,0l-4.1,2.2l1.9-4.2c0-0.1,0-0.2-0.1-0.3l-1.1-1
		c-0.1-0.1-0.2-0.1-0.3-0.1c-0.1,0-0.2,0.1-0.2,0.2L59,58.4c0,0.1,0,0.2,0.1,0.3l1.1,0.9c0.1,0,0.1,0.1,0.2,0.1c0,0,0.1,0,0.1,0
		l6.6-3.4C67.2,56.2,67.3,56.1,67.3,56z"/>
	<path class="st0" d="M68.8,57.8l-0.9-1.1c0-0.1-0.1-0.1-0.2-0.1c-0.1,0-0.2,0-0.2,0.1l-5.3,4.6c-0.1,0.1-0.1,0.3,0,0.4l0.9,1.1
		c0,0.1,0.1,0.1,0.2,0.1c0,0,0,0,0,0c0.1,0,0.1,0,0.2-0.1l5.3-4.6C68.9,58.1,68.9,57.9,68.8,57.8z"/>
	<path class="st0" d="M68.1,66.2l-2-2.6l4.4-3.3c0.1,0,0.1-0.1,0.1-0.2s0-0.2-0.1-0.2l-0.9-1.1c-0.1-0.1-0.3-0.1-0.4,0L63.7,63
		c-0.1,0.1-0.1,0.3-0.1,0.4l3,4c0,0.1,0.1,0.1,0.2,0.1c0,0,0,0,0,0c0.1,0,0.1,0,0.2-0.1l1-0.8C68.2,66.5,68.2,66.3,68.1,66.2z"/>
	<path class="st0" d="M78.9,72.5l-0.6-1.4c0-0.1-0.2-0.2-0.3-0.2l-6.2,0.4c0,0,0-0.1,0.1-0.1c0-0.1,0-0.2-0.1-0.2l-2-2.6l4.4-3.3
		c0.1,0,0.1-0.1,0.1-0.2s0-0.2-0.1-0.2l-0.9-1.1c-0.1-0.1-0.3-0.1-0.4,0l-5.5,4.2c-0.1,0-0.1,0.1-0.1,0.2c0,0.1,0,0.2,0.1,0.2
		l2.9,3.6c0,0,0,0,0,0l0.6,1.4c0,0.1,0.2,0.2,0.3,0.2l1.5-0.2l1,2.1l-1.1,1.1c-0.1,0.1-0.1,0.2-0.1,0.3l0.7,1.4
		c0,0.1,0.1,0.1,0.2,0.2c0,0,0,0,0,0c0.1,0,0.2,0,0.2-0.1l5.1-5.4C78.9,72.7,78.9,72.6,78.9,72.5z M75,74l-0.5-1l1.6-0.2L75,74z"/>
	<path class="st0" d="M76.9,83.8c0,0,0.1,0,0.1,0l2.6-1.1c0.1,0,0.1-0.1,0.2-0.2c0-0.1,0-0.1,0-0.2l-1.2-2.8c0-0.1-0.1-0.1-0.2-0.2
		c-0.1,0-0.1,0-0.2,0l-1.1,0.5c-0.1,0-0.1,0.1-0.2,0.2c0,0.1,0,0.2,0,0.2l0.6,1.1l-0.4,0.2c-0.2-0.1-0.4-0.2-0.5-0.4
		c-0.2-0.2-0.4-0.4-0.4-0.6c-0.2-0.5-0.2-1,0-1.4c0.2-0.5,0.7-0.9,1.3-1.1c0.7-0.3,1.2-0.4,1.6-0.2c0.4,0.2,0.7,0.4,0.9,0.9
		c0.1,0.4,0.2,0.7,0.1,0.9c0,0,0,0.1,0,0.1c0,0.2-0.1,0.4-0.4,0.6c-0.1,0.1-0.2,0.2-0.1,0.4l0.6,1.2c0,0.1,0.1,0.1,0.2,0.2
		c0.1,0,0.2,0,0.2-0.1c0.6-0.5,1-1.1,1.1-1.6c0.2-0.7,0.1-1.5-0.3-2.3c-0.3-0.6-0.6-1.1-1.1-1.5c-0.5-0.4-1.1-0.6-1.9-0.8
		c-0.8,0-1.4,0.1-2.1,0.4c-0.6,0.2-1.2,0.6-1.6,1.2c-0.4,0.5-0.6,1.1-0.8,1.9c0,0.7,0.1,1.3,0.4,2c0.2,0.6,0.7,1.1,1,1.5
		c0.4,0.6,0.9,0.8,1.3,1C76.8,83.8,76.8,83.8,76.9,83.8z"/>
	<path class="st0" d="M85.4,86.9l-2.2-4.7C83.2,82,83,82,82.9,82l-6.4,2.9c-0.1,0.1-0.2,0.2-0.1,0.4l2.2,4.9c0,0.1,0.1,0.1,0.2,0.1
		c0,0,0.1,0,0.1,0c0,0,0.1,0,0.1,0l1.1-0.5c0.1-0.1,0.2-0.2,0.1-0.4l-1.5-3.3l1.2-0.6l1.4,2.9c0.1,0.1,0.2,0.2,0.4,0.1l1.1-0.5
		c0.1,0,0.1-0.1,0.1-0.2c0-0.1,0-0.1,0-0.2l-1.4-3l0.9-0.4l1.5,3.2c0.1,0.1,0.2,0.2,0.4,0.1l1.1-0.5c0.1,0,0.1-0.1,0.1-0.2
		C85.5,87,85.5,86.9,85.4,86.9z"/>
</g>
</svg>
