<?xml version="1.0" encoding="UTF-8"?>
<svg id="uuid-a04b77bc-13db-4b86-a785-4ab70d3d905b" data-name="Calque 1" xmlns="http://www.w3.org/2000/svg" viewBox="0 0 594.55 182.39">
  <path d="M198.02,27.98C198.02,2.32,161.93,0,142.56,0c-11.09,0-20.37,.99-27.48,2.15-4.14,.66-7.78,1.49-11.26,2.32-.66,0-6.13,1.82-6.13,4.97,0,.66,.33,1.99,3.48,2.81,3.97,1.32,7.62,2.65,10.76,3.81,5.46,2.15,10.6,4.64,11.09,6.46,.17,.17,.17,.33,.33,.5,.17,.17,.17,.66,.17,1.49,0,.99-.33,1.99-.83,3.15-2.32,4.14-4.97,8.61-7.78,13.25-4.8,7.95-11.59,18.54-19.04,29.31-7.12-2.48-12.58-6.79-12.58-14.07,0-2.15,.33-4.3,1.16-6.46,0-.17,0-.33,.17-.5s.17-.5,.17-.83c0-.66-.33-.99-.83-.99-.66,0-1.49,.33-2.32,.83-1.82,.83-6.95,5.13-6.95,11.26,0,8.11,8.11,12.75,17.88,15.4-4.14,6.13-26.66,39.74-43.88,49.67-10.1,5.79-18.21,6.95-23.01,6.95-5.3,0-11.26-1.66-11.26-8.28,0-14.4,22.02-38.08,54.97-43.71,1.32-.17,1.82-.66,1.82-1.16s-.17-.66-.5-.83c-.17-.17-.33-.17-.5-.33-.5-.17-1.49-.17-2.65-.17-4.47,0-10.93,1.16-16.72,2.65C33.61,83.61,0,102.49,0,123.18c0,10.43,11.42,13.58,20.7,13.58,7.45,0,22.52-1.66,40.73-12.75,9.44-5.79,18.54-14.74,25.17-22.52,3.81-4.47,7.45-9.27,10.93-14.07,2.65-3.31,5.3-6.62,7.78-10.1,6.13,.66,11.59,.83,15.4,.83,62.25,0,77.32-36.59,77.32-50.17Zm-76.66,45.53c-3.15,0-7.78-.17-12.91-.66,7.78-11.09,14.4-21.69,19.21-29.8,2.81-4.8,5.46-9.27,7.62-13.41,1.16-1.49,1.32-2.81,1.32-3.97,0-.83-.17-1.66-.66-2.32-.17-.33-.5-.66-.66-.83-3.15-2.65-8.61-5.46-13.74-7.62-2.81-1.16-5.96-2.48-9.11-3.81-.83-.5-1.32-.83-1.32-1.32s.17-.83,.66-.99c3.31-2.48,22.35-3.81,28.81-3.81,13.58,0,42.39,1.99,42.39,23.01,0,24.01-26.16,45.53-61.59,45.53Z" style="fill: #fcbe19;"/>
  <path d="M281.3,96.03c.17-.17,.17-.33,.33-.5,0-6.29,4.97-12.25,7.95-15.23,7.12-8.11,9.11-12.91,9.11-15.73,0-3.15-1.82-3.97-4.47-3.97-13.08,0-35.1,18.05-44.7,27.98-.33,.33-.66,.5-.83,.5-.5,0-.33-.5-.33-.99,6.13-9.11,10.27-13.08,17.88-23.35,.17-.17,.5-.5,.66-.83,.5-.66,.66-.99,.66-1.16,0-.83-1.16-.99-4.97-.99s-6.46,.66-7.78,1.49c-.83,.5-1.32,.99-1.82,1.66-4.56,6.08-12.92,18.09-21.98,31.78-6.99,7.1-12.88,12.8-17.92,17.23-3.97,3.31-8.94,8.44-14.07,8.44-2.15,0-2.65-1.32-2.65-2.48,0-1.82,.66-4.3,1.82-6.46,.5-1.16,1.16-2.48,1.82-3.64,5.8-11.09,14.4-23.84,21.69-33.94,4.3-5.96,8.78-11.76,13.25-17.55,.33-.5,.5-.99,.5-1.16,0-1.16-1.99-1.16-3.15-1.16-3.31,0-5.96,.5-8.11,1.99-1.16,.66-1.99,1.82-3.15,2.98-.5,.5-1.16,1.16-1.66,1.99-.17,.33-.33,.5-.83,.5-.17,0-.33-.17-.5-.17h-.17c-3.81-1.99-7.78-2.65-11.76-2.65-29.47,0-60.27,37.25-60.27,62.42,0,5.8,1.82,7.62,4.97,7.62,3.81,0,9.11-3.48,12.58-6.13,10.27-7.95,28.97-29.8,35.76-35.6l.33-.33c.17-.17,.33-.17,.83-.17,.17,0,.33,.17,.33,.33,0,.33-.17,.83-.66,1.32-.33,.33-16.89,22.35-16.89,34.77,0,2.32,.66,6.46,6.13,6.46,8.11,0,19.04-7.78,27.82-15.73,1.43-1.27,2.8-2.52,4.1-3.72-3.53,5.55-7,11.12-10.23,16.47-.3,.45-.46,.77-.49,1.19h-.02v51.45h10.68v-18.5h10.71c5.59,0,9.89-1.26,12.9-3.77s4.52-6.81,4.52-12.88c0-5.56-1.51-9.67-4.54-12.32-3.03-2.65-7.09-3.98-12.18-3.98h-10c.24-.29,.46-.63,.68-1.03,7.29-12.75,16.39-24.34,25.66-34.11,13.41-14.24,27.98-23.51,30.96-23.51,1.16,0,1.66,.33,1.66,1.16,0,3.97-9.11,9.27-9.11,15.73,0,5.13,5.13,8.78,7.78,8.78,.66,0,.99-.17,1.16-.5Zm-114.41,18.87c-1.16,.83-2.32,1.32-3.31,1.32-1.16,0-1.82-.83-1.82-2.32,0-11.76,27.82-49.51,45.53-49.51,3.97,0,7.78,2.32,7.78,3.48,0,.17-.17,.5-.5,.83-21.69,19.04-38.91,40.07-47.68,46.19Zm69.62,25.25c1.36,1.14,2.04,3.05,2.04,5.72s-.68,4.63-2.04,5.86c-1.36,1.23-3.27,1.85-5.72,1.85h-9.69v-15.15h9.69c2.45,0,4.36,.57,5.72,1.71Z" style="fill: #fcbe19;"/>
  <path d="M474.85,54.97c0,3.15,1.82,5.3,4.97,5.3,6.13,0,12.91-7.12,12.91-13.58,0-3.15-1.82-5.3-4.97-5.3-6.13,0-12.91,6.95-12.91,13.58Z" style="fill: #fcbe19;"/>
  <path d="M519.71,78.81c0,3.48,5.13,7.29,7.62,7.29,.66,0,.99-.33,.99-1.16,0-.5-.17-.66-.17-1.49,0-2.48,1.66-4.97,3.48-6.95,.99-1.16,2.15-2.32,3.31-3.31,2.81-2.48,3.64-4.8,3.64-6.95,0-5.79-12.09-7.12-16.39-7.12-10.76,0-26.66,5.46-26.66,19.21,0,11.42,10.6,19.7,10.6,31.62,0,9.44-9.77,19.04-19.87,19.04-2.15,0-9.6-.33-9.6-9.11,0-9.44,6.29-19.04,14.9-24.84,.33,0,.5-.33,.5-.83s-.83-.83-2.32-.83c-7.96,0-18.37,6.47-22.44,17.31-4.87,4.48-9.02,7.89-12.66,10.17-2.48,1.82-5.79,3.31-8.28,3.31-1.66,0-2.48-.83-2.48-2.65,0-3.64,4.64-11.42,9.11-18.54,2.81-4.14,5.8-8.61,9.11-13.41,2.48-3.81,8.78-12.09,13.25-18.05,.17-.17,.17-.33,.33-.5,.17-.17,.17-.5,.17-.83,0-1.16-1.66-1.16-3.81-1.16-6.46,0-8.78,1.32-10.1,2.81-3.48,3.97-8.61,10.93-12.42,16.72-2.1,3.12-4.47,6.6-6.8,10.17-6.11,6.15-11.34,11.17-15.88,15.16-3.97,3.31-8.94,8.44-14.07,8.44-2.15,0-2.65-1.32-2.65-2.48,0-1.82,.66-4.3,1.82-6.46,.5-1.16,1.16-2.48,1.82-3.64,5.8-11.09,14.24-23.51,21.36-33.94,4.14-6.13,8.44-11.92,12.75-17.72,9.77-13.25,20.2-26.82,25.99-34.11,2.81-3.31,5.8-6.29,8.61-9.11,5.13-4.64,11.26-9.6,17.05-10.43,1.49-.33,2.15-.83,2.15-1.49,0-.83-1.66-.99-2.98-.99-7.29,0-13.41,1.99-17.55,4.47-2.48,1.32-4.64,2.81-6.62,4.47-6.62,4.47-17.38,17.72-26.16,29.64-5.3,6.95-10.6,14.4-16.06,22.52-.17,.33-.33,.5-.66,.5-1.16,0-4.97-2.98-11.76-2.98-20.19,0-40.99,17.48-52.1,36.58-6.78,6.87-12.51,12.41-17.44,16.74-3.97,3.31-8.94,8.44-14.07,8.44-2.15,0-2.65-1.32-2.65-2.48,0-1.82,.66-4.3,1.82-6.46,.5-1.16,1.16-2.48,1.82-3.64,5.8-11.09,14.4-23.84,21.69-33.94,4.3-5.96,8.78-11.76,13.25-17.55,.33-.5,.5-.99,.5-1.16,0-1.16-1.99-1.16-3.15-1.16-3.31,0-5.96,.5-8.11,1.99-1.16,.66-1.99,1.82-3.15,2.98-.5,.5-1.16,1.16-1.66,1.99-.17,.33-.33,.5-.83,.5-.17,0-.33-.17-.5-.17h-.17c-3.81-1.99-7.78-2.65-11.76-2.65-29.47,0-60.27,37.25-60.27,62.42,0,5.8,1.82,7.62,4.97,7.62,.16,0,.32,0,.49-.02-2.19,1.04-4.17,2.46-5.94,4.27-4.77,4.86-7.15,11.79-7.15,20.77,0,8.31,2.09,14.85,6.28,19.62,4.19,4.75,9.95,7.12,17.27,7.12,5.92,0,10.77-1.76,14.56-5.27,3.79-3.51,6.14-8.07,7.06-13.68h-10.68c-.71,2.65-1.59,4.64-2.66,5.97-1.94,2.47-4.75,3.7-8.43,3.7s-6.56-1.44-8.89-4.31c-2.33-2.87-3.5-7.2-3.5-12.97s1.11-10.23,3.32-13.39c2.21-3.15,5.23-4.73,9.06-4.73s6.6,1.12,8.51,3.35c1.07,1.26,1.95,3.12,2.63,5.59h10.75c-.16-3.21-1.34-6.41-3.52-9.6-3.96-5.68-10.22-8.52-18.79-8.52-1.64,0-3.2,.14-4.69,.42,2.49-1.24,4.98-2.97,6.91-4.44,10.27-7.95,28.97-29.8,35.76-35.6l.33-.33c.17-.17,.33-.17,.83-.17,.17,0,.33,.17,.33,.33,0,.33-.17,.83-.66,1.32-.33,.33-16.89,22.35-16.89,34.77,0,2.09,.54,5.68,4.68,6.35v7.43h15.46v42.34h10.82v-42.34h15.39v-8.29c3.48-.9,7.57-3.64,10.43-5.82,10.27-7.95,28.97-29.8,35.76-35.6l.33-.33c.17-.17,.33-.17,.83-.17,.17,0,.33,.17,.33,.33,0,.33-.17,.83-.66,1.32-.33,.33-16.89,22.35-16.89,34.77,0,2.32,.66,6.46,6.13,6.46,.13,0,.26,0,.39-.01v29.82c0,3.53-.42,6.12-1.25,7.74-1.3,2.88-4.12,4.33-8.45,4.33s-7.19-1.44-8.49-4.33c-.84-1.63-1.25-4.21-1.25-7.74v-31.6h-10.93v31.62c0,5.47,.85,9.73,2.54,12.78,3.18,5.59,9.22,8.38,18.12,8.38s14.93-2.79,18.09-8.38c1.7-3.05,2.54-7.31,2.54-12.78v-31.62h-3.65c6.62-2.75,13.93-8.3,20.15-13.94,1.42-1.26,2.78-2.5,4.08-3.7-2.26,4.41-3.75,8.38-3.75,11.32,0,1.65,.13,4.44,2.02,6.33h-8.27v51.45h10.51v-20.18h10.5c2.99,0,5.04,.55,6.12,1.64,1.09,1.09,1.66,3.28,1.7,6.56l.07,4.78c.02,1.51,.17,2.99,.45,4.43,.14,.7,.37,1.62,.7,2.76h11.87v-1.29c-1.04-.63-1.7-1.61-1.99-2.93-.19-.84-.28-2.43-.28-4.78v-3.46c0-3.61-.49-6.29-1.48-8.05-.99-1.76-2.67-3.11-5.04-4.07,2.84-.98,4.87-2.65,6.11-5.01,1.23-2.36,1.85-4.76,1.85-7.21,0-2.02-.32-3.83-.95-5.41-.64-1.58-1.5-3.02-2.59-4.33-1.32-1.58-2.92-2.78-4.82-3.6-1.89-.81-4.6-1.26-8.12-1.33h-2.32c6.06-2.57,12.58-7.36,18.59-12.39-.12,1.06-.19,2.14-.19,3.25,0,6.54,3.98,10.6,11,12.09v48.5h38.99v-9.25h-28.48v-13.23h24.99v-8.94h-24.99v-10.93h27.23v-9.11h-14.91c9.72-4.44,17.66-12.76,17.66-23.71,0-11.92-9.93-20.7-9.93-30.8,0-7.78,6.46-11.59,14.24-11.59,2.81,0,5.96,.5,5.96,3.15,0,4.64-7.62,6.62-7.62,12.25Zm-215.57,36.09c-1.16,.83-2.32,1.32-3.31,1.32-1.16,0-1.82-.83-1.82-2.32,0-11.76,27.82-49.51,45.53-49.51,3.97,0,7.78,2.32,7.78,3.48,0,.17-.17,.5-.5,.83-21.69,19.04-38.91,40.07-47.68,46.19Zm30.01,14.61c6.62-2.75,13.93-8.3,20.15-13.94,3.11-2.76,5.97-5.44,8.37-7.76-1.98,5.28-3.08,10.46-3.08,15.21,0,3.36,.61,5.38,1.74,6.49h-27.19Zm45.48-13.45c-1.16,.83-2.32,1.32-3.31,1.32-1.16,0-1.82-.83-1.82-2.32,0-11.92,27.65-50.5,46.19-50.5,3.97,0,7.78,2.32,7.78,3.48,0,.17-.17,.5-.5,.83-21.69,19.04-39.57,41.06-48.35,47.19Zm72.58,23.29c1.97,1.07,2.95,3.16,2.95,6.28,0,2.89-1.02,4.82-3.05,5.79-1.15,.56-2.87,.84-5.17,.84h-11.57v-13.82h11.87c2.21,0,3.87,.3,4.97,.91Z" style="fill: #fcbe19;"/>
  <path d="M593.56,94.54c-.17,0-.33,.17-.5,.33-7.78,7.95-14.24,14.24-19.7,19.04-3.97,3.64-17.22,12.75-25.83,12.75-4.64,0-7.78-2.48-7.78-9.93,0-5.46,1.32-10.76,4.14-15.56,.17-.17,.33-.5,.5-.66q.17-.17,.33,0c29.97-5.8,47.85-22.68,47.85-32.78,0-4.47-3.64-7.62-11.42-7.62-27.32,0-54.8,33.11-54.8,57.78,0,4.32,1.06,9.2,5.14,12.07-1.57,.69-2.94,1.56-4.12,2.62-3.39,3.05-5.09,6.88-5.09,11.48,0,5.05,1.73,8.76,5.2,11.14,2.05,1.42,5.81,2.73,11.28,3.94l5.57,1.22c3.26,.7,5.64,1.5,7.14,2.41,1.5,.93,2.25,2.25,2.25,3.94,0,2.91-1.53,4.9-4.6,5.97-1.62,.56-3.72,.84-6.31,.84-4.32,0-7.38-1.06-9.16-3.18-.97-1.16-1.63-2.92-1.96-5.27h-10.26c0,5.35,1.94,9.56,5.82,12.62,3.88,3.06,9.21,4.59,15.98,4.59s11.77-1.55,15.4-4.66,5.45-7.01,5.45-11.71-1.53-8.09-4.6-10.51c-1.98-1.56-4.94-2.8-8.9-3.73l-9.03-2.13c-3.48-.81-5.76-1.52-6.84-2.13-1.67-.91-2.51-2.28-2.51-4.12,0-2,.85-3.56,2.54-4.68,1.69-1.12,3.96-1.68,6.8-1.68,2.55,0,4.69,.43,6.41,1.29,2.58,1.3,3.96,3.5,4.15,6.6h10.33c-.19-5.47-2.22-9.64-6.1-12.51-1.01-.75-2.07-1.4-3.19-1.95,8.51-2.85,16.49-8.37,24.17-14.8,4.47-3.97,8.44-7.78,11.26-10.6,1.66-1.66,3.15-3.31,4.47-4.8,.99-1.32,1.49-2.48,1.49-3.64,0-1.32-.33-1.99-.99-1.99Zm-16.23-30.13c1.99,0,2.98,.99,2.98,3.15,0,7.45-15.73,26.82-33.61,28.64l-.33-.33-.17-.17c3.97-9.27,19.87-31.29,31.13-31.29Z" style="fill: #fcbe19;"/>
  <rect x="256.98" y="129.51" width="10.68" height="51.45" style="fill: #fcbe19;"/>
</svg>