<?xml version="1.0" encoding="utf-8"?>
<!-- Generator: Adobe Illustrator 26.3.1, SVG Export Plug-In . SVG Version: 6.00 Build 0)  -->
<svg version="1.1" id="Calque_2_00000134244677079783640030000014660292008055338926_"
	 xmlns="http://www.w3.org/2000/svg" xmlns:xlink="http://www.w3.org/1999/xlink" x="0px" y="0px" viewBox="0 0 160 160"
	 style="enable-background:new 0 0 160 160;" xml:space="preserve">
<style type="text/css">
	.st0{fill:#4285F4;}
	.st1{fill:#3B78E7;}
	.st2{fill:#5E97F6;}
	.st3{fill:url(#SVGID_1_);}
	.st4{fill:#F6F6F6;}
	.st5{fill:#A1C2FA;}
</style>
<g id="Layer_1">
	<g>
		<circle class="st0" cx="79.8" cy="79.9" r="73.3"/>
		<path class="st1" d="M79.8,152.5c-40.4,0-73.1-32.6-73.3-72.9c0,0.1,0,0.3,0,0.4c0,40.5,32.8,73.3,73.3,73.3s73.3-32.8,73.3-73.3
			c0-0.1,0-0.3,0-0.4C152.9,119.9,120.2,152.5,79.8,152.5L79.8,152.5z"/>
		<path class="st2" d="M79.8,7.4c40.4,0,73.1,32.6,73.3,72.9c0-0.1,0-0.3,0-0.4c0-40.5-32.8-73.3-73.3-73.3S6.5,39.4,6.5,79.9
			c0,0.1,0,0.3,0,0.4C6.7,40,39.4,7.4,79.8,7.4z"/>
		
			<linearGradient id="SVGID_1_" gradientUnits="userSpaceOnUse" x1="-13855.5361" y1="785.9198" x2="-13315.1963" y2="785.9198" gradientTransform="matrix(-0.1768 -0.1768 0.1768 -0.1768 -2438.6501 -2160.5454)">
			<stop  offset="0" style="stop-color:#1A237E;stop-opacity:0.2"/>
			<stop  offset="1" style="stop-color:#1A237E;stop-opacity:2.000000e-02"/>
		</linearGradient>
		<path class="st3" d="M153.1,82.5l-38.4-38.4l-70.8,70.8l38.3,38.3C120.7,152,151.7,121,153.1,82.5L153.1,82.5z"/>
		<circle class="st4" cx="80" cy="80.1" r="49.8"/>
		<circle class="st5" cx="36.5" cy="123.6" r="6.6"/>
		<circle class="st5" cx="123.5" cy="123.6" r="6.6"/>
		<circle class="st5" cx="123.5" cy="36.4" r="6.6"/>
		<circle class="st5" cx="36.2" cy="36.4" r="6.6"/>
		<g>
			<path class="st0" d="M58.2,53.4h13.3v23.3c0,4.9-0.4,8.6-1.3,11.2c-0.9,2.6-2.6,4.7-5.2,6.5s-6,2.7-10.1,2.7
				c-4.3,0-7.7-0.6-10.1-1.8s-4.2-2.9-5.5-5.1s-2.1-5-2.3-8.4l12.7-1.7c0,1.9,0.2,3.3,0.5,4.2s0.8,1.7,1.6,2.2
				c0.5,0.4,1.2,0.6,2.2,0.6c1.5,0,2.6-0.6,3.3-1.7c0.7-1.1,1-3,1-5.6L58.2,53.4L58.2,53.4z"/>
			<path class="st0" d="M108.9,78.8l11.6,3.5c-0.8,3.3-2,6-3.7,8.2s-3.8,3.8-6.2,4.9s-5.7,1.7-9.5,1.7c-4.7,0-8.5-0.7-11.4-2
				s-5.5-3.7-7.7-7.2c-2.2-3.4-3.2-7.8-3.2-13.1c0-7.1,1.9-12.6,5.7-16.4s9.1-5.7,16-5.7c5.4,0,9.7,1.1,12.8,3.3s5.4,5.5,6.9,10.1
				l-11.7,2.6c-0.4-1.3-0.8-2.3-1.3-2.9c-0.7-1-1.7-1.8-2.7-2.3s-2.3-0.8-3.6-0.8c-3,0-5.3,1.2-6.9,3.6c-1.2,1.8-1.8,4.6-1.8,8.5
				c0,4.8,0.7,8,2.2,9.8s3.5,2.7,6.1,2.7s4.5-0.7,5.8-2.1S108.3,81.5,108.9,78.8L108.9,78.8z"/>
		</g>
	</g>
</g>
</svg>
