<?xml version="1.0" encoding="utf-8"?>
<!-- Generator: Adobe Illustrator 28.0.0, SVG Export Plug-In . SVG Version: 6.00 Build 0)  -->
<svg version="1.1" id="Calque_1" xmlns="http://www.w3.org/2000/svg" xmlns:xlink="http://www.w3.org/1999/xlink" x="0px" y="0px"
	 viewBox="0 0 2000 317.6" style="enable-background:new 0 0 2000 317.6;" xml:space="preserve">
<style type="text/css">
	.st0{fill:#FFEA75;}
</style>
<g>
	
		<ellipse transform="matrix(0.7071 -0.7071 0.7071 0.7071 -104.3122 255.5879)" class="st0" cx="256.4" cy="253.7" rx="63.3" ry="63.3"/>
	<path class="st0" d="M208.6,105.3c11.6,13.4,28.7,21.9,47.7,21.9c36,0,64.9-30,63.2-66.3c-1.5-33-29.2-59.7-62.2-60.3l0,0
		c-18.9-0.3-36,7.7-47.7,20.7S181.5,42,164.1,42h-5.2c-17.5,0-33.8-7.8-45.6-20.7C99.9,6.6,79.6-1.8,57.5,1.3
		C29.9,5.1,7.7,27.3,3.9,54.8C0.8,77,9.2,97.2,24,110.6c12.9,11.8,20.7,28.1,20.7,45.6v5.2c0,17.5-7.8,33.8-20.7,45.6
		c-13,11.8-21,28.9-20.7,47.8c0.5,33,27.2,60.7,60.2,62.2c36.4,1.7,66.3-27.2,66.3-63.2c0-19.1-8.5-36.2-21.9-47.7
		c-12.9-11.1-19.6-27.7-19.6-44.7v-3.7c0-17.5,6.9-34.7,20-46.4c2-1.7,3.8-3.5,5.5-5.5c11.6-13.1,28.8-20,46.4-20h3.7
		C180.9,85.7,197.4,92.5,208.6,105.3z"/>
	<path class="st0" d="M679.4,249.2c-1.1-4-1.7-10.2-2-18.4l-1.1-29c-0.5-12.6-2.9-21.7-7.2-27.2c-4.3-5.6-10.6-10.1-19-13.5
		c9.6-5.1,17.1-11.7,22.5-19.9c5.3-8.2,8-18.8,8-31.8c0-24.8-10.2-41.9-30.5-51.1c-10.7-4.8-24.3-7.2-40.8-7.2H509.3v216.2h29.3
		v-92.7h66.6c11.9,0,20.7,1.4,26.3,4c9.8,4.9,15.1,14.3,15.8,28.4l1.8,36c0.4,8.5,0.9,14.1,1.4,17.1c0.6,3,1.4,5.4,2.4,7.2h35.9
		v-4.9C684.3,260.5,681.2,256.1,679.4,249.2z M638.8,141.9c-7.9,5.5-18.8,8.2-32.6,8.2v0h-67.7V76.2H610c10,0,18,1.4,24,4.4
		c11.2,5.6,16.8,16.1,16.8,31.5C650.8,126.5,646.8,136.4,638.8,141.9z"/>
	<polygon class="st0" points="509.3,51.1 509.3,51.1 509.3,51.1 	"/>
	<path class="st0" d="M852.5,162.2c-1.8-10.6-5.3-19.9-10.6-27.8c-5.5-8.3-13.5-15.1-24-20.4h0c-10.4-5.3-21.3-7.9-32.6-7.7
		c-22.1,0-40.1,7.9-53.8,23.7c-13.7,15.8-20.6,36-20.6,61.6s6.8,45.7,20.5,59.9c13.7,14.3,30.3,21.4,49.9,21.4
		c8.1,0,15.3-0.8,21.7-2.4c11.9-2.8,21.9-8,29.9-15.9c4.8-4.5,9.1-10.4,13-17.5c3.9-7.2,6.2-13.6,6.8-19.4h-26.1
		c-2,7-5.3,13.1-10,18.4c-8.2,9.1-19.2,13.7-33.1,13.7c-14.8,0-25.7-4.9-32.8-14.5c-7.1-9.6-10.8-22.5-11.4-38.5h115.5
		C854.9,181,854.1,169.5,852.5,162.2z M753.2,142.5c8.2-8.8,18.5-13.2,30.6-13.2c17,0,29.1,6.4,36.4,19.1c3.9,6.8,6.4,16,7.5,27.5
		l-87.5,0.1C740.6,162.5,745,151.3,753.2,142.5z"/>
	<path class="st0" d="M948.2,128.8c12.3,0,21.3,3.2,26.9,9.6c5.6,6.4,9.2,14.5,10.8,24.2h25.7c-2.2-21.1-8.9-35.9-20.1-44.6v0
		c-11.1-8.7-25.5-13-43.3-13c-20.8,0-37.9,7.7-51.3,23.1c-13.5,15.4-20.2,37-20.2,64.6c0,22.6,6.1,41.4,18.4,56.5
		c12.3,15,28.7,22.6,49.3,22.6c18.3,0,33.4-4.9,45.2-14.5c11.8-9.6,19.1-24.9,22.1-45.8h-25.7c-2.5,11.7-6.9,20.9-13.3,27.6
		c-6.4,6.8-15.2,10.1-26.1,10.1c-14.4,0-24.8-5.4-31.5-16.2c-6.6-10.8-10-24.2-10-39.9s2.4-28.9,7.1-39.6
		C919.3,137,931.4,128.8,948.2,128.8z"/>
	<path class="st0" d="M1153.2,125.4c-14-13.5-31.2-20.4-51.4-20.4c-22.7,0-40.7,7.9-54.2,23.6c-13.5,15.7-20.2,36.8-20.2,63.3
		c0,24.8,6.4,44.4,19.1,59.1c12.7,14.6,30,22,51.7,22c26,0,45.2-8.3,57.5-24.9c12.3-16.5,18.5-36.7,18.5-63
		C1174.3,158.9,1167.3,138.9,1153.2,125.4L1153.2,125.4z M1136.8,230.3c-6.5,13.3-18.5,20-36.2,19.9c-16,0-27.6-5.6-35-16.8
		c-7.4-11.2-11-24.5-11-42c0-17.5,3.7-32.4,11-44.7c7.4-12.3,19.1-18.5,35.3-18.5c18.3,0,31.1,7.3,38.5,21.8
		c4.7,9.3,7.1,21.2,7.1,35.9C1146.6,202.2,1143.3,217,1136.8,230.3z"/>
	<path class="st0" d="M1368.4,106.1c-9.9,0-18.8,2-26.8,6.1c-7.9,4.1-14.8,10.3-20.7,18.8c-3.5-6.9-7.4-12.1-11.8-15.6
		c-7.7-6.2-17.8-9.3-30.3-9.3c-11.1,0-21,3-29.7,9c-5.1,3.5-10.8,9.2-17.1,16.9v-22.4h-26.2l0,0l0.1,157.6h26.5v-83.6
		c0-20.3,4.1-34.3,12.3-42.1c8.2-7.7,17.3-11.6,27.3-11.6c11,0,18.5,3.7,22.5,11c2.6,4.9,3.8,12.7,3.8,23.4v102.7h26.9v-91.7
		c0-16.3,3.7-27.9,11.2-34.9c7.5-7,16.5-10.4,26.9-10.4c7.6,0,14,2,19.2,5.9c5.3,3.9,7.9,11.2,7.9,21.7v109.5h27.5V162.4
		c0-14-2-25.1-6.2-33.3C1403.9,113.8,1389.6,106.1,1368.4,106.1z"/>
	<path class="st0" d="M1589.5,162.2c-1.8-10.6-5.3-19.9-10.6-27.8c-5.5-8.3-13.5-15.1-24-20.4h0c-10.5-5.3-21.3-7.9-32.6-7.7
		c-22.1,0-40.1,7.9-53.8,23.7c-13.7,15.8-20.6,36-20.6,61.6s6.8,45.7,20.5,59.9c13.7,14.3,30.3,21.4,49.9,21.4
		c8.1,0,15.3-0.8,21.7-2.4c11.9-2.8,21.9-8,29.9-15.9c4.8-4.5,9.1-10.4,13-17.5c3.9-7.2,6.2-13.6,6.8-19.4h-26.1
		c-2,7-5.3,13.1-10,18.4c-8.2,9.1-19.2,13.7-33.1,13.7c-14.8,0-25.7-4.9-32.8-14.5c-7.1-9.6-10.8-22.5-11.4-38.5h115.5
		C1591.8,181,1591.1,169.5,1589.5,162.2z M1490.2,142.5c8.2-8.8,18.5-13.2,30.6-13.2c17,0,29.1,6.4,36.4,19.1
		c3.9,6.8,6.4,16,7.5,27.5l-87.5,0.1C1477.6,162.5,1482,151.3,1490.2,142.5z"/>
	<path class="st0" d="M1701.1,106.1c-10.2,0-19.5,2-27.8,6c-8.3,4.1-16.2,10.7-23.7,19.9v-22.4h-25.1l0.1,157.6h26.5v-82.5
		c0-10.3,0.7-18.3,2-23.8c1.3-5.5,4.2-10.9,8.6-16.1c5.5-6.4,11.8-10.8,19.1-12.9c4-1.2,9.1-1.9,15.4-1.9c12.3,0,20.9,4.9,25.6,14.7
		c2.8,5.9,4.3,13.7,4.3,23.2v99.3h26.9V166.1c0-15.9-2.2-28.1-6.5-36.6C1738.6,113.9,1723.5,106.1,1701.1,106.1z"/>
	<polygon class="st0" points="1624.4,109.7 1624.4,109.7 1624.4,109.6 	"/>
	<path class="st0" d="M1895,129.9c-6-7.4-11.3-12.5-16-15.4l0,0c-8.1-5.1-18.3-7.7-30.4-7.5c-21.7,0-38.5,8.4-50.2,25.2
		c-11.8,16.8-17.6,36.7-17.6,59.7c0,24.6,6.4,44.2,19.3,59c12.9,14.8,28,22.1,45.6,22.1c10.9,0,20.6-2.2,29-6.5
		c8.5-4.3,15.8-11.4,21.9-21.1v21.9h23.8V50.4H1895V129.9z M1884.2,233.9c-7.9,10.6-18,15.8-30.3,15.8c-15.8,0-27.3-5.7-34.4-17.1
		l0,0c-7.2-11.4-10.7-25.5-10.8-42.4c0-19.8,4.1-34.9,12.4-45c8.3-10.2,19.1-15.3,32.4-15.3c12,0,22.1,4.8,30.2,14.4
		c8.1,9.6,12.2,24.6,12.2,44.3S1892.1,223.4,1884.2,233.9z"/>
	<path class="st0" d="M1981.4,235.2c-8.5,0-15.4,6.9-15.4,15.4v1.3c0,8.5,6.9,15.4,15.4,15.4c8.5,0,15.4-6.9,15.4-15.4v-1.3
		C1996.7,242.1,1989.8,235.2,1981.4,235.2z"/>
</g>
</svg>
