<?xml version="1.0" encoding="utf-8"?>
<!-- Generator: Adobe Illustrator 26.3.1, SVG Export Plug-In . SVG Version: 6.00 Build 0)  -->
<svg version="1.1" id="Calque_2_00000077283062215518195640000012452338101167722886_"
	 xmlns="http://www.w3.org/2000/svg" xmlns:xlink="http://www.w3.org/1999/xlink" x="0px" y="0px" viewBox="0 0 537.9 711.1"
	 style="enable-background:new 0 0 537.9 711.1;" xml:space="preserve">
<style type="text/css">
	.st0{fill:#FFE974;}
</style>
<g id="Logo_seul">
	<path class="st0" d="M66.2,290.9c15.8-3.8,32.3-1.2,48.3,6.8c20.7,10.4,45.6,7.3,63.6-7.3l14.1-11.4c20.1-16.3,27.3-43.7,17.9-67.8
		c-3.4-8.8-6.4-18-8.7-27.6c-20.6-85,13.2-166.2,75.5-181.2c62.2-15.1,129.4,41.7,150,126.7s-13.2,166.2-75.5,181.2
		c-26.7,6.5-54.2-0.3-78.7-16.8c-22.1-14.9-51.1-14.2-71.7,2.5l-2.9,2.4c-21.9,17.8-28.7,48.5-15.8,73.5
		c9.4,18.2,17.1,38.7,22.4,60.8c2.2,9.2,3.9,18.2,5.2,27.2c3,21.5,17.4,39.7,37.7,47.5l11.2,4.3c27.8,10.6,58.8-1,73.4-26.9
		c13.8-24.3,34.8-41.9,60.9-48.3c59-14.3,121.6,35.1,139.8,110.2c18.2,75.2-14.9,147.7-74,161.9c-59,14.3-121.6-35.1-139.8-110.2
		c-1.1-4.4-1.9-8.8-2.7-13.1c-3.4-20.9-17.7-38.3-37.4-45.9l-3.3-1.3c-29.9-11.5-64.1,2.4-76.5,32c-11.3,27.1-29.5,46.1-53,51.8
		C92,635.2,30,571.7,7.9,480.3C-14.3,388.8,11.9,304,66.2,290.9L66.2,290.9L66.2,290.9z"/>
</g>
</svg>
