<?xml version="1.0" encoding="UTF-8"?><svg id="Calque_2" xmlns="http://www.w3.org/2000/svg" viewBox="0 0 541.51 541.51"><defs><style>.cls-1{fill:#ffea75;}</style></defs><g id="Logo_seul"><circle class="cls-1" cx="433.2" cy="433.2" r="108.3"/><path class="cls-1" d="M435.67,.03c-41.54-.93-77.86,21.57-96.77,55.19-13.19,23.45-37.59,38.36-64.5,38.36h-7.29c-26.91,0-51.3-14.9-64.49-38.35C182.67,19.78,143.38-3.3,99.01,.39,47.03,4.73,4.73,47.03,.39,99.01c-3.7,44.37,19.39,83.66,54.84,103.61,23.45,13.19,38.35,37.59,38.35,64.49v7.29c0,26.91-14.91,51.3-38.36,64.5C21.6,357.82-.9,394.14,.03,435.68c1.25,56.14,46.88,103.03,102.97,105.7,62.22,2.97,113.61-46.6,113.61-108.17,0-41.11-22.92-76.79-56.67-95.1-23.23-12.61-36.91-37.72-36.91-64.16v-6.85c0-26.94,14.98-51.3,38.44-64.55,17.15-9.69,31.39-23.93,41.08-41.08,13.25-23.46,37.61-38.44,64.55-38.44h6.85c26.43,0,51.55,13.67,64.15,36.91,18.31,33.75,54,56.67,95.1,56.67,61.57,0,111.15-51.39,108.17-113.62C538.7,46.9,491.81,1.28,435.67,.03h0Z"/></g></svg>