<?xml version="1.0" encoding="utf-8"?>
<!-- Generator: Adobe Illustrator 26.5.0, SVG Export Plug-In . SVG Version: 6.00 Build 0)  -->
<svg version="1.1" id="Calque_1" xmlns="http://www.w3.org/2000/svg" xmlns:xlink="http://www.w3.org/1999/xlink" x="0px" y="0px"
	 viewBox="0 0 4235.8 481.9" style="enable-background:new 0 0 4235.8 481.9;" xml:space="preserve">
<style type="text/css">
	.st0{fill:#FFEA75;}
</style>
<g>
	<g id="Logo_seul">
		<g>
			<circle class="st0" cx="385.5" cy="385.5" r="96.4"/>
			<path class="st0" d="M387,0c-28.8-0.4-54.8,11.8-72.7,31.5c-17.9,19.7-42.8,31.6-69.4,31.6H237c-26.6,0-51.5-11.9-69.4-31.6
				C147.2,9.1,116.3-3.7,82.6,1C40.6,6.8,6.8,40.6,1,82.6c-4.7,33.7,8.1,64.5,30.6,84.9c19.7,17.9,31.6,42.8,31.6,69.4v7.9
				c0,26.6-11.9,51.5-31.6,69.4C11.8,332.2-0.4,358.2,0,387c0.8,50.2,41.5,92.4,91.7,94.8c55.4,2.6,101-41.5,101-96.3
				c0-29.1-12.9-55.1-33.3-72.7c-19.6-16.9-29.9-42.2-29.9-68.1v-5.6c0-26.7,10.5-52.9,30.5-70.6c3-2.6,5.8-5.4,8.4-8.4
				c17.7-20,43.9-30.5,70.6-30.5h5.6c25.9,0,51.1,10.3,68.1,29.9c17.6,20.4,43.7,33.3,72.7,33.3c54.8,0,98.9-45.7,96.3-101
				C479.4,41.5,437.2,0.8,387,0L387,0z"/>
		</g>
	</g>
	<g id="Recomend_rond">
		<g>
			<path class="st0" d="M1069.7,12.1c17.3,7.4,32,18.4,44,32.8c10,11.9,17.8,25.1,23.6,39.5c5.8,14.5,8.7,30.9,8.7,49.4
				c0,22.3-5.6,44.3-16.9,65.9c-11.3,21.6-29.9,36.8-55.8,45.8c21.7,8.7,37,21.1,46.1,37.2c9,16.1,13.6,40.6,13.6,73.5v31.6
				c0,21.5,0.9,36,2.6,43.7c2.6,12.1,8.6,21.1,18.1,26.8v11.8h-108.4c-3-10.4-5.1-18.8-6.4-25.2c-2.6-13.2-3.9-26.7-4.1-40.5
				l-0.6-43.7c-0.4-30-5.6-50-15.5-60c-10-10-28.6-15-56-15h-95.9v184.3h-96V0h224.9C1027.7,0.6,1052.4,4.7,1069.7,12.1L1069.7,12.1
				z M866.7,81.6v126.3h105.7c21,0,36.7-2.6,47.2-7.7c18.6-8.9,27.9-26.6,27.9-52.9c0-28.5-9-47.6-27-57.4
				c-10.1-5.5-25.2-8.3-45.4-8.3H866.7z"/>
			<path class="st0" d="M1459.4,129.5c24.2,10.9,44.3,28,60.1,51.4c14.2,20.7,23.5,44.6,27.7,71.9c2.5,16,3.4,39,3,69h-253.2
				c1.4,34.9,13.5,59.3,36.4,73.4c13.9,8.7,30.6,13.1,50.1,13.1c20.7,0,37.5-5.3,50.5-15.9c7.1-5.7,13.3-13.7,18.7-23.9h92.8
				c-2.5,20.6-13.7,41.6-33.7,62.8c-31.1,33.8-74.7,50.7-130.8,50.7c-46.3,0-87.1-14.3-122.4-42.8c-35.4-28.5-53-74.9-53-139.2
				c0-60.2,16-106.4,47.9-138.5c31.9-32.1,73.4-48.2,124.3-48.2C1407.9,113.2,1435.1,118.6,1459.4,129.5L1459.4,129.5z M1323.4,208
				c-12.8,13.2-20.9,31.2-24.2,53.8h156.6c-1.7-24.1-9.7-42.4-24.2-54.9c-14.5-12.5-32.5-18.7-53.9-18.7
				C1354.3,188.2,1336.2,194.8,1323.4,208L1323.4,208z"/>
			<path class="st0" d="M1804,247.2c-1.7-13-6.1-24.7-13.1-35.1c-10.2-14-26.1-21.1-47.6-21.1c-30.7,0-51.7,15.2-63,45.6
				c-6,16.1-9,37.5-9,64.3s3,45.9,9,61.4c10.9,28.9,31.3,43.4,61.4,43.4c21.3,0,36.5-5.7,45.4-17.2c8.9-11.5,14.4-26.4,16.3-44.7
				h92.8c-2.1,27.6-12.1,53.8-30,78.5c-28.5,39.8-70.8,59.6-126.7,59.6c-56,0-97.2-16.6-123.6-49.8c-26.4-33.2-39.6-76.2-39.6-129
				c0-59.6,14.6-106,43.7-139.2s69.4-49.8,120.7-49.8c43.6,0,79.3,9.8,107.1,29.3c27.8,19.6,44.2,54.1,49.3,103.7L1804,247.2
				L1804,247.2z"/>
			<path class="st0" d="M2249.2,427.6c-29.3,36.2-73.9,54.3-133.6,54.3c-59.7,0-104.3-18.1-133.6-54.3c-29.3-36.2-44-79.8-44-130.8
				s14.7-93.6,44-130.3c29.3-36.8,73.9-55.1,133.6-55.1c59.7,0,104.3,18.4,133.6,55.1c29.3,36.8,44,80.2,44,130.3
				S2278.6,391.4,2249.2,427.6z M2176.5,377.3c14.2-18.9,21.4-45.8,21.4-80.6s-7.1-61.6-21.4-80.4c-14.2-18.8-34.7-28.2-61.2-28.2
				s-47,9.4-61.4,28.2c-14.3,18.8-21.5,45.6-21.5,80.4s7.2,61.7,21.5,80.6c14.3,18.9,34.8,28.3,61.4,28.3
				C2141.9,405.7,2162.3,396.2,2176.5,377.3z"/>
			<path class="st0" d="M2792.1,123.7c14.9,6,28.4,16.4,40.5,31.3c9.8,12.1,16.4,27,19.8,44.7c2.1,11.7,3.2,28.8,3.2,51.3
				l-0.6,219.1h-93.1V248.8c0-13.2-2.1-24-6.4-32.5c-8.1-16.2-23-24.2-44.7-24.2c-25.1,0-42.4,10.4-52,31.3
				c-4.9,11.1-7.3,24.4-7.3,39.9v207h-91.5v-207c0-20.6-2.1-35.6-6.4-45c-7.7-16.8-22.6-25.2-45-25.2c-25.9,0-43.4,8.4-52.3,25.2
				c-4.9,9.6-7.3,23.8-7.3,42.7v209.2h-92.2v-347h88.3v50.7c11.3-18.1,21.9-30.9,31.9-38.6c17.6-13.6,40.5-20.4,68.6-20.4
				c26.6,0,48,5.9,64.4,17.5c13.2,10.8,23.2,24.8,30,41.8c11.9-20.4,26.7-35.4,44.3-45c18.7-9.6,39.5-14.3,62.5-14.3
				C2762.1,114.8,2777.2,117.8,2792.1,123.7L2792.1,123.7z"/>
			<path class="st0" d="M3165.6,129.5c24.2,10.9,44.3,28,60.1,51.4c14.2,20.7,23.5,44.6,27.7,71.9c2.5,16,3.4,39,3,69h-253.2
				c1.4,34.9,13.5,59.3,36.4,73.4c13.9,8.7,30.6,13.1,50.1,13.1c20.7,0,37.5-5.3,50.5-15.9c7.1-5.7,13.3-13.7,18.7-23.9h92.8
				c-2.5,20.6-13.7,41.6-33.7,62.8c-31.1,33.8-74.7,50.7-130.8,50.7c-46.3,0-87.1-14.3-122.4-42.8c-35.4-28.5-53-74.9-53-139.2
				c0-60.2,16-106.4,47.9-138.5c31.9-32.1,73.4-48.2,124.3-48.2C3114.1,113.2,3141.4,118.6,3165.6,129.5L3165.6,129.5z M3029.6,208
				c-12.8,13.2-20.9,31.2-24.2,53.8H3162c-1.7-24.1-9.7-42.4-24.2-54.9c-14.5-12.5-32.5-18.7-53.9-18.7
				C3060.6,188.2,3042.5,194.8,3029.6,208L3029.6,208z"/>
			<path class="st0" d="M3582.7,142.4c22.8,18.8,34.1,50,34.1,93.6v234.1h-93.1V258.6c0-18.3-2.4-32.3-7.3-42.1
				c-8.9-17.9-25.8-26.8-50.7-26.8c-30.6,0-51.6,13.1-63,39.2c-5.9,13.8-8.9,31.5-8.9,52.9v188.2H3303v-347h88v50.7
				c11.6-17.9,22.7-30.7,33-38.6c18.6-14,42.2-21.1,70.8-21.1C3530.6,114.2,3559.9,123.6,3582.7,142.4L3582.7,142.4z"/>
			<path class="st0" d="M3885.7,128c16.4,9.2,29.7,22.1,39.9,38.4V0.6h92.2v469.5h-88.3v-48.2c-13,20.6-27.7,35.6-44.3,45
				c-16.6,9.4-37.2,14-61.9,14c-40.6,0-74.8-16.4-102.5-49.3c-27.7-32.8-41.6-75-41.6-126.5c0-59.3,13.7-106,41-140
				c27.3-34,63.8-51,109.6-51C3850.6,114.2,3869.3,118.8,3885.7,128L3885.7,128z M3908,375.7c13.4-19.1,20.1-43.9,20.1-74.3
				c0-42.5-10.7-72.9-32.2-91.2c-13.2-11.1-28.5-16.6-45.9-16.6c-26.6,0-46.1,10-58.5,30.1c-12.4,20.1-18.7,45-18.7,74.8
				c0,32.1,6.3,57.8,19,77c12.6,19.2,31.8,28.9,57.6,28.9C3875,404.4,3894.6,394.8,3908,375.7L3908,375.7z"/>
			<path class="st0" d="M4166.4,334.8h1.8c37.4,0,67.7,30.3,67.7,67.7l0,0c0,37.4-30.3,67.7-67.7,67.7h-1.8
				c-37.4,0-67.7-30.3-67.7-67.7l0,0C4098.7,365.1,4129,334.8,4166.4,334.8z"/>
		</g>
	</g>
</g>
</svg>
