<?xml version="1.0" encoding="utf-8"?>
<!-- Generator: Adobe Illustrator 28.0.0, SVG Export Plug-In . SVG Version: 6.00 Build 0)  -->
<svg version="1.1" id="Calque_1" xmlns="http://www.w3.org/2000/svg" xmlns:xlink="http://www.w3.org/1999/xlink" x="0px" y="0px"
	 viewBox="0 0 512 512" style="enable-background:new 0 0 512 512;" xml:space="preserve">
<style type="text/css">
	.st0{opacity:0.45;enable-background:new    ;}
	.st1{opacity:0.42;}
	.st2{opacity:0.69;enable-background:new    ;}
</style>
<g>
	<g id="uuid-dd3243a0-080e-49f6-afc4-548eb5d31a5e">
		<g>
			<path d="M451.6,315.3c-7.5-30.5-32.7-52-62-56l-0.8-0.1c-2.6-0.3-5.1-0.4-7.7-0.7c-1.3-0.1-2.5-0.2-3.8-0.3
				c-0.6-0.1-1.3-0.1-1.9-0.1l-1.9-0.2c-1.2-0.1-2.5-0.2-3.7-0.3c-1.2-0.1-2.5-0.2-3.7-0.3c-1.2-0.1-2.5-0.2-3.7-0.3l-3.7-0.3
				c-9.8-0.8-19.4-1.9-28.9-3.2c-19-2.7-37.6-6.9-56.3-13.1c-2.4-0.7-4.7-1.6-7.1-2.4c-2.3-0.9-4.7-1.7-7-2.7
				c-1.2-0.4-2.4-0.9-3.5-1.4c-1.2-0.5-2.4-0.9-3.5-1.5c-1.2-0.5-2.4-1-3.5-1.5c-1.2-0.5-2.3-1-3.6-1.5c-4.7-2.1-9.4-4.4-14.2-6.7
				c-2.4-1.2-4.7-2.4-7.1-3.7c-1.2-0.6-2.4-1.2-3.6-1.9c-1.2-0.6-2.4-1.3-3.6-2c-9.5-5.3-19-11.2-28.5-17.5
				c-1.2-0.8-2.4-1.6-3.6-2.4l-3.5-2.5c-2.4-1.6-4.7-3.3-7.1-5l-6.9-5.1l-3.4-2.5c-0.6-0.4-1.1-0.8-1.6-1.1
				c-0.3-0.2-0.5-0.3-0.8-0.5c-0.1-0.1-0.2-0.1-0.3-0.2c-0.1,0-0.1,0-0.2,0h-0.1c0,0,0,0,0,0.1l0,0.1c-9.4-18.2-31.8-25.3-50-15.9
				c-18.2,9.4-25.3,31.8-15.9,50l0.1,0.3c0,0.1,0.1,0.2,0.1,0.2l0.1,0.3c0.1,0.2,0.1,0.4,0.1,0.5l0.2,0.9l0.4,1.7l0.7,3.2
				c0.5,2.1,1,4.1,1.5,6.2c1.1,4,2.2,7.9,3.5,11.8c2.5,7.7,5.5,15.1,8.8,22.4c6.6,14.5,14.8,28.3,24.3,41.3c1.2,1.6,2.4,3.2,3.6,4.8
				c1.2,1.6,2.5,3.2,3.7,4.8c1.2,1.6,2.6,3.1,3.9,4.7c1.3,1.5,2.6,3.1,4,4.6c2.7,3.1,5.4,6.1,8.3,9c1.5,1.5,2.9,2.9,4.3,4.4l4.5,4.2
				c6,5.6,12.3,11,18.9,16.1c3.3,2.6,6.6,5,10,7.4c3.4,2.3,6.9,4.7,10.4,7c14.1,9,29.1,16.7,44.8,23c7.8,3.1,15.8,5.9,23.8,8.3
				c4,1.2,8.1,2.3,12.2,3.3c2,0.5,4.1,0.9,6.1,1.4c2.1,0.4,4.1,0.9,6.1,1.3c16.4,3.2,33,4.9,49.5,4.8l6.1-0.1
				c2.1-0.1,4.1-0.1,6.1-0.2c4.1-0.2,8.1-0.5,12.2-1c4-0.3,8-1,12-1.6c4-0.7,7.9-1.5,11.8-2.4C437,395.5,461.4,355.2,451.6,315.3
				L451.6,315.3z M380.1,281.1c-1.1,0.1-2.2,0.1-3.3,0.2c-1.1,0.1-2.2,0.1-3.3,0.2l-6.6,0.3L360,282l-6.7,0c-2.2,0-4.5-0.1-6.7-0.1
				c-2.2,0-4.5-0.1-6.7-0.2c-2.2-0.1-4.5-0.2-6.7-0.4c-17.9-1.2-35.9-4.3-53.3-9.4c-17.3-5.1-34.3-12.2-49.9-21.1l-2.9-1.6l-2.9-1.8
				c-1.9-1.2-3.9-2.3-5.7-3.6c-1.9-1.2-3.8-2.5-5.7-3.7c-1.8-1.3-3.7-2.6-5.5-3.9c-3.6-2.6-7.2-5.4-10.7-8.2s-6.9-5.8-10.1-8.9
				c4.1,1.8,8.2,3.7,12.2,5.6c4,1.8,8,3.7,12.1,5.5l6,2.7c2,0.9,4,1.8,6,2.6l6,2.6l3,1.3c1,0.4,2.1,0.8,3.1,1.3
				c16.1,6.8,32.3,12.6,49,17.5c16.6,4.9,33.5,8.7,50.7,12l6.5,1.2l6.5,1.2c4.3,0.8,8.7,1.5,13.1,2.4l3.3,0.6
				c1.1,0.2,2.1,0.4,3.2,0.6c2.1,0.4,4.5,0.8,6.6,1.3c2.2,0.4,4.4,0.9,6.6,1.4c2.1,0.5,4.4,0.9,6.5,1.7
				C384.5,280.8,382.4,281,380.1,281.1L380.1,281.1z"/>
			<path class="st0" d="M93.8,210.1c-0.2-0.4-0.4-0.8-0.5-1.3c-0.1-0.3-0.2-0.5-0.3-0.8c-0.1-0.4-0.3-0.8-0.4-1.2
				c-0.1-0.3-0.2-0.5-0.2-0.8c-0.1-0.4-0.2-0.8-0.3-1.2c-0.1-0.3-0.1-0.5-0.2-0.8c-0.1-0.4-0.2-0.9-0.3-1.3
				c-0.1-0.2-0.1-0.4-0.1-0.7c-0.1-0.7-0.2-1.3-0.3-2c0-0.1,0-0.2,0-0.3c-0.1-0.6-0.1-1.1-0.2-1.7c0-0.2,0-0.4,0-0.7
				c0-0.4-0.1-0.9-0.1-1.3c0-0.2,0-0.5,0-0.7c0-0.4,0-0.8,0-1.2c0-0.2,0-0.5,0-0.7c0-0.4,0.1-0.9,0.1-1.3c0-0.2,0-0.4,0.1-0.7
				c0.1-0.5,0.1-1,0.2-1.5c0-0.1,0-0.3,0.1-0.4c0.1-0.7,0.2-1.3,0.4-2c0,0,0-0.1,0-0.1c0.1-0.6,0.3-1.2,0.4-1.8
				c0.1-0.2,0.1-0.3,0.1-0.5c0.1-0.5,0.3-0.9,0.4-1.4c0.1-0.2,0.1-0.3,0.2-0.5c0.2-0.4,0.3-0.9,0.5-1.4c0.1-0.2,0.1-0.3,0.2-0.5
				c0.2-0.5,0.4-0.9,0.6-1.4c0-0.1,0.1-0.2,0.1-0.3l0,0c3.3-7.1,9-13.3,16.5-17.2c3.1-1.6,6.2-2.7,9.4-3.4l0,0
				c13.8-2.9,28.4,2.4,37.1,13.8c1.3,1.7,2.4,3.5,3.4,5.4l0-0.1c0,0,0-0.1,0-0.1h0.1c0,0,0.1,0,0.1,0c0.1,0.1,0.2,0.1,0.3,0.2
				c0.3,0.1,0.5,0.3,0.8,0.5c0.5,0.3,1.1,0.7,1.6,1.1l3.4,2.4l7,5.1c2.4,1.7,4.7,3.3,7.1,5l3.1,2.2c-8.5,3.5-23.3,5.9-42.5-5.4
				c0.5,0.4,15.6,13.4,16,35.1c0,0-25.9-5.2-45.1-16.5c0,0,0.9,12.5-0.8,24.3c6.3,13.2,13.9,25.7,22.6,37.7c1.2,1.6,2.4,3.2,3.6,4.8
				c1.2,1.6,2.5,3.2,3.7,4.8c1.2,1.6,2.6,3.1,3.9,4.7c1.3,1.5,2.6,3.1,4,4.6c2.7,3.1,5.4,6.1,8.3,9c1.4,1.5,2.8,2.9,4.3,4.4l4.5,4.2
				c6,5.6,12.3,11,18.9,16.1c3.3,2.6,6.6,5,10,7.4c3.4,2.3,6.9,4.7,10.4,7c14.1,9,29.1,16.7,44.8,23c7.8,3.1,15.8,5.9,23.8,8.3
				c4,1.2,8.1,2.3,12.2,3.3c2,0.5,4.1,0.9,6.1,1.4c2.1,0.4,4.1,0.9,6.1,1.3c16.4,3.2,33,4.9,49.4,4.8l6.1-0.1
				c2.1-0.1,4.1-0.1,6.1-0.2c4.1-0.2,8.1-0.5,12.2-1c4-0.3,8-1,12-1.6c4-0.7,7.9-1.5,11.8-2.4c28.6-7,49.2-29.6,55.1-56.5
				c8.5,39.3-15.8,78.4-55.1,88c-3.9,0.9-7.9,1.7-11.8,2.4c-4,0.6-8,1.3-12,1.6c-4,0.4-8.1,0.8-12.2,1c-2,0.1-4.1,0.2-6.1,0.2
				l-6.1,0.1c-16.4,0.1-33-1.7-49.4-4.8c-2.1-0.4-4.1-0.8-6.1-1.3c-2.1-0.5-4.1-0.9-6.1-1.4c-4.1-1-8.1-2.1-12.2-3.3
				c-8.1-2.3-16-5.1-23.8-8.3c-15.6-6.3-30.7-14-44.8-23c-3.5-2.2-7-4.6-10.4-7c-3.4-2.5-6.8-4.9-10-7.4
				c-6.5-5.1-12.8-10.4-18.9-16.1l-4.5-4.2c-1.5-1.5-2.9-2.9-4.3-4.4c-2.8-2.9-5.6-6-8.3-9c-1.4-1.5-2.7-3.1-4-4.6
				c-1.3-1.6-2.6-3.1-3.9-4.7c-1.3-1.6-2.5-3.2-3.7-4.8c-1.2-1.6-2.4-3.2-3.6-4.8c-9.5-13.1-17.7-26.8-24.3-41.3
				c-1.6-3.6-3.1-7.1-4.6-10.8l0,0l0,0c-0.2-0.6-0.5-1.2-0.7-1.8c-0.2-0.4-0.3-0.8-0.4-1.1c-0.1-0.2-0.2-0.5-0.3-0.7
				c-1-2.6-1.9-5.2-2.8-7.9c-1.3-3.8-2.4-7.8-3.5-11.8c-0.5-2-1-4-1.5-6.2l-0.7-3.3l-0.3-1.7l-0.2-0.9c0-0.2-0.1-0.3-0.1-0.5
				l-0.1-0.3c0,0-0.1-0.1-0.1-0.2l-0.1-0.3c-0.3-0.6-0.6-1.2-0.9-1.9C94,210.5,93.9,210.3,93.8,210.1L93.8,210.1z"/>
			<path d="M83.3,178.2c-4.7,10.8-5.3,27.2,3.2,39.6c5.9,8.5,14.9,28.5,14.9,28.5c14.4-4.5,11.5-44.3,11.5-44.3
				c19.2,11.3,45.1,16.5,45.1,16.5c-0.4-21.7-15.6-34.7-16-35.1c31.1,18.3,50.6,0.7,50.6,0.7s-2.8,0.4-26.3-12.2
				c-21.9-11.7-34.4-19.7-51.8-18.6c-2.5,0.1-4.8,1-6.8,2.4l-0.1,0.1c-9.4-5.9-27.4-20.7-28-47.1c-0.1-4.1-3.4-7.3-7.4-7.3l0,0
				c-8.3,0-14.8,7.2-13.9,15.5C60.3,134.6,66.2,162.9,83.3,178.2L83.3,178.2z"/>
			<g class="st1">
				<path d="M164.8,176.2c-3.3-2.7-6.8-5-10.3-7.3c-3.6-2.2-7.2-4.3-11-6.1s-7.8-3.4-12-4.4c-4.2-1-8.5-1.5-12.7-0.9
					c4.1,1.1,8,2.2,11.8,3.7c3.8,1.5,7.5,3.2,11.2,5c3.7,1.8,7.4,3.6,11.2,5.3C156.9,173.3,160.8,174.9,164.8,176.2L164.8,176.2z"/>
			</g>
			<path class="st2" d="M155.8,189.7c0.8,0.3,1.7,0.5,2.5,0.7c0.4,0.1,0.7,0.2,1.1,0.3c1.1,0.3,2.1,0.4,3.2,0.6c0,0,0.1,0,0.1,0
				c1,0.2,2,0.3,3,0.4c1,0.1,1.9,0.1,2.9,0.2c6.4,0.1,11.6-1.2,15.6-2.7c0.4-0.2,0.8-0.3,1.3-0.5c0.4-0.2,0.8-0.3,1.2-0.5
				c0.5-0.2,0.9-0.5,1.4-0.7s0.8-0.5,1.2-0.7c2.3-1.3,3.5-2.4,3.5-2.4s-0.1,0-0.2,0l0,0c-7,4-26.6,12.3-48.7,0.3
				c3.1,1.7,6.1,3.1,9,4.2c0.4,0.1,0.8,0.3,1.2,0.4c0.4,0.1,0.8,0.3,1.2,0.4C155.2,189.6,155.5,189.7,155.8,189.7L155.8,189.7z"/>
			<path class="st2" d="M112.9,202.1c1.3,0.8,2.6,1.5,4,2.2c0.7,0.4,1.4,0.7,2.1,1.1c0.2,0.1,0.4,0.2,0.6,0.3c0.7,0.3,1.4,0.7,2.1,1
				c0.6,0.3,1.3,0.6,1.9,0.9c1,0.4,2.1,0.9,3.1,1.3c0.5,0.2,1,0.4,1.5,0.6c3.9,1.6,7.6,2.9,11.2,4.1c0.5,0.2,0.9,0.3,1.4,0.4
				c1.6,0.5,3.1,0.9,4.5,1.4c0.3,0.1,0.5,0.2,0.8,0.2c0.3,0.1,0.5,0.2,0.8,0.2c0.3,0.1,0.7,0.2,1,0.3c1.4,0.4,2.6,0.7,3.8,1
				c0.2,0.1,0.4,0.1,0.6,0.2c0.3,0.1,0.6,0.2,0.9,0.2c0.3,0.1,0.6,0.1,0.8,0.2c0.2,0,0.3,0.1,0.4,0.1c0.3,0.1,0.6,0.1,0.8,0.2
				c0.3,0.1,0.6,0.1,0.8,0.2c0.1,0,0.2,0.1,0.3,0.1c0.1,0,0.2,0,0.2,0.1c0.2,0,0.3,0.1,0.5,0.1c0.7,0.2,1.1,0.2,1.1,0.2
				c0-1.3-0.1-2.5-0.2-3.7c-7.3-1.8-26.5-3.9-40.9-10.8C115.5,203.5,114.2,202.8,112.9,202.1L112.9,202.1z"/>
			<path class="st2" d="M83.3,178.2c-4.7,10.8-5.3,27.2,3.2,39.6c5.9,8.5,14.9,28.5,14.9,28.5c1.7-0.5,3.2-1.6,4.5-3
				c-0.2,0.1-0.5,0.2-0.7,0.3c0,0-9-20-14.9-28.5c-8.5-12.4-8-28.8-3.2-39.6c-17.1-15.3-23-43.7-25-61.3c-0.1-0.5-0.1-1.1-0.1-1.6
				c0-3.7,1.5-7.1,4-9.7c-4.6,2.3-7.7,7-7.7,12.4c0,0.5,0,1.1,0.1,1.6C60.3,134.6,66.1,162.9,83.3,178.2L83.3,178.2z"/>
		</g>
	</g>
</g>
</svg>
