<?xml version="1.0" encoding="UTF-8"?>
<svg id="Calque_1" data-name="Calque 1" xmlns="http://www.w3.org/2000/svg" viewBox="0 0 512 512">
  <defs>
    <style>
      .cls-1 {
        fill: #56513b;
        stroke-width: 0px;
      }
    </style>
  </defs>
  <path class="cls-1" d="m262,405.04c-1.64,0-3.32-.05-5.11-.13l-131.2-.11c-2.34.17-4.22.24-6,.24s-3.76-.09-6.05-.26l-.32-.02c-20.25-1.58-39.05-10.66-52.93-25.59-13.96-15.01-21.64-34.56-21.64-55.07,0-39.65,28.34-73.2,67.4-79.79l1.03-.17-.04-1.55c0-.22-.01-.44-.01-.66,0-34.97,28.45-63.42,63.42-63.42,5.91,0,11.82.84,17.54,2.48l1.79.51-.24-1.85c-.39-2.91-.6-5.78-.6-8.56,0-34.97,28.45-63.42,63.42-63.42s63.42,28.45,63.42,63.42c0,1.51-.07,3.14-.22,4.98l-.21,2.68,2.15-1.62c14.09-10.56,30.86-16.15,48.52-16.15,44.63,0,80.93,36.3,80.93,80.93,0,14.12-3.71,28.04-10.73,40.25l-.67,1.16,1.22.56c22.54,10.3,37.11,32.95,37.11,57.7,0,34.97-28.45,63.42-63.42,63.42l-143.76-.12c-1.89.09-3.4.12-4.83.12v.04h.03Z"/>
</svg>