<?xml version="1.0" encoding="utf-8"?>
<!-- Generator: Adobe Illustrator 28.0.0, SVG Export Plug-In . SVG Version: 6.00 Build 0)  -->
<svg version="1.1" id="uuid-fadd4e36-0b25-48a6-b4a3-de9f4f34e75b"
	 xmlns="http://www.w3.org/2000/svg" xmlns:xlink="http://www.w3.org/1999/xlink" x="0px" y="0px" viewBox="0 0 564 564"
	 style="enable-background:new 0 0 564 564;" xml:space="preserve">
<style type="text/css">
	.st0{fill:#56513B;}
</style>
<path class="st0" d="M543.6,272.5c0-1.6,2.3-16.7-2.4-29.9c-0.9-2.5-2.6-6.5-6.5-9.7c-1.4-1.2-5.9-4.9-11.3-4.3
	c-6.1,0.7-9.7,6.7-11.9,10.2c-4.4,7.5-5.5,15.1-5.7,26.4c-0.3,14.9-0.3,29,0,42.3c0.2,9.9,0.4,11.1-0.3,24
	c-0.6,11.2-0.1,15.6-1.4,25.6c-1.2,9.1-1.8,13.7-4.6,18.9c-3.8,7-17.6,16.7-23.5,20.3c-5.2-164.3-8.1-183.2-7.5-220.2
	c0.4-27.9-39.4-16.9-38.7-4.6c0,0-8.9,103.5-1.9,157.1c0,0,0.7,30.8,2.2,67.4c-6.1-3.8-19.3-13.2-23-20c-2.8-5.1-3.4-9.8-4.6-18.9
	c-1.3-10-0.8-14.4-1.4-25.6c-0.7-12.9-0.5-14.1-0.3-24c0.3-13.4,0.3-27.5,0-42.3c-0.2-11.3-1.2-18.9-5.7-26.4
	c-2.1-3.6-5.8-9.5-11.9-10.2c-5.4-0.6-9.9,3.1-11.3,4.3c-3.9,3.2-5.6,7.2-6.5,9.7c-4.8,13.2-2.4,28.3-2.4,29.9
	c0,25.1-2.3,24.5-0.8,58.8c0.6,14.2,3,24.2,9.3,36.4c8.9,17,21.7,28.5,27.4,32.6c11.4,8.3,24.1,10.8,31.8,12.9
	c2,45.9,5.1,94.6,9.3,100.5c0,0,30,3.3,40.5-0.3c-1-22.4-2.3-55-3.8-96.6c-0.1-1.6-0.1-2.8-0.1-3.8c7.8-2.1,20-4.7,31-12.7
	c5.7-4.1,18.5-15.6,27.4-32.6c6.3-12.2,8.7-22.2,9.3-36.4C545.9,297.1,543.6,297.7,543.6,272.5L543.6,272.5z"/>
</svg>
