<?xml version="1.0" encoding="utf-8"?>
<!-- Generator: Adobe Illustrator 28.0.0, SVG Export Plug-In . SVG Version: 6.00 Build 0)  -->
<svg version="1.1" id="uuid-f3e87b2f-a556-41b3-90d2-c1eb5abc3a93"
	 xmlns="http://www.w3.org/2000/svg" xmlns:xlink="http://www.w3.org/1999/xlink" x="0px" y="0px" viewBox="0 0 564 564"
	 style="enable-background:new 0 0 564 564;" xml:space="preserve">
<style type="text/css">
	.st0{fill:#56513B;}
</style>
<path class="st0" d="M326,255.5c0-1.6,2.3-16.7-2.4-29.9c-0.9-2.5-2.6-6.5-6.5-9.7c-1.4-1.2-5.9-4.9-11.3-4.3
	c-6.1,0.7-9.7,6.7-11.9,10.2c-4.4,7.5-5.5,15.1-5.7,26.4c-0.3,14.9-0.3,29,0,42.3c0.2,9.9,0.4,11.1-0.3,24
	c-0.6,11.2-0.1,15.6-1.4,25.6c-1.2,9.1-1.8,13.7-4.6,18.9c-4.2,7.8-21,19-25.2,21.3l0.4,16.1c0-0.6,0-1.2,0-1.8
	c-0.1-4.8-0.2-7.2-0.2-7.8c-5.5-217.5-8.5-240.8-8-287.4c0.4-34.2-39.4-20.7-38.7-5.6c0,0-8.9,126.9-1.9,192.7
	c0,0,1.9,99.8,5.7,167.2v0c-3-3.1-10.7-10.5-14.2-17.1c-6.9-12.7-7.2-23.5-8.4-42.4c-2.9-44.7-4.6-37.3-3.9-48.7
	c1.2-21,0.8-34-1.1-49.9c-0.4-3.8-2.9-9.2-8.6-14c-2.1-1.7-10.6-9-18.6-6.7c-8,2.3-11,12.8-13.8,22.6c-3.1,10.8-3.9,22-2.7,36.1
	c0.8,9.5,1.9,11.7,7.6,36.9c7.1,31.7,7.4,36.6,12.4,48.8c2.9,7,5.8,12.2,11.6,22.6c7.6,13.7,11.1,17.8,15.9,20.8
	c5.1,3.2,21.4,8.5,24.9,8.9v0c1.5,22.1,3.3,38.2,5.3,41.7c0,0,30,4,40.4-0.4c-1-27.1-2.3-66.5-3.7-116.5c7.6-2.2,20.9-4.5,32.8-13.2
	c5.7-4.1,18.5-15.6,27.4-32.6c6.3-12.2,8.7-22.2,9.3-36.4C328.3,280.1,325.9,280.7,326,255.5L326,255.5z"/>
</svg>
