<?xml version="1.0" encoding="utf-8"?>
<!-- Generator: Adobe Illustrator 28.0.0, SVG Export Plug-In . SVG Version: 6.00 Build 0)  -->
<svg version="1.1" id="Cratere" xmlns="http://www.w3.org/2000/svg" xmlns:xlink="http://www.w3.org/1999/xlink" x="0px" y="0px"
	 viewBox="0 0 704.2 207.8" style="enable-background:new 0 0 704.2 207.8;" xml:space="preserve">
<style type="text/css">
	.st0{fill:#4E4D4D;}
	.st1{fill:#212121;}
</style>
<g>
	<ellipse class="st0" cx="361.6" cy="78.6" rx="342.6" ry="66.8"/>
	<ellipse class="st0" cx="107.1" cy="174.9" rx="11.5" ry="3.5"/>
	<ellipse class="st0" cx="624.4" cy="181.8" rx="11.5" ry="3.5"/>
	<path class="st0" d="M23,68.4l7.4-15.6c0,0,18.4-11.7,21.7-11.7s43.6-9.4,43.6-9.4l34.9-7.4l15.6-5.2h15.3l20.7-2.6l20.7-8h11.4
		c0,0,14.5,3.6,15.6,3.4s14.5,0.9,15.6,0S259.3,5,259.3,5s20,0.6,21.1-0.2s29.7,0,29.7,0L327.7,5l11,3.4l19.2-1.8l12.9-2.3L383.3,0
		l9.8,3.1l15.6,5.3c0,0,25,4,26.6,3.4s22.3-3.4,22.3-3.4H478l14.1,3.4c0,0,17.6,2.6,18.8,2.6s20,5.2,21.1,4.5s38.3,3.3,38.3,3.3
		s13.3-2.6,14.5-3.3s16.4,3.7,16.4,3.7s11.2,4.7,11.7,5.1s19.1,3.1,19.1,3.1l19.3,6.3l21.9,8.2l11.2,10.9"/>
	<ellipse class="st0" cx="111.4" cy="8.4" rx="11.5" ry="3.4"/>
	<ellipse class="st0" cx="11.5" cy="200.6" rx="11.5" ry="7.1"/>
	<ellipse class="st0" cx="546" cy="11.9" rx="11.5" ry="7.1"/>
	<path class="st1" d="M74.2,55.7c0,0,23.6,1.7,32.9,8.6s24.6,17.2,27.7,17.2s36.8,9.2,39.5,8.1s7.8,6.9,9,6.9h19.6l-19.6-6.3
		c0,0-9.4-10.4-10.6-10.4s-14.9,2.9-14.9,2.9l-24.3-6.6l-5.5-4.3h13.7c2.4,0,11-7.5,14.5-7.5s22.7-1.1,25,0s21.5,19.5,21.5,19.5
		l19.6,8.6l21.1,6.9l15.6,5.2h8.2c0,0-12.1-10.4-13.3-10.4S230,83.7,230,83.7l-27-13.8l-12.9-14.4c0,0,8.6-3.4,11,0
		s13.3,9.2,14.9,9.8s16.4,1.1,18,1.7s14.9,3.4,14.9,3.4s15.3,7.1,16.4,8.7s12.1,0,12.1,0l-39.5-41.5L233,26.4
		c0,0,12.1,13.2,13.3,13.8s20,17.2,20,17.2l14.1,13.2l12.5,7.5c0,0,1.2,5.2,2.7,5.8s10.6-2.3,10.6-2.3l7.8-3.4l6.6,6.3l3.9,0.6
		L327,70V59.7l-2.7-21.3l2.7-12.1l1.6,27.6l2.4,8.6v12.1l3.1,7.5l8-0.6l11.5-0.6c0,0,10.6-7.5,11.7-7.5s11.4-13.8,11.4-13.8
		S386,54,387.2,54s17.2-11.5,17.2-11.5l-12.1,12.6l-11.7,10.4h7.8l-2,6.9l-4.3,4l7-1.7l13.7-9.2l13.7-5.8v5.8c0,0,7,1.7,8.2,0
		s27-13.8,27-13.8l34.4-13.2l15.6-7.5h8.6l-27,18.4L460,60.3l-72,29.3c0,0,27-7.5,29.7-7.5S467,65.4,467,65.4l34.4-17.8l16.8-11.5
		l16.2,0.6l20.2,2.3l10.2,4.6l12.1,6.3l4.3,6.3L569.6,62h-16.8l-11,3.4L528.5,70l-10.6,5.2l-14.1,1.7c0,0-5.5,5.8-9.4,8.1
		s-23.1,6.9-24.3,7.5S438,104.6,438,104.6l-12.1,5.2c0,0,20-4.6,23.9-5.8s31.7-8.1,32.9-8.1s15.3-5.2,16.4-5.8s6.6-3.4,6.6-3.4
		l16.4-2.3l12.3-6.9l15.1-3.4c0,0,15.3-2.9,16.4-2.9s22.3-3.2,22.3-3.2l13.3-6.6h40.3l16.8,2.3l14.1,4.3v7.2l-19,5.8l-15.3,6.3
		l-14,2.9l-9,4l-19.2,1.7l-9.4,4l-11.3,1.7h-18l-16.1,4h-10.6l-11.3,4l-17.6,9.2l-20,4l-32.5,5.8h46.2l11.4-5.2l13.7-1.7l9-3.4
		l12.1-1.7l21.5-1.7l6.3-2.9l13.3-0.6l12.5-2.9l11.7-2.3l15.3-5.2l20.7-6.9c0,0,16.8-6.3,18-6.3s11.7-1.1,11.7-1.1L685,85l5.9-7.5
		l-5.5-14.9l-21.9-6.9l-31-12.7l-15.7-1.7l-17.6-6.9L584,32.1l-8.6-1.7l-22.7-1.7l-16.4-2.3l-30.5-4L488.5,19l-10.2-2.4L464.7,19
		l-14.1-2.4L436.5,19L420,22.9L406,19l-16.4-7.1h-20l-12.9,4.8L342,19l-17.4-7.1l-17.2,2.5L291,15l-23.5-0.6L250.2,16l-8.6,3h-9.8
		l-19.2-2.4L194.3,19l-14.5,3.4L165.3,23l-12.5,4l-4.7,1.7l-9.8-1.1l-27,6.9l-28.2,6.9l-21.9,4l-18.8,5.8l-5.9,10.4l16.8,8.8h25.8
		l18.4,11.9l18,4l20,6.9c0,0,19.2,9.2,20.7,9.2s47,7.5,47,7.5l33.3,4c0,0-15.3-6.3-18-6.3s-32.1-4.6-35.2-4.6s-27.8-5.8-29.4-5.8
		S132.4,88,131.2,88s-26.6-8.1-26.6-8.1L85.5,67.7c0,0-10.2-2.9-12.1-2.9s-12.5-1.1-12.5-1.1L74.2,55.7L74.2,55.7z"/>
</g>
</svg>
