<?xml version="1.0" encoding="utf-8"?>
<!-- Generator: Adobe Illustrator 28.0.0, SVG Export Plug-In . SVG Version: 6.00 Build 0)  -->
<svg version="1.1" id="Calque_1" xmlns="http://www.w3.org/2000/svg" xmlns:xlink="http://www.w3.org/1999/xlink" x="0px" y="0px"
	 viewBox="0 0 512 512" style="enable-background:new 0 0 512 512;" xml:space="preserve">
<style type="text/css">
	.st0{fill:#916685;}
	.st1{fill:#926685;}
	.st2{fill:#F299C1;}
</style>
<path class="st0" d="M255,380.7c0,0,0.4-25,3.5-30.1s2-16,2-16s-0.8-7.4,4.7-10.2s27.4-23.9,27.4-23.9s0.4-9.4-6.3-9
	s-13.3,1.2-23.5-4.3c-10.2-5.5-23.1-13.3-28.6-12.9s-18.4-2.7-23.1-3.5s-25.8-21.9-25.8-21.9l2.4-2c0,0,21.1,9,25.8,9.4
	c4.7,0.4,15.6-2,21.5-0.4c5.9,1.6,7.8,4.3,11,4.3s11-3.1,13.3-1.2s5.1,7,7.4,7.8s8.2,7.8,21.3-6.5c13.1-14.3,13.7-15.7,14.1-18.8
	s-1.2-39.7-1.2-39.7l6.9,3.1c0,0,0.6,19.4,1,23.1s1.2,11,1.2,11l11.5-27.8l3.7,2.5c0,0-10.6,35.6-18.8,42.1c0,0-5.1,4.7-5.3,8.2
	s-7.4,6.1-7.4,6.1s35,12.5,17.6,41.1c0,0-10.6,13.1-17.6,20.4s-3.7,12.3-3.7,12.3s0.8,1.6-2,7.2c0,0,4.3,19.2,7.8,23.7
	c0,0,2.5,4.5,2,5.9L255,380.7L255,380.7z"/>
<path class="st0" d="M233.4,255.5c0,0-8.8-5.7-7.2-11.5s5.6-8,6.3-13.2s2.9-20.5,0-26.5s-6.5-13.7-6.5-13.7l-2.7,1.8
	c0,0,5.5,8.8,5,13.9c0,0,4.5,8.3,2.4,13.1s-6.3,13.8-6.3,13.8s-7.6,8.9-5.4,13s4.1,9.4,4.1,9.4L233.4,255.5L233.4,255.5z"/>
<path class="st0" d="M228,227.8c0,0-13.7-5.6-15.9-11.7s-7.5-18.2-7.5-18.2l-2.9,1.5c0,0,5.5,17.3,7.9,20s13.9,11.2,15.6,11.4
	S228,227.8,228,227.8L228,227.8z"/>
<g>
	<path class="st0" d="M190.6,247.3c-1.3-1.4-2-3.2-2.9-4.9c-0.9-1.9-2-3.7-3.4-5.3s-2.6-3-3.1-5.1s-0.6-4.2-0.6-6.3
		c0-2.3,0.8-3.9,1.7-6c1-2.3,1.5-4.7,1.5-7.2c0.1-4.9-0.5-9.9-1.1-14.7c-0.7-5.7-1.7-11.4-3-17c-0.7-3.1-5.5-1.8-4.8,1.3
		c1.1,4.9,2.1,9.9,2.7,15s1.3,10.1,1.2,15.2c0,2.4-0.6,4.3-1.5,6.5c-1.1,2.3-1.7,4.5-1.6,7.1c0,2.3,0.2,4.8,0.7,7s1.7,4.3,3.2,6.2
		s2.7,3.4,3.7,5.5c1.1,2.2,2.1,4.4,3.8,6.3C189.2,253.2,192.8,249.7,190.6,247.3L190.6,247.3L190.6,247.3z"/>
	<path class="st0" d="M255,262.2c3.4-1.4,6.7-3.1,9.8-5.2c3.1-2.1,5.8-4.2,6.8-7.8c1.9-6.6-1.5-13.2-2.4-19.6
		c-0.4-3.1,0.1-6,1.7-8.8s3.8-5,5.9-7.3c4.6-5,8.9-10.4,11.5-16.8c2.9-7,3.1-15.3-0.7-22c-1.6-2.8-5.9-0.3-4.3,2.5
		c6.5,11.5-2.2,24-9.7,32.4c-4.2,4.6-8.6,9.3-9.3,15.8s2.5,12,2.9,18.1c0.1,1.6,0.1,3.4-0.5,4.9c-0.5,1.4-1.7,2.3-2.8,3.1
		c-3.1,2.3-6.5,4.2-10.1,5.7c-1.2,0.5-2.1,1.7-1.8,3.1C252.2,261.6,253.7,262.7,255,262.2L255,262.2L255,262.2z"/>
	<path class="st0" d="M271.3,216.9c0.4-4.5-2-8.6-3.7-12.6s-3.4-8.2-5-12.4c-1.4-3.6-3.5-7.7-2.5-11.6c0.9-3.6,3.6-6.5,6-9.2
		c2.2-2.4-1.4-5.9-3.5-3.5c-2.8,3.1-5.6,6.3-7,10.3c-1.6,4.5-0.2,8.9,1.4,13.2c1.7,4.6,3.4,9.2,5.3,13.7c1.6,3.9,4.4,8,4,12.3
		c-0.1,1.4,1.2,2.5,2.5,2.5C270.2,219.4,271.1,218.3,271.3,216.9L271.3,216.9L271.3,216.9z"/>
	<path class="st0" d="M325,213.4c0.6-7.3,2.9-14.5,4.7-21.6c0.8-3.1-4-4.5-4.8-1.3c-1.9,7.6-4.1,15.1-4.9,22.9
		c-0.1,1.4,1.2,2.5,2.5,2.5C324,215.9,324.9,214.8,325,213.4L325,213.4z"/>
	<path class="st0" d="M325,215c0.3-2.8,4.6-4.2,6.6-5.5c3-1.9,5.4-4.6,7.7-7.3s4.4-5.6,5.5-9.2c1-3.4,1.4-6.9,2.3-10.3
		c0.8-3.1-4-4.4-4.8-1.3c-0.9,3.5-1.2,7.1-2.3,10.5s-3.2,5.8-5.5,8.4c-1.2,1.3-2.4,2.6-3.7,3.8c-1.3,1.1-2.8,1.8-4.2,2.6
		c-3.3,1.8-6.1,4.3-6.4,8.2c-0.1,1.4,1.2,2.5,2.5,2.5C324,217.5,324.9,216.4,325,215L325,215L325,215z"/>
	<path class="st0" d="M231.7,200.9c5.8-5.1,6-13.3,4.6-20.4c-1.5-7.9-4.1-15.6-6.3-23.3c-0.9-3.1-5.7-1.8-4.8,1.3
		c2,7.1,4.3,14.2,5.9,21.5c1.3,5.8,2,13-3,17.4C225.7,199.5,229.3,203,231.7,200.9L231.7,200.9L231.7,200.9z"/>
	<path class="st0" d="M235.9,172.1c5.9-9.3,10-19.8,12.1-30.6c0.3-1.3-0.4-2.7-1.8-3.1c-1.2-0.3-2.8,0.4-3.1,1.8
		c-2,10.5-5.9,20.4-11.6,29.4C229.9,172.3,234.2,174.8,235.9,172.1L235.9,172.1L235.9,172.1z"/>
	<path class="st0" d="M192.4,247.9c-1.2-0.5-2.4-0.5-3.7-0.4c-1,0-1.9,0.1-2.8-0.3s-1.7-1.1-2.5-1.7c-1.1-0.9-2.2-1.8-3.3-2.7
		c-1.9-1.5-4-3-5.7-4.8c-0.6-0.6-1-1.3-1.1-1.9c0-0.2,0-0.4,0.1-0.7c0.1-0.2,0.1-0.2,0,0l0.1-0.2c-0.2,0.3,0.3-0.2,0.3-0.2
		c1.1-0.9,0.9-2.6,0-3.5c-1-1-2.5-0.9-3.5,0c-2.3,1.9-2.4,5.3-1.1,7.8c1.3,2.6,4,4.4,6.2,6.2c2.4,2,4.7,4.2,7.3,5.8
		c1.3,0.8,2.8,1.3,4.3,1.4c1.4,0.1,2.8-0.3,4,0.2s2.7-0.5,3.1-1.8C194.5,249.6,193.6,248.4,192.4,247.9L192.4,247.9L192.4,247.9z"/>
	<path class="st0" d="M207.4,203c-0.4-11-0.5-21.9-0.2-32.9c0.1-3.2-4.9-3.2-5,0c-0.2,11-0.2,21.9,0.2,32.9
		C202.5,206.2,207.5,206.2,207.4,203L207.4,203z"/>
	<path class="st0" d="M207.6,201.7c0.2-1.2,0.1-2.3-0.5-3.4c-0.4-0.8-1-1.5-1.6-2c-1.3-1-2.9-1.5-4.2-2.4c-0.1-0.1-0.3-0.1-0.4-0.3
		c0.2,0.2,0.3,0.2,0.1,0.1c-0.1-0.1-0.1-0.1-0.2-0.2c-0.2-0.2-0.5-0.4-0.7-0.7s-0.5-0.5-0.7-0.7c-0.1-0.1-0.1-0.2-0.2-0.3l0.2,0.2
		c0,0-0.3-0.4-0.3-0.4c-0.8-1.1-1.5-2.4-2.2-3.6c-0.6-1.1-2.3-1.6-3.4-0.9c-1.2,0.8-1.6,2.2-0.9,3.4c1.3,2.4,2.7,4.9,4.8,6.6
		c1.2,1,2.5,1.6,3.8,2.3c0.3,0.2,0.6,0.4,1,0.5c0.4,0.2-0.1,0,0-0.1c0,0,0.4,0.4,0.4,0.4c0.3,0.3-0.1-0.2,0,0c0,0.1,0.2,0.3,0.2,0.4
		c-0.1-0.3-0.1-0.4-0.1-0.2c0,0.1,0,0.2,0.1,0.3l0-0.3c0,0.3,0,0.2,0.1-0.1c-0.1,0.7-0.1,1.3,0.2,1.9c0.3,0.5,0.9,1,1.5,1.1
		C205.7,203.7,207.4,203.1,207.6,201.7L207.6,201.7L207.6,201.7z"/>
	<path class="st0" d="M225.8,228.3c-2.3-1.1-4.3-2.6-6.1-4.4c-2-1.9-4-3.9-5.8-6c-3.4-4-6-8.7-5.6-14.1c0.1-1.4-1.2-2.5-2.5-2.5
		c-1.4,0-2.4,1.1-2.5,2.5c-0.5,6.4,2.6,12.2,6.5,17c1.9,2.3,4.1,4.5,6.2,6.5s4.5,4,7.3,5.3c1.2,0.6,2.7,0.4,3.4-0.9
		C227.3,230.7,227,228.9,225.8,228.3L225.8,228.3L225.8,228.3z"/>
	<path class="st0" d="M307.5,203.4c-1-6.2-2.2-13.2,0.3-19.2c1.4-3.1,3.6-5.7,4.2-9.1s0.3-7.2,0.2-10.8c-0.1-3.2-5.1-3.2-5,0
		c0.1,3.4,0.6,7.2-0.3,10.5c-0.4,1.5-1.3,2.9-2.1,4.3c-0.9,1.6-1.7,3.2-2.3,4.9c-2.3,6.7-1.1,14,0.1,20.8c0.2,1.3,1.9,2.1,3.1,1.8
		C307.2,206.1,307.8,204.8,307.5,203.4L307.5,203.4L307.5,203.4z"/>
	<path class="st0" d="M234.2,253.4c-2.1-3.8-3.2-7.9-3-12.2c0.2-4.6,1.6-9.1,2.7-13.6c2.2-9.5,3.2-19.1,1.9-28.8
		c-0.2-1.3-1.9-2.1-3.1-1.8c-1.4,0.4-1.9,1.7-1.8,3.1c1.4,9.5-0.1,19.2-2.4,28.4c-1.1,4.6-2.4,9.2-2.3,14s1.4,9.3,3.8,13.4
		C231.4,258.7,235.7,256.2,234.2,253.4L234.2,253.4L234.2,253.4z"/>
</g>
<g>
	<path class="st1" d="M168,225.9c-1.8,3.2-2.9,6.8-3.3,10.5c-0.2,1.9-0.2,3.7,0.1,5.6s1.1,4,0.7,5.9c-0.4,1.6-2,2.8-3.1,4
		c-1,1.1-1.8,2.5-2.1,4c-0.8,3.2,0.2,6.6,1.2,9.7c1.2,3.9,2.5,7.6,2.7,11.7s-0.4,8.3-1.7,12.4c-1.1,3.6-2.5,7.4-2.2,11.3
		c0.2,3.5,1.9,6.4,3.6,9.3c1,1.7,1.9,3.4,2.4,5.2c0.5,2.3,0,4.5-0.8,6.7c-1.2,3.5-2.8,7.6-0.3,11c0.5,0.6,1.6,0,1.1-0.6
		c-2.4-3.3-0.4-7.3,0.7-10.6s1-6.3-0.4-9.4s-3.6-5.7-4.5-8.9c-1.1-3.9,0.1-8,1.2-11.8s2.1-7.4,2.3-11.3s-0.4-7.7-1.5-11.3
		c-1-3.4-2.5-6.8-2.7-10.3c-0.1-1.8,0.2-3.5,1.2-5c0.9-1.4,2.2-2.3,3.2-3.6c1-1.4,1.3-2.9,1.1-4.6c-0.3-2.2-0.8-4.2-0.8-6.4
		c0-4.4,1.1-8.8,3.2-12.6C169.4,225.8,168.4,225.2,168,225.9L168,225.9L168,225.9z"/>
	<path class="st2" d="M173.8,226.5c2.3,3.5,4.2,7.2,5.5,11.2c0.7,2,1.5,4.3,0.8,6.4c-0.5,1.8-1.9,3.2-3.1,4.5
		c-2.3,2.6-3.9,5.4-4.5,8.9c-0.5,3.4,0.1,6.5,1.5,9.5c1.6,3.4,3.7,6.6,2.9,10.5c-0.7,3.2-2.5,6-4,8.8c-1.4,2.6-2.6,5.5-2.4,8.5
		c0.2,3.5,2,6.6,3.5,9.7c0.9,1.9,1.8,3.8,2.1,5.9c0.4,2.4,0.2,4.8-0.1,7.2c-0.6,4.4-1.8,8.8-1.6,13.3c0,0.8,1.3,0.8,1.2,0
		c-0.4-7.9,3.7-15.8,0.9-23.6c-1.2-3.4-3.4-6.5-4.4-10s0-6.9,1.7-10c1.4-2.8,3.2-5.4,4-8.4c0.9-3.2,0.4-6.2-1.1-9.1
		c-0.9-1.8-1.9-3.5-2.5-5.4c-0.6-1.8-0.8-3.7-0.6-5.5c0.3-4,2.2-7,4.8-9.9c1.2-1.3,2.4-2.8,2.9-4.5c0.6-2.1,0.1-4.2-0.5-6.2
		c-1.4-4.4-3.4-8.5-5.9-12.4C174.5,225.2,173.4,225.8,173.8,226.5L173.8,226.5L173.8,226.5z"/>
	<path class="st2" d="M180.8,227.4c2.9,2.4,4.9,5.6,5.7,9.2c1,3.9,0.3,7.6-1,11.3c-1.2,3.5-2.8,7.2-1.8,10.9
		c0.5,1.9,1.8,3.5,2.4,5.4s0.4,3.8-0.2,5.6c-1.1,3.5-3.3,6.7-3.7,10.5s0.6,7.3,1.5,10.9c1,3.8,2.1,7.9,1.3,11.8s-3.2,7.3-4.9,10.9
		c-2,4.1-3,8.6-2.7,13.2c0.1,1.7,0.1,4,1.4,5.4c0.9,1,5.5,2.1,4.1,3.9c-0.5,0.6,0.6,1.3,1.1,0.6c0.9-1.1,0.3-2.5-0.7-3.4
		c-1.5-1.4-3.7-1.1-4.3-3.5c-1-4.4-0.4-9.3,1.2-13.4c1.4-3.8,3.8-7,5.2-10.8s1.2-7.5,0.4-11.2s-2.4-7.9-2.5-12s1.8-7.5,3.2-11.2
		c0.7-1.7,1.2-3.5,1.1-5.3s-0.9-3.4-1.7-5c-1.1-2.1-1.6-4-1.3-6.4c0.3-2.1,1.1-4.1,1.8-6.1c1.4-4,2.1-7.8,1.2-12
		c-0.9-3.9-3-7.5-6.1-10.1C181,225.9,180.1,226.8,180.8,227.4L180.8,227.4L180.8,227.4z"/>
	<path class="st2" d="M169.5,225.9l4.1,5c0.6,0.8,1.6,1.8,1.6,2.8c0,1.2-1,2.4-1.5,3.4c-1,1.9-2,3.9-3.1,5.8
		c-0.9,1.7-2.1,3.4-2.4,5.3s0.5,3.4,1.5,4.9c1.2,1.9,2.4,3.7,3.5,5.6c1.1,1.7,2.5,3.5,2.4,5.7s-1.4,4.4-2.1,6.3
		c-1.6,4.1-3.1,8.2-4.7,12.4s-3.2,7.9-4.3,11.9c-0.9,3.5-1.3,7.4,0.1,10.9s4.3,5.8,6,9c0.7,1.4,0.5,2.3,0.1,3.7
		c-0.3,1.1-0.6,2.2-0.8,3.3c-0.4,2.1-0.7,4.3-0.8,6.5c-0.2,4.6,0.4,9.2,1.7,13.6c0.2,0.8,1.4,0.4,1.2-0.3c-1.2-4.1-1.8-8.3-1.6-12.6
		c0.1-2.2,0.3-4.4,0.8-6.6c0.2-1,0.4-1.9,0.7-2.9s0.7-1.8,0.8-2.8c0.1-1.7-1.1-3.3-2-4.6c-1.1-1.5-2.2-2.8-3.2-4.3
		c-2.5-3.7-2.7-7.8-1.6-12s2.8-8.1,4.3-12.1c1.6-4.2,3.2-8.4,4.8-12.6c0.8-2,1.8-4,2.1-6c0.3-1.8-0.2-3.4-1.1-4.9
		c-1-1.8-2.2-3.6-3.4-5.4c-1.1-1.8-3.3-4.1-2.9-6.4c0.2-1.2,0.9-2.2,1.4-3.3c0.6-1.1,1.2-2.3,1.8-3.4c1.1-2.1,2.4-4.2,3.4-6.4
		c0.8-1.8,0.4-3.2-0.8-4.6c-1.6-2-3.2-3.9-4.9-5.9C169.9,224.4,169,225.3,169.5,225.9L169.5,225.9L169.5,225.9z"/>
	<path class="st1" d="M177.1,226.1c1.6,4.1,3.2,8.2,4.8,12.3c0.4,1,0.9,2,0.8,3.1s-0.7,2.1-1.2,3.1c-0.9,1.6-2,3.1-2.9,4.6
		c-1.8,2.9-3.5,5.9-3.9,9.3c-0.5,4,1.4,7.7,3,11.2c1.8,4.1,4,8.1,5.5,12.3c1.6,4.5-0.7,8.2-3.4,11.6c-2.4,3.1-4.2,6.1-4.9,10.1
		c-0.3,1.9-0.4,3.8-0.5,5.6c-0.1,1.5-0.4,3.3,0.9,4.4c0.7,0.6,1.6,0.9,2.3,1.6c0.8,0.7,1.3,1.7,1.7,2.6c0.7,1.8,1,3.6,1.4,5.5
		c0.9,5,1.8,10,2.7,15c0.1,0.8,1.4,0.5,1.2-0.3c-0.8-4.4-1.6-8.7-2.4-13c-0.6-3.3-0.9-7-3-9.8c-0.4-0.5-0.8-1-1.4-1.4
		c-0.9-0.7-2.1-1-2.2-2.3c-0.1-1.9,0.1-4,0.3-5.9c0.2-2.1,0.7-4.3,1.6-6.2s2.2-3.6,3.5-5.2c2.1-2.8,4.4-6,4.1-9.7
		c-0.1-1.9-1-3.6-1.7-5.2c-0.9-2-1.8-4-2.8-6.1s-1.9-4.1-2.8-6.2s-1.8-4.2-1.9-6.5c-0.2-3.8,1.7-7.2,3.6-10.3
		c1.1-1.8,2.3-3.5,3.3-5.3c1-1.7,1.5-3.3,0.9-5.2c-0.7-2.3-1.8-4.6-2.6-6.9l-2.7-7.1C178,225.1,176.8,225.4,177.1,226.1L177.1,226.1
		L177.1,226.1z"/>
	<path class="st2" d="M170.2,224.6c-3,0.9-6.1,2.1-7.1,5.4c-0.5,1.8-0.5,3.7-0.6,5.5c-0.1,2-0.1,3.9-0.3,5.9c-0.2,4-0.8,8-2.3,11.7
		c-1.4,3.4-3.9,6.3-5.1,9.8c-1.3,3.9-0.2,8.1-0.1,12.1c0.1,2,0.1,4,0.4,6s0.9,4.1,1.4,6.1c0.9,4,0.7,8,0.6,12.1
		c-0.1,3.5,0.1,7.2,1.9,10.4c1.1,2,2.7,3.8,3.2,6s-0.1,4.7-0.8,6.9s-1.9,4-2.6,6.1c-0.5,1.5-0.6,3.1,0.5,4.3
		c0.5,0.6,1.4-0.3,0.9-0.9c-1.3-1.5,0.1-3.9,0.8-5.3c0.7-1.6,1.5-3.2,2-4.9c1.1-3.5,0.9-6.8-1-9.9c-1-1.6-2-3-2.6-4.8
		s-0.8-3.6-0.9-5.5c-0.1-3.6,0.4-7.2,0-10.8c-0.4-3.9-1.9-7.6-2.2-11.5c-0.2-2-0.1-4.1-0.2-6.1s-0.5-4.1-0.5-6.2
		c0-3.9,2.2-6.9,4.1-10.1c1.9-3.2,2.9-6.4,3.4-9.9c0.6-4.1,0.7-8.2,0.9-12.3c0.1-2,0-4.5,1.4-6.1c1.3-1.5,3.4-2.2,5.3-2.7
		C171.3,225.6,170.9,224.4,170.2,224.6L170.2,224.6L170.2,224.6z"/>
	<path class="st2" d="M171.2,225c-2.2,3.5-4.5,7.4-3.9,11.7c0.3,2.2,1.3,4.3,2.2,6.3c1.1,2.3,2.1,4.7,3.2,7s2.1,4.7,3.2,7
		c1,2.2,2.5,4.8,1.9,7.3c-0.5,2.3-2.8,4-4.4,5.6c-1.8,1.8-3.6,3.6-5.5,5.5c-1.6,1.6-3.4,3-4.7,4.8c-1.2,1.6-1.2,3.5-0.5,5.3
		c1.7,4.1,5,6.9,7.8,10.1c1.5,1.8,2.9,4.1,2.4,6.5c-0.3,1.5-1.4,2.7-2.7,3.6c-2.4,1.7-5.4,2.7-7.6,4.8c-3.1,3.1-2.8,7.7-1,11.5
		c1.1,2.4,2.7,4.5,4.1,6.6c1.7,2.5,3.3,4.9,5,7.4c0.4,0.7,1.5,0,1.1-0.6c-2.7-4.1-5.7-8.1-8.2-12.3c-2.1-3.6-3.5-8.5-0.1-11.8
		c2.2-2.1,5.3-3,7.7-4.9s3.6-4.7,2.6-7.7c-1.3-4-5.1-6.5-7.5-9.7c-1.3-1.8-3.4-4.4-2.9-6.7c0.4-2.1,2.9-3.9,4.4-5.4
		c1.8-1.8,3.5-3.5,5.3-5.3c1.5-1.5,3.2-3,4.5-4.7c2.7-3.7,0.6-7.8-1.1-11.5c-2.3-5-4.7-10-6.9-15.2c-1.1-2.6-1.7-5.2-0.9-7.9
		c0.7-2.5,2.1-4.8,3.5-7C172.7,224.9,171.6,224.3,171.2,225L171.2,225L171.2,225z"/>
	<path class="st2" d="M182,228.3c2.9,7.3,8.1,13.2,12.2,19.9c1,1.7,2.6,3.8,2,5.8c-0.5,1.7-2,3-3,4.4c-2.2,3-2.9,6.8-3,10.5
		c-0.1,4.6,0.5,9.1-0.4,13.7c-0.4,2.1-1,4.1-1.3,6.2c-0.3,1.9-0.2,3.6,0,5.5s0.4,3.7-1,5c-1.2,1-1.9,2-1.3,3.6
		c0.5,1.5,3.4,3.2,2.7,4.8c-0.5,1.2-0.7,2-0.1,3.2c0.8,1.6,2.6,2.9,1.7,4.9c-1,2.1-2.6,3.9-3.8,5.9c-2.3,3.8-4.1,8.1-3,12.6
		c0.2,0.8,1.4,0.5,1.2-0.3c-1.1-4.5,0.9-8.7,3.3-12.4c1.7-2.6,5-5.7,3.2-8.9c-0.6-1-2.2-2.4-1.8-3.7c0.2-0.7,0.7-1.1,0.7-1.9
		c-0.1-0.7-0.5-1.4-1-2c-0.6-0.8-1.4-1.4-1.9-2.3c-0.7-1.5,0.4-2,1.3-3c1-1,1.2-2.5,1.2-3.9c-0.1-1.8-0.5-3.6-0.4-5.4
		c0.1-2.2,0.7-4.3,1.2-6.5c0.9-4.4,0.6-8.7,0.6-13.1c0-3.9,0.3-8.2,2.6-11.5c1-1.4,2.4-2.6,3.1-4.2c0.7-1.4,0.5-2.9-0.1-4.3
		c-1.7-4-4.6-7.6-7.1-11.1c-2.6-3.7-5.1-7.5-6.8-11.7C182.9,227.2,181.7,227.5,182,228.3L182,228.3L182,228.3z"/>
	<path class="st2" d="M176.8,224.9c-2.9,2.6-5.6,5.5-8,8.6s-4.1,5.8-3.7,9.8s1.4,8.1,2.1,12.2c0.7,4,1.5,8.4,2.3,12.6
		c0.2,1,0.4,2.1,0.6,3.2c0.2,1.6-0.7,1.9-1.9,2.5c-1.9,0.9-3.7,1.8-5.4,2.8c-1.3,0.7-2.4,1.6-2.7,3.1c-0.4,1.7-0.3,3.6-0.1,5.3
		c0.4,3.8,1.6,7.4,2.9,11c1.4,3.8,2.7,7.5,3.7,11.5c1.1,4.6,1.9,9.3,2.2,14c0.1,2.2,0.2,4.5,0,6.7c-0.1,0.6-0.2,1.2-0.3,1.9
		c-0.1,0.3-0.3,0.7-0.2,1c0.2,0.8,1.5,1.8,2,2.4s1.4-0.3,0.9-0.9c-0.6-0.7-1.2-1.4-1.9-2.1l0.2,0.6c1-3.6,0.8-7.5,0.5-11.2
		s-0.9-7.6-1.8-11.4s-2-7.2-3.2-10.7s-2.6-7.1-3.3-10.8c-0.3-1.8-0.5-3.7-0.4-5.6c0.1-1,0.1-2,0.9-2.7s1.8-1.2,2.7-1.7
		c1.5-0.8,3.1-1.6,4.6-2.3c1.4-0.6,2.3-1.2,2.2-2.9c-0.2-1.8-0.6-3.6-1-5.4c-0.4-2.1-0.8-4.2-1.1-6.3c-0.7-3.9-1.4-7.8-2.1-11.7
		c-0.4-2.3-1-4.6-0.9-6.9s1.3-4.2,2.7-6.1c2.6-3.5,5.5-6.6,8.8-9.5C178.3,225.3,177.4,224.4,176.8,224.9L176.8,224.9L176.8,224.9z"
		/>
	<path class="st2" d="M172.3,224.8l2.8,14.6c0.9,4.9,2.1,9.8,2.8,14.8c0.4,2.5,0.4,5.1-0.6,7.4c-0.8,2-2.1,3.8-3.5,5.5
		c-2.4,3.1-5.2,6.3-5.8,10.4c-1,7.9,8,12.6,11.6,18.5c5.1,8.6-3,16.5-4.6,24.9c-0.4,2.1-0.4,4.4,0.3,6.5s2.1,3.6,3.2,5.3
		s2,4,0.4,5.8c-1.4,1.5-3.6,2-5.5,2.4c-0.8,0.2-0.4,1.4,0.3,1.2c2.9-0.6,6.8-1.8,7.3-5.3c0.6-3.8-3.3-6.5-4.5-9.8
		c-1.6-4.5,0.5-9.4,2.5-13.5s4-8.2,3.6-12.8c-0.8-8.2-9.4-11.8-12.6-18.7c-2.2-4.8,0.9-9.4,3.8-13c2.6-3.2,5.2-6.5,5.5-10.8
		c0.2-2.7-0.4-5.4-0.9-8l-1.6-8.5c-1.1-5.8-2.2-11.5-3.3-17.3C173.3,223.6,172.1,224,172.3,224.8L172.3,224.8L172.3,224.8z"/>
	<path class="st2" d="M168.5,224.4c-3-0.5-5.5,1.7-6.5,4.4c-0.7,1.8-0.7,3.8-0.8,5.6c0,2.1-0.1,4.2-0.3,6.3
		c-0.8,8.6-3.1,17-5.9,25.2c-1.3,3.8-2.5,7.6-2.4,11.7s1.2,8,2.3,11.9s2.1,8.2,0.1,11.9c-0.8,1.5-2.1,2.6-3.1,4s-1.4,3-1.1,4.6
		c0.3,2.2,1.4,4.2,2.3,6.2c1,2.1,2,4.3,3.1,6.4s2.4,4.2,3.5,6.3c1,1.9,1.9,4.8-0.4,6.2c-0.7,0.4-0.1,1.5,0.6,1.1
		c2.7-1.6,2.3-5,1.1-7.5c-1.9-3.7-4-7.2-5.8-10.9c-0.9-2-1.9-4-2.7-6.1s-0.8-4,0.6-5.9c1-1.3,2.2-2.5,3-3.9s1.1-3,1.2-4.6
		c0.2-3.8-1.1-7.5-2.1-11.1c-1.1-4.1-1.8-8.4-1.1-12.7c0.7-4,2.3-7.8,3.5-11.6s2.3-8,3.1-12.1c0.9-4.5,1.5-9.1,1.6-13.7
		c0.1-2.2-0.1-4.6,0.7-6.7s2.6-4.1,5-3.7C168.9,225.8,169.3,224.6,168.5,224.4L168.5,224.4L168.5,224.4z"/>
</g>
<g>
	<path class="st1" d="M322.1,185c-1.8,3.2-2.9,6.8-3.3,10.5c-0.2,1.9-0.2,3.7,0.1,5.6s1.1,4,0.7,5.9c-0.4,1.6-2,2.8-3.1,4
		c-1,1.1-1.8,2.5-2.1,4c-0.8,3.2,0.2,6.6,1.2,9.7c1.2,3.9,2.5,7.6,2.7,11.7c0.2,4.2-0.5,8.3-1.7,12.4c-1.1,3.6-2.5,7.4-2.2,11.3
		c0.2,3.5,1.9,6.4,3.6,9.3c1,1.7,1.9,3.4,2.4,5.2c0.5,2.3,0,4.5-0.8,6.7c-1.2,3.5-2.8,7.6-0.3,11c0.5,0.6,1.5,0,1.1-0.6
		c-2.4-3.3-0.4-7.3,0.7-10.6s1-6.3-0.4-9.4s-3.6-5.7-4.5-8.9c-1.1-3.9,0.1-8,1.2-11.8s2.1-7.4,2.3-11.3s-0.4-7.7-1.5-11.3
		c-1-3.4-2.5-6.8-2.7-10.3c-0.1-1.8,0.2-3.5,1.2-5c0.9-1.4,2.2-2.3,3.2-3.6c1-1.4,1.3-2.9,1.1-4.6c-0.3-2.2-0.8-4.2-0.8-6.4
		c0-4.4,1.1-8.8,3.2-12.6C323.6,184.9,322.5,184.2,322.1,185L322.1,185L322.1,185z"/>
	<path class="st2" d="M328,185.5c2.3,3.5,4.2,7.2,5.5,11.2c0.7,2,1.5,4.3,0.8,6.4c-0.5,1.8-1.9,3.2-3.1,4.5
		c-2.3,2.6-3.9,5.4-4.5,8.9s0,6.5,1.5,9.5c1.6,3.4,3.7,6.6,2.9,10.5c-0.7,3.2-2.5,6-4,8.8c-1.4,2.6-2.6,5.5-2.4,8.5
		c0.2,3.5,2,6.6,3.5,9.7c0.9,1.9,1.8,3.8,2.1,5.9c0.4,2.4,0.2,4.8-0.1,7.2c-0.6,4.4-1.8,8.8-1.5,13.3c0,0.8,1.3,0.8,1.2,0
		c-0.4-7.9,3.7-15.8,0.9-23.6c-1.2-3.4-3.4-6.5-4.4-10c-1-3.5,0-6.9,1.7-10.1c1.4-2.8,3.1-5.4,4-8.4c0.9-3.2,0.4-6.2-1.1-9.1
		c-0.9-1.8-1.9-3.5-2.5-5.4c-0.6-1.8-0.8-3.7-0.6-5.5c0.3-4,2.2-7,4.8-9.9c1.2-1.3,2.4-2.8,2.9-4.5c0.6-2.1,0.1-4.2-0.5-6.2
		c-1.4-4.4-3.4-8.5-5.9-12.4C328.6,184.2,327.5,184.8,328,185.5L328,185.5L328,185.5z"/>
	<path class="st2" d="M334.9,186.4c2.9,2.4,4.9,5.6,5.7,9.2c1,3.9,0.3,7.6-1,11.3c-1.2,3.5-2.8,7.2-1.8,10.9
		c0.5,1.9,1.8,3.5,2.4,5.4s0.4,3.8-0.2,5.6c-1.1,3.5-3.3,6.7-3.7,10.5s0.6,7.3,1.5,10.9c1,3.8,2.1,7.9,1.3,11.8s-3.2,7.3-4.9,10.9
		c-2,4.1-3,8.6-2.7,13.2c0.1,1.7,0.1,4,1.4,5.4c0.9,1,5.5,2.1,4.1,3.9c-0.5,0.6,0.6,1.3,1.1,0.6c0.9-1.1,0.3-2.5-0.7-3.4
		c-1.5-1.4-3.7-1.1-4.3-3.5c-1-4.4-0.4-9.3,1.2-13.4c1.4-3.8,3.8-7,5.2-10.8s1.2-7.5,0.4-11.2c-0.8-3.8-2.4-7.9-2.5-12
		s1.8-7.5,3.2-11.2c0.7-1.7,1.2-3.5,1.1-5.3s-0.9-3.4-1.7-5c-1.1-2.1-1.6-4-1.3-6.4c0.3-2.1,1.1-4.1,1.8-6.1c1.4-4,2.1-7.8,1.2-12
		c-0.9-3.9-3-7.5-6.1-10.1C335.1,185,334.3,185.8,334.9,186.4L334.9,186.4L334.9,186.4z"/>
	<path class="st2" d="M323.6,185c1.4,1.7,2.8,3.4,4.1,5c0.6,0.8,1.6,1.8,1.6,2.8c0,1.2-1,2.4-1.5,3.4c-1,1.9-2,3.9-3.1,5.8
		c-0.9,1.7-2.1,3.4-2.4,5.3s0.5,3.4,1.5,4.9c1.2,1.9,2.4,3.7,3.5,5.6c1.1,1.7,2.5,3.5,2.4,5.7s-1.4,4.4-2.1,6.3
		c-1.6,4.1-3.1,8.2-4.7,12.4s-3.2,7.9-4.3,11.9c-1,3.6-1.3,7.4,0.1,10.9c1.4,3.4,4.3,5.8,6,9c0.7,1.4,0.5,2.3,0,3.7
		c-0.3,1.1-0.6,2.2-0.8,3.3c-0.5,2.1-0.7,4.3-0.8,6.5c-0.2,4.6,0.4,9.2,1.7,13.6c0.2,0.8,1.4,0.4,1.2-0.3c-1.2-4.1-1.8-8.3-1.6-12.6
		c0.1-2.2,0.3-4.4,0.8-6.6c0.2-1,0.4-1.9,0.7-2.9s0.7-1.8,0.8-2.8c0.1-1.7-1.1-3.3-2-4.6c-1-1.5-2.2-2.8-3.2-4.3
		c-2.5-3.7-2.7-7.8-1.6-12c1-4.2,2.8-8.1,4.3-12.1c1.6-4.2,3.2-8.4,4.8-12.6c0.8-2,1.8-4,2.1-6c0.3-1.8-0.2-3.4-1-4.9
		c-1-1.8-2.2-3.6-3.4-5.4s-3.3-4.1-3-6.4c0.2-1.2,0.9-2.2,1.4-3.3c0.6-1.1,1.2-2.3,1.8-3.4c1.1-2.1,2.4-4.2,3.4-6.4
		c0.8-1.8,0.4-3.2-0.8-4.6c-1.6-2-3.2-3.9-4.9-5.9C324,183.5,323.1,184.4,323.6,185L323.6,185L323.6,185z"/>
	<path class="st1" d="M331.2,185.1c1.6,4.1,3.2,8.2,4.8,12.3c0.4,1,0.9,2,0.8,3.1s-0.7,2.1-1.2,3.1c-0.9,1.6-2,3.1-2.9,4.6
		c-1.8,2.9-3.5,5.9-3.9,9.3c-0.5,4,1.4,7.7,3,11.2c1.8,4.1,4,8.1,5.5,12.3c1.6,4.5-0.7,8.2-3.4,11.6c-2.4,3.1-4.2,6.1-4.9,10.1
		c-0.3,1.9-0.4,3.8-0.5,5.6c0,1.5-0.4,3.3,0.9,4.4c0.7,0.6,1.6,0.9,2.2,1.6c0.8,0.7,1.3,1.7,1.7,2.6c0.7,1.8,1,3.6,1.4,5.5
		c0.9,5,1.8,10,2.7,15c0.1,0.8,1.4,0.5,1.2-0.3c-0.8-4.4-1.6-8.7-2.4-13c-0.6-3.3-0.9-7-3-9.8c-0.4-0.5-0.8-1-1.4-1.4
		c-0.9-0.7-2.1-1-2.2-2.3c-0.1-1.9,0.1-4,0.3-5.9c0.2-2.1,0.7-4.3,1.6-6.2s2.2-3.6,3.5-5.2c2.1-2.8,4.4-6,4.1-9.7
		c-0.1-1.9-1-3.6-1.7-5.2c-0.9-2-1.8-4-2.8-6.1s-1.9-4.1-2.8-6.2s-1.8-4.2-1.9-6.5c-0.2-3.8,1.7-7.2,3.6-10.3
		c1.1-1.8,2.3-3.5,3.3-5.3c1-1.7,1.5-3.3,0.9-5.2c-0.7-2.3-1.8-4.6-2.6-6.9l-2.7-7.1C332.1,184.1,330.9,184.4,331.2,185.1
		L331.2,185.1L331.2,185.1z"/>
	<path class="st2" d="M324.3,183.6c-3,0.9-6.1,2.1-7.1,5.4c-0.5,1.8-0.5,3.7-0.6,5.5c-0.1,2-0.1,3.9-0.3,5.9c-0.2,4-0.8,8-2.3,11.7
		c-1.4,3.4-3.9,6.3-5.1,9.8c-1.3,3.9-0.2,8.1-0.1,12.1c0,2,0.1,4,0.4,6s0.9,4.1,1.4,6.1c1,4,0.7,8,0.6,12.1
		c-0.1,3.5,0.1,7.2,1.9,10.4c1.1,2,2.7,3.8,3.2,6s0,4.7-0.8,6.9s-1.9,4-2.6,6.1c-0.5,1.5-0.6,3.1,0.5,4.3c0.5,0.6,1.4-0.3,0.9-0.9
		c-1.3-1.5,0.1-3.9,0.8-5.3c0.7-1.6,1.5-3.2,2-4.9c1-3.5,0.9-6.8-1-9.9c-1-1.6-2-3-2.6-4.8s-0.8-3.6-0.9-5.5
		c-0.1-3.6,0.4-7.2,0-10.8c-0.4-3.9-1.9-7.6-2.2-11.5c-0.2-2-0.1-4.1-0.2-6.1s-0.5-4.1-0.5-6.2c0-3.9,2.2-6.9,4.1-10.1
		s2.9-6.4,3.4-9.9c0.6-4.1,0.7-8.2,0.9-12.3c0.1-2,0-4.5,1.4-6.1c1.3-1.5,3.4-2.2,5.3-2.7C325.4,184.6,325.1,183.4,324.3,183.6
		L324.3,183.6L324.3,183.6z"/>
	<path class="st2" d="M325.3,184c-2.2,3.5-4.5,7.4-3.9,11.7c0.3,2.2,1.3,4.3,2.2,6.3c1.1,2.3,2.1,4.7,3.2,7s2.1,4.7,3.2,7
		c1,2.2,2.5,4.8,1.9,7.3c-0.5,2.3-2.8,4-4.4,5.6c-1.8,1.8-3.6,3.6-5.5,5.5c-1.6,1.6-3.4,3-4.7,4.8c-1.2,1.6-1.2,3.5-0.5,5.3
		c1.7,4.1,5,6.9,7.8,10.1c1.5,1.8,2.9,4.1,2.4,6.5c-0.3,1.5-1.4,2.7-2.7,3.6c-2.4,1.7-5.4,2.7-7.6,4.8c-3.1,3.1-2.8,7.7-1,11.5
		c1.1,2.4,2.7,4.5,4.1,6.6c1.7,2.5,3.3,4.9,5,7.4c0.5,0.7,1.5,0,1.1-0.6c-2.7-4.1-5.7-8.1-8.2-12.3c-2.1-3.6-3.5-8.5-0.1-11.8
		c2.2-2.1,5.3-3,7.7-4.9s3.6-4.7,2.6-7.7c-1.3-4-5.1-6.5-7.5-9.7c-1.3-1.8-3.4-4.4-2.9-6.7c0.4-2.1,2.9-3.9,4.4-5.4
		c1.8-1.8,3.5-3.5,5.3-5.3c1.5-1.5,3.2-3,4.5-4.7c2.7-3.7,0.6-7.8-1.1-11.5c-2.3-5-4.7-10-6.9-15.2c-1.1-2.6-1.7-5.2-1-7.9
		c0.7-2.5,2.1-4.8,3.5-7C326.8,183.9,325.7,183.3,325.3,184L325.3,184L325.3,184z"/>
	<path class="st2" d="M336.1,187.3c2.9,7.3,8.1,13.2,12.2,19.9c1,1.7,2.6,3.8,2,5.8c-0.5,1.7-2,3-3,4.4c-2.2,3-2.9,6.8-3,10.5
		c-0.1,4.6,0.5,9.1-0.4,13.7c-0.4,2.1-1,4.1-1.3,6.2c-0.3,1.9-0.2,3.6,0,5.5s0.4,3.7-1,5c-1.2,1-1.9,2-1.3,3.6
		c0.5,1.5,3.4,3.2,2.7,4.8c-0.5,1.2-0.7,2-0.1,3.2c0.8,1.6,2.6,2.9,1.7,4.9c-1,2.1-2.6,3.9-3.8,5.9c-2.3,3.8-4.1,8.1-3,12.6
		c0.2,0.8,1.4,0.5,1.2-0.3c-1.1-4.5,0.9-8.7,3.3-12.4c1.7-2.6,5-5.7,3.2-8.9c-0.6-1-2.2-2.4-1.8-3.7c0.2-0.7,0.7-1.1,0.7-1.9
		c-0.1-0.7-0.5-1.4-1-2c-0.6-0.8-1.4-1.4-1.9-2.3c-0.7-1.5,0.4-2,1.3-3c1-1,1.2-2.5,1.2-3.9c-0.1-1.8-0.5-3.6-0.4-5.4
		c0.1-2.2,0.7-4.3,1.2-6.5c0.9-4.4,0.6-8.7,0.6-13.1c0-3.9,0.3-8.2,2.6-11.5c1-1.4,2.4-2.6,3.1-4.2c0.7-1.4,0.5-2.9-0.1-4.3
		c-1.7-4-4.6-7.6-7.1-11.1c-2.6-3.7-5.1-7.5-6.8-11.7C337,186.2,335.8,186.5,336.1,187.3L336.1,187.3L336.1,187.3z"/>
	<path class="st2" d="M331,184c-2.9,2.6-5.6,5.5-8,8.6s-4.1,5.8-3.7,9.8s1.4,8.1,2.1,12.2c0.8,4.2,1.5,8.4,2.3,12.6
		c0.2,1,0.4,2.1,0.6,3.2c0.2,1.6-0.7,1.9-1.9,2.5c-1.9,0.9-3.7,1.8-5.4,2.8c-1.3,0.7-2.4,1.6-2.7,3.1c-0.4,1.7-0.3,3.6-0.1,5.3
		c0.4,3.8,1.6,7.4,2.9,11c1.4,3.8,2.7,7.6,3.7,11.5c1.1,4.6,1.9,9.3,2.2,14c0.1,2.2,0.2,4.5,0,6.7c-0.1,0.6-0.2,1.2-0.3,1.9
		c-0.1,0.3-0.3,0.7-0.2,1c0.2,0.8,1.5,1.8,2,2.4s1.4-0.3,0.9-0.9c-0.6-0.7-1.2-1.4-1.9-2.1l0.2,0.6c1-3.6,0.8-7.5,0.5-11.2
		s-0.9-7.6-1.8-11.4s-2-7.2-3.2-10.7c-1.3-3.5-2.6-7.1-3.3-10.8c-0.3-1.8-0.5-3.7-0.4-5.6c0.1-1,0.1-2,0.9-2.7s1.8-1.2,2.7-1.7
		c1.5-0.8,3.1-1.6,4.6-2.3c1.4-0.6,2.3-1.2,2.2-2.9c-0.2-1.8-0.6-3.6-1-5.4c-0.4-2.1-0.8-4.2-1.1-6.3c-0.7-3.9-1.4-7.8-2.1-11.7
		c-0.4-2.3-1-4.6-0.9-6.9s1.3-4.2,2.7-6.1c2.6-3.5,5.5-6.6,8.8-9.5C332.4,184.3,331.5,183.5,331,184L331,184L331,184z"/>
	<path class="st2" d="M326.4,183.8c0.9,4.9,1.9,9.7,2.8,14.6s2.1,9.8,2.8,14.8c0.4,2.5,0.4,5-0.6,7.4c-0.8,2-2.1,3.8-3.5,5.5
		c-2.5,3.1-5.2,6.3-5.8,10.4c-1,7.9,8,12.6,11.6,18.5c5.1,8.6-3,16.5-4.6,24.9c-0.4,2.1-0.4,4.4,0.3,6.5s2.1,3.6,3.2,5.3
		s2,4,0.4,5.8c-1.4,1.5-3.6,2-5.5,2.4c-0.8,0.2-0.5,1.4,0.3,1.2c2.9-0.6,6.8-1.8,7.3-5.3c0.6-3.8-3.3-6.5-4.5-9.8
		c-1.6-4.5,0.5-9.4,2.5-13.5c1.9-4,4-8.2,3.6-12.8c-0.8-8.2-9.4-11.8-12.6-18.7c-2.2-4.8,0.9-9.4,3.8-13c2.6-3.2,5.2-6.5,5.5-10.8
		c0.2-2.7-0.4-5.4-0.9-8l-1.6-8.5l-3.3-17.3C327.5,182.7,326.3,183,326.4,183.8L326.4,183.8L326.4,183.8z"/>
	<path class="st2" d="M322.6,183.4c-3-0.5-5.5,1.7-6.5,4.4c-0.7,1.8-0.7,3.8-0.8,5.6c0,2.1-0.1,4.2-0.3,6.3
		c-0.8,8.6-3.1,17-5.9,25.2c-1.3,3.8-2.5,7.6-2.4,11.7s1.2,8,2.3,11.9s2.1,8.2,0.1,11.9c-0.8,1.5-2.1,2.6-3.1,4s-1.4,3-1.1,4.6
		c0.3,2.2,1.4,4.2,2.3,6.2c1,2.1,2,4.3,3.1,6.4s2.4,4.2,3.5,6.3c1,1.9,1.9,4.8-0.4,6.2c-0.7,0.4-0.1,1.5,0.6,1.1
		c2.7-1.6,2.3-5,1.1-7.5c-1.9-3.7-4-7.2-5.8-10.9c-1-2-1.9-4-2.7-6.1s-0.8-4,0.6-5.9c1-1.3,2.2-2.5,3-3.9s1.1-3,1.2-4.6
		c0.2-3.8-1.1-7.5-2.1-11.2c-1.1-4.1-1.8-8.4-1.1-12.7c0.7-4,2.3-7.8,3.5-11.6s2.3-8,3.1-12.1c0.9-4.5,1.5-9.1,1.6-13.7
		c0.1-2.2-0.1-4.6,0.7-6.7s2.6-4.1,5-3.7C323.1,184.8,323.4,183.6,322.6,183.4L322.6,183.4L322.6,183.4z"/>
</g>
<g>
	<path class="st1" d="M275.7,165.9c-1.8,3.2-2.9,6.8-3.3,10.5c-0.2,1.9-0.2,3.7,0.1,5.6s1.1,4,0.7,5.9c-0.4,1.6-2,2.8-3.1,4
		c-1,1.1-1.8,2.5-2.1,4c-0.8,3.2,0.2,6.6,1.2,9.7c1.2,3.9,2.5,7.6,2.7,11.7c0.2,4.2-0.5,8.3-1.7,12.4c-1.1,3.6-2.5,7.4-2.2,11.3
		c0.2,3.5,1.9,6.4,3.6,9.3c1,1.7,1.9,3.4,2.4,5.2c0.5,2.3,0,4.5-0.8,6.7c-1.2,3.5-2.8,7.6-0.3,11c0.5,0.6,1.5,0,1.1-0.6
		c-2.4-3.3-0.4-7.3,0.7-10.6s1-6.3-0.4-9.4s-3.6-5.7-4.5-8.9c-1.1-3.9,0.1-8,1.2-11.8s2.1-7.4,2.3-11.3s-0.4-7.7-1.5-11.3
		c-1-3.4-2.5-6.8-2.7-10.3c-0.1-1.8,0.2-3.5,1.2-5c0.9-1.4,2.2-2.3,3.2-3.6c1-1.4,1.3-2.9,1.1-4.6c-0.3-2.2-0.8-4.2-0.8-6.4
		c0-4.4,1.1-8.8,3.2-12.6C277.2,165.8,276.1,165.1,275.7,165.9L275.7,165.9L275.7,165.9z"/>
	<path class="st2" d="M281.6,166.4c2.3,3.5,4.2,7.2,5.5,11.2c0.7,2,1.5,4.3,0.8,6.4c-0.5,1.8-1.9,3.2-3.1,4.5
		c-2.3,2.6-3.9,5.4-4.5,8.9s0,6.5,1.5,9.5c1.6,3.4,3.7,6.6,2.9,10.5c-0.7,3.2-2.5,6-4,8.8c-1.4,2.6-2.6,5.5-2.4,8.5
		c0.2,3.5,2,6.6,3.5,9.7c0.9,1.9,1.8,3.8,2.1,5.9c0.4,2.4,0.2,4.8-0.1,7.2c-0.6,4.4-1.8,8.8-1.5,13.3c0,0.8,1.3,0.8,1.2,0
		c-0.4-7.9,3.7-15.8,0.9-23.6c-1.2-3.4-3.4-6.5-4.4-10s0-6.9,1.7-10c1.4-2.8,3.1-5.4,4-8.4c0.9-3.2,0.4-6.2-1.1-9.1
		c-0.9-1.8-1.9-3.5-2.5-5.4c-0.6-1.8-0.8-3.7-0.6-5.5c0.3-4,2.2-7,4.8-9.9c1.2-1.3,2.4-2.8,2.9-4.5c0.6-2.1,0.1-4.2-0.5-6.2
		c-1.4-4.4-3.4-8.5-5.9-12.4C282.2,165.1,281.1,165.7,281.6,166.4L281.6,166.4L281.6,166.4z"/>
	<path class="st2" d="M288.5,167.3c2.9,2.4,4.9,5.6,5.7,9.2c1,3.9,0.3,7.6-1,11.3c-1.2,3.5-2.8,7.2-1.8,10.9
		c0.5,1.9,1.8,3.5,2.4,5.4s0.4,3.8-0.2,5.6c-1.1,3.5-3.3,6.7-3.7,10.5s0.6,7.3,1.5,10.9c1,3.8,2.1,7.9,1.3,11.8s-3.2,7.3-4.9,10.9
		c-2,4.1-3,8.6-2.7,13.2c0.1,1.7,0.1,4,1.4,5.4c0.9,1,5.5,2.1,4.1,3.9c-0.5,0.6,0.6,1.3,1.1,0.6c0.9-1.1,0.3-2.5-0.7-3.4
		c-1.5-1.4-3.7-1.1-4.3-3.5c-1-4.4-0.4-9.3,1.2-13.4c1.4-3.8,3.8-7,5.2-10.8s1.2-7.5,0.4-11.2s-2.4-7.9-2.5-12s1.8-7.5,3.2-11.2
		c0.7-1.7,1.2-3.5,1.1-5.3s-0.9-3.4-1.7-5c-1.1-2.1-1.6-4-1.3-6.4c0.3-2.1,1.1-4.1,1.8-6.1c1.4-4,2.1-7.8,1.2-12
		c-0.9-3.9-3-7.5-6.1-10.1C288.7,165.9,287.8,166.7,288.5,167.3L288.5,167.3L288.5,167.3z"/>
	<path class="st2" d="M277.2,165.9c1.4,1.7,2.8,3.4,4.1,5c0.6,0.8,1.6,1.8,1.6,2.8c0,1.2-1,2.4-1.5,3.4c-1,1.9-2,3.9-3.1,5.8
		c-0.9,1.7-2.1,3.4-2.4,5.3s0.5,3.4,1.5,4.9c1.2,1.9,2.4,3.7,3.5,5.6c1.1,1.7,2.5,3.5,2.4,5.7s-1.4,4.4-2.1,6.3
		c-1.6,4.1-3.1,8.2-4.7,12.4s-3.2,7.9-4.3,11.9c-1,3.5-1.3,7.4,0.1,10.9c1.4,3.4,4.3,5.8,6,9c0.7,1.4,0.5,2.3,0,3.7
		c-0.3,1.1-0.6,2.2-0.8,3.3c-0.5,2.1-0.7,4.3-0.8,6.5c-0.2,4.6,0.4,9.2,1.7,13.6c0.2,0.8,1.4,0.4,1.2-0.3c-1.2-4.1-1.8-8.3-1.6-12.6
		c0.1-2.2,0.3-4.4,0.8-6.6c0.2-1,0.4-1.9,0.7-2.9s0.7-1.8,0.8-2.8c0.1-1.7-1.1-3.3-2-4.6c-1-1.5-2.2-2.8-3.2-4.3
		c-2.5-3.7-2.7-7.8-1.6-12s2.8-8.1,4.3-12.1c1.6-4.2,3.2-8.4,4.8-12.6c0.8-2,1.8-4,2.1-6c0.3-1.8-0.2-3.4-1-4.9
		c-1-1.8-2.2-3.6-3.4-5.4s-3.3-4.1-3-6.4c0.2-1.2,0.9-2.2,1.4-3.3c0.6-1.1,1.2-2.3,1.8-3.4c1.1-2.1,2.4-4.2,3.4-6.4
		c0.8-1.8,0.4-3.2-0.8-4.6c-1.6-2-3.2-3.9-4.9-5.9C277.6,164.4,276.7,165.3,277.2,165.9L277.2,165.9L277.2,165.9z"/>
	<path class="st1" d="M284.8,166c1.6,4.1,3.2,8.2,4.8,12.3c0.4,1,0.9,2,0.8,3.1s-0.7,2.1-1.2,3.1c-0.9,1.6-2,3.1-2.9,4.6
		c-1.8,2.9-3.5,5.9-3.9,9.3c-0.5,4,1.4,7.7,3,11.2c1.8,4.1,4,8.1,5.5,12.3c1.6,4.5-0.7,8.2-3.4,11.6c-2.4,3.1-4.2,6.1-4.9,10.1
		c-0.3,1.9-0.4,3.8-0.5,5.6c0,1.5-0.4,3.3,0.9,4.4c0.7,0.6,1.6,0.9,2.2,1.6c0.8,0.7,1.3,1.7,1.7,2.6c0.7,1.8,1,3.6,1.4,5.5
		c0.9,5,1.8,10,2.7,15c0.1,0.8,1.4,0.5,1.2-0.3c-0.8-4.4-1.6-8.7-2.4-13c-0.6-3.3-0.9-7-3-9.8c-0.4-0.5-0.8-1-1.4-1.4
		c-0.9-0.7-2.1-1-2.2-2.3c-0.1-1.9,0.1-4,0.3-5.9c0.2-2.1,0.7-4.3,1.6-6.2s2.2-3.6,3.5-5.2c2.1-2.8,4.4-6,4.1-9.7
		c-0.1-1.9-1-3.6-1.7-5.2c-0.9-2-1.8-4-2.8-6.1s-1.9-4.1-2.8-6.2s-1.8-4.2-1.9-6.5c-0.2-3.8,1.7-7.2,3.6-10.3
		c1.1-1.8,2.3-3.5,3.3-5.3c1-1.7,1.5-3.3,0.9-5.2c-0.7-2.3-1.8-4.6-2.6-6.9l-2.7-7.1C285.7,165,284.5,165.3,284.8,166L284.8,166
		L284.8,166z"/>
	<path class="st2" d="M277.9,164.5c-3,0.9-6.1,2.1-7.1,5.4c-0.5,1.8-0.5,3.7-0.6,5.5c-0.1,2-0.1,3.9-0.3,5.9c-0.2,4-0.8,8-2.3,11.7
		c-1.4,3.4-3.9,6.3-5.1,9.8c-1.3,3.9-0.2,8.1-0.1,12.1c0,2,0.1,4,0.4,6s0.9,4.1,1.4,6.1c1,4,0.7,8,0.6,12.1
		c-0.1,3.5,0.1,7.2,1.9,10.4c1.1,2,2.7,3.8,3.2,6c0.5,2.3,0,4.7-0.8,6.9s-1.9,4-2.6,6.1c-0.5,1.5-0.6,3.1,0.5,4.3
		c0.5,0.6,1.4-0.3,0.9-0.9c-1.3-1.5,0.1-3.9,0.8-5.3c0.7-1.6,1.5-3.2,2-4.9c1-3.5,0.9-6.8-1-9.9c-1-1.6-2-3-2.6-4.8
		s-0.8-3.6-0.9-5.5c-0.1-3.6,0.4-7.2,0-10.8c-0.4-3.9-1.9-7.6-2.2-11.5c-0.2-2-0.1-4.1-0.2-6.1s-0.5-4.1-0.5-6.2
		c0-3.9,2.2-6.9,4.1-10.1s2.9-6.4,3.4-9.9c0.6-4.1,0.7-8.2,0.9-12.3c0.1-2,0-4.5,1.4-6.1c1.3-1.5,3.4-2.2,5.3-2.7
		C279,165.5,278.7,164.3,277.9,164.5L277.9,164.5L277.9,164.5z"/>
	<path class="st2" d="M278.9,164.9c-2.2,3.5-4.5,7.4-3.9,11.7c0.3,2.2,1.3,4.3,2.2,6.3c1.1,2.3,2.1,4.7,3.2,7s2.1,4.7,3.2,7
		c1,2.2,2.5,4.8,1.9,7.3c-0.5,2.3-2.8,4-4.4,5.6c-1.8,1.8-3.6,3.6-5.5,5.5c-1.6,1.6-3.4,3-4.7,4.8c-1.2,1.6-1.2,3.5-0.5,5.3
		c1.7,4.1,5,6.9,7.8,10.1c1.5,1.8,2.9,4.1,2.4,6.5c-0.3,1.5-1.4,2.7-2.7,3.6c-2.4,1.7-5.4,2.7-7.6,4.8c-3.1,3.1-2.8,7.7-1,11.5
		c1.1,2.4,2.7,4.5,4.1,6.6c1.7,2.5,3.3,4.9,5,7.4c0.5,0.7,1.5,0,1.1-0.6c-2.7-4.1-5.7-8.1-8.2-12.3c-2.1-3.6-3.5-8.5-0.1-11.8
		c2.2-2.1,5.3-3,7.7-4.9s3.6-4.7,2.6-7.7c-1.3-4-5.1-6.5-7.5-9.7c-1.3-1.8-3.4-4.4-2.9-6.7c0.4-2.1,2.9-3.9,4.4-5.4
		c1.8-1.8,3.5-3.5,5.3-5.3c1.5-1.5,3.2-3,4.5-4.7c2.7-3.7,0.6-7.8-1.1-11.5c-2.3-5-4.7-10-6.9-15.2c-1.1-2.6-1.7-5.2-1-7.9
		c0.7-2.5,2.1-4.8,3.5-7C280.4,164.8,279.3,164.2,278.9,164.9L278.9,164.9L278.9,164.9z"/>
	<path class="st2" d="M289.7,168.2c2.9,7.3,8.1,13.2,12.2,19.9c1,1.7,2.6,3.8,2,5.8c-0.5,1.7-2,3-3,4.4c-2.2,3-2.9,6.8-3,10.5
		c-0.1,4.6,0.5,9.1-0.4,13.7c-0.4,2.1-1,4.1-1.3,6.2c-0.3,1.9-0.2,3.6,0,5.5s0.4,3.7-1,5c-1.2,1-1.9,2-1.3,3.6
		c0.5,1.5,3.4,3.2,2.7,4.8c-0.5,1.2-0.7,2-0.1,3.2c0.8,1.6,2.6,2.9,1.7,4.9c-1,2.1-2.6,3.9-3.8,5.9c-2.3,3.8-4.1,8.1-3,12.6
		c0.2,0.8,1.4,0.5,1.2-0.3c-1.1-4.5,0.9-8.7,3.3-12.4c1.7-2.6,5-5.7,3.2-8.9c-0.6-1-2.2-2.4-1.8-3.7c0.2-0.7,0.7-1.1,0.7-1.9
		c-0.1-0.7-0.5-1.4-1-2c-0.6-0.8-1.4-1.4-1.9-2.3c-0.7-1.5,0.4-2,1.3-3c1-1,1.2-2.5,1.2-3.9c-0.1-1.8-0.5-3.6-0.4-5.4
		c0.1-2.2,0.7-4.3,1.2-6.5c0.9-4.4,0.6-8.7,0.6-13.1c0-3.9,0.3-8.2,2.6-11.5c1-1.4,2.4-2.6,3.1-4.2c0.7-1.4,0.5-2.9-0.1-4.3
		c-1.7-4-4.6-7.6-7.1-11.1c-2.6-3.7-5.1-7.5-6.8-11.7C290.6,167.1,289.4,167.5,289.7,168.2L289.7,168.2L289.7,168.2z"/>
	<path class="st2" d="M284.5,164.9c-2.9,2.6-5.6,5.5-8,8.6s-4.1,5.8-3.7,9.8s1.4,8.1,2.1,12.2c0.8,4.2,1.5,8.4,2.3,12.6
		c0.2,1,0.4,2.1,0.6,3.2c0.2,1.6-0.7,1.9-1.9,2.5c-1.9,0.9-3.7,1.8-5.4,2.8c-1.3,0.7-2.4,1.6-2.7,3.1c-0.4,1.7-0.3,3.6-0.1,5.3
		c0.4,3.8,1.6,7.4,2.9,11c1.4,3.8,2.7,7.5,3.7,11.5c1.1,4.6,1.9,9.3,2.2,14.1c0.1,2.2,0.2,4.5,0,6.7c-0.1,0.6-0.2,1.2-0.3,1.9
		c-0.1,0.3-0.3,0.7-0.2,1c0.2,0.8,1.5,1.8,2,2.4s1.4-0.3,0.9-0.9c-0.6-0.7-1.2-1.4-1.9-2.1l0.2,0.6c1-3.6,0.8-7.5,0.5-11.2
		c-0.3-3.7-0.9-7.6-1.8-11.4s-2-7.2-3.2-10.7s-2.6-7.1-3.3-10.8c-0.3-1.8-0.5-3.7-0.4-5.6c0.1-1,0.1-2,0.9-2.7s1.8-1.2,2.7-1.7
		c1.5-0.8,3.1-1.6,4.6-2.3c1.4-0.6,2.3-1.2,2.2-2.9c-0.2-1.8-0.6-3.6-1-5.4c-0.4-2.1-0.8-4.2-1.1-6.3c-0.7-3.9-1.4-7.8-2.1-11.7
		c-0.4-2.3-1-4.6-0.9-6.9s1.3-4.2,2.7-6.1c2.6-3.5,5.5-6.6,8.8-9.5C286,165.2,285.1,164.4,284.5,164.9L284.5,164.9L284.5,164.9z"/>
	<path class="st2" d="M280,164.7c0.9,4.9,1.9,9.7,2.8,14.6s2.1,9.8,2.8,14.8c0.4,2.5,0.4,5-0.6,7.4c-0.8,2-2.1,3.8-3.5,5.5
		c-2.5,3.1-5.2,6.3-5.8,10.4c-1,7.9,8,12.6,11.6,18.5c5.1,8.6-3,16.5-4.6,24.9c-0.4,2.1-0.4,4.4,0.3,6.5s2.1,3.6,3.2,5.3
		s2,4,0.4,5.8c-1.4,1.5-3.6,2-5.5,2.4c-0.8,0.2-0.5,1.4,0.3,1.2c2.9-0.6,6.8-1.8,7.3-5.3c0.6-3.8-3.3-6.5-4.5-9.8
		c-1.6-4.5,0.5-9.4,2.5-13.5c1.9-4,4-8.2,3.6-12.8c-0.8-8.2-9.4-11.8-12.6-18.7c-2.2-4.8,0.9-9.4,3.8-13c2.6-3.2,5.2-6.5,5.5-10.8
		c0.2-2.7-0.4-5.4-0.9-8l-1.6-8.5l-3.3-17.3C281.1,163.6,279.9,163.9,280,164.7L280,164.7L280,164.7z"/>
	<path class="st2" d="M276.2,164.4c-3-0.5-5.5,1.7-6.5,4.4c-0.7,1.8-0.7,3.8-0.8,5.6c0,2.1-0.1,4.2-0.3,6.3
		c-0.8,8.6-3.1,17-5.9,25.2c-1.3,3.8-2.5,7.6-2.4,11.7s1.2,8,2.3,11.9s2.1,8.2,0.1,11.9c-0.8,1.5-2.1,2.6-3.1,4s-1.4,3-1.1,4.6
		c0.3,2.2,1.4,4.2,2.3,6.2c1,2.1,2,4.3,3.1,6.4s2.4,4.2,3.5,6.3c1,1.9,1.9,4.8-0.4,6.2c-0.7,0.4-0.1,1.5,0.6,1.1
		c2.7-1.6,2.3-5,1.1-7.5c-1.9-3.7-4-7.2-5.8-10.9c-1-2-1.9-4-2.7-6.1s-0.8-4,0.6-5.9c1-1.3,2.2-2.5,3-3.9s1.1-3,1.2-4.6
		c0.2-3.8-1.1-7.5-2.1-11.1c-1.1-4.1-1.8-8.4-1.1-12.7c0.7-4,2.3-7.8,3.5-11.6s2.3-8,3.1-12.1c0.9-4.5,1.5-9.1,1.6-13.7
		c0.1-2.2-0.1-4.6,0.7-6.7s2.6-4.1,5-3.7C276.7,165.7,277,164.5,276.2,164.4L276.2,164.4L276.2,164.4z"/>
</g>
<g>
	<path class="st1" d="M246.9,134.9c1.9,5.8,2.9,11.9,3.2,18c0.1,3,0.1,6-0.1,9.1c-0.2,3.2-1,6.4-0.6,9.6c0.3,2.4,1.5,4.5,2.7,6.6
		c1.4,2.4,2.3,4.8,2.6,7.5c0.7,5.9-0.5,11.8-1.6,17.5s-2.1,11.9-2.3,18s0.2,12.5,1.2,18.7s2.6,12.9,2.7,19.5
		c0.1,6.1-1.6,11.6-3.6,17.3c-1,2.9-1.9,5.9-2.4,8.9c-0.5,3.3-0.2,6.5,0.3,9.8c1.1,6.3,3.7,13.6,0.9,19.8c-0.3,0.7,0.8,1.4,1.1,0.6
		c2.2-5,1.2-10.9,0.1-16.1c-0.7-3.2-1.4-6.4-1.5-9.6c-0.1-3.1,0.4-6.1,1.3-9c1.5-5.4,3.9-10.5,4.6-16.1c0.8-6.3-0.2-12.7-1.3-18.9
		c-1.2-6.6-2.2-13.1-2.4-19.7s0.4-13.1,1.7-19.5c1.1-5.7,2.4-11.4,2.5-17.2c0-2.6-0.2-5.3-1-7.8s-2.1-4.4-3.3-6.6
		c-1.7-3.3-1.3-6.6-0.9-10.2s0.6-6.9,0.5-10.4c-0.1-6.8-1.2-13.6-3.3-20.1C247.8,133.8,246.6,134.1,246.9,134.9L246.9,134.9
		L246.9,134.9z"/>
	<path class="st2" d="M241,134.4c-2.3,5.9-4.1,11.9-5.3,18.1c-1.2,5.8-2.2,11.6,0.2,17.3c1,2.4,2.4,4.7,3.5,7.1
		c1.1,2.6,1.9,5.4,2.3,8.2c1,5.9,0.7,12-0.9,17.8s-3.6,11.1-3.3,17.1c0.3,5.4,2.1,10.5,3.7,15.7c1.7,5.4,3.2,10.9,2.9,16.7
		c-0.4,5.7-2.6,11.6-4.1,17.3c-1.8,6.9-1.9,13.8-1.3,20.8s1.8,14.6,1.5,22c0,0.8,1.2,0.8,1.2,0c0.5-12.9-3.6-25.9-1.2-38.7
		c1.1-5.8,3.4-11.2,4.5-17c1.1-5.8,0.6-11-0.8-16.5s-3.5-10.4-4.5-15.7c-0.5-2.8-0.8-5.7-0.5-8.5c0.3-3.1,1.2-6.1,2.1-9.1
		c1.7-5.6,2.8-11.1,2.6-17c-0.2-5.4-1.4-10.7-3.8-15.5c-1.4-2.8-3-5.5-3.7-8.6c-0.8-3.6-0.2-7.4,0.5-11c1.3-6.9,3.2-13.6,5.8-20.2
		C242.5,134,241.3,133.7,241,134.4L241,134.4L241,134.4z"/>
	<path class="st2" d="M234.3,135.5c-6.5,9.2-7.6,22-5.7,32.8c1.2,6.7,3.4,13.5,2.6,20.3c-0.4,3.3-1.7,6.4-2.4,9.6
		c-0.7,3-0.6,6.1-0.2,9.1c1,6.4,3.5,12.5,3.9,19s-0.8,13.5-1.9,20.2c-1,6.3-1.8,12.7-0.9,19s3.2,12.2,4.9,18.3
		c2.1,7.3,2.9,14.9,2.5,22.5c-0.1,1.9-0.1,3.8-0.6,5.7s-1.5,2.7-2.9,3.8c-1.9,1.4-2.9,4.2-1.8,6.4c0.4,0.7,1.4,0.1,1.1-0.6
		c-0.6-1.3-0.1-3.1,0.8-4.2c0.8-0.9,2-1.4,2.8-2.3c1.8-2,1.7-5.3,1.8-7.8c0.4-6.4-0.1-12.9-1.4-19.2s-3.7-11.9-5.1-18
		c-1.6-6.6-1.4-13.3-0.5-20c0.9-6.2,2.1-12.5,2.4-18.8c0.1-3.2,0-6.4-0.6-9.6s-1.4-6.1-2.2-9.1s-1.5-6.2-1.5-9.3
		c0-3.4,0.9-6.4,1.9-9.6c1.9-6.3,1.2-12.4-0.1-18.7c-0.8-3.7-1.6-7.4-2-11.2c-0.3-3.3-0.3-6.7,0.1-10.1c0.7-6.1,2.4-12.5,6-17.5
		C235.8,135.5,234.7,134.9,234.3,135.5L234.3,135.5L234.3,135.5z"/>
	<path class="st2" d="M245.5,133.1c-1.5,3.2-3.1,6.3-4.6,9.5c-1.2,2.6-1.8,4.9-1,7.7c1.9,6.6,4.4,13.1,6.1,19.8
		c0.4,1.7,0.7,3.5,0.4,5.2s-0.9,3.3-1.5,4.9c-1.2,3.3-2.5,6.6-3.7,9.8c-1.1,2.9-2.2,5.8-2.2,9s1,6.6,1.7,9.8
		c1.6,7,3.1,13.9,4.7,20.8s3.2,13.4,4.4,20.2c1.2,6.8,1.9,13.4,0.2,19.8c-1.5,5.9-5.4,11-6.4,16.9c-0.3,1.6,0,3,0.3,4.6
		c0.4,1.9,0.7,3.8,0.9,5.7c0.5,3.7,0.8,7.4,0.9,11.1c0.2,7.6-0.3,15.3-1.6,22.8c-0.1,0.8,1.1,1.1,1.2,0.3c2.3-12.9,2.3-26.3,0-39.2
		c-0.3-1.5-0.7-3-0.5-4.6c0.2-1.6,0.8-3.2,1.4-4.7c1.1-2.7,2.4-5.3,3.5-8c2.5-6,2.9-12.2,2.3-18.6c-0.6-6.4-2.3-13.1-3.7-19.5
		c-1.5-6.9-3.1-13.7-4.6-20.6c-0.8-3.5-1.6-7-2.3-10.4s-1.4-6.7-0.5-10.1c0.8-3.2,2.2-6.3,3.3-9.4s2.6-6.2,3.4-9.5
		c0.9-3.6-0.2-7-1.3-10.4c-1.2-3.7-2.3-7.4-3.5-11.2c-0.6-1.8-1.2-3.6-1.7-5.4c-0.5-2-0.2-3.8,0.6-5.7c1.6-3.4,3.3-6.8,4.9-10.2
		C247,133.1,245.9,132.4,245.5,133.1L245.5,133.1L245.5,133.1z"/>
	<path class="st1" d="M237.7,134c-1.6,6.9-3.1,13.8-4.7,20.7c-0.7,3-1.2,5.8-0.5,8.8s2,5.9,3,8.7c2.1,5.6,4.2,11.3,4.6,17.3
		c0.5,6.8-1.5,13.3-3.3,19.7s-3.9,13.2-5.3,19.9c-1.3,6.1-0.1,12,2.3,17.7c1.2,2.9,2.7,5.8,3.8,8.7c1.1,3,1.8,6.1,2.1,9.3
		s0.5,6.5,0.6,9.8c0,1.6,0.1,3.2,0.1,4.8c0,1-0.2,1.8-0.8,2.6c-0.4,0.5-0.9,0.9-1.3,1.4c-1.7,2.1-2.4,4.9-3,7.4
		c-0.6,3.3-0.9,6.7-1.3,10c-0.8,7.9-1.7,15.7-2.5,23.6c-0.1,0.8,1.2,0.8,1.2,0c0.8-7,1.5-14.1,2.3-21.1c0.4-3.2,0.6-6.5,1.1-9.8
		c0.4-2.6,0.9-5.4,2.1-7.8c0.6-1.1,1.3-1.8,2.1-2.7c1-1,1.2-2.2,1.3-3.6c0.1-3.2-0.1-6.5-0.2-9.7c-0.3-6.1-1.4-12-3.8-17.6
		c-2.6-5.9-5.6-11.8-5.4-18.4c0.1-3.3,1-6.5,1.9-9.7s1.8-6.6,2.7-9.9c1.7-6.4,3.9-12.8,4.5-19.4c0.6-6-0.7-11.9-2.6-17.6
		c-1.1-3.2-2.3-6.3-3.5-9.4c-0.6-1.6-1.2-3.2-1.6-4.8c-0.5-2-0.4-3.9,0-5.9c1.6-7.7,3.5-15.3,5.2-23
		C239.1,133.6,237.9,133.3,237.7,134L237.7,134L237.7,134z"/>
	<path class="st2" d="M245.3,133.5c2.1,1.1,4,2.3,5.2,4.4c1.5,2.8,1.5,6.2,1.6,9.3c0.2,6.2,0.2,12.4,0.6,18.6s1.1,12,2.8,17.8
		s4.4,11.1,4.9,17.2c0.3,3.3,0,6.7-0.2,10s-0.2,6.6-0.3,9.9s-0.2,6.5-0.6,9.8s-1,6.5-1.4,9.8c-0.7,6.1-0.4,12.3-0.3,18.4
		c0.1,6.1-0.1,12.1-2.1,17.8c-1.1,3.1-2.4,6-2.9,9.2s-0.3,6.5,0.2,9.8c0.5,3.5,1.4,6.8,2.4,10.2c0.8,2.7,2,6.4,0.5,9
		c-0.4,0.7,0.7,1.3,1.1,0.6c1.1-2.1,0.9-4.6,0.4-6.9c-0.6-3-1.6-5.9-2.3-8.8c-1.5-6.5-1.9-12.9,0.4-19.2c1-2.8,2.1-5.6,2.7-8.6
		c0.5-2.8,0.7-5.7,0.8-8.6c0.2-6.2-0.3-12.5,0-18.7c0.3-6.7,1.9-13.3,2.2-20.1c0.2-3.5,0.1-6.9,0.2-10.4s0.5-6.8,0.5-10.3
		c0-6.1-2-11.6-4-17.4s-3.2-12.1-3.7-18.4c-0.6-7.2-0.5-14.5-0.8-21.8c-0.1-3.1-0.3-6.4-1.8-9.2c-1.3-2.2-3.3-3.6-5.5-4.7
		C245.2,132,244.6,133.1,245.3,133.5L245.3,133.5L245.3,133.5z"/>
	<path class="st2" d="M243.7,133.3c2.5,6.6,4.6,13.3,3.7,20.4c-0.5,3.5-1.4,6.8-2.3,10.2c-1,3.6-2,7.3-2.9,10.9s-1.9,7-2.8,10.4
		s-1.9,6.6-2.2,10.1c-0.3,3.1,0.1,6,1.4,8.8c1.4,3.1,3.4,6,5.1,9c1.9,3.2,3.8,6.4,5.6,9.5s3.6,5.9,3.3,9.6s-1.8,7.2-3.3,10.5
		c-1.3,2.9-3,5.5-4.5,8.3c-2.7,5.1-4.3,11.4-1.8,16.9c1.8,4.1,5.7,6.3,8.4,9.7c4.5,5.7,3.5,14,1.5,20.5c-1.1,3.6-2.6,7.1-4,10.6
		c-1.6,4-3.1,8-4.7,11.9c-0.3,0.8,0.9,1.1,1.2,0.3c2.7-6.8,5.6-13.6,8-20.5c2.1-5.8,3.4-12.4,1.6-18.5c-0.7-2.3-1.9-4.4-3.5-6.1
		c-1.5-1.6-3.2-3-4.7-4.6c-4.3-4.5-4.5-10.7-2.4-16.4c1.2-3.1,3.1-5.9,4.6-8.8s2.8-6,3.8-9.1s1.5-6.5,0.3-9.7s-3.2-5.8-4.8-8.6
		c-1.9-3.2-3.8-6.4-5.6-9.5c-1.7-2.9-3.6-5.7-4.2-9c-0.7-3.6,0.2-7.3,1.1-10.8s1.9-7,2.8-10.6c1.1-4,2.2-8.1,3.2-12.1
		c1-3.8,2.2-7.6,2.8-11.5c1.3-7.8-0.8-15-3.5-22.2C244.6,132.2,243.4,132.5,243.7,133.3L243.7,133.3L243.7,133.3z"/>
	<path class="st2" d="M232.8,137.7c-2.8,12.1-8.5,23-12.6,34.7c-1,2.9-2.1,5.9-1.8,9c0.3,2.6,1.5,4.9,2.7,7.3
		c2.7,5.5,3.3,11.8,3.4,17.8c0.2,6.6-0.3,13.1,0,19.7s2,13.5,1.8,20.2c-0.1,2.9-0.5,5.8-0.3,8.7c0.1,1.1,0.3,2.1,0.7,3.1
		c0.6,1.4,1.8,2.3,2,3.9c0.4,3.1-2,5.4-2.8,8.2c-0.4,1.3-0.2,2.3,0.2,3.5c0.5,1.4,0.3,2.7-0.2,4.1c-0.9,2.6-2.3,5-1.9,7.9
		c0.3,1.7,1,3.3,1.6,4.8c0.7,1.7,1.4,3.4,2,5.1c2.6,6.9,4.5,14.2,3.4,21.6c-0.1,0.8,1.1,1.1,1.2,0.3c1-6.2-0.1-12.5-2-18.4
		c-1-3-2.2-6-3.4-9s-2.1-5.5-1.1-8.7c0.8-2.2,2.2-4.4,1.9-6.9c-0.2-1.5-1-2.5-0.5-4.1s1.5-2.9,2.1-4.3c1-2.3,1.2-4.8-0.3-6.9
		c-1.7-2.4-1.7-5.1-1.6-7.9c0.2-3.1,0.4-6.1,0.2-9.1c-0.2-3.3-0.7-6.6-1.1-9.9c-0.9-6.8-0.7-13.5-0.6-20.3c0.1-6.1,0-12.4-1.5-18.4
		c-0.7-2.6-1.8-5-3-7.5c-1.5-3-2.1-6-1.3-9.3c1.7-6.6,4.7-13,7.3-19.2s5.1-12.9,6.7-19.7C234.2,137.3,233,136.9,232.8,137.7
		L232.8,137.7L232.8,137.7z"/>
	<path class="st2" d="M238.2,133.5c3.3,5.1,6.2,10.4,8.6,16c1.2,2.7,2.3,5.5,2.7,8.4c0.4,3.1,0.1,6.4-0.2,9.5
		c-1.4,13-2.8,25.9-4.2,38.9c-0.2,1.6-0.4,3.3-0.5,4.9c-0.1,1.1-0.2,2.4,0.3,3.5s1.6,1.6,2.5,2.3c1.3,1,2.5,2.1,3.7,3.2
		c0.9,0.8,1.9,1.7,2.6,2.7c0.9,1.3,1.1,2.9,1.1,4.4c0.2,3.1,0.1,6.1-0.2,9.2c-0.6,6.3-1.9,12.5-3.3,18.7c-1.3,6.2-2.5,12.1-3.3,18.1
		c-1,6.9-1.6,13.9-1.9,20.9c-0.2,3.6-0.3,7.3-0.2,10.9c0.1,1.8,0.2,3.5,0.4,5.2c0.1,0.9,0.2,1.4-0.1,2.2c-0.4,0.9-0.9,1.8-1.4,2.6
		c-0.4,0.7,0.7,1.3,1.1,0.6s0.8-1.5,1.2-2.2c0.2-0.5,0.7-1.1,0.8-1.6c0.1-0.7-0.2-1.6-0.3-2.3c-0.1-0.8-0.2-1.6-0.2-2.4
		c-0.2-3.2-0.2-6.5-0.1-9.7c0.2-6.6,0.7-13.1,1.5-19.6s1.8-12.8,3.1-19.1c1.3-6.3,2.7-12.2,3.6-18.4c0.4-3,0.7-6,0.8-9.1
		c0-2.6,0.3-5.8-0.8-8.3s-3.5-4.2-5.5-5.8c-1-0.9-2.1-1.6-3.1-2.5c-1.4-1.2-1-3.1-0.8-4.7c1.4-13.1,2.8-26.3,4.2-39.4
		c0.4-3.5,0.9-7.1,0.8-10.6c-0.1-3.4-1-6.5-2.3-9.6c-2.6-6.1-5.7-12.1-9.4-17.7C238.9,132.2,237.8,132.8,238.2,133.5L238.2,133.5
		L238.2,133.5z"/>
	<path class="st2" d="M242.5,131.9c-1.8,15.6-3.6,31.2-5.3,46.8c-0.4,3.7-0.8,7.4-0.5,11.1c0.2,3.4,1,6.8,2.3,10
		c2.4,6.2,5.9,11.9,7.2,18.4c0.7,3.6,0.8,7.4-0.2,11c-0.8,3.2-2.3,6.2-3.9,9.1c-2.8,5.1-6,10.1-7.6,15.7c-2,6.8-1.3,13.8,0.3,20.6
		s4.1,13.6,4.8,20.8c0.4,3.8,0.4,7.6-0.5,11.3s-2.9,6.8-3.8,10.4c-0.8,3-0.7,6.5,1,9.2c1.4,2.2,3.6,3.4,5.9,4.2
		c0.8,0.3,1.1-0.9,0.3-1.2c-2.3-0.8-4.4-2.1-5.5-4.4c-1.5-3-0.9-6.5,0.2-9.6s2.6-5.9,3.3-9.1s0.8-6.4,0.5-9.5
		c-1.1-13.9-9.1-27.1-5.6-41.2c2.9-11.9,13.4-21,12.5-33.9c-0.5-6.5-3.4-12.3-6-18.2c-1.4-3-2.6-6-3.3-9.3
		c-0.8-3.7-0.8-7.4-0.5-11.1c0.6-8.5,1.9-17,2.8-25.5s1.9-17.1,2.9-25.6C243.8,131.1,242.6,131.1,242.5,131.9L242.5,131.9
		L242.5,131.9z"/>
	<path class="st2" d="M247.8,133.2c2.7-0.8,4.3,3.6,4.8,5.5c0.8,3.2,0.8,6.6,0.9,9.9c0.1,6.6,0.4,13.2,1,19.8
		c1.2,13.1,3.8,25.9,6.2,38.7c1.2,6.6,1.7,13.2,1.1,19.9s-2,13.1-2.8,19.7c-0.7,5.7-0.9,12,1.3,17.4c1.1,2.6,2.7,5,3.4,7.8
		c0.8,3.4,0,6.9-0.9,10.2c-1.8,7.1-3.8,14.1-6.1,21c-1,3.2-2.3,6.3-2.7,9.6c-0.3,2.5-0.1,5.9,1.9,7.8c0.6,0.6,1.5-0.3,0.9-0.9
		c-2.1-2.1-1.8-6.1-1.2-8.7c0.7-3.1,1.9-6,2.9-9c2.1-6.4,4-12.9,5.6-19.4c0.8-3,1.5-6.2,1.1-9.4c-0.3-2.7-1.5-5-2.8-7.4
		c-2.9-5.7-3-12.2-2.2-18.4c0.8-6.7,2.3-13.2,2.9-19.9s0.2-13.2-1-19.8s-2.6-13.1-3.7-19.7s-2-13.5-2.6-20.4
		c-0.4-3.9-0.6-7.8-0.8-11.6c-0.1-3.7-0.1-7.3-0.2-11c-0.1-3.3-0.5-6.7-2.1-9.7c-1-1.9-2.8-3.9-5.1-3.2
		C246.7,132.3,247.1,133.5,247.8,133.2L247.8,133.2L247.8,133.2z"/>
</g>
<g>
	<path class="st1" d="M207.5,161.2c1.9,4.3,2.9,9,3.2,13.7c0.1,2.3,0,4.5-0.2,6.8s-1,4.5-0.6,6.7c0.3,1.8,1.4,3.2,2.5,4.6
		c1.3,1.7,2.4,3.4,2.8,5.6c0.8,4.4-0.6,9.1-1.7,13.4c-1.2,4.5-2.1,9-2.3,13.6s0.4,9.5,1.4,14.2s2.6,9.6,2.5,14.6
		c-0.1,4.5-2,8.4-3.8,12.4c-0.9,2-1.8,4.1-2.2,6.3c-0.4,2.3-0.2,4.7,0.3,7c1,4.6,3.6,10.2,1,14.7c-0.4,0.7,0.7,1.3,1.1,0.6
		c2-3.5,1.3-7.8,0.3-11.5c-0.7-2.5-1.5-5-1.6-7.6c-0.1-2.2,0.4-4.3,1.2-6.4c1.4-3.9,3.7-7.5,4.6-11.6c1-4.7,0.1-9.5-1-14.1
		c-1.2-4.9-2.3-9.8-2.5-14.9s0.4-9.9,1.6-14.8c1.1-4.2,2.5-8.5,2.5-13c0-2-0.3-4-1.1-5.9s-2.2-3.2-3.3-4.8c-1.7-2.5-1.2-5-0.8-7.9
		c0.4-2.5,0.5-5,0.4-7.6c-0.2-5.1-1.3-10.1-3.4-14.7C208.3,159.9,207.2,160.5,207.5,161.2L207.5,161.2L207.5,161.2z"/>
	<path class="st2" d="M201.7,160.5c-2.2,4.2-4,8.7-5.3,13.4c-1.2,4.4-2.2,8.8,0.1,13c1,1.8,2.4,3.4,3.4,5.2c1.2,1.9,2,4,2.5,6.2
		c1,4.6,0.6,9.3-1,13.6s-3.5,8.1-3.1,12.7c0.4,3.9,2,7.5,3.6,11c1.7,3.9,3.3,7.9,3,12.2c-0.3,4.5-2.5,8.7-4.1,12.9
		c-1.8,5-2,10-1.4,15.2c0.6,5.6,1.8,11.1,1.5,16.8c0,0.8,1.2,0.8,1.2,0c0.4-9.6-3.6-19.4-1.1-28.9c1.1-4.3,3.4-8.2,4.4-12.6
		c1-4,0.6-7.9-0.8-11.8s-3.2-7.3-4.4-11.2c-0.6-2-1-4-0.9-6c0.1-2.4,0.9-4.6,1.7-6.8c1.7-4.2,3.1-8.1,3-12.6
		c-0.1-4.1-1.1-8.2-3.3-11.7c-1.2-2-2.9-3.8-3.8-6c-1.2-2.7-0.8-5.6-0.2-8.4c1.3-5.5,3.3-10.8,5.9-15.7
		C203.1,160.4,202.1,159.8,201.7,160.5L201.7,160.5L201.7,160.5z"/>
	<path class="st2" d="M195,161.3c-6,6.3-7.8,16-5.9,24.3c1.1,5,3.5,10,2.7,15.2c-0.4,2.4-1.6,4.5-2.3,6.8c-0.7,2.2-0.8,4.4-0.4,6.6
		c0.8,4.8,3.4,9.1,4,14s-0.6,10.1-1.6,15s-1.9,9.5-1.2,14.3c0.7,4.8,3.1,9.3,4.9,13.9c2.2,5.5,3.1,11.5,2.6,17.4
		c-0.1,1.4-0.1,3.2-0.9,4.5c-0.7,1.2-2,1.5-3.1,2.2c-1.4,1-2.3,3.1-1.3,4.7c0.4,0.7,1.5,0,1.1-0.6c-1.5-2.3,2.2-3.5,3.5-4.5
		c1.6-1.4,1.7-3.6,1.9-5.6c0.5-5,0-10.1-1.4-14.9s-3.7-8.8-5.2-13.4c-1.5-4.9-1.3-9.8-0.3-14.8c0.9-4.6,2.1-9.2,2.4-13.9
		s-1.3-9.2-2.8-13.8c-0.8-2.2-1.4-4.5-1.5-6.9s0.8-4.6,1.7-6.8s1.4-4.4,1.4-6.7s-0.6-4.6-1.2-6.8c-0.7-2.7-1.6-5.4-2.1-8.2
		c-0.4-2.5-0.4-5.1-0.1-7.6c0.6-5,2.6-9.9,6-13.5C196.4,161.6,195.5,160.7,195,161.3L195,161.3L195,161.3z"/>
	<path class="st2" d="M206.1,159.7c-1.5,2.3-3,4.6-4.5,6.9c-1.2,1.9-2,3.6-1.2,5.9c1.8,5.1,4.4,9.8,6.2,14.9
		c0.4,1.3,0.7,2.6,0.4,3.9c-0.3,1.2-0.9,2.3-1.5,3.3c-1.3,2.5-2.5,5-3.8,7.5c-1,1.9-2,3.8-2.1,6c-0.2,2.5,0.8,4.9,1.5,7.2
		c1.6,5.2,3.2,10.5,4.8,15.8c1.5,5,3.2,9.9,4.4,15s2,10.1,0.4,15c-1.4,4.3-4.8,7.7-6.3,12c-0.8,2.4,0.2,4.8,0.7,7.1c0.6,3,1,6,1.1,9
		c0.3,5.8-0.3,11.7-1.6,17.3c-0.2,0.8,1,1.1,1.2,0.3c2.3-9.6,2.3-19.9,0-29.5c-0.3-1.2-0.7-2.4-0.3-3.7s1-2.4,1.7-3.5
		c1.1-1.9,2.3-3.7,3.4-5.6c2.2-4.2,2.7-8.7,2.1-13.4s-2.2-9.5-3.6-14.2c-1.6-5.2-3.1-10.4-4.7-15.5c-0.8-2.6-1.6-5.2-2.4-7.9
		s-1.4-5-0.4-7.8c0.9-2.4,2.2-4.7,3.4-7c1.1-2.1,2.4-4.3,3.2-6.6c0.8-2.5,0-4.8-0.9-7c-1.2-2.8-2.4-5.7-3.6-8.5
		c-0.6-1.4-1.2-2.7-1.7-4.1c-0.6-1.6-0.6-2.9,0.3-4.4c1.6-2.6,3.4-5.2,5-7.8C207.7,159.6,206.6,159,206.1,159.7L206.1,159.7
		L206.1,159.7z"/>
	<path class="st1" d="M198.3,160.4c-1.6,5.2-3.2,10.4-4.8,15.6c-0.7,2.2-1.2,4.3-0.4,6.6c0.7,2.1,1.8,4,2.8,6
		c2.1,4.1,4.3,8.4,4.8,13c0.5,5.1-1.5,9.9-3.2,14.6s-3.9,9.8-5.3,14.8c-1.3,4.5-0.2,8.8,2,12.9c1.2,2.1,2.5,4.1,3.7,6.2s2,4.6,2.4,7
		c0.4,2.5,0.6,5,0.7,7.6c0,1.1,0.1,2.2,0.1,3.3c0,0.7,0,1.4-0.5,2c-0.3,0.4-0.8,0.7-1.2,1c-3.6,2.9-3.9,8.4-4.5,12.6
		c-0.9,6-1.7,12.1-2.6,18.1c-0.1,0.8,1.1,1.1,1.2,0.3c0.8-5.4,1.5-10.8,2.3-16.2c0.3-2.3,0.6-4.7,1.1-7c0.4-2.1,1-4.2,2.3-5.9
		c1.1-1.4,2.9-1.9,3.2-3.9c0.3-2.3,0-4.9-0.2-7.2c-0.3-4.6-1.2-9-3.5-13.1c-2.4-4.3-5.7-8.4-5.7-13.6c0-2.5,0.9-4.8,1.7-7.1
		c0.9-2.5,1.8-5.1,2.7-7.6c1.7-4.8,4-9.6,4.6-14.7c0.5-4.3-0.6-8.5-2.3-12.5c-1-2.3-2.2-4.6-3.4-6.8c-1.4-2.7-2.8-5.3-2.1-8.4
		c0.7-2.8,1.7-5.6,2.6-8.4l2.8-9C199.8,159.9,198.6,159.6,198.3,160.4L198.3,160.4L198.3,160.4z"/>
	<path class="st2" d="M206.1,160.2c1.8,0.7,3.7,1.5,4.9,3c1.5,1.9,1.6,4.5,1.7,6.9c0.2,4.7,0.2,9.5,0.6,14.2c0.4,4.4,1.1,8.8,2.8,13
		s4,7.6,4.8,11.8c0.5,2.6,0.2,5.2-0.1,7.8s-0.3,5-0.3,7.5s-0.2,5.1-0.6,7.6s-1,4.8-1.4,7.3c-1.3,8.9,1.6,18.7-2.5,27.1
		c-1,2.1-2.3,4.2-2.7,6.6s-0.3,4.8,0.2,7.1c0.5,2.6,1.4,5.1,2.3,7.5c0.8,2,2.1,4.9,0.6,6.9c-0.5,0.6,0.6,1.3,1.1,0.6
		c1.1-1.5,0.9-3.4,0.5-5c-0.6-2.3-1.6-4.4-2.3-6.7c-0.7-2.4-1.3-4.8-1.4-7.3c0-2.6,0.7-5,1.9-7.3c1-2,2-3.9,2.5-6.1s0.7-4.3,0.8-6.5
		c0.1-4.8-0.4-9.7,0-14.5s2-9.9,2.2-14.9c0.1-2.7,0.1-5.3,0.2-8s0.5-5.1,0.4-7.6c-0.2-4.6-2.4-8.5-4.3-12.5c-2-4.5-3-9.3-3.5-14.1
		c-0.5-5.5-0.3-10.9-0.8-16.4c-0.2-2.2-0.7-4.4-2.2-6.1c-1.4-1.5-3.3-2.3-5.2-3C205.7,158.7,205.3,159.9,206.1,160.2L206.1,160.2
		L206.1,160.2z"/>
	<path class="st2" d="M204.4,160c2.6,5.1,4.7,10.2,3.4,16c-0.6,2.6-1.6,5.1-2.5,7.6c-1,2.8-2,5.5-3,8.3s-1.9,5.4-2.9,8.1
		c-0.9,2.5-1.8,5.1-1.8,7.8c0.1,2.5,1.2,4.5,2.6,6.4c1.7,2.2,3.4,4.3,5.1,6.4c1.8,2.3,3.6,4.5,5.4,6.8c0.9,1.1,1.8,2.2,2.2,3.5
		c0.5,1.4,0.2,2.9-0.2,4.3c-0.9,2.6-2.3,5.1-3.9,7.4c-1.5,2.1-3.3,4-4.6,6.3c-2,3.5-2.8,8.1-0.4,11.6c2,2.9,5.3,4.2,7.9,6.5
		c4.3,3.9,3.8,10,1.7,15c-1.2,2.8-2.7,5.4-4.1,8.1c-1.5,2.9-3.1,5.8-4.7,8.7c-0.4,0.7,0.7,1.3,1.1,0.6c2.7-5,5.6-10,8-15.2
		c2.1-4.3,3.5-9.5,1.7-14.1c-1.3-3.4-4.4-5.2-7.2-7.2c-1.5-1-3-2.2-3.8-3.9c-1.2-2.3-1-5-0.1-7.4s2.7-4.5,4.3-6.6s3.1-4.4,4.2-6.8
		c1-2.1,1.9-4.4,1.5-6.7s-2.2-4.2-3.6-6c-1.9-2.4-3.8-4.8-5.7-7.2c-1.8-2.2-3.9-4.4-5.2-6.9c-1.4-2.8-0.9-5.8,0-8.6s2-5.5,2.9-8.2
		c1.1-3.1,2.3-6.3,3.4-9.5c1.1-2.9,2.3-5.9,3-9c1.3-6-1-11.3-3.6-16.5C205.1,158.7,204,159.3,204.4,160L204.4,160L204.4,160z"/>
	<path class="st2" d="M193.4,163.1c-2.8,9.2-8.5,17-12.5,25.6c-1,2.1-2.1,4.3-1.9,6.6c0.2,2,1.3,3.6,2.4,5.2c2.7,4,3.6,8.5,3.8,13.3
		c0.2,5.4-0.4,10.8,0.1,16.2c0.5,5.1,2.1,10,1.6,15.1c-0.2,2-0.5,4-0.1,5.9c0.2,0.8,0.5,1.6,1,2.2c0.8,1,1.7,1.6,1.5,3.1
		c-0.4,2.3-2.6,3.6-3,5.8c-0.1,0.8,0.2,1.4,0.5,2.1c0.4,1.1,0.1,2-0.4,3c-0.9,1.8-2.1,3.4-1.8,5.5c0.4,2.4,2.1,4.7,3.2,6.8
		c2.7,5.1,5,10.9,3.8,16.8c-0.2,0.8,1,1.1,1.2,0.3c0.9-4.6-0.1-9.3-1.9-13.5c-1-2.3-2.2-4.5-3.4-6.7c-0.5-1-1.2-2.1-1.5-3.2
		c-0.4-1.3-0.1-2.4,0.5-3.5c0.7-1.5,1.9-2.9,1.8-4.6c0-0.9-0.7-1.6-0.8-2.4c-0.1-1.1,1-2.3,1.6-3.1c1.1-1.5,2.1-3.6,1.1-5.4
		c-0.4-0.8-1.3-1.4-1.7-2.1c-0.5-0.9-0.6-2-0.6-3c0-2.3,0.4-4.5,0.4-6.8c-0.1-2.5-0.5-4.9-0.9-7.4c-0.5-2.7-0.9-5.4-1-8.1
		s0-5.4,0.1-8.1c0.1-4.6,0-9.5-1.5-13.9c-0.7-2-1.7-3.8-2.9-5.5c-1.5-2.3-2.2-4.4-1.3-7.1c1.8-5,4.8-9.7,7.4-14.4s5-9.4,6.5-14.4
		C194.9,162.6,193.7,162.3,193.4,163.1L193.4,163.1L193.4,163.1z"/>
	<path class="st2" d="M198.9,160.2c3.1,3.5,5.9,7.4,8.4,11.4c1.2,1.9,2.3,4,2.8,6.2c0.5,2.4,0.2,5-0.2,7.4
		c-1.4,9.9-2.9,19.9-4.3,29.8c-0.2,1.6-1,4,0.1,5.4c0.5,0.7,1.3,1,2,1.4c1.1,0.6,2.1,1.3,3.2,2c2,1.3,4.2,2.5,4.5,5.1
		c0.3,2.3,0.1,4.6-0.1,6.9c-0.5,4.7-1.9,9.3-3.2,13.9s-2.5,9.2-3.4,13.9c-1,5.2-1.6,10.5-2,15.9c-0.2,2.7-0.3,5.4-0.1,8.1
		c0.1,1.2,0.2,2.5,0.4,3.7c0.1,0.7,0.2,1-0.2,1.6s-0.9,1.2-1.3,1.9c-0.5,0.7,0.6,1.3,1.1,0.6c0.6-0.8,1.6-1.8,1.9-2.7
		c0.1-0.4,0-0.7-0.1-1.1c-0.2-0.8-0.3-1.6-0.4-2.4c-0.2-2.4-0.2-4.9-0.1-7.3c0.2-5.1,0.7-10.1,1.5-15.1s1.9-9.7,3.3-14.5
		c1.4-4.8,2.7-9.1,3.5-13.8c0.4-2.2,0.6-4.5,0.6-6.8c0-1.9,0-4.1-1.1-5.7s-3.2-2.6-4.8-3.7c-1-0.6-2-1.2-3-1.8
		c-0.7-0.4-1.4-0.7-1.5-1.7c-0.1-0.7,0.1-1.4,0.2-2.1c1.5-10.2,3-20.4,4.4-30.6c0.4-2.5,0.8-5.1,0.4-7.7c-0.3-2.3-1.3-4.4-2.4-6.4
		c-2.6-4.6-5.8-8.9-9.2-12.8C199.3,158.8,198.4,159.6,198.9,160.2L198.9,160.2L198.9,160.2z"/>
	<path class="st2" d="M203.1,158.7c-1.8,12-3.9,24.1-5.5,36.2c-0.4,2.7-0.6,5.4-0.2,8.1s1.4,5,2.6,7.2c2.5,4.6,6.1,8.8,7.1,14.2
		s-1.9,10.2-5.2,14.5c-2.7,3.6-5.7,7.2-7.1,11.5c-3.6,11,4.8,20.8,5.6,31.5c0.2,3.1-0.2,6.1-1.7,8.9c-1.2,2.2-2.7,4.4-3.2,7
		c-0.4,2.2,0.2,4.4,1.7,6c1.5,1.5,3.5,2.2,5.5,2.8c0.8,0.2,1.1-1,0.3-1.2c-1.9-0.5-3.9-1.2-5.1-2.7c-1.7-2-1.5-4.6-0.5-6.8
		c0.9-2,2.2-3.9,3.1-5.9c1-2.2,1.3-4.7,1.2-7.1c-0.4-10.7-9.1-20.6-5.9-31.5c2.6-8.7,12.3-14.4,12.7-23.8c0.2-5.2-2.5-9.8-5.1-14
		c-1.4-2.1-2.8-4.3-3.7-6.7c-1-2.6-1.4-5.3-1.3-8.1c0.1-3.3,0.8-6.6,1.3-9.8l1.5-9.8l3.1-20C204.4,158.2,203.2,157.9,203.1,158.7
		L203.1,158.7L203.1,158.7z"/>
	<path class="st2" d="M208.5,160c2.4-0.5,4.1,2.1,4.8,4c0.8,2.3,0.8,4.9,0.9,7.3c0.1,5.1,0.4,10.1,1.1,15.2s1.6,9.8,2.6,14.7
		s2.5,9.6,3.7,14.4c1.2,5.2,1.5,10.3,0.7,15.6c-0.7,4.9-2.2,9.6-2.9,14.5c-0.5,4.1-0.3,8.6,2,12.2c1.1,1.8,2.6,3.5,3.1,5.6
		c0.5,2.6-0.5,5.3-1.3,7.8c-1.9,5.5-4,10.8-6.4,16.1c-1.6,3.4-3.9,8.9-0.1,11.8c0.6,0.5,1.3-0.6,0.6-1.1c-2-1.5-1.6-4.7-0.9-6.8
		c0.8-2.4,2-4.6,3-6.9c2-4.6,3.8-9.3,5.4-14c0.7-2.1,1.3-4.4,1-6.6c-0.3-2.1-1.6-3.8-2.8-5.6c-2.9-4.2-3-9.1-2.1-14
		s2.3-9.6,2.8-14.6s0.1-10-1.2-14.9s-2.7-9.9-3.8-14.9s-2-10.3-2.6-15.6c-0.3-2.9-0.5-5.7-0.7-8.6s0-5.5-0.3-8.3
		c-0.4-3.6-2.4-9.4-7.1-8.5C207.4,158.9,207.7,160.1,208.5,160L208.5,160L208.5,160z"/>
</g>
<g>
	<path class="st2" d="M345.2,179.2c8.3,6.7,4.2,18.7,3.9,27.6c-0.1,4.7,0.8,9,3.4,12.9c1.3,1.9,2.6,4,1.9,6.4
		c-0.6,2-2.1,3.6-3.3,5.3c-2.6,3.8-2.8,8.3-2.3,12.7c0.3,2.4,0.8,4.8,1.1,7.2c0.3,2.5,0,4.9-0.9,7.3c-0.8,2.2-1.9,4.2-2.7,6.4
		s-1.5,4.6-1.6,7c-0.4,4.9,0.7,9.8,2.2,14.4c0.9,2.7,1.9,5.4,2.9,8.1s2.5,5.9,1.6,8.8c-0.7,2.6-2.9,3.9-5.4,4.4
		c-1.4,0.3-3.3,0.8-3.1,2.6c0.1,0.8,1.3,0.8,1.2,0c-0.1-1,1.2-1.2,1.9-1.3c0.9-0.2,1.8-0.3,2.7-0.8c1.6-0.8,3-2.2,3.6-3.9
		c0.9-2.2,0.5-4.6-0.2-6.9c-0.8-2.5-1.8-4.9-2.7-7.4c-1.8-4.9-3.4-10-3.6-15.2c-0.1-2.6,0.2-5.2,1-7.8c0.7-2.3,1.9-4.5,2.8-6.7
		c0.9-2.1,1.6-4.2,1.6-6.5c0.1-2.4-0.5-4.8-0.8-7.2c-0.8-4.8-1.2-10.1,1.6-14.3c1.1-1.7,2.5-3.2,3.3-5.1s0.7-3.7-0.1-5.5
		c-1-2.2-2.6-4-3.5-6.2s-1.3-4.8-1.3-7.3c-0.1-9.7,4.8-22.6-4.3-30C345.4,177.8,344.5,178.6,345.2,179.2L345.2,179.2L345.2,179.2z"
		/>
	<path class="st2" d="M349.8,183.4c3.3,3.3,4.7,7.7,4.1,12.3c-0.3,2.3-0.9,4.5-0.6,6.8c0.2,2,1,3.6,2.3,5.2c1.4,1.7,3.7,3.9,3.1,6.3
		c-0.3,1.2-1.3,2-2.1,2.9c-0.7,0.8-1.3,1.6-1.8,2.5c-2.1,3.8-2.1,7.9-0.8,11.9c0.8,2.3,1.8,4.6,2.2,7s0.5,5.1,0.2,7.6
		c-0.5,5-2.1,9.9-3.8,14.7s-3.5,9.2-4.2,14c-0.3,2.3,0.5,3.9,1.7,5.9c1.2,2.1,1.7,4.4,1.7,6.8c0,5.5-2.2,10.7-2.2,16.2
		c0,5.1,1.9,11.6-2.5,15.6c-0.6,0.5,0.3,1.4,0.9,0.9c3.4-3.1,3.5-7.8,3.1-12.1c-0.2-2.8-0.4-5.5,0-8.2c0.4-2.5,1-5,1.5-7.6
		c0.8-4.5,0.7-8.8-1.7-12.8c-0.7-1.2-1.3-2.3-1.3-3.7s0.5-2.8,0.8-4.1c0.6-2.5,1.5-4.9,2.3-7.3c3.2-9.3,7.2-19.5,3.9-29.3
		c-0.8-2.4-2-4.8-2.3-7.4c-0.3-2.4,0.2-4.8,1.2-7c0.5-1,1.1-2,1.9-2.8c0.7-0.8,1.5-1.5,2-2.4c1-1.7,0.5-3.7-0.4-5.3
		c-1.3-2.2-3.6-3.8-4.3-6.3s0.1-5.5,0.4-8.1c0.6-4.9-1-9.7-4.5-13.2C350.1,182,349.3,182.9,349.8,183.4L349.8,183.4L349.8,183.4z"/>
	<path class="st1" d="M340.2,180.2c-3.1,7-4,14.9-2.7,22.4c0.7,4.1,2.8,8.1,2.6,12.4s-2.2,8.1-3.8,11.9c-3,7.1-5.5,15.1-3.7,22.9
		c0.9,4.1,2.9,7.8,4.5,11.7c1.6,3.9,3.4,8,4.5,12.1c0.7,2.6-0.2,4.6-1.4,6.8c-1,1.8-1.8,3.7-2.4,5.7c-1.2,4.1-1.3,8.5-0.5,12.8
		c0.2,0.8,1.4,0.5,1.2-0.3c-0.8-3.9-0.6-8,0.4-11.9c0.5-1.9,1.3-3.7,2.2-5.4c0.8-1.5,1.7-3,1.9-4.7c0.3-1.9-0.4-3.7-1-5.5
		c-0.7-2-1.5-4.1-2.2-6.1c-1.5-3.8-3.3-7.5-4.7-11.3c-1.5-3.8-2.1-7.9-1.7-12s1.6-8.1,3.1-11.9s3.4-7.2,4.4-11s0.2-7.5-0.9-11.3
		c-2.6-8.8-2.4-18,1.3-26.5C341.6,180.1,340.5,179.5,340.2,180.2L340.2,180.2L340.2,180.2z"/>
	<path class="st2" d="M343.5,179.6c-2.7,1.7-3.1,5.1-2.4,8c0.9,3.9,4,6.8,4.8,10.7c1,4.5-2,8.7-3.1,12.9c-1.2,4.5-0.4,8.6,0.9,13
		c0.6,2.2,1.1,4.5,0.8,6.8c-0.2,2-0.9,4-1.7,5.9c-1.5,3.8-3.6,7.5-4.1,11.6c-0.6,4.7,0.5,9.4,1.2,14c0.4,2.4,0.8,4.8,1.2,7.2
		s1,5,1.1,7.6c0.1,1.4-0.1,2.8-0.5,4.1c-0.3,1-0.5,2-0.1,3.1c0.3,0.9,1,1.5,1.5,2.3c0.7,0.9,1.1,1.9,1.3,3c0.7,4.4-1.3,8.7-0.1,13
		c0.2,0.8,1.4,0.5,1.2-0.3c-1-3.8,0.4-7.6,0.3-11.5c0-1.6-0.4-3.2-1.3-4.5c-0.5-0.7-1.1-1.3-1.5-2c-0.7-1.3,0-2.7,0.2-4
		c0.4-2,0.2-4.1-0.1-6.1c-0.4-2.4-0.8-4.8-1.2-7.1c-0.8-4.7-1.8-9.5-2.1-14.3c-0.3-4.8,1-8.5,2.8-12.6c1.5-3.5,3.2-7,3.1-10.9
		c0-4.4-2.3-8.5-2.4-12.9c-0.1-4.6,2.2-8.4,3.4-12.7c0.6-2.1,0.8-4.3,0.2-6.5s-1.7-3.9-2.8-5.8c-1.7-3-3.9-8.4-0.1-10.9
		C344.8,180.2,344.2,179.2,343.5,179.6L343.5,179.6L343.5,179.6z"/>
	<path class="st2" d="M344.9,183.1l0.5,26.3l0.3,13.1c0,2.2,0.1,4.5,0.1,6.7s0.1,4.3-0.6,6.3c-0.6,1.8-1.6,3.5-2.1,5.3
		c-0.4,1.6-0.5,3.3-0.3,5c0.5,3.7,2.3,7,3.9,10.3c0.8,1.6,1.9,3.3,2.2,5c0.2,0.7,0.2,1.5,0,2.3c-0.4,0.9-1.2,1.2-2.1,1.5
		c-1.1,0.4-2.2,0.9-2.4,2.2c-0.1,0.8,0.1,1.5,0.3,2.2c0.3,1.1,0.6,2.2,0.9,3.4c0.6,2.4,1.2,4.8,1.8,7.2c0.5,2.1,0.9,4.4,1.8,6.3
		c0.8,1.7,2.3,2.8,3.5,4.2c1.5,1.8,2.3,3.9,2.6,6.2c0.1,0.8,1.3,0.5,1.2-0.3c-0.2-1.7-0.8-3.3-1.6-4.8s-2.1-2.7-3.3-4
		c-1.5-1.5-1.9-3.4-2.4-5.4s-1.1-4.1-1.6-6.2s-1.1-4.3-1.6-6.5c-0.2-1-0.8-2.3,0.2-3c0.6-0.4,1.4-0.5,2.1-0.8
		c2.6-1.2,2.2-4.4,1.2-6.6c-1.5-3.5-3.7-6.8-4.9-10.4c-0.6-1.9-1-3.8-0.8-5.8s1.1-3.8,1.9-5.7c1.6-3.6,1.2-7.6,1.1-11.5l-0.3-13.1
		c-0.2-9.8-0.4-19.7-0.6-29.5C346.1,182.3,344.8,182.3,344.9,183.1L344.9,183.1L344.9,183.1z"/>
	<path class="st1" d="M353.4,186.3c1.4,2.3,2.2,4.9,2.3,7.5s-0.6,5-1.5,7.4c-0.8,2.2-1.8,4.5-1.8,6.8s1.1,4.1,2.4,6
		c1.6,2.2,2.6,4.4,2.5,7.2c0,2.6-0.6,5.1-0.9,7.7c-0.6,5.6-0.2,11.3,0.3,16.9c0.2,3,0.8,5.8,1.8,8.6c1,2.6,2.4,5.7,0.8,8.4
		c-0.4,0.7,0.7,1.3,1.1,0.6c1.2-2,1-4.3,0.3-6.5c-0.8-2.5-1.9-4.9-2.3-7.5c-0.5-3-0.6-6.1-0.8-9.2c-0.1-2.9-0.2-5.8-0.1-8.6
		c0.2-5,2.4-10.8,0.1-15.6c-1.1-2.2-3.1-3.8-3.7-6.2c-0.7-2.7,0.5-5.4,1.5-7.9c1-2.7,1.8-5.4,1.6-8.4c-0.2-2.8-1-5.4-2.5-7.8
		C354.1,185,353,185.6,353.4,186.3L353.4,186.3L353.4,186.3z"/>
	<path class="st2" d="M337.2,181.4c-1.1,3.8-1.8,7.6-1.9,11.6s0.6,8.1,0.8,12.2s-1.2,8-1.9,12s-0.4,8.1-0.7,12.1
		c-0.3,4-1.3,7.9-1.7,11.9s0.1,8.1,0.7,12.1c0.6,4.2,0.8,8.3,0.7,12.6c-0.1,2.1-0.2,4.2-0.1,6.3s0.4,4,0.7,6
		c0.3,2.2,0.4,4.6-0.5,6.7c-0.8,1.8-2.1,3.2-3,4.9c-1.3,2.4-1.5,6,1.2,7.4c0.7,0.4,1.3-0.7,0.6-1.1c-3.4-1.8-0.5-6.2,0.9-8.2
		c0.9-1.3,1.7-2.6,2-4.2c0.4-1.8,0.3-3.6,0-5.5s-0.5-3.7-0.6-5.5c-0.1-2.1,0-4.2,0-6.3c0.1-3.9,0.1-7.7-0.5-11.6
		c-0.5-3.9-1.2-7.9-1-11.9s1.2-7.7,1.7-11.6s0.2-7.7,0.5-11.5s1.7-7.5,2.1-11.4c0.5-4.5-0.6-9-0.7-13.5s0.6-8.8,1.9-13.1
		C338.6,181,337.4,180.6,337.2,181.4L337.2,181.4L337.2,181.4z"/>
	<path class="st2" d="M340.1,181.3c0.6,8.4,0.1,16.8-1.4,25c-0.8,4.1-1.8,8.2-3,12.3c-0.6,2-1.3,3.9-2,5.9c-0.6,1.5-1.8,3.3-1.2,5
		c0.6,1.5,2.3,2.6,3.2,3.9c1.1,1.5,2,3.1,2.5,4.8c1.2,3.8,0.6,7.4-0.8,11.1s-2.5,7.4-2.9,11.5c-0.4,4.2-0.2,8.4,0,12.6
		c0.5,10,1,20.1,1.6,30.1c0,0.8,1.3,0.8,1.2,0c-0.5-8.9-0.9-17.8-1.4-26.7c-0.4-8.4-1.2-17,1.8-25.1c1.3-3.5,2.7-6.8,2.3-10.6
		c-0.4-3.3-1.7-6.3-3.8-8.9c-0.5-0.7-1.1-1.2-1.7-1.9c-0.4-0.4-0.8-0.8-1-1.5c-0.1-0.7,0.1-1.3,0.4-1.9c0.8-1.9,1.5-3.9,2.2-5.8
		c1.4-4,2.5-8.1,3.3-12.2c1.9-9.1,2.5-18.4,1.9-27.6C341.3,180.5,340,180.5,340.1,181.3L340.1,181.3L340.1,181.3z"/>
	<path class="st2" d="M345.4,181.3c2.6,2.7,5.4,5.5,6,9.4c0.7,4.2-0.7,8.6-1.3,12.7c-1.2,8.3-1.8,16.6-1.6,25
		c0.1,4.1,0.5,8.1,0.7,12.2c0.1,1.8,0.1,3.7-1.4,5c-1.1,1-2.6,1.5-3.7,2.5s-1.4,2.5-1.4,4c-0.1,2.1-0.1,4.3-0.1,6.5
		c-0.1,4.4-0.2,8.8-0.3,13.2c-0.2,9.8-0.4,19.6-0.6,29.5c0,0.8,1.2,0.8,1.2,0c0.2-8.9,0.4-17.8,0.5-26.7c0.1-4.5,0.2-9,0.3-13.5
		c0-2.2,0.1-4.5,0.1-6.7c0-2.1-0.3-4.4,1.6-5.8c1.2-0.9,2.6-1.4,3.6-2.5s1.3-2.5,1.4-4c0.1-1.9-0.3-3.9-0.4-5.8
		c-0.2-2.2-0.3-4.3-0.3-6.5c-0.3-8.7,0.2-17.5,1.5-26.1c0.6-4.3,2-8.8,1.3-13.2c-0.6-4.1-3.5-7.2-6.4-10.1
		C345.7,179.8,344.8,180.7,345.4,181.3L345.4,181.3L345.4,181.3z"/>
	<path class="st2" d="M352.1,182.5c0.8,3.2,2,6.2,3,9.3s1.7,6.2,2.3,9.4c1.1,6.3,1.4,12.8,1.4,19.2c-0.1,6.5-0.6,13-1.3,19.5
		c-0.3,3.3-0.7,6.6-1.1,9.8c-0.2,1.6-0.4,3.3-0.6,4.9c-0.2,1.6-0.1,4-1,5.5c-0.8,1.3-2.1,1.9-2.4,3.4s0.1,3.3,0.3,4.8
		c0.5,3.9,1,7.9,1.5,11.8c0.1,0.8,1.4,0.8,1.2,0c-0.4-3.4-0.9-6.9-1.3-10.3c-0.2-1.6-0.5-3.2-0.6-4.8c-0.1-1,0.1-1.8,0.7-2.5
		c0.4-0.5,1-0.9,1.4-1.4c0.8-1,0.9-2.3,1-3.5c0.2-1.8,0.5-3.6,0.7-5.4c0.4-3.4,0.8-6.9,1.2-10.3c1.4-12.9,2.3-25.9,0.5-38.8
		c-0.5-3.5-1.2-7-2.2-10.4c-1.1-3.6-2.5-7-3.4-10.7C353.1,181.4,351.9,181.7,352.1,182.5L352.1,182.5L352.1,182.5z"/>
</g>
<g>
	<path class="st2" d="M263.4,160.1c8.3,6.7,4.2,18.7,3.9,27.6c-0.1,4.7,0.8,9,3.4,12.9c1.3,1.9,2.6,4,1.9,6.4
		c-0.6,2-2.1,3.6-3.3,5.3c-2.6,3.8-2.8,8.3-2.3,12.7c0.3,2.4,0.8,4.8,1.1,7.2c0.3,2.5,0,4.9-0.9,7.3c-0.8,2.2-1.9,4.2-2.7,6.4
		s-1.5,4.6-1.6,7c-0.4,4.9,0.7,9.8,2.2,14.4c0.9,2.7,1.9,5.4,2.9,8.1s2.5,5.9,1.6,8.8c-0.7,2.6-2.9,3.9-5.4,4.4
		c-1.4,0.3-3.3,0.8-3.1,2.6c0.1,0.8,1.3,0.8,1.2,0c-0.1-1,1.2-1.2,1.9-1.3c0.9-0.2,1.8-0.3,2.7-0.8c1.6-0.8,3-2.2,3.6-3.9
		c0.9-2.2,0.5-4.6-0.2-6.9c-0.8-2.5-1.8-4.9-2.7-7.4c-1.8-4.9-3.4-10-3.6-15.2c-0.1-2.6,0.2-5.2,1-7.8c0.7-2.3,1.9-4.5,2.8-6.7
		c0.9-2.1,1.6-4.2,1.6-6.5c0.1-2.4-0.5-4.8-0.8-7.2c-0.8-4.8-1.2-10.1,1.6-14.3c1.1-1.7,2.5-3.2,3.3-5.1s0.7-3.7-0.1-5.5
		c-1-2.2-2.6-4-3.5-6.2s-1.3-4.8-1.3-7.3c-0.1-9.7,4.8-22.6-4.3-30C263.6,158.7,262.7,159.5,263.4,160.1L263.4,160.1L263.4,160.1z"
		/>
	<path class="st2" d="M268,164.3c3.3,3.3,4.7,7.7,4.1,12.3c-0.3,2.3-0.9,4.5-0.6,6.8c0.2,2,1,3.6,2.3,5.2c1.4,1.7,3.7,3.9,3.1,6.3
		c-0.3,1.2-1.3,2-2.1,2.9c-0.7,0.8-1.3,1.6-1.8,2.5c-2.1,3.8-2.1,7.9-0.8,11.9c0.8,2.3,1.8,4.6,2.2,7s0.5,5.1,0.2,7.6
		c-0.5,5-2.1,9.9-3.8,14.6s-3.5,9.2-4.2,14c-0.3,2.3,0.5,3.9,1.7,5.9c1.2,2.1,1.7,4.4,1.7,6.8c0,5.5-2.2,10.7-2.2,16.2
		c0,5.1,1.9,11.6-2.5,15.6c-0.6,0.5,0.3,1.4,0.9,0.9c3.4-3.1,3.5-7.8,3.1-12.1c-0.2-2.8-0.4-5.5,0-8.2c0.4-2.5,1-5,1.5-7.6
		c0.8-4.5,0.7-8.8-1.7-12.8c-0.7-1.2-1.3-2.3-1.3-3.7c0-1.4,0.5-2.8,0.8-4.1c0.6-2.5,1.5-4.9,2.3-7.3c3.2-9.3,7.2-19.5,3.9-29.3
		c-0.8-2.4-2-4.8-2.3-7.4c-0.3-2.4,0.2-4.8,1.2-7c0.5-1,1.1-2,1.9-2.8c0.7-0.8,1.5-1.5,2-2.4c1-1.7,0.5-3.7-0.4-5.3
		c-1.3-2.2-3.6-3.8-4.3-6.3c-0.7-2.6,0.1-5.5,0.4-8.1c0.6-4.9-1-9.7-4.5-13.2C268.3,162.9,267.4,163.8,268,164.3L268,164.3
		L268,164.3z"/>
	<path class="st1" d="M258.4,161.1c-3.1,7-4,14.9-2.7,22.4c0.7,4.1,2.8,8.1,2.6,12.4s-2.2,8.1-3.8,11.9c-3,7.1-5.5,15.1-3.7,22.9
		c0.9,4.1,2.9,7.8,4.5,11.7c1.6,3.9,3.4,8,4.5,12.1c0.7,2.6-0.2,4.6-1.4,6.8c-1,1.8-1.8,3.7-2.4,5.7c-1.2,4.1-1.3,8.5-0.5,12.8
		c0.2,0.8,1.4,0.5,1.2-0.3c-0.8-3.9-0.6-8,0.4-11.9c0.5-1.9,1.3-3.7,2.2-5.4c0.8-1.5,1.7-3,1.9-4.7c0.3-1.9-0.4-3.7-1-5.5
		c-0.7-2-1.5-4.1-2.2-6.1c-1.5-3.8-3.3-7.5-4.7-11.3s-2.1-7.9-1.7-12s1.6-8.1,3.1-11.9s3.4-7.2,4.4-11s0.2-7.5-0.9-11.3
		c-2.6-8.8-2.4-18,1.3-26.5C259.8,161,258.7,160.4,258.4,161.1L258.4,161.1L258.4,161.1z"/>
	<path class="st2" d="M261.7,160.5c-2.7,1.7-3.1,5.1-2.4,8c0.9,3.9,4,6.8,4.8,10.7c1,4.5-2,8.7-3.1,12.9c-1.2,4.5-0.4,8.6,0.9,13
		c0.6,2.2,1.1,4.5,0.8,6.8c-0.2,2-0.9,4-1.7,5.9c-1.5,3.8-3.6,7.5-4.1,11.6c-0.6,4.7,0.5,9.4,1.2,14c0.4,2.4,0.8,4.8,1.2,7.2
		s1,5,1.1,7.6c0.1,1.4-0.1,2.8-0.5,4.1c-0.3,1-0.5,2-0.1,3.1c0.3,0.9,1,1.5,1.5,2.3c0.7,0.9,1.1,1.9,1.3,3c0.7,4.4-1.3,8.7-0.1,13
		c0.2,0.8,1.4,0.5,1.2-0.3c-1-3.8,0.4-7.6,0.3-11.5c0-1.6-0.4-3.2-1.3-4.5c-0.5-0.7-1.1-1.3-1.5-2c-0.7-1.3,0-2.7,0.2-4
		c0.4-2,0.2-4.1-0.1-6.1c-0.4-2.4-0.8-4.8-1.2-7.1c-0.8-4.7-1.8-9.5-2.1-14.3s1-8.5,2.8-12.6c1.5-3.5,3.2-7,3.1-10.9
		c0-4.4-2.3-8.5-2.4-12.9c-0.1-4.6,2.2-8.4,3.4-12.7c0.6-2.1,0.8-4.3,0.2-6.5s-1.7-3.9-2.8-5.8c-1.7-3-3.9-8.4-0.1-10.9
		C263,161.1,262.3,160.1,261.7,160.5L261.7,160.5L261.7,160.5z"/>
	<path class="st2" d="M263,164l0.5,26.3l0.3,13.1c0,2.2,0.1,4.5,0.1,6.7s0.1,4.3-0.6,6.3c-0.6,1.8-1.6,3.5-2.1,5.3
		c-0.4,1.6-0.5,3.3-0.3,5c0.5,3.7,2.3,7,3.9,10.3c0.8,1.6,1.9,3.3,2.2,5c0.2,0.7,0.2,1.5,0,2.3c-0.4,0.9-1.2,1.2-2.1,1.5
		c-1.1,0.4-2.2,0.9-2.4,2.2c-0.1,0.8,0.1,1.5,0.3,2.2c0.3,1.1,0.6,2.2,0.9,3.4c0.6,2.4,1.2,4.8,1.8,7.2c0.5,2.1,0.9,4.4,1.8,6.3
		c0.8,1.7,2.3,2.8,3.5,4.2c1.5,1.8,2.3,3.9,2.6,6.2c0.1,0.8,1.3,0.5,1.2-0.3c-0.2-1.7-0.8-3.3-1.6-4.8s-2.1-2.7-3.3-4
		c-1.5-1.5-1.9-3.4-2.4-5.4s-1.1-4.1-1.6-6.2c-0.5-2.1-1.1-4.3-1.6-6.5c-0.2-1-0.8-2.3,0.2-3c0.6-0.4,1.4-0.5,2.1-0.8
		c2.6-1.2,2.2-4.4,1.2-6.6c-1.5-3.5-3.7-6.8-4.9-10.4c-0.6-1.9-1-3.8-0.8-5.8s1.1-3.8,1.9-5.7c1.6-3.6,1.2-7.6,1.1-11.5l-0.3-13.1
		c-0.2-9.8-0.4-19.7-0.6-29.5C264.3,163.2,263,163.2,263,164L263,164L263,164z"/>
	<path class="st1" d="M271.6,167.2c1.4,2.3,2.2,4.9,2.3,7.5c0.1,2.6-0.6,5-1.5,7.4c-0.8,2.2-1.8,4.5-1.8,6.8s1.1,4.1,2.4,6
		c1.6,2.2,2.6,4.4,2.5,7.2c0,2.6-0.6,5.1-0.9,7.7c-0.6,5.6-0.2,11.3,0.3,16.9c0.2,3,0.8,5.8,1.8,8.6c1,2.6,2.4,5.7,0.8,8.4
		c-0.4,0.7,0.7,1.3,1.1,0.6c1.2-2,1-4.3,0.3-6.5c-0.8-2.5-1.9-4.9-2.3-7.5c-0.5-3-0.6-6.1-0.8-9.2c-0.1-2.9-0.2-5.8-0.1-8.6
		c0.2-5,2.4-10.8,0.1-15.6c-1.1-2.2-3.1-3.8-3.7-6.2c-0.7-2.7,0.5-5.4,1.5-7.9c1-2.7,1.8-5.4,1.6-8.4c-0.2-2.8-1-5.4-2.5-7.8
		C272.2,165.9,271.2,166.5,271.6,167.2L271.6,167.2L271.6,167.2z"/>
	<path class="st2" d="M255.4,162.3c-1.1,3.8-1.8,7.6-1.9,11.6s0.6,8.1,0.8,12.2s-1.2,8-1.9,12s-0.4,8.1-0.7,12.1
		c-0.3,4-1.3,7.9-1.7,11.9s0.1,8.1,0.7,12.1c0.6,4.2,0.8,8.3,0.7,12.6c-0.1,2.1-0.2,4.2-0.1,6.3s0.4,4,0.7,6
		c0.3,2.2,0.4,4.6-0.5,6.7c-0.8,1.8-2.1,3.2-3,4.9c-1.3,2.4-1.5,6,1.2,7.4c0.7,0.4,1.3-0.7,0.6-1.1c-3.4-1.8-0.5-6.2,0.9-8.2
		c0.9-1.3,1.7-2.6,2-4.2c0.4-1.8,0.3-3.6,0-5.5s-0.5-3.7-0.6-5.5c-0.1-2.1,0-4.2,0-6.3c0.1-3.9,0.1-7.7-0.5-11.6s-1.2-7.9-1-11.9
		s1.2-7.7,1.7-11.6s0.2-7.7,0.5-11.5s1.7-7.5,2.1-11.4c0.5-4.5-0.6-9-0.7-13.5s0.6-8.8,1.9-13.1
		C256.8,161.9,255.6,161.6,255.4,162.3L255.4,162.3L255.4,162.3z"/>
	<path class="st2" d="M258.2,162.2c0.6,8.4,0.1,16.8-1.4,25c-0.8,4.1-1.8,8.2-3,12.3c-0.6,2-1.3,3.9-2,5.9c-0.6,1.5-1.8,3.3-1.2,5
		c0.6,1.5,2.3,2.6,3.2,3.9c1.1,1.5,2,3.1,2.5,4.8c1.2,3.8,0.6,7.4-0.8,11.1s-2.5,7.4-2.9,11.5c-0.4,4.2-0.2,8.4,0,12.6
		c0.5,10,1,20.1,1.6,30.1c0,0.8,1.3,0.8,1.2,0c-0.5-8.9-0.9-17.8-1.4-26.7c-0.4-8.4-1.2-17.1,1.8-25.1c1.3-3.5,2.7-6.8,2.3-10.6
		c-0.4-3.3-1.7-6.3-3.8-8.9c-0.5-0.7-1.1-1.2-1.7-1.9c-0.4-0.4-0.8-0.8-1-1.5c-0.1-0.7,0.1-1.3,0.4-1.9c0.8-1.9,1.5-3.9,2.2-5.8
		c1.4-4,2.5-8.1,3.3-12.2c1.9-9.1,2.5-18.4,1.9-27.6C259.4,161.4,258.2,161.4,258.2,162.2L258.2,162.2L258.2,162.2z"/>
	<path class="st2" d="M263.5,162.2c2.6,2.7,5.4,5.5,6,9.4c0.7,4.2-0.7,8.6-1.3,12.7c-1.2,8.3-1.8,16.6-1.6,25
		c0.1,4.1,0.5,8.1,0.7,12.2c0.1,1.8,0.1,3.7-1.4,5c-1.1,1-2.6,1.5-3.7,2.5s-1.4,2.5-1.4,4c-0.1,2.1-0.1,4.3-0.1,6.5
		c-0.1,4.4-0.2,8.8-0.3,13.2c-0.2,9.8-0.4,19.6-0.6,29.5c0,0.8,1.2,0.8,1.2,0c0.2-8.9,0.4-17.8,0.5-26.7c0.1-4.5,0.2-9,0.3-13.5
		c0-2.2,0.1-4.5,0.1-6.7c0-2.1-0.3-4.4,1.6-5.8c1.2-0.9,2.6-1.4,3.6-2.5s1.3-2.5,1.4-4c0.1-1.9-0.3-3.9-0.4-5.8
		c-0.2-2.2-0.3-4.3-0.3-6.5c-0.3-8.7,0.2-17.5,1.5-26.1c0.6-4.3,2-8.8,1.3-13.2c-0.6-4.1-3.5-7.2-6.4-10.1
		C263.8,160.7,262.9,161.6,263.5,162.2L263.5,162.2L263.5,162.2z"/>
	<path class="st2" d="M270.2,163.4c0.8,3.2,2,6.2,3,9.3s1.7,6.2,2.3,9.4c1.1,6.3,1.4,12.8,1.4,19.2c-0.1,6.5-0.6,13-1.3,19.5
		c-0.3,3.3-0.7,6.6-1.1,9.8c-0.2,1.6-0.4,3.3-0.6,4.9s-0.1,4-1,5.5c-0.8,1.3-2.1,1.9-2.4,3.4s0.1,3.3,0.3,4.8
		c0.5,3.9,1,7.9,1.5,11.8c0.1,0.8,1.4,0.8,1.2,0c-0.4-3.4-0.9-6.9-1.3-10.3c-0.2-1.6-0.5-3.2-0.6-4.8c-0.1-1,0.1-1.8,0.7-2.5
		c0.4-0.5,1-0.9,1.4-1.4c0.8-1,0.9-2.3,1-3.5c0.2-1.8,0.5-3.6,0.7-5.4c0.4-3.4,0.8-6.9,1.2-10.3c1.4-12.9,2.3-25.9,0.5-38.8
		c-0.5-3.5-1.2-7-2.2-10.4c-1.1-3.6-2.5-7-3.4-10.7C271.3,162.3,270,162.7,270.2,163.4L270.2,163.4L270.2,163.4z"/>
</g>
<g>
	<path class="st2" d="M225.6,151c-3.5,3.5-4.9,8.5-5.4,13.3c-0.6,6.3,0.6,12.6,1,18.9c0.4,5.9,0.1,11.9-2.7,17.2
		c-1.2,2.2-2.5,4.5-2.6,7.1c-0.1,2.4,0.9,4.6,2.1,6.6c1.4,2.3,2.7,4.5,3.4,7.2c0.7,2.9,0.7,5.9,0.5,8.8c-0.4,5.9-2.1,11.8-0.8,17.6
		s4.2,10.9,4.8,16.8c0.7,6.2-0.4,12.5-2,18.5c-0.9,3.3-1.9,6.6-2.8,9.9c-0.9,3.1-2,6.2-2,9.5c0,2.6,1,5.3,3,7.1
		c0.9,0.8,1.9,1.3,3.1,1.5c1.1,0.3,2.8,0.5,2.7,1.9c-0.1,0.8,1.2,0.8,1.2,0c0.2-1.9-1.6-2.7-3.2-3c-2.5-0.6-4.3-2.2-5.1-4.7
		c-1-3.1-0.1-6.4,0.7-9.4c0.8-2.8,1.7-5.6,2.5-8.4c1.6-5.7,3-11.5,3.3-17.5c0.1-2.9-0.1-5.9-0.7-8.8s-1.6-5.4-2.5-8
		c-1-2.8-2-5.7-2.2-8.7s0.3-5.9,0.7-8.8c0.7-5.4,1.3-11.1-0.5-16.4c-0.8-2.4-2.3-4.5-3.5-6.8c-1.4-2.5-1.8-5-0.8-7.8
		c0.9-2.6,2.6-4.8,3.5-7.4s1.2-5.2,1.4-7.9c0.4-7-1.1-13.9-1.2-20.9c-0.1-5.9,0.8-12.6,5.1-16.9C227,151.4,226.2,150.5,225.6,151
		L225.6,151L225.6,151z"/>
	<path class="st2" d="M221,156.3c-3.3,4-4.9,9.3-4.6,14.5c0.1,2.9,0.8,5.7,0.8,8.6c0,3.1-1,5.4-2.8,7.9c-1.5,2.1-2.9,4.4-2.7,7.1
		s2.1,4.2,3.3,6.3c3.1,5.2,2.8,11,1.1,16.5c-0.9,2.8-1.6,5.6-2,8.6c-0.4,3.1-0.3,6.2,0,9.3c0.6,6,2.1,11.8,3.7,17.6
		c0.9,3,1.7,6,2.5,9.1s1.8,6.3,1.8,9.4c0,2.8-1.9,5.1-2.7,7.8s-0.9,5.5-0.7,8.2c0.2,3.3,0.8,6.5,1.4,9.7c0.6,3.6,0.9,7.1,0.7,10.8
		c-0.3,5.8-1.3,12.9,3,17.6c0.5,0.6,1.4-0.3,0.9-0.9c-3.9-4.4-2.9-11.1-2.6-16.5c0.2-3,0-6-0.4-9s-1.1-6-1.4-9.1
		c-0.3-2.8-0.5-5.7,0-8.5c0.2-1.2,0.5-2.5,1-3.6c0.5-1.3,1.3-2.5,1.7-3.8c0.9-2.5,0.3-5.2-0.3-7.8c-0.6-3-1.4-6-2.2-8.9
		c-3.2-11.5-7.3-23.7-4.2-35.6c0.7-2.8,1.8-5.4,2.2-8.2c0.4-2.5,0.4-5.1-0.2-7.6s-1.5-4.7-2.9-6.7c-0.7-1-1.5-1.8-2-2.9
		c-0.7-1.5-0.4-3.2,0.2-4.8c1.1-2.6,3.3-4.6,4.2-7.4c1-2.9,0.7-6,0.3-9c-0.4-3.2-0.7-6.3,0-9.5s1.9-5.9,3.9-8.3
		C222.4,156.6,221.5,155.7,221,156.3L221,156.3L221,156.3z"/>
	<path class="st1" d="M230.4,153.8c3.2,9.1,4,19.1,2.3,28.6c-0.8,4.6-2.5,9.2-2.4,14s1.9,9,3.4,13.3c3.3,9.3,6,19.4,4,29.3
		c-1,4.8-2.9,9.4-4.5,14c-1.6,4.6-3.4,9.7-4.4,14.6c-0.5,2.6-0.3,4.9,0.7,7.4s2.1,4.7,2.8,7.2c1.5,5.3,1.8,10.9,0.9,16.4
		c-0.1,0.8,1.1,1.1,1.2,0.3c0.8-4.6,0.7-9.2-0.1-13.8c-0.4-2.3-1-4.5-1.9-6.7s-2-4.2-2.5-6.4c-0.5-2.8,0.5-5.5,1.2-8.1
		c0.7-2.5,1.5-4.9,2.2-7.3c1.5-4.8,3.5-9.4,4.8-14.2c2.7-9.6,1.1-19.5-1.9-28.8c-1.5-4.6-3.5-9-4.4-13.7c-1-5.1,0.4-9.9,1.5-14.9
		c2.3-10.4,1.7-21.4-1.9-31.4C231.3,152.7,230.1,153.1,230.4,153.8L230.4,153.8L230.4,153.8z"/>
	<path class="st2" d="M227.4,153.7c3.3,2.6,2.4,8,1.1,11.4c-1.8,4.5-4.5,8.6-4.2,13.6s2.8,9.5,3.6,14.5c0.5,3,0.5,6.1-0.1,9.1
		c-0.5,2.6-1.2,5.1-1.6,7.7c-0.8,4.9,0.1,9.5,1.7,14.2s3.7,9.6,3.9,14.8c0.3,5.6-0.8,11.3-1.6,16.9c-0.4,2.9-0.8,5.7-1.1,8.6
		s-0.9,5.6-1,8.4c0,1.5,0.1,2.9,0.4,4.3c0.4,1.7,0.8,3.2-0.1,4.8c-0.5,1-1.3,1.9-1.7,3c-0.4,1-0.6,2-0.8,3
		c-0.6,5.2,1.4,10.5,0.2,15.7c-0.2,0.8,1,1.1,1.2,0.3c1-4.6-0.3-9.2-0.3-13.8c0-2.4,0.5-4.6,1.8-6.6c0.6-0.9,1.1-1.7,1.2-2.7
		c0.2-1.2-0.1-2.4-0.3-3.5c-0.6-2.8-0.4-5.6,0-8.5s0.8-5.9,1.2-8.8c0.8-5.7,1.8-11.5,2.1-17.2c0.3-5.4-0.8-10.3-2.6-15.4
		s-3.6-9.7-3.2-15c0.2-2.9,1-5.6,1.6-8.5c0.5-2.6,0.8-5.2,0.7-7.9c-0.3-5.3-2.7-10-3.7-15.2c-0.6-3-0.2-5.9,0.9-8.8
		c1-2.5,2.4-4.9,3.3-7.5c1.2-3.6,1.7-9.1-1.7-11.7C227.7,152.3,226.8,153.2,227.4,153.7L227.4,153.7L227.4,153.7z"/>
	<path class="st2" d="M225.6,156.8c-0.2,10.5-0.3,20.9-0.5,31.4l-0.2,15.4l-0.1,7.7c0,2.5-0.2,5,0.1,7.4s1,4.5,1.8,6.7
		s1.3,4.5,1.2,7c-0.2,4.8-2.2,9.4-4,13.8c-1.2,3-3.6,7.3-2,10.6c0.3,0.6,0.8,1.1,1.3,1.4c0.7,0.5,1.8,0.6,2.4,1.2
		c0.9,0.9,0.3,2.4,0.1,3.5c-0.3,1.4-0.6,2.7-0.9,4.1c-0.6,2.8-1.2,5.6-1.7,8.4s-0.8,5.6-1.9,8.1c-1,2.2-2.9,3.8-4,6s-1.7,4.4-2,6.8
		c-0.1,0.8,1.2,0.8,1.2,0c0.3-2.4,1-4.8,2.2-6.9c1.1-1.8,2.7-3.2,3.6-5.1c1-2,1.2-4.4,1.7-6.6c0.5-2.6,1.1-5.1,1.6-7.7s1-5,1.5-7.4
		c0.3-1.5,0.5-3.2-0.9-4.3c-0.6-0.4-1.4-0.6-2-1c-1-0.5-1.4-1.4-1.5-2.5c-0.1-2,0.6-3.9,1.4-5.7c1.8-4.4,3.9-8.7,4.7-13.4
		c0.4-2,0.5-4.1,0.2-6.2c-0.3-2.4-1.3-4.5-2-6.8c-1.6-4.8-1-10.1-0.9-15l0.3-15.7c0.2-11.7,0.4-23.4,0.6-35.1
		C226.8,156,225.6,156,225.6,156.8L225.6,156.8L225.6,156.8z"/>
	<path class="st1" d="M217.2,160.1c-2.7,5.4-3.1,11.6-1.5,17.4c0.9,3.2,2.2,6.3,2.4,9.6s-1.7,5.8-3.2,8.7c-3,5.7-1.1,12.2-0.7,18.3
		c0.5,7,0.1,14.1-0.4,21.1c-0.3,3.9-1.2,7.4-2.3,11.1c-0.9,3-1.5,6.2,0,9.2c0.4,0.7,1.4,0.1,1.1-0.6c-1.5-2.9-0.5-6.3,0.4-9.3
		s1.6-5.9,1.9-9c0.7-6.8,1-13.7,0.6-20.5c-0.1-3.2-0.6-6.4-0.9-9.6s-0.4-6.4,1-9.3c1.2-2.5,3-4.6,3.5-7.4s-0.1-5.7-0.9-8.4
		c-1-3.5-2.2-6.8-2.2-10.5s0.7-7.1,2.3-10.3C218.6,160,217.6,159.4,217.2,160.1L217.2,160.1L217.2,160.1z"/>
	<path class="st2" d="M233.3,155.1c1.2,4.8,1.8,9.6,1.9,14.5s-0.7,9.6-0.8,14.4s1,9,1.7,13.6c0.8,4.8,0.6,9.7,0.8,14.6
		s1,9.5,1.6,14.3s0.3,9.6-0.2,14.4s-1.1,9.6-1,14.4c0.1,4.9,0.4,9.7-0.1,14.5s-1.4,9.7,0.8,14.3c1,2,2.4,3.9,3,6.2
		c0.4,1.8,0.5,4.5-1.3,5.6c-0.7,0.4,0,1.5,0.6,1.1c2.6-1.7,2.5-5.5,1.5-8.1c-0.7-2-2-3.7-2.8-5.6c-1.1-2.3-1.3-4.7-1.2-7.1
		s0.5-4.7,0.7-7c0.2-2.5,0.2-5,0.1-7.5c-0.1-5-0.3-10,0.2-15s1.2-9.9,1.2-14.9s-1.1-9.8-1.6-14.8s-0.3-9.9-0.6-14.8
		s-1.7-9.5-2.1-14.3c-0.5-5.6,0.6-11.2,0.7-16.8s-0.6-11-1.9-16.3C234.3,154,233.1,154.4,233.3,155.1L233.3,155.1L233.3,155.1z"/>
	<path class="st2" d="M230.4,154.6c-0.6,10.1-0.1,20.2,1.3,30.2c0.7,4.9,1.6,9.8,2.8,14.7c0.6,2.5,1.3,4.9,2,7.4
		c0.3,1.1,0.7,2.2,1,3.3c0.5,1.4,0.9,2.7,0,4.1c-1.2,1.8-2.6,3.3-3.5,5.3c-0.9,1.9-1.6,3.8-2,5.9c-0.9,4.4-0.3,8.6,1.1,12.9
		c1.5,4.9,2.6,9.7,2.9,14.8c0.3,5.1,0.1,10.1-0.1,15.2c-0.5,12.1-1,24.2-1.5,36.4c0,0.8,1.2,0.8,1.2,0c0.5-10.8,0.9-21.6,1.4-32.4
		c0.4-9.9,1.2-20.1-1.3-29.7c-1.2-4.7-3.2-9.1-2.8-14.1c0.3-4.5,2-8.9,4.9-12.3c1.3-1.6,2-3,1.4-5.2c-0.7-2.4-1.5-4.7-2.2-7
		c-1.4-4.9-2.5-9.8-3.4-14.8c-2-11.4-2.6-23-2-34.5C231.7,153.8,230.4,153.8,230.4,154.6L230.4,154.6L230.4,154.6z"/>
	<path class="st2" d="M225.4,153.6c-2.7,3.4-5.3,6.9-6.2,11.2c-1,4.9,0.2,10,0.8,14.8c1.4,10.4,2,20.9,1.9,31.4
		c0,5.2-0.3,10.5-0.7,15.7c-0.1,2-0.2,4.1,0.5,5.9c0.6,1.7,1.9,2.7,3.3,3.7c0.8,0.5,1.5,1.1,2,1.9c0.7,1.1,0.7,2.5,0.7,3.7
		c0,2.6,0.1,5.3,0.1,8c0.1,5.3,0.2,10.6,0.3,15.9c0.2,12.1,0.4,24.2,0.6,36.3c0,0.8,1.3,0.8,1.2,0c-0.2-10.5-0.4-21-0.5-31.6
		c-0.1-5.2-0.2-10.4-0.3-15.7c0-2.6-0.1-5.3-0.1-8c0-2.4,0.1-4.9-0.2-7.2c-0.3-1.7-1.1-3-2.5-4c-1.7-1.3-3.2-2.2-3.7-4.5
		s-0.1-4.6,0.1-6.8c0.2-2.5,0.3-5,0.4-7.5c0.4-10.3,0-20.7-1-30.9c-0.3-2.7-0.6-5.4-1-8.1c-0.4-2.9-0.9-5.9-0.9-8.9s0.5-5.7,1.9-8.2
		c1.2-2.2,2.7-4.2,4.3-6.2C226.8,153.9,226,153,225.4,153.6L225.4,153.6L225.4,153.6z"/>
	<path class="st2" d="M218.4,155.8c-0.8,4-2,7.8-3,11.7s-1.7,7.7-2.3,11.6c-1.1,7.8-1.5,15.7-1.4,23.6s0.6,15.9,1.2,23.8
		c0.3,4.1,0.7,8.3,1.1,12.5c0.2,2.1,0.4,4.2,0.6,6.3c0.2,1.9,0.3,3.8,0.7,5.6c0.2,0.9,0.5,1.6,1,2.4c0.6,0.8,1.4,1.5,1.7,2.5
		c0.6,2-0.1,4.5-0.3,6.5c-0.5,4.7-1,9.4-1.5,14.1c-0.1,0.8,1.2,0.8,1.2,0c0.4-4.1,0.8-8.1,1.3-12.2c0.2-2.1,0.5-4.1,0.6-6.2
		c0.1-1.5-0.1-3-1-4.2c-0.4-0.6-1-1.1-1.3-1.8c-0.5-1-0.6-2.2-0.8-3.3c-0.2-2-0.4-4.1-0.6-6.1c-0.4-4.1-0.8-8.3-1.2-12.5
		c-1.4-15.8-2.4-31.8-0.6-47.7c0.5-4.4,1.2-8.8,2.3-13.1s2.5-8.8,3.4-13.3C219.8,155.3,218.6,155,218.4,155.8L218.4,155.8
		L218.4,155.8z"/>
</g>
<g>
	<path class="st2" d="M176.4,174.7c-8,6.5-5,17.8-4.4,26.5c0.4,5-0.2,9.8-3,14c-1.1,1.7-2.3,3.5-2.4,5.6c-0.1,2,0.9,3.7,2,5.2
		c1.3,1.9,2.7,3.6,3.4,5.9s0.7,4.7,0.6,7c-0.4,4.8-2.1,9.7-0.8,14.5c1.3,4.8,4.2,8.9,4.8,13.9s-0.6,10.5-2.2,15.4
		c-0.9,2.8-1.9,5.5-3,8.3c-0.9,2.5-1.9,5.1-1.6,7.8c0.3,2.1,1.5,3.9,3.3,5.1c0.9,0.6,1.8,0.9,2.9,1.1c0.8,0.1,2.6,0.3,2.5,1.4
		c-0.1,0.8,1.2,0.8,1.2,0c0.2-1.5-1.3-2.2-2.6-2.5c-2.1-0.5-3.9-0.9-5.2-2.9c-1.5-2.3-1-5.1-0.1-7.6s1.8-4.8,2.6-7.2
		c1.7-4.7,3.2-9.6,3.5-14.6s-1-9-2.9-13.4c-1-2.2-2-4.5-2.4-6.9c-0.4-2.7,0.2-5.4,0.6-8c0.7-4.3,1.2-8.9-0.4-13.1
		c-1.5-3.9-6.4-7.2-4.4-11.7c0.9-2,2.4-3.7,3.4-5.8s1.3-4.1,1.5-6.3c0.9-9.9-5.3-23.7,4-31.2C177.9,175,177.1,174.2,176.4,174.7
		L176.4,174.7L176.4,174.7z"/>
	<path class="st2" d="M171.8,178.9c-3,3-4.8,7.1-4.7,11.3c0.1,2.4,0.7,4.7,0.8,7.1c0.1,2.8-0.9,4.7-2.6,6.7
		c-1.3,1.5-2.6,3.1-2.8,5.1c-0.3,2.3,1.1,3.6,2.5,5.2c3.4,3.8,3.8,8.8,2.2,13.5c-0.9,2.5-1.8,4.9-2.2,7.5c-0.4,2.4-0.4,4.9-0.1,7.3
		c0.5,5,2,9.8,3.6,14.6c0.8,2.4,1.7,4.8,2.5,7.2s1.9,5.2,1.9,7.9c0.1,2.5-1.9,4.4-2.7,6.7c-0.7,2.1-0.8,4.3-0.7,6.5
		c0.2,2.7,0.8,5.3,1.3,7.9c0.6,3,0.9,5.9,0.7,9c-0.3,4.9-1.1,10.6,3,14.3c0.6,0.5,1.5-0.3,0.9-0.9c-3.8-3.4-2.9-8.9-2.6-13.4
		c0.3-5-1.1-9.6-1.8-14.6c-0.4-2.4-0.5-4.8,0-7.1s2.1-4.1,2.8-6.3s0-4.5-0.6-6.5c-0.6-2.4-1.4-4.7-2.2-7.1
		c-3.2-9.3-7.2-19.5-3.8-29.3c0.8-2.2,1.8-4.4,2.1-6.8c0.3-2,0.1-4-0.5-5.9s-1.5-3.6-2.8-5.1c-0.8-0.9-1.8-1.6-2.2-2.8
		c-0.4-1.3,0-2.6,0.7-3.8c1.2-2,3.1-3.5,4-5.6s0.6-4.7,0.2-7c-0.4-2.7-0.7-5.2-0.1-7.9s2-4.8,3.9-6.7
		C173.3,179.2,172.4,178.3,171.8,178.9L171.8,178.9L171.8,178.9z"/>
	<path class="st1" d="M181.2,177.2c3.2,7.4,4,15.8,2.1,23.6c-0.9,3.9-2.6,7.6-2.2,11.6c0.4,3.7,2,7,3.5,10.3
		c3.2,7.5,6,15.9,3.8,24.1c-1.1,4-3,7.7-4.6,11.5c-0.8,1.9-1.5,3.9-2.3,5.8s-1.6,4-2,6.1c-0.8,4.2,2.3,7.5,3.6,11.3
		c1.5,4.3,1.8,8.9,0.9,13.3c-0.2,0.8,1,1.1,1.2,0.3c0.7-3.7,0.7-7.4-0.1-11.1c-0.4-1.8-1-3.6-1.8-5.3s-2-3.4-2.6-5.3
		c-0.6-2.2,0.3-4.4,1-6.5s1.5-4.1,2.3-6.1c1.5-3.9,3.5-7.7,4.9-11.7c2.7-7.8,1.2-15.8-1.7-23.3c-1.4-3.8-3.5-7.3-4.4-11.2
		c-1.1-4.5,0.4-8.4,1.5-12.6c2.2-8.4,1.5-17.4-2-25.4C182,175.8,180.9,176.5,181.2,177.2L181.2,177.2L181.2,177.2z"/>
	<path class="st2" d="M178.4,177.1c3.3,2.1,2.1,6.8,0.6,9.7c-1.8,3.4-4.2,6.6-3.8,10.6s2.8,7.8,3.6,11.9c0.5,2.4,0.4,4.9-0.2,7.3
		c-0.5,2.1-1.2,4.1-1.6,6.3c-0.8,3.9,0.1,7.5,1.6,11.1c1.6,3.9,3.6,7.6,4,11.8c0.4,4.7-0.8,9.5-1.5,14.2c-0.4,2.4-0.8,4.8-1.2,7.2
		c-0.4,2.1-0.8,4.3-0.9,6.5c-0.1,1.2,0,2.4,0.3,3.6c0.4,1.5,0.8,2.7-0.1,4c-1.2,1.6-2.1,2.9-2.4,5c-0.6,4.2,1.3,8.4,0.2,12.6
		c-0.2,0.8,1,1.1,1.2,0.3c1-3.8-0.3-7.6-0.3-11.4c0-2.2,0.7-3.7,2-5.4s1.2-3.1,0.7-5c-0.7-2.5-0.3-4.9,0.1-7.5s0.8-5,1.2-7.4
		c0.8-4.6,1.8-9.4,2-14.1c0.1-4.3-1.1-8-2.9-11.9s-3.7-8.1-3-12.6c0.4-2.2,1.1-4.3,1.6-6.5s0.8-4.4,0.5-6.7c-0.5-4.4-3-8.1-3.8-12.4
		c-0.9-5.1,2.9-8.5,4.5-13c1.1-3.1,1-7.3-2-9.2C178.3,175.6,177.7,176.6,178.4,177.1L178.4,177.1L178.4,177.1z"/>
	<path class="st2" d="M176.4,179.4c-0.2,8.7-0.4,17.4-0.5,26.1l-0.3,13.1c0,2.1-0.1,4.3-0.1,6.5c0,2-0.1,4.1,0.3,6.1
		c0.4,1.8,1.3,3.5,2,5.2c0.7,1.8,0.9,3.8,0.6,5.7c-0.5,4-2.6,7.5-4.4,11c-1.1,2.2-3,5.4-1.4,7.9c0.8,1.2,2.1,1.3,3.3,1.9
		s0.7,1.8,0.5,2.9c-0.3,1.1-0.6,2.2-0.9,3.4c-0.6,2.4-1.2,4.8-1.8,7.2c-0.5,2.1-0.8,4.7-2,6.5c-1,1.7-2.8,2.8-3.9,4.5
		s-1.8,3.5-2,5.5c-0.1,0.8,1.1,1.1,1.2,0.3c0.3-1.9,0.9-3.8,2-5.4c1-1.4,2.4-2.5,3.4-3.9c1.1-1.5,1.4-3.4,1.9-5.2
		c0.5-2.1,1.1-4.1,1.6-6.2s1.1-4.3,1.7-6.5c0.3-1.3,0.8-2.8-0.4-3.8c-1.1-0.9-3-0.7-3.7-2.1c-0.8-1.5,0.1-3.4,0.7-4.8
		c1.6-3.4,3.6-6.7,4.7-10.3s0.9-6.7-0.5-10c-0.9-2.1-1.7-3.9-1.8-6.2c-0.1-2.1,0-4.2,0.1-6.3l0.3-13.1c0.2-9.9,0.4-19.9,0.6-29.8
		C177.7,178.6,176.4,178.6,176.4,179.4L176.4,179.4L176.4,179.4z"/>
	<path class="st1" d="M168,182.1c-2.6,4.2-3.2,9.4-1.6,14.1c0.9,2.6,2.2,5.1,2.4,7.9s-1.4,4.5-2.9,6.6c-3.2,4.6-1.6,9.7-1.1,14.9
		c0.6,5.8,0.2,11.8-0.4,17.6c-0.3,3.3-1.3,6.2-2.4,9.3c-0.8,2.4-1.3,5,0.1,7.3c0.4,0.7,1.5,0.1,1.1-0.6c-1.5-2.4-0.4-5.2,0.5-7.6
		s1.6-4.7,1.9-7.3c0.7-5.5,1-11.3,0.6-16.9c-0.3-5.1-2.6-11,0.4-15.7c1.2-1.8,2.8-3.4,3.2-5.6c0.5-2.3-0.1-4.6-0.9-6.8
		c-1-2.8-2.2-5.4-2.2-8.4s0.8-5.9,2.3-8.4C169.5,182,168.4,181.4,168,182.1L168,182.1L168,182.1z"/>
	<path class="st2" d="M184.1,178.1c1.1,3.8,1.8,7.7,1.9,11.7s-0.7,8-0.8,12s1.1,7.4,1.8,11.2s0.6,7.9,0.8,11.8s1,7.6,1.6,11.4
		c0.6,4.2,0.2,8.3-0.4,12.5c-0.5,3.7-1,7.4-0.9,11.2c0.1,4.1,0.4,8.2-0.2,12.3c-0.5,3.9-1.1,7.6,1.1,11.1c1,1.6,2.3,3,2.8,4.8
		c0.5,1.6,0.3,3.6-1.3,4.4c-0.7,0.4-0.1,1.5,0.6,1.1c2.3-1.2,2.5-4.2,1.7-6.4c-0.6-1.5-1.6-2.7-2.4-4c-1.1-1.7-1.8-3.5-1.8-5.6
		c0-2,0.4-3.9,0.6-5.8s0.3-4,0.3-6c-0.1-4.2-0.3-8.4,0.1-12.6c0.5-4.2,1.2-8.1,1.3-12.2s-0.9-7.9-1.5-11.8
		c-0.6-4.1-0.4-8.3-0.7-12.5s-1.7-7.9-2.1-11.9c-0.5-4.6,0.6-9.2,0.7-13.8s-0.6-8.9-1.9-13.2C185.1,177,183.9,177.3,184.1,178.1
		L184.1,178.1L184.1,178.1z"/>
	<path class="st2" d="M181.2,177.6c-0.5,8.2-0.1,16.4,1.3,24.4c0.7,4.1,1.7,8.3,2.9,12.3c0.6,2,1.3,3.9,2,5.9
		c0.4,0.9,0.7,1.9,1.1,2.8c0.5,1.3,0.7,2.3-0.4,3.4c-2.4,2.4-4.3,5.1-5.1,8.5s-0.5,6.8,0.7,10.2c1.5,4,2.7,7.7,3.1,11.9
		c0.4,4.2,0.2,8.4,0,12.6c-0.5,10-1,20.1-1.6,30.1c0,0.8,1.2,0.8,1.2,0c0.5-8.9,0.9-17.8,1.4-26.7c0.4-8.2,1.2-16.7-1.6-24.6
		c-1.3-3.7-3-7.1-2.5-11.2c0.5-3.7,2.3-7,5-9.6c1.1-1.1,1.9-2.2,1.4-3.9c-0.6-2-1.5-3.8-2.2-5.8c-1.4-4-2.5-8-3.4-12.1
		c-2-9.2-2.6-18.7-2-28.2C182.5,176.8,181.2,176.8,181.2,177.6L181.2,177.6L181.2,177.6z"/>
	<path class="st2" d="M176.3,176.8c-2.4,2.5-5,5.1-6,8.6c-1.1,3.7-0.2,7.6,0.5,11.4c1.5,8.6,2.2,17.3,2.1,26c0,4.4-0.3,8.7-0.7,13
		c-0.3,3.2-0.1,6,2.8,7.9c1.5,0.9,3.1,1.6,3.5,3.5c0.4,2.2,0.2,4.6,0.2,6.8c0.1,4.5,0.2,9,0.3,13.5c0.2,10.1,0.4,20.1,0.6,30.2
		c0,0.8,1.3,0.8,1.2,0c-0.2-8.7-0.4-17.5-0.5-26.2c-0.1-4.3-0.2-8.7-0.3-13c0-2.2-0.1-4.5-0.1-6.7c0-1.8,0.2-4-0.4-5.7
		c-1.1-3-5.2-3-6-6.2c-0.4-1.8-0.1-3.6,0.1-5.4c0.2-2.2,0.3-4.3,0.4-6.5c0.4-8.5,0-16.9-1.1-25.3c-0.3-2.2-0.6-4.4-1-6.6
		s-0.9-4.5-0.9-6.9c0-4.8,3-8.2,6.2-11.4C177.7,177.1,176.8,176.2,176.3,176.8L176.3,176.8L176.3,176.8z"/>
	<path class="st2" d="M169.2,178.6c-0.8,3.2-2,6.2-3,9.3s-1.7,6.2-2.3,9.4c-1.1,6.3-1.5,12.7-1.4,19.1s0.6,13,1.2,19.5
		c0.3,3.4,0.7,6.9,1.1,10.3c0.2,1.6,0.4,3.3,0.6,4.9s0.3,3.3,0.7,4.9c0.4,1.4,1.2,2,2.1,3c1.4,1.5,0.6,4,0.3,5.8
		c-0.5,3.9-1,7.9-1.5,11.8c-0.1,0.8,1.1,0.8,1.2,0c0.4-3.4,0.9-6.9,1.3-10.3c0.3-2.6,1.5-6-0.5-8.2c-0.4-0.5-1-0.9-1.4-1.5
		c-0.4-0.7-0.5-1.5-0.6-2.3c-0.3-1.8-0.5-3.6-0.7-5.5c-0.4-3.4-0.8-6.7-1.2-10.1c-1.4-12.9-2.4-26-0.6-38.9c0.5-3.5,1.2-7,2.2-10.4
		c1.1-3.6,2.5-7,3.4-10.7C170.6,178.1,169.4,177.8,169.2,178.6L169.2,178.6L169.2,178.6z"/>
</g>
<g>
	<path class="st2" d="M309.1,156c-8,6.5-5,17.8-4.4,26.5c0.4,5-0.2,9.8-3,14c-1.1,1.7-2.3,3.5-2.4,5.6c-0.1,2,0.9,3.7,2,5.2
		c1.3,1.9,2.7,3.6,3.4,5.9s0.7,4.7,0.6,7c-0.4,4.8-2.1,9.7-0.8,14.5c1.3,4.8,4.2,8.9,4.8,13.9s-0.6,10.5-2.2,15.4
		c-0.9,2.8-2,5.5-3,8.3c-0.9,2.5-2,5.1-1.6,7.8c0.3,2.1,1.5,3.9,3.3,5.1c0.9,0.6,1.8,0.9,2.9,1.1c0.8,0.1,2.6,0.3,2.5,1.4
		c-0.1,0.8,1.2,0.8,1.2,0c0.2-1.5-1.3-2.2-2.6-2.5c-2.1-0.5-3.9-0.9-5.2-2.9c-1.5-2.3-1-5.1-0.1-7.6s1.8-4.8,2.6-7.2
		c1.7-4.7,3.2-9.6,3.5-14.6c0.3-5-1-9-2.9-13.4c-1-2.2-2-4.5-2.4-6.9c-0.4-2.7,0.2-5.4,0.6-8c0.7-4.3,1.2-8.9-0.5-13.1
		c-1.5-3.9-6.4-7.2-4.4-11.7c0.9-2,2.4-3.7,3.4-5.8s1.3-4.1,1.5-6.3c0.9-9.9-5.3-23.7,4-31.2C310.6,156.4,309.7,155.5,309.1,156
		L309.1,156L309.1,156z"/>
	<path class="st2" d="M304.5,160.3c-3,3-4.8,7.1-4.7,11.3c0.1,2.4,0.7,4.7,0.8,7.1c0.1,2.8-0.9,4.7-2.6,6.7
		c-1.3,1.5-2.6,3.1-2.8,5.1c-0.3,2.3,1.1,3.6,2.5,5.2c3.4,3.8,3.8,8.8,2.2,13.5c-0.9,2.5-1.8,4.9-2.2,7.5c-0.4,2.4-0.4,4.9-0.1,7.3
		c0.5,5,2,9.8,3.6,14.5c0.8,2.4,1.7,4.8,2.5,7.2s1.9,5.2,1.9,7.9c0.1,2.5-2,4.4-2.7,6.7c-0.7,2.1-0.8,4.3-0.7,6.5
		c0.2,2.7,0.8,5.3,1.3,7.9c0.6,3,1,5.9,0.7,9c-0.3,4.9-1.1,10.6,3,14.3c0.6,0.5,1.5-0.3,0.9-0.9c-3.8-3.4-2.9-8.9-2.6-13.4
		c0.3-5-1.1-9.6-1.8-14.6c-0.4-2.4-0.5-4.8,0-7.1s2-4.1,2.8-6.3c0.8-2.2,0-4.5-0.5-6.5c-0.6-2.4-1.4-4.7-2.2-7.1
		c-3.2-9.3-7.2-19.5-3.8-29.3c0.8-2.2,1.8-4.4,2.1-6.8c0.3-2,0.1-4-0.5-5.9s-1.5-3.6-2.8-5.1c-0.8-0.9-1.8-1.6-2.2-2.8
		c-0.5-1.3,0-2.6,0.7-3.8c1.2-2,3.1-3.5,4-5.6s0.6-4.7,0.2-7c-0.4-2.7-0.7-5.2-0.1-7.9s2-4.8,3.9-6.7
		C305.9,160.6,305,159.7,304.5,160.3L304.5,160.3L304.5,160.3z"/>
	<path class="st1" d="M313.9,158.5c3.2,7.4,4,15.8,2.1,23.6c-0.9,3.9-2.6,7.6-2.2,11.6c0.4,3.7,2,7,3.5,10.3
		c3.2,7.5,6,15.9,3.8,24.1c-1.1,4-3,7.7-4.6,11.5c-0.8,1.9-1.5,3.9-2.3,5.8s-1.6,4-2,6.1c-0.8,4.2,2.3,7.5,3.6,11.3
		c1.5,4.3,1.8,8.9,0.9,13.3c-0.2,0.8,1,1.1,1.2,0.3c0.7-3.7,0.7-7.4-0.1-11.1c-0.4-1.8-1-3.6-1.8-5.3s-2-3.4-2.6-5.3
		c-0.6-2.2,0.3-4.4,1-6.5s1.5-4.1,2.3-6.1c1.5-3.9,3.5-7.7,4.9-11.7c2.7-7.8,1.2-15.8-1.7-23.3c-1.4-3.8-3.5-7.3-4.4-11.2
		c-1.1-4.5,0.4-8.4,1.5-12.6c2.2-8.4,1.5-17.4-2-25.4C314.6,157.2,313.6,157.8,313.9,158.5L313.9,158.5L313.9,158.5z"/>
	<path class="st2" d="M311,158.4c3.3,2.1,2.1,6.8,0.6,9.7c-1.8,3.4-4.2,6.6-3.8,10.6s2.9,7.8,3.6,11.9c0.5,2.4,0.4,4.9-0.2,7.3
		c-0.5,2.1-1.2,4.1-1.6,6.3c-0.8,3.9,0.1,7.5,1.6,11.1c1.6,3.9,3.6,7.6,4,11.8c0.4,4.7-0.8,9.5-1.5,14.2c-0.4,2.4-0.8,4.8-1.2,7.2
		c-0.4,2.1-0.8,4.3-0.9,6.5c-0.1,1.2,0,2.4,0.3,3.6c0.4,1.5,0.8,2.7-0.1,4c-1.2,1.6-2.1,2.9-2.4,5c-0.5,4.2,1.3,8.4,0.2,12.6
		c-0.2,0.8,1,1.1,1.2,0.3c1-3.8-0.3-7.6-0.3-11.4c0-2.2,0.7-3.7,2-5.4s1.2-3.1,0.7-5c-0.7-2.5-0.3-4.9,0.1-7.5s0.8-5,1.2-7.4
		c0.8-4.6,1.8-9.4,2-14.1c0.1-4.3-1.1-8-2.9-11.9s-3.7-8.1-3-12.6c0.4-2.2,1.1-4.3,1.6-6.5s0.8-4.4,0.5-6.7c-0.5-4.4-3-8.1-3.8-12.4
		c-0.9-5.1,2.9-8.5,4.5-13c1.1-3.1,1-7.3-2-9.2C311,156.9,310.4,158,311,158.4L311,158.4L311,158.4z"/>
	<path class="st2" d="M309.1,160.8c-0.2,8.7-0.4,17.4-0.5,26.1l-0.3,13.1c0,2.1-0.1,4.3-0.1,6.5c0,2-0.1,4.1,0.3,6.1
		c0.4,1.8,1.4,3.5,2,5.2c0.7,1.8,0.9,3.8,0.6,5.7c-0.5,4-2.6,7.5-4.4,11c-1.1,2.2-3,5.4-1.4,7.9c0.8,1.2,2.1,1.3,3.3,1.9
		s0.7,1.8,0.5,2.9c-0.3,1.1-0.6,2.2-0.9,3.4c-0.6,2.4-1.2,4.8-1.8,7.2c-0.5,2.1-0.8,4.7-2,6.5c-1,1.7-2.8,2.8-3.9,4.5
		s-1.8,3.5-2,5.5c-0.1,0.8,1.1,1.1,1.2,0.3c0.3-1.9,0.9-3.8,2-5.4c1-1.4,2.4-2.5,3.4-3.9c1.1-1.5,1.4-3.4,1.9-5.2
		c0.5-2.1,1.1-4.2,1.6-6.2s1.1-4.3,1.6-6.5c0.3-1.3,0.8-2.8-0.4-3.8c-1-0.9-3-0.7-3.7-2.1c-0.8-1.5,0.1-3.4,0.7-4.8
		c1.6-3.4,3.6-6.7,4.7-10.3s0.9-6.7-0.5-10c-0.9-2.1-1.7-3.9-1.8-6.2c-0.1-2.1,0-4.2,0-6.3l0.3-13.1c0.2-9.9,0.4-19.9,0.6-29.8
		C310.3,160,309.1,160,309.1,160.8L309.1,160.8L309.1,160.8z"/>
	<path class="st1" d="M300.7,163.4c-2.6,4.2-3.2,9.4-1.6,14.1c0.9,2.6,2.2,5.1,2.4,7.9s-1.4,4.5-2.9,6.6c-3.2,4.6-1.6,9.7-1.1,14.9
		c0.6,5.8,0.2,11.8-0.4,17.6c-0.3,3.3-1.3,6.2-2.4,9.3c-0.8,2.4-1.3,5,0.1,7.3c0.4,0.7,1.5,0.1,1.1-0.6c-1.5-2.4-0.4-5.2,0.5-7.6
		s1.6-4.7,1.9-7.3c0.7-5.5,1-11.3,0.6-16.9c-0.3-5.1-2.6-11,0.4-15.7c1.2-1.8,2.8-3.4,3.2-5.6c0.5-2.3-0.1-4.6-0.9-6.8
		c-1-2.8-2.2-5.4-2.2-8.4s0.8-5.9,2.3-8.4C302.2,163.4,301.1,162.7,300.7,163.4L300.7,163.4L300.7,163.4z"/>
	<path class="st2" d="M316.8,159.5c1.1,3.8,1.8,7.7,1.9,11.7s-0.7,8-0.8,12s1.1,7.4,1.8,11.2s0.6,7.9,0.8,11.8s1,7.6,1.6,11.4
		c0.6,4.2,0.2,8.3-0.4,12.5c-0.5,3.7-1,7.4-0.9,11.2c0.1,4.1,0.4,8.2-0.2,12.3c-0.5,3.9-1.1,7.6,1.1,11.1c1,1.6,2.3,3,2.8,4.8
		c0.5,1.6,0.3,3.6-1.3,4.4c-0.7,0.4-0.1,1.5,0.6,1.1c2.3-1.2,2.5-4.2,1.7-6.4c-0.6-1.5-1.6-2.7-2.4-4c-1.1-1.7-1.8-3.5-1.8-5.6
		c0-2,0.4-3.9,0.6-5.8s0.3-4,0.3-6c-0.1-4.2-0.3-8.4,0.1-12.6s1.2-8.1,1.3-12.2s-0.9-7.9-1.5-11.8c-0.6-4.1-0.4-8.3-0.7-12.5
		s-1.7-7.9-2.1-11.9c-0.5-4.6,0.6-9.2,0.7-13.8s-0.6-8.9-1.9-13.2C317.7,158.4,316.5,158.7,316.8,159.5L316.8,159.5L316.8,159.5z"/>
	<path class="st2" d="M313.8,159c-0.5,8.2-0.1,16.4,1.3,24.4c0.7,4.1,1.7,8.3,2.9,12.3c0.6,2,1.3,3.9,2,5.9c0.4,0.9,0.7,1.9,1.1,2.8
		c0.5,1.3,0.7,2.3-0.4,3.4c-2.4,2.4-4.3,5.1-5.1,8.5s-0.5,6.8,0.7,10.2c1.5,4,2.7,7.7,3.1,11.9s0.2,8.4,0,12.6
		c-0.5,10-1,20.1-1.6,30.1c0,0.8,1.2,0.8,1.2,0c0.5-8.9,0.9-17.8,1.4-26.7c0.4-8.2,1.2-16.7-1.6-24.6c-1.3-3.7-3-7.1-2.5-11.2
		c0.5-3.7,2.3-7,5-9.6c1.1-1.1,1.9-2.2,1.4-3.9c-0.6-2-1.5-3.8-2.2-5.8c-1.4-4-2.5-8-3.4-12.1c-2-9.2-2.6-18.7-2-28.2
		C315.1,158.2,313.9,158.2,313.8,159L313.8,159L313.8,159z"/>
	<path class="st2" d="M308.9,158.1c-2.4,2.5-5,5.1-6,8.6c-1.1,3.7-0.2,7.6,0.5,11.4c1.5,8.6,2.2,17.3,2.1,26c0,4.4-0.3,8.7-0.7,13
		c-0.3,3.2-0.1,6,2.8,7.9c1.5,0.9,3.1,1.6,3.5,3.5c0.4,2.2,0.2,4.6,0.2,6.8c0.1,4.5,0.2,9,0.3,13.5c0.2,10.1,0.4,20.1,0.6,30.2
		c0,0.8,1.3,0.8,1.2,0c-0.2-8.7-0.4-17.5-0.5-26.2c-0.1-4.3-0.2-8.7-0.3-13c0-2.2-0.1-4.5-0.1-6.7c0-1.8,0.2-4-0.4-5.7
		c-1.1-3-5.2-3-6-6.2c-0.4-1.8,0-3.6,0.1-5.4c0.2-2.2,0.3-4.3,0.4-6.5c0.4-8.5,0-16.9-1.1-25.3c-0.3-2.2-0.6-4.4-1-6.6
		s-0.9-4.5-0.9-6.9c0-4.8,3-8.2,6.1-11.4C310.4,158.4,309.5,157.5,308.9,158.1L308.9,158.1L308.9,158.1z"/>
	<path class="st2" d="M301.9,159.9c-0.8,3.2-2,6.2-3,9.3s-1.7,6.2-2.3,9.4c-1.1,6.3-1.5,12.7-1.4,19.1s0.6,13,1.2,19.5
		c0.3,3.4,0.7,6.9,1.1,10.3c0.2,1.6,0.4,3.3,0.6,4.9s0.3,3.3,0.7,4.9c0.4,1.4,1.2,2,2.1,3c1.4,1.5,0.6,4,0.3,5.8
		c-0.5,3.9-1,7.9-1.5,11.8c-0.1,0.8,1.1,0.8,1.2,0c0.4-3.4,0.9-6.9,1.3-10.3c0.3-2.6,1.5-6-0.5-8.2c-0.5-0.5-1-0.9-1.4-1.5
		c-0.4-0.7-0.5-1.5-0.6-2.3c-0.3-1.8-0.5-3.6-0.7-5.5c-0.4-3.4-0.8-6.7-1.2-10.1c-1.4-12.9-2.4-26-0.5-38.9c0.5-3.5,1.2-7,2.2-10.4
		c1.1-3.6,2.5-7,3.4-10.7C303.3,159.5,302.1,159.2,301.9,159.9L301.9,159.9L301.9,159.9z"/>
</g>
<path class="st2" d="M338.1,182.4c0.7-1.3,2.3-1.3,3.6-1.5c1.4-0.2,2.7-1.3,4.1-1c1.3,0.3,2.3,1.2,3.5,1.7c0.5,0.3,3.8,1,2.9,2.1
	c-0.5,0.6,0.4,1.5,0.9,0.9c1.1-1.2,0.1-2.8-1.2-3.3c-0.9-0.4-1.9-0.6-2.7-1.1c-0.8-0.4-1.5-0.9-2.3-1.2s-1.6-0.4-2.4-0.2
	c-1,0.2-1.8,0.7-2.8,0.9c-1.7,0.4-3.7,0.4-4.6,2.1C336.6,182.5,337.7,183.1,338.1,182.4L338.1,182.4L338.1,182.4z"/>
<path class="st2" d="M321.9,184.8c0.5-0.1,0.9-0.2,1.4-0.2c0.4,0,0.8,0.1,1.2,0.1s0.7-0.1,1.1-0.2c0.4-0.1,0.9-0.1,1.3-0.1
	c1.5,0,3.1-0.1,4.4,0.9c0.6,0.5,1.3-0.6,0.6-1.1c-1.4-1-3.2-1.1-4.9-1c-0.5,0-0.9,0-1.3,0.1c-0.4,0.1-0.8,0.2-1.3,0.2
	c-0.5,0-0.9-0.1-1.4-0.1c-0.5,0-1,0.1-1.4,0.2C320.8,183.8,321.1,185,321.9,184.8L321.9,184.8L321.9,184.8z"/>
<path class="st2" d="M302.5,161c1.2-2.2,4-3.3,6.4-3.7c1.7-0.3,3.1,0.5,4.6,1.1c1.3,0.6,2.8,1,3.7,2.1c0.5,0.6,1.4-0.3,0.9-0.9
	c-1.1-1.2-2.8-1.7-4.3-2.4c-1.6-0.7-3.2-1.5-5-1.2c-2.8,0.5-6,1.8-7.4,4.4C301,161.1,302.1,161.8,302.5,161L302.5,161L302.5,161z"/>
<path class="st2" d="M288.9,166c-4.1-2.6-9.1-2.3-13.8-2c-0.8,0-0.8,1.3,0,1.2c4.5-0.3,9.2-0.6,13.2,1.9
	C289,167.5,289.6,166.4,288.9,166L288.9,166L288.9,166z"/>
<path class="st2" d="M256.1,163.4c2.2-2.2,5.4-3.6,8.5-2.9c1.4,0.3,2.8,1,3.8,2.1c0.9,1,1.5,2.2,2.8,2.7c0.7,0.3,1.1-0.9,0.3-1.2
	s-1.2-1.1-1.7-1.7s-1-1.1-1.6-1.6c-1.2-1-2.7-1.5-4.3-1.7c-3.3-0.4-6.5,1.1-8.9,3.4C254.6,163,255.5,163.9,256.1,163.4L256.1,163.4
	L256.1,163.4z"/>
<path class="st2" d="M234.8,136.6c1.9-1.6,4.2-2.9,6.6-3.6s5.3-1,7.1,1c0.5,0.6,1.4-0.3,0.9-0.9c-2-2.2-5.1-2.2-7.8-1.5
	c-2.8,0.8-5.4,2.2-7.6,4.1C233.3,136.3,234.2,137.2,234.8,136.6L234.8,136.6L234.8,136.6z"/>
<path class="st2" d="M219.2,157.2c0.7-1.3,1.4-2.6,2.7-3.2s3.1-1,4.7-1.2c0.7-0.1,1.5-0.2,2.1-0.1s1.1,0.7,1.6,1.1
	c0.7,0.5,3.7,1,3,2.3c-0.4,0.7,0.7,1.3,1.1,0.6c0.9-1.5-0.6-2.8-1.9-3.4c-0.5-0.2-1-0.3-1.4-0.6c-0.4-0.2-0.6-0.5-1-0.8
	c-0.7-0.5-1.5-0.6-2.4-0.5c-2,0.1-4.1,0.5-6,1.3s-2.8,2.2-3.7,3.9C217.7,157.3,218.8,157.9,219.2,157.2L219.2,157.2L219.2,157.2z"/>
<path class="st2" d="M207.6,158.4c-1.1-0.2-2.2-0.2-3.4-0.2c-1,0-2.2,0-3.2,0.3s-2,1-2.9,1.5c-1,0.6-2.1,1.1-3.1,1.7
	c-0.7,0.4-0.1,1.5,0.6,1.1c0.9-0.5,1.8-1,2.7-1.5s1.8-1.1,2.8-1.5s2-0.3,3-0.3c1,0,2.1,0,3.1,0.2
	C208.1,159.7,208.4,158.5,207.6,158.4L207.6,158.4L207.6,158.4z"/>
<path class="st2" d="M170.3,179.9c-0.5-1.4,1.4-2.4,2.4-2.9c1.2-0.8,2.6-1.4,4.1-1.3c1.5,0.1,2.9,0.9,4.2,1.4c0.7,0.3,1.3,0.6,2,0.9
	c0.6,0.3,1.3,0.5,1.7,1.1c0.5,0.6,1.5,0,1.1-0.6c-1-1.4-3-1.9-4.6-2.6c-1.7-0.7-3.4-1.6-5.2-1.4s-3.4,1-4.9,2
	c-1.2,0.8-2.7,2.1-2.1,3.7C169.4,180.9,170.6,180.6,170.3,179.9L170.3,179.9L170.3,179.9z"/>
<path class="st2" d="M177.6,179.7c0.3-1.1,0.3-2.2,0.1-3.4c0-0.1-0.2-0.3-0.3-0.4c-0.1-0.1-0.3-0.1-0.5-0.1
	c-0.4,0.1-0.5,0.4-0.4,0.8c0-0.1,0,0.1,0,0.1c0,0.1,0,0.1,0,0.2c0,0.1,0,0.2,0,0.4c0,0.2,0,0.5,0,0.7c0,0.1,0,0.2,0,0.4
	c0,0.1,0,0.1,0,0.2c0,0.1,0-0.1,0,0.1c0,0.2-0.1,0.5-0.1,0.7c-0.1,0.3,0.1,0.7,0.4,0.8S177.5,180.1,177.6,179.7L177.6,179.7
	L177.6,179.7z"/>
<path class="st2" d="M168.4,225.4c0.9-0.6,2.1,0,3.1,0c1.2,0,2.3-0.4,3.5-0.3s2.4,0.4,3.6,0.7c1,0.3,2,0.6,2.7,1.5
	c0.5,0.6,1.4-0.3,0.9-0.9c-0.8-0.9-1.8-1.3-2.9-1.7c-1.3-0.4-2.7-0.8-4-0.9s-2.7,0.5-4.1,0.3c-1.1-0.1-2.3-0.5-3.4,0.2
	C167.1,224.8,167.7,225.9,168.4,225.4L168.4,225.4L168.4,225.4z"/>
<path class="st2" d="M266.8,363.4c1.1-2.7,0.1-5.6,0.8-8.4s2.5-5.1,3.1-8s0.3-5.5,0.1-8.4s0.4-6.4,3.4-7.7c0.4-0.2,0.1-0.8-0.4-0.6
	c-5.6,2.5-3.1,10.2-3.6,14.9c-0.3,3.3-2,5.8-3.1,8.8c-0.5,1.4-0.6,2.8-0.6,4.3c0,1.7,0.2,3.3-0.5,4.9
	C265.9,363.7,266.6,363.9,266.8,363.4L266.8,363.4L266.8,363.4z"/>
<path class="st2" d="M280.2,338.5c2.1-3.1,3.8-6.5,5.1-10c0.7-1.8,1.3-3.7,2.7-5c1.2-1.1,2.7-1.8,4.1-2.4c2.8-1.2,5.3-2.4,6.9-5.1
	s2.1-5.9,2.5-8.9c0.1-0.5-0.7-0.7-0.7-0.2c-0.4,3.1-0.9,6.5-2.7,9.2c-1.9,2.9-5.1,3.7-8,5.1c-1.2,0.6-2.4,1.4-3.3,2.4
	c-1,1.1-1.5,2.6-2,3.9c-1.4,3.7-3.2,7.3-5.4,10.6C279.3,338.5,279.9,338.9,280.2,338.5L280.2,338.5L280.2,338.5z"/>
<path class="st2" d="M279.3,357.2c-0.8,2.7,0.2,5.4,1.2,7.8c1.1,2.6,2.4,5.6,1.2,8.4c-0.2,0.4,0.5,0.8,0.6,0.4
	c2.6-5.7-4-10.7-2.3-16.4C280.2,357,279.4,356.8,279.3,357.2L279.3,357.2L279.3,357.2z"/>
</svg>
