<?xml version="1.0" encoding="utf-8"?>
<!-- Generator: Adobe Illustrator 28.0.0, SVG Export Plug-In . SVG Version: 6.00 Build 0)  -->
<svg version="1.1" id="Calque_1" xmlns="http://www.w3.org/2000/svg" xmlns:xlink="http://www.w3.org/1999/xlink" x="0px" y="0px"
	 viewBox="0 0 512 512" style="enable-background:new 0 0 512 512;" xml:space="preserve">
<style type="text/css">
	.st0{fill:#4E4D4D;}
</style>
<path class="st0" d="M443.2,319.8c0.7-0.7-3.2-4.8-8.5-12.3c-3.8-5.4-3.6-5.9-5.9-8.4c-3.3-3.6-6.7-5.8-9.1-7.3
	c-5.1-3.2-5.7-2.5-9.9-5.5c-2.4-1.7-5.3-3.7-8-7.3c-3-4.1-2.4-5.7-5.2-8.1c-2.4-2-3.9-1.8-7.8-3.5c-2.5-1.1-4.9-2.9-9.4-6.4
	c-1.9-1.5-3.3-2.6-15.6-13.6c-4.1-3.6-6.1-5.5-6.8-7.6c-0.3-0.9-0.6-2.6-2.1-3.6c-1.6-1.2-3.5-0.9-3.8-0.9c-2.6,0.4-4.2,2.7-5.6,4.6
	c-3.8,5-3.5,2.2-15.5,13c-1,0.9-2.9,2.7-5.4,2.5c-1.5-0.1-2.6-1-3.4-1.6c-4.3-3.4-7.7-6.8-8.5-7.6c-4.9-4.8-5.7-3.5-8.6-7
	c-2.6-3.1-2-4.3-4.8-9.1c-2.9-5-6-8.3-8.6-11.1c-3-3.2-3-2.6-10.4-9.4c-4.9-4.5-7.4-6.7-9.3-8.9c-2.5-2.8-5.5-5.1-7.6-8.2
	c-1-1.4-2-3.2-3.8-3.4c-1.3-0.1-2.5,0.8-3.5,1.8c-3.4,3.2-4.5,5.4-6.5,7.8c-2.2,2.6-4.3,4.1-8.6,7.2c-3.1,2.2-4.6,3.3-6.4,4
	c-2.1,0.9-3.4,1.1-5,2.5c-1.4,1.2-1.3,2-2.7,4c-1.8,2.6-2.6,2.5-5.6,5.7c-3.4,3.7-2.6,4.2-4.6,5.6c-2.8,2-4.2,0.8-7.8,3
	c-2.5,1.5-4.1,3.5-4.7,4.2c-1.9,2.4-2.4,4.2-5.1,6.9c-1.5,1.5-2.1,1.7-2.6,1.7c-1.5,0-2.2-1.8-4.6-3.5c-1.8-1.3-2.2-0.9-4.2-2
	c-2.7-1.6-3.4-3.3-9.3-9.5c-0.8-0.9-1.6-1.7-2.7-1.7c-1.1,0-1.8,1-3.8,3c-1.6,1.7-2.9,2.9-3.3,3.3c-3.9,3.6-5.6,3.1-7.3,5.9
	c-1,1.7-0.4,1.9-1.7,4c-1.4,2.3-3,3.7-4.3,4.8c-0.7,0.6-1,0.8-5.9,3.9c-3.9,2.5-4.6,2.9-5.5,4c-1.4,1.7-1,2.2-2.4,4
	c-1.2,1.6-2.6,2.5-5.5,4.3c-4.8,3.1-5.6,2.7-6.9,4.4c-1.4,1.9-0.9,2.7-2.6,4.8c-0.8,0.9-2.1,2.6-4.2,3.3c-2.8,0.9-3.8-0.9-6.8-0.5
	c-2.4,0.3-4.2,2.1-7.8,5.6c-2.6,2.6-3,3.6-5.5,5.4c-2,1.4-2.5,1.3-3.9,2.5c-2.6,2.1-3.1,4.4-4.3,6.5c-1,1.8-4.4,4-11.2,8.5
	c-3.9,2.5-7.6,5.2-11.5,7.7c-1.4,0.9-3,2-2.9,2.2c0.2,0.3,3.1-0.8,5.4-1.8c3.4-1.6,5.9-3.4,6.4-3.8c3.2-2.4,4.6-4.1,5.1-3.8
	c0.6,0.4-0.7,3.2-0.8,3.4c-1.4,3-3.5,4.5-3.4,4.7c0.1,0.1,2.6-1,4.4-3.5c1.6-2.4,1.2-3.9,3.1-5.9c1.1-1.1,2.1-1.5,2.9-2
	c3.5-1.8,4.6-4.2,8.4-8.4c5.2-5.7,9.9-8.8,11.1-9.5c4.2-2.7,6.8-3.3,8.6-3.5c1.9-0.2,4.9-0.6,7.4,1.2c1.8,1.3,2.5,3.1,3,2.9
	c0.4-0.2,0.4-1.8-0.3-3.1c-0.9-1.8-2.3-1.8-2.5-3c-0.3-1.7,2.3-3.5,2.7-3.8c1.7-1.2,2.6-0.9,3.8-2.2c0.6-0.8,0.7-1.3,1.4-1.7
	c1-0.6,1.9-0.2,2.7-0.1c0.8,0,2.4-0.2,6.5-6c3.5-4.8,3.1-5.6,5.1-7c1.8-1.3,2.4-0.8,5.5-2.6c1.5-0.9,3.2-1.9,4.7-3.6
	c1.6-1.9,1.3-2.6,2.9-5.7c1.9-3.8,4.1-6.1,6.3-8.4c1.9-2,3.9-4.1,4.8-3.6c0.8,0.4-0.1,2.5,0.3,6.3c0.3,2.7,0.9,2.7,1.3,5.4
	c0.2,1.4,1,5.9-1,9.5c-0.7,1.4-1.5,1.9-5.4,4.7c-9.1,6.6-8.9,6.4-10.4,7.6c-4.7,3.8-4.2,4.4-8.2,7.3c-1.5,1-3,2-4.8,3.9
	c-1.8,1.8-1.9,2.5-3.4,4.2c-2.4,2.6-3.4,2.4-6.1,4.7c-2.4,2-1.7,2.2-6.1,7.4c-3.1,3.6-5.4,5.9-6,6.4c-2.4,2.3-4.4,3.9-4.8,4.2
	c-0.8,0.6-3.3,2.5-7,4.8c-3.5,2.1-5.1,2.8-5,3.1c0.2,0.5,3.8-0.1,6.8-1c2-0.7,5.7-1.9,9-5c1.4-1.2,1.4-1.6,3-3c1-0.9,4.7-4,6-3.1
	c0.4,0.3,0.4,1,0,4c-0.8,5.4-1.3,7.6-1,7.7c0.3,0.1,1.6-2,2.4-4.6c1-3.7-0.2-4.7,0.9-7.4c0.7-1.8,2.2-3.9,4.3-5.2
	c1-0.6,1.9-1,3.3-2.2c1.2-1.1,1.3-1.6,2.1-2.4c1.6-1.7,2.9-1.2,6-2.5c2.9-1.2,2.9-2.1,7-4c3.2-1.5,3.8-1.2,4-1
	c0.6,0.5-0.2,1.8-0.9,5.1c-0.6,2.6-0.3,2.6-0.6,3.9c-1.2,4.4-5.1,6.5-4.8,6.9c0.2,0.3,2.7-0.5,4.6-2.5c1.4-1.5,1.4-2.5,3.5-6
	c1-1.7,1.1-1.7,2.1-3.3c2.4-3.9,2.4-5.4,3.9-8.1c1.8-3.3,2.6-2.5,6.6-7.7c3-3.8,2.4-4,5.6-8c0.4-0.5,3.3-4,8-7
	c1.6-1.1,2.8-1.6,3.4-1.2c1.1,0.8-0.7,4.7-0.1,5c0.5,0.3,2.6-2.9,3.5-4.4c0,0,4.1-6.4,8.1-12.4c3.6-5.4,4.8-6.5,5.9-7.3
	c2.5-1.9,5.2-2.9,6.6-3.3c4.2-1.2,7.7-1.2,7.7-1.2c1.3,0,2.5,0.1,4-0.4c1.6-0.5,1.6-1.1,3.1-1.6c2.1-0.7,4-0.3,5.2-0.1
	c2.2,0.4,3.3,1.1,3.4,0.9c0.2-0.3-2.6-2.3-5.7-3.6c-1.3-0.6-2.4-1-3.9-1.3c-2.7-0.5-3.9,0.1-4.3-0.5c-0.6-0.9,1.5-3.1,3.8-5.6
	c1.7-1.8,2.6-2.7,3.9-3.4c1.7-0.8,2.4-0.5,3.9-1.4c1.5-0.9,1.8-1.8,3-3.1c1.4-1.5,1.9-1.3,5.2-3.5c4.4-2.9,6.5-4.4,8.4-6.3
	c0.9-1,1.7-2,2.6-1.8c0.7,0.1,0.9,1,2.1,3.4c0.7,1.3,1.4,2.7,2.4,4.2c1.4,2,1.7,1.8,2.5,3.1c1,1.7,0.5,2.3,1.3,5.1
	c0.5,1.6,1.1,3.7,2.6,5.6c1.2,1.5,1.6,1.2,3.4,3.1c1.5,1.6,2.4,2.6,2.9,3.9c1.2,3.4-1.4,5.1,0,8c0.8,1.6,1.9,1.6,2.7,3.8
	c0.4,1.1,0.4,1.7,1,2.6c0.9,1.2,1.9,1.6,2.6,2.1c1.2,0.8,2,2.2,2.9,8.9c0.8,6.4,0.3,6.3,1,9.5c0.5,2.1,1.1,4.8,2.9,7.7
	c1.7,2.9,3.4,4.1,4.2,6.8c0.1,0.4,0.3,1,0.8,1.4c1.2,1,2.8-0.1,3.9,0.8c0.6,0.5,0.9,1.5,0.8,2.2c-0.2,1.3-1.4,1.4-2,3
	c-0.4,1,0,1.2-0.3,2.1c-0.5,1.6-2.5,3-4.4,3c-1.4,0-1.3-0.7-4.7-2.4c-2.3-1.1-3.1-1.1-4.2-2.2c-1.1-1.1-0.8-1.5-1.8-2.5
	c-1.5-1.5-2.6-1.1-4.8-2.4c-0.1-0.1-2.5-1.4-4.2-3.8c-1.5-2.1-0.9-2.8-2.1-5.5c-1.1-2.5-3-4.3-6.6-7.8c-1.8-1.7-2.7-2.6-3.9-3.4
	c-3-1.9-3.9-1.2-6-2.9c-2.1-1.7-1.3-2.5-4.4-5.7c-1.3-1.3-2-1.7-2.9-3.1c-1.1-1.7-0.9-2.3-1.8-3.4c-1.1-1.3-3-2.3-4.8-2.4
	c-2.3,0-4.1,1.7-7.6,5.1c-3.1,3-2.3,3-3.9,4.2c-3.6,2.7-5.7,1.4-9.4,4.3c-1.2,1-1.7,1.7-3.5,2.9c-1.4,0.9-2,1.1-3.6,2.2
	c-0.4,0.3-1.9,1.2-3,2.2c-2.4,2-2.3,3.1-4.6,5.7c-2.3,2.7-2.6,1.9-5.4,5c-2,2.2-2.1,3-4.2,5c-1,0.9-2.1,2-3.8,3
	c-3.5,2.1-4.9,1.2-7.3,3.3c-0.3,0.2-1,1.2-2.6,3.3c-1.7,2.2-2.1,2.8-3.6,4.8c-1.6,2-2.4,3.1-3,3.5c-2.1,1.7-3.1,1-4.8,2.6
	c-1.3,1.2-1,1.7-2.7,3.5c-1.1,1.1-2.1,1.9-2.7,2.4c-1.3,1-2.3,1.4-4.6,2.6c-5.3,2.7-5.8,3.1-5.7,3.4c0.1,0.7,3.3,0.7,4.3,0.6
	c1.8,0,3.1-0.3,3.9-0.5c2.7-0.7,4.9-1.9,4.8-2.1c0-0.1-0.8,0.2-0.9,0c-0.2-0.4,2.2-1.8,5.2-4.6c1.8-1.7,1.7-1.9,2.6-2.4
	c1.8-0.9,3.1-0.5,4.3-1.7c0.7-0.7,0.9-1.3,1.2-2.1c1-2.3,2.6-3.6,5.9-6.3c3.1-2.5,5.2-4.3,6.1-3.6c0.4,0.2,0.4,0.8-0.6,6
	c-0.8,3.7-1.1,5.5-1.7,7c-0.9,2.5-1.3,2.4-2.6,5.5c-1.8,4-2.8,8.1-2.4,8.2c0.3,0.1,0.7-1.5,2.6-3.4c1.7-1.7,2.3-1.6,3.1-2.9
	c0.9-1.5,0.4-2.2,1.2-4c0.8-1.7,1.6-1.6,2.7-3.3c1.4-2,1.8-4.4,2.5-9.3c0.2-1.7,0.3-2.5,0.9-3.6c0.9-1.5,1.8-1.7,2.6-3.1
	c0.9-1.6,0.3-2.3,0.8-4.2c0.4-1.6,1.1-1.9,4.7-6c3.2-3.6,2.8-3.5,3.9-4.4c2.5-2.2,3.2-1.7,5.9-3.9c2.9-2.4,2.4-3.3,5-5.1
	c1.8-1.3,2-0.8,6.3-2.7c3.3-1.5,5.2-2.4,7.4-4.2c2.3-1.8,3-3,3.6-2.7c1,0.4,0.4,4-0.4,6.3c-0.9,2.7-2.5,4.6-3.1,5.4
	c-0.4,0.5-0.5,0.6-3.5,3.4c-2.2,2.1-3.3,3.1-3.5,3.4c-1.6,2-1.5,3.2-2.7,6.9c-1.6,4.5-2.2,3.8-3.6,8.1c-1.8,5.1-0.9,6-2.6,8
	c-0.9,1.1-2.3,2.1-2.9,4.2c-0.1,0.3-0.5,1.9,0,2.2c0.8,0.5,3.2-1.8,4.8-3.9c1.8-2.4,2.1-3.9,4.4-10.6c2.1-6.1,2.9-7.9,3.8-9.4
	c1-1.8,1.9-3.4,3.5-5.2c1.7-1.9,3.8-3.5,5.4-4.7c1.8-1.4,1.8-1.2,2.4-1.8c2.2-2.3,2-4.2,3.5-4.8c1.4-0.5,2.9,0.4,3.6,0.9
	c2.1,1.3,2.8,3.5,3,4c0.5,1.6,0.1,2,0.6,2.6c1.3,1.3,4-0.5,5.4,0.6c0.9,0.8,0.5,2.3,0.3,5.1c0,0-0.4,4.8,0.6,9.9
	c0.6,2.9,1.1,5.3,3,7.4c1.6,1.7,4,3.1,4.4,3.4c2.2,1.3,3,1.2,3.9,2.4c1.2,1.5,0.2,2.3,1.3,4.7c1,2.1,2,2.1,3,4.6
	c0.4,0.9,0.7,1.8,0.6,3c-0.1,1.7-1.1,2.8-2.6,4.6c-2.9,3.4-5.3,6.2-5,6.6c0.2,0.2,1.2-0.3,3.8-1.7c4.4-2.4,6.6-3.6,6.9-3.8
	c2-1.3,3.9-2.9,7.7-6.1c4.4-3.7,4.2-3.8,5.9-5c3.3-2.2,4-1.9,6.9-4c2.4-1.8,4.1-3.8,5.1-5c2.2-2.7,1.9-3.3,3.6-5.1
	c2.2-2.3,3-1.6,5.7-3.8c2.4-1.9,3.7-4,5.9-7.6c1.3-2.1,1.9-3.1,2.5-4.6c1.2-3.1,0.6-4.3,2-6.6c1.1-1.9,2.5-2.9,3.4-3.6
	c2.3-1.7,3.7-1.8,6.1-2.9c3-1.3,5-3.1,9-6.8c2-1.8,4-3.5,6-5.4c1.5-1.4,3.3-3.1,4.2-2.6c0.5,0.3,0.2,1.1,0.9,2.5
	c0.6,1.1,1.1,1.1,1.6,2c0.9,1.6-0.2,2.8,0.1,5c0.2,1.4,1,2.4,2.6,4.4c1.7,2.1,2.5,2.4,4.2,4.3c1.6,1.8,2,2.8,3.4,4.8
	c2.9,4.3,6.1,7,9.1,9.6c3.1,2.7,4.7,4,6.5,4.6c3.3,0.9,4.5-0.4,8,0.8c2.4,0.8,3.9,2.2,5.9,3.9c1.9,1.7,3.3,2.9,4.3,5
	c1.1,2.2,0.7,3.1,1.8,3.9c1.5,1.1,3.2,0,5.1,1.3c0.5,0.4,0.7,0.6,1.6,1.8c1.6,2.1,3,4,4,5.2c1.5,1.6,2.9,2.6,5,3.9
	c2,1.3,1.9,1,5.6,3.1c2.4,1.4,3.7,2.1,5.1,3.3c2,1.6,1.9,1.9,3,2.5c0.5,0.3,1.9,0.9,6.1,0.8c4.6-0.1,5.2-0.9,7.7-0.4
	C441.5,318.8,442.8,320.2,443.2,319.8L443.2,319.8z"/>
<path class="st0" d="M288.7,318.1c-0.3-0.3,0.7-1.5,2.2-4.7c1.3-2.7,1.4-3.5,2.5-4.4c1.1-1,2.3-1.3,3.1-1.6c2.3-0.7,5.2-2.3,11-5.6
	c4.6-2.6,5.7-3.7,6.1-4.2c2-2.1,1.5-2.8,3.3-4.4c2.3-2.2,3.6-1.5,7.4-4c0.6-0.4,0.3-0.2,3.8-3c4.4-3.4,4.1-3.1,4.8-3.8
	c3.2-2.9,2.7-4.1,5.6-6.4c1.6-1.3,3.2-2.6,5.2-2.5c0.5,0,1.7,0.2,5.1,2.9c2.9,2.3,3.2,3.1,6,5.5c2.7,2.3,4.1,3.4,5.6,3.9
	c2,0.6,4.6,0.7,7.3,0.8c1.2,0,2,0,3,0.4c1.5,0.5,2.3,1.4,3.6,2.6c0.1,0.1,2.2,1.9,4.4,3.3c2.4,1.4,5.4,2.6,7.2,3.3
	c1.3,0.5,2.1,0.8,2.7,1.6c0.9,1.2,0.6,2.2,1.7,3.1c0.7,0.6,1,0.3,2.2,0.8c1.4,0.6,1.8,1.5,3.8,3.5c0.4,0.4,1.4,1.5,2.5,2.4
	c2.4,2,3.5,1.8,5.6,3.3c2.2,1.5,3.3,3.3,4.8,5.6c1.5,2.4,3.3,6,2.7,6.4c-0.2,0.2-0.9-0.3-6-5.2c-0.9-0.9-3.5-3.3-7.2-5.7
	c-1.9-1.2-2.8-1.6-3.1-1.3c-0.8,0.6,0.8,3.8,1,4.3c1.8,3.5,4.1,5.2,3.9,5.5c-0.2,0.2-2.8-1.1-5.1-3.6c-2.4-2.7-1.9-3.7-4.2-6.6
	c-2.2-2.8-4.8-4.4-6.4-5.4c-2.4-1.5-2.4-0.9-6.1-2.9c-3.1-1.6-4.1-2.5-7.7-4.3c-3-1.5-4.5-2.2-4.8-1.8c-0.7,0.8,3,5.2,4.8,7.3
	c1.8,2.1,4.1,4.8,7.3,7.4c0.5,0.4,2,1.7,4,3.5c0,0,0.9,0.9,2.4,2.4c2.7,2.9,2.8,3.4,2.7,3.6c-0.2,1.6-3.4,2.3-3.6,2.4
	c-2.2,0.5-4-0.2-5.2-0.6c-3.1-1.1-2.9-2.2-5.6-3.3c-2.3-0.9-2.5-0.1-6.1-1c-1.3-0.3-3.1-0.8-5.1-2c-1.4-0.8-2.3-1.6-3.6-2.7
	c-2.7-2.3-4.4-3.8-5.9-6.3c-1.6-2.6-1.2-3.5-3.1-6c-0.8-1-1.5-2-2.9-2.9c-2.4-1.6-3.6-0.9-4.6-2.2c-1.1-1.5,0.2-2.6-0.8-5.5
	c-0.2-0.6-1.1-3.2-3.4-3.9c-0.3-0.1-1.5-0.5-2.6,0c-1.4,0.6-1.4,1.9-2.7,3.4c-0.6,0.7-1.8,1.3-4,2.5c-4.1,2.1-4.6,2-6.1,3.1
	c-0.9,0.6-1.8,1.7-3.5,3.9c-3.4,4.1-5,6.2-5.7,7.8c-1.2,2.7-1.1,4.4-2.9,5.6c-1.1,0.8-1.6,0.3-2.9,1.2c-1.4,0.9-1.6,1.9-3.5,5
	c-1.5,2.4-2.3,3.7-2.7,3.5c-0.7-0.2-0.6-3.8,0.6-6.9c0.6-1.4,1.4-3.5,3.4-5.1c0.9-0.7,1.8-1.2,2.5-2.5c0.5-0.9,1-2.4,0.5-2.9
	c-0.3-0.3-1-0.1-4,1.7c-2.8,1.7-4.2,2.5-6,3.9c-2,1.6-3,2.4-4,3.8c-0.8,1-1.3,1.9-2.6,3C290.5,317.4,289,318.5,288.7,318.1
	L288.7,318.1z"/>
<path class="st0" d="M318.7,284.4c-0.5-0.2,0.1-4.2,1.8-7.7c0.6-1.3,1.7-2.7,3.9-5.6c2.1-2.7,3.1-3.8,4.7-4.4c0.9-0.4,1-0.2,2-0.6
	c1.8-0.8,2.1-1.7,3.9-3.3c2.3-1.9,2.8-1.3,3.9-2.7c1-1.3,0.8-2.1,2.1-3.5c0.8-0.9,2.1-1.8,2.5-1.6c0.1,0.1,0.2,0.5-1.3,4
	c-0.8,1.9-1.2,2.9-1.6,3.5c-0.8,1.5-1.3,1.8-3.1,4c-1.1,1.4-0.8,1.1-4.2,5.5c-2.1,2.8-3,3.8-3.3,3.6c-0.5-0.3,1.4-3.9,0.5-4.6
	c-0.8-0.5-3,1.3-3.6,1.8c-0.5,0.4-1.9,1.6-3.4,3.9c-1.1,1.7-1,2.1-2.4,4.3C320.1,282.7,319.1,284.5,318.7,284.4L318.7,284.4z"/>
<path class="st0" d="M334.6,292.8c0.9,0.3,1.1,3.8-0.3,6.6c-0.6,1.3-0.9,1-2,2.6c-1.6,2.4-1.2,3.3-3.1,7.8c-0.6,1.4-1,2.1-1.7,3.5
	c-1.1,2.1-1.6,2.8-2.4,3.5c-0.8,0.7-2.3,1.8-2.7,1.4c-0.7-0.5,1.1-3.8,1.2-4c0.9-1.7,1.2-1.5,2-2.9c1.3-2.3,0.5-3.2,1.7-6.1
	c0.2-0.4,0.8-1.5,2.1-3.6c2.2-3.7,2.4-3.7,2.6-4.7c0.3-1.2,0.2-2.1,1-3.1C333.2,293.7,334,292.7,334.6,292.8L334.6,292.8z"/>
<path class="st0" d="M272.7,259.1c0.5-0.2,0-3.1-0.4-4.8c-0.3-1.5-1.2-4.7-3.8-9.1c-0.4-0.7-0.3-0.4-3.9-5.9c-2-3.1-3.1-4.6-3.3-5
	c-0.6-1.2-2.5-4.8-2.7-9.5c-0.1-2.2,0.2-3.9-0.6-6.6c-0.1-0.4-0.9-2.9-1.4-2.9c-0.5,0.1-0.6,2.6-0.6,4.7c-0.1,4.7,0.4,4.6,0.5,9.5
	c0,2.7-0.1,4.1,0.9,5.4c0.4,0.6,1,1,1.4,2c0.5,1.1,0.4,2.1,0.4,2.9c-0.1,2.4,0.3-1.4,0.1,7.6c-0.1,3.5-0.1,3.6,0,4.2
	c0.5,2.9,2.2,5.7,2.9,5.5c0.7-0.2,0.5-3.6,0.4-4.4c-0.2-2.2-0.7-3.8-0.8-6.8c0-1.6,0.1-2.1,0.4-2.2c1-0.5,3.3,2.2,3.6,2.6
	c0.3,0.4,1.5,1.8,2.6,4.3c0.9,2,0.7,2.3,1.6,4.3C270.8,256.4,272.2,259.2,272.7,259.1L272.7,259.1z"/>
<path class="st0" d="M244.8,311.6c1.1-0.5,0.5-4.2,0.4-5.1c-0.4-2.2-0.9-3.2-1.8-5.7c-1.4-3.7-2.1-5.6-2.4-8c-0.4-3,0.4-2.6,0.3-7.3
	c-0.1-3.5-0.6-6-2.2-8.2c-0.2-0.3-1.2-1.6-1.7-1.4c-0.4,0.2-0.1,1.6,0.4,4.6c0.3,1.8,0.5,3.2,0.6,4.4c0.4,3.9-0.4,4.1,0,7.4
	c0.1,1,0.6,2.6,1.4,5.7c0.8,2.9,1.2,4.4,1.7,5.7c0.7,2.1,1,2.4,1,3.5c0.1,1.5-0.3,2.4,0.3,3.3C243.3,311.3,244.2,311.9,244.8,311.6
	L244.8,311.6z"/>
</svg>
