<?xml version="1.0" encoding="UTF-8"?>
<svg id="Calque_1" data-name="Calque 1" xmlns="http://www.w3.org/2000/svg" viewBox="0 0 512 512">
  <defs>
    <style>
      .cls-1 {
        fill: #57523b;
        stroke-width: 0px;
      }
    </style>
  </defs>
  <path class="cls-1" d="m223.76,512l9.59-322.37-201.26,79.21c-9.17-27.48,31.53-68.56,91.86-92.29,23.23-9.14,46.78-14.69,68.11-16.04l5.89-.37L30.94,95.88c6.19-13.82,25.48-21.71,53.23-21.71,23.11,0,50.4,5.6,76.85,15.77,18.05,6.95,35.23,15.85,49.67,25.75l3.75,2.58L162.43,1.21c2.19-.8,4.54-1.2,7.03-1.2,21.75,0,50.85,29.98,69.21,71.26,10.83,24.38,16.57,49.9,15.74,70l-.06,1.52,2.68-.35.13-1.21c-.83-20.1,4.91-45.61,15.74-69.97C291.25,29.97,320.37,0,342.12,0c2.47,0,4.83.4,7.02,1.2l-52.16,117.36,3.77-2.6c14.53-10.02,31.86-19.03,50.09-26.05,26.45-10.17,53.74-15.77,76.85-15.77,27.76,0,47.04,7.89,53.24,21.71l-167.01,64.24,5.89.37c21.33,1.35,44.87,6.9,68.11,16.04,60.32,23.74,101.02,64.82,91.86,92.29l-205.2-80.75,13.22,323.92h-64.02v.04h-.02Zm30.88-335.51l-.23,1.81,1.77-.28,1.15-.24-.09-1.19-1.28-12.25-1.32,12.16h0Z"/>
</svg>