<?xml version="1.0" encoding="utf-8"?>
<!-- Generator: Adobe Illustrator 28.0.0, SVG Export Plug-In . SVG Version: 6.00 Build 0)  -->
<svg version="1.1" id="Calque_1" xmlns="http://www.w3.org/2000/svg" xmlns:xlink="http://www.w3.org/1999/xlink" x="0px" y="0px"
	 viewBox="0 0 512 512" style="enable-background:new 0 0 512 512;" xml:space="preserve">
<style type="text/css">
	.st0{fill:none;stroke:#FE76B8;stroke-width:6;stroke-miterlimit:10;}
	.st1{fill:#FE76B8;}
	.st2{fill:#FCBE11;}
</style>
<g>
	<line class="st0" x1="256" y1="399.2" x2="256" y2="112.8"/>
	<path class="st1" d="M256,135.2c0,0-139.5-7.8-139.5,105.6c0,0,20-23.9,43.8,0c0,0,31.3-23,55.8,8.6c0,0,7.2-17.7,39.9-17.7
		s39.9,17.7,39.9,17.7c24.5-31.6,55.8-8.6,55.8-8.6c23.9-23.9,43.8,0,43.8,0C395.6,127.4,256,135.2,256,135.2L256,135.2z"/>
	<path class="st2" d="M160.3,240.9c0,0,24.3-105.6,95.7-105.6c0,0-51.7,54.4-39.9,114.3C217.1,251.4,195.7,217.2,160.3,240.9
		L160.3,240.9z"/>
	<path class="st2" d="M351.7,240.9c0,0-24.3-105.6-95.7-105.6c0,0,51.7,54.4,39.9,114.3C295,251.4,316.3,217.2,351.7,240.9
		L351.7,240.9z"/>
</g>
</svg>
