<?xml version="1.0" encoding="utf-8"?>
<!-- Generator: Adobe Illustrator 28.0.0, SVG Export Plug-In . SVG Version: 6.00 Build 0)  -->
<svg version="1.1" id="Calque_1" xmlns="http://www.w3.org/2000/svg" xmlns:xlink="http://www.w3.org/1999/xlink" x="0px" y="0px"
	 viewBox="0 0 512 512" style="enable-background:new 0 0 512 512;" xml:space="preserve">
<style type="text/css">
	.st0{fill:#4E4D4D;}
	.st1{fill:#212121;}
</style>
<g>
	<polygon class="st0" points="82.6,395.6 429.4,395.6 429.4,383 416.3,361.8 414.6,314.9 400.5,300.7 401.5,258.3 380.3,248.3 
		363.4,264.2 345.9,241.3 350.3,144.2 305.6,116.4 286,133.9 284.3,196.5 256,195.1 256,234.2 256,276.2 225.4,258.7 192.7,268.5 
		194.9,311 144.8,312.7 114.8,326.3 115.3,360.1 82.6,379.8 	"/>
	<polygon class="st1" points="386.1,357 397.4,351.9 397.4,328.7 393.4,325.4 393.4,269.1 386.1,273.4 386.1,332.3 379.2,338.5 	"/>
	<polygon class="st1" points="429.4,395.6 429.4,385 357,385 354.5,349 359.2,338.9 349.8,318.1 349.8,301.4 342.5,301.4 
		342.5,346.8 327.6,348.5 325.8,365.8 310.9,374.8 316,383.6 82.6,382.5 82.6,395.6 	"/>
	<path class="st1" d="M94.3,372.7H106l20.2-15.7l-3.8-24.2l20.7-9.3l1.6-10.9c0,0-30,10.9-30,13.6s0.6,33.8,0.6,33.8L94.3,372.7z"/>
	<polygon class="st1" points="187.3,376.5 206.4,370.5 206.4,363.4 226,363.4 226,354.7 206.6,354.7 206.6,342.7 187.3,334 
		173.1,342.7 182.9,351.4 180.2,361.8 	"/>
	<polygon class="st1" points="263.1,366.7 274,366.7 283.8,362.3 277.8,357 283.8,353 291.4,342.7 277.3,338.3 270.7,342.7 
		253.3,342.7 253.3,355.2 	"/>
	<polygon class="st1" points="194.9,311 207.5,311 210.2,296.9 218.4,290.3 213.4,280 206.6,282.2 197,267.2 192.7,268.5 	"/>
	<polygon class="st1" points="305.6,116.4 309.4,198.7 295.8,211.8 295.8,258.7 302.6,274.5 294.2,289.1 276.7,278.9 284.9,267.2 
		284.3,196.5 286,133.9 	"/>
	<polygon class="st1" points="314.9,253.3 322.5,236.3 314.9,221.1 309.4,237.2 	"/>
	<polygon class="st1" points="345.9,241.3 335,256 340.5,267.2 357.9,269.1 363.4,264.2 	"/>
</g>
</svg>
