<?xml version="1.0" encoding="utf-8"?>
<!-- Generator: Adobe Illustrator 28.0.0, SVG Export Plug-In . SVG Version: 6.00 Build 0)  -->
<svg version="1.1" id="Calque_1" xmlns="http://www.w3.org/2000/svg" xmlns:xlink="http://www.w3.org/1999/xlink" x="0px" y="0px"
	 viewBox="0 0 512 512" style="enable-background:new 0 0 512 512;" xml:space="preserve">
<style type="text/css">
	.st0{fill:#4E4D4D;}
	.st1{fill:#212121;}
</style>
<g>
	<polygon class="st0" points="70.3,372.4 441.7,372.4 441.7,363 390.8,345.4 390.8,322.2 343.8,310.6 343.8,284.5 328.4,247.6 
		298.4,232.9 295.3,186.6 269.1,175.9 256,139.6 182.8,139.6 158.9,158.1 156.6,233.6 155.8,280.6 124.2,285.2 109.6,327.2 
		70.3,357.6 	"/>
	<path class="st1" d="M70.3,372.4v-11.6c0-0.4,83.6,0,83.6,0v-24.3l30.4-29.3l7,25.5l-5,4.6l7.3,23.9l241.1-0.5l7,2.5v9.2H70.3
		L70.3,372.4z"/>
	<polygon class="st1" points="124.2,285.2 137.7,310 154.7,285.2 155.8,280.6 	"/>
	<polygon class="st1" points="256,324.1 256,277.1 268.7,289.1 268.7,313 	"/>
	<polygon class="st1" points="217.5,261 233.6,249.9 233.6,218.2 215.5,225.6 	"/>
	<polygon class="st1" points="329.2,360.9 329.2,318.8 323.8,311.9 323.8,283.4 315.3,272.1 316.6,241.8 328.4,247.6 343.8,284.5 
		343.8,310.6 348.1,311.8 348.1,360.9 	"/>
	<polygon class="st1" points="298.4,232.9 276.4,244.1 276.4,184.8 279.3,180.1 295.3,186.6 	"/>
	<polygon class="st1" points="247.1,139.6 247.1,188.9 231,199.8 211.3,189.4 211.3,139.6 	"/>
</g>
</svg>
