<?xml version="1.0" encoding="utf-8"?>
<!-- Generator: Adobe Illustrator 28.0.0, SVG Export Plug-In . SVG Version: 6.00 Build 0)  -->
<svg version="1.1" id="Calque_1" xmlns="http://www.w3.org/2000/svg" xmlns:xlink="http://www.w3.org/1999/xlink" x="0px" y="0px"
	 viewBox="0 0 512 512" style="enable-background:new 0 0 512 512;" xml:space="preserve">
<style type="text/css">
	.st0{fill:#FE76B8;}
</style>
<path class="st0" d="M211.5,385.2c-4.5-3.7,49.4-95.8,53.2-80.6c2.4,9.6-6.1,81.2,44.5,75.3C309.3,379.9,235.8,396.1,211.5,385.2
	L211.5,385.2z"/>
<path class="st0" d="M453.8,215.3c5.3-2.5-25-104.8-32.4-91c-4.6,8.7-13.5,80.3-61.2,62.5C360.1,186.8,427.6,220.1,453.8,215.3
	L453.8,215.3z"/>
<path class="st0" d="M130.5,200.5c2.6-4.3-55.8-86.2-55.6-70.8c0.2,9.8,21.1,78.6-17.3,80.5C57.6,210.3,114.9,214.9,130.5,200.5z"/>
</svg>
