<?xml version="1.0" encoding="utf-8"?>
<!-- Generator: Adobe Illustrator 28.0.0, SVG Export Plug-In . SVG Version: 6.00 Build 0)  -->
<svg version="1.1" id="Calque_1" xmlns="http://www.w3.org/2000/svg" xmlns:xlink="http://www.w3.org/1999/xlink" x="0px" y="0px"
	 viewBox="0 0 512 512" style="enable-background:new 0 0 512 512;" xml:space="preserve">
<style type="text/css">
	.st0{fill:#FE76B8;}
</style>
<path class="st0" d="M426.6,9c0,0-136.7-42.8-146.3,58.7c0,0-51.1-64.9-112.5-3.4c0,0-35.2-3.4-41.5,40c0,0-20.7,71.1,35.2,73.2
	c0,0-39.3,50.4,24.9,59.4c0,0-18.6,12.4-0.7,34.5c17.9,22.1,51.1,0,51.1,0s28.3-7.6,20.7,44.2c0,0-36.6-18.6-46.9,13.1
	s13.1,46.2,20,46.9c0,0-11.7,7.6-7.6,17.9c0,0-18.6,5.6-15.2,20.7c0,0-87-21.4-81.4,62.1c0,0-32.5,8.3-29.7,20.7
	c0,0,34.5-0.7,73.2,11c38.7,11.7,47.6-6.2,47.6-6.2s-92.5-4.9-87-13.1c5.6-8.3,18.6-7.6,25.6-9c7-1.4,11.7-6.9,26.2-9
	c14.5-2.1,70.4-3.4,82.1,2.7c0,0-26.9,17.3-91.1,17.3c0,0,58.7,17.9,129.7-10.3c0,0,29-11-17.9-15.2c-46.9-4.1-41.5-11-41.5-11
	s37.3,0,41.5,2.7c0,0-13.8-17.9-68.4-20.7c0,0,24.9-1.4,27.6-9c2.7-7.6-4.1-18.6-4.1-18.6s4.1-20,15.2-9.7c0,0,20.7,21.4,17.9-1.4
	c0,0-10.3-7.6-6.2-12.4l4.1-4.9c0,0,7.6-1.4,8.3,11s52.5,16.6,42.8-22.1c0,0-23.5-29.7-8.3-52.5c0,0,22.8,67.7,72.5,50.4
	s32.5-46.2,20-63.5c0,0,79.4,30.3,79.4-61.5c0,0-1.4-66.9-34.5-65.5c0,0,22.1-34.5-15.2-41.5c0,0,64.2-15.2,38.6-73.2
	C449.4,4.1,426.6,9,426.6,9L426.6,9z"/>
</svg>
