<?xml version="1.0" encoding="utf-8"?>
<!-- Generator: Adobe Illustrator 28.0.0, SVG Export Plug-In . SVG Version: 6.00 Build 0)  -->
<svg version="1.1" id="Calque_1" xmlns="http://www.w3.org/2000/svg" xmlns:xlink="http://www.w3.org/1999/xlink" x="0px" y="0px"
	 viewBox="0 0 512 512" style="enable-background:new 0 0 512 512;" xml:space="preserve">
<style type="text/css">
	.st0{fill:#4E4D4D;}
	.st1{fill:#FCBE11;}
</style>
<path class="st0" d="M315.4,422.3v-95.9c0,0-9-3.1-9.8,7h3.1l-3.1,79.8C305.6,413.3,290.7,422.7,315.4,422.3L315.4,422.3z"/>
<path class="st0" d="M315.4,422.3v-95.9c0,0,9-3.1,9.8,7H322l3.1,79.8C325.2,413.3,340,422.7,315.4,422.3L315.4,422.3z"/>
<path class="st0" d="M310.3,326.3V160.9c0,0,1.3-32.6-49.3-41.5l1.5-7.6c0,0,59.6,5.2,60.1,47s-2,167.4-2,167.4L310.3,326.3
	L310.3,326.3z"/>
<path class="st1" d="M245.2,126.6l-56.6-12.9c0,0-3.1-2.7,0.3-6.1s63.7,14.2,63.7,14.2S253.5,128.5,245.2,126.6L245.2,126.6z"/>
<path class="st0" d="M187.4,107.3c0,0-9.4-2.3-2.5-11.2s14.9-6.1,15.5-5.9c0.6,0.2,53,11.9,53,11.9s12.9,3.7,9.1,14.3
	s-14,4.9-14,4.9L187.4,107.3L187.4,107.3z"/>
</svg>
