<?xml version="1.0" encoding="utf-8"?>
<!-- Generator: Adobe Illustrator 28.0.0, SVG Export Plug-In . SVG Version: 6.00 Build 0)  -->
<svg version="1.1" id="Calque_1" xmlns="http://www.w3.org/2000/svg" xmlns:xlink="http://www.w3.org/1999/xlink" x="0px" y="0px"
	 viewBox="0 0 512 512" style="enable-background:new 0 0 512 512;" xml:space="preserve">
<style type="text/css">
	.st0{fill:#FE76B8;}
</style>
<path class="st0" d="M290.9,444.2c0,0-101,24.7-124.4,0c0,0-31.7-58.7,32.9-211.3c0,0-22.8-28.5-55.7-55
	c-30.8-24.8-53.6-91.8-23.1-121.1c0,0-4.1,36,47.5,59.4c46.8,21.3,54.6,31,59.3,63.8c0,0,3.4-44.7,86.7-37.7c0,0,58.8,14.3,91.7-41
	c0,0-12.9,92.7-90.4,111.5s-66.9,14.1-89.2,25.8C226.3,238.7,204,302.1,290.9,444.2L290.9,444.2z"/>
</svg>
